<svg width="47" height="70" viewBox="0 0 47 70" fill="none" xmlns="http://www.w3.org/2000/svg">
<path d="M6.49512 60.1142V62.4778V62.4803V62.4838H6.49553C6.49703 62.6416 6.57537 62.7987 6.7315 62.8888L18.6277 69.757C19.1889 70.081 19.8804 70.081 20.4417 69.757L40.5046 58.1736C40.6623 58.0826 40.7411 57.9232 40.7411 57.7639V55.4063L6.49512 60.1142Z" fill="url(#paint0_linear_756_2)"/>
<path d="M6.7307 60.5312L18.6269 67.3994C19.1881 67.7234 19.8796 67.7234 20.4408 67.3994L40.5038 55.8161C40.8192 55.634 40.8192 55.1787 40.5038 54.9966L28.6076 48.1284C28.0464 47.8044 27.3548 47.8044 26.7936 48.1284L6.7307 59.7117C6.41529 59.8938 6.41529 60.3491 6.7307 60.5312Z" fill="url(#paint1_linear_756_2)"/>
<path d="M37.3838 22.1526C36.6467 22.1528 35.93 21.7702 35.5351 21.0861C34.9462 20.0662 35.2957 18.762 36.3156 18.1732L38.9258 16.6661C41.2696 15.313 42.7255 12.7912 42.7255 10.0849V4.99923L38.448 7.46892C37.4281 8.05777 36.1239 7.70831 35.5351 6.68839C34.9462 5.66847 35.2957 4.36431 36.3156 3.77547L41.0414 1.04697C42.2831 0.330155 43.7657 0.330018 45.0075 1.04697C46.2492 1.76379 46.9905 3.04785 46.9905 4.48162V10.0849C46.9905 14.3099 44.7174 18.247 41.0584 20.3596L38.4481 21.8666C38.1122 22.0605 37.7454 22.1526 37.3838 22.1526Z" fill="#D7D7D7"/>
<path d="M8.99219 46.253V59.5951V59.5971V59.6002H8.9926C8.99397 59.735 9.06082 59.8691 9.19412 59.9461L19.3556 65.8128C19.8349 66.0895 20.4256 66.0895 20.905 65.8128L38.0423 55.9186C38.177 55.8408 38.2444 55.7046 38.2444 55.5686V42.2317L8.99219 46.253Z" fill="url(#paint2_linear_756_2)"/>
<path d="M9.19419 46.6091L19.3557 52.4759C19.835 52.7526 20.4256 52.7526 20.9051 52.4759L38.0424 42.5817C38.3118 42.4261 38.3118 42.0373 38.0424 41.8817L27.8809 36.015C27.4016 35.7381 26.8108 35.7381 26.3315 36.015L9.19419 45.9091C8.92485 46.0647 8.92485 46.4536 9.19419 46.6091Z" fill="url(#paint3_linear_756_2)"/>
<path d="M26.6281 38.2809L19.459 38.9213V43.7375H19.4591C19.4537 44.2177 19.7404 44.6768 20.3332 45.019C21.6293 45.7674 23.8935 45.6734 25.3901 44.8094C26.2304 44.3243 26.65 43.6995 26.6273 43.1123L26.6282 43.1121V38.2809H26.6281Z" fill="url(#paint4_linear_756_2)"/>
<path d="M5.24219 12.4754V23.4153C5.24219 33.2579 13.2211 41.2368 23.0636 41.2368C32.9061 41.2368 40.885 33.2579 40.885 23.4153V8.73477L5.24219 12.4754Z" fill="url(#paint5_linear_756_2)"/>
<path d="M34.7226 17.0454C42.1716 12.7446 42.9807 6.23899 36.5296 2.5145C30.0785 -1.21013 18.8103 -0.742962 11.3613 3.55766C3.91236 7.85842 3.10326 14.364 9.55433 18.0885C16.0054 21.8132 27.2736 21.346 34.7226 17.0454Z" fill="url(#paint6_linear_756_2)"/>
<path d="M32.4292 15.7211C38.4156 12.2649 39.0657 7.0366 33.8814 4.04356C28.6972 1.05051 19.6415 1.4258 13.6553 4.88191C7.66889 8.33816 7.01879 13.5663 12.203 16.5595C17.3873 19.5526 26.4428 19.1772 32.4292 15.7211Z" fill="url(#paint7_linear_756_2)"/>
<path d="M23.6973 54.0595L35.1111 47.4696V55.1225L23.6973 61.7123V54.0595Z" fill="#C5BAEB"/>
<path d="M6.27894 39.4779C5.20064 39.4779 4.12234 39.1941 3.13947 38.6267C1.17359 37.4917 0 35.4589 0 33.1889V27.554C0 25.8197 0.933104 24.2034 2.4351 23.3362L7.28615 20.5356C8.3062 19.9466 9.61023 20.2962 10.1991 21.3161C10.7879 22.336 10.4385 23.6402 9.41855 24.229L4.56763 27.0297C4.38088 27.1374 4.26494 27.3384 4.26494 27.554V33.1889C4.26494 34.2385 4.96918 34.7584 5.27201 34.9331C5.57498 35.1078 6.37724 35.4577 7.28615 34.9331L9.31328 33.7628C10.3331 33.1741 11.6374 33.5236 12.2262 34.5435C12.8151 35.5634 12.4656 36.8676 11.4455 37.4564L9.41855 38.6267C8.43554 39.1942 7.35724 39.4779 6.27894 39.4779Z" fill="#D7D7D7"/>
<path d="M34.5679 55.4357L35.1104 54.3992V47.4696L34.9544 47.5596L29.2148 58.5263L34.5679 55.4357Z" fill="url(#paint8_linear_756_2)"/>
<path d="M32.6471 48.8922L24.7011 53.4798L23.6973 55.398V61.7123L26.9074 59.859L32.6471 48.8922Z" fill="url(#paint9_linear_756_2)"/>
<path d="M37.3838 22.1526C36.6467 22.1528 35.93 21.7702 35.5351 21.0861C34.9462 20.0662 35.2957 18.762 36.3156 18.1732L38.9258 16.6661C41.2696 15.313 42.7255 12.7912 42.7255 10.0849V4.99923L38.448 7.46892C37.4281 8.05777 36.1239 7.70831 35.5351 6.68839C34.9462 5.66847 35.2957 4.36431 36.3156 3.77547L41.0414 1.04697C42.2831 0.330155 43.7657 0.330018 45.0075 1.04697C46.2492 1.76379 46.9905 3.04785 46.9905 4.48162V10.0849C46.9905 14.3099 44.7174 18.247 41.0584 20.3596L38.4481 21.8666C38.1122 22.0605 37.7454 22.1526 37.3838 22.1526Z" fill="#FFC538"/>
<path d="M26.6281 38.2809L19.459 38.9213V43.7375H19.4591C19.4537 44.2177 19.7404 44.6768 20.3332 45.019C21.6293 45.7674 23.8935 45.6734 25.3901 44.8094C26.2304 44.3243 26.65 43.6995 26.6273 43.1123L26.6282 43.1121V38.2809H26.6281Z" fill="url(#paint10_linear_756_2)"/>
<path d="M5.24219 12.4754V23.4153C5.24219 33.2579 13.2211 41.2368 23.0636 41.2368C32.9061 41.2368 40.885 33.2579 40.885 23.4153V8.73477L5.24219 12.4754Z" fill="url(#paint11_linear_756_2)"/>
<path d="M34.7226 17.0454C42.1716 12.7446 42.9807 6.23899 36.5296 2.5145C30.0785 -1.21013 18.8103 -0.742962 11.3613 3.55766C3.91236 7.85842 3.10326 14.364 9.55433 18.0885C16.0054 21.8132 27.2736 21.346 34.7226 17.0454Z" fill="url(#paint12_linear_756_2)"/>
<path d="M32.4292 15.7211C38.4156 12.2649 39.0657 7.0366 33.8814 4.04356C28.6972 1.05051 19.6415 1.4258 13.6553 4.88191C7.66889 8.33816 7.01879 13.5663 12.203 16.5595C17.3873 19.5526 26.4428 19.1772 32.4292 15.7211Z" fill="url(#paint13_linear_756_2)"/>
<path d="M6.27894 39.4779C5.20064 39.4779 4.12234 39.1941 3.13947 38.6267C1.17359 37.4917 0 35.4589 0 33.1889V27.554C0 25.8197 0.933104 24.2034 2.4351 23.3362L7.28615 20.5356C8.3062 19.9466 9.61023 20.2962 10.1991 21.3161C10.7879 22.336 10.4385 23.6402 9.41855 24.229L4.56763 27.0297C4.38088 27.1374 4.26494 27.3384 4.26494 27.554V33.1889C4.26494 34.2385 4.96918 34.7584 5.27201 34.9331C5.57498 35.1078 6.37724 35.4577 7.28615 34.9331L9.31328 33.7628C10.3331 33.1741 11.6374 33.5236 12.2262 34.5435C12.8151 35.5634 12.4656 36.8676 11.4455 37.4564L9.41855 38.6267C8.43554 39.1942 7.35724 39.4779 6.27894 39.4779Z" fill="#FFC538"/>
<defs>
<linearGradient id="paint0_linear_756_2" x1="17.6686" y1="62.7031" x2="22.9127" y2="62.7031" gradientUnits="userSpaceOnUse">
<stop stop-color="#2D3180"/>
<stop offset="1" stop-color="#3F46B0"/>
</linearGradient>
<linearGradient id="paint1_linear_756_2" x1="13.1808" y1="63.7894" x2="45.8135" y2="44.9489" gradientUnits="userSpaceOnUse">
<stop stop-color="#5155A5"/>
<stop offset="1" stop-color="#8F93DD"/>
</linearGradient>
<linearGradient id="paint2_linear_756_2" x1="18.5362" y1="54.1261" x2="23.0158" y2="54.1261" gradientUnits="userSpaceOnUse">
<stop stop-color="#2D3080"/>
<stop offset="1" stop-color="#3F45AF"/>
</linearGradient>
<linearGradient id="paint3_linear_756_2" x1="14.7037" y1="49.3923" x2="42.5779" y2="33.299" gradientUnits="userSpaceOnUse">
<stop stop-color="#5055A5"/>
<stop offset="1" stop-color="#A8ABF2"/>
</linearGradient>
<linearGradient id="paint4_linear_756_2" x1="19.459" y1="41.9025" x2="26.6281" y2="41.9025" gradientUnits="userSpaceOnUse">
<stop stop-color="#6F6F6F"/>
<stop offset="1" stop-color="#D2D2D2"/>
</linearGradient>
<linearGradient id="paint5_linear_756_2" x1="-6.3048" y1="40.0476" x2="35.382" y2="15.9798" gradientUnits="userSpaceOnUse">
<stop offset="0.16501" stop-color="#606060"/>
<stop offset="1" stop-color="#BFBFBF"/>
</linearGradient>
<linearGradient id="paint6_linear_756_2" x1="11.3614" y1="3.57051" x2="23.035" y2="23.802" gradientUnits="userSpaceOnUse">
<stop stop-color="#A3A3A3"/>
<stop offset="1" stop-color="#E9E9E9"/>
</linearGradient>
<linearGradient id="paint7_linear_756_2" x1="33.776" y1="4.10426" x2="12.4167" y2="16.436" gradientUnits="userSpaceOnUse">
<stop stop-color="#575757"/>
<stop offset="1" stop-color="#9E9E9E"/>
</linearGradient>
<linearGradient id="paint8_linear_756_2" x1="38.1095" y1="56.4314" x2="31.2521" y2="52.4722" gradientUnits="userSpaceOnUse">
<stop stop-color="white"/>
<stop offset="1" stop-color="white" stop-opacity="0"/>
</linearGradient>
<linearGradient id="paint9_linear_756_2" x1="35.8532" y1="59.7369" x2="24.4913" y2="53.1771" gradientUnits="userSpaceOnUse">
<stop stop-color="white"/>
<stop offset="1" stop-color="white" stop-opacity="0"/>
</linearGradient>
<linearGradient id="paint10_linear_756_2" x1="19.459" y1="41.9025" x2="26.6281" y2="41.9025" gradientUnits="userSpaceOnUse">
<stop stop-color="#E37A34"/>
<stop offset="1" stop-color="#FFC538"/>
</linearGradient>
<linearGradient id="paint11_linear_756_2" x1="-6.3048" y1="40.0476" x2="35.382" y2="15.9798" gradientUnits="userSpaceOnUse">
<stop stop-color="#E37A34"/>
<stop offset="0.0221" stop-color="#E37C34"/>
<stop offset="0.6897" stop-color="#F1C43D"/>
<stop offset="1" stop-color="#F7E041"/>
</linearGradient>
<linearGradient id="paint12_linear_756_2" x1="11.3614" y1="3.57051" x2="23.035" y2="23.802" gradientUnits="userSpaceOnUse">
<stop stop-color="#F7E041"/>
<stop offset="1" stop-color="#FCF3B3"/>
</linearGradient>
<linearGradient id="paint13_linear_756_2" x1="33.776" y1="4.10426" x2="12.4167" y2="16.436" gradientUnits="userSpaceOnUse">
<stop stop-color="#E37A34"/>
<stop offset="1" stop-color="#FFC538"/>
</linearGradient>
</defs>
</svg>
