<svg xmlns="http://www.w3.org/2000/svg" width="584.965" height="390.446"><defs><clipPath id="a"><path data-name="矩形 5140" fill="none" d="M0 0h578.414v380.409H0z"/></clipPath><clipPath id="b"><path data-name="矩形 5133" fill="none" d="M0 0h13.572v14.219H0z"/></clipPath><clipPath id="c"><path data-name="路径 16067" d="M277.454 390.035c-6.923.729-12.52 4.372-13.067 9.291h45.127a76.645 76.645 0 0 0-2.908-14.755l-18.653-.123a15.757 15.757 0 0 1-10.5 5.588" transform="translate(-264.387 -384.447)" fill="none"/></clipPath><clipPath id="d"><path data-name="路径 16074" d="M324.707 384.57a76.6 76.6 0 0 0-2.907 14.755h45.128c-.547-4.919-6.145-8.562-13.066-9.291a15.765 15.765 0 0 1-10.5-5.588Z" transform="translate(-321.8 -384.447)" fill="none"/></clipPath></defs><g data-name="组 6128"><g data-name="组 6127" clip-path="url(#a)" transform="rotate(-1 578.386 5.047)"><g data-name="组 6118"><g data-name="组 6117" clip-path="url(#a)"><path data-name="路径 15884" d="M577.09 374.274c0 3.388-129.186 6.135-288.545 6.135S0 377.662 0 374.274s129.186-6.135 288.545-6.135 288.545 2.747 288.545 6.135" fill="#e1d2b2"/><path data-name="路径 15885" d="m458.69 361.488-9.392 5.171a2.709 2.709 0 0 0-1.29 2.992c.244.94 1.047 1.658 3.136 1.7 4.643.093 25.189-3.332 25.189-3.332v2.406l9.535-1.2s.667-12.164-2.237-13.944Z" fill="#1e0b02"/><path data-name="路径 15886" d="m471.272 351.217-12.582 10.27s1.619 4.645 8.789 1.548 16.152-7.76 16.152-7.76l-1.309-5.374Z" fill="#e8af94"/><path data-name="路径 15887" d="m482.322 349.902 1.309-37.285-12.47-1.013v43.671Z" fill="#e8af94"/><path data-name="路径 15888" d="m517.175 361.488 9.392 5.171a2.709 2.709 0 0 1 1.29 2.992c-.244.94-1.047 1.658-3.136 1.7-4.643.093-25.189-3.332-25.189-3.332v2.406l-9.535-1.2s-.667-12.164 2.237-13.944Z" fill="#1e0b02"/><path data-name="路径 15889" d="m504.592 351.217 12.582 10.27s-1.619 4.645-8.789 1.548-16.152-7.76-16.152-7.76l1.312-5.373Z" fill="#e8af94"/><path data-name="路径 15890" d="m493.543 349.902.954-37.285 12.471-1.013-2.264 43.671Z" fill="#e8af94"/><path data-name="路径 15891" d="M473.376 141.959s-15.033 9.518-12.066 52.964 7.557 145.5 7.557 145.5h15.343l5.19-161.783 2.516-.108-.069 161.89h15.34l12.06-148.748s3.537-28.993-10.672-49.724c2.015 1.327-18.468-9.67-35.2 0" fill="#233b84"/><path data-name="直线 47" fill="none" stroke="#000" stroke-linecap="round" stroke-linejoin="round" stroke-width=".996" d="m482.603 178.639 15.42.706"/><path data-name="路径 15892" d="M515.497 61.299a11.084 11.084 0 1 1-11.084-11.084 11.085 11.085 0 0 1 11.084 11.084" fill="#86524d"/><path data-name="路径 15893" d="M475.832 44.271s-2.931-2.276-5.071.427c-3.256 4.107 2.439 11.547 7.392 7.716Z" fill="#e8b499"/><path data-name="路径 15894" d="M472.868 47.032s1.638-.516 3.41 2.937" fill="none" stroke="#000" stroke-linecap="round" stroke-linejoin="round" stroke-width=".519"/><path data-name="路径 15895" d="M480.302 57.059c-.244 3.285-1.987 5.256-3.761 5.256-2.029 0-3.673-2.23-3.673-4.981s1.644-4.981 3.673-4.981" fill="none" stroke="#eac66e" stroke-linecap="round" stroke-linejoin="round" stroke-width="1.033"/><path data-name="路径 15896" d="M507.253 44.271s2.931-2.276 5.071.427c3.255 4.107-2.44 11.547-7.392 7.716Z" fill="#e8b499"/><path data-name="路径 15897" d="M510.218 47.032s-1.638-.516-3.41 2.937" fill="none" stroke="#000" stroke-linecap="round" stroke-linejoin="round" stroke-width=".519"/><path data-name="路径 15898" d="M502.645 56.702c0 3.06 2.125 5.613 3.9 5.613 2.028 0 3.672-2.23 3.672-4.982s-1.644-4.981-3.672-4.981" fill="none" stroke="#eac66e" stroke-linecap="round" stroke-linejoin="round" stroke-width="1.033"/><path data-name="路径 15899" d="M510.392 36.503a18.753 18.753 0 0 1-37.494 0 18.753 18.753 0 0 1 37.494 0" fill="#86524d"/><path data-name="路径 15900" d="m486.373 60.847-1.251 18.46h12.851l-1.813-18.67Z" fill="#e8b499"/><path data-name="路径 15901" d="M486.229 62.153c.43.238 10.814 7.565 10.814 7.565l-.881-9.081Z"/><path data-name="路径 15902" d="M475.802 35.139s-1.977 28.223 15.2 28.223c18.571 0 16.624-28.223 16.624-28.223s-.1-12.71-16.053-12.71c-14.62 0-15.768 12.71-15.768 12.71" fill="#e8b499"/><path data-name="路径 15903" d="M486 45.022a1.355 1.355 0 1 1-1.355-1.355A1.355 1.355 0 0 1 486 45.022"/><path data-name="路径 15904" d="M499.545 45.022a1.355 1.355 0 1 1-1.355-1.355 1.355 1.355 0 0 1 1.355 1.355"/><path data-name="路径 15905" d="M486.56 53.29h8.563s-.579 2.173-4.233 2.173-4.33-2.173-4.33-2.173" fill="#fff"/><path data-name="路径 15906" d="M490.103 48.425v2.2l1.6.029" fill="none" stroke="#000" stroke-linecap="round" stroke-linejoin="round" stroke-width=".519"/><path data-name="路径 15907" d="M498.075 37.395s-3.477-.676-3.638 1.2c0 0-.083 1.269 2.957 1.782s5.17.65 5.529-.519-3.206-2.306-4.848-2.458" fill="#1e0b02"/><path data-name="路径 15908" d="M482.135 37.577s-3.539.157-3.256 2.014c0 0 .218 1.253 3.292 1.039s5.259-.568 5.259-1.92c0-1.577-3.662-1.37-5.294-1.133" fill="#1e0b02"/><path data-name="路径 15909" d="M474.573 35.684s11.6-3.118 12.856-13.254c0 0-12.338-2.408-12.856 13.254" fill="#86524d"/><path data-name="路径 15910" d="M484.663 22.298s2.723 13.593 24.445 12.872c0 0-1.408-12.137-12.273-14.114s-12.172 1.242-12.172 1.242" fill="#86524d"/><path data-name="路径 15911" d="M473.375 137.21v4.75a179.14 179.14 0 0 1 35.2 0v-4.75l-17.634-5.115Z" fill="#1e0b02"/><path data-name="路径 15912" d="m477.277 79.238-12.388 2.92s5.149 37.15 8.486 55.052c0 0 17.872-2.959 35.2 0 0 0 8.929-38.908 12.875-55.052l-14.236-3.79Z" fill="#ebcc61"/><path data-name="路径 15913" d="m491.859 72.575-14.58 6.662s.445 6.372 15.515 6.4c12.839.021 14.419-7.267 14.419-7.267Z" fill="#e8b499"/><path data-name="路径 15914" d="M514.614 81.535s9.8-3.146 16.177 11.013 12.84 30.336 12.84 30.336l-11.834 3.182-18.983-28.191Z" fill="#ebcc61"/><path data-name="直线 48" fill="none" stroke="#000" stroke-linecap="round" stroke-linejoin="round" stroke-width=".996" d="m516.167 103.651 1.169-6.214"/><path data-name="路径 15915" d="m551.621 79.503 6.915 1.569-10.636 45.6a8.173 8.173 0 1 1-15.36-5.392Z" fill="#e8af94"/><path data-name="路径 15916" d="m551.776 78.001.393-1.8a15.811 15.811 0 0 1 3.182-6.6l2.752-3.381a1.675 1.675 0 0 1 2.557-.049 2.145 2.145 0 0 1 .3 2.381l-2.081 4.126 13.324-8.768a1.3 1.3 0 0 1 1.89.466l.242.465a1.3 1.3 0 0 1-.334 1.608l-8.751 6.219 11.04-5.753a1.3 1.3 0 0 1 1.853.582l.157.352a1.3 1.3 0 0 1-.515 1.639l-9.476 5.639 8.131-2.7a1.3 1.3 0 0 1 1.731 1.043l.022.165a1.3 1.3 0 0 1-.737 1.35l-8.247 3.405 4.644-.774a1.3 1.3 0 0 1 .9 2.431l-20.894 8.315-1.723-4.8a10.1 10.1 0 0 1-.361-5.567" fill="#e8af94"/><path data-name="路径 15917" d="M558.88 72.684a8.527 8.527 0 0 1-.909 7.189" fill="none" stroke="#d6967c" stroke-linecap="round" stroke-linejoin="round" stroke-width=".898"/><path data-name="路径 15918" d="M469.974 82.134s-9.8-3.146-16.177 11.013a267.477 267.477 0 0 1-14.708 27.529l13.7 5.986 19.92-28.186Z" fill="#ebcc61"/><path data-name="直线 49" fill="none" stroke="#000" stroke-linecap="round" stroke-linejoin="round" stroke-width=".996" d="m468.167 104.901-.675-6.7"/><path data-name="路径 15919" d="m405.711 99.194-3.985 5.865 38.9 26.079a8.173 8.173 0 1 0 7.549-14.423Z" fill="#e8af94"/><path data-name="路径 15920" d="M167.21 357.435h15.229l.6-29.72h-15.23Z" fill="#c67d69"/><path data-name="路径 15921" d="M183.737 352.029h-18.693a22.575 22.575 0 0 1-12.419 5.832c-7.388.777-11.469 4.665-12.053 9.915h46.268a81.75 81.75 0 0 0-3.1-15.747" fill="#fff"/><path data-name="矩形 5126" fill="#291e1e" d="M140.571 367.775h46.267v3.305h-46.267z"/><path data-name="路径 15922" d="M185.61 359.645s-8.765.891-8.765 8.13" fill="none" stroke="#1e0b02" stroke-linecap="round" stroke-linejoin="round" stroke-width="1.424"/><path data-name="路径 15923" d="M160.864 354.872s1.458-.015 4.352 2.169" fill="none" stroke="#1e0b02" stroke-linecap="round" stroke-linejoin="round" stroke-width="1.424"/><path data-name="路径 15924" d="M157.447 357.043a6.36 6.36 0 0 1 4.286 2.21" fill="none" stroke="#1e0b02" stroke-linecap="round" stroke-linejoin="round" stroke-width="1.424"/><path data-name="路径 15925" d="M222.35 357.435h-15.23l-.6-29.72h15.23Z" fill="#c67d69"/><path data-name="路径 15926" d="M205.824 352.029h18.694a22.575 22.575 0 0 0 12.419 5.832c7.388.777 11.469 4.665 12.053 9.915h-46.268a81.752 81.752 0 0 1 3.1-15.747" fill="#fff"/><path data-name="矩形 5127" fill="#291e1e" d="M202.722 367.775h46.267v3.305h-46.267z"/><path data-name="路径 15927" d="M203.95 359.645s8.765.891 8.765 8.13" fill="none" stroke="#1e0b02" stroke-linecap="round" stroke-linejoin="round" stroke-width="1.424"/><path data-name="路径 15928" d="M228.695 354.872s-1.458-.015-4.352 2.169" fill="none" stroke="#1e0b02" stroke-linecap="round" stroke-linejoin="round" stroke-width="1.424"/><path data-name="路径 15929" d="M232.113 357.043a6.36 6.36 0 0 0-4.286 2.21" fill="none" stroke="#1e0b02" stroke-linecap="round" stroke-linejoin="round" stroke-width="1.424"/><path data-name="路径 15930" d="m164.808 157.007-.413 41.51-.689 140.693h25.656l4.686-148.541 7.137 148.543h25.446s-.923-126.806-3.742-173.9l-.859-8.3-27.059-12.014Z" fill="#291e1e"/><path data-name="直线 50" fill="none" stroke="#4d4d4d" stroke-linecap="round" stroke-linejoin="round" stroke-width=".996" d="m194.036 190.913-12.226-4.57"/><path data-name="路径 15931" d="M176.476 28.598s-2.968-2.305-5.137.434c-3.3 4.16 2.472 11.694 7.487 7.815Z" fill="#c67d69"/><path data-name="路径 15932" d="M173.473 31.393s1.66-.522 3.454 2.974" fill="none" stroke="#000" stroke-linecap="round" stroke-linejoin="round" stroke-width=".525"/><path data-name="路径 15933" d="M208.105 28.598s2.968-2.305 5.137.434c3.3 4.16-2.472 11.694-7.487 7.815Z" fill="#c67d69"/><path data-name="路径 15934" d="M211.108 31.393s-1.66-.522-3.454 2.974" fill="none" stroke="#000" stroke-linecap="round" stroke-linejoin="round" stroke-width=".525"/><path data-name="路径 15935" d="M212.252 19.7a19.7 19.7 0 1 1-19.7-19.7 19.7 19.7 0 0 1 19.7 19.7"/><path data-name="路径 15936" d="m186.629 46.347-2.041 15.457 16.261-.174-2.962-15.5Z" fill="#c67d69"/><path data-name="路径 15937" d="M186.465 47.669c.5.241 13.087 7.169 13.087 7.169l-1.664-8.7Z"/><path data-name="路径 15938" d="M176.444 19.347s-2.44 29.768 15.391 30.126c19.272.386 16.838-30.126 16.838-30.126s-.106-15.144-16.26-15.144c-14.808 0-15.97 15.144-15.97 15.144" fill="#c67d69"/><path data-name="路径 15939" d="M177.754 11.388s11.666 2.823 30.657 0c0 0-1.62-8.687-15.329-8.687s-15.328 8.687-15.328 8.687"/><path data-name="路径 15940" d="M179.065 10.471s1.469 3.773-2.62 8.875l-1.245-3.425 3.626-8.23"/><path data-name="路径 15941" d="M206.265 10.471s-1.469 3.773 2.621 8.875l1.244-3.427-3.626-8.23"/><path data-name="路径 15942" d="M186.426 28.367a1.373 1.373 0 1 1-1.373-1.372 1.372 1.372 0 0 1 1.373 1.372"/><path data-name="路径 15943" d="M200.146 28.367a1.373 1.373 0 1 1-1.373-1.372 1.372 1.372 0 0 1 1.373 1.372"/><path data-name="路径 15944" d="m179.93 22.48 8.06-.727a1.115 1.115 0 0 0 .519-2.038 6.926 6.926 0 0 0-4.716-.915 9.025 9.025 0 0 0-4.62 1.669 1.116 1.116 0 0 0 .757 2.011"/><path data-name="路径 15945" d="m203.554 22.48-8.06-.727a1.115 1.115 0 0 1-.519-2.038 6.93 6.93 0 0 1 4.717-.915 9.029 9.029 0 0 1 4.62 1.669 1.116 1.116 0 0 1-.758 2.011"/><path data-name="路径 15946" d="m190.543 30.032.039 4.011 2.264.042" fill="none" stroke="#000" stroke-linecap="round" stroke-linejoin="round" stroke-width=".525"/><path data-name="路径 15947" d="M186.524 36.401h11.365s-.764 3.708-5.682 3.708-5.682-3.708-5.682-3.708" fill="#fff"/><path data-name="路径 15948" d="m238.897 85.512 16 29.374a10.744 10.744 0 0 1-18.572 10.794l-16.63-26.877Z" fill="#c67d69"/><path data-name="路径 15949" d="m243.888 89.618-23.282 14.754-10.5-17.171a13.651 13.651 0 0 1 23.2-14.394Z" fill="#e096b4"/><path data-name="路径 15950" d="m288.819 144.47 5.515-13.7-44.062-19.33a10.2 10.2 0 1 0-7.977 18.689Z" fill="#c67d69"/><path data-name="路径 15951" d="m155.506 93.247-27.984 4.919a10.653 10.653 0 0 1-12.137-8.671c-1.039-5.885 2.468-11.248 8.376-12.156l28.164-5.922Z" fill="#c67d69"/><path data-name="路径 15952" d="m142.258 70.765 26.317-6.131 3.358 28.412-24.052 2.961Z" fill="#e096b4"/><path data-name="路径 15953" d="m200.359 62.04 17.6 3.745a5.952 5.952 0 0 1 4.712 5.919l2.393 88.125s-31.117 13.365-62.121-.019l1.227-89.37a5.952 5.952 0 0 1 5.285-5.973l15.382-1.731Z" fill="#e096b4"/><path data-name="直线 51" fill="none" stroke="#000" stroke-linecap="round" stroke-linejoin="round" stroke-width=".996" d="m222.137 103.401.113-20.851"/><path data-name="直线 52" fill="none" stroke="#000" stroke-linecap="round" stroke-linejoin="round" stroke-width=".996" d="m164.364 93.978-.284-10.744"/><path data-name="路径 15954" d="m201.156 61.627-8.725 15.185-8.225-15Z" fill="#c67d69"/><path data-name="路径 15955" d="m201.381 60.646 5.21 2.718-5.973 11.806-5.037-3.843Z" fill="#fff"/><path data-name="路径 15956" d="m183.952 60.555-5.9 2.735 6.15 11.8 5.113-3.952Z" fill="#fff"/><path data-name="路径 15957" d="m80.45 358.809 15.407-1.73-1.454-27.284-15.579-1.486Z" fill="#fff"/><path data-name="路径 15958" d="m96.68 352.755-19.421-.128a16.411 16.411 0 0 1-10.932 5.817c-7.207.759-13.033 4.551-13.6 9.672h46.982a79.741 79.741 0 0 0-3.027-15.362"/><path data-name="矩形 5128" fill="#fff" d="M52.725 368.117h46.981v3.224H52.725z"/><path data-name="路径 15959" d="M71.818 356.589s1.423-.015 4.246 2.116" fill="none" stroke="#fff" stroke-linecap="round" stroke-linejoin="round" stroke-width="1.118"/><path data-name="路径 15960" d="M68.943 358.029a6.2 6.2 0 0 1 4.181 2.156" fill="none" stroke="#fff" stroke-linecap="round" stroke-linejoin="round" stroke-width="1.118"/><path data-name="路径 15961" d="m140.794 358.809-15.407-1.73-3.157-27.284 15.579-1.486Z" fill="#fff"/><path data-name="路径 15962" d="m124.565 352.755 19.421-.128a16.411 16.411 0 0 0 10.932 5.817c7.207.759 13.033 4.551 13.6 9.672h-46.98a79.74 79.74 0 0 1 3.027-15.362"/><path data-name="矩形 5129" fill="#fff" d="M121.538 368.117h46.981v3.224h-46.981z"/><path data-name="路径 15963" d="M149.427 356.589s-1.423-.015-4.246 2.116" fill="none" stroke="#fff" stroke-linecap="round" stroke-linejoin="round" stroke-width="1.118"/><path data-name="路径 15964" d="M152.302 358.029a6.2 6.2 0 0 0-4.181 2.156" fill="none" stroke="#fff" stroke-linecap="round" stroke-linejoin="round" stroke-width="1.118"/><path data-name="路径 15965" d="M69.738 155.631s-5.816 16.133-4.275 46.948l9.381 138.555h22.37v-141.8l23.018 141.8h22.812l-16.212-180.673H112.32Z" fill="#4559b3"/><path data-name="直线 53" fill="none" stroke="#000" stroke-linecap="round" stroke-linejoin="round" stroke-width=".996" d="m97.437 200.11-12.716-2.237"/><path data-name="路径 15966" d="M90.03 16.698s-9.772.2-10.931 7.567c-1 6.388 3.384 14.159 3.384 14.159l2.485-16.536Z"/><path data-name="路径 15967" d="M109.715 12.94s12.651-3.317 13.66 7.131c.813 8.413-5.938 20.123-5.938 20.123l-.69-17.747Z"/><path data-name="路径 15968" d="M111.962 20.937s7.911-8.439-.583-14.04c-6.935-4.573-11.358-.652-19.911-2.168-9.627-1.7-14.292 5.048-14 10.274.556 9.775 16.8 14.023 16.8 14.023Z"/><path data-name="路径 15969" d="M83.917 38.172s-3.089-2.4-5.346.45c-3.431 4.33 2.572 12.172 7.792 8.135Z" fill="#e8b499"/><path data-name="路径 15970" d="M80.793 41.079s2.365 0 3.595 3.1" fill="none" stroke="#000" stroke-linecap="round" stroke-linejoin="round" stroke-width=".547"/><path data-name="路径 15971" d="M116.837 38.172s3.089-2.4 5.346.45c3.431 4.33-2.572 12.172-7.792 8.135Z" fill="#e8b499"/><path data-name="路径 15972" d="M119.963 41.079s-2.43-.028-3.595 3.1" fill="none" stroke="#000" stroke-linecap="round" stroke-linejoin="round" stroke-width=".547"/><path data-name="路径 15973" d="M120.562 29.4a20.2 20.2 0 1 1-20.2-20.2 20.2 20.2 0 0 1 20.2 20.2"/><path data-name="路径 15974" d="m94.484 56.47-1.5 18.606h15.387l-2.169-18.829Z" fill="#e8b499"/><path data-name="路径 15975" d="M94.314 57.846c.515.251 12.742 5.811 12.742 5.811l-.854-7.41Z"/><path data-name="路径 15976" d="M83.885 28.542s-1.3 30.613 16.014 30.613c18.266 0 17.53-30.613 17.53-30.613s-.11-13.4-16.923-13.4c-15.411 0-16.622 13.4-16.622 13.4" fill="#e8b499"/><path data-name="路径 15977" d="M107.771 28.67s-3.718-.723-3.89 1.277c0 0-.088 1.358 3.161 1.9s5.529.7 5.913-.555-3.428-2.466-5.184-2.627" fill="#1e0b02"/><path data-name="路径 15978" d="M90.727 28.867s-3.784.168-3.483 2.154c0 0 .233 1.34 3.52 1.111s5.623-.606 5.623-2.054c0-1.685-3.915-1.465-5.66-1.211" fill="#1e0b02"/><path data-name="路径 15979" d="M94.573 37.762a1.461 1.461 0 1 1-1.461-1.461 1.461 1.461 0 0 1 1.461 1.461" fill="#1e0b02"/><path data-name="路径 15980" d="M108.908 37.762a1.461 1.461 0 1 1-1.461-1.461 1.461 1.461 0 0 1 1.461 1.461" fill="#1e0b02"/><path data-name="路径 15981" d="M98.954 40.813v3.113h1.7" fill="none" stroke="#000" stroke-linecap="round" stroke-linejoin="round" stroke-width=".547"/><path data-name="路径 15982" d="m94.573 47.03 10.914.037s-4.809 7.783-10.914-.037" fill="#fff"/><path data-name="路径 15983" d="M84.69 25.119s1.673-6.868 13.809-7.259c7.311-.236 16.284 4.186 18.075-1.318l-6.392-8.3-25.386 3.822Z"/><path data-name="路径 15984" d="M114.58 14.151s-5.506 7.266 3.751 14.717c0 0 2.173-8.979-3.751-14.717"/><path data-name="路径 15985" d="M141.618 187.515s-3.97 4.148-1 11.344l-1.347 7.393a2.338 2.338 0 0 0 4.5 1.222l1.553-4.243.3 1.548a11.121 11.121 0 0 1-1.057 7.225l-3.29 6.32a2.222 2.222 0 0 0 3.8 2.293l5.364-7.734a12.666 12.666 0 0 0 1.881-10.284l-3.245-17.365Z" fill="#e8b499"/><path data-name="路径 15986" d="m141.618 187.514-13.779-68.815c-.839-4.409 3.843-9.995 8.263-10.769a8.043 8.043 0 0 1 9.433 7.906l3.531 69.4Z" fill="#e8b499"/><path data-name="路径 15987" d="M133.263 80.424s18 7.065 18 46.124l-29.906 1.158Z" fill="#d52c2c"/><path data-name="路径 15988" d="m39.365 118.915 38.115-18.134-19.371-11.526L40.76 99.999Z" fill="#e8b499"/><path data-name="路径 15989" d="m26.736 56.787-8.024.388 7.863 53.86a9.259 9.259 0 1 0 18.2-2.991Z" fill="#e8b499"/><path data-name="路径 15990" d="m26.735 56.789 1.8-5.058a17.883 17.883 0 0 0 .9-8.244l-.617-4.9a1.9 1.9 0 0 0-2.424-1.574 2.425 2.425 0 0 0-1.717 2.1l-.472 5.22-8.486-18.668a1.468 1.468 0 0 0-2.094-.685l-.511.3a1.468 1.468 0 0 0-.641 1.745l4.678 11.213-7.156-12.136a1.467 1.467 0 0 0-2.128-.551l-.361.244a1.468 1.468 0 0 0-.489 1.882l7.071 12.849L6.547 31.3a1.468 1.468 0 0 0-2.287-.034l-.12.145a1.468 1.468 0 0 0-.1 1.738l6.822 10.479-4.94-5.794a1.468 1.468 0 0 0-2.317 1.8l16.026 22.765Z" fill="#e8b499"/><path data-name="路径 15991" d="M24.204 44.333a9.65 9.65 0 0 0-3.438 7.448" fill="none" stroke="#e3aa8f" stroke-linecap="round" stroke-linejoin="round" stroke-width=".856"/><path data-name="路径 15992" d="M66.536 80.424c-8.1 4.39-22.975 17.669-22.975 17.669l11.52 26.331 27.173-11.343Z" fill="#d52c2c"/><path data-name="路径 15993" d="m122.242 75.522 11.02 4.9-5.286 89.319a219.01 219.01 0 0 1-62.311-1.604l.871-87.708 11.794-4.946Z" fill="#d52c2c"/><path data-name="直线 54" fill="none" stroke="#000" stroke-linecap="round" stroke-linejoin="round" stroke-width=".996" d="m130.413 127.706 1.565-25.968"/><path data-name="直线 55" fill="none" stroke="#000" stroke-linecap="round" stroke-linejoin="round" stroke-width=".996" d="m66.145 119.808.213-21.445"/><path data-name="路径 15994" d="m100.812 66.232 21.43 9.289s-21.557 17.455-43.912-.044Z" fill="#e8b499"/><path data-name="路径 15995" d="M72.242 77.98s-3.008 1.258-1.188 5.918a5.55 5.55 0 0 1-2.627 6.953l-5.252 2.706a5.538 5.538 0 0 1-7.722-2.926c-.783-2.079-1.181-4.4-.258-6.27 2.225-4.5 13.182-8.871 17.05-6.383" fill="#c67d69"/><path data-name="路径 15996" d="M380.984 351.104H364.3l-27.591 14.144 47.442-.542Z" fill="#fff"/><path data-name="路径 15997" d="M372.515 367.974a2.868 2.868 0 0 1 2.866 2.813l8.935-.093-.165-5.984-47.442.542.165 5.983 32.769-.381v-.008a2.872 2.872 0 0 1 2.872-2.872" fill="#1e0b02"/><path data-name="路径 15998" d="M352.769 356.318a4.4 4.4 0 0 1 4.617 2.245" fill="none" stroke="#1e0b02" stroke-linecap="round" stroke-linejoin="round" stroke-width="1.424"/><path data-name="路径 15999" d="M357.386 354.001a4.4 4.4 0 0 1 4.617 2.245" fill="none" stroke="#1e0b02" stroke-linecap="round" stroke-linejoin="round" stroke-width="1.424"/><path data-name="矩形 5130" fill="#dea28a" d="M363.979 328.568h17.006v22.541h-17.006z"/><path data-name="路径 16000" d="M401.705 351.104h16.684l27.591 14.144-47.442-.542Z" fill="#fff"/><path data-name="路径 16001" d="M410.173 367.974a2.867 2.867 0 0 0-2.865 2.813l-8.935-.093.165-5.984 47.443.542-.165 5.983-32.769-.381v-.008a2.872 2.872 0 0 0-2.872-2.872" fill="#1e0b02"/><path data-name="路径 16002" d="M429.92 356.318a4.4 4.4 0 0 0-4.617 2.245" fill="none" stroke="#1e0b02" stroke-linecap="round" stroke-linejoin="round" stroke-width="1.424"/><path data-name="路径 16003" d="M425.303 354.001a4.4 4.4 0 0 0-4.617 2.245" fill="none" stroke="#1e0b02" stroke-linecap="round" stroke-linejoin="round" stroke-width="1.424"/><path data-name="矩形 5131" fill="#dea28a" d="M401.705 328.568h17.006v22.541h-17.006z"/><path data-name="路径 16004" d="m420.18 160.963.651 172.122h-21.526l-7.516-170.123Z" fill="#d52c2c"/><path data-name="路径 16005" d="m399.454 331.964 21.985-.225a1.382 1.382 0 0 1 1.619 1.365v9.11a1.378 1.378 0 0 1-.972 1.322h-23.408a1.386 1.386 0 0 1-.938-1.318v-8.914a1.379 1.379 0 0 1 1.715-1.343" fill="#d85454"/><path data-name="直线 56" fill="none" stroke="#2c2c2c" stroke-miterlimit="10" stroke-width="1.014" d="m399.454 331.964 21.395-.246"/><path data-name="路径 16006" d="m362.123 160.963-1.61 172.127h22.485l7.516-170.123Z" fill="#d52c2c"/><path data-name="路径 16007" d="m382.443 332.062-22.118-.248a1.742 1.742 0 0 0-2.041 1.712v8.424a1.741 1.741 0 0 0 1.251 1.671h23.85a1.729 1.729 0 0 0 1.179-1.65v-8.209a1.734 1.734 0 0 0-2.12-1.7" fill="#d85454"/><path data-name="直线 57" fill="none" stroke="#2c2c2c" stroke-miterlimit="10" stroke-width="1.014" d="m360.399 331.964 22.355-.246"/><path data-name="矩形 5132" fill="#d52c2c" d="M373.599 160.963h40.857v30.364h-40.857z"/><path data-name="直线 58" fill="none" stroke="#2c2c2c" stroke-miterlimit="10" stroke-width="1.014" d="M398.723 191.327h-18.162"/><path data-name="路径 16008" d="M432.577 179.228s-3.677 4.019-.709 10.781l-1.12 7.04a2.219 2.219 0 0 0 4.292 1.064l1.382-4.058.314 1.462a10.545 10.545 0 0 1-.848 6.875l-2.985 6.065a2.108 2.108 0 0 0 3.65 2.094l4.923-7.45a12.014 12.014 0 0 0 1.564-9.794l-3.446-16.4Z" fill="#dea28a"/><path data-name="路径 16009" d="m432.575 179.228-14.533-67.779c-.888-4.163 3.432-9.561 7.608-10.39a7.631 7.631 0 0 1 9.115 7.3l4.826 68.55Z" fill="#dea28a"/><path data-name="路径 16010" d="M423.207 78.585s17.072 6.7 17.072 43.758l-28.371 1.1Z" fill="#4559b3"/><path data-name="路径 16011" d="m329.771 127.315 40.514-29.418-18.377-10.935-31.739 24.732Z" fill="#dea28a"/><path data-name="路径 16012" d="M359.903 78.585c-7.687 4.164-22.73 15.829-22.73 15.829l11.861 25.915 25.786-10.766Z" fill="#4559b3"/><path data-name="路径 16013" d="m283.084 90.91-6.8 13.114 42.025 23.45a10.2 10.2 0 1 0 9.723-17.844Z" fill="#dea28a"/><path data-name="路径 16014" d="m406.135 70.99 17.072 7.6-1.521 94.421s-28.923 5.548-60.523 0l-1.26-94.421 18.108-7.6Z" fill="#4559b3"/><path data-name="直线 59" fill="none" stroke="#000" stroke-linecap="round" stroke-linejoin="round" stroke-width=".996" d="m422.476 123.032.05-23.838"/><path data-name="直线 60" fill="none" stroke="#000" stroke-linecap="round" stroke-linejoin="round" stroke-width=".996" d="M360.525 115.533V98.165"/><path data-name="路径 16015" d="m392.422 65.438 13.713 5.552s-10.288 7.595-28.123 0Z" fill="#dea28a"/><path data-name="路径 16016" d="M381.539 12.751s-9.758-1.518-10.654 7.621c-.736 7.5 3.063 14.392 3.063 14.392l2.529-16.824Z" fill="#62302f"/><path data-name="路径 16017" d="M402.364 10.88s9.861.315 10.931 9.437c.753 6.422-3.383 14.159-3.383 14.159l-2.485-16.537Z" fill="#62302f"/><path data-name="路径 16018" d="M375.425 34.223s-3.089-2.4-5.346.45c-3.431 4.331 2.572 12.172 7.793 8.135Z" fill="#dea28a"/><path data-name="路径 16019" d="M372.301 37.131s2.365 0 3.594 3.1" fill="none" stroke="#000" stroke-linecap="round" stroke-linejoin="round" stroke-width=".547"/><path data-name="路径 16020" d="M408.346 34.223s3.089-2.4 5.347.45c3.43 4.331-2.573 12.172-7.794 8.135Z" fill="#dea28a"/><path data-name="路径 16021" d="M411.472 37.131s-2.431-.028-3.6 3.1" fill="none" stroke="#000" stroke-linecap="round" stroke-linejoin="round" stroke-width=".547"/><path data-name="路径 16022" d="M412.071 25.452a20.2 20.2 0 1 1-20.2-20.2 20.2 20.2 0 0 1 20.2 20.2" fill="#62302f"/><path data-name="路径 16023" d="m385.993 52.521-1.5 18.606h15.385l-2.169-18.829Z" fill="#dea28a"/><path data-name="路径 16024" d="M385.822 53.898c.516.251 12.742 5.811 12.742 5.811l-.854-7.41Z"/><path data-name="路径 16025" d="M375.394 24.594s-1.924 30.618 16.014 30.618c19.065 0 17.53-30.613 17.53-30.613s-.111-13.4-16.922-13.4c-15.413 0-16.623 13.4-16.623 13.4" fill="#dea28a"/><path data-name="路径 16026" d="M386.081 33.814a1.461 1.461 0 1 1-1.461-1.461 1.461 1.461 0 0 1 1.461 1.461" fill="#1e0b02"/><path data-name="路径 16027" d="M400.416 33.814a1.461 1.461 0 1 1-1.461-1.461 1.461 1.461 0 0 1 1.461 1.461" fill="#1e0b02"/><path data-name="路径 16028" d="M391.075 37.799v2.178h1.7" fill="none" stroke="#000" stroke-linecap="round" stroke-linejoin="round" stroke-width=".547"/><path data-name="路径 16029" d="M387.688 42.767s2 2.265 7.109.824" fill="none" stroke="#000" stroke-linecap="round" stroke-linejoin="round" stroke-width=".547"/><path data-name="路径 16030" d="m379.267 27.981 8.059-.727a1.115 1.115 0 0 0 .519-2.038 6.929 6.929 0 0 0-4.717-.915 9.021 9.021 0 0 0-4.619 1.669 1.116 1.116 0 0 0 .757 2.011" fill="#62302f"/><path data-name="路径 16031" d="m402.891 27.981-8.059-.727a1.115 1.115 0 0 1-.52-2.038 6.929 6.929 0 0 1 4.717-.915 9.025 9.025 0 0 1 4.62 1.669 1.116 1.116 0 0 1-.758 2.011" fill="#62302f"/><g data-name="组 6113" opacity=".23"><g data-name="组 6112"><g data-name="组 6111" clip-path="url(#b)" transform="translate(376.386 27.904)"><path data-name="路径 16032" d="m5.996.013 7.576 10.286s-2.284 4.368-5.925 3.882L0 4.147S2.067-.265 6 .013" fill="#fff"/></g></g></g><g data-name="组 6116" opacity=".23"><g data-name="组 6115"><g data-name="组 6114" clip-path="url(#b)" transform="translate(393.813 27.904)"><path data-name="路径 16033" d="m5.996.013 7.576 10.286s-2.285 4.368-5.925 3.882L0 4.147S2.067-.265 6 .013" fill="#fff"/></g></g></g><path data-name="路径 16034" d="M390.559 35.059a7.408 7.408 0 1 1-7.408-7.408 7.408 7.408 0 0 1 7.408 7.408Z" fill="none" stroke="#fff" stroke-miterlimit="10" stroke-width=".578"/><path data-name="路径 16035" d="M408.007 35.059a7.408 7.408 0 1 1-7.408-7.4 7.407 7.407 0 0 1 7.408 7.4Z" fill="none" stroke="#fff" stroke-miterlimit="10" stroke-width=".578"/><path data-name="路径 16036" d="M390.559 35.063a2.915 2.915 0 0 1 2.632 0" fill="none" stroke="#fff" stroke-miterlimit="10" stroke-width=".578"/><path data-name="路径 16037" d="M406.089 10.2s-5.506 7.266 3.751 14.717c0 0 2.173-8.98-3.751-14.717" fill="#62302f"/><path data-name="路径 16038" d="M378.59 10.2s5.506 7.266-3.751 14.717c0 0-2.173-8.98 3.751-14.717" fill="#62302f"/><path data-name="路径 16039" d="M374.577 12.844S373.769 3.8 384.593 3.8s19.714 2.94 22.74-3.297c0 0 10.837 14.3-7.793 17.978-16.123 3.185-24.391-.179-24.968-5.636" fill="#62302f"/><path data-name="路径 16040" d="M320.84 57.982c1.71-5.447 1.394-10.574-3.42-14.094a10.6 10.6 0 0 1-4.3-7.347l-20.47 18.248-20.939-18.585a12.864 12.864 0 0 1-4.784 7.688c-4.879 3.428-4.077 8.647-2.367 14.094s-2.931 6.04-4.152 12.582a16.986 16.986 0 0 1 12.856 6.036c2.758 3.362 10.737 5.013 19.435 4.491 8.7.523 16.678-1.128 19.435-4.491a16.987 16.987 0 0 1 12.858-6.044c-1.221-6.542-5.862-7.135-4.152-12.582" fill="#d46919"/><path data-name="路径 16041" d="M276.698 47.487s-2.93-2.277-5.071.426c-3.255 4.108 2.44 11.548 7.392 7.717Z" fill="#eebda7"/><path data-name="路径 16042" d="M273.735 50.251s1.638-.515 3.41 2.937" fill="none" stroke="#000" stroke-linecap="round" stroke-linejoin="round" stroke-width=".519"/><path data-name="路径 16043" d="M308.12 47.487s2.93-2.277 5.071.426c3.255 4.108-2.44 11.548-7.392 7.717Z" fill="#eebda7"/><path data-name="路径 16044" d="M311.084 50.251s-1.638-.515-3.41 2.937" fill="none" stroke="#000" stroke-linecap="round" stroke-linejoin="round" stroke-width=".519"/><path data-name="路径 16045" d="M311.258 39.722a18.753 18.753 0 0 1-37.494 0 18.753 18.753 0 0 1 37.494 0" fill="#d46919"/><path data-name="路径 16046" d="m287.674 64.063-1.258 19.367h12.512l-1.829-19.574Z" fill="#eebda7"/><path data-name="路径 16047" d="M287.536 65.372c.414.238 10.406 7.565 10.406 7.565l-.848-9.081Z"/><path data-name="路径 16048" d="M276.668 38.358s-1.977 28.223 15.2 28.223c18.572 0 16.624-28.223 16.624-28.223s-.1-12.71-16.053-12.71c-14.62 0-15.768 12.71-15.768 12.71" fill="#eebda7"/><path data-name="路径 16049" d="M286.866 48.241a1.355 1.355 0 1 1-1.355-1.355 1.355 1.355 0 0 1 1.355 1.355"/><path data-name="路径 16050" d="M300.411 48.241a1.355 1.355 0 1 1-1.355-1.355 1.355 1.355 0 0 1 1.355 1.355"/><path data-name="路径 16051" d="M287.426 56.511h8.563s-.579 2.173-4.233 2.173-4.33-2.173-4.33-2.173" fill="#fff"/><path data-name="路径 16052" d="M290.969 51.647v2.2l1.6.029" fill="none" stroke="#000" stroke-linecap="round" stroke-linejoin="round" stroke-width=".519"/><path data-name="路径 16053" d="M298.941 39.68s-3.477-.676-3.638 1.2c0 0-.083 1.269 2.957 1.782s5.17.65 5.529-.519-3.206-2.306-4.848-2.458" fill="#d46919"/><path data-name="路径 16054" d="M283.206 39.916s-3.411.191-3.157 2.041c0 0 .2 1.248 3.161 1s5.072-.617 5.086-1.967c.015-1.572-3.515-1.331-5.09-1.078" fill="#d46919"/><path data-name="路径 16055" d="M272.009 41.053s27.42-4.276 27.981-16.071c0 0-5.966-10.194-19.447-3.68-11.679 5.643-8.534 19.751-8.534 19.751" fill="#d46919"/><path data-name="路径 16056" d="M295.779 24.983s1.325 8.779 14.176 18.11c0 0 7.687-9.186 1.253-16.208s-15.43-1.9-15.43-1.9" fill="#d46919"/><path data-name="路径 16057" d="m250.291 131.424 11.151-41.2a7.346 7.346 0 0 1 8.985-5.641c3.873.974 8.681 4.863 7.794 8.756l-14.017 43.341Z" fill="#eebda7"/><path data-name="路径 16058" d="m224.43 136.679-.277-10.226 29.182 1.8c5.251.073 12.075 3.809 10.824 8.91-1.039 4.241-6.9 6.626-11.184 5.78Z" fill="#eebda7"/><path data-name="路径 16059" d="M328.182 147.727a7.6 7.6 0 0 0 4.629-7.889l-5.61-48.6a7.345 7.345 0 1 0-14.65 1.083l7.019 49.177c.529 5.059 3.914 8.181 8.611 6.225" fill="#eebda7"/><path data-name="路径 16060" d="m334.407 194.776 6.34-.8-7.506-52.866c-.726-5.376-5.4-11.908-10.479-9.992-4.219 1.592-3.847 7.094-3.017 11.526 2.6 13.882 14.662 52.136 14.662 52.136" fill="#eebda7"/><path data-name="路径 16061" d="M334.082 193.221s-1.2 4.963 4.291 9.177l2.261 6.29a2.08 2.08 0 0 0 4.006-1.066l-.7-3.959.919 1.059a9.89 9.89 0 0 1 2.411 6.032l.289 6.331a1.976 1.976 0 0 0 3.944.07l.677-8.345a11.264 11.264 0 0 0-3.142-8.752l-11.179-11.915Z" fill="#eebda7"/><path data-name="路径 16062" d="m292.234 77.964-25.8 6.788 10.15 56.494h33.55l9.131-56.857Z" fill="#eebda7"/><path data-name="路径 16063" d="m276.587 141.246-8.49-32.863 12.657-11.808 12.1 7.652 12.556-7.652 12.818 11.547-8.089 33.129Z" fill="#fff"/><path data-name="直线 61" fill="none" stroke="#000" stroke-linecap="round" stroke-linejoin="round" stroke-width=".996" d="M280.754 96.57V81.194"/><path data-name="直线 62" fill="none" stroke="#000" stroke-linecap="round" stroke-linejoin="round" stroke-width=".996" d="M305.235 96.57V81.194"/><path data-name="路径 16064" d="m271.439 359.199 12.93-1.662 4.323-100.505-20.6 3.254Z" fill="#eebda7"/><path data-name="路径 16065" d="m285.16 353.384-18.653-.123a15.762 15.762 0 0 1-10.5 5.588c-6.922.729-12.519 4.372-13.066 9.291h45.127a76.589 76.589 0 0 0-2.907-14.755"/></g></g><g data-name="组 6120"><g data-name="组 6119" clip-path="url(#c)" transform="translate(242.94 353.261)"><path data-name="路径 16066" d="M3.63 4.827s10.244.131 11.174 12.651H-2.682S-1.958 5.834 3.63 4.827" fill="#fff"/></g></g><g data-name="组 6122"><g data-name="组 6121" clip-path="url(#a)"><path data-name="矩形 5136" fill="#fff" d="M242.94 368.139h45.127v3.097H242.94z"/><path data-name="路径 16068" d="M261.278 357.067s1.367-.014 4.078 2.033" fill="none" stroke="#fff" stroke-linecap="round" stroke-linejoin="round" stroke-width="1.074"/><path data-name="路径 16069" d="M264.17 355.546s1.367-.014 4.078 2.033" fill="none" stroke="#fff" stroke-linecap="round" stroke-linejoin="round" stroke-width="1.074"/><path data-name="路径 16070" d="M258.517 358.456a5.956 5.956 0 0 1 4.016 2.071" fill="none" stroke="#fff" stroke-linecap="round" stroke-linejoin="round" stroke-width="1.074"/><path data-name="路径 16071" d="m312.323 359.199-12.93-1.662-4.324-100.505 20.6 3.254Z" fill="#eebda7"/><path data-name="路径 16072" d="m298.603 353.384 18.653-.123a15.762 15.762 0 0 0 10.5 5.588c6.922.729 12.519 4.372 13.066 9.291h-45.126a76.6 76.6 0 0 1 2.907-14.755"/></g></g><g data-name="组 6124"><g data-name="组 6123" clip-path="url(#d)" transform="translate(295.696 353.261)"><path data-name="路径 16073" d="M41.498 4.827s-10.244.131-11.175 12.651h17.486s-.724-11.644-6.312-12.651" fill="#fff"/></g></g><g data-name="组 6126"><g data-name="组 6125" clip-path="url(#a)"><path data-name="矩形 5138" fill="#fff" d="M295.696 368.139h45.127v3.097h-45.127z"/><path data-name="路径 16075" d="M322.485 357.067s-1.367-.014-4.078 2.033" fill="none" stroke="#fff" stroke-linecap="round" stroke-linejoin="round" stroke-width="1.074"/><path data-name="路径 16076" d="M319.593 355.546s-1.367-.014-4.078 2.033" fill="none" stroke="#fff" stroke-linecap="round" stroke-linejoin="round" stroke-width="1.074"/><path data-name="路径 16077" d="M325.242 358.456a5.958 5.958 0 0 0-4.016 2.071" fill="none" stroke="#fff" stroke-linecap="round" stroke-linejoin="round" stroke-width="1.074"/><path data-name="路径 16078" d="M276.588 141.246s-22.839 36.667-22.839 158.8h76.356s7.4-91.509-19.967-158.8Z" fill="#ebcc61"/></g></g></g></g></svg>