<svg xmlns="http://www.w3.org/2000/svg" width="40" height="40"><defs><clipPath id="a"><path transform="translate(6805 -1767)" fill="#fff" stroke="#707070" d="M0 0h40v40H0z"/></clipPath></defs><g transform="translate(-6805 1767)" clip-path="url(#a)"><path d="M6805.67-1760.648a4.655 4.655 0 0 1 4.683-4.683h29.439a4.655 4.655 0 0 1 4.683 4.683v4.683h-38.805z" fill="#fff"/><path d="M6844.475-1755.295h-38.805a.632.632 0 0 1-.669-.671v-4.682a5.368 5.368 0 0 1 5.352-5.352h29.439a5.368 5.368 0 0 1 5.352 5.352v4.682a.632.632 0 0 1-.669.671zm-38.136-1.338h37.467v-4.015a4.026 4.026 0 0 0-4.014-4.018h-29.439a4.026 4.026 0 0 0-4.014 4.014z" fill="#4d5152"/><path fill="#fff" d="M6810.353-1755.964h29.438v21.41h-29.438z"/><path d="M6839.791-1733.886h-29.441a.632.632 0 0 1-.669-.669v-21.413a.632.632 0 0 1 .669-.669h29.441a.632.632 0 0 1 .669.669v21.41a.632.632 0 0 1-.669.672zm-28.769-1.338h28.1v-20.072h-28.1z" fill="#4d5152"/><path d="M6805.67-1734.555c0 2.208 2.676 5.352 6.021 5.352h26.763c3.345 0 6.021-3.145 6.021-5.352z" fill="#fff"/><g fill="#4d5152"><path d="M6838.454-1728.532h-26.762c-3.613 0-6.691-3.278-6.691-6.022a.632.632 0 0 1 .669-.669h38.805a.632.632 0 0 1 .669.669c0 2.743-3.077 6.022-6.69 6.022zm-32.048-5.353a5.863 5.863 0 0 0 5.286 4.014h26.762a5.863 5.863 0 0 0 5.286-4.014zM6826.411-1751.28h1.338v1.338h-1.338zM6822.396-1751.28h1.338v1.338h-1.338zM6828.415-1736.566h-6.691a.609.609 0 0 1-.535-.268c-.134-.134-2.81-3.613-2.81-9.768a.632.632 0 0 1 .669-.669h12.043a.632.632 0 0 1 .669.669c0 6.155-2.676 9.634-2.81 9.768a.608.608 0 0 1-.535.268zm-6.356-1.338h6.021a15.491 15.491 0 0 0 2.342-8.029h-10.7a15.491 15.491 0 0 0 2.34 8.034z"/></g><path d="M6830.425-1753.957a1.971 1.971 0 0 1-2.007 2.007h-6.69a1.971 1.971 0 0 1-2.007-2.007v-2.007h10.7v2.007z" fill="#6c63ff"/><path d="M6828.418-1751.282h-6.691a2.684 2.684 0 0 1-2.676-2.676v-2.01a.632.632 0 0 1 .669-.669h10.7a.632.632 0 0 1 .669.669v2.007a2.684 2.684 0 0 1-2.671 2.679zm-8.029-4.014v1.338a1.342 1.342 0 0 0 1.338 1.338h6.691a1.342 1.342 0 0 0 1.338-1.338v-1.338z" fill="#4d5152"/><path d="M6817.712-1737.23a2.684 2.684 0 0 0-2.676 2.676h20.072a2.684 2.684 0 0 0-2.672-2.676z" fill="#6c63ff"/><path d="M6835.108-1733.886h-20.072a.632.632 0 0 1-.669-.669 3.313 3.313 0 0 1 3.345-3.345h14.719a3.313 3.313 0 0 1 3.345 3.345.632.632 0 0 1-.668.669zm-19.269-1.338h18.533a1.949 1.949 0 0 0-1.873-1.338h-14.787a1.949 1.949 0 0 0-1.873 1.338z" fill="#4d5152"/><path fill="#f9746c" d="M6819.72-1762.655h10.705v4.014h-10.705z"/><g fill="#4d5152"><path d="M6830.425-1757.972h-10.7a.632.632 0 0 1-.669-.669v-4.014a.632.632 0 0 1 .669-.669h10.7a.632.632 0 0 1 .669.669v4.014a.632.632 0 0 1-.669.669zm-10.036-1.338h9.362v-2.676h-9.367zM6815.036-1761.317h1.338v1.338h-1.338zM6812.36-1761.317h1.338v1.338h-1.338zM6809.684-1761.317h1.338v1.338h-1.338zM6839.122-1761.317h1.338v1.338h-1.338zM6836.446-1761.317h1.338v1.338h-1.338zM6833.77-1761.317h1.338v1.338h-1.338zM6821.058-1732.548h8.029v1.338h-8.029zM6832.432-1740.577h-2.007v-1.338h2.007a.632.632 0 0 0 .669-.669v-2.676a.632.632 0 0 0-.669-.669h-1.338v-1.338h1.338a1.971 1.971 0 0 1 2.007 2.007v2.676a1.971 1.971 0 0 1-2.007 2.007z"/></g></g></svg>