<svg xmlns="http://www.w3.org/2000/svg" width="40" height="40"><defs><clipPath id="a"><path transform="translate(6600 -1815)" fill="none" d="M0 0h40v40H0z"/></clipPath></defs><g transform="translate(-6600 1815)" clip-path="url(#a)"><g transform="translate(6600 -1815)"><path d="M.714 39.285h27.143V5A4.3 4.3 0 0 1 32.143.714H5A4.3 4.3 0 0 0 .714 5z" fill="#fff"/><path fill="#6c63ff" d="M27.857 5h2.857v28.571h-2.857z"/><circle cx="4.286" cy="4.286" r="4.286" transform="translate(27.857 .714)" fill="#6c63ff"/><path d="M32.143 10h-.714V8.571h.714A3.537 3.537 0 0 0 35.715 5a3.537 3.537 0 0 0-3.571-3.571V0a4.969 4.969 0 0 1 5 5 4.969 4.969 0 0 1-5.001 5zM13.571 8.571H15V10h-1.429zM16.429 8.571h1.429V10h-1.429zM10.714 8.571h1.429V10h-1.429zM5.714 12.857h16.429v1.429H5.714zM5.714 15.714h16.429v1.429H5.714zM5.714 18.571h16.429V20H5.714zM5.714 21.429h16.429v1.429H5.714zM5.714 24.286h16.429v1.429H5.714z" fill="#4d5152"/><path d="M27.857 40H.714A.675.675 0 0 1 0 39.286V5a4.969 4.969 0 0 1 5-5h27.143a.675.675 0 0 1 .714.714.675.675 0 0 1-.714.714A3.537 3.537 0 0 0 28.571 5v34.286a.675.675 0 0 1-.714.714zM1.429 38.571h25.714V5a4.96 4.96 0 0 1 1.5-3.571H5A3.537 3.537 0 0 0 1.429 5z" fill="#4d5152"/><path fill="#4d5152" d="M5.714 32.143h1.429v1.429H5.714zM20.714 32.143h1.429v1.429h-1.429zM30 8.571h1.429v25H30z"/><g transform="translate(9.643 21.429)"><path d="m7.143 14.286-2.857-2.222-2.857 2.222v-10h5.714z" fill="#f9746c"/><circle cx="4.286" cy="4.286" r="4.286" fill="#6c63ff"/></g></g></g></svg>