<svg xmlns="http://www.w3.org/2000/svg" width="40" height="40"><defs><clipPath id="a"><path transform="translate(6590 -1285)" fill="#fff" stroke="#707070" d="M0 0h40v40H0z"/></clipPath></defs><g transform="translate(-6590 1285)" clip-path="url(#a)"><g transform="translate(6392.682 -2031.875)"><g fill="#fff"><path d="M222.5 775.715v-5.643a12.135 12.135 0 0 0 6.27-10.658 11.912 11.912 0 0 0-23.824 0 12.061 12.061 0 0 0 6.27 10.658v5.643M218.738 784.492v1.881h-3.762v-1.881"/></g><g fill="#4d5152"><path d="M211 776.999h1v6h-1zM221 776.999h3v6h-3zM210 775.999h15v1h-15z"/></g><path fill="#f9746c" d="M212 777h9v6h-9z"/><g fill="#4d5152"><path d="M210 778h15v1h-15zM210 780h15v2h-15zM210 783h15v2h-15z"/><path d="M219.365 787h-5.016v-2.508h1.254v1.254h2.508v-1.254h1.254zM223.127 775.715h-1.254v-6.019l.313-.188a11.5 11.5 0 0 0 5.956-10.094 11.285 11.285 0 0 0-22.57 0 11.5 11.5 0 0 0 5.956 10.094l.313.188v6.019h-1.253v-5.267a12.845 12.845 0 0 1-6.27-11.034 12.539 12.539 0 1 1 25.078 0 12.924 12.924 0 0 1-6.27 11.034z"/><path d="M214 770h2v6h-2zM218 770h1v6h-1z"/></g><circle cx="8" cy="8" r="8" transform="translate(209 752)" fill="#6c63ff"/><g fill="#fff"><path d="M215.603 763.549a.569.569 0 0 1-.439-.188l-2.508-2.508a.621.621 0 1 1 .878-.878l2.508 2.508a.606.606 0 0 1 0 .878.569.569 0 0 1-.439.188z"/><path d="M215.603 763.549a.569.569 0 0 1-.439-.188.606.606 0 0 1 0-.878l5.016-5.016a.621.621 0 0 1 .878.878l-5.016 5.016a.569.569 0 0 1-.439.188z"/></g></g></g></svg>