<svg xmlns="http://www.w3.org/2000/svg" viewBox="0 0 23.606 29.358"><path d="M21.572 14.369A8.76 8.76 0 0 0 8.566 2.654L2.614 8.621l2.222 2.222 1.288-1.291a8.76 8.76 0 0 0 8.723 7.966h.123l-.176 3.674 5.764-5.79a8.83 8.83 0 0 0 .954-.958l.067-.067z" fill="#00aeef"/><path d="M20.552 11.808A8.76 8.76 0 0 0 5.497 5.719l-2.887 2.9.764.764a8.764 8.764 0 0 0 11.51 10.621l.014 1.085 2.847-2.858a8.736 8.736 0 0 0 2.807-6.423z" fill="#3351ff"/><path d="M17.518 14.846A8.76 8.76 0 0 0 .12 13.4a8.76 8.76 0 0 0 6.479 9.936v6.021l7.893-7.893a8.74 8.74 0 0 0 3.026-6.618z" fill="#172d72"/><path d="m8.748 9.517-4.6 2.656v2.656l2.3-1.329v5.348l2.3 1.326v-8l2.3-1.328zm2.313 3.997v5.332l2.31-1.333V12.18z" fill="#fff"/></svg>