<svg id="组_3050" data-name="组 3050" xmlns="http://www.w3.org/2000/svg" xmlns:xlink="http://www.w3.org/1999/xlink" viewBox="0 0 1680 48"><defs><style>.cls-1{fill:none;}.cls-2{fill:url(#未命名的渐变);}.cls-3{clip-path:url(#clip-path);}.cls-4,.cls-7{opacity:0.5;}.cls-4{isolation:isolate;fill:url(#未命名的渐变_2);}.cls-5{clip-path:url(#clip-path-2);}.cls-6{opacity:0.7;}.cls-8{fill:url(#未命名的渐变_3);}.cls-9{fill:url(#未命名的渐变_4);}.cls-10{fill:url(#未命名的渐变_5);}.cls-11{fill:url(#未命名的渐变_6);}.cls-12{fill:url(#未命名的渐变_7);}.cls-13{fill:url(#未命名的渐变_8);}.cls-14{fill:url(#未命名的渐变_9);}.cls-15{fill:url(#未命名的渐变_10);}.cls-16{fill:url(#未命名的渐变_11);}.cls-17{fill:url(#未命名的渐变_12);}.cls-18{fill:url(#未命名的渐变_13);}.cls-19{fill:url(#未命名的渐变_14);}.cls-20{fill:url(#未命名的渐变_15);}.cls-21{fill:url(#未命名的渐变_16);}.cls-22{fill:url(#未命名的渐变_17);}.cls-23{fill:url(#未命名的渐变_18);}.cls-24{fill:url(#未命名的渐变_19);}.cls-25{fill:url(#未命名的渐变_20);}.cls-26{fill:url(#未命名的渐变_21);}.cls-27{fill:url(#未命名的渐变_22);}.cls-28{fill:url(#未命名的渐变_23);}.cls-29{fill:url(#未命名的渐变_24);}.cls-30{fill:url(#未命名的渐变_25);}.cls-31{fill:url(#未命名的渐变_26);}.cls-32{fill:url(#未命名的渐变_27);}.cls-33{fill:url(#未命名的渐变_28);}.cls-34{fill:url(#未命名的渐变_29);}.cls-35{fill:url(#未命名的渐变_30);}.cls-36{fill:url(#未命名的渐变_31);}.cls-37{fill:url(#未命名的渐变_32);}.cls-38{fill:url(#未命名的渐变_33);}.cls-39{fill:url(#未命名的渐变_34);}.cls-40{clip-path:url(#clip-path-3);}.cls-41{fill:url(#未命名的渐变_35);}</style><linearGradient id="未命名的渐变" x1="542.68" y1="436.12" x2="541.68" y2="436.12" gradientTransform="matrix(1680, 0, 0, -48, -910018, 20957.71)" gradientUnits="userSpaceOnUse"><stop offset="0" stop-color="#36e6e6"/><stop offset="0.11" stop-color="#1d1251"/><stop offset="0.86" stop-color="#1d1251"/><stop offset="1" stop-color="#39fcf6"/></linearGradient><clipPath id="clip-path"><rect class="cls-1" x="1359" width="112" height="48"/></clipPath><radialGradient id="未命名的渐变_2" cx="534.32" cy="439.3" r="1.02" gradientTransform="matrix(69.92, 0, 0, -69.92, -35975.68, 30720.59)" gradientUnits="userSpaceOnUse"><stop offset="0" stop-color="#f15a24"/><stop offset="0.15" stop-color="#d04f2d"/><stop offset="0.5" stop-color="#7c3346"/><stop offset="0.87" stop-color="#1b1464"/></radialGradient><clipPath id="clip-path-2"><rect class="cls-1" x="601.96" width="393" height="48"/></clipPath><linearGradient id="未命名的渐变_3" x1="542.92" y1="443.16" x2="543.86" y2="443.16" gradientTransform="matrix(375.25, 0, 0, -324.09, -202220.34, 143616.98)" gradientUnits="userSpaceOnUse"><stop offset="0" stop-color="#009cff"/><stop offset="0.42" stop-color="#00cce5"/><stop offset="0.8" stop-color="#00f0d1"/><stop offset="1" stop-color="#00ffca"/></linearGradient><linearGradient id="未命名的渐变_4" x1="542.94" y1="443.14" x2="543.88" y2="443.14" gradientTransform="matrix(367, 0, 0, -316.62, -197747.41, 140292.2)" gradientUnits="userSpaceOnUse"><stop offset="0" stop-color="#0098ff"/><stop offset="0.38" stop-color="#00c1e7"/><stop offset="0.79" stop-color="#00e7d1"/><stop offset="1" stop-color="#00f6c9"/></linearGradient><linearGradient id="未命名的渐变_5" x1="542.96" y1="443.11" x2="543.9" y2="443.11" gradientTransform="matrix(358.86, 0, 0, -309.17, -193330.35, 136981.03)" gradientUnits="userSpaceOnUse"><stop offset="0" stop-color="#0093fa"/><stop offset="0.35" stop-color="#00b7e6"/><stop offset="0.78" stop-color="#00dfd1"/><stop offset="1" stop-color="#00eec9"/></linearGradient><linearGradient id="未命名的渐变_6" x1="542.98" y1="443.07" x2="543.92" y2="443.07" gradientTransform="matrix(350.81, 0, 0, -301.69, -188965.94, 133652.6)" gradientUnits="userSpaceOnUse"><stop offset="0" stop-color="#028ff8"/><stop offset="0.31" stop-color="#01ade6"/><stop offset="0.76" stop-color="#00d6d0"/><stop offset="1" stop-color="#00e6c8"/></linearGradient><linearGradient id="未命名的渐变_7" x1="543.01" y1="443.04" x2="543.94" y2="443.04" gradientTransform="matrix(342.86, 0, 0, -294.21, -184650.48, 130328.48)" gradientUnits="userSpaceOnUse"><stop offset="0" stop-color="#308bf4"/><stop offset="0.26" stop-color="#21a3e6"/><stop offset="0.75" stop-color="#09cdd0"/><stop offset="1" stop-color="#00dec8"/></linearGradient><linearGradient id="未命名的渐变_8" x1="543.03" y1="443.01" x2="543.97" y2="443.01" gradientTransform="matrix(335.09, 0, 0, -286.74, -180434.26, 127003.38)" gradientUnits="userSpaceOnUse"><stop offset="0" stop-color="#4586f1"/><stop offset="0.21" stop-color="#3499e6"/><stop offset="0.73" stop-color="#0ec5d0"/><stop offset="1" stop-color="#00d6c8"/></linearGradient><linearGradient id="未命名的渐变_9" x1="543.05" y1="442.97" x2="543.99" y2="442.97" gradientTransform="matrix(327.46, 0, 0, -279.27, -176296.44, 123685.34)" gradientUnits="userSpaceOnUse"><stop offset="0" stop-color="#5482ed"/><stop offset="0.22" stop-color="#3e95e3"/><stop offset="0.74" stop-color="#11bece"/><stop offset="1" stop-color="#00cec7"/></linearGradient><linearGradient id="未命名的渐变_10" x1="543.08" y1="442.93" x2="544.01" y2="442.93" gradientTransform="matrix(319.99, 0, 0, -271.82, -172244.21, 120371.66)" gradientUnits="userSpaceOnUse"><stop offset="0" stop-color="#617fea"/><stop offset="0.29" stop-color="#4195de"/><stop offset="0.76" stop-color="#12b7cc"/><stop offset="1" stop-color="#00c5c6"/></linearGradient><linearGradient id="未命名的渐变_11" x1="543.11" y1="442.89" x2="544.04" y2="442.89" gradientTransform="matrix(312.62, 0, 0, -264.44, -168246.47, 117087.35)" gradientUnits="userSpaceOnUse"><stop offset="0" stop-color="#6d7ae6"/><stop offset="0.33" stop-color="#4493da"/><stop offset="0.78" stop-color="#13b1cb"/><stop offset="1" stop-color="#00bdc6"/></linearGradient><linearGradient id="未命名的渐变_12" x1="543.13" y1="442.85" x2="544.06" y2="442.85" gradientTransform="matrix(305.46, 0, 0, -257.07, -164360.89, 113809.5)" gradientUnits="userSpaceOnUse"><stop offset="0" stop-color="#7776e3"/><stop offset="0.36" stop-color="#478fd6"/><stop offset="0.79" stop-color="#13aaca"/><stop offset="1" stop-color="#00b5c5"/></linearGradient><linearGradient id="未命名的渐变_13" x1="543.15" y1="442.8" x2="544.08" y2="442.8" gradientTransform="matrix(299.57, 0, 0, -249.63, -161162.4, 110501.96)" gradientUnits="userSpaceOnUse"><stop offset="0" stop-color="#8071df"/><stop offset="0.38" stop-color="#4a8ad3"/><stop offset="0.8" stop-color="#14a4c8"/><stop offset="1" stop-color="#00aec4"/></linearGradient><linearGradient id="未命名的渐变_14" x1="543.18" y1="442.75" x2="544.11" y2="442.75" gradientTransform="matrix(292.85, 0, 0, -242.25, -157517.43, 107219.55)" gradientUnits="userSpaceOnUse"><stop offset="0" stop-color="#8a6cdc"/><stop offset="0.39" stop-color="#4e85d1"/><stop offset="0.8" stop-color="#169cc6"/><stop offset="1" stop-color="#00a6c3"/></linearGradient><linearGradient id="未命名的渐变_15" x1="543.21" y1="442.7" x2="544.13" y2="442.7" gradientTransform="matrix(286.26, 0, 0, -234.88, -153942.4, 103943.45)" gradientUnits="userSpaceOnUse"><stop offset="0" stop-color="#9468d8"/><stop offset="0.4" stop-color="#527ecf"/><stop offset="0.81" stop-color="#1793c7"/><stop offset="1" stop-color="#009cc4"/></linearGradient><linearGradient id="未命名的渐变_16" x1="543.24" y1="442.65" x2="544.16" y2="442.65" gradientTransform="matrix(279.82, 0, 0, -227.53, -150447.44, 100675.35)" gradientUnits="userSpaceOnUse"><stop offset="0" stop-color="#9d63d5"/><stop offset="0.41" stop-color="#5778cd"/><stop offset="0.81" stop-color="#188cc5"/><stop offset="1" stop-color="#0094c3"/></linearGradient><linearGradient id="未命名的渐变_17" x1="543.26" y1="442.61" x2="544.19" y2="442.61" gradientTransform="matrix(273.46, 0, 0, -223.55, -146996.54, 98903.59)" gradientUnits="userSpaceOnUse"><stop offset="0" stop-color="#a55fd1"/><stop offset="0.41" stop-color="#5c72ca"/><stop offset="0.81" stop-color="#1984c4"/><stop offset="1" stop-color="#008cc2"/></linearGradient><linearGradient id="未命名的渐变_18" x1="543.28" y1="442.6" x2="544.22" y2="442.6" gradientTransform="matrix(267.37, 0, 0, -222.03, -143690.4, 98229.72)" gradientUnits="userSpaceOnUse"><stop offset="0" stop-color="#ae5bce"/><stop offset="0.41" stop-color="#616cc8"/><stop offset="0.81" stop-color="#1b7dc3"/><stop offset="1" stop-color="#0084c1"/></linearGradient><linearGradient id="未命名的渐变_19" x1="543.3" y1="442.59" x2="544.24" y2="442.59" gradientTransform="matrix(261.83, 0, 0, -220.64, -140685.21, 97610.2)" gradientUnits="userSpaceOnUse"><stop offset="0" stop-color="#b655cb"/><stop offset="0.36" stop-color="#7563c7"/><stop offset="0.8" stop-color="#2a75c2"/><stop offset="1" stop-color="#0d7cc1"/></linearGradient><linearGradient id="未命名的渐变_20" x1="543.31" y1="442.58" x2="544.26" y2="442.58" gradientTransform="matrix(258.85, 0, 0, -219.16, -139069.62, 96954.57)" gradientUnits="userSpaceOnUse"><stop offset="0" stop-color="#be51c8"/><stop offset="0.26" stop-color="#935ac5"/><stop offset="0.77" stop-color="#436cc1"/><stop offset="1" stop-color="#2474c0"/></linearGradient><linearGradient id="未命名的渐变_21" x1="543.33" y1="442.57" x2="544.27" y2="442.57" gradientTransform="matrix(256.23, 0, 0, -217.73, -137648.56, 96318.5)" gradientUnits="userSpaceOnUse"><stop offset="0" stop-color="#c54dc4"/><stop offset="0.17" stop-color="#a952c3"/><stop offset="0.74" stop-color="#5364c0"/><stop offset="1" stop-color="#316bbf"/></linearGradient><linearGradient id="未命名的渐变_22" x1="543.34" y1="442.55" x2="544.28" y2="442.55" gradientTransform="matrix(253.63, 0, 0, -216.33, -136238.68, 95699.76)" gradientUnits="userSpaceOnUse"><stop offset="0" stop-color="#cd47c1"/><stop offset="0.11" stop-color="#bc4ac0"/><stop offset="0.72" stop-color="#5e5bbe"/><stop offset="1" stop-color="#3a63be"/></linearGradient><linearGradient id="未命名的渐变_23" x1="543.36" y1="442.54" x2="544.3" y2="442.54" gradientTransform="matrix(251.12, 0, 0, -214.98, -134877.03, 95096.76)" gradientUnits="userSpaceOnUse"><stop offset="0" stop-color="#d643bd"/><stop offset="0.03" stop-color="#d243bd"/><stop offset="0.7" stop-color="#6c53bd"/><stop offset="1" stop-color="#445abe"/></linearGradient><linearGradient id="未命名的渐变_24" x1="543.37" y1="442.53" x2="544.31" y2="442.53" gradientTransform="matrix(248.57, 0, 0, -213.59, -133495.13, 94483.19)" gradientUnits="userSpaceOnUse"><stop offset="0" stop-color="#dd3fba"/><stop offset="0.68" stop-color="#764bbc"/><stop offset="1" stop-color="#4a51bd"/></linearGradient><linearGradient id="未命名的渐变_25" x1="543.39" y1="442.52" x2="544.32" y2="442.52" gradientTransform="matrix(246.11, 0, 0, -212.34, -132161.92, 93925.68)" gradientUnits="userSpaceOnUse"><stop offset="0" stop-color="#e439b6"/><stop offset="0.65" stop-color="#7f43ba"/><stop offset="1" stop-color="#4e49bd"/></linearGradient><linearGradient id="未命名的渐变_26" x1="543.41" y1="442.51" x2="544.34" y2="442.51" gradientTransform="matrix(243.61, 0, 0, -211.11, -130805.03, 93381.46)" gradientUnits="userSpaceOnUse"><stop offset="0" stop-color="#eb35b3"/><stop offset="0.61" stop-color="#8a3bb8"/><stop offset="1" stop-color="#5340bc"/></linearGradient><linearGradient id="未命名的渐变_27" x1="543.42" y1="442.5" x2="544.35" y2="442.5" gradientTransform="matrix(241.13, 0, 0, -209.95, -129458.65, 92862.93)" gradientUnits="userSpaceOnUse"><stop offset="0" stop-color="#f330af"/><stop offset="0.58" stop-color="#9534b6"/><stop offset="1" stop-color="#5637bb"/></linearGradient><linearGradient id="未命名的渐变_28" x1="543.43" y1="442.49" x2="544.36" y2="442.49" gradientTransform="matrix(238.69, 0, 0, -208.77, -128139.53, 92342.41)" gradientUnits="userSpaceOnUse"><stop offset="0" stop-color="#fa2bac"/><stop offset="0.52" stop-color="#a52cb3"/><stop offset="1" stop-color="#5b2dba"/></linearGradient><linearGradient id="未命名的渐变_29" x1="543.44" y1="442.48" x2="544.38" y2="442.48" gradientTransform="matrix(236.24, 0, 0, -207.78, -126811.15, 91903.2)" gradientUnits="userSpaceOnUse"><stop offset="0" stop-color="#ff27a8"/><stop offset="0.44" stop-color="#b625af"/><stop offset="1" stop-color="#5e24b9"/></linearGradient><linearGradient id="未命名的渐变_30" x1="543.45" y1="442.47" x2="544.39" y2="442.47" gradientTransform="matrix(234.26, 0, 0, -206.81, -125737.09, 91472.39)" gradientUnits="userSpaceOnUse"><stop offset="0" stop-color="#ff21a4"/><stop offset="0.3" stop-color="#ce1faa"/><stop offset="1" stop-color="#601bb8"/></linearGradient><linearGradient id="未命名的渐变_31" x1="543.46" y1="442.46" x2="544.39" y2="442.46" gradientTransform="matrix(233.45, 0, 0, -205.88, -125298.29, 91057.28)" gradientUnits="userSpaceOnUse"><stop offset="0" stop-color="#ff1ca0"/><stop offset="0.06" stop-color="#f51ba1"/><stop offset="1" stop-color="#6212b8"/></linearGradient><linearGradient id="未命名的渐变_32" x1="543.47" y1="442.45" x2="544.4" y2="442.45" gradientTransform="matrix(232.88, 0, 0, -205.02, -124992.93, 90674.81)" gradientUnits="userSpaceOnUse"><stop offset="0" stop-color="#ff189d"/><stop offset="1" stop-color="#6507b7"/></linearGradient><linearGradient id="未命名的渐变_33" x1="543.47" y1="442.45" x2="544.4" y2="442.45" gradientTransform="matrix(232.42, 0, 0, -204.26, -124740.33, 90338.87)" gradientUnits="userSpaceOnUse"><stop offset="0" stop-color="#ff1299"/><stop offset="1" stop-color="#6702b6"/></linearGradient><linearGradient id="未命名的渐变_34" x1="543.48" y1="442.44" x2="544.4" y2="442.44" gradientTransform="matrix(232.04, 0, 0, -203.53, -124537.51, 90014.17)" gradientUnits="userSpaceOnUse"><stop offset="0" stop-color="#ff0d96"/><stop offset="1" stop-color="#6800b5"/></linearGradient><clipPath id="clip-path-3"><rect class="cls-1" x="373" width="131" height="48"/></clipPath><radialGradient id="未命名的渐变_35" cx="536.67" cy="440.65" r="0.88" gradientTransform="matrix(97, 0, 0, -97, -51639.67, 42696.31)" gradientUnits="userSpaceOnUse"><stop offset="0" stop-color="#662d91"/><stop offset="0.47" stop-color="#45227d"/><stop offset="1" stop-color="#1b1464"/></radialGradient></defs><rect id="矩形_2831" data-name="矩形 2831" class="cls-2" width="1680" height="48"/><g class="cls-3"><g id="蒙版组_4" data-name="蒙版组 4"><circle id="椭圆_210" data-name="椭圆 210" class="cls-4" cx="1415" cy="44.96" r="34.96"/></g></g><g class="cls-5"><g id="蒙版组_5" data-name="蒙版组 5" class="cls-6"><g id="组_3048" data-name="组 3048" class="cls-7"><g id="组_3016" data-name="组 3016"><path id="路径_3926" data-name="路径 3926" class="cls-8" d="M786.81,150.22c-1.35.31-2.72.58-4.1.8-20,3.16-42.41-3.33-61.37-17.8-15.63-11.94-28.94-28.76-40.69-51.45-3.17-6.12-6.2-12.56-9.12-18.8C661.15,40.88,650.42,18,630.81,3.79a144.14,144.14,0,0,0-17-10.13c-8.82-4.72-18-9.59-24.94-17-8.05-8.54-12.66-20.33-13-33.21a56.9,56.9,0,0,1,10.21-34.33c12.86-18.08,36.31-29.18,62.72-29.71,3.05-.06,6.2,0,9.24.06,10.08.21,20.51.42,29.43-3.86,8-3.85,13.89-10.89,19.57-17.7,2.7-3.25,5.5-6.6,8.51-9.6,9.63-9.59,22.38-16.16,36.92-19a85.4,85.4,0,0,1,42.48,2.54c26,8.38,49.2,28.83,63.57,56.1A272.7,272.7,0,0,1,869.6-87c3.32,8.22,6.76,16.72,10.94,24.7,7,13.41,19.36,30.58,38.2,36.23,2.25.68,4.62,1.19,6.91,1.69,5.09,1.11,10.35,2.25,14.77,5.24,6.89,4.67,11.05,13.85,10.6,23.4-.35,7.56-3.27,15.47-8.91,24.19a98.83,98.83,0,0,1-65.85,43.18c-2.89.49-5.86.86-8.72,1.21A109.55,109.55,0,0,0,852,75.51C842.9,78,836.1,82.81,832.8,89c-2.32,4.38-3,9.5-3.67,14.46-.31,2.3-.63,4.7-1.11,7C824,129.56,807.37,145.41,786.81,150.22ZM629.43-117.19C611.52-113,596.3-103.55,586.87-90.3,572.45-70,573.63-40.94,589.55-24c6.88,7.3,15.93,12.13,24.68,16.8A145.88,145.88,0,0,1,631.41,3c19.82,14.4,30.6,37.36,41,59.57,2.92,6.22,5.94,12.65,9.1,18.76,11.68,22.54,24.89,39.26,40.4,51.1,18.75,14.31,40.83,20.72,60.6,17.6,1.36-.21,2.71-.48,4-.79C806.77,144.5,823.11,129,827,110.27c.48-2.26.79-4.63,1.1-6.92.68-5,1.38-10.26,3.78-14.8,3.43-6.47,10.46-11.45,19.78-14a110.34,110.34,0,0,1,15.73-2.73c2.86-.36,5.81-.72,8.68-1.21a98.35,98.35,0,0,0,65.16-42.73c5.55-8.56,8.41-16.31,8.76-23.68.43-9.2-3.55-18-10.16-22.51-4.26-2.88-9.42-4-14.41-5.09-2.31-.5-4.7-1-7-1.71-19.18-5.76-31.69-23.15-38.8-36.73-4.21-8-7.65-16.55-11-24.79q-4.92-12.75-11.08-25c-14.24-27-37.2-47.3-63-55.6-28.06-9-59.55-2.51-78.37,16.23-3,3-5.76,6.3-8.45,9.52-5.75,6.9-11.7,14-19.91,18-9.14,4.39-19.7,4.18-29.9,4-3-.06-6.16-.12-9.19-.06A92.88,92.88,0,0,0,629.43-117.19Z"/></g><g id="组_3017" data-name="组 3017"><path id="路径_3927" data-name="路径 3927" class="cls-9" d="M783.09,144.13c-1.46.35-2.92.63-4.4.85-19.64,3-41.44-3.38-59.81-17.41-15.26-11.66-28.19-28.1-39.52-50.28-3-5.86-5.89-12-8.68-17.94-10.09-21.51-20.53-43.75-39.31-58A152.8,152.8,0,0,0,615.51-8.72c-8.25-4.79-16.78-9.73-23.33-16.91C576.75-42.54,575.8-71.27,590-91c12.59-17.49,35.44-28.32,61.14-29,3-.09,6-.06,9,0,9.8.11,19.93.23,28.56-4.09,7.75-3.87,13.62-10.72,19.29-17.35,2.84-3.32,5.78-6.75,8.92-9.78,9.61-9.26,22.2-15.57,36.41-18.24A83.79,83.79,0,0,1,795-166.71c25.47,8.39,48.14,28.59,62.2,55.42,4.1,7.86,7.47,16.21,10.73,24.28a264.94,264.94,0,0,0,11.4,25.54c6.92,12.91,19.09,29.59,37.76,35.7,1.9.63,3.84,1.17,5.71,1.69,5.55,1.55,10.79,3,15.16,6.4,6.34,4.9,9.75,13.75,8.88,23.11-.68,7.3-3.68,14.73-9.44,23.38a99.69,99.69,0,0,1-60.12,41.38c-1.41.33-2.82.63-4.24.9-3.65.68-7.41,1.18-11.06,1.65-4.7.62-9.55,1.25-14.15,2.3-6.67,1.53-15.49,4.83-19.66,11.84-2.38,4-3.11,8.78-3.81,13.39-.32,2.08-.64,4.23-1.12,6.3a47.33,47.33,0,0,1-16.12,25.6A58,58,0,0,1,783.09,144.13ZM632.62-116.66c-17.57,4.1-32.52,13.32-41.8,26.21-14,19.4-13,47.58,2.09,64.15,6.45,7.07,14.53,11.76,23.09,16.72A155.4,155.4,0,0,1,632,.58c19,14.38,29.47,36.74,39.61,58.35,2.78,5.93,5.66,12.07,8.66,17.91,11.27,22,24.1,38.38,39.24,49.94,18.16,13.88,39.69,20.16,59.07,17.23,21.4-3.24,39.38-18.72,43.71-37.65.47-2,.79-4.17,1.1-6.23.72-4.7,1.46-9.56,3.94-13.75,4.35-7.31,13.43-10.73,20.29-12.29,4.64-1.07,9.53-1.71,14.25-2.33,3.63-.47,7.38-1,11-1.64a98.83,98.83,0,0,0,63.72-41.86c5.67-8.5,8.61-15.79,9.27-22.92.84-9-2.41-17.55-8.5-22.24-4.22-3.26-9.36-4.7-14.82-6.22-1.88-.53-3.83-1.08-5.75-1.7C897.77-31,885.44-47.93,878.43-61A262,262,0,0,1,867-86.63c-3.26-8.05-6.63-16.38-10.7-24.2-13.94-26.6-36.4-46.62-61.64-54.94-27.71-9.13-57.95-3.15-77,15.23l-.34-.35.34.35c-3.11,3-6,6.42-8.86,9.72-5.73,6.7-11.66,13.63-19.59,17.59-8.85,4.43-19.11,4.31-29,4.19-3,0-6-.07-9,0a91.9,91.9,0,0,0-18.55,2.35Z"/></g><g id="组_3018" data-name="组 3018"><path id="路径_3928" data-name="路径 3928" class="cls-10" d="M779.69,138c-1.65.38-3.32.7-5,.94-19.24,2.78-40.47-3.43-58.25-17-14.88-11.39-27.43-27.45-38.36-49.1-2.83-5.59-5.57-11.41-8.21-17-9.82-21-20-42.6-37.93-56.83a164.81,164.81,0,0,0-14.59-10c-8-5.09-15.65-9.91-21.78-16.87-7.23-8.22-11.31-19.3-11.48-31.21a53.37,53.37,0,0,1,9.92-32c12.24-16.8,34.5-27.37,59.55-28.26,2.82-.1,5.73-.09,8.53-.09,9.6,0,19.53.07,27.95-4.32,7.48-3.89,13.31-10.54,19-17a137.12,137.12,0,0,1,9.4-10c19.3-18,49.4-23.63,76.66-14.43,25,8.45,47.19,28.4,60.83,54.74,4,7.69,7.28,15.84,10.46,23.73C869.85-78,873.5-69,878.09-60.59,887.71-43,901-30.53,915.4-25.41c1.28.45,2.54.88,3.8,1.3,6.07,2.05,11.8,4,16.25,7.93,5.7,5,8.44,13.79,7.16,22.83-1,7-4.07,14-10,22.57a103.71,103.71,0,0,1-27.29,27.17A87,87,0,0,1,869.75,70.6c-2.8.42-5.68.84-8.46,1.23-5.85.84-11.9,1.7-17.62,2.76-10.11,1.88-16.89,5.3-20.17,10.16-2.45,3.64-3.18,7.85-4,12.31-.32,1.85-.66,3.77-1.12,5.62C814.11,119.8,798.85,133.52,779.69,138ZM635.91-116.13c-17.31,4-32,13-41.14,25.54-13.48,18.51-12.82,45.76,1.5,62,6,6.86,13.58,11.64,21.57,16.7a164.53,164.53,0,0,1,14.67,10c18.14,14.36,28.34,36.13,38.2,57.17,2.64,5.63,5.37,11.45,8.2,17,10.86,21.53,23.32,37.48,38.09,48.78,17.57,13.44,38.54,19.58,57.53,16.84,21.11-3.05,38.36-17.33,43-35.55.46-1.82.78-3.72,1.1-5.55.75-4.36,1.53-8.87,4.1-12.68,3.43-5.09,10.42-8.64,20.79-10.57,5.74-1.06,11.8-1.93,17.66-2.76,2.79-.4,5.67-.81,8.46-1.24,24.24-3.69,46.93-18.62,62.25-41,5.8-8.46,8.82-15.31,9.8-22.17,1.24-8.72-1.38-17.14-6.84-22-4.31-3.82-9.95-5.73-15.93-7.75-1.25-.42-2.53-.85-3.81-1.3-14.66-5.2-28.1-17.86-37.83-35.63-4.61-8.43-8.27-17.5-11.81-26.27C862.25-94.27,859-102.4,855-110c-13.54-26.12-35.51-45.9-60.29-54.26-26.94-9.1-56.66-3.52-75.71,14.22h0a135.14,135.14,0,0,0-9.32,9.94c-5.7,6.5-11.59,13.21-19.23,17.19-8.64,4.5-18.68,4.46-28.4,4.43-2.8,0-5.69,0-8.5.08A92.19,92.19,0,0,0,635.91-116.13Z"/></g><g id="组_3019" data-name="组 3019"><path id="路径_3929" data-name="路径 3929" class="cls-11" d="M776,131.91q-2.64.61-5.39,1c-18.84,2.58-39.5-3.48-56.69-16.64-14.41-11-26.57-26.71-37.19-47.93-2.58-5.17-5.09-10.53-7.51-15.71-9.61-20.55-19.54-41.8-36.78-56.13-4.31-3.58-8.83-6.71-13.2-9.75-7.51-5.22-14.61-10.15-20.36-16.95A47.33,47.33,0,0,1,588.2-60.41,51.6,51.6,0,0,1,598-91.29c11.92-16.16,33.58-26.45,58-27.53,2.71-.12,5.49-.14,8.18-.16,9.36,0,19-.11,27.21-4.55,7.2-3.9,13-10.33,18.57-16.54a135.45,135.45,0,0,1,9.91-10.28l.31.35-.31-.35c19.25-17.3,48.81-22.56,75.3-13.4,24.5,8.47,46.17,28.17,59.46,54.05,3.85,7.49,7.05,15.44,10.15,23.12,3.63,9,7.38,18.3,12.16,26.86,9.45,16.88,22.55,29.19,36.88,34.66l.41.16C921.7-22,928.21-19.54,933-14.67,938.1-9.42,940.13-1,938.4,7.86c-1.65,8.5-6.46,16.1-10.47,21.78C913.59,50,893.73,64,872.72,68.93c-2.06.48-4.14.87-6.22,1.18-4.25.62-8.66,1.29-12.93,1.93-4.65.71-9.47,1.44-14,2.1-10.7,1.55-17.46,4.32-20.68,8.47-2.53,3.27-3.29,7.13-4.1,11.21-.32,1.64-.66,3.33-1.11,5C809.16,114.8,794.39,127.62,776,131.91ZM639.18-115.61c-17,4-31.53,12.76-40.47,24.87-13.2,17.92-12.81,43.68.92,59.94,5.67,6.7,12.72,11.6,20.18,16.78,4.39,3,8.92,6.2,13.26,9.81,17.4,14.45,27.38,35.8,37,56.44,2.42,5.18,4.93,10.53,7.5,15.69,10.55,21.09,22.63,36.66,36.93,47.61,17,13,37.4,19,56,16.45,20.43-2.8,37.4-16.24,42.2-33.45.45-1.6.78-3.28,1.1-4.89.8-4,1.62-8.17,4.28-11.6,3.38-4.36,10.34-7.24,21.29-8.83,4.56-.66,9.38-1.39,14-2.09,4.27-.65,8.68-1.32,12.94-1.94,23-3.36,45.2-18,60.8-40.09,4-5.6,8.69-13.08,10.32-21.41C939.16-.88,937.22-9,932.3-14c-4.61-4.72-11-7.17-18.48-10l-.42-.16c-14.53-5.55-27.8-18-37.35-35.08-4.82-8.61-8.58-17.94-12.21-27-3.09-7.66-6.29-15.59-10.12-23-13.18-25.67-34.66-45.2-58.94-53.6-26.17-9.06-55.36-3.87-74.37,13.21a133.58,133.58,0,0,0-9.84,10.21c-5.64,6.27-11.48,12.76-18.82,16.74-8.37,4.54-18.17,4.6-27.65,4.66-2.68,0-5.45,0-8.14.15A92.17,92.17,0,0,0,639.18-115.61Z"/></g><g id="组_3020" data-name="组 3020"><path id="路径_3930" data-name="路径 3930" class="cls-12" d="M772.55,125.79a59,59,0,0,1-5.91,1.08c-18.44,2.38-38.54-3.54-55.13-16.26-14-10.73-25.79-26-36-46.76-2.36-4.78-4.67-9.73-6.9-14.51C659.2,29.24,649.5,8.45,633-5.94c-3.86-3.37-7.79-6.38-11.58-9.3-7.07-5.41-13.74-10.53-19.16-17.25-13.14-16.28-13.29-41.62-.35-58.94,11.59-15.52,32.66-25.55,56.36-26.81,2.59-.14,5.24-.18,7.81-.23,9.13-.14,18.56-.3,26.49-4.78,6.9-3.9,12.61-10.1,18.13-16.08a132.43,132.43,0,0,1,10.48-10.58h0c19.19-16.64,48.21-21.5,73.93-12.38,24,8.5,45.16,28,58.1,53.37,3.72,7.31,6.84,15,9.85,22.54,3.71,9.24,7.56,18.8,12.55,27.52,9.27,16.2,22.2,28.33,36.43,34.13,8,3.26,14.16,6.47,18.41,11.55C935-7.82,936.36.49,934.2,9.06c-2,7.91-6.68,15-11,21-14.55,20-33.93,33.76-53.92,38.44-2,.47-4,.84-6,1.13-3.42.48-7,1-10.39,1.59-5.8.92-11.79,1.87-17.46,2.48-7.75.82-17.16,2.33-21.2,6.79-2.6,2.86-3.4,6.37-4.25,10.09-.33,1.42-.66,2.9-1.11,4.32a43,43,0,0,1-15.61,21.38A55.32,55.32,0,0,1,772.55,125.79ZM642.45-115.09c-16.74,3.91-31,12.47-39.79,24.21C590-73.88,590.11-49,603-33.06c5.36,6.64,12,11.73,19,17.11C625.8-13,629.74-10,633.62-6.62,650.23,7.9,660,28.77,669.39,49c2.23,4.78,4.53,9.72,6.89,14.49,10.18,20.6,21.88,35.8,35.77,46.45,16.41,12.57,36.26,18.43,54.46,16.07,20-2.59,36.32-14.91,41.46-31.36.43-1.4.77-2.85,1.09-4.26.83-3.66,1.7-7.46,4.46-10.5,4.22-4.65,13.38-6.19,21.77-7.08,5.65-.6,11.64-1.55,17.42-2.47,3.43-.54,7-1.11,10.4-1.59C885,65.63,906.6,51.34,922.47,29.5c4.26-5.86,8.88-12.9,10.84-20.66,2.09-8.28.77-16.3-3.53-21.44-4.13-4.93-10.21-8.08-18.07-11.29-14.4-5.88-27.5-18.14-36.87-34.52-5-8.78-8.87-18.36-12.6-27.63-3-7.47-6.11-15.2-9.81-22.47-12.84-25.21-33.83-44.5-57.6-52.93-25.42-9-54.09-4.22-73,12.21h0a135.83,135.83,0,0,0-10.41,10.51c-5.56,6-11.32,12.29-18.34,16.26-8.13,4.59-17.68,4.75-26.92,4.9-2.56,0-5.21.08-7.78.22a90.4,90.4,0,0,0-15.88,2.25Z"/></g><g id="组_3021" data-name="组 3021"><path id="路径_3931" data-name="路径 3931" class="cls-13" d="M769,119.7a60.35,60.35,0,0,1-6.4,1.13c-18,2.19-37.57-3.59-53.57-15.87-13.6-10.44-25-25.35-34.87-45.59C672.06,55,670,50.54,668,46.21c-9.17-19.71-18.65-40.1-34.38-54.58-3.23-3-6.44-5.71-9.53-8.36-6.78-5.77-13.17-11.23-18.4-18A46.27,46.27,0,0,1,596.47-63a47.81,47.81,0,0,1,9.44-28.57c11.44-15.1,31.4-24.62,54.77-26.09,2.46-.15,5-.22,7.44-.29,8.89-.24,18.09-.49,25.77-5,6.6-3.88,12.2-9.83,17.62-15.59a133.26,133.26,0,0,1,11.12-10.92c19.12-16,47.61-20.42,72.57-11.35,23.45,8.54,44.13,27.74,56.72,52.69,3.6,7.13,6.63,14.68,9.56,22,3.81,9.48,7.74,19.28,12.93,28.16,9.08,15.53,21.86,27.46,36,33.61,8.49,3.69,14.08,7.72,17.6,12.7,3.92,5.53,4.65,13.53,2,21.94-2.29,7.3-6.88,14-11.5,20.17C909.63,42.27,891.53,62,866.12,68q-3,.7-6.12,1.14c-3.39.46-6.89,1-10.29,1.61-6.12,1-12.46,2.07-18.45,2.49-8.84.62-17.81,1.52-21.73,5.11-2.67,2.45-3.51,5.6-4.4,8.94-.32,1.23-.65,2.49-1.09,3.71C799.12,105,785.72,115.79,769,119.7ZM645.38-114.54c-16.39,3.83-30.08,12-38.77,23.51-12.16,16.07-12.27,40-.26,55.72,5.17,6.75,11.53,12.17,18.27,17.92,3.1,2.65,6.31,5.38,9.56,8.38C650,5.59,659.55,26.05,668.76,45.84c2,4.33,4.1,8.8,6.21,13.15,9.8,20.11,21.12,34.92,34.61,45.28,15.83,12.14,35.12,17.86,52.94,15.69,19.3-2.35,35.27-13.84,40.7-29.27.42-1.2.75-2.44,1.07-3.65.88-3.31,1.79-6.74,4.65-9.36,4.13-3.78,13.26-4.71,22.26-5.34,5.95-.42,12.26-1.46,18.37-2.48,3.4-.57,6.91-1.15,10.31-1.62,28.31-3.88,48.43-25.67,57.91-38.32,4.57-6.1,9.11-12.74,11.36-19.91,2.56-8.15,1.88-15.87-1.87-21.18-3.43-4.84-8.9-8.78-17.24-12.41-14.29-6.21-27.21-18.28-36.39-34-5.22-8.93-9.16-18.76-13-28.26-2.92-7.29-5.94-14.82-9.53-21.92-12.5-24.75-33-43.8-56.24-52.26-24.68-9-52.82-4.58-71.71,11.2l-.28-.33.28.33a133,133,0,0,0-11,10.85c-5.47,5.8-11.12,11.8-17.82,15.74-7.88,4.64-17.19,4.89-26.19,5.14-2.44.06-5,.13-7.41.29A92.52,92.52,0,0,0,645.38-114.54Z"/></g><g id="组_3022" data-name="组 3022"><path id="路径_3932" data-name="路径 3932" class="cls-14" d="M765.64,113.57a62.24,62.24,0,0,1-7,1.22c-17.64,2-36.6-3.64-52-15.48-13.2-10.14-24.23-24.67-33.7-44.42-1.85-3.85-3.68-7.79-5.45-11.61-9-19.4-18.3-39.45-33.3-54.09-2.16-2.1-4.26-4.1-6.3-6-7.24-6.88-13.5-12.83-18.82-20.22-11.53-16-11.17-39,.86-54.62,11.1-14.46,30.49-23.71,53.17-25.37,2.35-.17,4.74-.26,7.06-.35,8.67-.34,17.62-.69,25.06-5.25,6.28-3.85,11.76-9.54,17.05-15A133,133,0,0,1,724.06-149l.27.33-.27-.33c19-15.31,47-19.36,71.2-10.32,22.93,8.56,43.11,27.51,55.36,52,3.48,7,6.43,14.33,9.28,21.45,3.88,9.7,7.9,19.74,13.29,28.77,8.88,14.85,21.5,26.6,35.54,33.08,8,3.68,13.46,8.21,16.78,13.86,4.5,7.67,2.1,16.86.27,21.65-2.65,7-7.39,13.38-12,19.37-16.71,21.66-37,35.07-57,37.76-3.4.46-6.93,1.07-10.35,1.66a147,147,0,0,1-19.27,2.48l-1.13,0c-8.93.32-17.36.62-21.14,3.39-2.74,2-3.62,4.82-4.55,7.79-.32,1-.65,2.08-1.07,3.11C794,100.13,781.45,109.88,765.64,113.57ZM648.72-114c-16.15,3.78-29.64,11.76-38.16,22.87-11.8,15.36-12.16,37.91-.85,53.61,5.28,7.32,11.51,13.25,18.72,20.1,2,1.93,4.14,3.93,6.3,6.05,15.11,14.74,24.45,34.87,33.48,54.33,1.77,3.82,3.6,7.76,5.44,11.6,9.42,19.63,20.36,34.06,33.46,44.12,15.24,11.7,34,17.28,51.4,15.31,18.76-2.13,34.07-12.55,40-27.18.4-1,.73-2,1-3.06.93-3,1.89-6,4.86-8.21,4-2.93,12.54-3.23,21.6-3.55l1.13,0a146.78,146.78,0,0,0,19.16-2.47c3.42-.59,7-1.2,10.38-1.66,19.83-2.67,39.88-16,56.46-37.45C917.68,24.4,922.37,18,925,11.18c1.77-4.65,4.11-13.56-.22-20.92-3.23-5.5-8.59-9.92-16.4-13.52-14.2-6.55-27-18.42-35.91-33.42C867-65.77,863-75.83,859.11-85.57c-2.84-7.11-5.78-14.45-9.25-21.39-12.16-24.3-32.17-43.1-54.9-51.58-23.94-8.94-51.57-4.94-70.38,10.19h0a129.76,129.76,0,0,0-11.74,11.24c-5.34,5.53-10.85,11.26-17.22,15.17-7.63,4.68-16.7,5-25.47,5.37-2.31.09-4.7.18-7,.35A93.23,93.23,0,0,0,648.72-114Z"/></g><g id="组_3023" data-name="组 3023"><path id="路径_3933" data-name="路径 3933" class="cls-15" d="M762,107.51a61.26,61.26,0,0,1-7.39,1.24c-17.24,1.81-35.63-3.69-50.45-15.09-12.8-9.85-23.44-24-32.54-43.25-1.53-3.24-3.06-6.55-4.54-9.75-8.86-19.2-18-39-32.36-53.9-8.88-9.21-16.17-17-22.3-26.12a46,46,0,0,1-7.61-26.21,43.4,43.4,0,0,1,9.07-26.25c10.77-13.81,29.57-22.8,51.58-24.65,2.22-.18,4.48-.3,6.67-.41,8.83-.46,17.16-.89,24.36-5.49,5.94-3.8,11.26-9.21,16.4-14.44a129.72,129.72,0,0,1,12.61-11.75c18.95-14.65,46.36-18.29,69.84-9.3,22.4,8.59,42.07,27.29,54,51.32,3.37,6.8,6.23,14,9,20.94,4,9.93,8,20.19,13.65,29.36,8.65,14.17,21.12,25.74,35.09,32.56,7.61,3.71,13,8.76,16,15,3.5,7.35,1.15,15.66-1.44,21.35-2.79,6.13-7.14,11.8-12.52,18.57-11,13.87-28.38,30.79-50,35.85q-2.71.63-5.52,1c-3.44.45-7,1.09-10.43,1.71-6.67,1.2-13.56,2.43-20.07,2.46-1.71,0-3.39,0-5,0-7.76,0-14.46-.1-17.78,1.77-2.81,1.57-3.74,4-4.72,6.62-.31.82-.64,1.68-1,2.53C788.89,95.12,776.8,104,762,107.51ZM652.08-113.55c-15.91,3.72-29.21,11.5-37.58,22.23-11.4,14.61-12,35.79-1.43,51.51,6.11,9.1,13.06,16.51,22.22,26,14.42,15,23.62,34.86,32.51,54.12,1.48,3.2,3,6.51,4.54,9.75,9,19.13,19.6,33.18,32.3,43,14.66,11.27,32.83,16.71,49.86,14.92,17.85-1.87,32.88-11.49,39.21-25.09.38-.82.7-1.66,1-2.48,1-2.61,2-5.32,5.08-7,3.51-2,10.31-1.92,18.19-1.87l5,0c6.45,0,13.3-1.26,19.93-2.45,3.45-.62,7-1.26,10.47-1.72,24-3.18,43.13-21.63,55-36.55,5.53-6.95,9.66-12.34,12.41-18.4,2.52-5.53,4.81-13.6,1.45-20.66-2.9-6.09-8.13-11-15.57-14.64-14.11-6.89-26.7-18.56-35.43-32.87-5.63-9.22-9.74-19.52-13.71-29.48-2.77-6.94-5.63-14.11-9-20.88C836.75-130,817.23-148.58,795-157.1c-23.22-8.9-50.32-5.3-69,9.18h0a129.28,129.28,0,0,0-12.53,11.68c-5.17,5.26-10.52,10.71-16.54,14.55-7.38,4.72-16.21,5.18-24.76,5.62-2.18.11-4.43.23-6.64.41a93.44,93.44,0,0,0-13.42,2.11Z"/></g><g id="组_3024" data-name="组 3024"><path id="路径_3934" data-name="路径 3934" class="cls-16" d="M760,101.18a71.26,71.26,0,0,1-9.43,1.53C733.74,104.32,715.92,99,701.68,88c-12.4-9.56-22.66-23.32-31.37-42.08-1.14-2.47-2.28-4.93-3.41-7.4-8.8-19.18-17.9-39-31.64-54.21a168.93,168.93,0,0,1-19.5-26C606-57.43,606.85-78.11,617.83-92c10.44-13.16,28.66-21.88,50-23.92,2.08-.2,4.21-.34,6.26-.47,8.59-.56,16.71-1.09,23.68-5.74,5.58-3.71,10.7-8.83,15.66-13.78a127.22,127.22,0,0,1,13.48-12.25h0a68.79,68.79,0,0,1,32.76-12.79,73.58,73.58,0,0,1,35.7,4.53c21.86,8.61,41,27.07,52.62,50.63,3.27,6.65,6.06,13.67,8.75,20.45,4,10.15,8.2,20.64,14,29.94a90.15,90.15,0,0,0,34.65,32c7.36,3.79,12.59,9.39,15.12,16.18,2.75,7.39-.2,15.53-3.15,21.05s-7.1,10.56-11.9,16.4l-1.13,1.37c-17.6,21.43-35.79,33.53-54.07,36-3.46.46-7,1.12-10.51,1.77-6.93,1.29-14.1,2.61-20.86,2.44-9.89-.27-18.89-.24-23.48.08-2.48.18-3.22,2-4.09,4.19a12.81,12.81,0,0,1-1.66,3.2C786.2,89.59,775,97.67,760,101.18ZM655.49-113.07c-15.7,3.67-28.82,11.25-37,21.61-10.78,13.59-11.61,33.9-2,49.4a167.37,167.37,0,0,0,19.41,25.85C649.67-.92,658.79,19,667.62,38.2c1.13,2.47,2.27,4.93,3.4,7.39,8.66,18.65,18.85,32.32,31.14,41.79,14.08,10.84,31.7,16.14,48.34,14.54,19.32-1.85,34.41-10.86,38.43-22.94l0-.07,0,0a11.85,11.85,0,0,0,1.58-3.06c.89-2.2,1.8-4.47,4.77-4.67,4.69-.33,13.49-.36,23.55-.09,6.69.18,13.82-1.15,20.7-2.42,3.48-.65,7.07-1.32,10.55-1.78,18.07-2.4,36.09-14.4,53.56-35.68l1.13-1.37c4.78-5.8,8.9-10.81,11.82-16.27s5.75-13.29,3.11-20.4c-2.46-6.61-7.56-12.06-14.75-15.75a91,91,0,0,1-34.95-32.32C864.23-64.3,860.05-74.83,856-85c-2.69-6.77-5.48-13.78-8.73-20.39-11.49-23.4-30.52-41.71-52.2-50.25-22.51-8.86-49.08-5.65-67.7,8.17A126.71,126.71,0,0,0,714-135.3c-5,5-10.13,10.11-15.78,13.88-7.14,4.76-15.74,5.32-24.06,5.86-2,.13-4.17.27-6.24.47A93.28,93.28,0,0,0,655.49-113.07Z"/></g><g id="组_3025" data-name="组 3025"><path id="路径_3935" data-name="路径 3935" class="cls-17" d="M757,95a73.07,73.07,0,0,1-10.4,1.64c-16.44,1.42-33.69-3.79-47.33-14.31-12-9.27-21.89-22.65-30.21-40.91q-1-2.09-1.9-4.17c-8.85-19.48-18-39.63-31.3-55.39-7-8.28-11-15.46-14.79-22.41l-1.9-3.42c-7.39-13.16-9.43-33.16,2.67-48.14,10.1-12.51,27.74-21,48.4-23.2,1.95-.21,3.93-.37,5.84-.53,8.37-.66,16.27-1.3,23-6,5.2-3.61,10.09-8.41,14.82-13s9.37-9.2,14.45-12.82l.22.31-.22-.31c19-13.53,44.71-16.3,67.1-7.24,21.32,8.63,40,26.83,51.26,49.94,3.16,6.5,5.87,13.35,8.49,20,4.1,10.36,8.34,21.07,14.34,30.49A94.28,94.28,0,0,0,903.71-23C913-18,916.59-10.79,918-5.65c1.63,6,0,12.93-4.87,20.75-2.77,4.46-6.31,8.57-10.42,13.33l-3.12,3.64c-16.5,19.47-31.72,30.44-47.48,34.12q-2.55.6-5.11.94c-3.48.47-7.09,1.16-10.58,1.82-7.2,1.38-14.64,2.8-21.68,2.42-4.42-.25-8.6-.62-12.3-1a104.68,104.68,0,0,0-11.61-.68,9.46,9.46,0,0,0-4.16,3.53,14.37,14.37,0,0,1-1.83,2.14C781.52,84.54,771,91.75,757,95Zm-98-207.64c-15.5,3.63-28.48,11-36.54,21-11.88,14.71-9.87,34.36-2.6,47.3l1.9,3.43c3.82,6.91,7.77,14.06,14.7,22.28C649.77-2.75,659,17.44,667.82,37q.95,2.09,1.9,4.17c8.27,18.14,18.07,31.43,30,40.62,13.5,10.4,30.55,15.56,46.8,14.16,18.92-1.64,33.71-9.82,37.68-20.85l0-.09.07-.06a14.52,14.52,0,0,0,1.81-2.1,10.11,10.11,0,0,1,4.53-3.8l.06,0h.07a100.88,100.88,0,0,1,11.78.67c3.69.33,7.87.7,12.28,1,6.94.38,14.34-1,21.49-2.4,3.5-.67,7.12-1.37,10.62-1.84,17.41-2.32,34-13.38,52.12-34.79l3.12-3.65c4.08-4.74,7.61-8.83,10.35-13.23,4.75-7.63,6.36-14.41,4.78-20.15-1.38-5-4.91-12-13.93-16.87a95.14,95.14,0,0,1-34.47-31.77c-6-9.47-10.3-20.22-14.41-30.61-2.62-6.62-5.32-13.46-8.47-19.93-11.17-22.94-29.71-41-50.86-49.57-22.14-9-47.58-6.22-66.37,7.15h0c-5,3.59-9.77,8.24-14.36,12.74-4.75,4.67-9.66,9.49-14.92,13.14-6.91,4.8-15.28,5.47-23.38,6.12-1.91.15-3.88.31-5.82.52A95.16,95.16,0,0,0,658.94-112.61Z"/></g><g id="组_3026" data-name="组 3026"><path id="路径_3936" data-name="路径 3936" class="cls-18" d="M754.38,88.85a78.87,78.87,0,0,1-11.84,1.78,67.49,67.49,0,0,1-45.77-13.92c-11.61-9-21.11-22-29-39.74-2.12-4.74-4.1-9.69-6-14.47-6.4-15.94-13-32.42-25.27-43l-.06-.05,0-.06a125.78,125.78,0,0,0-6.57-11.15c-3.17-5-5.92-9.27-7.28-14.47-9.5-12-8.06-32.19,3.29-46,9.75-11.85,26.81-20,46.81-22.47,1.8-.22,3.64-.4,5.41-.57,8.14-.78,15.83-1.52,22.35-6.24a134.39,134.39,0,0,0,13.87-12.25c4.94-4.78,10.06-9.73,15.53-13.46l.21.3-.21-.3c18.87-12.86,44.06-15.25,65.73-6.22,20.78,8.65,39,26.61,49.89,49.26,3.06,6.35,5.7,13,8.25,19.53,4.16,10.56,8.46,21.5,14.67,31,7.89,12.1,19.88,23.1,33.75,31A26.27,26.27,0,0,1,915.5-4.15c1.12,6.06-1,12.75-6.57,20.45A118,118,0,0,1,900,26.82c-1.65,1.8-3.35,3.66-5.11,5.66a118.08,118.08,0,0,1-51,34.14,84.65,84.65,0,0,1-33.2,4.28c-7.21-.6-13.84-1.67-18.68-2.45-2.3-.37-4.3-.69-5.79-.87A8.93,8.93,0,0,0,781.91,70a14.11,14.11,0,0,1-1.86,1.51C776.83,79.59,767.39,85.8,754.38,88.85ZM637-21c12.34,10.69,19,27.23,25.42,43.23,1.92,4.78,3.9,9.71,6,14.44,7.89,17.65,17.32,30.56,28.83,39.46A66.66,66.66,0,0,0,742.48,89.9c18.8-1.44,33-8.62,36.93-18.74l.05-.11.1-.07a13.28,13.28,0,0,0,1.86-1.5A9.66,9.66,0,0,1,786,66.85l.07,0h.07c1.51.18,3.54.51,5.89.89,4.83.78,11.44,1.85,18.62,2.44a85.29,85.29,0,0,0,32.91-4.25A117.29,117.29,0,0,0,894.33,32c1.76-2,3.47-3.88,5.12-5.68a119.62,119.62,0,0,0,8.89-10.45c5.41-7.53,7.52-14,6.44-19.89a25.55,25.55,0,0,0-13.1-18c-14-7.94-26-19-34-31.22-6.25-9.58-10.56-20.55-14.74-31.15-2.55-6.46-5.18-13.15-8.23-19.47-10.85-22.5-28.89-40.32-49.51-48.91-21.45-8.93-46.37-6.57-65,6.15-5.42,3.7-10.51,8.62-15.44,13.38a134.78,134.78,0,0,1-13.94,12.32c-6.68,4.84-14.83,5.62-22.71,6.38-1.77.17-3.6.34-5.39.56-19.81,2.41-36.71,10.51-46.34,22.21-11.15,13.57-12.57,33.39-3.23,45.14l0,.06,0,.07c1.32,5.13,4.05,9.39,7.21,14.34A128.27,128.27,0,0,1,637-21Z"/></g><g id="组_3027" data-name="组 3027"><path id="路径_3937" data-name="路径 3937" class="cls-19" d="M832,68.61a77.67,77.67,0,0,1-25.51,1.83,155.64,155.64,0,0,1-25-5,10.59,10.59,0,0,0-4.42,1.38,16,16,0,0,1-1.82.87c-4.09,9.22-18.14,15.7-36.72,16.94a66.1,66.1,0,0,1-44.2-13.54C683.1,62.37,674,49.76,666.43,32.49c-2-4.61-3.9-9.43-5.72-14.08C654.7,3.1,648.49-12.73,637-22.92l-.06-.06,0-.07c-1.73-4-3.52-7.44-5.1-10.46-2.74-5.24-5.1-9.77-5.94-15-8.81-11.48-7.11-30.71,3.89-43.83,12.87-15.32,33.86-20.2,45.22-21.75,1.66-.22,3.33-.41,4.95-.6,7.93-.9,15.42-1.74,21.72-6.51a151.24,151.24,0,0,0,12.78-11.35c5.33-5.08,10.84-10.35,16.75-14.2l.19.29-.19-.29c18.72-12.2,43.39-14.19,64.37-5.2,20.23,8.67,37.91,26.38,48.52,48.58,3,6.21,5.53,12.76,8,19.09,4.22,10.77,8.58,21.91,15,31.54,9.71,14.57,23.47,24.6,33.3,30.45A25.37,25.37,0,0,1,913-2.65c.61,6.16-2,12.56-8.27,20.15-2.22,2.69-4.83,5.33-7.59,8.12-2.25,2.27-4.57,4.61-7,7.26a121.61,121.61,0,0,1-49.58,33.24A82.13,82.13,0,0,1,832,68.61ZM779.68,65a18.06,18.06,0,0,1,1.79-.3h.07l.07,0a153.87,153.87,0,0,0,25,5,79.94,79.94,0,0,0,33.77-4.29,121,121,0,0,0,49.29-33c2.41-2.66,4.74-5,7-7.29,2.75-2.78,5.35-5.41,7.55-8.07,6.13-7.43,8.7-13.67,8.12-19.63A24.68,24.68,0,0,0,900-21.69c-9.89-5.89-23.74-16-33.52-30.67C860-62,855.65-73.22,851.42-84c-2.48-6.32-5-12.85-8-19-10.53-22.05-28.08-39.63-48.16-48.23-20.77-8.9-45.18-6.94-63.7,5.13-5.86,3.82-11.34,9.06-16.64,14.13a156.17,156.17,0,0,1-12.85,11.4c-6.45,4.88-14,5.74-22.06,6.65-1.62.18-3.29.37-4.94.59C663.81-111.87,643-107,630.3-91.89c-10.83,12.9-12.5,31.8-3.82,43l0,.07v.09c.81,5.16,3.05,9.45,5.89,14.88,1.57,3,3.36,6.43,5.09,10.44,11.6,10.31,17.82,26.19,23.85,41.55,1.82,4.65,3.7,9.45,5.71,14.05,7.5,17.16,16.55,29.69,27.67,38.3A65.38,65.38,0,0,0,738.48,83.9c18.4-1.22,32.27-7.6,36.18-16.65l.06-.14.14,0a16.08,16.08,0,0,0,1.88-.88A11.18,11.18,0,0,1,779.68,65Z"/></g><g id="组_3028" data-name="组 3028"><path id="路径_3938" data-name="路径 3938" class="cls-20" d="M828,68.4A72.69,72.69,0,0,1,802.39,70a101.59,101.59,0,0,1-25.58-6.76,18.78,18.78,0,0,0-4.85.32c-.45.07-.94.16-1.54.24-4.1,8.24-17.5,13.75-35.91,14.78a64.74,64.74,0,0,1-42.65-13.15C681,57,672.29,44.77,665.14,28c-1.92-4.5-3.7-9.17-5.43-13.7C653.85-1,648.31-15.54,637.55-25.36l-.06-.05,0-.08C636.22-29,635-32,633.86-34.73c-2.44-6-4.37-10.67-4.64-16.09-8.12-11-6.16-29.23,4.5-41.66,12.37-14.43,32.65-19.37,43.63-21,1.5-.23,3-.43,4.47-.62,7.73-1,15-2,21.11-6.79,3.89-3.08,7.78-6.76,11.55-10.32,5.74-5.45,11.68-11.08,18.11-15.07l.18.28-.18-.28c18.56-11.54,42.7-13.14,63-4.17,19.69,8.69,36.87,26.14,47.15,47.89,2.88,6.08,5.37,12.48,7.78,18.67,4.28,11,8.7,22.32,15.33,32,7.44,10.92,18.5,21,32.84,29.93a24.6,24.6,0,0,1,11.79,20.8c.15,8.14-5.62,15.23-10,19.85-1.94,2.05-4.12,4.07-6.44,6.2-2.78,2.57-5.65,5.22-8.62,8.39a125.9,125.9,0,0,1-48.1,32.33A78,78,0,0,1,828,68.4Zm-58-5.24.19,0c.66-.09,1.18-.18,1.68-.27a20,20,0,0,1,5.06-.32l.12,0a100.65,100.65,0,0,0,25.46,6.73c10.63,1.42,23.25-.15,34.63-4.32A125.13,125.13,0,0,0,885,32.83c3-3.18,5.87-5.85,8.66-8.42,2.3-2.12,4.48-4.13,6.4-6.17,4.28-4.53,10-11.47,9.8-19.38a24.12,24.12,0,0,0-11.47-20.24c-14.44-9-25.55-19.12-33.05-30.12-6.67-9.78-11.1-21.16-15.4-32.17-2.4-6.18-4.9-12.57-7.76-18.62-10.21-21.61-27.27-38.95-46.81-47.57-20.1-8.87-44-7.29-62.37,4.13-6.37,4-12.29,9.56-18,15-3.77,3.57-7.68,7.27-11.59,10.36-6.24,4.93-13.62,5.9-21.44,6.93-1.46.19-3,.39-4.46.62-10.89,1.65-31,6.54-43.22,20.8-10.49,12.23-12.42,30.2-4.41,40.91l.06.08v.1c.25,5.34,2.17,10,4.6,16,1.1,2.69,2.35,5.73,3.58,9.19,10.84,9.93,16.65,25.15,22.28,39.87,1.72,4.51,3.51,9.19,5.42,13.67,7.1,16.66,15.78,28.8,26.51,37.13a64,64,0,0,0,42.2,13c18.29-1,31.53-6.45,35.43-14.56Z"/></g><g id="组_3029" data-name="组 3029"><path id="路径_3939" data-name="路径 3939" class="cls-21" d="M824.06,68.19a68.55,68.55,0,0,1-25.8,1.32c-9.13-1.43-16.73-4.6-22.28-6.92-1.46-.61-2.72-1.14-3.83-1.56a12.94,12.94,0,0,0-5-1c-.46,0-1,0-1.57-.1-4.09,7.22-16.86,11.81-35.11,12.62A63.39,63.39,0,0,1,689.4,59.76c-10.44-8.12-18.8-20-25.56-36.23-1.81-4.38-3.5-8.93-5.13-13.33-5.45-14.68-10.59-28.55-20.6-38l-.07-.06,0-.09c-.73-2.6-1.46-5-2.1-7.09-2.17-7.14-3.74-12.3-3.34-18.09-7.43-10.43-5.2-27.76,5.11-39.5,11.87-13.51,31.43-18.52,42-20.31,1.32-.22,2.64-.42,3.95-.62,7.54-1.14,14.65-2.22,20.54-7.08,3.38-2.79,6.66-5.88,10.13-9.16,6.21-5.86,12.64-11.92,19.66-16.07A67.62,67.62,0,0,1,795.64-149c19.13,8.7,35.82,25.91,45.78,47.21,2.79,6,5.21,12.21,7.56,18.26,4.33,11.17,8.8,22.72,15.63,32.53,7.15,10.25,17.75,19.87,32.4,29.4a24.06,24.06,0,0,1,11,22c-.46,8.14-6.48,14.72-11.68,19.55-1.7,1.57-3.55,3.12-5.52,4.76a124.82,124.82,0,0,0-10,9C867,47.89,850.83,58.76,834.09,65.13A79.48,79.48,0,0,1,824.06,68.19Zm-58.82-9,.22,0c.67.07,1.21.09,1.73.11a13.58,13.58,0,0,1,5.19,1.08c1.12.42,2.38,1,3.85,1.56,5.52,2.31,13.08,5.47,22.13,6.89,10.83,1.7,23.77.11,35.5-4.35,16.66-6.34,32.7-17.16,46.4-31.28a124.23,124.23,0,0,1,10.1-9.09c2-1.63,3.81-3.17,5.5-4.74,5.1-4.74,11-11.2,11.47-19.12a23.41,23.41,0,0,0-10.66-21.36C882-30.64,871.29-40.31,864.1-50.63c-6.88-9.88-11.37-21.46-15.71-32.67-2.34-6-4.76-12.3-7.54-18.22-9.9-21.16-26.47-38.25-45.46-46.9a67,67,0,0,0-61,3.12l-.16-.28.16.28c-7,4.11-13.36,10.15-19.55,16-3.47,3.28-6.76,6.38-10.15,9.18-6,5-13.23,6.07-20.86,7.23-1.3.2-2.62.4-3.94.62-10.52,1.77-29.93,6.73-41.66,20.1-10.15,11.56-12.35,28.6-5,38.8l.07.1v.11c-.43,5.71,1.13,10.85,3.3,18,.64,2.09,1.36,4.45,2.08,7,10.08,9.54,15.24,23.44,20.7,38.16,1.63,4.4,3.32,9,5.13,13.31,6.71,16.16,15,27.93,25.36,36a62.66,62.66,0,0,0,40.66,12.62c18.18-.8,30.82-5.34,34.68-12.46Z"/></g><g id="组_3030" data-name="组 3030"><path id="路径_3940" data-name="路径 3940" class="cls-22" d="M820.16,68a65.51,65.51,0,0,1-26,1.08c-11-2-20.09-6.75-25.5-9.6l-1.15-.6A32.55,32.55,0,0,0,760.78,56c-4,6.17-16.21,9.88-34.3,10.46-14.41.46-28.82-4.05-39.53-12.37-10.05-7.83-18-19.3-24.39-35.06-1.72-4.26-3.31-8.7-4.85-13-5-14-9.76-27.23-19-36.28l-.07-.07,0-.09c-.24-1.17-.48-2.3-.71-3.38C635.94-42.91,634.65-49,636-55.4c-6.74-9.91-4.24-26.28,5.72-37.34,10.77-12,27.94-17.25,40.45-19.58,1.13-.21,2.27-.41,3.4-.6,7.35-1.28,14.3-2.48,20-7.41,2.8-2.42,5.56-5,8.49-7.78,6.74-6.37,13.72-12.95,21.42-17.28l.15.26-.15-.26a66.87,66.87,0,0,1,60.26-2.13c18.57,8.72,34.76,25.68,44.42,46.53,2.7,5.82,5,11.95,7.34,17.87,4.37,11.36,8.9,23.11,15.94,33,8.8,12.35,21.7,21.92,32,28.87,11.15,7.56,10.55,19.59,10.1,23.09-1.06,8.28-7.7,14.64-13.37,19.25-1.5,1.23-3.12,2.43-4.83,3.7A98.48,98.48,0,0,0,876,34.11c-13.83,13.77-29.44,24.33-45.15,30.53A76.91,76.91,0,0,1,820.16,68ZM760.51,55.29l.43.14a32.67,32.67,0,0,1,6.85,2.87l1.15.61c5.72,3,14.37,7.57,25.32,9.53s24.29.39,36.36-4.38c15.63-6.18,31.17-16.69,44.94-30.39a99.26,99.26,0,0,1,11.31-9.38c1.71-1.27,3.32-2.47,4.82-3.68,5.58-4.55,12.12-10.8,13.15-18.86.43-3.42,1-15.13-9.84-22.5-10.3-7-23.25-16.59-32.1-29-7.1-10-11.63-21.74-16-33.14-2.28-5.91-4.63-12-7.32-17.83-9.6-20.72-25.68-37.57-44.12-46.23a66.26,66.26,0,0,0-59.7,2.1c-7.64,4.29-14.58,10.85-21.3,17.19-2.93,2.77-5.69,5.37-8.51,7.8-5.83,5-12.86,6.26-20.3,7.55l-3.39.6c-12.42,2.31-29.45,7.55-40.1,19.39-9.82,10.9-12.27,27-5.6,36.69l.08.1,0,.13c-1.32,6.35,0,12.39,1.89,21.53.22,1,.46,2.15.7,3.29,9.32,9.15,14.08,22.41,19.11,36.45,1.54,4.28,3.13,8.7,4.84,13,6.32,15.65,14.23,27,24.2,34.8,10.6,8.24,24.86,12.7,39.13,12.24,18.08-.57,30.13-4.26,33.93-10.37Z"/></g><g id="组_3031" data-name="组 3031"><path id="路径_3941" data-name="路径 3941" class="cls-23" d="M816.3,67.75a63.06,63.06,0,0,1-26.27.84c-11.91-2.39-21.21-8-27.17-11.93-1.14-.76-2-1.38-2.78-1.92A36,36,0,0,0,756,52.12c-5,6.44-20.93,8.08-33.5,8.32-14,.27-27.84-4.1-38-12C675,41,667.13,29.61,661.26,14.57c-1.63-4.16-3.12-8.48-4.56-12.66-4.6-13.32-9-25.9-17.47-34.55l-.07-.07v-.1c-1.49-10.87-2.28-17.92.17-24.89-6.15-9.54-3.44-24.63,6.32-35.18,10.27-11.08,26.79-16.37,38.87-18.86l2.79-.56c7.19-1.41,14-2.75,19.52-7.75,2.17-2,4.31-4,6.58-6.16,7.35-7,15-14.21,23.46-18.74l.14.26-.14-.26a66.05,66.05,0,0,1,58.9-1.1c18,8.72,33.7,25.43,43,45.84,2.61,5.7,4.9,11.7,7.12,17.49,4.42,11.56,9,23.5,16.25,33.47,8.42,11.55,20.67,20.68,31.49,28.34,9.07,6.41,10.73,16.72,9.27,24.23-1.66,8.45-8.92,14.57-15.07,19-1.37,1-2.81,1.92-4.34,2.92a81.53,81.53,0,0,0-12.25,9.31c-14.16,13.58-28.85,23.55-43.68,29.63A74.65,74.65,0,0,1,816.3,67.75ZM755.78,51.37l.23.12a35.44,35.44,0,0,1,4.41,2.77c.76.54,1.63,1.15,2.77,1.91,5.91,3.95,15.14,9.47,26.95,11.84,11.29,2.27,24.85.66,37.23-4.42,14.76-6.05,29.39-16,43.5-29.51a82.68,82.68,0,0,1,12.34-9.37c1.52-1,3-1.95,4.31-2.91,6.06-4.33,13.23-10.35,14.84-18.6,1.43-7.33-.19-17.38-9-23.64-10.86-7.67-23.16-16.84-31.63-28.47-7.31-10-11.89-22-16.32-33.6-2.22-5.79-4.5-11.78-7.11-17.46-9.3-20.28-24.88-36.89-42.77-45.56a65.5,65.5,0,0,0-58.37,1.09c-8.44,4.5-16,11.7-23.33,18.66-2.27,2.16-4.42,4.2-6.6,6.16-5.65,5.11-12.52,6.46-19.8,7.9-.92.18-1.85.36-2.79.56-12,2.46-28.39,7.71-38.54,18.68-9.63,10.41-12.29,25.27-6.18,34.57l.08.13-.05.13c-2.45,6.88-1.68,13.86-.21,24.66,8.57,8.75,12.93,21.36,17.54,34.71,1.44,4.17,2.93,8.48,4.55,12.63,5.84,14.94,13.59,26.26,23.05,33.64,10,7.8,23.72,12.12,37.6,11.86,18-.35,29.48-3.21,33.18-8.28Z"/></g><g id="组_3032" data-name="组 3032"><path id="路径_3942" data-name="路径 3942" class="cls-24" d="M812.47,67.52a60.59,60.59,0,0,1-26.56.6,68.05,68.05,0,0,1-27.68-13.65c-1.6-1.3-2.72-2.37-3.7-3.31a31.81,31.81,0,0,0-3.4-2.95c-3.87,4.06-14.57,6.09-32.69,6.19-13.8.07-26.73-4-36.41-11.6-9.17-7.17-16.59-18.18-22.06-32.72C658.44,6,657,1.8,655.69-2.27c-4.18-12.62-8.13-24.55-15.9-32.81l-.07-.07v-.1c-.72-10.88-.46-18.07,3-24.75-5.43-9-2.47-23.15,6.93-33,7.68-8,19.94-14.09,36.45-17.95l.81-.19,2.13-.47c7.06-1.57,13.73-3,19.1-8.14,1.43-1.35,2.88-2.75,4.34-4.17,8-7.76,16.33-15.79,25.83-20.57a64.38,64.38,0,0,1,57.53-.08c17.44,8.73,32.63,25.19,41.68,45.16C840-93.84,842.25-88,844.41-82.3c4.45,11.74,9.06,23.88,16.54,33.92,8.19,11,20,19.7,30.48,27.39l.56.42c9.3,6.84,10.35,17.94,8.43,25.36-2.25,8.69-10.14,14.54-16.77,18.67-1.26.79-2.59,1.56-4,2.37a69.07,69.07,0,0,0-13.09,9.08C852,48.36,838.18,57.76,824.35,63.64A73.3,73.3,0,0,1,812.47,67.52ZM751.05,47.46l.2.15a32.32,32.32,0,0,1,3.66,3.15c1,.93,2.08,2,3.66,3.28A67.48,67.48,0,0,0,786,67.58c11.54,2.55,25.43.93,38.1-4.45,13.78-5.86,27.53-15.22,42-28.63a69.42,69.42,0,0,1,13.2-9.15c1.4-.81,2.73-1.58,4-2.36,6.54-4.08,14.32-9.84,16.52-18.33,1.88-7.26.86-18.1-8.21-24.78l-.57-.42C880.62-28.25,868.75-37,860.5-48c-7.52-10.1-12.15-22.27-16.62-34-2.15-5.66-4.37-11.52-6.9-17.09-9-19.85-24.1-36.21-41.42-44.89a63.83,63.83,0,0,0-57,.08h0c-9.42,4.74-17.69,12.74-25.69,20.47-1.47,1.42-2.91,2.82-4.34,4.18-5.49,5.19-12.23,6.69-19.37,8.27l-2.12.48c-16.81,3.83-29.26,9.87-37,18-9.27,9.73-12.19,23.69-6.77,32.46l.08.14-.07.14c-3.43,6.59-3.7,13.7-3,24.5,7.81,8.34,11.77,20.3,16,32.94,1.34,4.07,2.74,8.27,4.26,12.33,5.44,14.44,12.8,25.37,21.89,32.48,9.58,7.48,22.39,11.55,36.06,11.47,18.23-.1,28.84-2.12,32.45-6.19Z"/></g><g id="组_3033" data-name="组 3033"><path id="路径_3943" data-name="路径 3943" class="cls-25" d="M808.66,67.3a58.91,58.91,0,0,1-26.87.36A63,63,0,0,1,753.6,52.29a44.78,44.78,0,0,1-4-4.39,35.33,35.33,0,0,0-3.3-3.62c-4.62,3.79-18,4.2-31.89,4.08-13.38-.12-25.76-4.1-34.85-11.2-8.8-6.9-15.83-17.52-20.9-31.55-1.43-4-2.73-8.1-4-12.08-3.76-11.92-7.31-23.18-14.33-31l-.07-.08v-.1c0-11.92,1.6-18.61,5.78-24.61-4.72-8.45-1.5-21.68,7.53-30.84,7.45-7.56,19.11-13.26,35.67-17.42l1.36-.34c7-1.73,13.54-3.37,18.78-8.58l1.66-1.65C719.47-129.48,729-139,739.7-144a63.55,63.55,0,0,1,56.17.94c17.12,8.87,31.43,24.66,40.31,44.47,2.46,5.47,4.62,11.22,6.71,16.77,4.5,11.93,9.14,24.26,16.84,34.36C867.07-37.88,877-30.33,886.63-23l3.68,2.8c9.52,7.3,10,18.84,7.59,26.5-2.87,9-11.37,14.53-18.46,18.38-1.2.65-2.46,1.28-3.79,2-4.33,2.18-9.23,4.65-13.81,8.72-9.49,8.42-24,20.47-40.74,27.82A70.72,70.72,0,0,1,808.66,67.3ZM746.32,43.57l.18.16A33.67,33.67,0,0,1,750,47.57,46.31,46.31,0,0,0,754,51.91a62.68,62.68,0,0,0,28,15.24c11.82,2.84,26,1.21,39-4.49,16.63-7.32,31.13-19.34,40.6-27.74,4.63-4.11,9.57-6.6,13.93-8.79,1.32-.67,2.57-1.3,3.77-1.95,7-3.8,15.4-9.29,18.2-18.07,2.4-7.5,1.9-18.79-7.4-25.92l-3.68-2.8c-9.64-7.32-19.62-14.89-27-24.57-7.75-10.16-12.41-22.53-16.92-34.49-2.09-5.55-4.25-11.29-6.7-16.74-8.83-19.7-23.06-35.41-40.07-44.22a63.06,63.06,0,0,0-55.7-.94l-.11-.23.11.23c-10.64,5-20.12,14.49-28.49,22.83l-1.65,1.65c-5.35,5.31-12,7-19,8.72l-1.36.33c-16.46,4.14-28,9.79-35.42,17.28-8.93,9.05-12.09,22.1-7.37,30.35l.09.15-.1.13c-4.17,5.92-5.74,12.53-5.78,24.35,7.05,7.94,10.61,19.21,14.37,31.15,1.26,4,2.55,8.09,4,12.06,5,13.94,12,24.47,20.73,31.31,9,7,21.25,11,34.52,11.09,13.93.13,27.41-.28,31.71-4.1Z"/></g><g id="组_3034" data-name="组 3034"><path id="路径_3944" data-name="路径 3944" class="cls-26" d="M804.88,67.08a57.38,57.38,0,0,1-27.2.12A60.51,60.51,0,0,1,749,50.11a44.79,44.79,0,0,1-4.13-5.37,36.72,36.72,0,0,0-3.35-4.4c-4.43,2.62-16.8,2.32-31.08,2-13-.31-24.8-4.16-33.29-10.82S662.06,14.65,657.39,1.13c-1.34-3.91-2.55-7.95-3.71-11.85-3.34-11.2-6.49-21.78-12.76-29.22l-.06-.08v-.1c.81-11.5,3.3-18.61,8.58-24.47-4-7.91-.54-20.2,8.12-28.68,9.15-9,23-13.62,34.09-16.69l.45-.12c6.92-1.92,13.46-3.73,18.6-9.1,9.2-9.6,19.12-19.39,30.41-24.41l.1.23-.1-.23a62.77,62.77,0,0,1,54.8,2c16.53,8.87,30.36,24.42,39,43.79,2.37,5.36,4.47,11,6.51,16.43,4.52,12.11,9.2,24.63,17.12,34.78,6.68,8.55,15.55,15.41,24.13,22.05,2.08,1.62,4,3.14,6,4.7,9.12,7.27,10,19.12,6.74,27.63-3.54,9.39-13.19,14.82-20.14,18.08-1.18.55-2.39,1.08-3.68,1.64-4.55,2-9.7,4.21-14.44,8.25-11.83,10.09-24.77,20.33-39.27,26.93A69.64,69.64,0,0,1,804.88,67.08ZM741.58,39.7l.14.15a36.85,36.85,0,0,1,3.54,4.61,44.56,44.56,0,0,0,4.08,5.31A60.06,60.06,0,0,0,777.8,66.72c12.12,3.14,26.64,1.49,39.84-4.52,14.45-6.58,27.35-16.8,39.15-26.86,4.8-4.09,10-6.34,14.57-8.33,1.28-.56,2.5-1.08,3.66-1.63,6.88-3.23,16.42-8.59,19.89-17.8,3.15-8.35,2.34-19.95-6.59-27.07-2-1.55-3.92-3.08-6-4.69-8.6-6.66-17.5-13.54-24.21-22.14-8-10.21-12.66-22.77-17.2-34.91-2-5.44-4.13-11.06-6.5-16.4-8.54-19.27-22.29-34.74-38.72-43.55a62.24,62.24,0,0,0-54.37-1.95c-11.2,5-21.09,14.74-30.25,24.3-5.24,5.46-11.84,7.29-18.83,9.23l-.45.12c-11,3-24.8,7.7-33.87,16.57-8.56,8.38-12,20.53-7.95,28.24l.08.16-.12.13c-5.26,5.78-7.74,12.8-8.56,24.2,6.29,7.51,9.45,18.11,12.79,29.32C655.32-7,656.52-2.94,657.87,1c4.63,13.44,11.21,23.58,19.57,30.15s20.12,10.4,33,10.71c14.4.35,26.83.65,31-2Z"/></g><g id="组_3035" data-name="组 3035"><path id="路径_3945" data-name="路径 3945" class="cls-27" d="M801.12,66.86a56.14,56.14,0,0,1-27.56-.12,58.58,58.58,0,0,1-29.21-18.81,48.68,48.68,0,0,1-4.23-6.32,43.87,43.87,0,0,0-3.43-5.22c-3.35,1.22-10.84.84-21.14.32-2.92-.15-5.94-.3-9.15-.43-8.89-.36-21.6-2.46-31.73-10.43-8.07-6.36-14.32-16.19-18.58-29.21-1.25-3.85-2.36-7.81-3.43-11.65-2.92-10.46-5.67-20.34-11.18-27.36l-.06-.08v-.1c1.56-11.38,5-18.67,11.39-24.34-3.29-7.36.43-18.72,8.72-26.51s20.54-12.31,32.49-16c6.34-1.94,12.89-3.95,18-9.52,7.88-8.66,18.48-19.24,30.53-24.25a62,62,0,0,1,53.44,3c15.94,8.87,29.29,24.17,37.58,43.1,2.3,5.25,4.34,10.76,6.31,16.09,4.56,12.3,9.27,25,17.42,35.2,6.13,7.67,14.13,13.94,21.88,20,2.72,2.13,5.29,4.15,7.8,6.22,9.27,7.7,9.56,20.3,5.9,28.76C889.66,16.63,882.72,22.28,871,27c-1.17.47-2.37.92-3.64,1.39-4.74,1.75-10.1,3.73-15,7.73-11.14,9.1-23.75,19.4-37.8,26A67.17,67.17,0,0,1,801.12,66.86Zm-64.28-31L737,36a43.29,43.29,0,0,1,3.58,5.41,47.76,47.76,0,0,0,4.19,6.26,58,58,0,0,0,29,18.65c12.43,3.45,27.27,1.79,40.71-4.56,14-6.6,26.59-16.88,37.7-26,4.95-4,10.35-6,15.12-7.8,1.27-.47,2.48-.92,3.64-1.39C882.43,21.9,889.28,16.33,892.43,9c3.59-8.3,3.31-20.68-5.77-28.21-2.5-2.08-5.07-4.09-7.79-6.21-7.76-6.08-15.79-12.36-22-20.08-8.19-10.26-12.92-23-17.48-35.33-2-5.33-4-10.83-6.3-16.07-8.25-18.84-21.53-34.07-37.38-42.88a61.44,61.44,0,0,0-53-3l-.09-.22.09.22c-12,5-22.51,15.51-30.37,24.13-5.16,5.67-11.78,7.7-18.17,9.65-11.9,3.64-24,8.09-32.31,15.86s-11.88,19-8.54,26.14l.07.16-.13.12c-6.4,5.58-9.79,12.78-11.35,24.06,5.52,7.09,8.28,17,11.2,27.45,1.06,3.83,2.17,7.79,3.42,11.63C660.77,9.42,667,19.18,675,25.49c10,7.88,22.64,10,31.46,10.32,3.22.13,6.23.29,9.15.43,10,.51,17.94.9,21.11-.35Z"/></g><g id="组_3036" data-name="组 3036"><path id="路径_3946" data-name="路径 3946" class="cls-28" d="M797.38,66.65a55.19,55.19,0,0,1-27.93-.37,57.56,57.56,0,0,1-29.71-20.53,52.35,52.35,0,0,1-4.31-7.24,50.31,50.31,0,0,0-3.54-6.07c-2.36.31-6.73-.14-12.73-.76-4.66-.48-10.45-1.07-16.78-1.44-8.59-.5-20.8-2.64-30.17-10-7.71-6.1-13.57-15.54-17.4-28-1.18-3.82-2.19-7.74-3.16-11.52C649.16-29,646.8-38.22,642-44.8l-.06-.08,0-.09c2.3-11.35,6.68-18.82,14.2-24.2-2.61-6.93,1.28-17.14,9.32-24.37,8.53-7.67,21.46-12,30.9-15.24,6.48-2.19,12.23-4.45,16.88-9.83C724-131,734-138.84,744-142.69h0a61.11,61.11,0,0,1,52.07,4c15.36,8.85,28.22,23.92,36.22,42.42,2.22,5.14,4.21,10.54,6.12,15.76,4.58,12.48,9.32,25.37,17.7,35.61,5.67,6.94,13,12.68,20,18.23,3.24,2.54,6.29,4.94,9.21,7.46C894.74-11,894.54,2,890.35,10.69c-4.64,9.57-13.89,16.45-23.57,17.51-6.34.69-13.12,3.65-19.1,8.32q-2,1.57-4.07,3.2C833.46,47.72,823,56,811.35,61.66A66.46,66.46,0,0,1,797.38,66.65ZM642.46-45c4.76,6.64,7.12,15.81,9.62,25.51,1,3.79,2,7.7,3.15,11.5C659,4.44,664.85,13.8,672.49,19.85c9.27,7.32,21.39,9.45,29.92,10,6.33.37,12.13,1,16.79,1.44,6.09.62,10.49,1.07,12.76.74l.13,0,.08.11a51,51,0,0,1,3.65,6.23,51.63,51.63,0,0,0,4.28,7.19,57.1,57.1,0,0,0,29.47,20.36c12.76,3.75,27.92,2.08,41.59-4.59,11.57-5.66,22.05-13.9,32.17-21.89l4.07-3.2c6.05-4.72,12.91-7.71,19.33-8.41,9.54-1.05,18.65-7.83,23.22-17.27,4.12-8.52,4.33-21.34-5-29.35-2.91-2.52-6-4.92-9.19-7.46-7.07-5.56-14.38-11.32-20.09-18.29-8.42-10.3-13.17-23.23-17.76-35.74-1.92-5.21-3.9-10.61-6.12-15.74-8-18.41-20.76-33.4-36-42.21a60.61,60.61,0,0,0-51.69-4l-.08-.21.08.21c-9.88,3.82-19.85,11.66-30.48,24-4.72,5.46-10.52,7.74-17.07,10-9.4,3.18-22.29,7.53-30.75,15.15-7.84,7-11.76,17.38-9.14,24l.07.16-.14.1C649.11-63.61,644.75-56.23,642.46-45Z"/></g><g id="组_3037" data-name="组 3037"><path id="路径_3947" data-name="路径 3947" class="cls-29" d="M793.85,66.35c-9.8,2.29-19.82,2.17-28.52-.54a57.28,57.28,0,0,1-30.21-22.23,59.68,59.68,0,0,1-4.38-8.15,56,56,0,0,0-3.65-6.94c-1.33-.15-3.32-.53-5.82-1a201.05,201.05,0,0,0-22.9-3.29c-12.07-.93-21.7-4.17-28.61-9.65C662.4,8.71,656.93-.33,653.51-12.31c-1.08-3.8-2-7.7-2.87-11.47-2.07-8.91-4-17.33-8-23.45l-.05-.08,0-.09c3-11.38,8.44-19,17-24.06-1.88-6.36,2.26-15.66,9.9-22.2,7.46-6.39,18-10.32,27.34-13.79l2-.73c6.68-2.5,11.66-5.07,15.79-10.13,6.81-8.33,17.68-19.24,30.78-23.92a60.25,60.25,0,0,1,50.71,5c14.75,8.84,27.13,23.66,34.85,41.73,2.15,5,4.07,10.33,5.93,15.45,4.6,12.65,9.37,25.74,18,36,5.28,6.3,12,11.57,18.44,16.67,3.66,2.88,7.1,5.59,10.33,8.49,9.23,8.28,9.11,21.87,4.23,31-5.14,9.63-15,16.39-25.25,17.22A38.5,38.5,0,0,0,843,36.93c-2.47,1.84-5,3.8-7.48,5.7-8.67,6.69-17.63,13.6-27.38,18.53A64,64,0,0,1,793.85,66.35ZM643-47.38c4,6.17,6,14.6,8,23.51.87,3.76,1.78,7.65,2.86,11.44,3.4,11.9,8.81,20.87,16.1,26.66,6.85,5.42,16.4,8.64,28.39,9.56a201.74,201.74,0,0,1,22.94,3.29c2.56.49,4.58.87,5.89,1h.1l0,.08a57.52,57.52,0,0,1,3.74,7.07,57.87,57.87,0,0,0,4.35,8.1,56.9,56.9,0,0,0,30,22.07c12.91,4,28.79,2.28,42.45-4.63,9.71-4.91,18.66-11.81,27.32-18.49,2.46-1.9,5-3.86,7.48-5.71A39,39,0,0,1,862.55,29c10.06-.81,19.84-7.49,24.91-17,4.81-9,4.93-22.37-4.14-30.51-3.22-2.89-6.66-5.6-10.3-8.47-6.49-5.11-13.2-10.4-18.5-16.73-8.65-10.33-13.43-23.45-18-36.14-1.86-5.11-3.78-10.39-5.93-15.42-7.68-18-20-32.75-34.68-41.54a59.86,59.86,0,0,0-50.36-5l-.07-.2.07.2c-13,4.65-23.82,15.5-30.6,23.79-4.2,5.13-9.22,7.73-16,10.26l-2,.73c-9.29,3.46-19.81,7.38-27.21,13.72-7.58,6.49-11.67,15.71-9.73,21.92l.05.16-.14.08C651.41-66.23,646-58.66,643-47.38Z"/></g><g id="组_3038" data-name="组 3038"><path id="路径_3948" data-name="路径 3948" class="cls-30" d="M790.14,66.14a54.21,54.21,0,0,1-28.92-.79A57.43,57.43,0,0,1,730.51,41.4a65.72,65.72,0,0,1-4.44-9,67,67,0,0,0-3.76-7.83,116.6,116.6,0,0,0-28-6.38C682.54,17,673.69,14,667.3,8.9c-7-5.6-12.09-14.24-15.08-25.7-1-3.82-1.8-7.72-2.57-11.5C648-36.39,646.43-44,643.16-49.67l0-.08,0-.08c3.77-11.45,10.26-19.28,19.83-23.91-1.14-5.81,3.24-14.2,10.48-20.06,6.47-5.23,15.38-8.82,23.24-12,1.54-.61,3-1.22,4.48-1.82,5.09-2.11,10.39-4.83,14.71-10.43,5.26-6.82,16.26-19,30.9-23.75a59.35,59.35,0,0,1,49.34,6.05c14.16,8.82,26,23.4,33.49,41,2.08,4.94,3.94,10.12,5.75,15.13,4.62,12.84,9.4,26.11,18.24,36.42,4.94,5.74,11.11,10.6,17.09,15.29,3.82,3,7.76,6.1,11.22,9.33,9.4,8.76,8.82,22.8,3.4,32.13C879.7,23.3,869.12,30,858.4,30.55a38.62,38.62,0,0,0-20.15,6.78c-3.31,2.34-6.56,4.82-10,7.44-7.45,5.69-15.15,11.57-23.4,15.89A62.26,62.26,0,0,1,790.14,66.14ZM643.54-49.78c3.26,5.68,4.83,13.32,6.48,21.41.78,3.77,1.57,7.67,2.57,11.48,3,11.37,8,20,14.95,25.49,6.33,5,15.11,8,26.85,9.18A116.9,116.9,0,0,1,722.5,24.2l.07,0,0,.06a64.25,64.25,0,0,1,3.82,7.93,65,65,0,0,0,4.42,9A57,57,0,0,0,761.34,65c13.28,4.33,29.48,2.6,43.33-4.66C812.89,56,820.58,50.15,828,44.47c3.28-2.51,6.68-5.1,10-7.45a39,39,0,0,1,20.35-6.85C869,29.58,879.42,23,885,13.44c5.35-9.2,5.92-23-3.33-31.66-3.44-3.22-7.21-6.18-11.2-9.31-6-4.7-12.18-9.57-17.13-15.35-8.9-10.35-13.69-23.66-18.32-36.53-1.8-5-3.67-10.18-5.74-15.11-7.41-17.58-19.25-32.1-33.33-40.88a59,59,0,0,0-49-6l-.06-.18.06.18c-14.54,4.76-25.49,16.84-30.72,23.62-4.37,5.67-9.73,8.43-14.86,10.56-1.45.6-3,1.2-4.49,1.82-7.83,3.15-16.72,6.72-23.14,11.92-7.19,5.82-11.53,14.16-10.32,19.82l0,.15-.14.07c-9.52,4.56-16,12.31-19.74,23.67Z"/></g><g id="组_3039" data-name="组 3039"><path id="路径_3949" data-name="路径 3949" class="cls-31" d="M786.45,65.94a53.61,53.61,0,0,1-29.34-1A57.93,57.93,0,0,1,725.9,39.23a74.06,74.06,0,0,1-4.5-9.9,75.55,75.55,0,0,0-3.88-8.73c-5-3-15-7-27.18-8.48-7.88-.94-17.9-2.8-25.5-8.87C658.26-2,653.45-10.5,650.92-21.27c-.91-3.89-1.59-7.84-2.25-11.66-1.25-7.23-2.42-14-4.95-19.17l0-.07,0-.07c4.52-11.55,12.14-19.55,22.65-23.78-.4-5.3,4.13-12.64,11.07-17.91,5.54-4.21,12.65-7.24,19.51-10.17,2.33-1,4.53-1.93,6.62-2.9,6.14-2.84,10.21-6,13.62-10.74,8.45-11.64,19.75-20.23,31-23.58a58.52,58.52,0,0,1,48,7.07c13.54,8.8,24.94,23.13,32.11,40.36,2,4.84,3.82,9.91,5.57,14.82,4.64,13,9.43,26.49,18.52,36.81,4.63,5.27,10.36,9.74,15.9,14.07a148.72,148.72,0,0,1,12,10,23.62,23.62,0,0,1,7,16.46,30.4,30.4,0,0,1-4.49,16.8,36.14,36.14,0,0,1-28.6,16.64c-8.32.28-15.08,2.24-20.67,6-3.95,2.66-7.95,5.7-11.82,8.66-6.42,4.9-13.06,10-20.1,13.78A61,61,0,0,1,786.45,65.94ZM644.09-52.19c2.52,5.16,3.7,12,4.94,19.2.66,3.81,1.34,7.76,2.25,11.63C653-13.9,656.84-3.62,665.07,3c7.53,6,17.49,7.86,25.32,8.8,12.21,1.47,22.38,5.52,27.37,8.56l0,0,0,0a76.82,76.82,0,0,1,3.92,8.8,74.21,74.21,0,0,0,4.47,9.87,57.62,57.62,0,0,0,31,25.49c13.67,4.67,30.2,2.92,44.21-4.69,7-3.81,13.64-8.87,20.06-13.76,3.87-3,7.88-6,11.83-8.66,5.65-3.8,12.47-5.79,20.86-6.07A35.77,35.77,0,0,0,882.5,14.9c5.74-9.16,6.81-23.77-2.5-32.81a147.85,147.85,0,0,0-11.93-10c-5.55-4.34-11.3-8.83-15.94-14.11C843-52.4,838.19-65.9,833.54-78.95c-1.75-4.9-3.55-10-5.56-14.8-7.14-17.17-18.5-31.45-32-40.2a58.18,58.18,0,0,0-47.69-7l0-.17,0,.17c-11.19,3.33-22.43,11.88-30.83,23.45-3.44,4.75-7.56,8-13.76,10.85-2.1,1-4.3,1.91-6.62,2.9-6.85,2.93-13.93,6-19.45,10.14-6.9,5.23-11.38,12.52-10.91,17.72l0,.14-.13,0C656.17-71.57,648.59-63.65,644.09-52.19Z"/></g><g id="组_3040" data-name="组 3040"><path id="路径_3950" data-name="路径 3950" class="cls-32" d="M782.77,65.75A53.12,53.12,0,0,1,753,64.43a58.74,58.74,0,0,1-31.71-27.37,83.39,83.39,0,0,1-4.55-10.76,85.94,85.94,0,0,0-4-9.63c-4.38-3.76-13.91-8.79-26.43-10.59C677.87,4.87,669.12,3,662.39-2.4c-7.89-6.36-11.29-16.21-12.75-23.35-.82-4-1.36-8.07-1.89-12-.84-6.29-1.64-12.24-3.46-16.79l0-.07,0-.06c5.27-11.66,14.08-19.83,25.47-23.63.37-4.72,5.13-11.18,11.64-15.77,4.68-3.3,10.48-5.88,16.09-8.39,3-1.34,5.84-2.61,8.46-4a32.31,32.31,0,0,0,12.53-11c7.86-11.55,19.5-20.3,31.13-23.42a57.66,57.66,0,0,1,46.62,8.09C809.17-124,820.09-109.93,827-93.1c1.94,4.74,3.7,9.71,5.39,14.52,4.65,13.2,9.46,26.86,18.79,37.2,4.36,4.83,9.69,9,14.85,13a128.1,128.1,0,0,1,12.54,10.59c9.59,9.69,8.05,24.94,1.73,34.38C873,27.48,859.8,31.47,850,32.9c-1.36.2-2.74.35-4.2.51-5.71.63-11.61,1.28-17,4.72-4.41,2.81-8.84,6.2-13.11,9.48a152.08,152.08,0,0,1-17.34,12.06A59,59,0,0,1,782.77,65.75ZM644.62-54.59c1.81,4.59,2.61,10.52,3.45,16.8.53,3.92,1.07,8,1.89,12,1.45,7.09,4.82,16.87,12.63,23.16,6.67,5.35,15.37,7.2,23.78,8.42C699,7.57,708.59,12.65,713,16.44l0,0a85.24,85.24,0,0,1,4,9.69,83.48,83.48,0,0,0,4.53,10.73,58.36,58.36,0,0,0,31.53,27.21c14.08,5,30.93,3.25,45.08-4.73a150.83,150.83,0,0,0,17.29-12c4.29-3.28,8.72-6.68,13.15-9.49,5.47-3.48,11.69-4.17,17.17-4.78,1.45-.16,2.83-.31,4.18-.51,9.7-1.41,22.78-5.37,30-16.2,6.25-9.33,7.78-24.4-1.68-34a127.33,127.33,0,0,0-12.51-10.57c-5.17-4-10.52-8.14-14.9-13-9.38-10.39-14.19-24.08-18.86-37.31-1.69-4.8-3.44-9.77-5.38-14.5-6.87-16.77-17.75-30.81-30.63-39.53a57.32,57.32,0,0,0-46.34-8l-.05-.16.05.16c-11.57,3.1-23.14,11.8-31,23.28a32.56,32.56,0,0,1-12.66,11.14c-2.63,1.36-5.47,2.63-8.48,4-5.59,2.5-11.38,5.09-16,8.36-7.56,5.33-11.27,11.84-11.5,15.63V-78l-.1,0C658.64-74.27,649.87-66.17,644.62-54.59Z"/></g><g id="组_3041" data-name="组 3041"><path id="路径_3951" data-name="路径 3951" class="cls-33" d="M779.29,65.46a53.38,53.38,0,0,1-30.4-1.5,59.67,59.67,0,0,1-32.21-29.07,61.77,61.77,0,0,1-3.66-10c-1.31-4.35-2.55-8.46-5-12.17C704.86,8.07,695.72,2.33,682.32,0,674.39-1.31,666.14-3,659.94-8c-7.48-6.06-10.43-15.41-11.59-22.19-.72-4.23-1.09-8.46-1.45-12.55-.46-5.28-.9-10.25-2-14.18l0-.06,0,0c6.12-12,15.9-20.07,28.3-23.49,1-3.49,5.09-9,12.21-13.62a105.35,105.35,0,0,1,12.85-6.62c3.63-1.68,7.06-3.25,10.11-5a31.86,31.86,0,0,0,11.45-11.35c7.41-11.67,19.09-20.36,31.25-23.25l.17,0a56.82,56.82,0,0,1,45.08,9.15c12.49,8.84,22.65,22.33,29.39,39,1.87,4.64,3.57,9.51,5.2,14.21,4.66,13.39,9.48,27.24,19.06,37.59,4.12,4.45,9.1,8.27,13.93,12a112.37,112.37,0,0,1,13,11.05c9.72,10.22,7.71,25.92.89,35.5-6.28,8.85-17.63,14.55-31.94,16.06-1.42.15-2.86.25-4.39.35-5.83.4-11.85.82-17.35,4.11a145.45,145.45,0,0,0-14,10,142.84,142.84,0,0,1-15,10.63A56.63,56.63,0,0,1,779.29,65.46ZM645.16-57c1.14,4,1.57,8.92,2,14.19.36,4.08.73,8.31,1.45,12.53,1.15,6.72,4.07,16,11.48,22,6.15,5,14.36,6.68,22.24,8,13.49,2.3,22.71,8.1,25.87,12.82,2.51,3.75,3.76,7.88,5.08,12.26a61.45,61.45,0,0,0,3.63,9.93,59.41,59.41,0,0,0,32,28.92c14.3,5.3,31.91,3.48,46-4.76a143.21,143.21,0,0,0,14.94-10.61,149.11,149.11,0,0,1,14-10c5.56-3.33,11.63-3.74,17.49-4.15,1.52-.1,3-.2,4.38-.35,8.24-.87,23.31-4.09,31.73-15.93,6.75-9.49,8.74-25-.87-35.12a111.8,111.8,0,0,0-13-11c-4.84-3.7-9.83-7.53-14-12C840.1-50.7,835.27-64.58,830.6-78c-1.64-4.7-3.33-9.56-5.2-14.2-6.72-16.62-16.84-30-29.29-38.86a56.51,56.51,0,0,0-44.84-9.1l-.17,0,0-.15,0,.15C739-137.25,727.4-128.61,720-117a32.12,32.12,0,0,1-11.56,11.45c-3.05,1.77-6.49,3.35-10.13,5a106.87,106.87,0,0,0-12.81,6.6c-7.11,4.59-11.2,10.1-12.11,13.53l0,.09-.08,0C661-76.92,651.25-68.86,645.16-57Z"/></g><g id="组_3042" data-name="组 3042"><path id="路径_3952" data-name="路径 3952" class="cls-34" d="M775.64,65.29a53.06,53.06,0,0,1-30.87-1.79,60.91,60.91,0,0,1-32.71-30.77,77.21,77.21,0,0,1-3.86-10.94c-1.35-4.59-2.62-8.92-5-13C700,3.28,691-3.45,678.3-6L678-6.06c-6.89-1.38-14.7-2.94-20.48-7.64-5.53-4.5-9.23-12-10.43-21a134.33,134.33,0,0,1-.86-13.44,88.1,88.1,0,0,0-.77-11.25v-.05l0,0a47.79,47.79,0,0,1,30.8-23.26l.33-.08c1.5-2.74,5.74-7.38,12.79-11.48,3-1.73,6.4-3.32,9.71-4.86a97,97,0,0,0,11.67-6.06c5-3.24,7.92-7.51,10.36-11.65C728-128.53,740-137.38,752.45-140c14.8-3.06,31.2.72,43.89,10.13,11.86,8.78,21.55,22,28,38.31,1.81,4.54,3.45,9.31,5,13.92,4.67,13.57,9.5,27.61,19.33,38a107.1,107.1,0,0,0,13.09,11.06c4.68,3.53,9.52,7.2,13.39,11.43A25.75,25.75,0,0,1,881.62,1.2a32.81,32.81,0,0,1-6.36,18.28c-9.28,12.36-25,15.18-33.62,15.77-1.5.1-3,.14-4.61.19-5.93.18-12.07.36-17.66,3.49a116.88,116.88,0,0,0-14.56,10.33,135.92,135.92,0,0,1-13,9.42A55.36,55.36,0,0,1,775.64,65.29ZM645.69-59.4a86.16,86.16,0,0,1,.77,11.24,133.54,133.54,0,0,0,.86,13.41c1.19,9,4.86,16.38,10.33,20.84C663.38-9.25,671.16-7.7,678-6.33l.34.07c12.82,2.56,21.84,9.35,25.1,14.94,2.38,4.08,3.72,8.63,5,13a73.85,73.85,0,0,0,3.85,10.9,60.57,60.57,0,0,0,32.56,30.64c14.75,5.66,32.7,3.82,46.83-4.8a135.79,135.79,0,0,0,12.93-9.4,118.29,118.29,0,0,1,14.6-10.36c5.65-3.16,11.82-3.34,17.79-3.52,1.6-.05,3.1-.09,4.6-.2,8.52-.57,24.21-3.38,33.42-15.65,7.24-9.65,9.68-25.64,0-36.28-3.86-4.22-8.69-7.87-13.36-11.4a106.74,106.74,0,0,1-13.12-11.09c-9.87-10.4-14.71-24.47-19.39-38.07-1.58-4.6-3.22-9.37-5-13.91-6.46-16.22-16.12-29.43-27.93-38.2-12.63-9.35-29-13.12-43.68-10.07-12.42,2.57-24.35,11.36-31.18,22.94-2.46,4.17-5.43,8.48-10.45,11.75a95.92,95.92,0,0,1-11.69,6.07c-3.31,1.54-6.74,3.13-9.69,4.85-7.06,4.1-11.26,8.72-12.72,11.43l0,.06h-.06l-.4.09A47.5,47.5,0,0,0,645.69-59.4Z"/></g><g id="组_3043" data-name="组 3043"><path id="路径_3953" data-name="路径 3953" class="cls-35" d="M772,65.13A52.82,52.82,0,0,1,740.66,63c-14.43-5.73-26.53-17.57-33.2-32.48a88.62,88.62,0,0,1-4.06-12,74,74,0,0,0-4.95-13.7C695.37-1,687.2-9,674.29-12l-1.78-.41C666.34-13.85,660-15.31,655-19.35c-7-5.79-8.82-14.91-9.25-19.84a109,109,0,0,1,0-14.79c.14-2.85.27-5.54.21-7.86v0l0,0a50.57,50.57,0,0,1,34-23.18c2.81-3,7.81-6.5,13.37-9.36,2-1,4.22-2,6.52-3.08,4.68-2.13,9.52-4.34,13.26-7.1,4.28-3.17,6.73-7.29,9.28-12a45.84,45.84,0,0,1,31.48-22.9c14.39-2.53,30.29,1.63,42.52,11.14,11.22,8.72,20.44,21.74,26.66,37.63,1.74,4.45,3.32,9.11,4.85,13.62,4.67,13.77,9.5,28,19.6,38.36a101.43,101.43,0,0,0,12.34,10.22c4.81,3.59,9.8,7.3,13.68,11.73a26.53,26.53,0,0,1,6.2,19,33.76,33.76,0,0,1-7,18.78c-7.37,9.34-20.24,15-35.3,15.48-1.58,0-3.17,0-4.84,0-6,0-12.27-.08-18,2.88-5.21,2.71-10.11,6.65-14.84,10.47a127.13,127.13,0,0,1-11.21,8.38A53.58,53.58,0,0,1,772,65.13ZM646.23-61.81c.06,2.32-.07,5-.21,7.84a108.37,108.37,0,0,0,0,14.75c.43,4.89,2.19,14,9.16,19.68,4.9,4,11.25,5.46,17.4,6.86l1.77.41c13,3,21.22,11.08,24.32,17.05a74.05,74.05,0,0,1,5,13.75,89.58,89.58,0,0,0,4,11.93c6.64,14.85,18.7,26.65,33.07,32.35C756,68.87,774.28,67,788.47,58a128.11,128.11,0,0,0,11.19-8.36c4.74-3.83,9.64-7.78,14.88-10.5,5.74-3,12-2.95,18.07-2.91,1.67,0,3.25,0,4.83,0,15-.49,27.8-6.1,35.12-15.39,7.82-9.92,10.25-26.63.77-37.43-3.87-4.42-8.84-8.12-13.64-11.7a101.78,101.78,0,0,1-12.36-10.24C837.19-49,832.35-63.24,827.67-77c-1.53-4.5-3.11-9.16-4.85-13.6-6.2-15.86-15.4-28.84-26.58-37.53-12.18-9.47-28-13.62-42.33-11.09a45.57,45.57,0,0,0-31.31,22.78c-2.56,4.7-5,8.84-9.34,12-3.76,2.78-8.62,5-13.31,7.12-2.3,1-4.47,2-6.51,3.09-5.56,2.85-10.54,6.33-13.33,9.33l0,0h0A50.28,50.28,0,0,0,646.23-61.81Z"/></g><g id="组_3044" data-name="组 3044"><path id="路径_3954" data-name="路径 3954" class="cls-36" d="M768.49,64.94a54.9,54.9,0,0,1-7,1.15,52.3,52.3,0,0,1-25-3.51c-14.75-6-27-18.5-33.7-34.18a106.46,106.46,0,0,1-4.26-13A93.59,93.59,0,0,0,693.69,1a36.78,36.78,0,0,0-23.41-19c-.92-.25-1.88-.49-2.81-.73-5.25-1.34-10.69-2.72-14.9-6.2-4.85-4-7.8-10.83-8.09-18.67A87.33,87.33,0,0,1,646-60.44c.22-1.36.42-2.64.59-3.83v0a54.35,54.35,0,0,1,36.77-23,103,103,0,0,1,14-7.22l3-1.3c5.2-2.2,11.08-4.7,15.17-8.17,3.63-3.08,5.62-7.09,7.72-11.33l.46-.94A43.12,43.12,0,0,1,755.29-139a50.58,50.58,0,0,1,21.63,1.74,57.23,57.23,0,0,1,19.53,10.42c10.57,8.64,19.31,21.41,25.29,36.94,1.68,4.35,3.2,8.91,4.68,13.32,4.67,14,9.5,28.4,19.86,38.75a99.67,99.67,0,0,0,11.65,9.46c4.93,3.61,10,7.34,13.91,12a27.3,27.3,0,0,1,6,19.6,34.42,34.42,0,0,1-7.58,19.26c-8,9.66-21.44,15.19-37,15.2-1.67,0-3.4-.07-5.08-.13-6.13-.25-12.46-.5-18.24,2.27-5.34,2.56-10.2,6.58-14.9,10.47a117.39,117.39,0,0,1-9.69,7.49A51.65,51.65,0,0,1,768.49,64.94ZM646.77-64.21c-.17,1.19-.37,2.46-.58,3.8a85.45,85.45,0,0,0-1.5,16.74c.28,7.78,3.2,14.53,8,18.51,4.18,3.45,9.59,4.82,14.82,6.15.93.24,1.89.48,2.81.73A37,37,0,0,1,693.87.89a92.27,92.27,0,0,1,4.92,14.43,105.41,105.41,0,0,0,4.25,13c6.65,15.64,18.89,28.06,33.59,34.08a52.73,52.73,0,0,0,48.6-4.87,116.36,116.36,0,0,0,9.67-7.47c4.71-3.9,9.58-7.93,14.94-10.5,5.83-2.79,12.19-2.54,18.34-2.29,1.68.07,3.41.13,5.07.13,15.47,0,28.89-5.51,36.82-15.11,8.29-10,11.16-27.23,1.6-38.59-3.86-4.6-8.95-8.32-13.87-11.92a98.4,98.4,0,0,1-11.67-9.48c-10.4-10.39-15.24-24.85-19.92-38.84-1.48-4.4-3-9-4.67-13.31-6-15.5-14.69-28.24-25.23-36.85-11.76-9.61-27.08-14.13-41-12.11a42.9,42.9,0,0,0-31.44,22.61l-.46.93c-2.11,4.27-4.11,8.3-7.78,11.4-4.11,3.49-10,6-15.22,8.2l-3,1.3a103.91,103.91,0,0,0-13.94,7.22l0,0h0a54.06,54.06,0,0,0-36.62,22.92Z"/></g><g id="组_3045" data-name="组 3045"><path id="路径_3955" data-name="路径 3955" class="cls-37" d="M765,64.74a53.28,53.28,0,0,1-32.54-2.62c-15.06-6.35-27.53-19.44-34.2-35.89a127.07,127.07,0,0,1-4.46-14.12,113.77,113.77,0,0,0-4.86-15c-4.37-10.19-12.84-18.1-22.65-21.17-1.15-.36-2.36-.7-3.53-1-4.45-1.24-9-2.53-12.63-5.51-4.51-3.77-7.1-10.32-6.92-17.5s1.62-14.09,3.95-18.57c7.31-14,23.56-19,39.59-22.89a83.06,83.06,0,0,0,9.09-3.08c1.74-.66,3.54-1.33,5.45-2,5.85-2.08,12.44-4.63,16.62-8.75,2.9-2.85,4.42-6.38,6-10.12.35-.8.7-1.63,1.08-2.46a38.19,38.19,0,0,1,12.9-15.32,41,41,0,0,1,18.8-7.24,48.38,48.38,0,0,1,21.08,2.43,57.08,57.08,0,0,1,18.72,10.75c10.06,8.66,18.11,20.86,23.93,36.26,1.61,4.25,3.08,8.71,4.5,13,4.67,14.16,9.5,28.8,20.14,39.15a96.92,96.92,0,0,0,11,8.76c5,3.6,10.22,7.33,14.07,12.11a28.24,28.24,0,0,1,5.76,20.24,35.43,35.43,0,0,1-8.18,19.74,40.92,40.92,0,0,1-17.46,11.68,57.72,57.72,0,0,1-21.21,3.23c-1.75-.05-3.56-.18-5.32-.3-6.22-.44-12.64-.9-18.52,1.67-5.41,2.36-10.16,6.43-14.76,10.36-2.69,2.3-5.47,4.68-8.36,6.7A49.88,49.88,0,0,1,765,64.74ZM752.2-137.62c-11.87,2.78-22.2,10.93-27,21.67-.38.82-.73,1.66-1.08,2.46-1.61,3.75-3.14,7.3-6.06,10.18-4.21,4.14-10.82,6.71-16.69,8.78-1.91.68-3.71,1.36-5.44,2a83.55,83.55,0,0,1-9.12,3.08c-16,3.87-32.2,8.83-39.47,22.8-2.32,4.46-3.75,11.2-3.93,18.49-.18,7.13,2.39,13.61,6.86,17.35,3.54,3,8.13,4.24,12.56,5.48,1.17.32,2.38.66,3.53,1a34.84,34.84,0,0,1,14.22,8.7A40.37,40.37,0,0,1,689.09-3,115.58,115.58,0,0,1,694,12.06a123.37,123.37,0,0,0,4.45,14.1c6.65,16.42,19.08,29.46,34.1,35.8,16.07,6.78,35.5,4.85,49.47-4.9,2.88-2,5.66-4.39,8.35-6.69,4.6-3.94,9.37-8,14.8-10.39,5.93-2.59,12.37-2.13,18.61-1.69,1.75.13,3.57.25,5.32.31,15.94.48,30-4.93,38.51-14.85,8.75-10.16,12-27.81,2.43-39.74-3.84-4.77-9-8.49-14-12.08a97.31,97.31,0,0,1-11-8.78c-10.67-10.37-15.51-25-20.19-39.22-1.42-4.3-2.88-8.76-4.49-13-5.81-15.37-13.84-27.54-23.88-36.18C785-135,770.21-139.93,756.7-138.39A40.28,40.28,0,0,0,752.2-137.62Z"/></g><g id="组_3046" data-name="组 3046"><path id="路径_3956" data-name="路径 3956" class="cls-38" d="M761.41,64.63a53.28,53.28,0,0,1-33.08-3c-15.37-6.66-28-20.37-34.7-37.6A145.06,145.06,0,0,1,689,8.8a140.19,140.19,0,0,0-4.82-15.66c-2.66-6.7-9-18.64-21.9-23.3-1.3-.47-2.67-.89-4-1.29-3.74-1.14-7.6-2.32-10.61-4.86-4.19-3.54-6.4-9.8-5.76-16.32a36.72,36.72,0,0,1,5.81-16.51,47.36,47.36,0,0,1,18.62-15.72,77.79,77.79,0,0,1,23.77-7,130,130,0,0,0,15.15-3c7-1.83,12-4.53,15-8,2.34-2.72,3.49-6,4.71-9.38.41-1.16.83-2.35,1.3-3.51C731.24-128,744-137,758.1-138.13a46.42,46.42,0,0,1,20.53,3.1,57,57,0,0,1,17.91,11.09c9.38,8.53,17,20.5,22.57,35.57,1.54,4.15,2.95,8.5,4.32,12.71,4.66,14.36,9.48,29.22,20.4,39.54A92.21,92.21,0,0,0,854.29-28c5.1,3.58,10.36,7.29,14.18,12.23A29.23,29.23,0,0,1,874,5.1a35.68,35.68,0,0,1-8.78,20.22A42.45,42.45,0,0,1,846.89,37.1a58.31,58.31,0,0,1-22,2.84c-1.84-.11-3.74-.3-5.57-.48-6.31-.63-12.82-1.28-18.8,1.07-5.45,2.14-10,6.21-14.45,10.15-2.32,2.06-4.71,4.19-7.2,6A47.87,47.87,0,0,1,761.41,64.63ZM682.11-90.23c-15.37,3.6-27.37,11-34.27,21.18a36.66,36.66,0,0,0-5.79,16.44c-.63,6.47,1.55,12.68,5.7,16.19,3,2.52,6.83,3.69,10.56,4.83,1.32.4,2.7.82,4,1.29A33.36,33.36,0,0,1,676-20.76,47.91,47.91,0,0,1,684.3-6.92a138.61,138.61,0,0,1,4.82,15.69A144.54,144.54,0,0,0,693.77,24c6.67,17.19,19.29,30.87,34.62,37.51,16.67,7.23,36.44,5.29,50.36-4.93,2.49-1.83,4.88-3.95,7.19-6,4.44-4,9-8,14.5-10.18,6-2.36,12.55-1.71,18.87-1.08,1.83.19,3.73.38,5.57.48,16.19,1,31.22-4.49,40.21-14.57,10.49-11.7,11.92-29.67,3.25-40.9-3.8-4.92-9.05-8.62-14.14-12.19A92.49,92.49,0,0,1,843.73-36c-11-10.35-15.78-25.22-20.45-39.6-1.37-4.2-2.78-8.55-4.32-12.7-5.58-15-13.16-27-22.52-35.52C785.36-133.9,771.39-139,758.12-138c-14,1.15-26.76,10.1-31.69,22.29-.47,1.16-.89,2.35-1.3,3.5-1.22,3.44-2.38,6.69-4.73,9.43-3,3.52-8.11,6.23-15.12,8.08a128,128,0,0,1-15.16,3Q686-91.12,682.11-90.23Z"/></g><g id="组_3047" data-name="组 3047"><path id="路径_3957" data-name="路径 3957" class="cls-39" d="M758,64.46a50.92,50.92,0,0,1-7.27,1.15,54,54,0,0,1-26.52-4.41,62,62,0,0,1-21.43-16.06A75.65,75.65,0,0,1,689,21.9a167.27,167.27,0,0,1-4.85-16.43,166.88,166.88,0,0,0-4.78-16.24c-3.3-8.93-9.64-20.58-21.15-25.42-1.37-.58-2.83-1.07-4.24-1.53-3.1-1-6.3-2.09-8.8-4.23-3.88-3.33-5.69-9.28-4.59-15.15.87-4.67,3.38-9.4,7.68-14.45a65.21,65.21,0,0,1,45.19-22.57c1.86-.12,3.77-.15,5.61-.18A71.61,71.61,0,0,0,709.22-95c6-1,10.79-3.57,13.46-7.31,1.87-2.62,2.75-5.81,3.61-8.9.4-1.42.8-2.89,1.3-4.3a32.19,32.19,0,0,1,12.55-15.7,38.49,38.49,0,0,1,19.37-6.5c12.88-.64,26.39,4.9,37.08,15.21,8.82,8.5,15.76,19.92,21.2,34.89,1.47,4,2.83,8.29,4.14,12.39,4.65,14.58,9.47,29.65,20.68,39.94a88.37,88.37,0,0,0,9.93,7.52c5.15,3.54,10.48,7.2,14.24,12.28a30.34,30.34,0,0,1,5.28,21.53,36.72,36.72,0,0,1-9.36,20.7c-9.65,10.41-25.36,15.77-42,14.34-1.93-.17-3.91-.42-5.83-.66-6.39-.81-13-1.64-19.07.47-5.45,1.89-9.8,5.94-14,9.85-2,1.84-4,3.76-6.19,5.43A45.47,45.47,0,0,1,758,64.46ZM683.11-92.47a65.71,65.71,0,0,0-34.73,21c-4.28,5-6.78,9.75-7.65,14.39-1.08,5.83.7,11.73,4.55,15,2.49,2.13,5.68,3.18,8.77,4.21,1.41.46,2.87,1,4.25,1.53,11.54,4.86,17.91,16.55,21.21,25.49A167.32,167.32,0,0,1,684.3,5.44a166.84,166.84,0,0,0,4.84,16.41c6.69,18,19.49,32.27,35.14,39.23,17,7.58,37.63,5.59,51.24-5,2.14-1.66,4.2-3.57,6.18-5.42,4.21-3.92,8.57-8,14-9.88,6.1-2.11,12.73-1.28,19.13-.47,1.91.24,3.89.49,5.82.66,16.62,1.43,32.29-3.92,41.91-14.3,11-11.83,12.75-30.3,4.08-42.06-3.75-5.07-9.07-8.72-14.21-12.25a89.9,89.9,0,0,1-10-7.53c-11.24-10.32-16.06-25.41-20.72-40-1.31-4.1-2.66-8.34-4.13-12.39-5.44-15-12.37-26.35-21.17-34.84-10.67-10.28-24.15-15.81-37-15.17-14.33.71-27.41,9.81-31.8,22.12-.5,1.4-.91,2.87-1.3,4.29-.86,3.1-1.75,6.3-3.64,8.94-2.69,3.77-7.5,6.39-13.54,7.36a71.8,71.8,0,0,1-10.15.66c-1.84,0-3.74.07-5.6.18a61.58,61.58,0,0,0-10.38,1.52Z"/></g></g></g></g><g class="cls-40"><g id="蒙版组_6" data-name="蒙版组 6"><circle id="椭圆_204" data-name="椭圆 204" class="cls-41" cx="440.83" cy="-12.5" r="48.5"/></g></g></svg>