<svg xmlns="http://www.w3.org/2000/svg" xmlns:xlink="http://www.w3.org/1999/xlink" viewBox="0 0 246.36 271.18"><defs><style>.cls-1{fill:url(#未命名的渐变_21);}.cls-2{fill:url(#未命名的渐变_22);}.cls-3{fill:url(#未命名的渐变_29);}.cls-4{fill:url(#未命名的渐变_23);}.cls-5{fill:#172d72;}</style><linearGradient id="未命名的渐变_21" x1="205.52" y1="224.66" x2="205.52" y2="71.81" gradientUnits="userSpaceOnUse"><stop offset="0" stop-color="#f2f2f2"/><stop offset="1" stop-color="#b3b3b3"/></linearGradient><linearGradient id="未命名的渐变_22" x1="34.11" y1="173.84" x2="433.18" y2="384.51" gradientUnits="userSpaceOnUse"><stop offset="0" stop-color="#e30c34"/><stop offset="1"/></linearGradient><linearGradient id="未命名的渐变_29" x1="40.84" y1="181.18" x2="40.84" y2="-42.38" gradientUnits="userSpaceOnUse"><stop offset="0" stop-color="#172d72"/><stop offset="1" stop-color="#0a1633"/></linearGradient><linearGradient id="未命名的渐变_23" x1="-45.27" y1="-47.13" x2="199.71" y2="97.33" gradientUnits="userSpaceOnUse"><stop offset="0" stop-color="#172d72"/><stop offset="1" stop-color="#00aeef"/></linearGradient></defs><g id="图层_2" data-name="图层 2"><g id="Layer_1" data-name="Layer 1"><path class="cls-1" d="M184.4,219.58c9.72,5.67,20.12,6.12,29.69,3.67,19.75-5.07,32.27-21.12,32.27-41.37V64.5l-81.68,47.16v96.41Z"/><path class="cls-2" d="M102.36,265.81a43.15,43.15,0,0,0,42.39-.4l80-46.22c.19-.1.36-.24.55-.35a40.81,40.81,0,0,1-40.94-.09l-20.85-12h-.21l-40.16-23.19-41.5-24-.39.2L0,206.71Z"/><path class="cls-3" d="M62,51.59c-9.72-5.67-20.12-6.11-29.69-3.66C12.52,53,0,69,0,89.3V206.68l81.68-47.16V63.1Z"/><path class="cls-4" d="M144,5.37a43.15,43.15,0,0,0-42.39.4L21.57,52c-.19.11-.36.24-.55.35a40.81,40.81,0,0,1,40.94.1l20.85,12H83l40.16,23.18,41.5,24,.39-.19,81.29-46.93Z"/><polygon class="cls-5" points="122.88 108.24 98.24 122.47 98.24 136.68 110.56 129.57 110.56 158.2 122.88 165.3 122.88 165.3 122.88 122.46 135.19 115.35 122.88 108.24"/><polygon class="cls-5" points="135.26 129.64 135.26 158.19 147.62 151.05 147.62 122.5 135.26 129.64"/></g></g></svg>