<svg xmlns="http://www.w3.org/2000/svg" xmlns:xlink="http://www.w3.org/1999/xlink" viewBox="0 0 500.97 149.6"><defs><style>.cls-1{fill:#1a1a1a;}.cls-2{fill:url(#未命名的渐变_21);}.cls-3{fill:url(#未命名的渐变_22);}.cls-4{fill:url(#未命名的渐变_29);}.cls-5{fill:url(#未命名的渐变_23);}.cls-6{fill:#172d72;}</style><linearGradient id="未命名的渐变_21" x1="113.38" y1="123.94" x2="113.38" y2="39.62" gradientUnits="userSpaceOnUse"><stop offset="0" stop-color="#f2f2f2"/><stop offset="1" stop-color="#b3b3b3"/></linearGradient><linearGradient id="未命名的渐变_22" x1="18.82" y1="95.9" x2="238.98" y2="212.12" gradientUnits="userSpaceOnUse"><stop offset="0" stop-color="#e30c34"/><stop offset="1"/></linearGradient><linearGradient id="未命名的渐变_29" x1="22.53" y1="99.95" x2="22.53" y2="-23.38" gradientUnits="userSpaceOnUse"><stop offset="0" stop-color="#172d72"/><stop offset="1" stop-color="#0a1633"/></linearGradient><linearGradient id="未命名的渐变_23" x1="-24.97" y1="-26" x2="110.18" y2="53.7" gradientUnits="userSpaceOnUse"><stop offset="0" stop-color="#172d72"/><stop offset="1" stop-color="#00aeef"/></linearGradient></defs><g id="图层_2" data-name="图层 2"><g id="Layer_1" data-name="Layer 1"><path class="cls-1" d="M171.08,110a12.5,12.5,0,0,0,.91,2.44c-5.34,3.84-6.21,4.54-6.74,5.24l0-.11v.11a9.7,9.7,0,0,0-1.61-2.17,4.37,4.37,0,0,0,1.68-3.45v-6.28h-3.35V103h3.35V98.7H163.4V96.19c-.24.35-.48.63-.7.94a15,15,0,0,0-1.57-2.89,21.53,21.53,0,0,0,3.6-8.21l2.72.77a22.26,22.26,0,0,1-.87,2.86h4.88v2.83h-6A26.27,26.27,0,0,1,163.58,96h7.08V98.7h-2.51V103h3.46v2.76h-3.46V112Zm5.93,1.53c.63.32,1.26.84,2.2,1.4,1.71,1,3.84,1.36,6.53,1.36a80.75,80.75,0,0,0,8.1-.45,13.78,13.78,0,0,0-.77,3.28c-1.78.14-5.2.24-7.37.24a12.9,12.9,0,0,1-6.94-1.64c-1.19-.77-2.2-1.64-2.83-1.64-.94,0-2.3,1.92-3.45,3.74l-2.06-3a14.21,14.21,0,0,1,3.66-3V100.55h-2.34v-3H177Zm-2.68-17.06a41.56,41.56,0,0,0-2.41-6.56l2.69-.87a48.92,48.92,0,0,1,2.51,6.42ZM182,100.8a5.07,5.07,0,0,0-2.65.49,21.85,21.85,0,0,0-1-2.83c.59-.17,1.08-1,1.64-2.27.24-.59.77-2,1.33-3.7h-3.32v-2.9h4.16c.31-1.22.62-2.54.83-3.77l3.21.63c-.24,1-.52,2.09-.87,3.14H193v2.9h-8.69a59.9,59.9,0,0,1-2.33,5.58h2.93V94.13h3v3.94h4.47v2.73H187.9v4.08h5.38v2.83H187.9v5.37h-3v-5.37H178v-2.83h6.88V100.8Z"/><path class="cls-1" d="M213.53,104c-1.08.31-2.2.66-3.28,1v9.25c0,1.61-.31,2.44-1.22,3a9.18,9.18,0,0,1-4.33.59,11.85,11.85,0,0,0-.9-3c1.29,0,2.54,0,2.89,0s.6-.14.6-.6V106l-3.6,1.15L203,104c1.18-.28,2.69-.73,4.33-1.18v-7h-3.88v-3h3.88V86h3v6.74h3.21v3h-3.21v6.14l2.83-.87Zm17.84,2.34a14.39,14.39,0,0,1-3.11,5.93,46.92,46.92,0,0,1,6.25,3.32l-2.06,2.47a46.29,46.29,0,0,0-6.7-3.66c-2.69,1.75-6.39,2.8-11.31,3.53a8.08,8.08,0,0,0-1.33-2.73,28.67,28.67,0,0,0,9.36-2.23,71.94,71.94,0,0,0-6.81-2.48c.87-1.15,1.89-2.61,2.83-4.15h-4.82v-2.72h6.42a28.15,28.15,0,0,0,1.68-3.49l3,.63a30.6,30.6,0,0,1-1.36,2.86h12v2.72Zm3.63-6.21H214.16V97.41h5.69a18.63,18.63,0,0,0-2.13-4.19l2.48-1a17.8,17.8,0,0,1,2.37,4.22l-2.23.94h5.34a31.31,31.31,0,0,0,2.58-5.1l3.07.88c-.84,1.43-1.71,3-2.55,4.22H235Zm-.84-8H215.28V89.42H223a27.29,27.29,0,0,0-1.43-2.69l3-.45a29.45,29.45,0,0,1,1.78,3.14h7.78Zm-12.29,14.24c-.59,1-1.18,1.92-1.78,2.79,1.68.53,3.46,1.19,5.17,1.89a11.21,11.21,0,0,0,2.86-4.68Z"/><path class="cls-1" d="M274.76,113.92c0,1.88-.45,2.86-1.71,3.35s-3.31.59-6.53.56a13.13,13.13,0,0,0-1.08-3.14c2.24.1,4.54.07,5.2.07s.87-.21.87-.88v-6.24h-8.44v10h-3.25v-10h-8c-.56,3.84-1.82,7.74-4.37,10.57a10.9,10.9,0,0,0-2.54-2.13c3.8-4.22,4.15-10.4,4.15-15.32V88.34h25.72Zm-14.94-9.35V99.4h-7.57v1.4c0,1.18,0,2.47-.14,3.77Zm-7.57-13.13v4.92h7.57V91.44Zm19.26,0h-8.44v4.92h8.44Zm0,13.13V99.4h-8.44v5.17Z"/><path class="cls-1" d="M315.29,91.23v14.45H312v-2.06H294.46c-.42,5-1.61,10.61-4.78,14.59a12.71,12.71,0,0,0-2.83-1.95c4-5,4.43-12.22,4.43-17.35V91.23h11.17a35.89,35.89,0,0,0-1.74-4.64l3.17-.84a34.33,34.33,0,0,1,2,5l-1.74.52ZM312,100.58V94.27H294.63v4.64c0,.56,0,1.08,0,1.67Z"/><path class="cls-1" d="M375.47,103.66v3.17H344.09v-3.17h7.78V96.12h-6.45V93h6.45V86.24h3.35V93h9V86.24h3.38V93h6.7v3.14h-6.7v7.54Zm-18.61,6.21a39.28,39.28,0,0,1-9.8,8.13,28.42,28.42,0,0,0-2.62-2.27,30.42,30.42,0,0,0,9-7.19Zm-1.64-6.21h9V96.12h-9Zm10.13,4.78a111.83,111.83,0,0,1,9.63,7.64L371.84,118a104.56,104.56,0,0,0-9.36-7.86Z"/><path class="cls-1" d="M396.1,98.14a42.28,42.28,0,0,1-2.89,12.36c3.31,3.1,7.92,3.8,13.43,3.8,1.64,0,9,0,11,0a10.38,10.38,0,0,0-1.19,3h-9.88c-6.17,0-11.06-.81-14.69-4.09a16.4,16.4,0,0,1-4.08,4.71,11.8,11.8,0,0,0-2.34-2.16,14.07,14.07,0,0,0,4.33-5,23.47,23.47,0,0,1-3.07-6.66l2.4-.91a20.4,20.4,0,0,0,2,4.71,35.72,35.72,0,0,0,1.75-7.3h-5.58c1.46-2.54,3.31-6.31,4.81-9.73H386.4V88h10.19c-1.39,3.08-3.14,6.74-4.64,9.74h1.75l.59-.1Zm8.1-6.77h-6.32V88.82h6.32V86.1h3v2.72h7.57v4.65H417V96h-2.16v4.68h-7.57v2.17h8.09v2.44h-8.09v2.34h9.28v2.61h-9.28v3h-3v-3H396v-2.61h8.16V105.3h-6.77v-2.44h6.77v-2.17h-6.52V98.14h6.52V96h-8.41V93.47h8.41Zm3,0v2.1h4.67v-2.1ZM411.91,96h-4.67v2.13h4.67Z"/><path class="cls-1" d="M439,107.53c-.66-1-2-2.55-3.17-3.91V118h-3.14V104.43A29.79,29.79,0,0,1,428.3,108a16.08,16.08,0,0,0-1.37-3.22,27.42,27.42,0,0,0,9.6-10h-8.62V91.86h6.6a23.83,23.83,0,0,0-3.14-4.57l2.51-1.43a20.29,20.29,0,0,1,3.28,4.47l-2.51,1.53h3.59l.56-.14,1.74,1.22a32.07,32.07,0,0,1-4.15,7.33c1.4,1.26,4,3.84,4.68,4.58Zm20.39,6v3.17H439.5v-3.17h8.79V99.72h-7.22V96.61h7.22V86h3.32V96.61h7.05v3.11h-7.05v13.85Z"/><path class="cls-1" d="M501,113.88V117h-29.8V87.67H500.1v3.11H474.34v23.1Zm-6.32-2.06a82.91,82.91,0,0,0-7.19-7.43,52.27,52.27,0,0,1-9.14,7.43,23.75,23.75,0,0,0-2.55-2.44,46.64,46.64,0,0,0,9.39-7.09c-2.76-2.47-5.58-4.91-8.17-7l2.31-1.92c2.48,1.92,5.3,4.26,8,6.63a44,44,0,0,0,5.75-7.82l3,1.22a54.82,54.82,0,0,1-6.42,8.66,86.79,86.79,0,0,1,7.54,7.36Z"/><path class="cls-1" d="M176.67,65.53h-6.28V40.24h-9.26V35h24.46v5.23h-8.92Z"/><path class="cls-1" d="M195.64,40.24h-5.86V35h5.86Zm0,25.29h-5.86V42.92h5.86Z"/><path class="cls-1" d="M201.92,35h11.93c4.69,0,7.58,1,9.63,3.51,2.43,2.89,3.73,7,3.73,11.73s-1.3,8.88-3.73,11.72c-2,2.47-5,3.56-9.63,3.56H201.92ZM213.85,60.3c4.73,0,7.08-3.31,7.08-10s-2.35-10-7.08-10H208.2V60.3Z"/><path class="cls-1" d="M246,65.53H232.23V35h13.61c8,0,10,5.23,10,8,0,2.59-1.17,4.35-4.19,6.28,3.44,2,5.07,4.39,5.07,7.41C256.69,60.38,254.55,65.53,246,65.53Zm-7.45-18.38h6.82c2.89,0,4.44-1.22,4.44-3.43s-1.55-3.48-4.44-3.48h-6.82Zm0,13.15H246c3.06,0,4.65-1.38,4.65-3.94s-1.59-4-4.65-4h-7.49Z"/><path class="cls-1" d="M273.35,55.69V35h6.28V55.69c0,3.69,1.89,5.44,5.82,5.44s5.82-1.75,5.82-5.44V35h6.29V55.69c0,8.63-7,10.8-12.11,10.8S273.35,64.32,273.35,55.69Z"/><path class="cls-1" d="M312.5,61.89c2.73,0,4.36-.84,4.36-2.22,0-.92-.5-1.38-2-1.84l-7-2.18c-1.3-.42-4.94-1.13-4.94-5.57,0-4.65,3.56-7.54,9.29-7.54,6.07,0,9.76,2.89,9.84,7.66h-5.65c0-2.05-1.42-3.05-4.23-3.05-2,0-3.39.84-3.39,2.09,0,.92.42,1.26,2.05,1.76l7.41,2.14c3,.88,4.44,2.76,4.44,5.69,0,3.14-2,7.66-9.88,7.66-6.87,0-10.51-2.59-10.68-7.53h5.74C308.23,60.51,308.82,61.89,312.5,61.89Z"/><path class="cls-1" d="M346.92,55.06c0,.3,0,.5,0,1H331.72c.13,3.06.76,5.94,4.69,5.94a4.53,4.53,0,0,0,4.48-2.84h5.78c-1.3,4.43-5.4,7.32-10.47,7.32-6.4,0-10.34-4.43-10.34-11.68,0-7.58,4-12.27,10.47-12.27C340.85,42.54,346.92,45.06,346.92,55.06Zm-10.67-8c-2.6,0-4.07,1.72-4.44,5.15h9C340.56,48.87,339,47,336.25,47Z"/><path class="cls-1" d="M357.18,42.92v4.44c1.26-3.06,3.6-4.82,6.28-4.82a5.3,5.3,0,0,1,.71,0v6a10.83,10.83,0,0,0-1.84-.17q-5.15,0-5.15,5.15v12h-5.86V42.92Z"/><path class="cls-1" d="M393.15,39.78c-5.32,0-8.54,4-8.54,10.55,0,6.28,3.64,10.72,8.71,10.72,1.55,0,7.2-1,7.74-6.78h-6.95V49h12.23v16.5h-3.77l-.75-4a10.12,10.12,0,0,1-9.21,4.9c-8.25,0-14.28-6.74-14.28-16,0-9.51,6-16,14.78-16,7.37,0,12.48,4,13.23,10.26h-5.9C399.56,42.08,397.51,39.78,393.15,39.78Z"/><path class="cls-1" d="M417.44,42.92v4.44c1.25-3.06,3.6-4.82,6.28-4.82a5.37,5.37,0,0,1,.71,0v6a10.92,10.92,0,0,0-1.84-.17c-3.44,0-5.15,1.72-5.15,5.15v12h-5.87V42.92Z"/><path class="cls-1" d="M449.3,54.69c0,7.24-4.31,11.8-11.18,11.8s-11.18-4.52-11.18-12,4.23-12,11.14-12C445.16,42.54,449.3,47,449.3,54.69Zm-16.5-.17c0,4.31,2.14,7.24,5.32,7.24s5.32-2.93,5.32-7.16c0-4.44-2.09-7.33-5.32-7.33S432.8,50.2,432.8,54.52Z"/><path class="cls-1" d="M468.06,65.53V62.85a7.43,7.43,0,0,1-6.78,3.64c-4.82,0-7.58-2.84-7.58-7.83V42.92h5.86V57.45c0,2.72,1.26,4.06,3.77,4.06,2.85,0,4.73-1.76,4.73-4.44V42.92h5.86V65.53Z"/><path class="cls-1" d="M501,54.56c0,6.87-4,12-9.46,12a6.66,6.66,0,0,1-6.28-3.69V74.66h-5.87V42.92h5.87v3.35a6.7,6.7,0,0,1,6.28-3.73C497.37,42.54,501,47.9,501,54.56Zm-15.74,0c0,4.23,2,7.08,4.94,7.08s4.94-2.89,4.94-7c0-4.31-2-7.2-4.94-7.2S485.23,50.33,485.23,54.56Z"/><path class="cls-2" d="M101.73,121.14a21.28,21.28,0,0,0,16.38,2c10.89-2.8,17.8-11.65,17.8-22.82V35.58l-45.06,26v53.19Z"/><path class="cls-3" d="M56.47,146.64a23.78,23.78,0,0,0,23.38-.22L124,120.92l.3-.19a22.51,22.51,0,0,1-22.58,0l-11.51-6.63h-.11L68,101.26,45.06,88l-.21.1L0,114Z"/><path class="cls-4" d="M34.18,28.46a21.28,21.28,0,0,0-16.38-2C6.91,29.24,0,38.09,0,49.26V114L45.06,88V34.81Z"/><path class="cls-5" d="M79.44,3a23.78,23.78,0,0,0-23.38.22L11.9,28.68l-.3.19a22.51,22.51,0,0,1,22.58.05l11.51,6.63h.11L68,48.35,90.85,61.56l.21-.1,44.85-25.9Z"/><polygon class="cls-6" points="67.79 59.72 54.2 67.56 54.2 75.41 60.99 71.48 60.99 87.28 67.79 91.19 67.79 91.19 67.79 67.56 74.58 63.64 67.79 59.72"/><polygon class="cls-6" points="74.62 71.52 74.62 87.27 81.44 83.33 81.44 67.58 74.62 71.52"/></g></g></svg>