<svg xmlns="http://www.w3.org/2000/svg" xmlns:xlink="http://www.w3.org/1999/xlink" width="154.25" height="51.462" viewBox="0 0 154.25 51.462"><defs><linearGradient id="a" x1="0.5" y1="1" x2="0.5" y2="0.046" gradientUnits="objectBoundingBox"><stop offset="0" stop-color="#f2f2f2"/><stop offset="1" stop-color="#b3b3b3"/></linearGradient><linearGradient id="b" x1="0.151" y1="0.128" x2="1.922" y2="2.016" gradientUnits="objectBoundingBox"><stop offset="0" stop-color="#e30c34"/><stop offset="1"/></linearGradient><linearGradient id="c" x1="0.5" y1="0.841" x2="0.5" y2="-0.555" gradientUnits="objectBoundingBox"><stop offset="0" stop-color="#172d72"/><stop offset="1" stop-color="#0a1633"/></linearGradient><linearGradient id="d" x1="-0.294" y1="-0.422" x2="0.793" y2="0.872" gradientUnits="objectBoundingBox"><stop offset="0" stop-color="#172d72"/><stop offset="1" stop-color="#00aeef"/></linearGradient></defs><g transform="translate(-407.097 -1235.502)"><g transform="translate(461.455 1249.238)"><g transform="translate(0 16.046)"><path d="M627.234,1359.6a2.2,2.2,0,0,0,.166.448,7,7,0,0,0-1.235.96l-.006-.019v.019a1.761,1.761,0,0,0-.294-.4.807.807,0,0,0,.307-.633v-1.152h-.615v-.505h.615v-.794h-.346v-.461c-.045.064-.089.116-.128.173a2.9,2.9,0,0,0-.288-.531,3.95,3.95,0,0,0,.659-1.5l.5.14a4.068,4.068,0,0,1-.16.525h.9v.519h-1.1a4.891,4.891,0,0,1-.346.633h1.3v.506H626.7v.794h.634v.505H626.7v1.133Zm1.088.281c.115.058.23.154.4.256a2.244,2.244,0,0,0,1.2.25,14.825,14.825,0,0,0,1.485-.083,2.635,2.635,0,0,0-.141.6c-.327.026-.954.045-1.35.045a2.372,2.372,0,0,1-1.274-.3c-.218-.141-.4-.3-.518-.3-.173,0-.423.351-.634.685l-.377-.55a2.585,2.585,0,0,1,.672-.557v-2.061h-.429v-.544h.967Zm-.493-3.129a7.566,7.566,0,0,0-.442-1.2l.493-.16a8.886,8.886,0,0,1,.461,1.177Zm1.4,1.159a.953.953,0,0,0-.487.09,3.72,3.72,0,0,0-.192-.519c.109-.032.2-.192.3-.416.045-.109.141-.358.243-.678h-.608v-.532h.762c.058-.223.115-.467.153-.691l.589.115c-.045.186-.1.384-.16.576h1.414v.532h-1.594c-.134.371-.282.716-.429,1.024h.538v-.723h.557v.723h.819v.5h-.819v.749h.985v.518h-.985v.986h-.557v-.986H628.5v-.518h1.261v-.749Z" transform="translate(-625.41 -1355.151)" fill="#1a1a1a"/><path d="M658.152,1358.62c-.2.057-.4.121-.6.185v1.7c0,.295-.058.448-.224.544a1.694,1.694,0,0,1-.794.109,2.137,2.137,0,0,0-.167-.55c.237.006.467.006.531.006s.109-.026.109-.109v-1.529l-.659.211-.134-.576c.217-.051.493-.134.794-.217V1357.1h-.71v-.55h.71v-1.235h.544v1.235h.589v.55h-.589v1.126l.518-.159Zm3.27.428a2.633,2.633,0,0,1-.569,1.088,8.441,8.441,0,0,1,1.146.608l-.377.454a8.278,8.278,0,0,0-1.229-.671,5.242,5.242,0,0,1-2.074.646,1.511,1.511,0,0,0-.243-.5,5.3,5.3,0,0,0,1.715-.41,13.033,13.033,0,0,0-1.248-.455c.16-.211.346-.479.518-.762h-.883v-.5h1.177a5.2,5.2,0,0,0,.308-.64l.55.116a5.512,5.512,0,0,1-.249.524h2.2v.5Zm.666-1.139h-3.821v-.505h1.043a3.342,3.342,0,0,0-.39-.768l.454-.179a3.3,3.3,0,0,1,.435.774l-.41.173h.979a5.814,5.814,0,0,0,.474-.935l.563.161c-.154.262-.313.55-.467.774h1.139Zm-.154-1.471h-3.462v-.5h1.414a5.046,5.046,0,0,0-.262-.493l.557-.083a5.041,5.041,0,0,1,.326.576h1.427Zm-2.253,2.611c-.109.186-.218.353-.327.512.308.1.634.218.947.346a2.051,2.051,0,0,0,.525-.858Z" transform="translate(-648.543 -1355.266)" fill="#1a1a1a"/><path d="M692.571,1361.706c0,.345-.083.525-.314.615a3.512,3.512,0,0,1-1.2.1,2.438,2.438,0,0,0-.2-.576c.41.019.832.013.954.013s.16-.038.16-.16v-1.145h-1.549v1.83h-.6v-1.83h-1.472a3.675,3.675,0,0,1-.8,1.939,1.964,1.964,0,0,0-.467-.391,4.129,4.129,0,0,0,.762-2.81v-2.278h4.717Zm-2.739-1.715v-.947h-1.389v.256c0,.218-.006.454-.025.691Zm-1.389-2.406v.9h1.389v-.9Zm3.533,0h-1.549v.9h1.549Zm0,2.406v-.947h-1.549v.947Z" transform="translate(-671.734 -1356.541)" fill="#1a1a1a"/><path d="M723.215,1356.116v2.649h-.608v-.377h-3.213a5.03,5.03,0,0,1-.877,2.676,2.264,2.264,0,0,0-.518-.359,5.124,5.124,0,0,0,.813-3.181v-1.408h2.048a6.343,6.343,0,0,0-.32-.851l.582-.154a6.345,6.345,0,0,1,.371.909l-.32.1Zm-.608,1.715v-1.158h-3.181v.851c0,.1,0,.2-.006.307Z" transform="translate(-694.945 -1355.111)" fill="#1a1a1a"/><path d="M765.909,1358.665v.583h-5.753v-.583h1.427v-1.382H760.4v-.576h1.184v-1.235h.615v1.235h1.651v-1.235h.621v1.235H765.7v.576H764.47v1.382ZM762.5,1359.8a7.227,7.227,0,0,1-1.8,1.492,4.953,4.953,0,0,0-.48-.416,5.6,5.6,0,0,0,1.651-1.318Zm-.3-1.139h1.651v-1.382H762.2Zm1.856.877a20.327,20.327,0,0,1,1.766,1.4l-.576.346a19.336,19.336,0,0,0-1.715-1.44Z" transform="translate(-726.605 -1355.382)" fill="#1a1a1a"/><path d="M792.576,1357.576a7.77,7.77,0,0,1-.531,2.266,3.431,3.431,0,0,0,2.464.7c.3,0,1.645,0,2.016-.006a1.94,1.94,0,0,0-.218.545H794.5a3.81,3.81,0,0,1-2.694-.749,3.006,3.006,0,0,1-.749.864,2.148,2.148,0,0,0-.429-.4,2.574,2.574,0,0,0,.794-.909,4.35,4.35,0,0,1-.563-1.222l.441-.167a3.737,3.737,0,0,0,.365.864,6.506,6.506,0,0,0,.32-1.338h-1.024c.269-.467.608-1.158.883-1.785H790.8v-.518h1.869c-.256.563-.576,1.235-.851,1.785h.32l.109-.019Zm1.485-1.242H792.9v-.467h1.159v-.5h.557v.5h1.389v.851h.4v.467h-.4v.858h-1.389v.4H796.1v.448h-1.485v.429h1.7v.48h-1.7v.544h-.557v-.544h-1.5v-.48h1.5v-.429h-1.242v-.448h1.242v-.4h-1.2v-.468h1.2v-.39h-1.543v-.467h1.543Zm.557,0v.384h.857v-.384Zm.857.851h-.857v.39h.857Z" transform="translate(-749.487 -1355.304)" fill="#1a1a1a"/><path d="M823.391,1359.163c-.122-.179-.365-.467-.582-.717v2.631h-.576v-2.483a5.277,5.277,0,0,1-.813.653,2.893,2.893,0,0,0-.25-.589,5.048,5.048,0,0,0,1.76-1.831h-1.581v-.537h1.21a4.247,4.247,0,0,0-.576-.838l.461-.263a3.764,3.764,0,0,1,.6.819l-.461.282h.659l.1-.026.32.224a5.938,5.938,0,0,1-.762,1.344c.256.23.73.7.858.839Zm3.738,1.107v.582h-3.654v-.582h1.613v-2.54h-1.325v-.57h1.325v-1.946h.608v1.946h1.293v.57h-1.293v2.54Z" transform="translate(-772.427 -1355.17)" fill="#1a1a1a"/><path d="M859.213,1361.333v.57h-5.466v-5.376h5.305v.569h-4.723v4.237Zm-1.159-.377a15.516,15.516,0,0,0-1.318-1.363,9.613,9.613,0,0,1-1.677,1.363,4.421,4.421,0,0,0-.467-.448,8.631,8.631,0,0,0,1.721-1.3c-.506-.454-1.024-.9-1.5-1.28l.423-.352c.454.352.973.781,1.472,1.216a8.051,8.051,0,0,0,1.056-1.434l.557.224a10.106,10.106,0,0,1-1.178,1.588,15.639,15.639,0,0,1,1.382,1.35Z" transform="translate(-796.893 -1356.174)" fill="#1a1a1a"/></g><g transform="translate(0)"><path d="M629.977,1300.333H628.13V1292.9h-2.72v-1.538H632.6v1.538h-2.622Z" transform="translate(-625.41 -1291.188)" fill="#1a1a1a"/><path d="M660.945,1292.9h-1.723v-1.538h1.723Zm0,7.434h-1.723v-6.646h1.723Z" transform="translate(-650.803 -1291.188)" fill="#1a1a1a"/><path d="M673.557,1291.361h3.508a3.332,3.332,0,0,1,2.831,1.033,5.97,5.97,0,0,1,0,6.893,3.349,3.349,0,0,1-2.831,1.046h-3.508Zm3.508,7.434c1.391,0,2.08-.972,2.08-2.941s-.689-2.954-2.08-2.954H675.4v5.9Z" transform="translate(-661.569 -1291.188)" fill="#1a1a1a"/><path d="M713.382,1300.333h-4.037v-8.972h4c2.363,0,2.929,1.538,2.929,2.363a2.078,2.078,0,0,1-1.231,1.846,2.492,2.492,0,0,1,1.49,2.178C716.533,1298.82,715.905,1300.333,713.382,1300.333Zm-2.191-5.4H713.2c.849,0,1.3-.357,1.3-1.009s-.456-1.022-1.3-1.022h-2.006Zm0,3.865h2.2c.9,0,1.366-.406,1.366-1.157s-.468-1.169-1.366-1.169h-2.2Z" transform="translate(-688.446 -1291.188)" fill="#1a1a1a"/><path d="M757.887,1297.441v-6.08h1.846v6.08c0,1.083.554,1.6,1.711,1.6s1.711-.517,1.711-1.6v-6.08H765v6.08c0,2.536-2.043,3.176-3.557,3.176S757.887,1299.977,757.887,1297.441Z" transform="translate(-724.901 -1291.188)" fill="#1a1a1a"/><path d="M794.935,1305.945c.8,0,1.28-.246,1.28-.652,0-.271-.148-.406-.578-.541l-2.055-.64a1.641,1.641,0,0,1-1.452-1.637c0-1.366,1.046-2.215,2.732-2.215,1.784,0,2.868.849,2.892,2.252h-1.661c-.012-.6-.419-.9-1.243-.9-.6,0-1,.246-1,.615,0,.271.123.369.6.517l2.179.628a1.614,1.614,0,0,1,1.3,1.674c0,.923-.578,2.253-2.9,2.253-2.019,0-3.089-.764-3.139-2.215h1.686C793.68,1305.539,793.852,1305.945,794.935,1305.945Z" transform="translate(-750.442 -1297.87)" fill="#1a1a1a"/><path d="M826.063,1303.939a2.885,2.885,0,0,1-.012.295H821.6c.037.9.222,1.748,1.378,1.748a1.334,1.334,0,0,0,1.317-.837h1.7a3.077,3.077,0,0,1-3.077,2.154c-1.883,0-3.04-1.3-3.04-3.434,0-2.228,1.169-3.606,3.077-3.606C824.279,1300.259,826.063,1301,826.063,1303.939Zm-3.139-2.363c-.763,0-1.194.5-1.3,1.514h2.646C824.193,1302.117,823.725,1301.576,822.925,1301.576Z" transform="translate(-771.453 -1297.87)" fill="#1a1a1a"/><path d="M851.65,1300.37v1.3a2.038,2.038,0,0,1,1.846-1.415,1.555,1.555,0,0,1,.209.012v1.748a3.074,3.074,0,0,0-.542-.049,1.338,1.338,0,0,0-1.514,1.514v3.533h-1.723v-6.646Z" transform="translate(-794.024 -1297.87)" fill="#1a1a1a"/><path d="M886.168,1292.242c-1.563,0-2.511,1.169-2.511,3.1,0,1.846,1.071,3.151,2.56,3.151a2.273,2.273,0,0,0,2.277-1.994h-2.043v-1.538h3.594v4.849h-1.108l-.222-1.181a2.977,2.977,0,0,1-2.708,1.44c-2.425,0-4.2-1.982-4.2-4.7,0-2.794,1.76-4.7,4.345-4.7,2.166,0,3.668,1.17,3.89,3.016h-1.736A2.049,2.049,0,0,0,886.168,1292.242Z" transform="translate(-817.969 -1290.666)" fill="#1a1a1a"/><path d="M922.782,1300.37v1.3a2.039,2.039,0,0,1,1.846-1.415,1.552,1.552,0,0,1,.209.012v1.748a3.069,3.069,0,0,0-.542-.049,1.338,1.338,0,0,0-1.514,1.514v3.533h-1.723v-6.646Z" transform="translate(-847.445 -1297.87)" fill="#1a1a1a"/><path d="M945.773,1303.828a3.148,3.148,0,0,1-3.286,3.471c-2.043,0-3.286-1.33-3.286-3.52s1.243-3.52,3.274-3.52C944.554,1300.259,945.773,1301.576,945.773,1303.828Zm-4.849-.049c0,1.268.628,2.129,1.563,2.129s1.563-.862,1.563-2.105c0-1.3-.615-2.153-1.563-2.153S940.923,1302.511,940.923,1303.779Z" transform="translate(-861.069 -1297.87)" fill="#1a1a1a"/><path d="M975.009,1307.349v-.788a2.184,2.184,0,0,1-1.994,1.071,2.062,2.062,0,0,1-2.228-2.3V1300.7h1.723v4.271c0,.8.369,1.194,1.108,1.194a1.271,1.271,0,0,0,1.391-1.3V1300.7h1.723v6.646Z" transform="translate(-884.791 -1298.204)" fill="#1a1a1a"/><path d="M1007.439,1303.791c0,2.019-1.182,3.52-2.782,3.52a1.959,1.959,0,0,1-1.846-1.083v3.471h-1.723v-9.329h1.723v.984a1.969,1.969,0,0,1,1.846-1.095C1006.381,1300.259,1007.439,1301.834,1007.439,1303.791Zm-4.628,0c0,1.243.591,2.08,1.452,2.08s1.452-.85,1.452-2.056c0-1.268-.578-2.117-1.452-2.117S1002.811,1302.548,1002.811,1303.791Z" transform="translate(-907.547 -1297.87)" fill="#1a1a1a"/></g></g><g transform="translate(407.097 1235.502)"><path d="M536.35,1314.09a7.315,7.315,0,0,0,5.634.7,7.876,7.876,0,0,0,6.124-7.851v-22.276l-15.5,8.95v18.3Z" transform="translate(-501.356 -1272.419)" fill="url(#a)"/><path d="M426.522,1377.288a8.184,8.184,0,0,0,8.044-.076l15.19-8.77c.036-.021.069-.045.1-.067a7.742,7.742,0,0,1-7.769-.018l-3.957-2.28h-.04l-7.621-4.4-7.875-4.547-.074.037-15.427,8.906Z" transform="translate(-407.097 -1326.846)" fill="url(#b)"/><path d="M418.855,1271.918a7.315,7.315,0,0,0-5.634-.695,7.875,7.875,0,0,0-6.124,7.851v22.275l15.5-8.949v-18.3Z" transform="translate(-407.097 -1262.127)" fill="url(#c)"/><path d="M446.454,1236.521a8.184,8.184,0,0,0-8.044.076l-15.19,8.77c-.036.021-.069.046-.1.067a7.743,7.743,0,0,1,7.769.018l3.957,2.279.04,0,7.621,4.4,7.875,4.547.074-.036,15.427-8.906Z" transform="translate(-419.127 -1235.502)" fill="url(#d)"/><g transform="translate(18.644 20.542)"><path d="M486.648,1318l-4.675,2.7v2.7l2.338-1.35v5.433l2.337,1.347h0v-8.13l2.337-1.349Z" transform="translate(-481.973 -1318.001)" fill="#172d72"/><path d="M510.186,1330.222v5.416l2.346-1.355v-5.418Z" transform="translate(-503.161 -1326.161)" fill="#172d72"/></g></g></g></svg>