<svg xmlns="http://www.w3.org/2000/svg" xmlns:xlink="http://www.w3.org/1999/xlink" viewBox="0 0 645.97 206.68"><defs><style>.cls-1{fill:#1a1a1a;}.cls-2{fill:url(#未命名的渐变_21);}.cls-3{fill:url(#未命名的渐变_22);}.cls-4{fill:url(#未命名的渐变_29);}.cls-5{fill:url(#未命名的渐变_23);}.cls-6{fill:#172d72;}</style><linearGradient id="未命名的渐变_21" x1="156.64" y1="171.23" x2="156.64" y2="54.73" gradientUnits="userSpaceOnUse"><stop offset="0" stop-color="#f2f2f2"/><stop offset="1" stop-color="#b3b3b3"/></linearGradient><linearGradient id="未命名的渐变_22" x1="26" y1="132.49" x2="330.15" y2="293.06" gradientUnits="userSpaceOnUse"><stop offset="0" stop-color="#e30c34"/><stop offset="1"/></linearGradient><linearGradient id="未命名的渐变_29" x1="31.13" y1="138.09" x2="31.13" y2="-32.3" gradientUnits="userSpaceOnUse"><stop offset="0" stop-color="#172d72"/><stop offset="1" stop-color="#0a1633"/></linearGradient><linearGradient id="未命名的渐变_23" x1="-34.5" y1="-35.92" x2="152.21" y2="74.18" gradientUnits="userSpaceOnUse"><stop offset="0" stop-color="#172d72"/><stop offset="1" stop-color="#00aeef"/></linearGradient></defs><g id="图层_2" data-name="图层 2"><g id="Layer_1" data-name="Layer 1"><path class="cls-1" d="M236.76,88.24h-7.93V56.33H217.15V49.72H248v6.61H236.76Z"/><path class="cls-1" d="M260.69,56.33h-7.4V49.72h7.4Zm0,31.91h-7.4V59.71h7.4Z"/><path class="cls-1" d="M268.62,49.72h15.06c5.91,0,9.56,1.32,12.15,4.44,3.06,3.64,4.7,8.88,4.7,14.79s-1.64,11.21-4.7,14.8c-2.59,3.12-6.29,4.49-12.15,4.49H268.62Zm15.06,31.91c6,0,8.93-4.17,8.93-12.62s-3-12.68-8.93-12.68h-7.14v25.3Z"/><path class="cls-1" d="M324.2,88.24H306.87V49.72H324c10.15,0,12.58,6.61,12.58,10.15,0,3.27-1.48,5.49-5.29,7.92,4.34,2.54,6.4,5.55,6.4,9.35C337.73,81.74,335,88.24,324.2,88.24ZM314.8,65h8.61c3.64,0,5.6-1.53,5.6-4.33s-2-4.38-5.6-4.38H314.8Zm0,16.59h9.45c3.86,0,5.87-1.74,5.87-5s-2-5-5.87-5H314.8Z"/><path class="cls-1" d="M358.75,75.82V49.72h7.93v26.1c0,4.65,2.38,6.87,7.34,6.87s7.35-2.22,7.35-6.87V49.72h7.92v26.1c0,10.89-8.77,13.63-15.27,13.63S358.75,86.71,358.75,75.82Z"/><path class="cls-1" d="M408.16,83.64c3.43,0,5.49-1,5.49-2.8,0-1.16-.63-1.74-2.48-2.32l-8.82-2.75c-1.64-.53-6.24-1.43-6.24-7,0-5.86,4.49-9.51,11.73-9.51,7.66,0,12.31,3.65,12.42,9.67h-7.14c-.05-2.59-1.79-3.86-5.33-3.86-2.59,0-4.28,1.06-4.28,2.64,0,1.17.53,1.59,2.59,2.22l9.35,2.7c3.75,1.11,5.6,3.49,5.6,7.18,0,4-2.48,9.67-12.47,9.67-8.67,0-13.26-3.27-13.47-9.51h7.24C402.77,81.9,403.51,83.64,408.16,83.64Z"/><path class="cls-1" d="M451.59,75a11.13,11.13,0,0,1-.06,1.27H432.41c.16,3.86.95,7.5,5.92,7.5A5.73,5.73,0,0,0,444,80.21h7.29c-1.64,5.6-6.81,9.24-13.21,9.24C430,89.45,425,83.85,425,74.71c0-9.56,5-15.48,13.21-15.48C443.93,59.23,451.59,62.4,451.59,75ZM438.11,64.89c-3.27,0-5.12,2.16-5.6,6.49h11.36C443.56,67.21,441.55,64.89,438.11,64.89Z"/><path class="cls-1" d="M464.53,59.71v5.6c1.59-3.86,4.55-6.08,7.93-6.08a6.94,6.94,0,0,1,.9.05v7.51a13,13,0,0,0-2.33-.21q-6.5,0-6.5,6.49V88.24h-7.39V59.71Z"/><path class="cls-1" d="M509.92,55.74c-6.71,0-10.78,5-10.78,13.32,0,7.92,4.6,13.53,11,13.53,2,0,9.09-1.27,9.78-8.56h-8.78V67.42h15.43V88.24h-4.75l-.95-5.07c-3,4.33-6.45,6.18-11.63,6.18-10.41,0-18-8.51-18-20.18,0-12,7.56-20.19,18.65-20.19,9.3,0,15.75,5,16.7,12.94h-7.45C518,58.65,515.41,55.74,509.92,55.74Z"/><path class="cls-1" d="M540.56,59.71v5.6c1.59-3.86,4.55-6.08,7.93-6.08a6.94,6.94,0,0,1,.9.05v7.51a12.94,12.94,0,0,0-2.33-.21q-6.49,0-6.5,6.49V88.24h-7.39V59.71Z"/><path class="cls-1" d="M580.77,74.55c0,9.15-5.44,14.9-14.11,14.9s-14.1-5.7-14.1-15.11,5.33-15.11,14.05-15.11C575.54,59.23,580.77,64.89,580.77,74.55ZM560,74.34c0,5.44,2.7,9.14,6.71,9.14s6.71-3.7,6.71-9c0-5.6-2.64-9.25-6.71-9.25S560,68.9,560,74.34Z"/><path class="cls-1" d="M604.44,88.24V84.86a9.36,9.36,0,0,1-8.56,4.59c-6.07,0-9.56-3.59-9.56-9.88V59.71h7.4V78c0,3.44,1.58,5.13,4.75,5.13,3.59,0,6-2.22,6-5.6V59.71h7.4V88.24Z"/><path class="cls-1" d="M646,74.4c0,8.66-5.07,15.11-11.94,15.11a8.42,8.42,0,0,1-7.93-4.65v14.9h-7.39V59.71h7.39v4.22a8.46,8.46,0,0,1,7.93-4.7C641.43,59.23,646,66,646,74.4Zm-19.87,0c0,5.33,2.54,8.93,6.24,8.93s6.23-3.65,6.23-8.83c0-5.44-2.48-9.09-6.23-9.09S626.1,69.06,626.1,74.4Z"/><path class="cls-2" d="M140.54,167.36a29.4,29.4,0,0,0,22.63,2.79c15.05-3.87,24.6-16.09,24.6-31.53V49.16L125.51,85.1v73.49Z"/><path class="cls-3" d="M78,202.59a32.85,32.85,0,0,0,32.3-.31l61-35.22.42-.27a31.1,31.1,0,0,1-31.21-.07l-15.89-9.16h-.16L93.88,139.89,62.25,121.63l-.29.15L0,157.55Z"/><path class="cls-4" d="M47.22,39.32C39.82,35,31.89,34.66,24.6,36.53,9.54,40.4,0,52.62,0,68.06v89.46l62.25-35.94V48.09Z"/><path class="cls-5" d="M109.75,4.09a32.86,32.86,0,0,0-32.31.31l-61,35.22c-.15.08-.28.18-.42.27a31.08,31.08,0,0,1,31.2.07l15.9,9.16h.16l30.6,17.67,31.63,18.26.3-.15,62-35.77Z"/><polygon class="cls-6" points="93.65 82.5 74.88 93.34 74.88 104.17 84.27 98.75 84.27 120.58 93.65 125.99 93.65 125.99 93.65 93.33 103.04 87.92 93.65 82.5"/><polygon class="cls-6" points="103.09 98.81 103.09 120.56 112.51 115.12 112.51 93.36 103.09 98.81"/><path d="M227.51,150c.72.44,1.56,1.12,2.76,1.88,2.64,1.64,6.24,1.92,10.84,1.92a125.17,125.17,0,0,0,15-.92,17.45,17.45,0,0,0-1.16,4.16c-2.8.2-9.84.44-13.92.44-5.2,0-8.52-.44-11.48-2.2-1.68-1-3.08-2.44-4-2.44-1.2,0-2.92,2.64-4.56,5.24l-2.72-3.64a17.22,17.22,0,0,1,5.68-4.8V137.94H219V134.5h8.48Zm-1.64-19.32a45.2,45.2,0,0,0-5.4-7.27l2.84-1.84a47.58,47.58,0,0,1,5.6,7Zm15.92,15.56H229.87v-3.52h11.92v-4.56H236c-1.84,0-3.36.2-3.68.6a27.34,27.34,0,0,0-1.28-3.52c.8-.2,1.44-1.16,2.2-2.56a33.19,33.19,0,0,0,2-4.28h-5v-3.19h6.24c.44-1.32.92-2.72,1.28-4.08l3.88,1.08-1.08,3h13.56v3.19H239.19a62,62,0,0,1-3.12,6.32h5.72v-4.52h3.84v4.52h7.28v3.44h-7.28v4.56h9v3.52h-9v6.56h-3.84Z"/><path d="M280.51,141.9c-1.24.36-2.52.76-3.76,1.16v10.6c0,1.84-.36,2.8-1.4,3.4s-2.6.72-5,.68a13.43,13.43,0,0,0-1-3.44c1.48,0,2.92,0,3.32,0s.68-.16.68-.68V144.1l-4.12,1.32-.84-3.6c1.36-.32,3.08-.84,5-1.36v-8h-4.44V129h4.44v-7.71h3.4V129h3.68v3.44h-3.68v7l3.24-1ZM301,144.58a16.45,16.45,0,0,1-3.56,6.8,52.55,52.55,0,0,1,7.16,3.8L302.19,158a51.75,51.75,0,0,0-7.68-4.2c-3.08,2-7.32,3.2-13,4a9.46,9.46,0,0,0-1.52-3.12,33.15,33.15,0,0,0,10.72-2.56,81,81,0,0,0-7.8-2.84c1-1.32,2.16-3,3.24-4.76h-5.52v-3.12H288a32.72,32.72,0,0,0,1.92-4l3.44.72a34.55,34.55,0,0,1-1.56,3.28h13.72v3.12Zm4.16-7.12H281.23V134.3h6.52a20.92,20.92,0,0,0-2.44-4.8l2.84-1.12a20.61,20.61,0,0,1,2.72,4.84l-2.56,1.08h6.12a36.43,36.43,0,0,0,3-5.84l3.52,1c-1,1.64-2,3.44-2.92,4.84h7.12Zm-1-9.2H282.51v-3.11h8.84a32,32,0,0,0-1.64-3.08l3.48-.52a32,32,0,0,1,2,3.6h8.92Zm-14.08,16.32c-.68,1.16-1.36,2.2-2,3.2,1.92.6,4,1.36,5.92,2.16a12.78,12.78,0,0,0,3.28-5.36Z"/><path d="M352.71,153.22c0,2.16-.52,3.28-2,3.84s-3.8.68-7.48.64a15.37,15.37,0,0,0-1.24-3.6c2.56.12,5.2.08,6,.08s1-.24,1-1V146h-9.68v11.44h-3.72V146h-9.2c-.64,4.4-2.08,8.88-5,12.12a12.31,12.31,0,0,0-2.92-2.44c4.36-4.84,4.76-11.92,4.76-17.56V123.91h29.48ZM335.59,142.5v-5.92h-8.68v1.6c0,1.36,0,2.84-.16,4.32Zm-8.68-15v5.64h8.68v-5.64Zm22.08,0h-9.68v5.64H349Zm0,15v-5.92h-9.68v5.92Z"/><path d="M401.19,127.22v16.56h-3.8v-2.36H377.31c-.48,5.68-1.84,12.16-5.48,16.72a14.17,14.17,0,0,0-3.24-2.24c4.6-5.72,5.08-14,5.08-19.88v-8.8h12.8a40.11,40.11,0,0,0-2-5.31l3.64-1a39.61,39.61,0,0,1,2.32,5.68l-2,.59Zm-3.8,10.72V130.7H377.51V136c0,.64,0,1.24,0,1.92Z"/><path d="M493.19,141.46v3.64h-36v-3.64h8.92v-8.64h-7.4v-3.6h7.4v-7.71H470v7.71h10.32v-7.71h3.88v7.71h7.68v3.6h-7.68v8.64Zm-21.32,7.12a45.21,45.21,0,0,1-11.24,9.32,31.07,31.07,0,0,0-3-2.6A35,35,0,0,0,468,147.06ZM470,141.46h10.32v-8.64H470Zm11.6,5.48a126.85,126.85,0,0,1,11,8.76l-3.6,2.16a121,121,0,0,0-10.72-9Z"/><path d="M518.87,135.14a48.53,48.53,0,0,1-3.32,14.16c3.8,3.56,9.08,4.36,15.4,4.36,1.88,0,10.28,0,12.6,0a12.1,12.1,0,0,0-1.36,3.4H530.87c-7.08,0-12.68-.92-16.84-4.68a18.8,18.8,0,0,1-4.68,5.4,13.25,13.25,0,0,0-2.68-2.48,16.1,16.1,0,0,0,5-5.68,27.18,27.18,0,0,1-3.52-7.64l2.76-1a23.33,23.33,0,0,0,2.28,5.4,40.72,40.72,0,0,0,2-8.36h-6.4c1.68-2.92,3.8-7.24,5.52-11.15h-6.52v-3.24h11.68c-1.6,3.51-3.6,7.71-5.32,11.15h2l.68-.12Zm9.28-7.76h-7.24v-2.92h7.24v-3.11h3.48v3.11h8.68v5.32h2.48v2.92h-2.48v5.36h-8.68v2.48h9.28v2.8h-9.28V146h10.64v3H531.63v3.4h-3.48V149h-9.36v-3h9.36v-2.68h-7.76v-2.8h7.76v-2.48h-7.48v-2.92h7.48V132.7h-9.64v-2.92h9.64Zm3.48,0v2.4H537v-2.4ZM537,132.7h-5.36v2.44H537Z"/><path d="M570.11,145.9c-.76-1.12-2.28-2.92-3.64-4.48v16.44h-3.6V142.34a32.92,32.92,0,0,1-5.08,4.08,18.18,18.18,0,0,0-1.56-3.68,31.51,31.51,0,0,0,11-11.44h-9.88v-3.36h7.56a26.67,26.67,0,0,0-3.6-5.23l2.88-1.64a23.65,23.65,0,0,1,3.76,5.11l-2.88,1.76h4.12l.64-.15,2,1.39a37.2,37.2,0,0,1-4.76,8.4c1.6,1.44,4.56,4.4,5.36,5.24Zm23.36,6.92v3.64H570.63v-3.64h10.08V136.94h-8.28v-3.56h8.28V121.23h3.8v12.15h8.08v3.56h-8.08v15.88Z"/><path d="M643.11,153.18v3.56H609V123.15h33.16v3.56H612.59v26.47Zm-7.24-2.36a96.9,96.9,0,0,0-8.24-8.52,60.08,60.08,0,0,1-10.48,8.52,27.84,27.84,0,0,0-2.92-2.8A53.94,53.94,0,0,0,625,139.9c-3.16-2.84-6.4-5.64-9.36-8l2.64-2.2c2.84,2.2,6.08,4.88,9.2,7.6a50.16,50.16,0,0,0,6.6-9l3.48,1.4a63.07,63.07,0,0,1-7.36,9.92,98.06,98.06,0,0,1,8.64,8.44Z"/></g></g></svg>