<svg xmlns="http://www.w3.org/2000/svg" fill-rule="evenodd" clip-rule="evenodd" viewBox="0 0 24 24"><path d="M12 0C5.374 0 0 5.372 0 12c0 6.627 5.374 12 12 12 6.627 0 12-5.373 12-12 0-6.628-5.373-12-12-12zm5.543 16.389c.889-.644 1.457-1.597 1.457-2.656 0-1.94-1.888-3.514-4.217-3.514-2.329 0-4.217 1.574-4.217 3.514 0 1.941 1.888 3.514 4.217 3.514a4.99 4.99 0 0 0 1.377-.192l.124-.019c.081 0 .154.025.224.065l.923.533.081.026a.14.14 0 0 0 .14-.14l-.022-.103-.19-.709-.015-.09c0-.094.047-.178.118-.229zM10.06 6.34C7.266 6.34 5 8.228 5 10.557c0 1.27.682 2.414 1.748 3.187a.336.336 0 0 1 .142.275l-.018.107-.228.851-.027.123a.17.17 0 0 0 .169.169l.097-.032 1.108-.639a.532.532 0 0 1 .269-.078l.149.022a5.965 5.965 0 0 0 1.651.231l.278-.006a3.248 3.248 0 0 1-.17-1.034c0-2.123 2.066-3.845 4.615-3.845l.275.007C14.677 7.88 12.585 6.34 10.06 6.34zm3.317 6.831a.562.562 0 1 1 .001-1.125.562.562 0 0 1-.001 1.125zm2.812 0a.562.562 0 1 1 0-1.124.562.562 0 0 1 0 1.124zM8.374 9.882a.675.675 0 1 1 0-1.35.675.675 0 0 1 0 1.35zm3.373 0a.675.675 0 1 1 0-1.35.675.675 0 0 1 0 1.35z"/></svg>