<svg xmlns="http://www.w3.org/2000/svg" width="40.884" height="40.884"><defs><clipPath id="a"><circle data-name="椭圆 1189" cx="17" cy="17" r="17" transform="translate(1365 1617)" fill="#fff" stroke="#707070"/></clipPath></defs><g data-name="组 4526"><path data-name="路径 13715" d="M20.443 1.699A18.743 18.743 0 111.698 20.442 18.765 18.765 0 0120.443 1.699m0-1.7a20.442 20.442 0 1020.441 20.442A20.442 20.442 0 0020.443-.001z" fill="#4c5470"/><g data-name="蒙版组 120" transform="translate(-1362 -1616)" clip-path="url(#a)"><g data-name="组 4429"><path data-name="路径 13716" d="M1374.261 1625h.219a5.888 5.888 0 013.283 2.621 3.315 3.315 0 011.594-.655 17.651 17.651 0 014.745-.12 4.5 4.5 0 012.421.759.85.85 0 00.078-.084 5.9 5.9 0 013.155-2.521h.274a1.448 1.448 0 00.041.183 5.552 5.552 0 01.021 4.061.345.345 0 00.094.289 4.543 4.543 0 011.273 2.375 14.642 14.642 0 01.252 4.625 6.065 6.065 0 01-2.509 4.376 8.3 8.3 0 01-3.153 1.39c-.4.092-.814.156-1.224.233a5.042 5.042 0 01.821 2.806c.008 1.879 0 3.759 0 5.638v.289h-7.009v-3.444c-.545.045-1.062.121-1.578.125a4.62 4.62 0 01-4.394-2.49 8.511 8.511 0 00-2.517-3.376c-.077-.051-.1-.179-.153-.271a.92.92 0 01.3-.152 2.679 2.679 0 012.164.636 5.261 5.261 0 01.919 1.107 4.156 4.156 0 005.012 1.856.333.333 0 00.272-.337 4.389 4.389 0 01.825-2.39c-.114-.022-.208-.044-.3-.057a9.585 9.585 0 01-2.6-.714 6.3 6.3 0 01-4.029-5.5 15.959 15.959 0 01.146-3.656 5.038 5.038 0 011.467-3.131.326.326 0 00.02-.282 5.057 5.057 0 01-.259-2.9c.088-.436.22-.859.329-1.289z" fill="#4c5470"/></g></g></g></svg>
