<svg xmlns="http://www.w3.org/2000/svg" viewBox="0 0 40.884 40.884"><defs><clipPath id="a"><circle cx="1382" cy="1634" r="17" fill="#fff" stroke="#707070"/></clipPath></defs><path d="M20.443 1.699c10.351.001 18.742 8.393 18.741 18.744S30.792 39.185 20.44 39.185 1.698 30.793 1.698 20.442A18.77 18.77 0 0120.443 1.699m0-1.7a20.442 20.442 0 1020.441 20.442C40.884 9.152 31.732 0 20.443-.001z" fill="var(--iconColor)"/><g transform="translate(-1362 -1616)" clip-path="url(#a)"><path d="M1374.261 1625h.219a5.89 5.89 0 013.283 2.621 3.313 3.313 0 011.594-.655 17.65 17.65 0 014.745-.12 4.5 4.5 0 012.421.759.85.85 0 00.078-.084 5.9 5.9 0 013.155-2.521h.274a1.45 1.45 0 00.041.183 5.55 5.55 0 01.021 4.061.346.346 0 00.094.289 4.54 4.54 0 011.273 2.375 14.64 14.64 0 01.252 4.625 6.063 6.063 0 01-2.509 4.376 8.3 8.3 0 01-3.153 1.39l-1.224.233a5.04 5.04 0 01.821 2.806v5.927h-7.009v-3.444l-1.578.125a4.62 4.62 0 01-4.394-2.49 8.51 8.51 0 00-2.517-3.376c-.077-.051-.1-.179-.153-.271a.92.92 0 01.3-.152 2.68 2.68 0 012.164.636 5.26 5.26 0 01.919 1.107 4.156 4.156 0 005.012 1.856.333.333 0 00.272-.337 4.39 4.39 0 01.825-2.39l-.3-.057a9.588 9.588 0 01-2.6-.714 6.3 6.3 0 01-4.029-5.5 15.96 15.96 0 01.146-3.656 5.04 5.04 0 011.467-3.131.325.325 0 00.02-.282 5.053 5.053 0 01-.259-2.9c.088-.436.22-.859.329-1.289z" fill="var(--iconColor)"/></g></svg>
