<svg xmlns="http://www.w3.org/2000/svg" viewBox="0 0 40.884 40.884" fill="var(--iconColor)"><path d="M20.443 1.699c10.351.001 18.742 8.393 18.741 18.744S30.792 39.185 20.44 39.185 1.698 30.793 1.698 20.442A18.77 18.77 0 0120.443 1.699m0-1.7a20.442 20.442 0 107.822 39.328 20.44 20.44 0 0012.619-18.886C40.884 9.152 31.732 0 20.443-.001zM16.912 20.91a2.645 2.645 0 00-2.646 2.649v6.618a2.646 2.646 0 005.292 0v-6.618a2.65 2.65 0 00-2.646-2.646zm-9.261 2.649a2.65 2.65 0 105.3 0v-2.651h-2.652a2.65 2.65 0 00-2.648 2.651zm9.264-15.926a2.65 2.65 0 100 5.3h2.646v-2.658a2.647 2.647 0 00-2.646-2.642zm-6.634 11.933h6.631a2.65 2.65 0 100-5.3h-6.631a2.65 2.65 0 100 5.3zm19.869-5.297a2.64 2.64 0 00-2.643 2.643v2.653h2.646a2.65 2.65 0 100-5.3zm-9.252-3.989v6.638a2.646 2.646 0 005.292 0V10.28a2.646 2.646 0 00-5.292 0zm5.29 19.891a2.646 2.646 0 00-2.646-2.646h-2.646v2.646a2.646 2.646 0 005.292 0zm3.985-9.263h-6.631a2.65 2.65 0 000 5.3h6.631a2.65 2.65 0 100-5.3z"/></svg>
