<svg xmlns="http://www.w3.org/2000/svg" xmlns:xlink="http://www.w3.org/1999/xlink" viewBox="0 0 40.884 40.884"><g fill="#2e2fff"><use xlink:href="#B"/><use xlink:href="#C"/></g><g fill="var(--iconColor)"><use xlink:href="#B"/><use xlink:href="#C"/></g><defs><path id="B" d="M20.443 1.699c10.351.001 18.742 8.393 18.741 18.744S30.792 39.185 20.44 39.185 1.698 30.793 1.698 20.442A18.77 18.77 0 0120.443 1.699m0-1.7a20.442 20.442 0 1020.441 20.442C40.884 9.152 31.732 0 20.443-.001z"/><path id="C" d="M32.032 10.737a9.56 9.56 0 01-3.125 1.259 4.79 4.79 0 00-3.589-1.639 5.06 5.06 0 00-4.916 5.188 5.6 5.6 0 00.125 1.18 13.738 13.738 0 01-10.135-5.416 5.374 5.374 0 00-.667 2.607 5.26 5.26 0 002.188 4.314 4.71 4.71 0 01-2.227-.648v.065a5.13 5.13 0 003.946 5.084 4.74 4.74 0 01-2.222.089 4.966 4.966 0 004.593 3.6 9.553 9.553 0 01-7.282 2.145 13.42 13.42 0 007.54 2.328c9.047 0 13.991-7.9 13.991-14.75 0-.224 0-.45-.012-.672a10.29 10.29 0 002.453-2.684 9.31 9.31 0 01-2.824.816 5.153 5.153 0 002.163-2.866z"/></defs></svg>
