<svg xmlns="http://www.w3.org/2000/svg" xmlns:xlink="http://www.w3.org/1999/xlink" viewBox="0 0 496 106.586"><defs><linearGradient id="a" x1=".5" y1="-.041" x2=".5" y2=".919" gradientUnits="objectBoundingBox"><stop offset="0" stop-color="#fff"/><stop offset="1" stop-color="gray"/></linearGradient><linearGradient id="b" x1=".5" y1="-.026" x2=".5" y2=".911" xlink:href="#a"/><linearGradient id="c" x1=".5" y1="-.006" x2=".5" y2=".819" xlink:href="#a"/><linearGradient id="d" x1=".5" y1=".092" x2=".5" y2=".836" xlink:href="#a"/><linearGradient id="e" x1=".5" y1="-.005" x2=".5" y2=".819" xlink:href="#a"/><linearGradient id="f" x1=".5" y1=".007" x2=".5" y2=".814" xlink:href="#a"/><linearGradient id="g" x1=".5" y1=".007" x2=".5" y2=".813" xlink:href="#a"/><linearGradient id="h" x1=".5" y1=".061" x2=".5" y2=".842" xlink:href="#a"/><linearGradient id="i" x1=".5" y1=".058" x2=".5" y2=".832" xlink:href="#a"/><linearGradient id="j" x1=".5" y1=".041" x2=".5" y2=".827" xlink:href="#a"/><linearGradient id="k" x1=".5" y1="-.252" x2=".5" y2=".884" xlink:href="#a"/><linearGradient id="l" x1=".5" y1="-.147" x2=".5" y2=".894" xlink:href="#a"/><linearGradient id="m" x1=".5" y1="-.084" x2=".5" y2=".816" xlink:href="#a"/><linearGradient id="n" x1=".5" y1="-.03" x2=".5" y2=".83" xlink:href="#a"/><linearGradient id="o" x1=".5" y1="-.108" x2=".5" y2=".817" xlink:href="#a"/><linearGradient id="p" x1=".5" y1="-.031" x2=".5" y2=".83" xlink:href="#a"/><linearGradient id="q" x1=".5" y1="-.039" x2=".5" y2=".828" xlink:href="#a"/><linearGradient id="r" x1=".5" y1=".007" x2=".5" y2=".799" xlink:href="#a"/><linearGradient id="s" x1=".5" y1="-.188" x2=".5" y2=".9" xlink:href="#a"/><linearGradient id="t" x1=".5" y1="-.189" x2=".5" y2=".89" xlink:href="#a"/><linearGradient id="u" x1=".5" y1="-.207" x2=".5" y2=".888" xlink:href="#a"/><linearGradient id="v" x1=".5" y1="-6.089" x2=".5" y2=".301" xlink:href="#a"/><linearGradient id="w" x1=".5" y1="-6.089" x2=".5" y2=".301" xlink:href="#a"/><linearGradient id="x" x1=".5" y1="-.184" x2=".5" y2=".889" xlink:href="#a"/><linearGradient id="y" x1=".5" y1="-6.075" x2=".5" y2="4.212" xlink:href="#a"/></defs><g data-name="组 7669"><g data-name="组 7666" opacity=".4"><g data-name="组 7660"><path data-name="路径 19064" d="M10.488 44.331v7.8h12.574v7.248H10.488v8.456h14.221v7.523H1.099v-38.55h23.61v7.523Z"/><path data-name="路径 19065" d="M56.283 75.356 48.43 63.55l-6.918 11.806H30.859l12.355-19.6-12.63-18.944h10.928l7.742 11.641 6.809-11.641h10.653L54.471 56.247 67.21 75.356Z"/><path data-name="路径 19066" d="M101.639 55.339a11.3 11.3 0 0 1-4.722 4.475 16.624 16.624 0 0 1-7.907 1.7h-5.82v13.838H73.8V36.808h15.21a17.312 17.312 0 0 1 7.8 1.593 10.949 10.949 0 0 1 4.777 4.393 12.767 12.767 0 0 1 1.593 6.424 12.413 12.413 0 0 1-1.541 6.121Zm-9.335-2.553a5.491 5.491 0 0 0 0-7.138 5.6 5.6 0 0 0-4.009-1.263h-5.106v9.665h5.106a5.6 5.6 0 0 0 4.009-1.263Z"/><path data-name="路径 19067" d="M119.32 68.108h12.3v7.248h-21.689V36.808h9.389Z"/><path data-name="路径 19068" d="M146.253 73.209a18.875 18.875 0 0 1-7.193-7.056 20.76 20.76 0 0 1 0-20.344 18.947 18.947 0 0 1 7.193-7.029 20.926 20.926 0 0 1 19.932 0 18.552 18.552 0 0 1 7.138 7.029 21.044 21.044 0 0 1-.027 20.344 18.741 18.741 0 0 1-7.138 7.056 20.871 20.871 0 0 1-19.9 0Zm17.348-9.11a13.336 13.336 0 0 0 0-16.281 9.5 9.5 0 0 0-7.386-3.047 9.611 9.611 0 0 0-7.44 3.02 13.417 13.417 0 0 0 0 16.336 9.566 9.566 0 0 0 7.44 3.047 9.458 9.458 0 0 0 7.386-3.075Z"/><path data-name="路径 19069" d="m202.673 75.356-8.017-14.551h-2.251v14.551h-9.39V36.808h15.759a17.35 17.35 0 0 1 7.77 1.593 10.98 10.98 0 0 1 4.8 4.366 12.181 12.181 0 0 1 1.592 6.177 11.474 11.474 0 0 1-2.169 6.864 11.674 11.674 0 0 1-6.4 4.283l8.9 15.265Zm-10.268-21.2h5.821a5.326 5.326 0 0 0 3.871-1.263 4.769 4.769 0 0 0 1.291-3.569 4.621 4.621 0 0 0-1.291-3.459 5.329 5.329 0 0 0-3.871-1.263h-5.821Z"/><path data-name="路径 19070" d="M230.073 44.331v7.8h12.57v7.248h-12.57v8.456h14.223v7.523h-23.612v-38.55h23.611v7.523Z"/><path data-name="路径 19071" d="M293.493 36.808v7.523H283.28v31.025h-9.39V44.331h-10.213v-7.523Z"/><path data-name="路径 19072" d="M333.468 36.808v38.548h-9.389v-15.87h-14.607v15.87h-9.39V36.808h9.39v15.1h14.606v-15.1Z"/><path data-name="路径 19073" d="M351.478 44.331v7.8h12.575v7.248h-12.575v8.456h14.223v7.523h-23.616v-38.55h23.611v7.523Z"/><path data-name="路径 19074" d="M393.538 74.367a12.348 12.348 0 0 1-5.354-4.064 11.094 11.094 0 0 1-2.114-6.479h9.994a4.84 4.84 0 0 0 1.482 3.267 4.763 4.763 0 0 0 3.295 1.126 5.152 5.152 0 0 0 3.294-.961 3.216 3.216 0 0 0 1.208-2.663 3.156 3.156 0 0 0-.961-2.362 7.775 7.775 0 0 0-2.361-1.537 38.17 38.17 0 0 0-3.982-1.373 43.333 43.333 0 0 1-6.095-2.306 11.257 11.257 0 0 1-4.064-3.4 9.484 9.484 0 0 1-1.7-5.876 10.1 10.1 0 0 1 3.9-8.428q3.9-3.047 10.159-3.047 6.37 0 10.268 3.047a10.912 10.912 0 0 1 4.173 8.483h-10.16a3.976 3.976 0 0 0-1.373-2.938 4.836 4.836 0 0 0-3.24-1.07 4.038 4.038 0 0 0-2.746.906 3.269 3.269 0 0 0-1.043 2.609 3.232 3.232 0 0 0 1.758 2.91 28.686 28.686 0 0 0 5.491 2.251 51 51 0 0 1 6.068 2.417 11.553 11.553 0 0 1 4.035 3.349 8.965 8.965 0 0 1 1.7 5.656 11.1 11.1 0 0 1-1.674 5.985 11.732 11.732 0 0 1-4.86 4.283 16.627 16.627 0 0 1-7.523 1.592 19.815 19.815 0 0 1-7.575-1.377Z"/><path data-name="路径 19075" d="m445.153 75.356-12.959-17.023v17.023h-9.389V36.808h9.389v16.913l12.85-16.913h11.037l-14.936 18.89 15.485 19.658Z"/><path data-name="路径 19076" d="m496 36.808-13.343 25.808v12.74h-9.39v-12.74l-13.343-25.808h10.653l7.468 16.144 7.413-16.144Z"/></g><g data-name="组 7661"><path data-name="路径 19077" d="M9.365 94.621v1.585H6.209v10.26H4.265v-10.26H1.099v-1.585Z"/><path data-name="路径 19078" d="M27.789 95.474a1.244 1.244 0 0 1 .886-2.131 1.184 1.184 0 0 1 .869.358 1.277 1.277 0 0 1 0 1.773 1.184 1.184 0 0 1-.869.358 1.2 1.2 0 0 1-.886-.358Zm1.841 1.6v9.389h-1.944v-9.391Z"/><path data-name="路径 19079" d="M55.731 95.346a5.185 5.185 0 0 1 2.2 2.08 6.252 6.252 0 0 1 .776 3.161 6.114 6.114 0 0 1-.776 3.136 5.121 5.121 0 0 1-2.2 2.037 7.358 7.358 0 0 1-3.315.707h-3.869V94.621h3.868a7.212 7.212 0 0 1 3.316.725Zm-.128 8.411a4.326 4.326 0 0 0 1.108-3.17 4.469 4.469 0 0 0-1.108-3.221 4.2 4.2 0 0 0-3.187-1.159H50.49v8.676h1.925a4.278 4.278 0 0 0 3.188-1.126Z"/><path data-name="路径 19080" d="M84.953 101.387a3.042 3.042 0 0 1 .2 3.52 3.18 3.18 0 0 1-1.355 1.142 4.8 4.8 0 0 1-2.062.417H76.99V94.621h4.516a4.836 4.836 0 0 1 2.079.41 3.055 3.055 0 0 1 1.313 1.1 2.8 2.8 0 0 1 .443 1.543 2.647 2.647 0 0 1-.545 1.7 3.181 3.181 0 0 1-1.466 1 2.625 2.625 0 0 1 1.623 1.013Zm-6.017-1.789h2.4a2.307 2.307 0 0 0 1.491-.435 1.516 1.516 0 0 0 .537-1.252 1.548 1.548 0 0 0-.537-1.253 2.25 2.25 0 0 0-1.491-.451h-2.4Zm4.175 4.806a1.649 1.649 0 0 0 .563-1.329 1.725 1.725 0 0 0-.6-1.38 2.352 2.352 0 0 0-1.585-.511h-2.557v3.7h2.624a2.324 2.324 0 0 0 1.555-.48Z"/><path data-name="路径 19081" d="M134.343 94.621v11.846h-1.942v-5.181h-5.574v5.181h-1.942V94.621h1.942V99.7h5.574v-5.079Z"/><path data-name="路径 19082" d="M160.402 104.046h-4.96l-.853 2.42h-2.028l4.244-11.862h2.25l4.244 11.862h-2.045Zm-.546-1.585-1.926-5.506-1.943 5.506Z"/><path data-name="路径 19083" d="M181.664 97.399a5.767 5.767 0 0 1 2.2-2.157 6.467 6.467 0 0 1 6.408.153 5.291 5.291 0 0 1 2.139 2.634h-2.335a3.131 3.131 0 0 0-1.278-1.4 3.8 3.8 0 0 0-1.892-.459 4.134 4.134 0 0 0-2.1.528 3.676 3.676 0 0 0-1.44 1.517 5.352 5.352 0 0 0 0 4.6 3.735 3.735 0 0 0 1.44 1.526 4.086 4.086 0 0 0 2.1.537 3.8 3.8 0 0 0 1.892-.461 3.13 3.13 0 0 0 1.278-1.4h2.335a5.24 5.24 0 0 1-2.139 2.624 6.224 6.224 0 0 1-3.366.92 6.121 6.121 0 0 1-3.051-.775 5.79 5.79 0 0 1-2.19-2.156 6.411 6.411 0 0 1 0-6.238Z"/><path data-name="路径 19084" d="m217.565 106.467-4.585-5.3v5.3h-1.943V94.621h1.943v5.4l4.6-5.4h2.437l-5.147 5.931 5.232 5.914Z"/><path data-name="路径 19085" d="M245.329 104.046h-4.96l-.853 2.42h-2.028l4.244-11.862h2.25l4.244 11.862h-2.045Zm-.546-1.585-1.926-5.506-1.943 5.506Z"/><path data-name="路径 19086" d="M274.081 94.621v1.585h-3.153v10.26h-1.943v-10.26h-3.17v-1.585Z"/><path data-name="路径 19087" d="M301.862 94.621v11.846h-1.943v-5.181h-5.573v5.181h-1.943V94.621h1.943V99.7h5.573v-5.079Z"/><path data-name="路径 19088" d="M323.14 105.808a5.749 5.749 0 0 1-2.2-2.165 6.426 6.426 0 0 1 0-6.246 5.77 5.77 0 0 1 2.2-2.157 6.393 6.393 0 0 1 6.1 0 5.7 5.7 0 0 1 2.19 2.157 6.488 6.488 0 0 1 0 6.246 5.682 5.682 0 0 1-2.19 2.165 6.388 6.388 0 0 1-6.1 0Zm5.139-1.448a3.726 3.726 0 0 0 1.44-1.535 4.931 4.931 0 0 0 .52-2.309 4.878 4.878 0 0 0-.52-2.3 3.681 3.681 0 0 0-1.44-1.517 4.427 4.427 0 0 0-4.193 0 3.672 3.672 0 0 0-1.44 1.517 4.869 4.869 0 0 0-.52 2.3 4.922 4.922 0 0 0 .52 2.309 3.717 3.717 0 0 0 1.44 1.535 4.364 4.364 0 0 0 4.193 0Z"/><path data-name="路径 19089" d="M360.236 106.466h-1.943l-5.846-8.845v8.845h-1.943V94.604h1.943l5.846 8.829v-8.829h1.943Z"/><path data-name="路径 19090" d="M400.768 103.825q1.637-1.415 2.583-2.327a10.489 10.489 0 0 0 1.577-1.9 3.655 3.655 0 0 0 .63-1.976 2.422 2.422 0 0 0-.486-1.6 1.883 1.883 0 0 0-1.525-.579 1.953 1.953 0 0 0-1.56.639 2.659 2.659 0 0 0-.588 1.713h-1.875a4.173 4.173 0 0 1 6.911-2.982 3.634 3.634 0 0 1 1.048 2.727 4.843 4.843 0 0 1-.622 2.36 9.53 9.53 0 0 1-1.483 2.028q-.861.9-2.19 2.071l-.767.682h5.4v1.619h-8.283v-1.414Z"/><path data-name="路径 19091" d="M426.882 95.482a4.379 4.379 0 0 1 6.868 0 8.973 8.973 0 0 1 1 4.611 9.146 9.146 0 0 1-1 4.661 4.351 4.351 0 0 1-6.868 0 9.152 9.152 0 0 1-1-4.661 8.98 8.98 0 0 1 1-4.611Zm5.778 2.276a3.132 3.132 0 0 0-.725-1.559 2.468 2.468 0 0 0-3.238 0 3.131 3.131 0 0 0-.724 1.559 12.927 12.927 0 0 0-.179 2.335 14.2 14.2 0 0 0 .17 2.4 3 3 0 0 0 .724 1.568 2.518 2.518 0 0 0 3.256 0 3.005 3.005 0 0 0 .724-1.568 14.2 14.2 0 0 0 .171-2.4 12.937 12.937 0 0 0-.179-2.335Z"/><path data-name="路径 19092" d="M454.246 103.825q1.637-1.415 2.583-2.327a10.466 10.466 0 0 0 1.577-1.9 3.655 3.655 0 0 0 .63-1.976 2.423 2.423 0 0 0-.486-1.6 1.882 1.882 0 0 0-1.525-.579 1.953 1.953 0 0 0-1.56.639 2.658 2.658 0 0 0-.588 1.713h-1.878a4.173 4.173 0 0 1 6.911-2.982 3.634 3.634 0 0 1 1.048 2.727 4.843 4.843 0 0 1-.622 2.36 9.507 9.507 0 0 1-1.483 2.028q-.861.9-2.19 2.071l-.767.682h5.403v1.619h-8.28v-1.414Z"/><path data-name="路径 19093" d="M479.112 95.819v-1.773h3.545v12.425h-1.96V95.819Z"/></g><g data-name="组 7662"><path data-name="路径 19094" d="M8.924 4.042v1.189H5.87v10.014H4.407V5.231h-3.07V4.042Z"/><path data-name="路径 19095" d="M17.394 4.717a1 1 0 0 1 .707-1.7.917.917 0 0 1 .683.289 1.03 1.03 0 0 1 0 1.415.917.917 0 0 1-.683.289.962.962 0 0 1-.707-.293Zm1.415 1.719v8.809h-1.463V6.436Z"/><path data-name="路径 19096" d="M34.584 4.725a4.8 4.8 0 0 1 2.058 1.953 6.589 6.589 0 0 1 0 5.972 4.718 4.718 0 0 1-2.058 1.929 7.057 7.057 0 0 1-3.175.667h-3.485v-11.2h3.488a6.917 6.917 0 0 1 3.172.679Zm.137 8.166a4.375 4.375 0 0 0 1.141-3.223 4.465 4.465 0 0 0-1.149-3.264 4.419 4.419 0 0 0-3.3-1.173h-2.029v8.809h2.025a4.466 4.466 0 0 0 3.314-1.147Z"/><path data-name="路径 19097" d="M52.638 9.973a2.924 2.924 0 0 1 .8 1 2.9 2.9 0 0 1-.137 2.8 2.95 2.95 0 0 1-1.262 1.078 4.509 4.509 0 0 1-1.953.394h-4.171v-11.2h4.019a4.548 4.548 0 0 1 1.945.378 2.753 2.753 0 0 1 1.206 1.021 2.677 2.677 0 0 1 .4 1.446 2.5 2.5 0 0 1-.538 1.648 3.018 3.018 0 0 1-1.423.94 2.374 2.374 0 0 1 1.114.495ZM47.374 8.88h2.459a2.375 2.375 0 0 0 1.591-.482 1.863 1.863 0 0 0 0-2.668 2.425 2.425 0 0 0-1.624-.482h-2.427Zm4.292 4.645a1.766 1.766 0 0 0 .611-1.43 1.819 1.819 0 0 0-.643-1.471 2.6 2.6 0 0 0-1.72-.538h-2.54v3.954h2.588a2.566 2.566 0 0 0 1.704-.515Z"/><path data-name="路径 19098" d="M86.515 12.702H72.321v-1.061h6.478v-1.439h-5.16v-.981h5.16V7.902h-4.887v-5.5h10.947v5.5h-4.886V9.22h5.192v.981h-5.192v1.447h6.542Zm-14.179 3.311a7.144 7.144 0 0 0 1.785-2.668l1.141.273a8.406 8.406 0 0 1-1.816 2.926Zm6.463-9.132V3.41h-3.745v3.471Zm-2.058-3.07a8.4 8.4 0 0 1 1.045 2.347l-.836.322a9.638 9.638 0 0 0-1-2.4Zm1.222 9.854a12.285 12.285 0 0 1 .354 2.557l-1.173.161a15.287 15.287 0 0 0-.289-2.637ZM83.67 3.41h-3.7v3.471h3.7Zm-2.411 10.143a14.933 14.933 0 0 1 .916 2.54l-1.173.289a18.733 18.733 0 0 0-.852-2.6Zm-.563-7.217a16.824 16.824 0 0 0 1.238-2.54l.932.354c-.45.868-.981 1.865-1.4 2.508Zm3.778 7.009a15.214 15.214 0 0 1 2.122 2.7l-1.158.45a16.228 16.228 0 0 0-2.041-2.782Z"/><path data-name="路径 19099" d="M106.496 6.275a11.026 11.026 0 0 1-3.2 3.071 21.14 21.14 0 0 0 6.221 1.7 5.288 5.288 0 0 0-.756 1.126 17.29 17.29 0 0 1-2.235-.451v4.726h-1.206v-.514h-6.349v.53h-1.158v-4.662c-.852.258-1.7.45-2.54.627a4.447 4.447 0 0 0-.579-1.045 23.953 23.953 0 0 0 6.318-2.009 11.829 11.829 0 0 1-2.106-1.849 14.5 14.5 0 0 1-2.508 1.559 3.672 3.672 0 0 0-.8-.852 10.722 10.722 0 0 0 4.565-3.6l1.287.226c-.225.321-.482.626-.739.948h4.774l.209-.048Zm-9.967-.015h-1.168V3.237h6.4c-.226-.418-.482-.9-.723-1.286l1.157-.29a15.66 15.66 0 0 1 .932 1.576h5.723V6.26h-1.206V4.346H96.529Zm9.388 5.305a19.525 19.525 0 0 1-3.794-1.528 20.961 20.961 0 0 1-3.585 1.528Zm-.595 3.343v-2.331h-6.349v2.331Zm-5.578-8.086a10.122 10.122 0 0 0 2.4 1.945 11.215 11.215 0 0 0 2.524-2.009h-4.855Z"/><path data-name="路径 19100" d="M128.165 13.139h-10.417v-1.141h10.417Zm3.311-4.212s-.016.386-.048.563c-.37 4.179-.723 5.836-1.35 6.447a1.679 1.679 0 0 1-1.286.514 22.9 22.9 0 0 1-2.524-.031 2.781 2.781 0 0 0-.369-1.157c1.029.1 2.057.113 2.459.113a1.007 1.007 0 0 0 .707-.177c.466-.418.8-1.833 1.125-5.16h-10.256c.193-1.287.4-3.376.514-4.936l1.173.08c-.1 1.173-.241 2.589-.37 3.746h6.238c.209-1.624.418-3.585.563-5h-9.083V2.772h9.292l.193-.064.868.1a132.377 132.377 0 0 1-.643 6.124Z"/><path data-name="路径 19101" d="M145.397 9.959c-.627.193-1.238.386-1.849.563v4.582c0 .659-.145.948-.547 1.141a4.611 4.611 0 0 1-1.961.208 4.965 4.965 0 0 0-.354-1.076c.643.016 1.254.016 1.415 0 .209 0 .289-.065.289-.29v-4.228l-1.849.547-.338-1.157c.611-.145 1.366-.354 2.186-.579V6.15h-1.977V5.04h1.977V1.809h1.157V5.04h1.688v1.11h-1.688v3.209l1.7-.5Zm9.532 4.71v1.142h-9.774v-1.142h5.434a62.313 62.313 0 0 0 1.511-7.957l1.27.225c-.434 2.475-1.077 5.61-1.672 7.732Zm-.418-8.842h-8.6V4.702h8.6Zm-6.414 8.1a61.189 61.189 0 0 0-1.094-6.849l1.045-.225a60.529 60.529 0 0 1 1.206 6.736Zm1.543-9.4a17.957 17.957 0 0 0-.772-2.556l1.125-.289a20.963 20.963 0 0 1 .8 2.492Z"/><path data-name="路径 19102" d="M167.921 11.098c-.257-.595-.836-1.656-1.35-2.54v7.91h-1.173V8.944a18.051 18.051 0 0 1-2.009 4.581 6.882 6.882 0 0 0-.66-1.157 16.817 16.817 0 0 0 2.54-6.061h-2.3V5.181h2.428V1.789h1.173v3.392h1.993v1.122h-1.993v.643c.547.723 1.881 2.684 2.17 3.167Zm4.2-8.552a17.1 17.1 0 0 1-2.782 6.51 9.162 9.162 0 0 0-1.045-.707 13.791 13.791 0 0 0 2.6-6.013Zm2.829 8.343a29.873 29.873 0 0 1 2.234 4.743l-1.093.514a11.357 11.357 0 0 0-.434-1.2c-5.353.707-6.061.82-6.511 1.045h-.025v-.064c-.1-.274-.289-.82-.434-1.142.354-.1.659-.626 1.045-1.415a34.37 34.37 0 0 0 2.4-6.43l1.238.466a41.687 41.687 0 0 1-2.846 7.057l4.711-.563c-.4-.883-.836-1.8-1.27-2.588Zm-.177-8.729a15.729 15.729 0 0 0 2.717 5.884 3.929 3.929 0 0 0-.948.981 18.5 18.5 0 0 1-2.893-6.607Z"/><path data-name="路径 19103" d="M203.457 1.099v16.076h-.675V1.099Z"/><path data-name="路径 19104" d="M232.02 11.379a12.955 12.955 0 0 0 1.954-2.2 3.967 3.967 0 0 0 .8-2.258 2.482 2.482 0 0 0-.506-1.648 2.018 2.018 0 0 0-1.632-.6 2.145 2.145 0 0 0-1.7.682 2.851 2.851 0 0 0-.65 1.825h-1.416a3.862 3.862 0 0 1 1.094-2.782 4.151 4.151 0 0 1 5.28-.064 3.3 3.3 0 0 1 .973 2.523 4.808 4.808 0 0 1-.8 2.6 11.367 11.367 0 0 1-1.809 2.219q-1.012.956-2.587 2.226h5.53v1.221h-7.732v-1.051q2.043-1.639 3.201-2.693Z"/><path data-name="路径 19105" d="M245.765 4.999a3.957 3.957 0 0 1 6.284 0 8.64 8.64 0 0 1 .9 4.315 8.808 8.808 0 0 1-.9 4.373 3.946 3.946 0 0 1-6.284 0 8.8 8.8 0 0 1-.9-4.373 8.632 8.632 0 0 1 .9-4.315Zm5.554 1.944a3.028 3.028 0 0 0-.756-1.567 2.605 2.605 0 0 0-3.312 0 3.018 3.018 0 0 0-.756 1.567 12.952 12.952 0 0 0-.185 2.371 13.39 13.39 0 0 0 .185 2.427 3.022 3.022 0 0 0 .756 1.576 2.6 2.6 0 0 0 3.312 0 3.031 3.031 0 0 0 .756-1.576 13.452 13.452 0 0 0 .184-2.427 13.012 13.012 0 0 0-.182-2.371Z"/><path data-name="路径 19106" d="M264.604 11.379a12.954 12.954 0 0 0 1.953-2.2 3.968 3.968 0 0 0 .8-2.258 2.482 2.482 0 0 0-.506-1.648 2.017 2.017 0 0 0-1.632-.6 2.144 2.144 0 0 0-1.7.682 2.852 2.852 0 0 0-.651 1.825h-1.415a3.864 3.864 0 0 1 1.093-2.782 4.152 4.152 0 0 1 5.281-.064 3.3 3.3 0 0 1 .973 2.523 4.808 4.808 0 0 1-.8 2.6 11.367 11.367 0 0 1-1.808 2.219q-1.013.956-2.588 2.226h5.53v1.221h-7.732v-1.051q2.044-1.639 3.202-2.693Z"/><path data-name="路径 19107" d="M277.061 4.957V3.624h3.022v11.622h-1.479V4.957Z"/><path data-name="路径 19108" d="M289.213 15.053a1 1 0 0 1 .707-1.7.916.916 0 0 1 .683.289 1.031 1.031 0 0 1 0 1.415.916.916 0 0 1-.683.289.962.962 0 0 1-.707-.293Z"/><path data-name="路径 19109" d="M298.826 4.957V3.624h3.021v11.622h-1.479V4.957Z"/><path data-name="路径 19110" d="M314 11.379a12.946 12.946 0 0 0 1.953-2.2 3.966 3.966 0 0 0 .8-2.258 2.486 2.486 0 0 0-.506-1.648 2.018 2.018 0 0 0-1.632-.6 2.145 2.145 0 0 0-1.7.682 2.847 2.847 0 0 0-.65 1.825h-1.415a3.862 3.862 0 0 1 1.094-2.782 4.151 4.151 0 0 1 5.28-.064 3.3 3.3 0 0 1 .973 2.523 4.808 4.808 0 0 1-.8 2.6 11.368 11.368 0 0 1-1.809 2.219q-1.012.956-2.587 2.226h5.529v1.221h-7.731v-1.051q2.043-1.639 3.201-2.693Z"/><path data-name="路径 19111" d="M326.844 15.053a1 1 0 0 1 .707-1.7.917.917 0 0 1 .683.289 1.03 1.03 0 0 1 0 1.415.917.917 0 0 1-.683.289.961.961 0 0 1-.707-.293Z"/><path data-name="路径 19112" d="M339.47 13.542a2.365 2.365 0 0 0 1.583.5 2.141 2.141 0 0 0 1.969-1.046 6.979 6.979 0 0 0 .6-3.52 2.428 2.428 0 0 1-1.125 1.134 3.739 3.739 0 0 1-1.752.41 4.086 4.086 0 0 1-1.921-.442 3.209 3.209 0 0 1-1.326-1.295 4.113 4.113 0 0 1-.482-2.057 3.87 3.87 0 0 1 1-2.774 3.711 3.711 0 0 1 2.829-1.053 3.419 3.419 0 0 1 3.159 1.463 8.38 8.38 0 0 1 .908 4.356 12.909 12.909 0 0 1-.362 3.344 3.762 3.762 0 0 1-1.222 2.009 3.662 3.662 0 0 1-2.355.691 3.529 3.529 0 0 1-2.556-.884 3.469 3.469 0 0 1-1.045-2.251h1.35a2.3 2.3 0 0 0 .748 1.415Zm3.287-4.429a2.394 2.394 0 0 0 .691-1.808 2.772 2.772 0 0 0-.675-1.944 2.439 2.439 0 0 0-1.9-.74 2.347 2.347 0 0 0-1.792.708 2.606 2.606 0 0 0-.667 1.864 2.649 2.649 0 0 0 .659 1.881 2.487 2.487 0 0 0 1.913.707 2.439 2.439 0 0 0 1.771-.671Z"/><path data-name="路径 19113" d="M370.855 8.736v1.238h-6.414V8.736Z"/><path data-name="路径 19114" d="M393.922 11.379a12.978 12.978 0 0 0 1.953-2.2 3.966 3.966 0 0 0 .8-2.258 2.482 2.482 0 0 0-.506-1.648 2.018 2.018 0 0 0-1.632-.6 2.146 2.146 0 0 0-1.7.682 2.852 2.852 0 0 0-.65 1.825h-1.415a3.862 3.862 0 0 1 1.094-2.782 4.152 4.152 0 0 1 5.281-.064 3.3 3.3 0 0 1 .973 2.523 4.808 4.808 0 0 1-.8 2.6 11.39 11.39 0 0 1-1.808 2.219q-1.013.956-2.588 2.226h5.53v1.221h-7.732v-1.051q2.041-1.639 3.2-2.693Z"/><path data-name="路径 19115" d="M407.666 4.999a3.957 3.957 0 0 1 6.284 0 8.64 8.64 0 0 1 .9 4.315 8.807 8.807 0 0 1-.9 4.373 3.946 3.946 0 0 1-6.284 0 8.8 8.8 0 0 1-.9-4.373 8.632 8.632 0 0 1 .9-4.315Zm5.554 1.944a3.019 3.019 0 0 0-.756-1.567 2.6 2.6 0 0 0-3.312 0 3.019 3.019 0 0 0-.756 1.567 12.962 12.962 0 0 0-.184 2.371 13.4 13.4 0 0 0 .184 2.427 3.023 3.023 0 0 0 .756 1.576 2.6 2.6 0 0 0 3.312 0 3.022 3.022 0 0 0 .756-1.576 13.45 13.45 0 0 0 .184-2.427 13.01 13.01 0 0 0-.185-2.371Z"/><path data-name="路径 19116" d="M426.505 11.379a12.976 12.976 0 0 0 1.953-2.2 3.967 3.967 0 0 0 .8-2.258 2.482 2.482 0 0 0-.506-1.648 2.018 2.018 0 0 0-1.632-.6 2.146 2.146 0 0 0-1.7.682 2.851 2.851 0 0 0-.65 1.825h-1.415a3.861 3.861 0 0 1 1.094-2.782 4.151 4.151 0 0 1 5.28-.064 3.3 3.3 0 0 1 .973 2.523 4.808 4.808 0 0 1-.8 2.6 11.366 11.366 0 0 1-1.809 2.219q-1.012.956-2.587 2.226h5.53v1.221h-7.732v-1.051q2.042-1.639 3.201-2.693Z"/><path data-name="路径 19117" d="M442.371 11.379a12.973 12.973 0 0 0 1.953-2.2 3.966 3.966 0 0 0 .8-2.258 2.482 2.482 0 0 0-.506-1.648 2.018 2.018 0 0 0-1.632-.6 2.145 2.145 0 0 0-1.7.682 2.852 2.852 0 0 0-.65 1.825h-1.418a3.862 3.862 0 0 1 1.094-2.782 4.151 4.151 0 0 1 5.28-.064 3.3 3.3 0 0 1 .972 2.523 4.807 4.807 0 0 1-.8 2.6 11.366 11.366 0 0 1-1.809 2.219q-1.012.956-2.587 2.226h5.53v1.221h-7.732v-1.051q2.046-1.639 3.205-2.693Z"/><path data-name="路径 19118" d="M455.214 15.053a1 1 0 0 1 .707-1.7.917.917 0 0 1 .683.289 1.031 1.031 0 0 1 0 1.415.917.917 0 0 1-.683.289.962.962 0 0 1-.707-.293Z"/><path data-name="路径 19119" d="M464.826 4.957V3.624h3.022v11.622h-1.479V4.957Z"/><path data-name="路径 19120" d="M476.978 15.053a1 1 0 0 1 .707-1.7.917.917 0 0 1 .683.289 1.031 1.031 0 0 1 0 1.415.917.917 0 0 1-.683.289.961.961 0 0 1-.707-.293Z"/><path data-name="路径 19121" d="M489.605 13.542a2.366 2.366 0 0 0 1.583.5 2.141 2.141 0 0 0 1.969-1.046 6.987 6.987 0 0 0 .6-3.52 2.427 2.427 0 0 1-1.125 1.134 3.738 3.738 0 0 1-1.752.41 4.086 4.086 0 0 1-1.921-.442 3.21 3.21 0 0 1-1.326-1.295 4.112 4.112 0 0 1-.482-2.057 3.867 3.867 0 0 1 1-2.774 3.711 3.711 0 0 1 2.829-1.053 3.419 3.419 0 0 1 3.159 1.463 8.379 8.379 0 0 1 .908 4.356 12.912 12.912 0 0 1-.362 3.344 3.764 3.764 0 0 1-1.224 2.008 3.661 3.661 0 0 1-2.355.691 3.529 3.529 0 0 1-2.556-.884 3.468 3.468 0 0 1-1.045-2.251h1.35a2.3 2.3 0 0 0 .75 1.416Zm3.287-4.429a2.394 2.394 0 0 0 .691-1.808 2.771 2.771 0 0 0-.675-1.944 2.44 2.44 0 0 0-1.9-.74 2.346 2.346 0 0 0-1.792.708 2.606 2.606 0 0 0-.667 1.864 2.649 2.649 0 0 0 .659 1.881 2.487 2.487 0 0 0 1.913.707 2.439 2.439 0 0 0 1.771-.671Z"/></g></g><g data-name="组 7669"><g data-name="组 7660"><path data-name="路径 19064" d="M129.379 209.592v7.8h12.574v7.248h-12.574v8.456H143.6v7.523h-23.61v-38.55h23.61v7.523Z" transform="translate(-119.99 -166.36)" fill="url(#a)"/><path data-name="路径 19065" d="m189.712 240.617-7.853-11.806-6.918 11.806h-10.653l12.355-19.6-12.63-18.944h10.928l7.742 11.641 6.809-11.641h10.653L187.9 221.508l12.739 19.109Z" transform="translate(-134.528 -166.36)" fill="url(#a)"/><path data-name="路径 19066" d="M256.375 220.6a11.3 11.3 0 0 1-4.722 4.475 16.624 16.624 0 0 1-7.907 1.7h-5.82v13.838h-9.39v-38.544h15.21a17.312 17.312 0 0 1 7.8 1.593 10.949 10.949 0 0 1 4.777 4.393 12.767 12.767 0 0 1 1.593 6.424 12.413 12.413 0 0 1-1.541 6.121Zm-9.335-2.553a5.491 5.491 0 0 0 0-7.138 5.6 5.6 0 0 0-4.009-1.263h-5.106v9.665h5.106a5.6 5.6 0 0 0 4.009-1.263Z" transform="translate(-155.835 -166.36)" fill="url(#a)"/><path data-name="路径 19067" d="M291.87 233.369h12.3v7.248h-21.689v-38.548h9.389Z" transform="translate(-173.649 -166.36)" fill="url(#a)"/><path data-name="路径 19068" d="M331.852 238.2a18.875 18.875 0 0 1-7.193-7.056 20.76 20.76 0 0 1 0-20.344 18.947 18.947 0 0 1 7.193-7.029 20.926 20.926 0 0 1 19.932 0 18.552 18.552 0 0 1 7.138 7.029 21.044 21.044 0 0 1-.027 20.344 18.741 18.741 0 0 1-7.138 7.056 20.871 20.871 0 0 1-19.9 0Zm17.348-9.11a13.336 13.336 0 0 0 0-16.281 9.5 9.5 0 0 0-7.386-3.047 9.611 9.611 0 0 0-7.44 3.02 13.417 13.417 0 0 0 0 16.336 9.566 9.566 0 0 0 7.44 3.047 9.458 9.458 0 0 0 7.386-3.075Z" transform="translate(-186.698 -166.09)" fill="url(#b)"/><path data-name="路径 19069" d="m411.258 240.617-8.017-14.551h-2.251v14.551h-9.39v-38.548h15.759a17.35 17.35 0 0 1 7.77 1.593 10.98 10.98 0 0 1 4.8 4.366 12.181 12.181 0 0 1 1.592 6.177 11.474 11.474 0 0 1-2.169 6.864 11.674 11.674 0 0 1-6.4 4.283l8.9 15.265Zm-10.268-21.2h5.821a5.326 5.326 0 0 0 3.871-1.263 4.769 4.769 0 0 0 1.291-3.569 4.621 4.621 0 0 0-1.291-3.459 5.329 5.329 0 0 0-3.871-1.263h-5.821Z" transform="translate(-209.684 -166.36)" fill="url(#a)"/><path data-name="路径 19070" d="M457.23 209.592v7.8h12.57v7.248h-12.57v8.456h14.223v7.523h-23.612v-38.55h23.611v7.523Z" transform="translate(-228.256 -166.36)" fill="url(#a)"/><path data-name="路径 19071" d="M541.848 202.069v7.523h-10.213v31.025h-9.39v-31.025h-10.213v-7.523Z" transform="translate(-249.454 -166.36)" fill="url(#a)"/><path data-name="路径 19072" d="M599.772 202.069v38.548h-9.389v-15.87h-14.607v15.87h-9.39v-38.548h9.39v15.1h14.606v-15.1Z" transform="translate(-267.403 -166.36)" fill="url(#a)"/><path data-name="路径 19073" d="M638.493 209.592v7.8h12.575v7.248h-12.575v8.456h14.223v7.523H629.1v-38.55h23.611v7.523Z" transform="translate(-288.114 -166.36)" fill="url(#a)"/><path data-name="路径 19074" d="M702.239 239.358a12.348 12.348 0 0 1-5.354-4.064 11.094 11.094 0 0 1-2.114-6.479h9.994a4.84 4.84 0 0 0 1.482 3.267 4.763 4.763 0 0 0 3.295 1.126 5.152 5.152 0 0 0 3.294-.961 3.216 3.216 0 0 0 1.208-2.663 3.156 3.156 0 0 0-.961-2.362 7.775 7.775 0 0 0-2.361-1.537 38.17 38.17 0 0 0-3.982-1.373 43.333 43.333 0 0 1-6.095-2.306 11.257 11.257 0 0 1-4.064-3.4 9.484 9.484 0 0 1-1.7-5.876 10.1 10.1 0 0 1 3.9-8.428q3.9-3.047 10.159-3.047 6.37 0 10.268 3.047a10.912 10.912 0 0 1 4.173 8.483h-10.16a3.976 3.976 0 0 0-1.373-2.938 4.836 4.836 0 0 0-3.24-1.07 4.038 4.038 0 0 0-2.746.906 3.269 3.269 0 0 0-1.043 2.609 3.232 3.232 0 0 0 1.758 2.91 28.686 28.686 0 0 0 5.491 2.251 51 51 0 0 1 6.068 2.417 11.553 11.553 0 0 1 4.035 3.349 8.965 8.965 0 0 1 1.7 5.656 11.1 11.1 0 0 1-1.674 5.985 11.732 11.732 0 0 1-4.86 4.283 16.627 16.627 0 0 1-7.523 1.592 19.815 19.815 0 0 1-7.575-1.377Z" transform="translate(-309.8 -166.09)" fill="url(#b)"/><path data-name="路径 19075" d="m771.966 240.617-12.959-17.023v17.023h-9.389v-38.548h9.389v16.913l12.85-16.913h11.037l-14.936 18.89 15.485 19.658Z" transform="translate(-327.912 -166.36)" fill="url(#a)"/><path data-name="路径 19076" d="m841.114 202.069-13.343 25.808v12.74h-9.39v-12.74l-13.343-25.808h10.653l7.468 16.144 7.413-16.144Z" transform="translate(-346.213 -166.36)" fill="url(#a)"/></g><g data-name="组 7661"><path data-name="路径 19077" d="M128.256 288.388v1.585H125.1v10.26h-1.944v-10.26h-3.166v-1.585Z" transform="translate(-119.99 -194.866)" fill="url(#c)"/><path data-name="路径 19078" d="M159.663 288.611a1.244 1.244 0 0 1 .886-2.131 1.184 1.184 0 0 1 .869.358 1.277 1.277 0 0 1 0 1.773 1.184 1.184 0 0 1-.869.358 1.2 1.2 0 0 1-.886-.358Zm1.841 1.6v9.389h-1.944v-9.391Z" transform="translate(-132.973 -194.236)" fill="url(#d)"/><path data-name="路径 19079" d="M198.016 289.113a5.185 5.185 0 0 1 2.2 2.08 6.252 6.252 0 0 1 .776 3.161 6.114 6.114 0 0 1-.776 3.136 5.121 5.121 0 0 1-2.2 2.037 7.358 7.358 0 0 1-3.315.707h-3.869v-11.846h3.868a7.212 7.212 0 0 1 3.316.725Zm-.128 8.411a4.326 4.326 0 0 0 1.108-3.17 4.469 4.469 0 0 0-1.108-3.221 4.2 4.2 0 0 0-3.187-1.159h-1.926v8.676h1.925a4.278 4.278 0 0 0 3.188-1.126Z" transform="translate(-143.384 -194.866)" fill="url(#c)"/><path data-name="路径 19080" d="M241.263 295.154a3.042 3.042 0 0 1 .2 3.52 3.18 3.18 0 0 1-1.355 1.142 4.8 4.8 0 0 1-2.062.417H233.3v-11.845h4.516a4.836 4.836 0 0 1 2.079.41 3.055 3.055 0 0 1 1.313 1.1 2.8 2.8 0 0 1 .443 1.543 2.647 2.647 0 0 1-.545 1.7 3.181 3.181 0 0 1-1.466 1 2.625 2.625 0 0 1 1.623 1.013Zm-6.017-1.789h2.4a2.307 2.307 0 0 0 1.491-.435 1.516 1.516 0 0 0 .537-1.252 1.548 1.548 0 0 0-.537-1.253 2.25 2.25 0 0 0-1.491-.451h-2.4Zm4.175 4.806a1.649 1.649 0 0 0 .563-1.329 1.725 1.725 0 0 0-.6-1.38 2.352 2.352 0 0 0-1.585-.511h-2.557v3.7h2.624a2.324 2.324 0 0 0 1.555-.48Z" transform="translate(-157.409 -194.866)" fill="url(#c)"/><path data-name="路径 19081" d="M314.266 288.388v11.846h-1.942v-5.181h-5.574v5.181h-1.942v-11.846h1.942v5.079h5.574v-5.079Z" transform="translate(-181.022 -194.866)" fill="url(#c)"/><path data-name="路径 19082" d="M353.972 297.805h-4.96l-.853 2.42h-2.028l4.244-11.862h2.25l4.244 11.862h-2.045Zm-.546-1.585-1.926-5.506-1.943 5.506Z" transform="translate(-194.669 -194.858)" fill="url(#e)"/><path data-name="路径 19083" d="M389.183 291.091a5.767 5.767 0 0 1 2.2-2.157 6.467 6.467 0 0 1 6.408.153 5.291 5.291 0 0 1 2.139 2.634h-2.335a3.131 3.131 0 0 0-1.278-1.4 3.8 3.8 0 0 0-1.892-.459 4.134 4.134 0 0 0-2.1.528 3.676 3.676 0 0 0-1.44 1.517 5.352 5.352 0 0 0 0 4.6 3.735 3.735 0 0 0 1.44 1.526 4.086 4.086 0 0 0 2.1.537 3.8 3.8 0 0 0 1.892-.461 3.13 3.13 0 0 0 1.278-1.4h2.335a5.24 5.24 0 0 1-2.139 2.624 6.224 6.224 0 0 1-3.366.92 6.121 6.121 0 0 1-3.051-.775 5.79 5.79 0 0 1-2.19-2.156 6.411 6.411 0 0 1 0-6.238Z" transform="translate(-208.618 -194.791)" fill="url(#f)"/><path data-name="路径 19084" d="m439.966 300.234-4.585-5.3v5.3h-1.943v-11.846h1.943v5.4l4.6-5.4h2.437l-5.147 5.931 5.232 5.914Z" transform="translate(-223.5 -194.866)" fill="url(#c)"/><path data-name="路径 19085" d="M480.772 297.805h-4.96l-.853 2.42h-2.028l4.244-11.862h2.25l4.244 11.862h-2.045Zm-.546-1.585-1.926-5.506-1.943 5.506Z" transform="translate(-236.542 -194.858)" fill="url(#e)"/><path data-name="路径 19086" d="M523.49 288.388v1.585h-3.153v10.26h-1.943v-10.26h-3.17v-1.585Z" transform="translate(-250.508 -194.866)" fill="url(#c)"/><path data-name="路径 19087" d="M564.38 288.388v11.846h-1.943v-5.181h-5.573v5.181h-1.943v-11.846h1.943v5.079h5.573v-5.079Z" transform="translate(-263.617 -194.866)" fill="url(#c)"/><path data-name="路径 19088" d="M599.33 299.5a5.749 5.749 0 0 1-2.2-2.165 6.426 6.426 0 0 1 0-6.246 5.77 5.77 0 0 1 2.2-2.157 6.393 6.393 0 0 1 6.1 0 5.7 5.7 0 0 1 2.19 2.157 6.488 6.488 0 0 1 0 6.246 5.682 5.682 0 0 1-2.19 2.165 6.388 6.388 0 0 1-6.1 0Zm5.139-1.448a3.726 3.726 0 0 0 1.44-1.535 4.931 4.931 0 0 0 .52-2.309 4.878 4.878 0 0 0-.52-2.3 3.681 3.681 0 0 0-1.44-1.517 4.427 4.427 0 0 0-4.193 0 3.672 3.672 0 0 0-1.44 1.517 4.869 4.869 0 0 0-.52 2.3 4.922 4.922 0 0 0 .52 2.309 3.717 3.717 0 0 0 1.44 1.535 4.364 4.364 0 0 0 4.193 0Z" transform="translate(-277.289 -194.791)" fill="url(#g)"/><path data-name="路径 19089" d="M651.4 300.225h-1.943l-5.846-8.845v8.845h-1.943v-11.862h1.943l5.846 8.829v-8.829h1.943Z" transform="translate(-292.263 -194.858)" fill="url(#e)"/><path data-name="路径 19090" d="M716.1 297.18q1.637-1.415 2.583-2.327a10.489 10.489 0 0 0 1.577-1.9 3.655 3.655 0 0 0 .63-1.976 2.422 2.422 0 0 0-.486-1.6 1.883 1.883 0 0 0-1.525-.579 1.953 1.953 0 0 0-1.56.639 2.659 2.659 0 0 0-.588 1.713h-1.875a4.173 4.173 0 0 1 6.911-2.982 3.634 3.634 0 0 1 1.048 2.727 4.843 4.843 0 0 1-.622 2.36 9.53 9.53 0 0 1-1.483 2.028q-.861.9-2.19 2.071l-.767.682h5.4v1.619h-8.283v-1.414Z" transform="translate(-316.431 -194.454)" fill="url(#h)"/><path data-name="路径 19091" d="M755.214 288.854a4.379 4.379 0 0 1 6.868 0 8.973 8.973 0 0 1 1 4.611 9.146 9.146 0 0 1-1 4.661 4.351 4.351 0 0 1-6.868 0 9.152 9.152 0 0 1-1-4.661 8.98 8.98 0 0 1 1-4.611Zm5.778 2.276a3.132 3.132 0 0 0-.725-1.559 2.468 2.468 0 0 0-3.238 0 3.131 3.131 0 0 0-.724 1.559 12.927 12.927 0 0 0-.179 2.335 14.2 14.2 0 0 0 .17 2.4 3 3 0 0 0 .724 1.568 2.518 2.518 0 0 0 3.256 0 3.005 3.005 0 0 0 .724-1.568 14.2 14.2 0 0 0 .171-2.4 12.937 12.937 0 0 0-.179-2.335Z" transform="translate(-329.431 -194.471)" fill="url(#i)"/><path data-name="路径 19092" d="M795.947 297.18q1.637-1.415 2.583-2.327a10.466 10.466 0 0 0 1.577-1.9 3.655 3.655 0 0 0 .63-1.976 2.423 2.423 0 0 0-.486-1.6 1.882 1.882 0 0 0-1.525-.579 1.953 1.953 0 0 0-1.56.639 2.658 2.658 0 0 0-.588 1.713H794.7a4.173 4.173 0 0 1 6.911-2.982 3.634 3.634 0 0 1 1.048 2.727 4.843 4.843 0 0 1-.622 2.36 9.507 9.507 0 0 1-1.483 2.028q-.861.9-2.19 2.071l-.767.682H803v1.619h-8.28v-1.414Z" transform="translate(-342.8 -194.454)" fill="url(#h)"/><path data-name="路径 19093" d="M833.687 289.3v-1.773h3.545v12.425h-1.96V289.3Z" transform="translate(-355.674 -194.58)" fill="url(#j)"/></g><g data-name="组 7662"><path data-name="路径 19094" d="M127.932 153.149v1.189h-3.054v10.014h-1.463v-10.014h-3.07v-1.189Z" transform="translate(-120.107 -150.206)" fill="url(#k)"/><path data-name="路径 19095" d="M144.177 153.317a1 1 0 0 1 .707-1.7.917.917 0 0 1 .683.289 1.03 1.03 0 0 1 0 1.415.917.917 0 0 1-.683.289.962.962 0 0 1-.707-.293Zm1.415 1.719v8.809h-1.463v-8.809Z" transform="translate(-127.882 -149.699)" fill="url(#l)"/><path data-name="路径 19096" d="M166.7 153.832a4.8 4.8 0 0 1 2.058 1.953 6.589 6.589 0 0 1 0 5.972 4.718 4.718 0 0 1-2.058 1.929 7.057 7.057 0 0 1-3.175.667h-3.485v-11.2h3.488a6.917 6.917 0 0 1 3.172.679Zm.137 8.166a4.375 4.375 0 0 0 1.141-3.223 4.465 4.465 0 0 0-1.149-3.264 4.419 4.419 0 0 0-3.3-1.173H161.5v8.809h2.025a4.466 4.466 0 0 0 3.314-1.147Z" transform="translate(-133.215 -150.206)" fill="url(#k)"/><path data-name="路径 19097" d="M193.623 159.08a2.924 2.924 0 0 1 .8 1 2.9 2.9 0 0 1-.137 2.8 2.95 2.95 0 0 1-1.262 1.078 4.509 4.509 0 0 1-1.953.394H186.9v-11.2h4.019a4.548 4.548 0 0 1 1.945.378 2.753 2.753 0 0 1 1.206 1.021 2.677 2.677 0 0 1 .4 1.446 2.5 2.5 0 0 1-.538 1.648 3.018 3.018 0 0 1-1.423.94 2.374 2.374 0 0 1 1.114.495Zm-5.264-1.093h2.459a2.375 2.375 0 0 0 1.591-.482 1.863 1.863 0 0 0 0-2.668 2.425 2.425 0 0 0-1.624-.482h-2.427Zm4.292 4.645a1.766 1.766 0 0 0 .611-1.43 1.819 1.819 0 0 0-.643-1.471 2.6 2.6 0 0 0-1.72-.538h-2.54v3.954h2.588a2.566 2.566 0 0 0 1.704-.515Z" transform="translate(-142.084 -150.206)" fill="url(#k)"/><path data-name="路径 19098" d="M240.522 161h-14.194v-1.061h6.478V158.5h-5.16v-.981h5.16V156.2h-4.887v-5.5h10.947v5.5h-4.886v1.318h5.192v.981h-5.192v1.447h6.542Zm-14.179 3.311a7.144 7.144 0 0 0 1.785-2.668l1.141.273a8.406 8.406 0 0 1-1.816 2.926Zm6.463-9.132v-3.471h-3.745v3.471Zm-2.058-3.07a8.4 8.4 0 0 1 1.045 2.347l-.836.322a9.638 9.638 0 0 0-1-2.4Zm1.222 9.854a12.285 12.285 0 0 1 .354 2.557l-1.173.161a15.287 15.287 0 0 0-.289-2.637Zm5.707-10.255h-3.7v3.471h3.7Zm-2.411 10.143a14.933 14.933 0 0 1 .916 2.54l-1.173.289a18.733 18.733 0 0 0-.852-2.6Zm-.563-7.217a16.824 16.824 0 0 0 1.238-2.54l.932.354c-.45.868-.981 1.865-1.4 2.508Zm3.778 7.009a15.214 15.214 0 0 1 2.122 2.7l-1.158.45a16.228 16.228 0 0 0-2.041-2.782Z" transform="translate(-155.106 -149.397)" fill="url(#m)"/><path data-name="路径 19099" d="M271.535 154.208a11.026 11.026 0 0 1-3.2 3.071 21.14 21.14 0 0 0 6.221 1.7 5.288 5.288 0 0 0-.756 1.126 17.29 17.29 0 0 1-2.235-.451v4.726h-1.206v-.514h-6.349v.53h-1.158v-4.662c-.852.258-1.7.45-2.54.627a4.447 4.447 0 0 0-.579-1.045 23.953 23.953 0 0 0 6.318-2.009 11.829 11.829 0 0 1-2.106-1.849 14.5 14.5 0 0 1-2.508 1.559 3.672 3.672 0 0 0-.8-.852 10.722 10.722 0 0 0 4.565-3.6l1.287.226c-.225.321-.482.626-.739.948h4.774l.209-.048Zm-9.967-.015H260.4v-3.023h6.4c-.226-.418-.482-.9-.723-1.286l1.157-.29a15.66 15.66 0 0 1 .932 1.576h5.723v3.023h-1.206v-1.914h-11.115Zm9.388 5.305a19.525 19.525 0 0 1-3.794-1.528 20.961 20.961 0 0 1-3.585 1.528Zm-.595 3.343v-2.331h-6.349v2.331Zm-5.578-8.086a10.122 10.122 0 0 0 2.4 1.945 11.215 11.215 0 0 0 2.524-2.009h-4.855Z" transform="translate(-166.138 -149.032)" fill="url(#n)"/><path data-name="路径 19100" d="M304.569 161.588h-10.417v-1.141h10.417Zm3.311-4.212s-.016.386-.048.563c-.37 4.179-.723 5.836-1.35 6.447a1.679 1.679 0 0 1-1.286.514 22.9 22.9 0 0 1-2.524-.031 2.781 2.781 0 0 0-.369-1.157c1.029.1 2.057.113 2.459.113a1.007 1.007 0 0 0 .707-.177c.466-.418.8-1.833 1.125-5.16h-10.256c.193-1.287.4-3.376.514-4.936l1.173.08c-.1 1.173-.241 2.589-.37 3.746h6.238c.209-1.624.418-3.585.563-5h-9.083v-1.157h9.292l.193-.064.868.1a132.377 132.377 0 0 1-.643 6.124Z" transform="translate(-177.503 -149.548)" fill="url(#o)"/><path data-name="路径 19101" d="M332.873 157.9c-.627.193-1.238.386-1.849.563v4.582c0 .659-.145.948-.547 1.141a4.611 4.611 0 0 1-1.961.208 4.965 4.965 0 0 0-.354-1.076c.643.016 1.254.016 1.415 0 .209 0 .289-.065.289-.29V158.8l-1.849.547-.338-1.157c.611-.145 1.366-.354 2.186-.579v-3.52h-1.977v-1.11h1.977v-3.231h1.157v3.231h1.688v1.11h-1.688v3.209l1.7-.5Zm9.532 4.71v1.142h-9.774v-1.142h5.434a62.313 62.313 0 0 0 1.511-7.957l1.27.225c-.434 2.475-1.077 5.61-1.672 7.732Zm-.418-8.842h-8.6v-1.125h8.6Zm-6.414 8.1a61.189 61.189 0 0 0-1.094-6.849l1.045-.225a60.529 60.529 0 0 1 1.206 6.736Zm1.543-9.4a17.957 17.957 0 0 0-.772-2.556l1.125-.289a20.963 20.963 0 0 1 .8 2.492Z" transform="translate(-188.575 -149.04)" fill="url(#p)"/><path data-name="路径 19102" d="M366.5 159.095c-.257-.595-.836-1.656-1.35-2.54v7.91h-1.173v-7.524a18.051 18.051 0 0 1-2.009 4.581 6.882 6.882 0 0 0-.66-1.157 16.817 16.817 0 0 0 2.54-6.061h-2.3v-1.126h2.428v-3.392h1.173v3.392h1.993v1.122h-1.993v.643c.547.723 1.881 2.684 2.17 3.167Zm4.2-8.552a17.1 17.1 0 0 1-2.782 6.51 9.162 9.162 0 0 0-1.045-.707 13.791 13.791 0 0 0 2.6-6.013Zm2.829 8.343a29.873 29.873 0 0 1 2.234 4.743l-1.093.514a11.357 11.357 0 0 0-.434-1.2c-5.353.707-6.061.82-6.511 1.045h-.025v-.064c-.1-.274-.289-.82-.434-1.142.354-.1.659-.626 1.045-1.415a34.37 34.37 0 0 0 2.4-6.43l1.238.466a41.687 41.687 0 0 1-2.846 7.057l4.711-.563c-.4-.883-.836-1.8-1.27-2.588Zm-.177-8.729a15.729 15.729 0 0 0 2.717 5.884 3.929 3.929 0 0 0-.948.981 18.5 18.5 0 0 1-2.893-6.607Z" transform="translate(-199.678 -149.096)" fill="url(#q)"/><path data-name="路径 19103" d="M421.788 148.755v16.076h-.675v-16.076Z" transform="translate(-219.43 -148.755)" fill="url(#r)"/><path data-name="路径 19104" d="M463.19 160.177a12.955 12.955 0 0 0 1.954-2.2 3.967 3.967 0 0 0 .8-2.258 2.482 2.482 0 0 0-.506-1.648 2.018 2.018 0 0 0-1.632-.6 2.145 2.145 0 0 0-1.7.682 2.851 2.851 0 0 0-.65 1.825h-1.416a3.862 3.862 0 0 1 1.094-2.782 4.151 4.151 0 0 1 5.28-.064 3.3 3.3 0 0 1 .973 2.523 4.808 4.808 0 0 1-.8 2.6 11.367 11.367 0 0 1-1.809 2.219q-1.012.956-2.587 2.226h5.53v1.221h-7.732v-1.051q2.043-1.639 3.201-2.693Z" transform="translate(-232.269 -149.897)" fill="url(#s)"/><path data-name="路径 19105" d="M484.844 153.812a3.957 3.957 0 0 1 6.284 0 8.64 8.64 0 0 1 .9 4.315 8.808 8.808 0 0 1-.9 4.373 3.946 3.946 0 0 1-6.284 0 8.8 8.8 0 0 1-.9-4.373 8.632 8.632 0 0 1 .9-4.315Zm5.554 1.944a3.028 3.028 0 0 0-.756-1.567 2.605 2.605 0 0 0-3.312 0 3.018 3.018 0 0 0-.756 1.567 12.952 12.952 0 0 0-.185 2.371 13.39 13.39 0 0 0 .185 2.427 3.022 3.022 0 0 0 .756 1.576 2.6 2.6 0 0 0 3.312 0 3.031 3.031 0 0 0 .756-1.576 13.452 13.452 0 0 0 .184-2.427 13.012 13.012 0 0 0-.182-2.371Z" transform="translate(-240.178 -149.912)" fill="url(#t)"/><path data-name="路径 19106" d="M511.838 160.177a12.954 12.954 0 0 0 1.953-2.2 3.968 3.968 0 0 0 .8-2.258 2.482 2.482 0 0 0-.506-1.648 2.017 2.017 0 0 0-1.632-.6 2.144 2.144 0 0 0-1.7.682 2.852 2.852 0 0 0-.651 1.825h-1.415a3.864 3.864 0 0 1 1.093-2.782 4.152 4.152 0 0 1 5.281-.064 3.3 3.3 0 0 1 .973 2.523 4.808 4.808 0 0 1-.8 2.6 11.367 11.367 0 0 1-1.808 2.219q-1.013.956-2.588 2.226h5.53v1.221h-7.732v-1.051q2.044-1.639 3.202-2.693Z" transform="translate(-248.333 -149.897)" fill="url(#s)"/><path data-name="路径 19107" d="M532.015 153.858v-1.333h3.022v11.622h-1.479v-10.289Z" transform="translate(-256.053 -150)" fill="url(#u)"/><path data-name="路径 19108" d="M550.016 168.749a1 1 0 0 1 .707-1.7.916.916 0 0 1 .683.289 1.031 1.031 0 0 1 0 1.415.916.916 0 0 1-.683.289.962.962 0 0 1-.707-.293Z" transform="translate(-261.902 -154.795)" fill="url(#v)"/><path data-name="路径 19109" d="M564.511 153.858v-1.333h3.021v11.622h-1.479v-10.289Z" transform="translate(-266.784 -150)" fill="url(#u)"/><path data-name="路径 19110" d="M585.589 160.177a12.946 12.946 0 0 0 1.953-2.2 3.966 3.966 0 0 0 .8-2.258 2.486 2.486 0 0 0-.506-1.648 2.018 2.018 0 0 0-1.632-.6 2.145 2.145 0 0 0-1.7.682 2.847 2.847 0 0 0-.65 1.825h-1.415a3.862 3.862 0 0 1 1.094-2.782 4.151 4.151 0 0 1 5.28-.064 3.3 3.3 0 0 1 .973 2.523 4.808 4.808 0 0 1-.8 2.6 11.368 11.368 0 0 1-1.809 2.219q-1.012.956-2.587 2.226h5.529v1.221h-7.731v-1.051q2.043-1.639 3.201-2.693Z" transform="translate(-272.688 -149.897)" fill="url(#s)"/><path data-name="路径 19111" d="M606.2 168.749a1 1 0 0 1 .707-1.7.917.917 0 0 1 .683.289 1.03 1.03 0 0 1 0 1.415.917.917 0 0 1-.683.289.961.961 0 0 1-.707-.293Z" transform="translate(-280.455 -154.795)" fill="url(#w)"/><path data-name="路径 19112" d="M623.985 162.332a2.365 2.365 0 0 0 1.583.5 2.141 2.141 0 0 0 1.969-1.046 6.979 6.979 0 0 0 .6-3.52 2.428 2.428 0 0 1-1.125 1.134 3.739 3.739 0 0 1-1.752.41 4.086 4.086 0 0 1-1.921-.442 3.209 3.209 0 0 1-1.326-1.295 4.113 4.113 0 0 1-.482-2.057 3.87 3.87 0 0 1 1-2.774 3.711 3.711 0 0 1 2.829-1.053 3.419 3.419 0 0 1 3.159 1.463 8.38 8.38 0 0 1 .908 4.356 12.909 12.909 0 0 1-.362 3.344 3.762 3.762 0 0 1-1.222 2.009 3.662 3.662 0 0 1-2.355.691 3.529 3.529 0 0 1-2.556-.884 3.469 3.469 0 0 1-1.045-2.251h1.35a2.3 2.3 0 0 0 .748 1.415Zm3.287-4.429a2.394 2.394 0 0 0 .691-1.808 2.772 2.772 0 0 0-.675-1.944 2.439 2.439 0 0 0-1.9-.74 2.347 2.347 0 0 0-1.792.708 2.606 2.606 0 0 0-.667 1.864 2.649 2.649 0 0 0 .659 1.881 2.487 2.487 0 0 0 1.913.707 2.439 2.439 0 0 0 1.771-.671Z" transform="translate(-285.614 -149.889)" fill="url(#x)"/><path data-name="路径 19113" d="M668.892 160.157v1.238h-6.414v-1.238Z" transform="translate(-299.136 -152.52)" fill="url(#y)"/><path data-name="路径 19114" d="M704.917 160.177a12.978 12.978 0 0 0 1.953-2.2 3.966 3.966 0 0 0 .8-2.258 2.482 2.482 0 0 0-.506-1.648 2.018 2.018 0 0 0-1.632-.6 2.146 2.146 0 0 0-1.7.682 2.852 2.852 0 0 0-.65 1.825h-1.415a3.862 3.862 0 0 1 1.094-2.782 4.152 4.152 0 0 1 5.281-.064 3.3 3.3 0 0 1 .973 2.523 4.808 4.808 0 0 1-.8 2.6 11.39 11.39 0 0 1-1.808 2.219q-1.013.956-2.588 2.226h5.53v1.221h-7.732v-1.051q2.041-1.639 3.2-2.693Z" transform="translate(-312.094 -149.897)" fill="url(#s)"/><path data-name="路径 19115" d="M726.57 153.812a3.957 3.957 0 0 1 6.284 0 8.64 8.64 0 0 1 .9 4.315 8.807 8.807 0 0 1-.9 4.373 3.946 3.946 0 0 1-6.284 0 8.8 8.8 0 0 1-.9-4.373 8.632 8.632 0 0 1 .9-4.315Zm5.554 1.944a3.019 3.019 0 0 0-.756-1.567 2.6 2.6 0 0 0-3.312 0 3.019 3.019 0 0 0-.756 1.567 12.962 12.962 0 0 0-.184 2.371 13.4 13.4 0 0 0 .184 2.427 3.023 3.023 0 0 0 .756 1.576 2.6 2.6 0 0 0 3.312 0 3.022 3.022 0 0 0 .756-1.576 13.45 13.45 0 0 0 .184-2.427 13.01 13.01 0 0 0-.185-2.371Z" transform="translate(-320.003 -149.912)" fill="url(#t)"/><path data-name="路径 19116" d="M753.565 160.177a12.976 12.976 0 0 0 1.953-2.2 3.967 3.967 0 0 0 .8-2.258 2.482 2.482 0 0 0-.506-1.648 2.018 2.018 0 0 0-1.632-.6 2.146 2.146 0 0 0-1.7.682 2.851 2.851 0 0 0-.65 1.825h-1.415a3.861 3.861 0 0 1 1.094-2.782 4.151 4.151 0 0 1 5.28-.064 3.3 3.3 0 0 1 .973 2.523 4.808 4.808 0 0 1-.8 2.6 11.366 11.366 0 0 1-1.809 2.219q-1.012.956-2.587 2.226h5.53v1.221h-7.732v-1.051q2.042-1.639 3.201-2.693Z" transform="translate(-328.159 -149.897)" fill="url(#s)"/><path data-name="路径 19117" d="M777.253 160.177a12.973 12.973 0 0 0 1.953-2.2 3.966 3.966 0 0 0 .8-2.258 2.482 2.482 0 0 0-.506-1.648 2.018 2.018 0 0 0-1.632-.6 2.145 2.145 0 0 0-1.7.682 2.852 2.852 0 0 0-.65 1.825H774.1a3.862 3.862 0 0 1 1.094-2.782 4.151 4.151 0 0 1 5.28-.064 3.3 3.3 0 0 1 .972 2.523 4.807 4.807 0 0 1-.8 2.6 11.366 11.366 0 0 1-1.809 2.219q-1.012.956-2.587 2.226h5.53v1.221h-7.732v-1.051q2.046-1.639 3.205-2.693Z" transform="translate(-335.981 -149.897)" fill="url(#s)"/><path data-name="路径 19118" d="M797.863 168.749a1 1 0 0 1 .707-1.7.917.917 0 0 1 .683.289 1.031 1.031 0 0 1 0 1.415.917.917 0 0 1-.683.289.962.962 0 0 1-.707-.293Z" transform="translate(-343.748 -154.795)" fill="url(#w)"/><path data-name="路径 19119" d="M812.357 153.858v-1.333h3.022v11.622H813.9v-10.289Z" transform="translate(-348.63 -150)" fill="url(#u)"/><path data-name="路径 19120" d="M830.358 168.749a1 1 0 0 1 .707-1.7.917.917 0 0 1 .683.289 1.031 1.031 0 0 1 0 1.415.917.917 0 0 1-.683.289.961.961 0 0 1-.707-.293Z" transform="translate(-354.479 -154.795)" fill="url(#w)"/><path data-name="路径 19121" d="M848.144 162.332a2.366 2.366 0 0 0 1.583.5 2.141 2.141 0 0 0 1.969-1.046 6.987 6.987 0 0 0 .6-3.52 2.427 2.427 0 0 1-1.125 1.134 3.738 3.738 0 0 1-1.752.41 4.086 4.086 0 0 1-1.921-.442 3.21 3.21 0 0 1-1.326-1.295 4.112 4.112 0 0 1-.482-2.057 3.867 3.867 0 0 1 1-2.774 3.711 3.711 0 0 1 2.829-1.053 3.419 3.419 0 0 1 3.159 1.463 8.379 8.379 0 0 1 .908 4.356 12.912 12.912 0 0 1-.362 3.344A3.764 3.764 0 0 1 852 163.36a3.661 3.661 0 0 1-2.355.691 3.529 3.529 0 0 1-2.556-.884 3.468 3.468 0 0 1-1.045-2.251h1.35a2.3 2.3 0 0 0 .75 1.416Zm3.287-4.429a2.394 2.394 0 0 0 .691-1.808 2.771 2.771 0 0 0-.675-1.944 2.44 2.44 0 0 0-1.9-.74 2.346 2.346 0 0 0-1.792.708 2.606 2.606 0 0 0-.667 1.864 2.649 2.649 0 0 0 .659 1.881 2.487 2.487 0 0 0 1.913.707 2.439 2.439 0 0 0 1.771-.671Z" transform="translate(-359.638 -149.889)" fill="url(#x)"/></g></g></g></svg>