<svg xmlns="http://www.w3.org/2000/svg" viewBox="0 0 40.884 40.884" fill="var(--iconColor)"><path d="M20.443 1.699c10.351.001 18.742 8.393 18.741 18.744S30.792 39.185 20.44 39.185 1.698 30.793 1.698 20.442A18.77 18.77 0 0120.443 1.699m0-1.7a20.442 20.442 0 107.822 39.328 20.44 20.44 0 0012.619-18.886C40.884 9.152 31.732 0 20.443-.001zM17.484 32.68h4.94V20.698h3.811l.469-4.22h-4.28v-2.624c0-.932.388-1.013.854-1.013h3.361V8.734l-3.97-.012c-4.4 0-5.185 3.062-5.185 5.019v2.74h-2.766v4.217h2.766z"/></svg>
