<svg id="_图层_2" xmlns="http://www.w3.org/2000/svg" viewBox="0 0 585.16 150.48"><defs><style>.cls-1,.cls-2{fill:#272935;stroke-width:0}.cls-2{fill:#d31834}</style></defs><g id="_图层_1-2"><path d="M14.92 146.73Z" style="fill:#e9e9e9;stroke-width:0"/><path class="cls-2" d="M14.92 116.84h107.4V.48H14.78C6.62.48 0 7.1 0 15.27v115.97c.29-8 6.85-14.39 14.92-14.39Z"/><path d="M61.16 25.3 31.22 42.59v34.57l29.94 17.29L91.1 77.16V42.59L61.16 25.3Zm-.02 23.02V82.9l-9.94-5.73V54.06l-9.95 5.74V48.32l19.88-11.48 9.94 5.74-9.94 5.74Zm19.98 23.07-9.98 5.76V54.11l9.98-5.77v23.05Z" style="fill:#fff;stroke-width:0"/><path d="M122.31 120.49H15.63c-.36-.02-.73-.02-1.09 0-6.09.3-10.78 5.48-10.47 11.57.3 6.09 5.48 10.78 11.57 10.47h106.68v-22.04Z" style="fill:#e5e5e4;stroke-width:0"/><path id="Path_731" class="cls-2" d="M42.35 131.23H20.08v19.25l11.1-6.15 11.17 6.15v-19.25Z"/><path class="cls-1" d="M214.68 29.2V10.8h-20.39V3.62h48.27v7.18h-20.33v18.4h23.83v7.3h-23.83v20.03h-7.54V36.5H191.1v-7.3h23.59Zm-10.14-16.47c2.05 3.92 4.16 8.99 4.89 12.37l-7.06 2.23c-.6-3.26-2.47-8.57-4.46-12.61l6.64-1.99Zm35.54 1.81c-2.17 4.64-4.65 9.53-6.7 12.67l-6.33-1.87c1.93-3.5 4.1-8.81 5.25-12.79l7.78 1.99ZM263.85 49.59c.91-.48 1.57-1.33 1.57-3.62V33.42h17.26v-4.83h-18.34v-6.33h24.92v17.56h-17.8V47l15.02-3.02c.06 1.87.36 4.59.72 6.09-16.77 3.74-19.43 4.4-21.12 5.31-.3-1.57-1.33-4.4-2.23-5.79ZM270.3 3.2v9.89h3.92V0h6.15v13.09h3.74V3.2h6.03v15.51h-25.58V3.2h5.73Zm41.69-.42v44.04c0 2.54.06 2.84.6 2.84h1.09c.6 0 .78-1.63.9-7.78 1.39 1.03 3.74 2.17 5.43 2.65-.42 7.66-1.93 10.44-5.79 10.44h-3.02c-4.52 0-5.61-1.93-5.61-8.21V8.87h-5.13V21.9c0 10.26-1.09 25.46-8.08 34.81-1.03-1.21-3.86-3.62-5.25-4.4 6.15-8.57 6.7-21.18 6.7-30.41V2.78h18.16ZM383.9 2.05v22.5h-36.2l5.01 1.45c-.54 1.09-1.09 2.23-1.75 3.32h8.81v-3.68h7.48v3.68h18.94v6.03h-18.94v3.68h16.23v5.67h-16.23v4.1h22.81v6.21h-53.4V48.8h23.11v-4.1h-15.63v-5.67h15.63v-3.68h-12.85c-1.81 2.29-3.74 4.4-5.55 6.03-1.39-1.27-4.34-3.5-6.09-4.46 4.04-3.02 7.84-7.66 10.08-12.37h-2.84V2.05h41.39Zm-34.27 8.63h26.79V7.54h-26.79v3.14Zm0 8.38h26.79V15.8h-26.79v3.26ZM421 51.1c1.39-1.09 3.2-3.2 3.2-6.39v-13.7h-4.46c-.6 8.93-2.17 19-6.15 26.06-1.51-1.21-4.89-3.14-6.82-3.86 5.31-9.17 5.73-22.75 5.73-32.28V2.23h49.29v7.06h-41.75v11.64l-.06 3.38h43.2v6.7h-7.42l6.27 4.04c-3.26 2.54-7.06 5.25-10.32 7.3 3.44 3.02 7.66 5.31 12.73 6.76-1.63 1.45-3.74 4.34-4.77 6.28-11.89-4.1-19-12.43-23.29-24.38h-4.77v15.75l10.38-2.47c-.18 2.11-.18 5.13.06 6.82-13.27 3.56-15.75 4.53-17.26 5.49-.6-1.51-2.59-4.34-3.8-5.49Zm37.11-37.64v6.58H423.6v-6.58h34.51Zm-10.56 24.55c2.9-2.23 5.97-4.83 8.02-7h-12.13a32.47 32.47 0 0 0 4.1 7ZM197.55 127.11V107.1h-6.73v-4.05h6.73V89.82h3.93v13.23h6.5v4.05h-6.5v18.53l6.67-2.57.8 3.93c-6.04 2.51-12.37 5.07-17.22 7.01l-1.37-4.33c2-.68 4.45-1.54 7.18-2.57Zm39.56-26.16c-1.25 3.48-2.79 7.58-4.16 10.72h10.09v3.88H207.7v-3.88h21.38c1.48-3.31 3.19-8.32 4.05-11.8l3.99 1.08Zm-11.06-12.09c.86 2.11 1.6 4.85 1.94 6.78h13.23v3.88h-31.35v-3.88h13.97c-.34-1.88-.91-4.28-1.6-6.16l3.82-.63Zm12.32 31.7v20.81h-4.1v-2.28h-17.61v2.45h-3.99v-20.98h25.71Zm-21.15-20.47c1.6 3.08 2.91 7.01 3.36 9.69l-3.65 1.2c-.4-2.68-1.71-6.73-3.14-9.86l3.42-1.03Zm17.04 35.12v-10.83h-17.61v10.83h17.61ZM281.45 137.37c1.03-.85 2.74-2.74 2.74-5.53V111.2h-8.09v-4.16h12.2v23.83l5.36-4.33c.46 1.14 1.2 2.74 1.77 3.53-9.29 7.75-10.83 9.12-11.63 10.32v.06c-.46-.91-1.6-2.45-2.34-3.08Zm.57-46.97c3.42 2.68 7.87 6.5 9.92 9.01l-2.85 3.19c-2.05-2.51-6.33-6.56-9.75-9.35l2.68-2.85Zm20.53.4v19.84c0 10.95-.63 21.89-6.27 30.9-.91-.8-2.74-2-3.99-2.45 5.42-8.38 6.04-18.36 6.04-28.5V90.81h4.22Zm11.8 2.79v40.65h-3.99V93.59h3.99Zm12.14-3.02v50.28h-4.28V90.57h4.28ZM398.14 123.46v4.1h-35.57v-4.1h35.57Zm-19.67-32.6-1.2 6.16h31.98v4.1h-32.84c-.74 3.59-1.54 7.18-2.22 10.26h35.91s-.06 1.48-.17 2.11c-1.65 16.3-3.19 22.92-5.81 25.42-1.48 1.48-2.96 1.82-5.42 2-2.05.11-6.16 0-10.2-.23-.11-1.31-.74-3.08-1.6-4.28 4.45.4 8.89.46 10.55.46 1.42 0 2.22-.06 2.96-.68 2.11-1.71 3.59-7.7 4.9-20.75h-33.06l-3.59-.06c1.77-6.33 4.1-17.1 5.53-24.97l4.28.46ZM461.23 107.05v23.49l7.07-4.73c.29 1.14.85 2.74 1.25 3.59-10.89 7.64-12.43 8.84-13.23 9.92-.4-.91-1.6-2.39-2.39-3.14 1.2-.8 3.14-2.74 3.14-5.47v-19.55h-9.58v-4.1h13.74Zm-5.47-16.82c2.85 2.45 6.78 5.93 8.72 8.04l-3.02 3.14c-1.82-2.17-5.7-5.93-8.55-8.55l2.85-2.62Zm28.85-1.03c-.06 5.87-.06 11.86-.46 17.56.74 5.53 3.36 23.6 15.85 31.64-1.14.8-2.39 2.05-3.14 3.14-8.04-5.47-12.09-15.11-14.25-23.15-1.88 9.46-5.7 17.67-13.34 23.2-.74-.97-2.11-2.28-3.25-2.96 14.42-10.09 14.14-30.1 14.25-49.43h4.33ZM545.36 107.05v23.6l5.7-4.33c.4 1.08 1.2 2.79 1.71 3.65-9.75 7.64-11.29 8.89-12.14 10.03-.51-.85-1.88-2.28-2.62-2.91 1.08-.91 3.19-3.13 3.19-6.16v-19.78h-8.04v-4.1h12.2Zm-6.44-16.42c3.14 2.45 7.13 6.04 9.01 8.38l-2.96 2.96c-1.88-2.39-5.76-6.1-8.84-8.78l2.79-2.57Zm16.36 44.69v-27.48h4.22v27.48h7.7v-37.8h-14.88v-3.99h31.58v3.99h-12.31v14.94h11.29v4.05h-11.29v18.81h13.57v3.99h-34.77v-3.99h4.9Z"/></g></svg>