<svg xmlns="http://www.w3.org/2000/svg" viewBox="0 0 1616.83 218.47"><defs><style>.cls-3{fill:#172d72}.cls-5{fill:#e30c34}</style></defs><g id="图层_2"><g id="Layer_2"><path style="fill:none;stroke:#172d72;stroke-miterlimit:10;stroke-width:4px" d="M688.54 0v206.91"/><path class="cls-3" d="M755.93 120.8h27.51v5.2H750V79.39h32.31v5.25h-26.38v14.91h25.4v5.25h-25.4zm38.2-28.29v4.74c2.88-4 5.83-5.7 10.31-5.7s7 1.54 9 5.12c3.13-3.78 5.82-5.12 10.3-5.12 6.27 0 9.73 3.33 9.73 9.34V126h-5.38v-23.1c0-4.22-2.3-6.72-6.2-6.72-4.36 0-7.88 3.91-7.88 8.77V126h-5.37v-23.1c0-4.29-2.24-6.72-6.21-6.72-4.35 0-7.87 3.91-7.87 8.77V126h-5.36V92.51zm52.35-13.12v17.66a11.44 11.44 0 0 1 10.37-5.5c8.83 0 14.33 6.72 14.33 17.6 0 11.13-5.76 18.37-14.59 18.37a11.8 11.8 0 0 1-10.59-5.76V126h-4.8V79.39zm0 30.14c0 7.87 3.71 13 9.34 13 5.83 0 9.79-5.18 9.79-12.79 0-8-3.84-13.19-9.79-13.19-5.63-.01-9.34 5.11-9.34 12.98zm35.84-.89V126h-5.38V92.51h4.93v6.08c3.07-5 5.69-7 9.15-7a13.92 13.92 0 0 1 2.05.19v5.44c-6.47.09-10.75 2.01-10.75 11.42zm28.86-17.09c8.25 0 12.6 3.2 12.6 9.15v19.71c0 1.67 1 2.63 2.88 2.63a4.41 4.41 0 0 0 1.16-.13v4a13 13 0 0 1-3.65.58c-3.46 0-5.12-1.54-5.51-4.93-3.77 3.45-7.16 4.93-11.39 4.93-6.78 0-11-3.84-11-9.92 0-9 6.84-9.73 16.63-11 4.23-.51 5.57-1.47 5.57-3.71v-1.41c0-3.2-2.69-5-7.49-5-5 0-7.42 1.85-7.87 6h-5.37c.32-9.11 7.42-10.9 13.44-10.9zm7.29 23.94v-6c-5.44 2.5-16.64.64-16.64 8 0 3.39 2.44 5.37 6.59 5.37 6.34-.02 10.05-4.17 10.05-7.37zm35.33-11.72c-.64-4.67-3.46-7.29-7.94-7.29-5.82 0-9.28 5-9.28 13.37 0 7.94 3.52 12.74 9.41 12.74 4.54 0 7.29-2.69 8.19-8.06h5.38c-.64 8.19-5.7 13-13.7 13-9.09 0-14.85-6.85-14.85-17.67 0-11.13 5.89-18.3 14.92-18.3 7.68 0 12.6 4.23 13.24 12.22zm15.2 7.3c.13 6.85 3.65 11.52 9.86 11.52 4.29 0 7.29-2.31 8.77-6.72H993c-1.34 7.29-6.65 11.65-14.33 11.65-9.41 0-15.23-6.79-15.23-17.79s6-18.18 15.35-18.18c10.37 0 14.92 7.36 14.92 19.52zm19-4.35c0-5.76-3.78-10.24-9.28-10.24s-9.15 4-9.6 10.24zm64.54-27.33v32.77c0 9.34-7 15.36-18 15.36s-17.86-5.89-17.86-15.36V79.39h5.95v32.77c0 7 5.06 10.11 11.91 10.11 7.48 0 12-3.84 12-10.11V79.39zm13.89 13.12v5.63c2.94-4.67 6.14-6.59 11.13-6.59 6.46 0 10.62 3.58 10.62 9.15V126h-5.31v-23.19c0-4-2.69-6.59-6.91-6.59-5.5 0-9.09 4.48-9.09 11.33V126h-5.37V92.51zm34.81 33.49h-5.38V79.39h5.38zm14.08-39.89h-5.38v-6.72h5.38zm0 39.93H1110V92.51h5.32zm13.37-33.53v4.74c2.88-4 5.82-5.7 10.3-5.7s7 1.54 9 5.12c3.13-3.78 5.82-5.12 10.3-5.12 6.27 0 9.73 3.33 9.73 9.34V126h-5.38v-23.1c0-4.22-2.3-6.72-6.21-6.72-4.35 0-7.87 3.91-7.87 8.77V126h-5.37v-23.1c0-4.29-2.24-6.72-6.21-6.72-4.35 0-7.87 3.91-7.87 8.77V126h-5.38V92.51zm52.79-6.4h-5.37v-6.72h5.37zm0 39.93h-5.31V92.51h5.31zm21.25-29.18h-5.5v23c0 2.36.64 3 2.94 3a10 10 0 0 0 2.56-.25v4.48a23.83 23.83 0 0 1-4.35.45c-4.16 0-6.46-1.92-6.46-5.32V96.86h-4.55v-4.35h4.55V83.3h5.31v9.21h5.5zm8.77 14.21c.13 6.85 3.65 11.52 9.85 11.52 4.29 0 7.3-2.31 8.77-6.72h5.38c-1.35 7.29-6.66 11.65-14.34 11.65-9.41 0-15.23-6.79-15.23-17.79s6-18.18 15.36-18.18c10.37 0 14.91 7.36 14.91 19.52zm19-4.35c0-5.76-3.77-10.24-9.27-10.24s-9.16 4-9.6 10.24zm39.55 19.28h-4.73v-4.41c-2.88 4.16-6.08 5.89-10.69 5.89-9 0-14.59-7-14.59-18.31 0-10.68 5.69-17.66 14.4-17.66 4.48 0 8.06 1.79 10.3 5.18v-17.3h5.31zm-24.44-16.51c0 7.81 3.9 13 9.79 13 5.63 0 9.34-5.12 9.34-12.86 0-8-3.65-13.12-9.41-13.12s-9.72 5.22-9.72 13.02zm70.01-3.22H1301V126h-6V79.39h19.26c9.22 0 14.4 4.93 14.4 13.7.01 8-5.36 13.18-13.04 13.18zm-2.24-5.25c5.69 0 9.08-3.07 9.08-8.19s-3.39-8.19-9.08-8.19H1301V101zm50.74 8.77c0 11-5.76 17.73-15.16 17.73s-15.17-6.72-15.17-18 5.7-18 15.1-18c9.67.03 15.23 6.69 15.23 18.27zm-24.76-.26c0 8.13 3.65 13.06 9.6 13.06s9.6-5 9.6-12.86c0-8.32-3.59-13.25-9.6-13.25s-9.6 4.99-9.6 13.05zm42.64 13.06c4.67 0 7.81-2.11 7.81-5.25 0-2.43-1.47-3.77-5.18-4.67l-5-1.22c-7.93-1.92-10.62-4.41-10.62-9.66 0-6.21 5.06-10.24 12.86-10.24s12.1 3.71 12.16 10.3h-5.63c-.13-3.52-2.43-5.37-6.72-5.37s-7.1 2-7.1 5c0 2.37 1.85 3.78 6.21 4.8l5.12 1.22c6.65 1.6 9.47 4.35 9.47 9.34 0 6.47-5.38 10.63-13.83 10.63-8.76 0-13.11-3.72-13.37-11.46h5.63c.49 3.31 1.7 6.58 8.19 6.58zm31.59 0c4.67 0 7.81-2.11 7.81-5.25 0-2.43-1.47-3.77-5.19-4.67l-5-1.22c-7.93-1.92-10.62-4.41-10.62-9.66 0-6.21 5.06-10.24 12.86-10.24s12.1 3.71 12.16 10.3H1420c-.13-3.52-2.43-5.37-6.72-5.37s-7.1 2-7.1 5c0 2.37 1.85 3.78 6.21 4.8l5.11 1.22c6.66 1.6 9.48 4.35 9.48 9.34 0 6.47-5.38 10.63-13.83 10.63-8.76 0-13.12-3.72-13.37-11.46h5.63c.44 3.31 1.65 6.58 8.18 6.58zm25.15-36.48h-5.38v-6.72h5.38zm0 39.93h-5.31V92.51h5.31zm13.76-46.65v17.66a11.43 11.43 0 0 1 10.37-5.5c8.83 0 14.33 6.72 14.33 17.6 0 11.13-5.76 18.37-14.59 18.37a11.8 11.8 0 0 1-10.62-5.76V126h-4.8V79.39zm0 30.14c0 7.87 3.71 13 9.34 13 5.83 0 9.79-5.18 9.79-12.79 0-8-3.84-13.19-9.79-13.19-5.63-.01-9.34 5.11-9.34 12.98zm36.22-23.42h-5.38v-6.72h5.38zm0 39.93h-5.31V92.51h5.31zm13.82-.04h-5.37V79.39h5.37zm14.08-39.89h-5.38v-6.72h5.38zm0 39.93h-5.31V92.51h5.31zm21.25-29.18h-5.51v23c0 2.36.64 3 3 3a10 10 0 0 0 2.56-.25v4.48a24 24 0 0 1-4.36.45c-4.16 0-6.46-1.92-6.46-5.32V96.86h-4.54v-4.35h4.54V83.3h5.31v9.21h5.51zm10.87-10.75h-5.37v-6.72h5.37zm0 39.93h-5.31V92.51h5.31zm12.1-14.97c.13 6.85 3.65 11.52 9.85 11.52 4.29 0 7.3-2.31 8.77-6.72h5.38c-1.35 7.29-6.66 11.65-14.34 11.65-9.41 0-15.23-6.79-15.23-17.79s6-18.18 15.36-18.18c10.37 0 14.91 7.36 14.91 19.52zm19-4.35c0-5.76-3.78-10.24-9.28-10.24s-9.15 4-9.6 10.24zm23.62 15.87c4.67 0 7.81-2.11 7.81-5.25 0-2.43-1.48-3.77-5.19-4.67l-5-1.22c-7.93-1.92-10.62-4.41-10.62-9.66 0-6.21 5-10.24 12.86-10.24s12.1 3.71 12.16 10.3h-5.63c-.13-3.52-2.43-5.37-6.72-5.37s-7.1 2-7.1 5c0 2.37 1.85 3.78 6.2 4.8l5.12 1.22c6.66 1.6 9.47 4.35 9.47 9.34 0 6.47-5.37 10.63-13.82 10.63-8.77 0-13.12-3.72-13.37-11.46h5.63c.46 3.31 1.67 6.58 8.2 6.58z" style="isolation:isolate"/><path d="M21.73 213c-.75 0-1.5 0-2.23-.11.73.11 1.5.11 2.23.11z" style="fill:#eaeaea"/><path class="cls-5" d="M21.73 169.47h156.41V0H21.53A21.53 21.53 0 0 0 0 21.53v168.9a21.76 21.76 0 0 1 21.73-20.96z"/><path d="m89.07 36.14-43.6 25.18v50.35l43.6 25.18 43.61-25.18V61.32zm0 33.53V120l-14.48-8.35V78l-14.51 8.39V69.67L89.05 53l14.47 8.36zm29.09 33.61-14.53 8.39V78.11l14.53-8.4z" style="fill:#fff"/><path d="M178.14 174.78H21.17a16.07 16.07 0 0 0 1.59 32.11h155.38z" style="fill:#e6e6e6"/><path id="Path_731" class="cls-5" d="M61.68 190.43H29.25v28l16.16-9 16.27 9z"/><path class="cls-3" d="M341.71 29.94v7.29c3.73-5.6 8.31-8.13 15.13-8.13 10.75 0 16.91 6.36 16.91 17.47V80.4h-13.08V49.28c0-6-2.8-9.06-8.41-9.06-6.35 0-10.55 3.93-10.55 9.9V80.4h-13.08V29.94zm89.22 0v52.14c0 11.87-8.78 18.69-24 18.69-13.36 0-22.14-5.52-22.33-14.3h13.55c1 3.83 4.3 5.89 9.25 5.89 6.54 0 11.12-4.21 11.12-10.28v-6.82c-4.86 5.51-8.41 7.29-14.3 7.29-12.42 0-20.65-10.47-20.65-26.16s9-27.29 20.93-27.29c5.79 0 10.09 2.62 14 8.6v-7.76zM396.64 56.2c0 9.15 4.3 15.41 10.47 15.41 6.82 0 11.58-6.26 11.58-15.41 0-9.34-4.85-16.16-11.4-16.16-6.35-.04-10.65 6.63-10.65 16.16zM316 24h-13.07V12.28H316zm0 56.44h-13.07v-50.5H316zm156.42-57.32c-11 0-17.66 9-17.66 24 0 14.85 6.35 23.63 17.19 23.63 8.69 0 14.2-5 15-13.64h13.64c-.84 15.61-12.14 25.42-29.05 25.42-19 0-30.84-13.74-30.84-35.6 0-22.05 12-35.79 31.21-35.79 15.88 0 27.19 8.88 28.4 24.2H487c-.75-3.43-2.9-12.22-14.58-12.22zm51.76 43.54L519.6 80.4h-14.3l24.2-68.12H545l23.56 68.12h-14.39l-4.48-13.74zM537 28.36 528.1 55h17.75zm54 52.04h-14V12.28h30.08c14.2 0 22 7.48 22 21.12 0 13.83-8 22.71-20.56 22.71H591zm13.08-36c7.48 0 10.93-3.27 10.93-10.19S611.54 24 604.06 24H591v20.43zm-349.45 36h-14V12.28h30.07c14.2 0 21.95 7.48 21.95 21.12 0 13.83-8 22.71-20.55 22.71h-17.47zm13.08-36c7.47 0 10.93-3.27 10.93-10.19S275.18 24 267.71 24h-13.08v20.43zM249 186.61h24.38v7.71h-33.63v-45h32.53V157H249v10.18h21.54v7.72H249zm34.88-37.29h17.6c6.91 0 11.17 1.54 14.2 5.19 3.58 4.26 5.49 10.37 5.49 17.28s-1.91 13.09-5.49 17.29c-3 3.64-7.35 5.24-14.2 5.24h-17.6zm17.6 37.29c7 0 10.43-4.88 10.43-14.76S308.45 157 301.48 157h-8.34v29.57zm30.18-6.79v-30.5h9.26v30.5c0 5.43 2.78 8 8.58 8s8.59-2.59 8.59-8v-30.5h9.25v30.5c0 12.71-10.24 15.92-17.84 15.92s-17.84-3.21-17.84-15.92zm67.1-23.34c-7.28 0-11.66 5.93-11.66 15.87S391.29 188 398.46 188c5.74 0 9.38-3.28 9.93-9h9c-.56 10.31-8 16.79-19.2 16.79-12.53 0-20.37-9.07-20.37-23.52s7.9-23.64 20.62-23.64c10.49 0 18 5.86 18.76 16h-8.83c-.47-2.35-1.89-8.15-9.61-8.15zm37.29 28.77-3 9.07h-9.44l16-45h10.24l15.56 45h-9.51l-3-9.07zm8.46-25.31-5.87 17.59h11.73zm49.32 34.38h-9.26V157h-13.65v-7.72H507V157h-13.17zm32.28 0h-9.26v-45h9.26zm32.1-45.74c13 0 21.73 9.57 21.73 23.89 0 12.9-8.15 23.27-21.67 23.27-13.21 0-21.67-9.87-21.67-23.58s8.52-23.58 21.61-23.58zm-12.35 23.58c0 9.45 4.94 15.68 12.41 15.68s12.41-6.23 12.41-15.43c0-9.75-4.81-15.93-12.41-15.93s-12.41 6.24-12.41 15.68zm53.83-8.95v31.11h-9.26v-45h9.51l17.84 30.62v-30.62H627v45h-9.26z"/></g></g></svg>