<svg width="24" height="24" fill="none" xmlns="http://www.w3.org/2000/svg"><path fill-rule="evenodd" clip-rule="evenodd" d="M12 0C5.37 0 0 5.37 0 12c0 5.304 3.44 9.797 8.206 11.389.597.11.818-.258.818-.582 0-.288-.007-1.039-.015-2.04-3.337.721-4.044-1.607-4.044-1.607-.545-1.385-1.333-1.753-1.333-1.753-1.09-.744.08-.73.08-.73 1.201.09 1.842 1.238 1.842 1.238 1.068 1.835 2.807 1.304 3.492.995.11-.774.42-1.304.759-1.606-2.667-.302-5.466-1.333-5.466-5.93 0-1.311.464-2.38 1.237-3.22-.125-.301-.537-1.524.118-3.174 0 0 1.01-.324 3.3 1.23A11.645 11.645 0 0 1 12 5.805c1.017 0 2.048.14 3.005.405 2.292-1.554 3.3-1.23 3.3-1.23.656 1.65.244 2.873.119 3.175.766.84 1.23 1.908 1.23 3.219 0 4.611-2.807 5.62-5.48 5.923.426.368.817 1.104.817 2.224 0 1.606-.015 2.895-.015 3.293 0 .324.214.692.825.575C20.567 21.797 24 17.304 24 12.007 24 5.37 18.63 0 12 0Z" fill="#fff"/></svg>