<svg xmlns="http://www.w3.org/2000/svg" width="16" height="16"><path d="M6.965 14.986a1.045 1.045 0 0 1-1.561-.418 1.775 1.775 0 0 0-1.793-1.035 1.044 1.044 0 0 1-1.142-1.143 1.776 1.776 0 0 0-1.036-1.793 1.044 1.044 0 0 1-.418-1.561 1.778 1.778 0 0 0 0-2.07 1.045 1.045 0 0 1 .418-1.561 1.775 1.775 0 0 0 1.035-1.793A1.044 1.044 0 0 1 3.611 2.47a1.776 1.776 0 0 0 1.793-1.036 1.044 1.044 0 0 1 1.561-.418 1.778 1.778 0 0 0 2.07 0 1.045 1.045 0 0 1 1.561.418 1.775 1.775 0 0 0 1.793 1.035 1.044 1.044 0 0 1 1.142 1.143 1.776 1.776 0 0 0 1.036 1.793 1.044 1.044 0 0 1 .418 1.561 1.778 1.778 0 0 0 0 2.07 1.045 1.045 0 0 1-.418 1.561 1.775 1.775 0 0 0-1.035 1.793 1.044 1.044 0 0 1-1.143 1.142 1.776 1.776 0 0 0-1.793 1.036 1.044 1.044 0 0 1-1.561.418 1.778 1.778 0 0 0-2.07 0z" fill="#0091ff"/><path d="M6.509 5.76v.199c-.053 0-.104.013-.153.039s-.074.076-.074.15c0 .081.032.185.096.31l.106.21.126.255L8.062 9.97l1.417-3.003.207-.422.048-.093c.079-.151.119-.257.119-.316 0-.109-.09-.168-.27-.176l-.047-.001V5.76h1.984v.199c-.151 0-.261.054-.329.161l-.127.218-2.089 4.492a.64.64 0 0 1-.58.37H7.67a.64.64 0 0 1-.579-.368L4.933 6.247a.37.37 0 0 0-.159-.177 1.34 1.34 0 0 0-.233-.092l-.062-.019V5.76h2.029z" fill="#fff"/></svg>