<svg width="50" height="50" fill="none" xmlns="http://www.w3.org/2000/svg"><path d="M21.393 49.317a3.635 3.635 0 0 1-5.434-1.456 6.187 6.187 0 0 0-6.245-3.602 3.638 3.638 0 0 1-3.977-3.98 6.187 6.187 0 0 0-3.607-6.247 3.636 3.636 0 0 1-1.441-5.431 6.187 6.187 0 0 0 0-7.207 3.636 3.636 0 0 1 1.44-5.439 6.187 6.187 0 0 0 3.605-6.242 3.636 3.636 0 0 1 3.98-3.98 6.187 6.187 0 0 0 6.243-3.608A3.637 3.637 0 0 1 21.393.688a6.187 6.187 0 0 0 7.207 0 3.636 3.636 0 0 1 5.434 1.441 6.187 6.187 0 0 0 6.244 3.604 3.636 3.636 0 0 1 3.977 3.98 6.188 6.188 0 0 0 3.607 6.242 3.636 3.636 0 0 1 1.456 5.435 6.187 6.187 0 0 0 0 7.206 3.634 3.634 0 0 1-1.456 5.435 6.187 6.187 0 0 0-3.604 6.242 3.636 3.636 0 0 1-3.98 3.975 6.187 6.187 0 0 0-6.244 3.607 3.636 3.636 0 0 1-5.434 1.456 6.188 6.188 0 0 0-7.207 0v.006Z" fill="#F8C200"/><path d="M19.546 15.154v.724c-.195 0-.388.049-.56.14a.557.557 0 0 0-.279.54c.033.4.158.787.365 1.13l.388.758.454.923 5.303 11.024 5.188-10.868c.265-.556.518-1.065.757-1.527l.171-.341c.224-.347.376-.734.447-1.14 0-.396-.333-.61-.998-.64h-.16v-.723h7.256v.724a1.321 1.321 0 0 0-1.203.579 8.991 8.991 0 0 0-.465.789L28.585 33.51a2.343 2.343 0 0 1-2.121 1.339h-2.676a2.344 2.344 0 0 1-2.12-1.332l-7.888-16.6a1.351 1.351 0 0 0-.579-.64 4.933 4.933 0 0 0-.851-.334l-.227-.065v-.724h7.423Z" fill="#fff"/></svg>