<svg xmlns="http://www.w3.org/2000/svg" width="35.469" height="32" viewBox="0 0 35.469 32">
  <g id="user-interaction-review_male-group" transform="translate(-1.138 -4.088)">
    <g id="group-m" transform="translate(2.134 5.088)">
      <path id="路径_15057" data-name="路径 15057" d="M21.783,25.022c2.98,0,4.96-3.964,5.249-4.968.055-.217.367-.2.561-.578,1.289-2.518-.207-2.966-.207-2.966a10.732,10.732,0,0,0-.292-2.917,5.211,5.211,0,0,0-5.311-3.507,5.211,5.211,0,0,0-5.311,3.507,10.732,10.732,0,0,0-.292,2.917s-1.5.609-.227,2.954c.188.347.462.3.581.59C16.823,21.058,18.8,25.022,21.783,25.022Z" transform="translate(-5.182 -6.232)" fill="none" stroke="#fff" stroke-linecap="round" stroke-linejoin="round" stroke-miterlimit="10" stroke-width="2"/>
      <path id="路径_15058" data-name="路径 15058" d="M23.75,28.389a11.862,11.862,0,0,0,3.311,1.834c3.668,1.388,4.866,4.548,5.1,8.395a1.709,1.709,0,0,1-1.541,1.807H10.763a1.725,1.725,0,0,1-1.539-1.846c.232-3.95,1.428-6.87,5.1-8.259a10.092,10.092,0,0,0,3.234-1.883" transform="translate(-3.757 -10.424)" fill="none" stroke="#fff" stroke-linecap="round" stroke-linejoin="round" stroke-miterlimit="10" stroke-width="2"/>
      <path id="路径_15059" data-name="路径 15059" d="M8.2,29.691H3.682a1.722,1.722,0,0,1-1.542-1.715c-.043-2.868.075-5.505,3.623-6.848A22.666,22.666,0,0,0,9.74,19.091a10.1,10.1,0,0,1-3.193-4.012c-.12-.289-.393-.255-.581-.6-1.269-2.345.227-2.96.227-2.96A10.751,10.751,0,0,1,6.485,8.6,5.212,5.212,0,0,1,11.8,5.088a5.273,5.273,0,0,1,5.311,3.7" transform="translate(-2.134 -5.088)" fill="none" stroke="#fff" stroke-linecap="round" stroke-linejoin="round" stroke-miterlimit="10" stroke-width="2"/>
      <path id="路径_15060" data-name="路径 15060" d="M35.318,29.691H39.6a1.722,1.722,0,0,0,1.542-1.715c.043-2.868-.075-5.505-3.623-6.848a19.9,19.9,0,0,1-3.98-2.134c1.59-.723,3-3.249,3.195-3.915.12-.289.393-.255.581-.6,1.269-2.345-.227-2.96-.227-2.96a10.75,10.75,0,0,0-.292-2.92,5.212,5.212,0,0,0-5.311-3.509,5.064,5.064,0,0,0-5.192,3.7" transform="translate(-7.666 -5.088)" fill="none" stroke="#fff" stroke-linecap="round" stroke-linejoin="round" stroke-miterlimit="10" stroke-width="2"/>
    </g>
  </g>
</svg>
