<svg xmlns="http://www.w3.org/2000/svg" width="35.469" height="32" fill="none" stroke="#fff" stroke-linejoin="round" stroke-miterlimit="10" stroke-width="2" xmlns:v="https://vecta.io/nano"><path d="M17.597 19.79c2.98 0 4.96-3.964 5.249-4.968.055-.217.367-.2.561-.578 1.289-2.518-.207-2.966-.207-2.966a10.73 10.73 0 0 0-.292-2.917 5.21 5.21 0 0 0-5.311-3.507 5.21 5.21 0 0 0-5.311 3.507 10.73 10.73 0 0 0-.292 2.917c0 0-1.5.609-.227 2.954.188.347.462.3.581.59.289 1.004 2.266 4.968 5.249 4.968z"/><g stroke-linecap="round"><path d="M20.989 18.965a11.86 11.86 0 0 0 3.311 1.834c3.668 1.388 4.866 4.548 5.1 8.395a1.71 1.71 0 0 1-1.541 1.807H8.002c-.928-.098-1.61-.916-1.539-1.846.232-3.95 1.428-6.87 5.1-8.259a10.09 10.09 0 0 0 3.234-1.883m-7.735 6.59H2.544a1.72 1.72 0 0 1-1.542-1.715c-.043-2.868.075-5.505 3.623-6.848 1.39-.546 2.722-1.229 3.977-2.037a10.1 10.1 0 0 1-3.193-4.012c-.12-.289-.393-.255-.581-.6-1.269-2.345.227-2.96.227-2.96a10.75 10.75 0 0 1 .292-2.919A5.21 5.21 0 0 1 10.662 1c2.408-.126 4.595 1.397 5.311 3.7"/><path d="M28.648 25.603h4.282a1.72 1.72 0 0 0 1.542-1.715c.043-2.868-.075-5.505-3.623-6.848a19.9 19.9 0 0 1-3.98-2.134c1.59-.723 3-3.249 3.195-3.915.12-.289.393-.255.581-.6 1.269-2.345-.227-2.96-.227-2.96a10.75 10.75 0 0 0-.292-2.92 5.21 5.21 0 0 0-5.311-3.509c-2.387-.148-4.552 1.395-5.192 3.7"/></g></svg>