<svg xmlns="http://www.w3.org/2000/svg" width="32" height="32" fill="none" stroke="#fff" stroke-linejoin="round" stroke-width="2" xmlns:v="https://vecta.io/nano"><path d="M31 16.185v-.371a1.86 1.86 0 0 0-1.86-1.86h-.278c-.833-.009-1.561-.564-1.792-1.364a11.5 11.5 0 0 0-.829-2.006 1.89 1.89 0 0 1 .3-2.235l.194-.194a1.86 1.86 0 0 0 0-2.63l-.262-.262a1.86 1.86 0 0 0-2.63 0l-.194.194a1.89 1.89 0 0 1-2.235.3 11.5 11.5 0 0 0-2.004-.827c-.801-.23-1.356-.959-1.365-1.792V2.86A1.86 1.86 0 0 0 16.185 1h-.371a1.86 1.86 0 0 0-1.86 1.86v.278c-.009.833-.564 1.561-1.364 1.792a11.5 11.5 0 0 0-2.006.829 1.89 1.89 0 0 1-2.235-.3l-.194-.194a1.86 1.86 0 0 0-2.63 0l-.262.262a1.86 1.86 0 0 0 0 2.63l.194.194a1.89 1.89 0 0 1 .3 2.235 11.5 11.5 0 0 0-.827 2.004c-.23.801-.959 1.356-1.792 1.365H2.86A1.86 1.86 0 0 0 1 15.815v.371a1.86 1.86 0 0 0 1.86 1.86h.278c.833.009 1.561.564 1.792 1.364a11.5 11.5 0 0 0 .829 2.006 1.89 1.89 0 0 1-.3 2.235l-.194.194a1.86 1.86 0 0 0 0 2.63l.262.262a1.86 1.86 0 0 0 2.63 0l.194-.194a1.89 1.89 0 0 1 2.235-.3 11.5 11.5 0 0 0 2.006.829c.801.23 1.356.959 1.365 1.792v.278A1.86 1.86 0 0 0 15.815 31h.371a1.86 1.86 0 0 0 1.86-1.86v-.278c.009-.833.564-1.561 1.364-1.792a11.5 11.5 0 0 0 2.006-.829 1.89 1.89 0 0 1 2.235.3l.194.194a1.86 1.86 0 0 0 2.63 0l.262-.262a1.86 1.86 0 0 0 0-2.63l-.194-.194a1.89 1.89 0 0 1-.3-2.235 11.5 11.5 0 0 0 .829-2.006c.23-.801.959-1.356 1.792-1.365h.278A1.86 1.86 0 0 0 31 16.185z" stroke-miterlimit="10"/><circle cx="16" cy="16" r="5.455"/></svg>