<svg xmlns="http://www.w3.org/2000/svg" width="29.157" height="36.141" fill="none" stroke="#fff" stroke-linejoin="round" stroke-width="2" xmlns:v="https://vecta.io/nano"><ellipse cx="14.966" cy="3.328" rx="6.983" ry="2.328"/><g stroke-miterlimit="10"><path d="M21.95 3.328v4.656c0 1.286-3.127 2.328-6.983 2.328S7.983 9.269 7.983 7.984V3.328"/><path d="M7.983 7.983c4.993 5.33 3.1 14.743 3.1 14.743a3.88 3.88 0 0 0 7.759 0c0 0-2.39-9.827 2.94-14.386"/><path d="M11.087 17.294h-5.9a1.55 1.55 0 0 0-1.458 1.022L1 25.829v4.656a2.33 2.33 0 0 0 2.328 2.328h22.5a2.33 2.33 0 0 0 2.328-2.328v-4.656l-2.016-7.392a1.55 1.55 0 0 0-1.496-1.143h-5.8"/><path d="M6.431 35.141h17.07M1.776 25.83h2.328m21.726 0h1.552" stroke-linecap="round"/></g></svg>