<svg xmlns="http://www.w3.org/2000/svg" width="29.157" height="36.141" viewBox="0 0 29.157 36.141">
  <g id="Layer_1" transform="translate(-5 -1)">
    <ellipse id="椭圆_1289" data-name="椭圆 1289" cx="6.983" cy="2.328" rx="6.983" ry="2.328" transform="translate(12.983 2)" fill="none" stroke="#fff" stroke-linejoin="round" stroke-miterlimit="10" stroke-width="2"/>
    <path id="路径_15070" data-name="路径 15070" d="M28.967,5V9.656c0,1.286-3.127,2.328-6.983,2.328S15,10.941,15,9.656V5" transform="translate(-2.017 -0.672)" fill="none" stroke="#fff" stroke-linejoin="round" stroke-miterlimit="10" stroke-width="2"/>
    <path id="路径_15071" data-name="路径 15071" d="M15,11c4.993,5.33,3.1,14.743,3.1,14.743a3.88,3.88,0,0,0,7.759,0s-2.39-9.827,2.94-14.386" transform="translate(-2.017 -2.017)" fill="none" stroke="#fff" stroke-linejoin="round" stroke-miterlimit="10" stroke-width="2"/>
    <path id="路径_15072" data-name="路径 15072" d="M16.087,23h-5.9a1.552,1.552,0,0,0-1.458,1.022L6,31.535v4.656a2.328,2.328,0,0,0,2.328,2.328h22.5a2.328,2.328,0,0,0,2.328-2.328V31.535l-2.016-7.392A1.552,1.552,0,0,0,29.644,23h-5.8" transform="translate(0 -4.706)" fill="none" stroke="#fff" stroke-linejoin="round" stroke-miterlimit="10" stroke-width="2"/>
    <line id="直线_336" data-name="直线 336" x2="17.07" transform="translate(11.431 36.141)" fill="none" stroke="#fff" stroke-linecap="round" stroke-linejoin="round" stroke-miterlimit="10" stroke-width="2"/>
    <line id="直线_337" data-name="直线 337" x2="2.328" transform="translate(6.776 26.83)" fill="none" stroke="#fff" stroke-linecap="round" stroke-linejoin="round" stroke-miterlimit="10" stroke-width="2"/>
    <line id="直线_338" data-name="直线 338" x2="1.552" transform="translate(30.83 26.83)" fill="none" stroke="#fff" stroke-linecap="round" stroke-linejoin="round" stroke-miterlimit="10" stroke-width="2"/>
  </g>
</svg>
