<svg xmlns="http://www.w3.org/2000/svg" width="32.02" height="32.738" fill="none" stroke="#fff" stroke-linejoin="round" stroke-miterlimit="10" stroke-width="2" xmlns:v="https://vecta.io/nano"><path d="M6.771 31.522h-5.05A.72.72 0 0 1 1 30.796V1.943a.72.72 0 0 1 .721-.721h5.05a.72.72 0 0 1 .721.721v28.853a.72.72 0 0 1-.721.726z"/><path d="M3.164 27.189h2.164m-2.164-2.885h2.164M3.164 6.992h2.164" stroke-linecap="round"/><path d="M16.148 31.522h-5.05a.72.72 0 0 1-.721-.726V1.943a.72.72 0 0 1 .721-.721h5.049a.72.72 0 0 1 .721.721v28.853a.72.72 0 0 1-.72.726z"/><path d="M12.541 27.189h2.164m-2.164-2.885h2.164M12.541 6.992h2.164" stroke-linecap="round"/><path d="M30.41 30.806l-4.964.921a.72.72 0 0 1-.841-.578L19.341 2.777a.72.72 0 0 1 .578-.841l4.964-.921a.72.72 0 0 1 .841.578l5.264 28.368a.72.72 0 0 1-.578.845z"/><path d="M26.074 27.205l2.128-.395m-2.654-2.442l2.128-.395M22.389 7.347l2.128-.395" stroke-linecap="round"/></svg>