<svg xmlns="http://www.w3.org/2000/svg" width="33.559" height="32.037" xmlns:v="https://vecta.io/nano"><path d="M17.537 1.55l3.177 9.778a.8.8 0 0 0 .757.55H31.74a.8.8 0 0 1 .466 1.441l-8.3 6a.8.8 0 0 0-.291.891l3.173 9.749a.8.8 0 0 1-1.225.89l-8.314-6.05a.8.8 0 0 0-.936 0l-8.315 6.032a.8.8 0 0 1-1.224-.89l3.173-9.732a.8.8 0 0 0-.29-.891l-8.3-6a.8.8 0 0 1 .466-1.44h10.27a.8.8 0 0 0 .757-.55l3.178-9.778a.8.8 0 0 1 1.509 0z" fill="none" stroke="#fff" stroke-linejoin="round" stroke-miterlimit="10" stroke-width="2"/></svg>