<svg xmlns="http://www.w3.org/2000/svg" xmlns:xlink="http://www.w3.org/1999/xlink" viewBox="0 0 252.363 170"><path d="M22.99 7.034v14.062l12.178 7.031 12.178-7.031V7.034L35.168.003z" fill="#e30c34"/><g fill="#fff"><path d="m35.164 4.694-8.088 4.67v4.671l4.045-2.336v9.4l4.043 2.331V9.363l4.043-2.334zm4.064 7.027v9.372l4.06-2.344V9.375zm63.283-4.713h.677v14.133h-.677zM58.543 21.241h-2.886V9.619h-4.251v-2.4H62.64v2.4h-4.1zm8.079-11.622h-2.693v-2.4h2.693zm0 11.619h-2.693V10.853h2.693zm2.962-14.019h5.483c2.155 0 3.482.481 4.425 1.616a9.33 9.33 0 0 1 0 10.773c-.943 1.135-2.289 1.635-4.425 1.635h-5.483zm5.483 11.619c2.174 0 3.251-1.52 3.251-4.6 0-3.1-1.077-4.617-3.251-4.617h-2.6v9.215zm14.955 2.403h-6.31V7.219h6.252c3.694 0 4.578 2.4 4.578 3.693 0 1.193-.539 2-1.924 2.886 1.577.923 2.328 2.02 2.328 3.4.005 1.677-.977 4.043-4.924 4.043zm-3.424-8.445h3.136c1.327 0 2.039-.558 2.039-1.577 0-1.039-.712-1.6-2.039-1.6h-3.132zm0 6.04h3.443c1.4 0 2.135-.635 2.135-1.808 0-1.193-.731-1.827-2.135-1.827h-3.439zm34.676-2.689c-.432 2.709-1.614 3.917-3.831 3.917a4.02 4.02 0 0 1-3.266-1.525 6.57 6.57 0 0 1-1.216-4.126c0-3.532 1.659-5.727 4.329-5.727a3.34 3.34 0 0 1 2.472.696 3.336 3.336 0 0 1 1.245 2.246l.009.046h1.936l-.012-.068c-.562-3.1-2.341-4.606-5.439-4.606a5.74 5.74 0 0 0-5.148 2.622 9.066 9.066 0 0 0-1.288 4.81 8.91 8.91 0 0 0 1.271 4.731 5.673 5.673 0 0 0 5.088 2.586c3.428 0 5.381-1.88 5.8-5.586l.007-.064h-1.952zM131.426 7c-4.056 0-6.781 2.964-6.781 7.374s2.733 7.374 6.8 7.374c4 0 6.8-2.985 6.8-7.259C138.24 9.94 135.568 7 131.426 7zm4.923 7.451c0 3.357-1.971 5.612-4.9 5.612s-4.9-2.286-4.9-5.689 1.963-5.689 4.884-5.689c2.983.001 4.915 2.264 4.915 5.766zm10.744 4.82-4.082-12-.013-.039h-2.57V21.31h1.8V9.898l3.853 11.373.013.039h1.96l3.828-11.408V21.31h1.8V7.231h-2.57zm16.205 0-4.083-12-.013-.039h-2.569V21.31h1.8V9.897l3.853 11.373.013.039h1.96l3.828-11.408v11.408h1.8V7.231h-2.57zm18.486-2.177c0 1.859-1.325 2.969-3.544 2.969s-3.505-1.082-3.505-2.969V7.23h-1.9v9.864c0 2.871 2.07 4.655 5.4 4.655 3.3 0 5.44-1.827 5.44-4.655V7.23h-1.9zm14.079 1.413-7.192-11.25-.017-.026h-2.025v14.078h1.8v-11.18l7.115 11.154.017.027h2.1V7.231h-1.8zm5.133-11.277h1.916v14.078h-1.916zm3.98 1.686h4.6v12.393h1.9V8.916h4.578V7.23h-11.078zm22.133-1.685-3.951 6.745-4.049-6.717-.017-.028h-2.34l5.43 8.56v5.519h1.9v-5.519l5.294-8.559zM38.554 100.147h1.613v1.613h-1.613zm0 3.629h1.613v9.847h-1.613z"/><use xlink:href="#a"/><use xlink:href="#b"/><use xlink:href="#c"/><use xlink:href="#d"/><use xlink:href="#e"/><use xlink:href="#f"/><path d="M46.527 103.178a4.346 4.346 0 0 0-3.239 1.327A4.51 4.51 0 0 0 42 107.796v5.788h1.561v-5.932a2.8 2.8 0 0 1 .884-2.094 2.87 2.87 0 0 1 2.094-.884 2.76 2.76 0 0 1 2.055.884c.578.543.904 1.301.9 2.094v5.932h1.561v-5.788a4.51 4.51 0 0 0-1.288-3.291 4.406 4.406 0 0 0-3.24-1.327zM13.02 99.653 1.573 96.388a1.2 1.2 0 0 0-1.079.208 1.23 1.23 0 0 0-.494.989v21.1a1.26 1.26 0 0 0 .468.976c.221.168.49.259.767.26a1.09 1.09 0 0 0 .286-.039l11.447-2.732c.558-.129.953-.627.95-1.2v-15.1a1.25 1.25 0 0 0-.898-1.197zm-.013 16.051a.67.67 0 0 1-.494.637l-10.952 2.6a.52.52 0 0 1-.623-.384.51.51 0 0 1-.014-.123v-20.6a.51.51 0 0 1 .5-.519.5.5 0 0 1 .165.024l10.965 3.122a.657.657 0 0 1 .468.625v14.621z"/><path d="M20.826 98.911a1.226 1.226 0 0 0-.9-1.184L5.357 93.552a1.23 1.23 0 0 0-1.08.2 1.245 1.245 0 0 0-.507.988v16.012a1.22 1.22 0 0 0 1.209 1.236h.027a1.06 1.06 0 0 0 .286-.039l14.582-3.512a1.23 1.23 0 0 0 .95-1.21zm-1.4 8.7-14.087 3.408a.52.52 0 0 1-.637-.507l-.026-15.518a.52.52 0 0 1 .517-.527.51.51 0 0 1 .146.02l14.1 4.032a.656.656 0 0 1 .468.624l.013 7.83a.62.62 0 0 1-.499.64zm19.128 42.617h1.613v1.613h-1.613zm0 3.629h1.613v9.847h-1.613z"/><use xlink:href="#a" y="50.081"/><use xlink:href="#b" y="50.081"/><use xlink:href="#c" y="50.081"/><use xlink:href="#d" y="50.081"/><use xlink:href="#e" y="50.081"/><use xlink:href="#f" y="50.081"/><path d="M46.527 153.259a4.346 4.346 0 0 0-3.239 1.327A4.51 4.51 0 0 0 42 157.877v5.788h1.561v-5.932a2.8 2.8 0 0 1 .884-2.094 2.87 2.87 0 0 1 2.094-.884 2.76 2.76 0 0 1 2.055.884c.578.543.904 1.301.9 2.094v5.932h1.561v-5.788a4.51 4.51 0 0 0-1.288-3.291 4.406 4.406 0 0 0-3.24-1.327z"/><use xlink:href="#g"/><path d="M20.826 148.992a1.226 1.226 0 0 0-.9-1.184l-14.569-4.175a1.23 1.23 0 0 0-1.08.2 1.245 1.245 0 0 0-.507.988v16.012a1.22 1.22 0 0 0 1.209 1.236h.027a1.06 1.06 0 0 0 .286-.039l14.582-3.512a1.23 1.23 0 0 0 .95-1.21zm-1.4 8.7L5.339 161.1a.52.52 0 0 1-.637-.507l-.026-15.518a.52.52 0 0 1 .517-.527.51.51 0 0 1 .146.02l14.1 4.032a.656.656 0 0 1 .468.624l.013 7.83a.62.62 0 0 1-.499.64zm171.343-7.464h1.613v1.613h-1.613zm0 3.629h1.613v9.847h-1.613z"/><use xlink:href="#a" x="152.215" y="50.081"/><use xlink:href="#b" x="152.215" y="50.081"/><use xlink:href="#c" x="152.215" y="50.081"/><use xlink:href="#d" x="152.215" y="50.081"/><use xlink:href="#e" x="152.215" y="50.081"/><use xlink:href="#h"/><use xlink:href="#i"/><use xlink:href="#g" x="152.215"/><use xlink:href="#j"/><path d="M190.769 100.147h1.613v1.613h-1.613zm0 3.629h1.613v9.847h-1.613z"/><use xlink:href="#a" x="152.215"/><use xlink:href="#b" x="152.215"/><use xlink:href="#c" x="152.215"/><use xlink:href="#d" x="152.215"/><use xlink:href="#e" x="152.215"/><use xlink:href="#h" y="-50.081"/><use xlink:href="#i" y="-50.081"/><use xlink:href="#g" x="152.215" y="-50.081"/><use xlink:href="#j" y="-50.081"/></g><g fill="none" stroke="#fff"><path d="m118.681 52.5 15 15M133.681 52.5l-15 15"/></g><defs><path id="a" d="M46.451 103.165a4.376 4.376 0 0 0-3.252 1.327 4.54 4.54 0 0 0-1.288 3.3v5.815h1.561v-5.957a2.8 2.8 0 0 1 .884-2.095 2.87 2.87 0 0 1 2.094-.884 2.81 2.81 0 0 1 2.068.884c.578.543.904 1.302.9 2.095v5.957h1.561v-5.815a4.5 4.5 0 0 0-1.3-3.3 4.315 4.315 0 0 0-3.228-1.327z"/><path id="b" d="M62.931 112.648v-4.228a5.235 5.235 0 0 0-9.027-3.733 5.22 5.22 0 0 0-1.47 3.707 5.34 5.34 0 0 0 1.587 3.85 4.937 4.937 0 0 0 3.8 1.522 5.055 5.055 0 0 0 3.577-1.6v.676m0-.013a3.07 3.07 0 0 1-1.054 2.329 3.473 3.473 0 0 1-2.472 1 3.628 3.628 0 0 1-2.2-.728 3.59 3.59 0 0 1-1.171-1.366l-1.236.715c.31.608.749 1.141 1.288 1.561a5.24 5.24 0 0 0 3.148 1.106h.234a5.26 5.26 0 0 0 3.382-1.209 3.965 3.965 0 0 0 1.6-3.226v-.377m-1.561-4.124a3.8 3.8 0 0 1-1.093 2.628 3.377 3.377 0 0 1-2.536 1.093 3.548 3.548 0 0 1-2.627-1.093 3.82 3.82 0 0 1-.1-5.32 3.46 3.46 0 0 1 2.536-1.223h.2a3.27 3.27 0 0 1 2.524 1.132 3.61 3.61 0 0 1 1.106 2.783z"/><path id="c" d="m74.95 109.916-.039.052a5.1 5.1 0 0 1-1.782 1.7 4.759 4.759 0 0 1-2.446.7 4.884 4.884 0 0 1-3.694-1.691 5.72 5.72 0 0 1-1.483-4.032 5.62 5.62 0 0 1 1.522-3.824 4.695 4.695 0 0 1 3.551-1.6 4.75 4.75 0 0 1 4.306 2.354l.026.052h.026l1.21-.755a6.827 6.827 0 0 0-2-2.133 6.313 6.313 0 0 0-3.473-1.054 6.12 6.12 0 0 0-4.643 1.977 7 7 0 0 0-1.951 5.047 7.31 7.31 0 0 0 1.925 5.06 6.076 6.076 0 0 0 4.592 2.081h.065a6.372 6.372 0 0 0 5.476-3.2z"/><path id="d" d="M84.03 99.887h-1.652l-6.14 13.723h1.964l1.9-4.566.663-1.418 2.471-5.8 2.42 5.8h-3.473l-.637 1.418h4.67l1.912 4.566h1.73z"/><path id="e" d="M98.832 101.136a4.928 4.928 0 0 0-3.408-1.236h-4.449v13.71h1.613v-12.227h2.888a3.217 3.217 0 0 1 2.107.728 2.39 2.39 0 0 1 .963 1.821 2.43 2.43 0 0 1-.859 2.094 3.027 3.027 0 0 1-2.12.781h-1.678v1.444h1.938c1.118.02 2.2-.395 3.018-1.158a3.79 3.79 0 0 0 1.3-2.849 3.83 3.83 0 0 0-1.313-3.108z"/><path id="f" d="M35.666 101.136a4.928 4.928 0 0 0-3.408-1.236H27.81v13.71h1.613v-12.227h2.887a3.217 3.217 0 0 1 2.107.728 2.39 2.39 0 0 1 .963 1.821 2.43 2.43 0 0 1-.858 2.094 3.027 3.027 0 0 1-2.12.781h-1.678v1.444h1.938c1.118.02 2.2-.395 3.018-1.158a4.04 4.04 0 0 0-.013-5.958z"/><path id="g" d="m13.02 149.734-11.447-3.265a1.2 1.2 0 0 0-1.079.208 1.23 1.23 0 0 0-.494.989v21.1a1.26 1.26 0 0 0 .468.976c.221.168.49.259.767.26a1.09 1.09 0 0 0 .286-.039l11.447-2.732c.558-.129.953-.627.95-1.2v-15.1a1.25 1.25 0 0 0-.898-1.197zm-.013 16.051a.67.67 0 0 1-.494.637l-10.952 2.6a.52.52 0 0 1-.623-.384.51.51 0 0 1-.014-.123v-20.6a.51.51 0 0 1 .5-.519.5.5 0 0 1 .165.024l10.965 3.122a.657.657 0 0 1 .468.625v14.621z"/><path id="h" d="M187.881 151.217a4.928 4.928 0 0 0-3.408-1.236h-4.448v13.71h1.613v-12.227h2.887a3.217 3.217 0 0 1 2.107.728 2.39 2.39 0 0 1 .963 1.821 2.43 2.43 0 0 1-.858 2.094 3.027 3.027 0 0 1-2.12.781h-1.678v1.444h1.938c1.118.02 2.2-.395 3.018-1.158a4.04 4.04 0 0 0-.013-5.958z"/><path id="i" d="M198.742 153.259a4.346 4.346 0 0 0-3.239 1.327 4.51 4.51 0 0 0-1.288 3.291v5.788h1.561v-5.932a2.8 2.8 0 0 1 .884-2.094 2.87 2.87 0 0 1 2.094-.884 2.76 2.76 0 0 1 2.055.884c.578.543.904 1.301.9 2.094v5.932h1.561v-5.788a4.51 4.51 0 0 0-1.288-3.291 4.406 4.406 0 0 0-3.24-1.327z"/><path id="j" d="M173.041 148.992a1.226 1.226 0 0 0-.9-1.184l-14.569-4.175a1.23 1.23 0 0 0-1.08.2 1.245 1.245 0 0 0-.507.988v16.012a1.22 1.22 0 0 0 1.209 1.236h.027c.097 0 .193-.013.286-.039l14.582-3.512a1.23 1.23 0 0 0 .95-1.21zm-1.4 8.7-14.087 3.408a.52.52 0 0 1-.637-.507l-.026-15.518a.52.52 0 0 1 .517-.527.51.51 0 0 1 .146.02l14.1 4.032a.656.656 0 0 1 .468.624l.013 7.83a.62.62 0 0 1-.499.64z"/></defs></svg>