<svg xmlns="http://www.w3.org/2000/svg" viewBox="0 0 20 20"><path d="M3.395 8.673a.855.855 0 0 0-.844.865v1.309c0 .476.379.864.844.864h.843V8.673h-.843zm12.657 3.038h.844a.855.855 0 0 0 .843-.864v-1.31a.855.855 0 0 0-.843-.864h-.844v3.038zm-6.56 6.75c-.605 0-1.096-.49-1.097-1.095 0-.604.492-1.096 1.097-1.096h1.306c.357 0 .684.162.874.433l.082.118.14-.035a4.432 4.432 0 0 0 3.358-4.311V7.91c0-2.812-2.29-5.1-5.107-5.1a5.11 5.11 0 0 0-5.107 5.1v3.587c0 .604-.492 1.095-1.096 1.095h-.654a1.75 1.75 0 0 1-1.75-1.747V9.54a1.75 1.75 0 0 1 1.75-1.748h.885l.01-.198a5.965 5.965 0 0 1 5.962-5.67 5.965 5.965 0 0 1 5.963 5.67l.01.198h.884a1.75 1.75 0 0 1 1.75 1.748v1.305a1.75 1.75 0 0 1-1.75 1.747h-.849l-.013.195c-.154 2.379-1.873 4.392-4.178 4.896l-.105.024-.043.098a1.127 1.127 0 0 1-1.016.657H9.492z" fill="#FFF"/></svg>