<svg xmlns="http://www.w3.org/2000/svg" xmlns:xlink="http://www.w3.org/1999/xlink" width="136.875" height="176.825"><g fill="#e6e6e6"><circle cx="35.134" cy="24.965" r="2.966"/><circle cx="50.151" cy="24.965" r="2.966"/><circle cx="65.165" cy="24.965" r="2.966"/><circle cx="80.182" cy="24.965" r="2.966"/><circle cx="95.196" cy="24.965" r="2.966"/><circle cx="35.134" cy="40.17" r="2.966"/><circle cx="50.151" cy="40.17" r="2.966"/><circle cx="65.165" cy="40.17" r="2.966"/><circle cx="80.182" cy="40.17" r="2.966"/><circle cx="95.196" cy="40.17" r="2.966"/><circle cx="35.134" cy="55.374" r="2.966"/><circle cx="50.151" cy="55.374" r="2.966"/><circle cx="65.165" cy="55.374" r="2.966"/><circle cx="80.182" cy="55.374" r="2.966"/><circle cx="95.196" cy="55.374" r="2.966"/><circle cx="35.134" cy="70.578" r="2.966"/><circle cx="50.151" cy="70.578" r="2.966"/><circle cx="65.165" cy="70.578" r="2.966"/><circle cx="80.182" cy="70.578" r="2.966"/><circle cx="95.196" cy="70.578" r="2.966"/><circle cx="35.134" cy="85.782" r="2.966"/><circle cx="50.151" cy="85.782" r="2.966"/><circle cx="65.165" cy="85.782" r="2.966"/><circle cx="80.182" cy="85.782" r="2.966"/><circle cx="95.196" cy="85.782" r="2.966"/><circle cx="35.134" cy="100.986" r="2.966"/><circle cx="50.151" cy="100.986" r="2.966"/><circle cx="65.165" cy="100.986" r="2.966"/><circle cx="80.182" cy="100.986" r="2.966"/><circle cx="95.196" cy="100.986" r="2.966"/><circle cx="35.134" cy="116.19" r="2.966"/><circle cx="50.151" cy="116.19" r="2.966"/><circle cx="65.165" cy="116.19" r="2.966"/><circle cx="80.182" cy="116.19" r="2.966"/><circle cx="95.196" cy="116.19" r="2.966"/><circle cx="35.134" cy="131.395" r="2.966"/><circle cx="50.151" cy="131.395" r="2.966"/><circle cx="65.165" cy="131.395" r="2.966"/><circle cx="80.182" cy="131.395" r="2.966"/><circle cx="95.196" cy="131.395" r="2.966"/></g><path fill="#403c58" d="M29.277 28.366h107.598v148.458H29.277z"/><path d="M24.218 171.428h106.761V22.288H24.218z" fill="#fff" stroke="#403c58"/><g fill="#e6e6e6"><use xlink:href="#B"/><use xlink:href="#B" y="7.125"/></g><use xlink:href="#B" y="14.251" fill="#f9746c"/><g fill="#e6e6e6"><use xlink:href="#B" y="21.532"/><use xlink:href="#B" y="28.658"/><use xlink:href="#B" x="-.001" y="35.784"/></g><path d="M48.353 107.146a.85.85 0 00-.871.822v38.2a.85.85 0 00.871.822h58.4a.85.85 0 00.871-.822v-38.2a.85.85 0 00-.871-.822z" fill="#6c63ff"/><g fill="#e6e6e6"><circle cx="2.178" cy="2.178" r="2.178"/><circle cx="13.202" cy="2.178" r="2.178"/><circle cx="24.227" cy="2.178" r="2.178"/><circle cx="35.252" cy="2.178" r="2.178"/><circle cx="46.276" cy="2.178" r="2.178"/><circle cx="57.301" cy="2.178" r="2.178"/><circle cx="2.178" cy="13.341" r="2.178"/><circle cx="13.202" cy="13.341" r="2.178"/><circle cx="24.227" cy="13.341" r="2.178"/><circle cx="35.252" cy="13.341" r="2.178"/><circle cx="46.276" cy="13.341" r="2.178"/><circle cx="57.301" cy="13.341" r="2.178"/><circle cx="2.178" cy="24.504" r="2.178"/><circle cx="13.202" cy="24.504" r="2.178"/><circle cx="2.178" cy="35.668" r="2.178"/><circle cx="13.202" cy="35.668" r="2.178"/><circle cx="2.178" cy="46.831" r="2.178"/><circle cx="13.202" cy="46.831" r="2.178"/><circle cx="2.178" cy="57.994" r="2.178"/><circle cx="13.202" cy="57.994" r="2.178"/></g><defs><path id="B" d="M107.229 45.884a.75.75 0 01.75.75v1.5a.75.75 0 01-.75.75H47.973a.75.75 0 01-.75-.75v-1.5a.75.75 0 01.75-.75h59.255"/></defs></svg>