<svg xmlns="http://www.w3.org/2000/svg" width="207.271" height="146.691"><path fill="#403c58" d="M30.406 31.074h176.865V146.69H30.406z"/><path fill="#fff" stroke="#403c58" d="M23.993 23.924h176.865V139.54H23.993z"/><path fill="#403c58" d="M23.426 23.824h176.94v7.517H23.426z"/><g fill="#fff"><circle cx="29.012" cy="27.667" r="1.393"/><circle cx="34.299" cy="27.667" r="1.393"/><circle cx="39.589" cy="27.667" r="1.393"/></g><circle cx="48.969" cy="79.257" fill="#f9746c" r="14.669"/><path d="M51.451 90.09a14.9 14.9 0 01-10.536-25.436A14.9 14.9 0 0166.351 75.19c0 8.229-6.671 14.9-14.9 14.9zm0-29.339a14.445 14.445 0 1014.444 14.444c-.003-7.975-6.469-14.439-14.444-14.439z" fill="#3f3d56"/><path d="M78.032 31.074V139.29" fill="none" stroke="#403c58" stroke-width=".5"/><path fill="#6c63ff" d="M92.614 43.182h96.293v23.796H92.614z"/><g fill="#e6e6e6"><path d="M92.426 76.182h48v4h-48zm0 11h96v4h-96zM151.426 76.182h37v4h-37zm-59 22h48v4h-48z"/></g><g fill="#fff" stroke="#403c58"><path d="M92.426 111.182h96v16h-96z" stroke="none"/><path fill="none" d="M92.676 111.432h95.5v15.5h-95.5z" stroke-width=".5"/></g><g fill="#e6e6e6"><circle cx="2.178" cy="2.178" r="2.178"/><circle cx="13.202" cy="2.178" r="2.178"/><circle cx="24.227" cy="2.178" r="2.178"/><circle cx="35.252" cy="2.178" r="2.178"/><circle cx="46.276" cy="2.178" r="2.178"/><circle cx="57.301" cy="2.178" r="2.178"/><circle cx="2.178" cy="13.341" r="2.178"/><circle cx="13.202" cy="13.341" r="2.178"/><circle cx="24.227" cy="13.341" r="2.178"/><circle cx="35.252" cy="13.341" r="2.178"/><circle cx="46.276" cy="13.341" r="2.178"/><circle cx="57.301" cy="13.341" r="2.178"/><circle cx="2.178" cy="24.504" r="2.178"/><circle cx="13.202" cy="24.504" r="2.178"/><circle cx="2.178" cy="35.668" r="2.178"/><circle cx="13.202" cy="35.668" r="2.178"/><circle cx="2.178" cy="46.831" r="2.178"/><circle cx="13.202" cy="46.831" r="2.178"/><circle cx="2.178" cy="57.994" r="2.178"/><circle cx="13.202" cy="57.994" r="2.178"/></g></svg>