<svg xmlns="http://www.w3.org/2000/svg" width="207.392" height="146.691"><path fill="#403c58" d="M30.526 31.074h176.865V146.69H30.526z"/><path fill="#fff" stroke="#403c58" d="M24.113 23.924h176.865V139.54H24.113z"/><path fill="#403c58" d="M23.546 23.824h176.94v7.517H23.546z"/><g fill="#fff"><circle cx="29.132" cy="27.667" r="1.393"/><circle cx="34.419" cy="27.667" r="1.393"/><circle cx="39.709" cy="27.667" r="1.393"/></g><path d="M55.582 51.089L44.547 61.984l11.035 10.9 2.483-2.483-8.344-8.345 8.414-8.414zm11.904 0l11.034 10.9-11.034 10.895-2.483-2.483 8.345-8.345-8.414-8.414z" fill="#f9746c"/><circle cx="61.136" cy="104.182" r="5.798" fill="#e6e6e6"/><path d="M79.553 99.544a1.16 1.16 0 00-1.004 1.739 1.16 1.16 0 001.004.579h54.654a1.16 1.16 0 001.004-1.739 1.16 1.16 0 00-1.004-.579zm0 6.955a1.16 1.16 0 00-1.004 1.739 1.16 1.16 0 001.004.579h23.519a1.16 1.16 0 001.004-1.739 1.16 1.16 0 00-1.004-.579z" fill="#6c63ff"/><path d="M45.046 91.324h135v26h-135z" fill="none" stroke="#e6e6e6"/><g fill="#e6e6e6"><path d="M101.546 52.824h79v4h-79zm0 7h54v4h-54zm0 8h69v4h-69z"/><circle cx="2.178" cy="2.178" r="2.178"/><circle cx="13.202" cy="2.178" r="2.178"/><circle cx="24.227" cy="2.178" r="2.178"/><circle cx="35.252" cy="2.178" r="2.178"/><circle cx="46.276" cy="2.178" r="2.178"/><circle cx="57.301" cy="2.178" r="2.178"/><circle cx="2.178" cy="13.341" r="2.178"/><circle cx="13.202" cy="13.341" r="2.178"/><circle cx="24.227" cy="13.341" r="2.178"/><circle cx="35.252" cy="13.341" r="2.178"/><circle cx="46.276" cy="13.341" r="2.178"/><circle cx="57.301" cy="13.341" r="2.178"/><circle cx="2.178" cy="24.504" r="2.178"/><circle cx="13.202" cy="24.504" r="2.178"/><circle cx="2.178" cy="35.668" r="2.178"/><circle cx="13.202" cy="35.668" r="2.178"/><circle cx="2.178" cy="46.831" r="2.178"/><circle cx="13.202" cy="46.831" r="2.178"/><circle cx="2.178" cy="57.994" r="2.178"/><circle cx="13.202" cy="57.994" r="2.178"/></g></svg>