<svg xmlns="http://www.w3.org/2000/svg" xmlns:xlink="http://www.w3.org/1999/xlink" width="455.598" height="336.349"><style>.B{opacity:.1}.C{fill:#2f2e41}.D{fill:#ffb8b8}.E{fill:#6c63ff}.F{fill:#3f3d56}.G{fill:#493545}.H{fill:#a0616a}</style><circle cx="23.639" cy="48.543" r="23.639" class="E"/><path d="M92.715 35.791h-2.431a1.7 1.7 0 100-3.4H70.591a1.7 1.7 0 000 3.4h2.431a1.7 1.7 0 100 3.4h-3.4a1.7 1.7 0 000 3.4h19.689a1.7 1.7 0 100-3.4h3.4a1.7 1.7 0 000-3.4zm-27.019 17.13h-3.193a2.236 2.236 0 002.016-3.38 2.24 2.24 0 00-2.016-1.089H36.631a2.236 2.236 0 00-2.142 2.235 2.24 2.24 0 002.142 2.235h3.193a2.236 2.236 0 00-2.142 2.235 2.24 2.24 0 002.142 2.235h-4.47a2.236 2.236 0 00-2.142 2.235 2.24 2.24 0 002.142 2.235h25.872a2.236 2.236 0 002.016-3.38 2.24 2.24 0 00-2.016-1.089h4.47a2.236 2.236 0 002.142-2.235 2.24 2.24 0 00-2.142-2.235z" opacity=".5" fill="#dee3f3"/><path d="M266.794 16.371c3.822 8.133-4.277 10.437-13.554 14.8s-16.22 9.123-20.041.99-6.923-24.276 6.2-30.443c13.577-6.384 23.573 6.522 27.395 14.653z" class="C"/><circle cx="247.868" cy="19.876" r="12.489" class="D"/><path d="M309.741 75.262l-1.3-1.658q-.846-1.053-1.7-2.039c-6.473-7.47-13.358-12.173-20.939-12.677h-.01l-.112-.01-20.243 19.726.112.275 2.771 6.9h48.555a119.41 119.41 0 00-7.129-10.521zm-75.454-50.358l4.471-2.1-.623-6.449 2.989 5.337 2.137-1-.36-3.763 1.744 3.113 15.877-7.461c-3.105-6.608-10.98-9.448-17.588-6.343l-2.3 1.081c-6.608 3.104-9.449 10.976-6.347 17.585z" class="C"/><path d="M337.758 251.599H76.987a8.4 8.4 0 01-8.39-8.39V86.517a6.154 6.154 0 016.146-6.147h265.152a6.26 6.26 0 016.253 6.253v156.586a8.4 8.4 0 01-8.39 8.39z" fill="#f2f2f2"/><path d="M85.122 243.209h244.5a8.14 8.14 0 008.136-8.136V102.08a8.14 8.14 0 00-8.136-8.136h-244.5a8.135 8.135 0 00-8.136 8.136v132.993a8.135 8.135 0 008.136 8.136z" fill="#fff"/><path d="M346.032 86.038H68.48v-4.272a8.43 8.43 0 018.421-8.415h260.71a8.43 8.43 0 018.421 8.415z" class="E"/><g fill="#fff"><circle cx="83.781" cy="79.706" r="2.178"/><circle cx="92.049" cy="79.706" r="2.178"/><circle cx="100.316" cy="79.706" r="2.178"/></g><g fill="#ccc"><use xlink:href="#B"/><path d="M210.68 208.265h-13.221a1.527 1.527 0 01-1.525-1.525v-16.272a1.527 1.527 0 011.525-1.525h9.58a1.53 1.53 0 01.956.336l3.641 2.926c.361.289.571.726.57 1.189v13.346a1.527 1.527 0 01-1.525 1.525zm-13.221-18.305a.51.51 0 00-.508.508v16.272a.51.51 0 00.508.508h13.221a.51.51 0 00.508-.508v-13.346a.51.51 0 00-.19-.4l-3.641-2.926a.51.51 0 00-.318-.112z"/><use xlink:href="#C"/><use xlink:href="#C" y="3.051"/><use xlink:href="#C" y="6.101"/><use xlink:href="#B" x="51.865"/><path d="M263.053 204.197h-14.237a1.527 1.527 0 01-1.525-1.525v-8.136a1.527 1.527 0 011.525-1.525h14.238a1.527 1.527 0 011.525 1.525v8.135a1.527 1.527 0 01-1.525 1.525zm-14.237-10.169a.51.51 0 00-.508.508v8.135a.51.51 0 00.508.508h14.238a.51.51 0 00.509-.508v-8.136a.51.51 0 00-.508-.508z"/><path d="M255.934 199.945c-.286 0-.565-.079-.808-.23l-7.6-4.748a.51.51 0 01.016-.898.51.51 0 01.523.036l7.6 4.748a.51.51 0 00.539 0l7.6-4.748a.51.51 0 01.792.411.51.51 0 01-.253.452l-7.6 4.748a1.53 1.53 0 01-.809.23z"/><use xlink:href="#B" x="-51.866"/><path d="M159.321 204.197h-14.237a1.527 1.527 0 01-1.525-1.525v-8.136a1.527 1.527 0 011.525-1.525h14.238a1.527 1.527 0 011.525 1.525v8.135a1.527 1.527 0 01-1.526 1.526zm-14.237-10.169a.51.51 0 00-.508.508v8.135a.51.51 0 00.508.508h14.238a.51.51 0 00.508-.508v-8.136a.51.51 0 00-.508-.508z"/><path d="M157.064 204.197h-10.233a1.016 1.016 0 01-.881-1.526l3.082-5.339a1.017 1.017 0 011.762 0l1.991 3.448 1.153-2a1.017 1.017 0 011.762 0l2.245 3.889a1.015 1.015 0 01-.881 1.526zm0-1.017l-2.245-3.889-1.594 2.76a.51.51 0 01-.44.254.51.51 0 01-.44-.254l-2.431-4.211-3.082 5.339z"/><circle cx="157.796" cy="196.061" r="1.017"/></g><path d="M400.961 329.575h-6.232l-2.966-24.045h9.2z" class="D"/><path d="M402.552 335.618h-20.1v-.254a7.824 7.824 0 017.824-7.824h12.277z" class="C"/><path d="M426.385 329.575h-6.232l-2.965-24.045h9.2z" class="D"/><path d="M427.977 335.618h-20.1v-.254a7.824 7.824 0 017.824-7.824h12.277zm-3.46-16.467l-5.774-1.756a2.286 2.286 0 01-1.61-1.949l-5.383-51.014a.244.244 0 00-.243-.228.24.24 0 00-.26.208l-9.016 49.424a2.29 2.29 0 01-2.713 1.83l-7.379-1.52a2.3 2.3 0 01-1.821-2.4l5.484-81.008 37.19-4.013-5.528 90.376a2.29 2.29 0 01-.977 1.741c-.575.4-1.302.514-1.973.309z" class="C"/><circle cx="424.481" cy="147.708" r="12.489" class="D"/><path d="M395.747 231.218l8.064-50.773a19.25 19.25 0 0124.41-15.458c9.506 2.749 15.363 12.276 13.526 22l-8.433 45.342z" class="E"/><path d="M427.93 240.303a5.115 5.115 0 00.888-7.79l8.337-16.145-9.389 1-6.478 15.178a5.14 5.14 0 006.641 7.755z" class="D"/><path d="M429.715 229.665a2.29 2.29 0 01-1.234-.585l-3.19-2.947a2.3 2.3 0 01-.555-2.57l6.375-15.111-.9-29.858a7.37 7.37 0 0111.818-4.83 7.37 7.37 0 012.789 6.823l1.546 18.769a23.58 23.58 0 01-4.545 15.965l-9.942 13.44a2.29 2.29 0 01-1.625.917 2.26 2.26 0 01-.537-.013z" class="E"/><path d="M352.561 140.904a5.114 5.114 0 006.827 3.855l11.617 13.972 2.738-9.037-11.451-11.883a5.14 5.14 0 00-9.731 3.092z" class="D"/><path d="M361.662 146.696a2.29 2.29 0 011.02-.908L366.64 144a2.3 2.3 0 012.583.491l11.43 11.762 27.848 10.809a7.371 7.371 0 01-7.53 12.674l-17.888-5.895a23.58 23.58 0 01-12.929-10.41l-8.5-14.4a2.29 2.29 0 01-.211-1.854 2.26 2.26 0 01.219-.481z" class="E"/><path d="M434.612 191.014l-.508 16.272-9.368 16.276 7.821-18.139z" class="B"/><path d="M423.052 150.055a3.266 3.266 0 01-3.575-2.391 4.965 4.965 0 00-3.534-3.7c-2.291-.523-5.091.555-6.77-1.181a3.373 3.373 0 01-.8-2.971 6.82 6.82 0 012.829-3.98 17.32 17.32 0 019.593-3.585c1.804-.052 3.61.038 5.4.269a23.9 23.9 0 015.524 1.009 13.005 13.005 0 018.137 9.5 15.012 15.012 0 01-3.08 12.27 16.12 16.12 0 01-6.183 4.708 2.41 2.41 0 01-1.834.093c-1.5-.6-1.258-2.461-.572-3.7.734-1.33 1.863-2.617 1.273-4.235a3.2 3.2 0 00-1.59-1.712 8.2 8.2 0 00-4.774-.4z" class="C"/><path d="M348.388 157.108h-154.58a8.4 8.4 0 01-8.39-8.39v-33.052a8.4 8.4 0 018.39-8.39h154.58a8.4 8.4 0 018.39 8.39v33.052a8.4 8.4 0 01-8.39 8.39z" fill="#fff"/><path d="M348.388 157.362H193.809a8.654 8.654 0 01-8.644-8.644v-33.052a8.654 8.654 0 018.644-8.644h154.58a8.654 8.654 0 018.644 8.644v33.052a8.654 8.654 0 01-8.645 8.644zm-154.579-49.323a7.64 7.64 0 00-7.627 7.627v33.052a7.64 7.64 0 007.627 7.627h154.58a7.64 7.64 0 007.627-7.627v-33.052a7.64 7.64 0 00-7.627-7.627z" class="F"/><path d="M329.574 148.971H212.622a8.4 8.4 0 01-8.39-8.39v-17.287a8.4 8.4 0 018.39-8.39h116.952a8.4 8.4 0 018.39 8.39v17.289a8.4 8.4 0 01-8.39 8.388z" fill="#f2f2f2"/><circle cx="237.789" cy="129.621" r="10.034" fill="#f86584"/><path d="M322.307 147.964l-28.081-23.555a2.034 2.034 0 00-2.62.005l-17.262 14.591-20.637-17.308a2.034 2.034 0 00-2.62.005l-31.198 26.371a.51.51 0 00.329.9l42.431-.082-.1.084 59.429-.115a.51.51 0 00.326-.9z" class="F"/><path d="M455.09 336.349h-97.63a.51.51 0 01-.509-.509.51.51 0 01.509-.509h97.629a.51.51 0 01.509.509.51.51 0 01-.509.509z" fill="#ccc"/><path d="M317.18 67.076a5.71 5.71 0 00-3.686-2.593 5.24 5.24 0 00-.844-.107l-38.742-34.634a4.587 4.587 0 00-2.863-1.368 3.9 3.9 0 00-.646-.02 4.6 4.6 0 00-3.031 7.871l39.189 34.16a6.08 6.08 0 00.178 1.185 5.73 5.73 0 004.917 4.256 5.64 5.64 0 003.076-.508 5.8 5.8 0 001.973-1.51l.158-.2a5.74 5.74 0 00.32-6.529zm-66.268 33.382l-.361-14.675-.925-37.312a4.6 4.6 0 00-7.988-2.67 3.52 3.52 0 00-.381.488 4.546 4.546 0 00-.793 3.076l.905 24.24 1.032 27.712a6.13 6.13 0 00-.452.717 5.75 5.75 0 108.964-1.576z" class="D"/><path d="M285.797 58.889l-3.6-9.737-5.815-15.773a8.14 8.14 0 00-5.06-4.922l-.28-.086a8.13 8.13 0 00-6.732.925l-19.592 12.427a8.183 8.183 0 00-2.68 11.06 140.5 140.5 0 008 12.3c2.283 3.107 6.534 3.437 7.271 8.522h14.446l14.627-13.129z" fill="#cbcbcb"/><g class="H"><circle cx="61.465" cy="166.113" r="11.782"/><path d="M90.391 158.003q.174.139.338.294a5.28 5.28 0 01-.212 7.873 4.96 4.96 0 01-.414.312l.8 26.922a4.1 4.1 0 01-2.82 4l-.049.01-21.859 2.328a4.526 4.526 0 11-.877-9.007l15.582-1.372 2.695-23.315a5.02 5.02 0 01-.494-.5 5.28 5.28 0 017.311-7.542zm-9.519 172.092h5.882l2.8-22.685h-8.68z"/></g><path d="M79.371 328.175h11.583a7.382 7.382 0 017.381 7.381v.24H79.372z" class="C"/><path d="M22.414 321.964l5.053 3.009 14.01-18.06-7.458-4.441z" class="H"/><path d="M22.11 319.547l9.952 5.925a7.38 7.38 0 012.566 10.118l-.123.206-16.294-9.7zm66.032 2.536h-6.586a2.155 2.155 0 01-2.147-1.931l-6.639-62.41a.72.72 0 00-1.371-.22l-11.978 26.522-21.206 34.578a2.17 2.17 0 01-2.71.847l-8.471-3.727a2.16 2.16 0 01-.984-3.083l19.494-32.641 5.979-27.5c-1.88-11.927 6.181-29.658 6.262-29.836l.04-.087 22.2-8.679.111.136c8.757 28.736 14.093 59.662 10.153 106.054a2.173 2.173 0 01-2.147 1.977z" class="C"/><path d="M56.931 225.5l-.1-.217c-.049-.1-4.987-10.517-8.793-21.647a16.417 16.417 0 011.138-13.156 16.6 16.6 0 0110.583-8.138 16.62 16.62 0 0119.286 9.951c3.019 7.55 2.057 15.608 1.151 21.945l-.018.127-.115.055z" class="F"/><g class="C"><path d="M75.752 159.458H57.043v-8.155c4.106-1.631 8.125-3.019 10.554 0a8.155 8.155 0 018.155 8.155z"/><path d="M56.005 149.863c-11.185 0-14.315 14.02-14.315 21.929 0 4.411 1.995 5.988 5.129 6.522l1.107-5.9 2.593 6.158 2.764-.03.879-1.81 1.96 1.778c7.851.012 14.2 1.156 14.2-6.713-.002-7.919-2.747-21.934-14.317-21.934z"/></g><path d="M108.162 336.349H10.535a.51.51 0 01-.509-.509.51.51 0 01.509-.509h97.627a.51.51 0 01.509.509.51.51 0 01-.509.509z" fill="#ccc"/><path d="M110 169.057H88.13a4.836 4.836 0 01-4.831-4.831v-21.864a4.836 4.836 0 014.831-4.831H110a4.836 4.836 0 014.831 4.831v21.865a4.835 4.835 0 01-4.831 4.83z" fill="#fff"/><path d="M110 169.057H88.13a4.836 4.836 0 01-4.831-4.831v-21.864a4.836 4.836 0 014.831-4.831H110a4.836 4.836 0 014.831 4.831v21.865a4.835 4.835 0 01-4.831 4.83zm-21.87-30.509a3.82 3.82 0 00-3.814 3.814v21.865a3.82 3.82 0 003.814 3.814H110a3.82 3.82 0 003.814-3.814v-21.865a3.82 3.82 0 00-3.814-3.814z" class="F"/><path d="M106.186 160.159H91.949a1.527 1.527 0 01-1.525-1.525v-10.678a1.527 1.527 0 011.525-1.525h4.008a1.515 1.515 0 011.3.726l1.118 1.817h7.813a1.527 1.527 0 011.525 1.525v8.136a1.527 1.527 0 01-1.525 1.525z" class="E"/><path d="M105.722 165.554q.107.2.2.4a5.28 5.28 0 01-3.251 7.174 5.013 5.013 0 01-.5.127l-9.712 25.122a4.1 4.1 0 01-4.151 2.593l-.049-.009-21.05-6.337a4.524 4.524 0 112.688-8.642l14.894 4.782 11.531-20.442a5 5 0 01-.26-.656 5.28 5.28 0 019.665-4.114z" class="H"/><g class="G"><path d="M136.668 261.928s-2.9-4.576-7.251-.412-7.454 18.016-7.454 18.016-1.658 11.185 3.932 8.285c0 0 6.61-9.321 8.492-9.732s3.936-5.593 3.936-5.593z"/><use xlink:href="#D"/></g><use xlink:href="#D" opacity=".05"/><use xlink:href="#E" fill="#3e3d77"/><use xlink:href="#E" opacity=".05"/><path d="M186.992 265.445c1.241 7.871-5.8 8.492-5.8 8.492s-31.689.62-35.416-.208-8.7 1.449-8.7 1.449c-6.422-3.936-1.241-13.668-1.241-13.668s13.256-.412 16.363-1.017 18.844-1.464 18.844-1.464-1.241-7.663-9.529-27.128c-5.629-13.221-1.525-21 1.714-24.626a13.64 13.64 0 012.842-2.5l25.475 1.241a33.04 33.04 0 00.142 3.849 41 41 0 003.382 12.708c-1.449 0-10.77 8.7-10.77 8.7s1.449 26.306 2.694 34.172z" fill="#3e3d77"/><path d="M137.7 262.339s13.256-.412 16.363-1.017 18.844-1.449 18.844-1.449-1.241-7.663-9.529-27.128c-5.629-13.221-1.525-21 1.714-24.626a13.654 13.654 0 012.842-2.5l23.6 1.149v-.737l-25.468-1.242a13.66 13.66 0 00-2.843 2.5c-3.224 3.631-7.342 11.405-1.714 24.626 8.309 19.45 9.539 27.112 9.539 27.112s-15.763.829-18.844 1.449-16.363 1.017-16.363 1.017-5.176 9.738 1.241 13.688c0 0 .193-.092.508-.224-4.268-4.385.11-12.618.11-12.618z" class="B"/><path d="M162.758 128.76h12.839v32.513h-12.839z" class="G"/><path d="M162.758 128.76h12.839v32.513h-12.839z" class="B"/><use xlink:href="#F" class="G"/><use xlink:href="#F" class="B"/><path d="M128.589 109.706l-4.968 4.144-1.47-1.81c-3.453-4.409-11.39-15.468-5.781-17.446s10.043 8.807 11.609 13.261c.396 1.129.61 1.851.61 1.851zm89.676-1.448c-2.07 3.107-4.968 0-4.968 0l-.895-1.449c-1.7-2.883-5.044-9.275-2.832-11.807 2.542-2.893 8.843 6.982 9.036 11.614a2.76 2.76 0 01-.341 1.642zm-50.95 33.55s4.144 13.256 2.9 17.187 8.909 8.507 8.909 8.507h11.6s4.144-8.492 3.107-10.978-9.941-4.348-9.941-4.348-5.176 0-4.968-13.877z" fill="#c77485"/><path d="M218.265 108.258c-2.07 3.107-4.968 0-4.968 0l-.895-1.449.066-.208c1.342.961 5.517.142 6.137 0a2.754 2.754 0 01-.341 1.658zm-26.584 101.6c-6.407 2.924-27.224-2.283-28.475-2.593a13.654 13.654 0 012.842-2.5l25.475 1.241c-.022 1.287.03 2.574.158 3.854z" class="B"/><path d="M170.009 153.197s-4.968 1.658-12.01-4.765c0 0-15.763-15.534-16.78-19.261l-12.2-21.356s-5.176 5.593-7.251 4.764l13.668 23.817s2.487 4.576 4.765 5.8c0 0 16.983 21.748 17.187 26.1s7.653 15.992 7.653 15.992 2.487 18.844-1.866 22.16c0 0 24.229 6.214 29.406 2.07 0 0-2.278-23.39 0-25.887 0 0 7.043-8.283 2.278-17.4 0 0-1.017-4.968 1.658-7.454s14.7-20.925 14.7-20.925 2.9-4.144 2.9-6.834c0 0 5.385-18.224 4.576-22.989 0 0-4.765 1.017-6.214 0 0 0-7.042 21.356-7.871 22.16s-6.61 17.6-14.289 19.47-8.9 2.69-8.9 2.69 14.909 9.321 7.663 13.46-19.073-11.612-19.073-11.612z" fill="#ffaac4"/><path d="M179.422 144.996a39.57 39.57 0 01-.3-5.883l-11.6 3.519c.305.773.548 1.569.727 2.38 1.327.585 3.117 1.968 4.658 1.968a10.56 10.56 0 006.514-1.983z" class="B"/><circle cx="172.7" cy="135.594" r="10.77" fill="#c77485"/><path d="M159.886 119.002c-2.37.183-5.014 1.82-4.881 4.2.071 1.307.966 2.41 1.358 3.661.941 3.025-1.154 6.061-3 8.644s-3.559 6.005-1.983 8.741a21.57 21.57 0 001.454 1.9c1.948 2.629 1.922 6.178 2.786 9.336a16.38 16.38 0 0019.241 11.7 10.24 10.24 0 01-2.161-6.926c.117-1.81.7-3.7 0-5.375-.905-2.151-3.559-3-4.927-4.881s-1.276-4.49-.615-6.732 1.805-4.322 2.354-6.61c.135-.668.305-1.328.508-1.978.956-2.715 3.814-4.292 6.61-4.968s5.736-.717 8.466-1.607 5.385-2.975 5.7-5.837c-2.3.92-4.429-1.48-6.646-2.583-3.651-1.81-7.815-.107-11.578.31-4.281.465-8.349-1.31-12.686-.995z" class="B"/><path d="M159.677 118.59c-2.37.183-5.014 1.82-4.881 4.195.071 1.307.966 2.41 1.358 3.661.941 3.025-1.154 6.061-2.995 8.644s-3.559 6.005-1.983 8.741a21.55 21.55 0 001.454 1.9c1.948 2.629 1.922 6.178 2.786 9.336a16.38 16.38 0 0019.241 11.7 10.24 10.24 0 01-2.161-6.926c.117-1.81.7-3.7 0-5.375-.905-2.151-3.559-3-4.927-4.881s-1.276-4.49-.615-6.732 1.805-4.322 2.354-6.61c.136-.668.306-1.328.509-1.978.956-2.715 3.814-4.292 6.61-4.968s5.736-.717 8.466-1.607 5.385-2.975 5.7-5.837c-2.3.92-4.429-1.48-6.646-2.583-3.651-1.81-7.815-.107-11.578.31-4.277.465-8.329-1.33-12.692-.99z" class="G"/><path d="M183.367 159.518s4.312 3.849 5.161 5.548m4.17 17.441a46.38 46.38 0 00-7.871.62c-2.487.62-8.492 0-8.492 0" class="B"/><g class="B"><path d="M189.062 164.797a5.2 5.2 0 01-1.49.569 5.7 5.7 0 003.976-.569c7.251-4.144-7.663-13.46-7.663-13.46h-2.486s14.914 9.321 7.663 13.46zm29.665-57.404a2.166 2.166 0 00-.051-.376 24.12 24.12 0 01-2.578.392 11.42 11.42 0 002.629-.016zm-53.065 99.033c4.348-3.315 1.866-22.16 1.866-22.16s-7.454-11.6-7.663-15.946-17.187-26.1-17.187-26.1c-2.278-1.241-4.764-5.8-4.764-5.8s-14.085-22.981-16.155-23.81l13.668 23.817s2.487 4.576 4.765 5.8c0 0 16.983 21.748 17.187 26.1s7.658 15.961 7.658 15.961 2.487 18.844-1.866 22.16c0 0 14.894 3.819 23.823 3.473-8.951-.322-21.332-3.495-21.332-3.495zm4.469-53.065l-.122-.158a3.27 3.27 0 01-.432.1l.554.058z"/><path d="M218.677 106.992l-.127.025c-.219 6.361-4.632 21.306-4.632 21.306 0 2.69-2.9 6.834-2.9 6.834s-12.01 18.433-14.705 20.919-1.658 7.454-1.658 7.454l.025.051c-.081-1.673.122-4.266 1.836-5.853 2.69-2.487 14.705-20.919 14.705-20.919s2.9-4.144 2.9-6.834c0 .031 5.385-18.193 4.556-22.983zm-26.299 73.959c.31 1.759.1-.1.208 1.658 0 0 5.085-5.965 3.7-13.338.414 6.59-3.908 11.68-3.908 11.68z"/></g><defs><path id="B" d="M215.002 214.367h-21.865a4.836 4.836 0 01-4.831-4.831v-21.865a4.836 4.836 0 014.831-4.831h21.865a4.835 4.835 0 014.83 4.831v21.865a4.835 4.835 0 01-4.83 4.831zm-21.865-30.509a3.82 3.82 0 00-3.814 3.814v21.865a3.82 3.82 0 003.814 3.814h21.865a3.82 3.82 0 003.814-3.814v-21.866a3.82 3.82 0 00-3.814-3.814z"/><path id="C" d="M208.136 196.062H200a.51.51 0 01-.509-.509.51.51 0 01.509-.509h8.136a.51.51 0 01.509.508.51.51 0 01-.509.509z"/><path id="D" d="M167.732 273.109s-3.936-1.866-5.176-.412-5.385 15.946-5.385 15.946-1.241 9.529 2.9 9.112 11.39-15.336 11.39-15.336z"/><path id="E" d="M181.4 244.944l8.9 13.877s-.62 3.107-6.005 2.487l-18.43 11.598s-1.6 14.121 3.519 12.839c.829-.208 6.61-6.214 10.77-5.8l24.443-9.529s5.8-3.315 2.69-14.288-13.378-36.418-13.378-36.418l-16.236 9.082z"/><path id="F" d="M182.94 123.991c.442.122.941.137 1.241.747.186.488.288 1.003.3 1.525l.809 10.048a5.59 5.59 0 00.376 1.922c.341.681.905.763 1.347 1.2.89.885 1.149 3.1.905 4.907a32.24 32.24 0 01-1.342 4.983c-.692 2.339-1.149 4.968-2.12 6.941s-2.736 3.051-3.875 1.393-.987-5-1.2-7.744c-.356-4.576-2.141-8.522-2.263-13.129-.1-3.727.9-7.205 1.525-10.739.447-2.425.473-5.37 1.124-7.551.544 2.593 1.582 5.059 3.173 5.497z"/></defs></svg>