<svg xmlns="http://www.w3.org/2000/svg" width="452" height="247.121"><style>.B{fill:#6c63ff}.C{fill:#ff6584}.D{fill:#3f3d56}.E{fill:#3351ff}.F{fill:#dcdfe8}.G{stroke:#3f3d56}</style><path d="M231.21 112.488c12.554 13.364 31.599 6.749 42.526 5.196s38.245.932 45.117 24.611" fill="none" stroke-width="1.001" class="G"/><path d="M55.154 87.039V24.036h12.547v63.003z" class="E"/><path d="M74.408 87.039V48.368h12.547v38.671z" class="C"/><path d="M35.901 87.039V38.375h12.547v48.664z" class="B"/><path d="M180.635 69.862a30.88 30.88 0 00-27.6-44.712v28.376z" class="D"/><path d="M150.327 88.466V25.145a31.66 31.66 0 00-31.66 31.661c0 17.485 14.175 31.66 31.66 31.66z" class="B"/><path d="M153.042 88.311a29.084 29.084 0 0026-16.049l-26-15.386z" class="C"/><path d="M163.522 50.007l-.219-.211 16.34-15.745h28.467v.3h-28.339z" fill="#2f2e41"/><path d="M53.883 111.957h6.586v14.968h-6.586z" class="E"/><path d="M35.922 111.957h6.586v6.586h-6.586z" class="B"/><path d="M35.922 120.938h6.586v14.968h-6.586zm17.961 7.783h6.586v7.184h-6.586z" class="F"/><path d="M44.903 111.957h6.586v10.777h-6.586z" class="C"/><path d="M44.903 125.129h6.586v10.777h-6.586zm35.323-13.172h6.586v14.968h-6.586zm-17.961 0h7.184v6.586h-7.184zm0 8.981h7.184v14.968h-7.184zm17.961 7.783h6.586v7.184h-6.586zm-8.98-16.764h6.586v10.777h-6.586zm0 13.172h6.586v10.777h-6.586zm-17.363 12.572h6.586v14.968h-6.586zm-17.961 0h6.586v7.184h-6.586zm0 8.981h6.586v14.968h-6.586zm17.961 8.382h6.586v6.586h-6.586zm-8.98-17.363h6.586v10.777h-6.586zm0 13.172h6.586v10.777h-6.586zm35.323-13.172h6.586v14.968h-6.586zm-17.961 0h7.184v7.184h-7.184z" class="F"/><path d="M62.265 146.682h7.184v14.968h-7.184z" class="E"/><path d="M80.226 155.064h6.586v6.586h-6.586z" class="B"/><path d="M71.246 137.701h6.586v10.777h-6.586z" class="F"/><path d="M71.246 150.873h6.586v10.777h-6.586z" class="C"/><path d="M331.683 192.185h83.22v25.146h-83.22z" class="D"/><ellipse cx="373.293" cy="191.885" rx="41.61" ry="8.681" class="B"/><g class="D"><ellipse cx="373.293" cy="217.93" rx="41.61" ry="8.981"/><path d="M331.683 159.256h83.22v25.146h-83.22z"/></g><ellipse cx="373.293" cy="159.555" rx="41.61" ry="9.28" class="B"/><g class="D"><ellipse cx="373.293" cy="185.599" rx="41.61" ry="9.579"/><path d="M331.683 128.123h83.22v25.146h-83.22z"/></g><ellipse cx="373.293" cy="127.824" rx="41.61" ry="9.28" class="B"/><ellipse cx="373.293" cy="153.568" rx="41.61" ry="9.28" class="D"/><g class="C"><path opacity=".8" d="M371.227 152.398h4.451v4.451h-4.451z"/><path d="M377.626 152.398h4.451v4.451h-4.451z"/><path opacity=".4" d="M364.828 152.398h4.451v4.451h-4.451z"/><path opacity=".8" d="M371.227 184.333h4.451v4.451h-4.451z"/><path d="M377.626 184.333h4.451v4.451h-4.451z"/><path opacity=".4" d="M364.828 184.333h4.451v4.451h-4.451z"/><path opacity=".8" d="M371.227 216.532h4.451v4.451h-4.451z"/><path d="M377.626 216.532h4.451v4.451h-4.451z"/><path opacity=".4" d="M364.828 216.532h4.451v4.451h-4.451z"/></g><g fill="none" class="G"><path d="M.5.5h247.464v185.198H.5z" stroke-dasharray="6"/><path d="M123.457 111.958v49.876h75.49"/><path d="M133.811 140.695l18.355-12.982 22.169 5.179 20.953-14.589"/></g><g class="E"><circle cx="134.11" cy="140.695" r="3.592"/><circle cx="152.67" cy="128.122" r="3.592"/><circle cx="174.822" cy="132.912" r="3.592"/><circle cx="195.178" cy="119.142" r="3.592"/></g><path fill="none" d="M27.839 87.111h65.858" class="G"/><path d="M444.21 187.63l-7.269-7.793 7.793-7.269 7.269 7.793zm-6.11-7.753l6.15 6.594 6.594-6.15-6.151-6.594z" class="B"/><g fill="#2e2fff"><path d="M311.763 227.81l14.076 14.386-19.751 4.924z"/><path d="M313.848 223.795l-6.32 21.935 22.195-5.533-15.875-16.402m-.483-1.937l18.284 18.889-25.561 6.373 7.277-25.262z"/></g><circle cx="356.048" cy="95.778" r="4.87" class="C"/><path d="M198.771 40.113h9.579v2.994h-9.579z" class="B"/><path d="M198.771 47.297h9.579v2.994h-9.579z" class="C"/><path d="M198.771 54.482h9.579v2.994h-9.579z" class="F"/></svg>