<svg xmlns="http://www.w3.org/2000/svg" viewBox="0 0 620 248"><path d="M0 0h620v248H0z" fill="#23a0cc"/><path d="M600.93 28.51a7.5 7.5 0 01-7.44-7.44v-.62H324.92v1.26h267.34a8.7 8.7 0 008 8V219.5a8.77 8.77 0 00-8 8H328.1v1.26h265.38v-.62a7.5 7.5 0 017.44-7.41h.63V28.51zM27.42 20.49v.62A7.51 7.51 0 0120 28.52h-.63v192.21H20a7.49 7.49 0 017.44 7.43v.62h265.37v-1.25H28.64a8.75 8.75 0 00-8-8V29.74a8.7 8.7 0 008-8H296v-1.29H28.05zM296.53 225.6h2.71v7.4h1.85v-7.4h2.62v-1.54h-7.18zm8.01.78h1.72v6.64h-1.72zm0-2.32h1.72v1.54h-1.72zm7.12 0h-3.51v9h3.51a3.34 3.34 0 002.83-1.05 6 6 0 000-6.88 3.3 3.3 0 00-2.83-1zm0 7.43H310v-5.89h1.66c1.39 0 2.08 1 2.08 2.9s-.7 3-2.08 3zm11.22-3.22c.89-.57 1.24-1.08 1.24-1.85s-.57-2.36-2.9-2.36h-4v9h4c2.51 0 3.14-1.52 3.14-2.59a2.47 2.47 0 00-1.52-2.17zM319 225.6h2c.84 0 1.3.36 1.3 1s-.46 1-1.3 1h-2zm2.21 5.89H319v-2.32h2.21c.9 0 1.36.4 1.36 1.16s-.44 1.16-1.34 1.16zM310.48 9.67L301 15.16v11l9.5 5.5 9.46-5.5v-11zm0 7.3V28l-3.19-1.84v-7.3l-3.15 1.81V17l6.34-3.63 3.16 1.82zm6.34 7.31l-3.2 1.83v-7.28l3.16-1.83z" fill="#172d72"/><path d="M174.27 56.86a16.11 16.11 0 00-12.53-6.19H98.38a16.11 16.11 0 00-12.53 6.19l-29.5 36.8A17.21 17.21 0 0053.07 108c2.83 13.08 9.93 39.7 24.75 63.58 7.81 12.58 32.6 25.6 44.94 31.52a16.5 16.5 0 0014.26 0c12.42-5.9 37.46-18.94 45.29-31.55 14.83-23.89 21.92-50.5 24.74-63.62a17.2 17.2 0 00-3.28-14.3z" fill="#1b2e68"/><path d="M130.06 65.9l-9.5 5.48v11l9.5 5.48 9.5-5.48v-11zm0 7.3v11l-3.16-1.82V75l-3.16 1.82V73.2l6.32-3.64 3.15 1.82zm6.32 7.33l-3.17 1.83v-7.31l3.17-1.84zm-41.59 22.23h-1.16v1.77h-1v-5.68h2.13a1.7 1.7 0 011.93 1.43 1.46 1.46 0 010 .51 2.09 2.09 0 01-.49 1.49 1.85 1.85 0 01-1.44.48zm-1.16-.76h1.16c.67 0 1-.4 1-1.21a1.21 1.21 0 00-.25-.84.94.94 0 00-.72-.29h-1.21zm4.26-2.32v-1h.9v1zm0 4.84v-4.14h.9v4.14zm3.31.01h-.9v-4.14h.89v.25a2.28 2.28 0 011.15-.35 1.24 1.24 0 011.13.48 2.89 2.89 0 01.31 1.53v2.23h-.9v-2.2a2.3 2.3 0 00-.15-1 .6.6 0 00-.59-.28 2.06 2.06 0 00-.81.17h-.13zm7.65.56c0 .91-.65 1.35-1.93 1.35a2.87 2.87 0 01-1.39-.25 1.16 1.16 0 01-.31-1.49 2.43 2.43 0 01.48-.48.67.67 0 01-.27-.6 1.17 1.17 0 01.22-.54l.07-.13a1.33 1.33 0 01-.59-1.24 1.29 1.29 0 01.44-1.09 2 2 0 011.21-.35 3 3 0 01.72.09h1.41v.72h-.69a1.14 1.14 0 01.23.68 1.3 1.3 0 01-.41 1.12 2.1 2.1 0 01-1.29.31 1 1 0 01-.35 0 1.16 1.16 0 00-.12.44.18.18 0 00.15.2 2.62 2.62 0 00.74.07 2.51 2.51 0 011.35.27 1.1 1.1 0 01.33.92zm-2.9.08a.42.42 0 00.24.41 1.65 1.65 0 00.79.13c.67 0 1-.19 1-.57 0-.21-.06-.35-.18-.41a1.93 1.93 0 00-.72-.1h-.8a1 1 0 00-.26.27.64.64 0 00-.06.31zm.25-2.9a.84.84 0 00.59.17.8.8 0 00.58-.17.78.78 0 00.19-.56.75.75 0 00-.19-.56.82.82 0 00-.59-.18c-.51 0-.76.24-.76.74a.73.73 0 00.16.6zm5.8 2.35a1.91 1.91 0 01-1.69-.69 4.41 4.41 0 01-.44-2.26 4.22 4.22 0 01.45-2.24 1.88 1.88 0 011.68-.66 7.39 7.39 0 011.62.19v.75a8.25 8.25 0 00-1.49-.13 1.12 1.12 0 00-1 .44 3.81 3.81 0 00-.26 1.67 4 4 0 00.25 1.67 1.11 1.11 0 001 .43 9.51 9.51 0 001.51-.12v.76a7.47 7.47 0 01-1.63.18zm2.54-.09l1.39-5.68h1.83l1.41 5.68h-1l-.3-1.22h-2.19l-.3 1.22zm2.11-4.9l-.71 2.9h1.82l-.7-2.9zm5.83 3.13h-1.16v1.77h-1v-5.68h2.08a1.69 1.69 0 011.93 1.41 1.57 1.57 0 010 .53 2.12 2.12 0 01-.48 1.49 1.89 1.89 0 01-1.4.48zm-1.16-.79h1.15c.66 0 1-.4 1-1.21a1.25 1.25 0 00-.23-.84 1 1 0 00-.76-.28h-1.18zm8.52 2.65a1.89 1.89 0 01-1.68-.69 4.42 4.42 0 01-.45-2.26 4.14 4.14 0 01.46-2.24 1.87 1.87 0 011.67-.66 7.48 7.48 0 011.63.19v.75a8.33 8.33 0 00-1.49-.13 1.11 1.11 0 00-1 .44 3.54 3.54 0 00-.26 1.67 3.8 3.8 0 00.25 1.67 1.09 1.09 0 001 .43 9.61 9.61 0 001.51-.12v.76a7.56 7.56 0 01-1.64.18zm3.02-.09v-5.68h3.58v.78h-2.66v1.6H136v.8h-2.17v1.66h2.66v.81zm5.91-2v2h-.92v-5.7H140c1.27 0 1.93.6 1.93 1.81a1.62 1.62 0 01-1 1.64l1 2.23h-1l-.82-2zm2.21-1.84q0-1-1-1h-1.24v2.07H140a.87.87 0 00.72-.3 1.11 1.11 0 00.22-.77zm1.82-1.02v-.82h4.14v.82h-1.6v4.84h-1v-4.84zm5.32 4.86v-5.68h1v5.68zm2.64 0v-5.68h3.52v.78h-2.6v1.93h2.17v.8h-2.17v2.16zm4.8 0v-5.68h.92v5.68zm2.64 0v-5.68h3.58v.78h-2.66v1.6h2.16v.8h-2.16v1.66h2.66v.81zm6.96 0h-1.94v-5.68h1.94a2.09 2.09 0 011.79.67 3.6 3.6 0 01.48 2.08 7.09 7.09 0 01-.1 1.22 2.94 2.94 0 01-.34.91 2 2 0 01-1.83.8zm1.31-2.9a3.3 3.3 0 00-.25-1.49 1.13 1.13 0 00-1.06-.46h-1v4.07h1a1.09 1.09 0 001.09-.61 2.52 2.52 0 00.18-.65 5.79 5.79 0 000-.93z" fill="#fff"/><g fill="#23a0cc"><path d="M119 161.79l.94 1.93 2.11.3-1.52 1.5.36 2.1-1.89-1-1.9 1 .36-2.1L116 164l2.12-.3zm11.06 0l.94 1.93 2.12.3-1.53 1.5.36 2.1-1.89-1-1.9 1 .36-2.1L127 164l2.12-.3zm11.04 0l1 1.93 2.12.3-1.53 1.5.36 2.1-1.9-1-1.89 1 .36-2.1L138 164l2.12-.3zm16.5-2.74a4.84 4.84 0 00-2.44 3.6 4.87 4.87 0 004.32-.54 14.64 14.64 0 004.1-4.62 14.66 14.66 0 00-6 1.56z"/><path d="M157.66 166.2a4.85 4.85 0 01-2.51-3.55 4.84 4.84 0 014.33.46 14.58 14.58 0 014.2 4.54 14.6 14.6 0 01-6-1.45zm6.85-8.84a4.55 4.55 0 00-.85 4 4.6 4.6 0 003.56-2 13.8 13.8 0 001.93-5.46 13.74 13.74 0 00-4.64 3.46z"/><path d="M167.09 163.55a4.54 4.54 0 01-3.43-2.2 4.55 4.55 0 013.91-1.13 13.73 13.73 0 015.25 2.48 13.65 13.65 0 01-5.73.85zm3.55-9.69a4.58 4.58 0 00.09 4.08 4.62 4.62 0 003-2.77 13.73 13.73 0 00.63-5.8 13.9 13.9 0 00-3.72 4.49z"/><path d="M174.58 159.29a4.6 4.6 0 01-3.87-1.35 4.53 4.53 0 013.55-2 13.71 13.71 0 015.67 1.19 13.89 13.89 0 01-5.35 2.16zm.64-10.21a4.27 4.27 0 001.24 3.57 4.24 4.24 0 001.88-3.28 12.92 12.92 0 00-1.08-5.27 12.57 12.57 0 00-2 5z"/><path d="M180.24 152.76a4.23 4.23 0 01-3.78-.11 4.25 4.25 0 012.58-2.73 12.71 12.71 0 015.34-.55 12.59 12.59 0 01-4.14 3.39zm.84-18.76a2.76 2.76 0 002 1.38 2.72 2.72 0 00-.3-2.43 8.26 8.26 0 00-2.6-2.32 8.27 8.27 0 00.88 3.37z"/><path d="M185.1 133.91a2.73 2.73 0 01-2 1.41 2.75 2.75 0 01.27-2.43 8.1 8.1 0 012.55-2.36 8.28 8.28 0 01-.82 3.38zm-4.97 4.58a3.55 3.55 0 002.34 2.13 3.58 3.58 0 00.06-3.16 10.54 10.54 0 00-2.9-3.43 10.66 10.66 0 00.5 4.45z"/><path d="M185.28 139.19a3.54 3.54 0 01-2.81 1.43 3.56 3.56 0 01.77-3.06 10.73 10.73 0 013.7-2.54 10.57 10.57 0 01-1.66 4.17zm-6.93 4.93a4 4 0 001.81 3 3.94 3.94 0 001.07-3.35 12 12 0 00-2-4.6 11.89 11.89 0 00-.9 4.93z"/><path d="M183.62 146.51a4 4 0 01-3.46.63 3.91 3.91 0 011.82-3 11.73 11.73 0 014.76-1.52 11.85 11.85 0 01-3.12 3.91zm-.43-17.63a2.76 2.76 0 01-.4 2.41 2.71 2.71 0 01-1.55-1.93 8.12 8.12 0 01.1-3.47 8.23 8.23 0 011.84 3zm-80.66 30.17a4.84 4.84 0 012.44 3.6 4.87 4.87 0 01-4.32-.54 14.79 14.79 0 01-4.11-4.62 14.67 14.67 0 016 1.56z"/><path d="M102.45 166.2a4.85 4.85 0 002.51-3.55 4.84 4.84 0 00-4.33.46 14.58 14.58 0 00-4.2 4.54 14.6 14.6 0 006-1.45zm-6.84-8.84a4.55 4.55 0 01.85 4 4.6 4.6 0 01-3.56-2 13.8 13.8 0 01-1.9-5.46 13.74 13.74 0 014.64 3.46z"/><path d="M93 163.55a4.54 4.54 0 003.43-2.2 4.58 4.58 0 00-3.92-1.13 13.69 13.69 0 00-5.24 2.48 13.65 13.65 0 005.73.85zm-3.52-9.69a4.58 4.58 0 01-.09 4.08 4.62 4.62 0 01-3-2.77 13.89 13.89 0 01-.63-5.8 13.9 13.9 0 013.72 4.49z"/><path d="M85.54 159.29a4.6 4.6 0 003.87-1.35 4.53 4.53 0 00-3.55-2 13.71 13.71 0 00-5.67 1.19 14 14 0 005.35 2.16zm-.66-10.21a4.22 4.22 0 01-1.22 3.57 4.24 4.24 0 01-1.88-3.28 13 13 0 011.07-5.25 12.48 12.48 0 012.03 4.96z"/><path d="M79.88 152.76a4.23 4.23 0 003.78-.11 4.25 4.25 0 00-2.58-2.73 12.71 12.71 0 00-5.34-.55 12.59 12.59 0 004.14 3.39zM79 134a2.76 2.76 0 01-2 1.38 2.72 2.72 0 01.3-2.43 8.26 8.26 0 012.6-2.32A8.27 8.27 0 0179 134z"/><path d="M75 133.9a2.72 2.72 0 002 1.42 2.71 2.71 0 00-.25-2.43 8.28 8.28 0 00-2.55-2.31 8.16 8.16 0 00.8 3.32zm5 4.59a3.49 3.49 0 01-2.33 2.13 3.58 3.58 0 01-.06-3.16 10.54 10.54 0 012.9-3.43 10.57 10.57 0 01-.51 4.46z"/><path d="M74.84 139.19a3.54 3.54 0 002.81 1.43 3.57 3.57 0 00-.78-3.06 10.6 10.6 0 00-3.7-2.54 10.59 10.59 0 001.67 4.17zm6.93 4.93a4 4 0 01-1.81 3 3.94 3.94 0 01-1.07-3.35 11.92 11.92 0 011.93-4.6 11.78 11.78 0 01.95 4.95z"/><path d="M76.5 146.51a4 4 0 003.46.63 3.91 3.91 0 00-1.82-3 11.78 11.78 0 00-4.76-1.52 11.85 11.85 0 003.12 3.89zm.43-17.63a2.76 2.76 0 00.4 2.41 2.71 2.71 0 001.55-1.93 8.12 8.12 0 00-.1-3.47 8.09 8.09 0 00-1.84 3z"/></g><g fill="#fff"><path d="M118.15 121.12v-1.37h5.59v1.37h-2v6.24h-1.55v-6.24zm6.98-.07v-1.52h1.49v1.52zm0 6.31v-5.59h1.49v5.58zm6.13 0h-2.55v-7.6h2.55a5.22 5.22 0 011.62.2 2 2 0 011 .68 3 3 0 01.49 1.12 9.51 9.51 0 01.13 1.68 12 12 0 01-.12 1.7 3.73 3.73 0 01-.46 1.2 1.89 1.89 0 01-1 .77 4.88 4.88 0 01-1.66.25zm1.63-3v-1a7.85 7.85 0 000-1 1.8 1.8 0 00-.21-.68.84.84 0 00-.5-.44 3 3 0 00-.89-.11h-1v4.91h1a1.56 1.56 0 001.22-.43 2.1 2.1 0 00.38-1.31zm3.49-4.61h3a2.81 2.81 0 011.78.48 1.85 1.85 0 01.59 1.54 2.25 2.25 0 01-.18 1 1.79 1.79 0 01-.65.66 1.52 1.52 0 01.73.62 2.19 2.19 0 01.25 1.12 2.08 2.08 0 01-.65 1.65 2.82 2.82 0 01-1.82.53h-3zm2.9 1.32h-1.35v1.82h1.35a.91.91 0 000-1.82zm.05 3.1h-1.4V126h1.41a1.15 1.15 0 00.74-.2 1 1 0 00.24-.74c0-.61-.33-.92-1-.92zm-38.04 19.65l1.7-7.6h2.9l1.7 7.6h-1.54l-.3-1.38h-2.66l-.31 1.38zm2.9-6.33l-.77 3.61h2.08l-.78-3.61zm7.27-.06c-.81 0-1.22.27-1.22.8a.62.62 0 00.31.55 8.55 8.55 0 001.41.54 4 4 0 011.55.81 1.92 1.92 0 01.45 1.39 2.28 2.28 0 01-.72 1.81 2.84 2.84 0 01-1.94.62 11.09 11.09 0 01-2.14-.27l-.4-.08.16-1.2a17.7 17.7 0 002.29.2c.79 0 1.18-.33 1.18-1a.64.64 0 00-.27-.56 4 4 0 00-1.09-.44 4.45 4.45 0 01-1.83-.88 1.86 1.86 0 01-.53-1.41 2 2 0 01.7-1.69 2.86 2.86 0 011.93-.57 13.49 13.49 0 012.11.23l.4.07-.12 1.22a18.45 18.45 0 00-2.23-.14zm6.64 0c-.81 0-1.22.27-1.22.8a.63.63 0 00.3.55 8.91 8.91 0 001.41.54 4 4 0 011.56.81 2 2 0 01.44 1.39 2.25 2.25 0 01-.72 1.81 2.83 2.83 0 01-1.93.62 11 11 0 01-2.14-.27l-.4-.08.15-1.2a17.7 17.7 0 002.29.2c.79 0 1.18-.33 1.18-1a.64.64 0 00-.27-.56 4 4 0 00-1.09-.44 4.51 4.51 0 01-1.83-.88 1.89 1.89 0 01-.52-1.41 2 2 0 01.69-1.69 2.84 2.84 0 011.93-.57 13.36 13.36 0 012.1.23l.4.07-.12 1.22a18.12 18.12 0 00-2.21-.14zm9.58 5.57a3.64 3.64 0 01-4.84 0 5 5 0 01-.71-3 5.13 5.13 0 01.71-3 3.53 3.53 0 014.84 0 5.12 5.12 0 01.7 3 5 5 0 01-.7 3zm-3.68-1a1.58 1.58 0 002.23.23 1.31 1.31 0 00.24-.23 4.14 4.14 0 00.32-1.94 4.44 4.44 0 00-.33-2 1.25 1.25 0 00-1.23-.62 1.27 1.27 0 00-1.23.62 4.58 4.58 0 00-.33 2A4.2 4.2 0 00124 142zm11.06 1.69a10.33 10.33 0 01-2.14.25 3.73 3.73 0 01-1.52-.23 1.9 1.9 0 01-.89-.74 3.57 3.57 0 01-.46-1.21 11.3 11.3 0 01-.11-1.74 5.44 5.44 0 01.62-3.07 2.62 2.62 0 012.28-.87 10.5 10.5 0 012.23.3v1.23a12.85 12.85 0 00-1.85-.17 2.12 2.12 0 00-1.05.2 1.26 1.26 0 00-.46.74 7.8 7.8 0 00-.16 1.87 3.85 3.85 0 00.3 1.83 1.33 1.33 0 001.23.51 12.6 12.6 0 001.94-.17zm1.8.13v-7.6h1.55v7.6zm3.14 0l1.71-7.6h2.9l1.7 7.6h-1.53l-.3-1.38h-2.68l-.31 1.38zm2.9-6.33l-.77 3.61h2.08l-.77-3.61zm3.91.09v-1.36h5.58v1.36h-2v6.24h-1.55v-6.24zm7.11 6.24v-7.6h4.91v1.34h-3.38v1.77h2.71v1.32h-2.71v1.83h3.38v1.34zm-34.67 36.09h.69v.69h-.69zm0 1.53h.69v4.19h-.69zm3.36-.26a1.9 1.9 0 00-1.39.57 2 2 0 00-.55 1.4v2.47h.67v-2.52a1.28 1.28 0 011.27-1.27 1.29 1.29 0 011.25 1.27v2.52h.67v-2.47a1.94 1.94 0 00-.55-1.4 1.87 1.87 0 00-1.37-.57z"/><path d="M129.61 185.22v-1.8a2.24 2.24 0 00-3.84-1.62 2.21 2.21 0 00-.63 1.58 2.28 2.28 0 00.68 1.63 2.06 2.06 0 001.61.65A2.09 2.09 0 00129 185v.28m0 0a1.27 1.27 0 01-.44 1 1.49 1.49 0 01-1.06.43 1.51 1.51 0 01-1-.31 1.43 1.43 0 01-.5-.59l-.53.31a2.15 2.15 0 001.89 1.13h.1a2.28 2.28 0 001.44-.51 1.72 1.72 0 00.69-1.38v-.16m-.67-1.75a1.59 1.59 0 01-.46 1.11 1.45 1.45 0 01-1.09.46 1.49 1.49 0 01-1.11-.46 1.54 1.54 0 01-.48-1.12 1.65 1.65 0 01.43-1.14 1.49 1.49 0 011.09-.52h.08a1.4 1.4 0 011.08.48 1.6 1.6 0 01.5 1.26zm5.8.61a2.31 2.31 0 01-.77.72 2 2 0 01-1 .3 2.11 2.11 0 01-1.58-.71 2.48 2.48 0 01-.63-1.72 2.4 2.4 0 01.66-1.62 2 2 0 011.51-.68 2 2 0 011.83 1l.52-.32a2.93 2.93 0 00-.85-.9 2.72 2.72 0 00-3.45.39 2.94 2.94 0 00-.84 2.14 3.06 3.06 0 00.83 2.15 2.55 2.55 0 001.93.89 2.73 2.73 0 002.33-1.36zm3.86-4.27h-.71l-2.6 5.83h.83l.8-1.93.29-.61 1.06-2.46 1 2.46h-1.47l-.27.61h2l.82 1.93h.73zm6.28.53a2.09 2.09 0 00-1.45-.52h-1.93v5.8h.7v-5.19h1.23a1.35 1.35 0 01.9.31 1 1 0 01.4.77 1 1 0 01-.35.89 1.28 1.28 0 01-.91.33h-.71v.61h.82a2 2 0 001.29-.48 1.62 1.62 0 00.55-1.21 1.7 1.7 0 00-.54-1.31zm-26.86 0a2.09 2.09 0 00-1.45-.52h-1.93v5.8h.68v-5.19h1.24a1.42 1.42 0 01.89.31 1.08 1.08 0 010 1.66 1.27 1.27 0 01-.91.33h-.7v.61h.82a1.94 1.94 0 001.28-.48 1.75 1.75 0 000-2.52zm4.64.87a1.89 1.89 0 00-1.93 1.85v2.58h.66v-2.52a1.28 1.28 0 011.27-1.27 1.31 1.31 0 011.25 1.27v2.52h.66v-2.46a1.89 1.89 0 00-1.8-2z"/></g><g style="isolation:isolate" fill="#fff"><path d="M265.48 106h-2.24v4h-2.76V96.4h5q4.84 0 4.84 4.72a5 5 0 01-1.23 3.65 4.81 4.81 0 01-3.61 1.23zm-2.24-2.36h2.22c1.38 0 2.06-.85 2.06-2.56a2.68 2.68 0 00-.5-1.81 2 2 0 00-1.56-.55h-2.22zm8.76-4.92V96h2.67v2.72zm0 11.28v-10h2.67v10zm7.85 0h-2.68v-10h2.66v.56a4.92 4.92 0 012.5-.8 3 3 0 012.76 1.18 6.82 6.82 0 01.77 3.64V110h-2.69v-5.34a4.52 4.52 0 00-.3-1.89 1.19 1.19 0 00-1.19-.61 4.51 4.51 0 00-1.59.28l-.24.08zm17.44 1.25a2.77 2.77 0 01-1.32 2.53 6.69 6.69 0 01-3.57.82 8 8 0 01-3.46-.6 2.21 2.21 0 01-1.21-2.18 3.1 3.1 0 011.44-2.38 1.7 1.7 0 01-.75-1.52 3.05 3.05 0 01.61-1.32l.18-.28a3.31 3.31 0 01-1.36-2.89 3.24 3.24 0 011.15-2.77 5 5 0 013.05-.86 7.52 7.52 0 011.7.2l.32.06 3.22-.1v2.14l-1.5-.12a2.54 2.54 0 01.44 1.36 3.25 3.25 0 01-1 2.76 5.44 5.44 0 01-3.2.76 4 4 0 01-.82-.08 2.54 2.54 0 00-.2.85.45.45 0 00.34.45 6.41 6.41 0 001.6.14 6.6 6.6 0 013.44.67 2.7 2.7 0 01.9 2.36zm-6.92.29c0 .58.7.86 2.11.86s2.11-.33 2.11-1a.66.66 0 00-.36-.69 4.9 4.9 0 00-1.52-.17l-1.81-.14a1.65 1.65 0 00-.53 1.14zm.15-8.19c0 1 .51 1.47 1.54 1.47s1.53-.49 1.53-1.47a1.33 1.33 0 00-1.53-1.47c-1.06 0-1.54.5-1.54 1.47zm17.24 6.43a18.65 18.65 0 01-3.82.46 7.29 7.29 0 01-2.72-.42 3.33 3.33 0 01-1.6-1.34 5.91 5.91 0 01-.8-2.16 18.06 18.06 0 01-.22-3.12q0-3.93 1.11-5.49c.75-1 2.11-1.55 4.09-1.55a17.33 17.33 0 014 .54l-.08 2.2a21.41 21.41 0 00-3.29-.3 3.74 3.74 0 00-1.87.35 2.15 2.15 0 00-.83 1.33 14.21 14.21 0 00-.27 3.34 6.94 6.94 0 00.55 3.27 2.38 2.38 0 002.21.91 23.07 23.07 0 003.5-.28zm1.1.22l3.06-13.6h5.24l3.06 13.6h-2.76l-.54-2.46h-4.76l-.54 2.46zm5.2-11.32l-1.38 6.46h3.72l-1.4-6.46zM327 106h-2.25v4H322V96.4h5q4.84 0 4.83 4.72a5.06 5.06 0 01-1.22 3.65A4.84 4.84 0 01327 106zm-2.25-2.36H327c1.37 0 2.05-.85 2.05-2.56a2.68 2.68 0 00-.5-1.81 2 2 0 00-1.55-.55h-2.23zm22.07 6.14a18.57 18.57 0 01-3.82.46 7.29 7.29 0 01-2.72-.42 3.33 3.33 0 01-1.6-1.34 5.91 5.91 0 01-.8-2.16 19.12 19.12 0 01-.22-3.12q0-3.93 1.12-5.49c.74-1 2.1-1.55 4.09-1.55a17.32 17.32 0 014 .54l-.08 2.2a21.31 21.31 0 00-3.29-.3 3.76 3.76 0 00-1.87.35 2.15 2.15 0 00-.83 1.33 14.21 14.21 0 00-.27 3.34 6.79 6.79 0 00.56 3.27 2.35 2.35 0 002.2.91 23 23 0 003.5-.28zm4.54-2.31a2 2 0 001.35.41l3.32-.12.56-.06v2a18 18 0 01-4.16.56 4.08 4.08 0 01-3.28-1.2 6 6 0 01-1-3.9q0-5.39 4.41-5.38c2.91 0 4.36 1.5 4.37 4.52l-.21 1.86h-5.87a1.7 1.7 0 00.51 1.31zm2.95-3.37a2.68 2.68 0 00-.38-1.67 2.1 2.1 0 00-2.67 0 2.76 2.76 0 00-.41 1.65zm4.55 5.9v-10h2.66v1.06a10.37 10.37 0 013.2-1.3v2.7l-2.78.7-.4.14v6.7zm12.97-7.72h-2.46v4.1a5.77 5.77 0 000 .85.7.7 0 00.21.43.83.83 0 00.59.18h1.52l.12 2.14a10.12 10.12 0 01-2 .3 3.05 3.05 0 01-2.46-.81 5 5 0 01-.65-3v-4.16h-1.19V100h1.19v-2.78h2.67V100h2.46zm1.74-3.56V96h2.68v2.72zm0 11.28v-10h2.68v10zm8.32-7.72V110h-2.68v-7.72h-1.08V100h1.08v-.44a5.12 5.12 0 01.63-3 2.77 2.77 0 012.28-.82A11.6 11.6 0 01384 96l.42.06v2.18h-1.48a.88.88 0 00-.8.32 2.23 2.23 0 00-.2 1.1v.34h2.41v2.28zm3.98-3.56V96h2.67v2.72zm0 11.28v-10h2.67v10zm7.84-2.53a2 2 0 001.35.41l3.32-.12.56-.06v2a18 18 0 01-4.16.56 4.09 4.09 0 01-3.28-1.2 6 6 0 01-1-3.9q0-5.39 4.42-5.38c2.9 0 4.36 1.5 4.36 4.52l-.2 1.86h-5.88a1.73 1.73 0 00.51 1.31zm3-3.37a2.75 2.75 0 00-.38-1.67 2.11 2.11 0 00-2.68 0 2.76 2.76 0 00-.41 1.65zm13-8.1v14h-2.65v-.42a5.89 5.89 0 01-2.43.66 3.4 3.4 0 01-3-1.26 7.25 7.25 0 01-.86-4 6.2 6.2 0 011-4 3.78 3.78 0 013.11-1.25 10.26 10.26 0 011.78.2l.38.08V96zm-3 11.6l.29-.06v-5.26a11.52 11.52 0 00-2-.2q-1.62 0-1.62 2.88a5 5 0 00.36 2.22 1.26 1.26 0 001.2.66 6.86 6.86 0 001.81-.24zm8.9-8.76V96.4h10v2.44H422V110h-2.77V98.84zm11.5-.12V96h2.67v2.72zm0 11.28v-10h2.67v10zm9.98 0h-4.58V96.4h4.58a9.4 9.4 0 012.89.37 3.4 3.4 0 011.77 1.23 5 5 0 01.87 2 15.2 15.2 0 01.24 3 18.11 18.11 0 01-.22 3 6.19 6.19 0 01-.83 2.16 3.52 3.52 0 01-1.77 1.38 8.51 8.51 0 01-2.95.46zm2.9-5.4v-1.77a14.42 14.42 0 00-.09-1.81 3.39 3.39 0 00-.38-1.24 1.57 1.57 0 00-.89-.77 4.82 4.82 0 00-1.58-.21h-1.83v8.8h1.83a2.79 2.79 0 002.17-.76 3.81 3.81 0 00.78-2.24zm5.27-8.2h5.33a5 5 0 013.19.85 3.33 3.33 0 011.06 2.75 4 4 0 01-.34 1.81 3.2 3.2 0 01-1.16 1.19 2.65 2.65 0 011.32 1.1 3.88 3.88 0 01.43 2 3.59 3.59 0 01-1.15 2.94 5 5 0 01-3.26 1h-5.42zm5.2 2.36H448V102h2.46a1.62 1.62 0 000-3.24zm.07 5.56H448v3.32h2.52a2.05 2.05 0 001.33-.36 1.65 1.65 0 00.43-1.32c.01-1.1-.57-1.64-1.75-1.64zm10.16 5.68l3.06-13.6H469l3.06 13.6h-2.77l-.53-2.46H464l-.55 2.46zm5.19-11.32l-1.37 6.46h3.72l-1.38-6.46zm14.92 3.82a32.89 32.89 0 00-3.47-.32 2.89 2.89 0 00-1.28.18.63.63 0 00-.29.57.54.54 0 00.39.54 14.82 14.82 0 002 .44 4.37 4.37 0 012.29 1 2.89 2.89 0 01.68 2.14q0 3.24-4 3.24a17.42 17.42 0 01-3.2-.36l-.64-.12.08-2.24a32.65 32.65 0 003.45.32 3 3 0 001.32-.19.61.61 0 00.35-.57.59.59 0 00-.37-.56 9.44 9.44 0 00-1.92-.44 4.89 4.89 0 01-2.31-.88 2.71 2.71 0 01-.76-2.21 2.81 2.81 0 011.08-2.4 4.52 4.52 0 012.78-.81 18 18 0 013.22.38l.66.12zm9.43 0a32.67 32.67 0 00-3.47-.32 2.92 2.92 0 00-1.28.18.63.63 0 00-.29.57.54.54 0 00.39.54 14.82 14.82 0 002 .44 4.34 4.34 0 012.29 1 2.85 2.85 0 01.68 2.14q0 3.24-4 3.24a17.33 17.33 0 01-3.19-.36l-.65-.12.08-2.24a32.65 32.65 0 003.45.32 3 3 0 001.32-.19.62.62 0 00.36-.57.6.6 0 00-.37-.56 9.42 9.42 0 00-1.93-.44 5 5 0 01-2.31-.88 2.74 2.74 0 01-.75-2.21 2.8 2.8 0 011.07-2.4 4.52 4.52 0 012.78-.81 18.19 18.19 0 013.23.38l.65.12zm2.77-1.37a5.26 5.26 0 017.08 0 6.21 6.21 0 011.06 3.85c0 3.51-1.54 5.26-4.6 5.26S492 108.49 492 105a6.14 6.14 0 011-3.87zm2.06 6.11a1.56 1.56 0 001.47.72 1.54 1.54 0 001.47-.72 4.66 4.66 0 00.41-2.26 4.54 4.54 0 00-.41-2.24 1.55 1.55 0 00-1.47-.7 1.57 1.57 0 00-1.47.7 4.66 4.66 0 00-.41 2.24 4.78 4.78 0 00.44 2.26zm11.8-7.48a13.77 13.77 0 012.66.32l.54.12-.08 2.12-2.34-.16a2.23 2.23 0 00-1.83.59 3.91 3.91 0 00-.45 2.23 4 4 0 00.45 2.25 2.2 2.2 0 001.85.61l2.32-.16.08 2.14a18.31 18.31 0 01-3.26.42 3.78 3.78 0 01-3.19-1.25 6.62 6.62 0 01-1-4 6.38 6.38 0 011-4 3.92 3.92 0 013.25-1.23zm5.14-1.04V96h2.67v2.72zm0 11.28v-10h2.67v10zm12.85-6.88v4.16a1.71 1.71 0 00.16.67.73.73 0 00.5.27l-.07 2a7.29 7.29 0 01-1.64-.14 3.55 3.55 0 01-1.23-.56 6.55 6.55 0 01-2.94.7q-3.09 0-3.1-3.28a2.73 2.73 0 01.86-2.27 4.93 4.93 0 012.65-.79l2.13-.16v-.62a1.08 1.08 0 00-.27-.85 1.46 1.46 0 00-.9-.25l-3.76.16-.08-1.86a15.91 15.91 0 014.07-.58 4 4 0 012.78.8 3.35 3.35 0 01.84 2.6zm-4.49 2.64a1.09 1.09 0 00-1.13 1.2c0 .73.33 1.1 1 1.1a6.46 6.46 0 001.66-.24l.3-.08v-2.14zm12.64-3.48h-2.47v4.1a7.67 7.67 0 000 .85.72.72 0 00.22.43.81.81 0 00.58.18h1.53l.11 2.14a10.12 10.12 0 01-2 .3 3 3 0 01-2.45-.81 4.93 4.93 0 01-.66-3v-4.16h-1.18V100h1.18v-2.78h2.67V100H533zm4.37 5.19a2 2 0 001.36.41l3.32-.12.55-.06v2a17.9 17.9 0 01-4.16.56 4.07 4.07 0 01-3.27-1.2 6 6 0 01-1-3.9q0-5.39 4.41-5.38c2.9 0 4.36 1.5 4.36 4.52l-.2 1.86h-5.88a1.73 1.73 0 00.51 1.31zm3-3.37a2.75 2.75 0 00-.38-1.67 2.11 2.11 0 00-2.68 0 2.83 2.83 0 00-.41 1.65zM265.46 149.87v-1.24h3.44v6.12a22.65 22.65 0 01-4 .43c-1.81 0-3.06-.53-3.77-1.57a11.66 11.66 0 010-9.67c.7-1.05 1.95-1.58 3.74-1.58a17.71 17.71 0 013.47.36l.61.12-.06 1.15a23.7 23.7 0 00-3.86-.38 3 3 0 00-2.79 1.19 11.36 11.36 0 000 8A2.94 2.94 0 00265 154a14.22 14.22 0 002.57-.24v-3.84zm5.54.61a5.69 5.69 0 01.88-3.56 4.57 4.57 0 015.95 0 5.69 5.69 0 01.88 3.56 6.07 6.07 0 01-.83 3.58 4.65 4.65 0 01-6.05 0 6.07 6.07 0 01-.83-3.58zm1.39 0a5.71 5.71 0 00.48 2.76 2.17 2.17 0 002 .79c1 0 1.67-.26 2-.79a5.8 5.8 0 00.47-2.76 5.15 5.15 0 00-.52-2.72 2.88 2.88 0 00-3.88 0 5 5 0 00-.57 2.7zm17.11-3.31h-2.87v4.31a5.78 5.78 0 00.23 2c.15.32.51.48 1.07.48l1.6-.11.09 1.12a12.5 12.5 0 01-1.84.2 2.37 2.37 0 01-1.94-.68 4.49 4.49 0 01-.53-2.61v-4.74H284V146h1.29v-2.75h1.32V146h2.87zm1.25 3.31a5.69 5.69 0 01.88-3.56 4.57 4.57 0 015.95 0 5.76 5.76 0 01.87 3.56 6.08 6.08 0 01-.82 3.58 4.65 4.65 0 01-6.05 0 6 6 0 01-.83-3.58zm1.38 0a5.71 5.71 0 00.48 2.76 2.18 2.18 0 002 .79c1 0 1.68-.26 2-.79a5.8 5.8 0 00.47-2.76 5 5 0 00-.53-2.72 2.87 2.87 0 00-3.87 0 4.91 4.91 0 00-.55 2.7zm20.23 4.32a17.08 17.08 0 01-3.33.38 5.93 5.93 0 01-2.39-.41 3 3 0 01-1.4-1.26 5.61 5.61 0 01-.68-2 16.24 16.24 0 01-.19-2.76 16.74 16.74 0 01.19-2.78 5.85 5.85 0 01.68-2 2.88 2.88 0 011.39-1.26 5.76 5.76 0 012.34-.4 16.86 16.86 0 013.39.4l-.05 1.17a17.52 17.52 0 00-3.25-.32 2.68 2.68 0 00-2.61 1.18 9 9 0 00-.64 4 19.59 19.59 0 00.11 2.29 5 5 0 00.46 1.56 2 2 0 001 1 4.83 4.83 0 001.93.3 16.44 16.44 0 003-.33zm7.98-.92h.52v1.06a24.45 24.45 0 01-3.5.29 3.17 3.17 0 01-2.76-1.13 6 6 0 01-.81-3.5c0-3.16 1.25-4.73 3.76-4.73a3.44 3.44 0 012.72 1 4.73 4.73 0 01.9 3.19l-.07 1h-5.94a3.7 3.7 0 00.54 2.22 2.21 2.21 0 001.88.72l2.76-.12zm-.49-3.9a4 4 0 00-.53-2.34 2.06 2.06 0 00-1.73-.68 2.24 2.24 0 00-1.8.71 3.65 3.65 0 00-.62 2.31zm3.45 5.02v-9h1.34v1.22a8.76 8.76 0 013.29-1.42v1.37a8.53 8.53 0 00-1.57.45 9.37 9.37 0 00-1.26.54l-.45.23V155zm10.89-7.83h-2.86v4.31a5.85 5.85 0 00.22 2q.22.48 1.08.48l1.6-.11.08 1.12a12.53 12.53 0 01-1.83.2 2.38 2.38 0 01-2-.68 4.57 4.57 0 01-.53-2.61v-4.74h-1.29V146H330v-2.75h1.33V146h2.86zm1.64-3.17v-1.6h1.36v1.6zm0 11v-9h1.36v9zm5.67-7.83V155h-1.35v-7.83H339V146h1.13v-.81a4.46 4.46 0 01.54-2.6 2.27 2.27 0 011.89-.69l1.82.12v1.11h-1.67a1 1 0 00-.94.44 3.43 3.43 0 00-.28 1.67v.76h2.61v1.17zm4.22-3.17v-1.6h1.36v1.6zm0 11v-9h1.36v9zm7.28-9.18a14.88 14.88 0 012 .22l.43.05-.06 1.1a20.44 20.44 0 00-2.12-.16 2.47 2.47 0 00-2.08.73 4.68 4.68 0 00-.55 2.7 5.3 5.3 0 00.51 2.74 2.45 2.45 0 002.14.77l2.12-.16.06 1.12a18.14 18.14 0 01-2.51.25 3.4 3.4 0 01-2.91-1.08 6.3 6.3 0 01-.8-3.64 5.68 5.68 0 01.87-3.6 3.54 3.54 0 012.9-1.04zm10.85 2.9v4.61c0 .45.39.71 1 .79v1.06a2.92 2.92 0 01-2.15-.72 7.88 7.88 0 01-3.23.72 2.47 2.47 0 01-1.89-.7 2.84 2.84 0 01-.65-2 2.53 2.53 0 01.66-1.93 3.51 3.51 0 012.09-.77l2.83-.27v-.77a1.77 1.77 0 00-.4-1.31A1.43 1.43 0 00361 147a26 26 0 00-3 .18l-.56.05-.05-1a18.49 18.49 0 013.51-.4 2.51 2.51 0 012.91 2.9zm-5.53 3.67c0 1.1.45 1.65 1.36 1.65a7.55 7.55 0 002.42-.41l.41-.14v-3l-2.66.25a1.72 1.72 0 00-1.17.47 1.65 1.65 0 00-.36 1.18zm12.86-5.22h-2.86v4.31a5.85 5.85 0 00.22 2q.22.48 1.08.48l1.6-.11.09 1.12a12.78 12.78 0 01-1.84.2 2.34 2.34 0 01-1.94-.68 4.48 4.48 0 01-.54-2.61v-4.74h-1.28V146H367v-2.75h1.33V146h2.86zm1.65-3.17v-1.6h1.35v1.6zm0 11v-9h1.35v9zm3.54-4.52a5.69 5.69 0 01.88-3.56 4.57 4.57 0 015.95 0 5.69 5.69 0 01.88 3.56 6.07 6.07 0 01-.83 3.58 4.65 4.65 0 01-6.05 0 6.07 6.07 0 01-.83-3.58zm1.39 0a5.71 5.71 0 00.48 2.76 2.17 2.17 0 002 .79c1 0 1.67-.26 2-.79a5.8 5.8 0 00.47-2.76 5.15 5.15 0 00-.52-2.72 2.88 2.88 0 00-3.88 0 5 5 0 00-.55 2.7zm9.86 4.52h-1.35v-9h1.33v.63a5.74 5.74 0 012.79-.81 2.67 2.67 0 012.42 1 6.79 6.79 0 01.63 3.46V155h-1.34v-4.72a6 6 0 00-.37-2.56 1.61 1.61 0 00-1.57-.69 4.9 4.9 0 00-1.22.17 5.79 5.79 0 00-1 .33l-.34.17zm18.54-4.54l-6.1-2.83v-1.39l7.49 3.64v1.2l-7.49 3.68v-1.41z"/></g></svg>