<svg xmlns="http://www.w3.org/2000/svg" viewBox="0 0 620 248"><path d="M0 0h620v248H0z" fill="#172d72"/><path d="M600.47 28.51a7.52 7.52 0 01-7.47-7.44v-.62H324.46v1.26H591.8a8.71 8.71 0 008 8V219.5a8.78 8.78 0 00-8 8H327.64v1.26H593v-.62a7.52 7.52 0 017.44-7.41h.63V28.51zM27 20.49v.62a7.52 7.52 0 01-7.44 7.41h-.63v192.21h.63a7.5 7.5 0 017.44 7.43v.62h265.36v-1.25H28.19a8.76 8.76 0 00-8-8V29.74a8.69 8.69 0 008-8h267.35v-1.29H27.61zM310 9.67l-9.49 5.49v11L310 31.6l9.49-5.48v-11zm0 7.3V28l-3.15-1.84v-7.3l-3.14 1.81V17l6.3-3.63 3.16 1.82zm6.29 7.33l-3.13 1.81v-7.28l3.13-1.83zm-20.21 200.17h2.72v7.42h1.84v-7.42h2.62v-1.54h-7.18zm8 .78h1.72v6.64h-1.72zm0-2.32h1.72v1.54h-1.72zm7.13 0h-3.51v9h3.51a3.33 3.33 0 002.82-1.05 5.93 5.93 0 000-6.89 3.31 3.31 0 00-2.82-1.06zm0 7.43h-1.69v-5.89h1.66c1.39 0 2.08 1 2.08 2.95s-.66 2.94-2.05 2.94zm11.23-3.22c.88-.58 1.23-1.09 1.23-1.85s-.57-2.36-2.9-2.36h-4v9h4c2.53 0 3.15-1.5 3.15-2.58a2.47 2.47 0 00-1.51-2.17zm-3.87-2.67h2c.85 0 1.31.35 1.31 1s-.46 1-1.31 1h-2zm2.2 5.89h-2.2V228h2.2c.9 0 1.37.41 1.37 1.17s-.46 1.16-1.36 1.16z" fill="#d6a434"/><path d="M173.81 56.86a16.09 16.09 0 00-12.52-6.19H97.93a16 16 0 00-12.57 6.19L55.9 93.66A17.17 17.17 0 0052.62 108c2.82 13.12 9.91 39.74 24.76 63.62 7.81 12.58 32.6 25.6 45 31.52a16.48 16.48 0 0014.25 0c12.42-5.9 37.47-18.94 45.29-31.55 14.83-23.89 21.92-50.5 24.74-63.62a17.16 17.16 0 00-3.28-14.3z" fill="#ce9f37"/><path d="M129.61 65.9l-9.51 5.48v11l9.51 5.48 9.5-5.48v-11zm0 7.3v11l-3.15-1.82V75l-3.17 1.82V73.2l6.32-3.64 3.15 1.82zm6.39 7.33l-3.17 1.83v-7.31l3.17-1.84zm-41.68 22.23h-1.16v1.77h-1v-5.68h2.08a1.7 1.7 0 011.93 1.43 1.46 1.46 0 010 .51 2.12 2.12 0 01-.48 1.49 2 2 0 01-1.37.48zm-1.16-.76h1.15c.66 0 1-.4 1-1.21a1.21 1.21 0 00-.24-.84 1 1 0 00-.75-.28h-1.16zm4.28-2.32v-1h.9v1zm0 4.84v-4.14h.9v4.14zm3.31.01h-.9v-4.14h.89v.25a2.42 2.42 0 011.15-.35 1.22 1.22 0 011.12.48 2.89 2.89 0 01.31 1.53v2.23h-.9v-2.2a2.46 2.46 0 00-.14-1 .61.61 0 00-.59-.28 2.11 2.11 0 00-.82.17h-.12zm7.65.56c0 .91-.65 1.35-1.94 1.35a2.93 2.93 0 01-1.4-.25 1.17 1.17 0 01-.31-1.49 2.78 2.78 0 01.49-.48.65.65 0 01-.27-.6 1.17 1.17 0 01.22-.54l.07-.13a1.31 1.31 0 01-.59-1.24 1.29 1.29 0 01.44-1.09 1.93 1.93 0 011.21-.35 3 3 0 01.73.09h1.4v.72h-.69a1.2 1.2 0 01.22.68 1.3 1.3 0 01-.41 1.12 2.06 2.06 0 01-1.28.31 1.09 1.09 0 01-.36 0 1.16 1.16 0 00-.12.44.2.2 0 00.16.2 2.27 2.27 0 00.73.07 2.56 2.56 0 011.36.27 1.11 1.11 0 01.34.92zm-2.9.08a.41.41 0 00.23.41 1.69 1.69 0 00.8.13c.67 0 1-.19 1-.57 0-.21-.06-.35-.18-.41a1.83 1.83 0 00-.7-.1h-.81a.87.87 0 00-.27.27.64.64 0 00-.11.31zm.25-2.9a.84.84 0 00.59.17.8.8 0 00.58-.17.77.77 0 00.18-.56.75.75 0 00-.18-.56.85.85 0 00-.59-.18.66.66 0 00-.76.74.73.73 0 00.15.6zm5.81 2.35a1.87 1.87 0 01-1.69-.69 4.31 4.31 0 01-.44-2.26 4.13 4.13 0 01.45-2.24 1.88 1.88 0 011.68-.66 7.32 7.32 0 011.62.19v.75a8.33 8.33 0 00-1.49-.13 1.14 1.14 0 00-1 .44 5.44 5.44 0 000 3.34 1.07 1.07 0 001 .43 9.61 9.61 0 001.51-.12v.76a7.56 7.56 0 01-1.64.18zm2.57-.09l1.4-5.68h1.83l1.4 5.68h-1l-.3-1.22h-2.19l-.3 1.22zm2.11-4.9l-.7 2.9h1.82l-.7-2.9zm5.76 3.13h-1.1v1.77h-1v-5.68h2.1a1.69 1.69 0 011.93 1.41 1.57 1.57 0 010 .53 2.12 2.12 0 01-.48 1.49 1.87 1.87 0 01-1.44.48zm-1.16-.79H122c.65 0 1-.4 1-1.21a1.21 1.21 0 00-.24-.84 1 1 0 00-.75-.28h-1.08zm8.56 2.65a1.86 1.86 0 01-1.69-.69 4.31 4.31 0 01-.44-2.26 4.22 4.22 0 01.44-2.24 1.94 1.94 0 011.69-.66 7.3 7.3 0 011.6.23v.75a8.25 8.25 0 00-1.49-.13 1.12 1.12 0 00-1 .44 5.44 5.44 0 000 3.34 1.05 1.05 0 001 .43 9.51 9.51 0 001.51-.12v.76a7.47 7.47 0 01-1.63.18zm3-.09v-5.68h3.6v.78h-2.66v1.6h2.17v.8h-2.17v1.66H136v.81zm5.91-2v2h-.91v-5.7h2.15c1.28 0 1.93.6 1.93 1.81a1.64 1.64 0 01-1 1.64l1 2.23h-1l-.82-2zm2.21-1.84c0-.68-.33-1-1-1h-1.24v2.07h1.25a.88.88 0 00.73-.3 1.18 1.18 0 00.24-.77zm1.83-1.02v-.82h4.15v.82h-1.61v4.84h-1v-4.84zm5.32 4.86v-5.68h1v5.68zm2.64 0v-5.68h3.48v.78h-2.6v1.93h2.17v.8h-2.17v2.16zm4.8 0v-5.68h.89v5.68zm2.64 0v-5.68h3.58v.78h-2.7v1.6h2.15v.8h-2.15v1.66h2.66v.81zm6.95 0h-1.93v-5.68h1.93a2.08 2.08 0 011.79.67 3.52 3.52 0 01.48 2.08 6.22 6.22 0 01-.1 1.22 2.71 2.71 0 01-.34.91 2 2 0 01-1.83.8zm1.32-2.9a3.18 3.18 0 00-.26-1.49 1.13 1.13 0 00-1.06-.46h-1v4.07h1a1.08 1.08 0 001.09-.61 2.2 2.2 0 00.19-.65v-.93z" fill="#fff"/><g fill="#1b2e68"><path d="M118.56 161.79l1 1.93 2.11.3-1.53 1.5.36 2.1-1.89-1-1.9 1 .36-2.1-1.53-1.5 2.12-.3zm11.05 0l.94 1.93 2.12.3-1.53 1.5.36 2.1-1.89-1-1.9 1 .36-2.1-1.53-1.5 2.12-.3zm11.04 0l.94 1.93 2.12.3-1.53 1.5.36 2.1-1.9-1-1.88 1 .35-2.1-1.52-1.5 2.11-.3zm16.5-2.74a4.84 4.84 0 00-2.44 3.6 4.85 4.85 0 004.31-.54 14.7 14.7 0 004.12-4.62 14.67 14.67 0 00-6 1.56z"/><path d="M157.22 166.2a4.85 4.85 0 01-2.51-3.55 4.82 4.82 0 014.32.46 14.46 14.46 0 014.2 4.54 14.6 14.6 0 01-6-1.45zm6.83-8.84a4.58 4.58 0 00-.85 4 4.57 4.57 0 003.56-2 13.81 13.81 0 001.94-5.46 13.78 13.78 0 00-4.65 3.46z"/><path d="M166.64 163.55a4.58 4.58 0 01-3.44-2.2 4.59 4.59 0 013.93-1.13 13.84 13.84 0 015.24 2.48 14 14 0 01-5.74.85zm3.59-9.69a4.58 4.58 0 00.09 4.08 4.62 4.62 0 003-2.77 13.72 13.72 0 00.62-5.8 13.9 13.9 0 00-3.72 4.49z"/><path d="M174.1 159.29a4.61 4.61 0 01-3.87-1.35 4.56 4.56 0 013.55-2 13.48 13.48 0 015.67 1.19 13.83 13.83 0 01-5.35 2.16zm.68-10.21a4.23 4.23 0 001.23 3.57 4.24 4.24 0 001.88-3.28 13 13 0 00-1.08-5.25 12.78 12.78 0 00-2 5z"/><path d="M179.79 152.76a4.23 4.23 0 01-3.78-.11 4.27 4.27 0 012.57-2.77 12.76 12.76 0 015.35-.55 12.71 12.71 0 01-4.14 3.43zm.83-18.76a2.76 2.76 0 002 1.38 2.72 2.72 0 00-.3-2.43 8.11 8.11 0 00-2.6-2.31 8.18 8.18 0 00.88 3.36z"/><path d="M184.65 133.91a2.77 2.77 0 01-2 1.41 2.74 2.74 0 01.25-2.43 8.24 8.24 0 012.56-2.36 8.43 8.43 0 01-.81 3.38zm-4.97 4.58a3.53 3.53 0 002.34 2.13 3.58 3.58 0 000-3.16 10.54 10.54 0 00-2.9-3.43 10.51 10.51 0 00.52 4.45z"/><path d="M184.83 139.19a3.54 3.54 0 01-2.81 1.43 3.51 3.51 0 01.78-3.06 10.6 10.6 0 013.7-2.54 10.76 10.76 0 01-1.68 4.17zm-6.94 4.93a4 4 0 001.81 3 4 4 0 001.08-3.36 12.14 12.14 0 00-2-4.59 11.88 11.88 0 00-.9 4.92z"/><path d="M183.17 146.51a4 4 0 01-3.47.63 4 4 0 011.82-3 11.78 11.78 0 014.76-1.52 11.85 11.85 0 01-3.12 3.91zm-.44-17.63a2.76 2.76 0 01-.4 2.41 2.76 2.76 0 01-1.55-1.93 8.28 8.28 0 01.11-3.47 8.23 8.23 0 011.84 3zm-80.67 30.17a4.84 4.84 0 012.44 3.6 4.85 4.85 0 01-4.31-.54 14.64 14.64 0 01-4.1-4.62 14.58 14.58 0 016 1.56z"/><path d="M102 166.2a4.87 4.87 0 002.5-3.55 4.82 4.82 0 00-4.32.46 14.69 14.69 0 00-4.2 4.54 14.6 14.6 0 006-1.45zm-6.84-8.84a4.58 4.58 0 01.85 4 4.6 4.6 0 01-3.56-2 13.49 13.49 0 01-1.93-5.46 13.84 13.84 0 014.64 3.46z"/><path d="M92.57 163.55a4.58 4.58 0 003.44-2.2 4.58 4.58 0 00-3.92-1.13 13.69 13.69 0 00-5.24 2.48 14 14 0 005.72.85zM89 153.86a4.58 4.58 0 01-.09 4.08 4.58 4.58 0 01-3-2.77 13.73 13.73 0 01-.63-5.8 13.87 13.87 0 013.72 4.49z"/><path d="M85.12 159.29a4.61 4.61 0 003.88-1.35 4.55 4.55 0 00-3.55-2 13.64 13.64 0 00-5.67 1.19 13.83 13.83 0 005.34 2.16zm-.68-10.21a4.21 4.21 0 01-1.26 3.57 4.22 4.22 0 01-1.86-3.28 12.64 12.64 0 011.09-5.25 12.78 12.78 0 012.03 4.96z"/><path d="M79.42 152.76a4.23 4.23 0 003.78-.11 4.26 4.26 0 00-2.57-2.73 12.76 12.76 0 00-5.35-.55 12.59 12.59 0 004.14 3.39zM78.59 134a2.76 2.76 0 01-2 1.38 2.72 2.72 0 01.3-2.43 8 8 0 012.61-2.31 8.35 8.35 0 01-.91 3.36z"/><path d="M74.56 133.9a2.75 2.75 0 002 1.42 2.74 2.74 0 00-.26-2.43 8.06 8.06 0 00-2.55-2.31 8.32 8.32 0 00.81 3.32zm4.98 4.59a3.57 3.57 0 01-2.35 2.13 3.61 3.61 0 010-3.16A10.54 10.54 0 0180 134a10.73 10.73 0 01-.46 4.49z"/><path d="M74.38 139.19a3.56 3.56 0 002.82 1.43 3.51 3.51 0 00-.78-3.06 10.6 10.6 0 00-3.7-2.54 10.74 10.74 0 001.67 4.17zm6.94 4.93a4 4 0 01-1.81 3 4 4 0 01-1.08-3.35 12.09 12.09 0 011.94-4.6 12.1 12.1 0 01.95 4.95z"/><path d="M76 146.51a4 4 0 003.47.63 4 4 0 00-1.81-3 11.82 11.82 0 00-4.77-1.52 11.94 11.94 0 003.11 3.89zm.48-17.63a2.76 2.76 0 00.4 2.41 2.73 2.73 0 001.55-1.93 8.28 8.28 0 00-.1-3.47 8.08 8.08 0 00-1.85 2.99z"/></g><g fill="#fff"><path d="M117.22 121.12v-1.37h5.62v1.37h-2v6.24h-1.54v-6.24zm6.97-.07v-1.52h1.55v1.52zm0 6.31v-5.59h1.55v5.58zm6.14 0h-2.56v-7.6h2.57a4.89 4.89 0 011.66.24 1.81 1.81 0 011 .68 2.8 2.8 0 01.48 1.12 8.5 8.5 0 01.14 1.67 9.66 9.66 0 01-.13 1.7 3.19 3.19 0 01-.46 1.2 2 2 0 01-1 .78 4.85 4.85 0 01-1.7.21zm1.62-3v-1a7.85 7.85 0 000-1 2 2 0 00-.21-.68.93.93 0 00-.5-.44 2.66 2.66 0 00-.88-.11h-1v4.91h1a1.57 1.57 0 001.21-.43 2 2 0 00.38-1.31zm3.51-4.61h3a2.78 2.78 0 011.77.48 1.86 1.86 0 01.6 1.54 2.26 2.26 0 01-.19 1 1.65 1.65 0 01-.65.66 1.57 1.57 0 01.75.62 2.41 2.41 0 01.24 1.12 2.09 2.09 0 01-.65 1.65 2.88 2.88 0 01-1.82.53h-3zm2.9 1.33H137v1.81h1.37c.58 0 .87-.3.87-.91a.78.78 0 00-.65-.9.88.88 0 00-.23 0zm0 3.1H137V126h1.4a1.17 1.17 0 00.75-.2 1 1 0 00.24-.74c0-.61-.29-.92-.95-.92zM92.17 141.6h-1.25v2.22h-1.55v-7.6h2.8q2.7 0 2.7 2.64a2.86 2.86 0 01-.68 2 2.69 2.69 0 01-2.02.74zm-1.25-1.35h1.25c.77 0 1.14-.49 1.14-1.43a1.44 1.44 0 00-.28-1 1.13 1.13 0 00-.86-.31h-1.25zm7.13 1.01v2.56h-1.54v-7.6h2.9c1.79 0 2.68.83 2.68 2.5a2.41 2.41 0 01-1.11 2.2l1.08 2.9h-1.69l-.88-2.55zm2.25-1.65a1.31 1.31 0 00.26-.88 1.26 1.26 0 00-.28-.87 1.09 1.09 0 00-.82-.33h-1.41V140h1.43a1 1 0 00.82-.34zm9 3.39a3.64 3.64 0 01-4.84 0 4.9 4.9 0 01-.7-3 5.12 5.12 0 01.7-3 3.53 3.53 0 014.84 0 5.12 5.12 0 01.7 3 4.9 4.9 0 01-.7 3zm-3.68-1a1.29 1.29 0 001.24.59 1.27 1.27 0 001.23-.59 4.28 4.28 0 00.33-1.94 4.59 4.59 0 00-.34-2 1.25 1.25 0 00-1.23-.62 1.27 1.27 0 00-1.23.62 4.58 4.58 0 00-.33 2 4.32 4.32 0 00.28 1.92zm6.21 1.82v-7.6h4.84v1.34h-3.31v2.24h2.71v1.33h-2.71v2.69zm6.49 0v-7.6h4.92v1.34h-3.38v1.77h2.71v1.33h-2.71v1.81h3.38v1.35zm9.08-6.39c-.81 0-1.21.27-1.21.8a.61.61 0 00.3.55 8.55 8.55 0 001.41.54 4 4 0 011.55.81 1.92 1.92 0 01.45 1.39 2.21 2.21 0 01-.73 1.81 2.8 2.8 0 01-1.93.62 10.89 10.89 0 01-2.13-.27l-.4-.08.15-1.2a17.7 17.7 0 002.29.2c.8 0 1.19-.32 1.19-1a.64.64 0 00-.28-.56 3.67 3.67 0 00-1.09-.44 4.51 4.51 0 01-1.83-.88 1.89 1.89 0 01-.52-1.41 2 2 0 01.7-1.69 2.86 2.86 0 011.93-.57 13.36 13.36 0 012.1.23l.41.07-.13 1.22a18.45 18.45 0 00-2.23-.14zm6.6 0c-.81 0-1.22.27-1.22.8a.63.63 0 00.3.55 8.91 8.91 0 001.41.54 3.82 3.82 0 011.56.81 2 2 0 01.46 1.39 2.24 2.24 0 01-.73 1.81 2.82 2.82 0 01-1.93.62 10.89 10.89 0 01-2.13-.27l-.41-.08.16-1.2a17.55 17.55 0 002.29.2c.79 0 1.19-.32 1.19-1a.66.66 0 00-.28-.56 3.62 3.62 0 00-1.08-.44 4.33 4.33 0 01-1.83-.88 1.81 1.81 0 01-.53-1.41 2 2 0 01.7-1.69 2.84 2.84 0 011.93-.57 13.49 13.49 0 012.1.23l.41.07-.13 1.22a20.91 20.91 0 00-2.24-.14zm4.32 6.39v-7.6h1.53v7.6zm9.03-.82a3.64 3.64 0 01-4.89 0 5 5 0 01-.7-3 5.12 5.12 0 01.7-3 3.53 3.53 0 014.89 0 5.12 5.12 0 01.7 3 4.9 4.9 0 01-.7 3zm-3.68-1a1.29 1.29 0 001.24.59 1.27 1.27 0 001.23-.59 4.26 4.26 0 00.33-1.93 4.41 4.41 0 00-.34-2 1.52 1.52 0 00-2.11-.35 1.62 1.62 0 00-.34.35 4.41 4.41 0 00-.34 2 4.17 4.17 0 00.33 1.91zm6.25 1.82v-7.6h2.6l1.83 6.26h.11v-6.26H156v7.6h-2.53l-1.93-6.26h-.12v6.26zm7.68 0l1.7-7.6h2.9l1.71 7.6h-1.54l-.3-1.37h-2.66l-.3 1.37zm2.9-6.33l-.77 3.61h2.08l-.77-3.61zm9.34 6.33h-4.32v-7.6h1.54v6.24h2.78zm-51.04 36.09h.69v.69h-.69zm0 1.53h.69v4.19h-.69zm3.35-.26a1.88 1.88 0 00-1.38.57 1.94 1.94 0 00-.55 1.4v2.47h.68v-2.52a1.18 1.18 0 01.38-.89 1.23 1.23 0 011.74 0 1.19 1.19 0 01.38.89v2.52h.67v-2.47a2 2 0 00-.56-1.4 1.89 1.89 0 00-1.39-.57zm7.01 4.04v-1.8a2.25 2.25 0 10-3.83 1.62 2.1 2.1 0 001.62.65 2.17 2.17 0 001.52-.68v.28m0 0a1.35 1.35 0 01-.45 1 1.49 1.49 0 01-1 .42 1.54 1.54 0 01-1-.31 1.28 1.28 0 01-.49-.59l-.53.31a1.86 1.86 0 00.55.66 2.23 2.23 0 001.33.48h.12a2.21 2.21 0 001.43-.52 1.71 1.71 0 00.69-1.37v-.16m-.67-1.75a1.66 1.66 0 01-.46 1.11 1.45 1.45 0 01-1.09.46 1.49 1.49 0 01-1.11-.46 1.54 1.54 0 01-.48-1.12 1.62 1.62 0 01.44-1.15 1.53 1.53 0 011.08-.52h.08a1.41 1.41 0 011.08.49 1.61 1.61 0 01.52 1.22zm5.81.6a2.19 2.19 0 01-.76.72 2 2 0 01-1 .3 2.07 2.07 0 01-1.56-.71 2.48 2.48 0 010-3.34 1.93 1.93 0 011.5-.68 2 2 0 011.83 1l.52-.32a2.84 2.84 0 00-.86-.9 2.72 2.72 0 00-3.45.39 3 3 0 00-.83 2.14 3.09 3.09 0 00.82 2.15 2.58 2.58 0 001.94.89 2.73 2.73 0 002.33-1.36zm3.86-4.27h-.7l-2.6 5.83h.83l.8-1.93.29-.61 1-2.46 1 2.46h-1.48l-.27.61h2l.81 1.93h.73zm6.29.53a2.07 2.07 0 00-1.44-.52H141v5.8h.69v-5.19H143a1.33 1.33 0 01.89.31 1 1 0 01.4.77 1 1 0 01-.35.89 1.28 1.28 0 01-.91.33h-.71v.61h.87a2 2 0 001.29-.48 1.62 1.62 0 00.55-1.21 1.69 1.69 0 00-.58-1.31zm-26.84 0a2.07 2.07 0 00-1.44-.52h-1.94v5.8h.7v-5.19h1.23a1.33 1.33 0 01.89.31 1 1 0 01.42.77 1.07 1.07 0 01-.37.89 1.3 1.3 0 01-.9.33h-.72v.61h.82a2 2 0 001.29-.48 1.62 1.62 0 00.55-1.21 1.67 1.67 0 00-.53-1.31z"/><path d="M122.18 181.19a1.9 1.9 0 00-1.37.56 1.94 1.94 0 00-.55 1.4v2.47h.65v-2.52a1.18 1.18 0 01.36-.89 1.23 1.23 0 01.89-.38 1.28 1.28 0 011.26 1.27v2.52h.67v-2.47a1.91 1.91 0 00-1.84-2z"/></g><g style="isolation:isolate" fill="#fff"><path d="M251.48 106h-2.24v4h-2.76V96.4h5q4.85 0 4.84 4.72a5 5 0 01-1.23 3.65 4.81 4.81 0 01-3.61 1.23zm-2.24-2.36h2.22c1.38 0 2.06-.85 2.06-2.56a2.68 2.68 0 00-.5-1.81 2 2 0 00-1.56-.55h-2.22zm8.76-4.92V96h2.67v2.72zm0 11.28v-10h2.67v10zm7.85 0h-2.68v-10h2.66v.56a4.92 4.92 0 012.5-.8 3 3 0 012.76 1.18 6.82 6.82 0 01.77 3.64V110h-2.69v-5.34a4.52 4.52 0 00-.3-1.89 1.19 1.19 0 00-1.19-.61 4.51 4.51 0 00-1.59.28l-.24.08zm17.44 1.25a2.77 2.77 0 01-1.32 2.53 6.69 6.69 0 01-3.57.82 8 8 0 01-3.46-.6 2.21 2.21 0 01-1.21-2.18 3.1 3.1 0 011.44-2.38 1.7 1.7 0 01-.75-1.52 3.05 3.05 0 01.61-1.32l.18-.28a3.31 3.31 0 01-1.36-2.89 3.24 3.24 0 011.15-2.77 5 5 0 013.05-.86 7.52 7.52 0 011.7.2l.32.06 3.22-.1v2.14l-1.5-.12a2.54 2.54 0 01.44 1.36 3.25 3.25 0 01-1 2.76 5.44 5.44 0 01-3.2.76 4 4 0 01-.82-.08 2.54 2.54 0 00-.2.85.45.45 0 00.34.45 6.41 6.41 0 001.6.14 6.6 6.6 0 013.44.67 2.7 2.7 0 01.9 2.36zm-6.92.29c0 .58.7.86 2.11.86s2.11-.33 2.11-1a.66.66 0 00-.36-.69 4.9 4.9 0 00-1.52-.17l-1.81-.14a1.65 1.65 0 00-.53 1.14zm.15-8.19c0 1 .51 1.47 1.54 1.47s1.53-.49 1.53-1.47a1.33 1.33 0 00-1.53-1.47c-1.06 0-1.54.5-1.54 1.47zm17.24 6.43a18.65 18.65 0 01-3.82.46 7.29 7.29 0 01-2.72-.42 3.33 3.33 0 01-1.6-1.34 5.91 5.91 0 01-.8-2.16 18.06 18.06 0 01-.22-3.12q0-3.93 1.11-5.49c.75-1 2.11-1.55 4.09-1.55a17.33 17.33 0 014 .54l-.08 2.2a21.41 21.41 0 00-3.29-.3 3.74 3.74 0 00-1.87.35 2.15 2.15 0 00-.83 1.33 14.21 14.21 0 00-.27 3.34 6.94 6.94 0 00.55 3.27 2.38 2.38 0 002.21.91 23.07 23.07 0 003.5-.28zm1.1.22l3.06-13.6h5.24l3.06 13.6h-2.76l-.54-2.46h-4.76l-.54 2.46zm5.2-11.32l-1.38 6.46h3.72l-1.4-6.46zM313 106h-2.25v4H308V96.4h5q4.84 0 4.83 4.72a5.06 5.06 0 01-1.22 3.65A4.84 4.84 0 01313 106zm-2.25-2.36H313c1.37 0 2.05-.85 2.05-2.56a2.68 2.68 0 00-.5-1.81 2 2 0 00-1.55-.55h-2.23zm22.07 6.14a18.57 18.57 0 01-3.82.46 7.29 7.29 0 01-2.72-.42 3.33 3.33 0 01-1.6-1.34 5.91 5.91 0 01-.8-2.16 19.12 19.12 0 01-.22-3.12q0-3.93 1.12-5.49c.74-1 2.1-1.55 4.09-1.55a17.32 17.32 0 014 .54l-.08 2.2a21.31 21.31 0 00-3.29-.3 3.76 3.76 0 00-1.87.35 2.15 2.15 0 00-.83 1.33 14.21 14.21 0 00-.27 3.34 6.79 6.79 0 00.56 3.27 2.35 2.35 0 002.2.91 23 23 0 003.5-.28zm4.54-2.31a2 2 0 001.35.41l3.32-.12.56-.06v2a18 18 0 01-4.16.56 4.08 4.08 0 01-3.28-1.2 6 6 0 01-1-3.9q0-5.39 4.41-5.38c2.91 0 4.36 1.5 4.37 4.52l-.21 1.86h-5.87a1.7 1.7 0 00.51 1.31zm2.95-3.37a2.68 2.68 0 00-.38-1.67 2.1 2.1 0 00-2.67 0 2.76 2.76 0 00-.41 1.65zm4.55 5.9v-10h2.66v1.06a10.37 10.37 0 013.2-1.3v2.7l-2.78.7-.4.14v6.7zm12.97-7.72h-2.46v4.1a5.77 5.77 0 000 .85.7.7 0 00.21.43.83.83 0 00.59.18h1.52l.12 2.14a10.12 10.12 0 01-2 .3 3.05 3.05 0 01-2.46-.81 5 5 0 01-.65-3v-4.16h-1.19V100h1.19v-2.78h2.67V100h2.46zm1.74-3.56V96h2.68v2.72zm0 11.28v-10h2.68v10zm8.32-7.72V110h-2.68v-7.72h-1.08V100h1.08v-.44a5.12 5.12 0 01.63-3 2.77 2.77 0 012.28-.82A11.6 11.6 0 01370 96l.42.06v2.18h-1.48a.88.88 0 00-.8.32 2.23 2.23 0 00-.2 1.1v.34h2.41v2.28zm3.98-3.56V96h2.67v2.72zm0 11.28v-10h2.67v10zm7.84-2.53a2 2 0 001.35.41l3.32-.12.56-.06v2a18 18 0 01-4.16.56 4.09 4.09 0 01-3.28-1.2 6 6 0 01-1-3.9q0-5.39 4.42-5.38c2.9 0 4.36 1.5 4.36 4.52l-.2 1.86h-5.88a1.73 1.73 0 00.51 1.31zm3-3.37a2.75 2.75 0 00-.38-1.67 2.11 2.11 0 00-2.68 0 2.76 2.76 0 00-.41 1.65zm13-8.1v14h-2.65v-.42a5.89 5.89 0 01-2.43.66 3.4 3.4 0 01-3-1.26 7.25 7.25 0 01-.86-4 6.2 6.2 0 011-4 3.78 3.78 0 013.11-1.25 10.26 10.26 0 011.78.2l.38.08V96zm-3 11.6l.29-.06v-5.26a11.52 11.52 0 00-2-.2q-1.62 0-1.62 2.88a5 5 0 00.36 2.22 1.26 1.26 0 001.2.66 6.86 6.86 0 001.81-.24zm8.9-8.76V96.4h10v2.44H408V110h-2.77V98.84zm11.5-.12V96h2.67v2.72zm0 11.28v-10h2.67v10zm9.98 0h-4.58V96.4h4.58a9.4 9.4 0 012.89.37 3.4 3.4 0 011.77 1.23 5 5 0 01.87 2 15.2 15.2 0 01.24 3 18.11 18.11 0 01-.22 3 6.19 6.19 0 01-.83 2.16 3.52 3.52 0 01-1.77 1.38 8.51 8.51 0 01-2.95.46zm2.9-5.4v-1.77a14.42 14.42 0 00-.09-1.81 3.39 3.39 0 00-.38-1.24 1.57 1.57 0 00-.89-.77 4.82 4.82 0 00-1.58-.21h-1.83v8.8h1.83a2.79 2.79 0 002.17-.76 3.81 3.81 0 00.78-2.24zm5.27-8.2h5.33a5 5 0 013.19.85 3.33 3.33 0 011.06 2.75 4 4 0 01-.34 1.81 3.2 3.2 0 01-1.16 1.19 2.65 2.65 0 011.32 1.1 3.88 3.88 0 01.43 2 3.59 3.59 0 01-1.15 2.94 5 5 0 01-3.26 1h-5.42zm5.2 2.36H434V102h2.46a1.62 1.62 0 000-3.24zm.07 5.56H434v3.32h2.52a2.05 2.05 0 001.33-.36 1.65 1.65 0 00.43-1.32c.01-1.1-.57-1.64-1.75-1.64zm16.3 1.68h-2.24v4h-2.76V96.4h5q4.85 0 4.84 4.72a5 5 0 01-1.23 3.65 4.82 4.82 0 01-3.61 1.23zm-2.24-2.36h2.22c1.38 0 2.06-.85 2.05-2.56a2.68 2.68 0 00-.49-1.81 2 2 0 00-1.56-.55h-2.22zm8.78 6.36v-10H462v1.06a10.37 10.37 0 013.2-1.3v2.7l-2.78.7-.4.14v6.7zm7.97-8.87a5.26 5.26 0 017.08 0 6.21 6.21 0 011.06 3.85q0 5.26-4.6 5.26t-4.6-5.26a6.14 6.14 0 011.06-3.85zm2.06 6.11a1.56 1.56 0 001.47.72 1.54 1.54 0 001.47-.72 4.66 4.66 0 00.41-2.26 4.54 4.54 0 00-.41-2.24 1.55 1.55 0 00-1.47-.7 1.57 1.57 0 00-1.47.7 4.66 4.66 0 00-.4 2.26 4.78 4.78 0 00.4 2.24zm11.2-4.96V110h-2.69v-7.72h-1.07V100h1.07v-.44a5 5 0 01.64-3 2.77 2.77 0 012.28-.82 11.82 11.82 0 011.87.2l.42.06v2.18h-1.48a.88.88 0 00-.8.32 2.12 2.12 0 00-.2 1.1v.4H483v2.28zm6.58 5.19a2 2 0 001.36.41l3.32-.12.55-.06v2a18 18 0 01-4.16.56A4.1 4.1 0 01485 109a6 6 0 01-1-3.9q0-5.39 4.42-5.38c2.9 0 4.36 1.5 4.36 4.52l-.2 1.86h-5.88a1.73 1.73 0 00.48 1.37zm3-3.37a2.75 2.75 0 00-.38-1.67 2.11 2.11 0 00-2.68 0 2.76 2.76 0 00-.41 1.65zm11.69-1.6a32.89 32.89 0 00-3.47-.32 2.86 2.86 0 00-1.28.18.61.61 0 00-.29.57.54.54 0 00.39.54 14.42 14.42 0 002 .44 4.37 4.37 0 012.29 1 2.89 2.89 0 01.68 2.14q0 3.24-4 3.24a17.42 17.42 0 01-3.19-.36l-.64-.12.07-2.24a33 33 0 003.46.32 3.06 3.06 0 001.32-.19.62.62 0 00.35-.57.59.59 0 00-.37-.56 9.44 9.44 0 00-1.92-.44 4.89 4.89 0 01-2.31-.88 2.71 2.71 0 01-.76-2.21 2.81 2.81 0 011.08-2.4 4.5 4.5 0 012.78-.81 18.1 18.1 0 013.22.38l.65.12zm9.43 0a32.89 32.89 0 00-3.47-.32 2.89 2.89 0 00-1.28.18.63.63 0 00-.29.57.54.54 0 00.39.54 14.82 14.82 0 002 .44 4.34 4.34 0 012.29 1 2.89 2.89 0 01.68 2.14q0 3.24-4 3.24a17.42 17.42 0 01-3.2-.36l-.64-.12.08-2.24a32.65 32.65 0 003.45.32 3 3 0 001.32-.19.61.61 0 00.35-.57.59.59 0 00-.37-.56 9.08 9.08 0 00-1.92-.44 4.94 4.94 0 01-2.31-.88 2.74 2.74 0 01-.76-2.21 2.81 2.81 0 011.08-2.4 4.52 4.52 0 012.78-.81 18 18 0 013.22.38l.66.12zm2.25-3.78V96h2.68v2.72zm0 11.28v-10h2.68v10zm5.7-8.87a5.26 5.26 0 017.08 0 6.14 6.14 0 011.06 3.85q0 5.26-4.6 5.26c-3.06 0-4.6-1.75-4.6-5.26a6.21 6.21 0 011.06-3.85zm2.07 6.11a1.54 1.54 0 001.47.72 1.56 1.56 0 001.47-.72 4.78 4.78 0 00.41-2.26 4.66 4.66 0 00-.41-2.24 1.57 1.57 0 00-1.47-.7 1.55 1.55 0 00-1.47.7 4.54 4.54 0 00-.41 2.24 4.66 4.66 0 00.41 2.26zM532 110h-2.67v-10H532v.56a5 5 0 012.5-.8 3 3 0 012.77 1.18 6.93 6.93 0 01.76 3.64V110h-2.69v-5.34a4.52 4.52 0 00-.3-1.89 1.17 1.17 0 00-1.19-.61 4.42 4.42 0 00-1.58.28l-.25.08zm16.06-6.88v4.16a1.55 1.55 0 00.16.67.73.73 0 00.5.27l-.08 2a7.19 7.19 0 01-1.63-.14 3.55 3.55 0 01-1.23-.56 6.61 6.61 0 01-2.94.7c-2.06 0-3.1-1.09-3.1-3.28a2.7 2.7 0 01.86-2.27 4.92 4.92 0 012.64-.79l2.14-.16v-.62a1 1 0 00-.28-.85 1.41 1.41 0 00-.9-.23l-3.76.16-.08-1.86a15.85 15.85 0 014.07-.58 4 4 0 012.78.8 3.39 3.39 0 01.85 2.58zm-4.5 2.64a1.09 1.09 0 00-1.12 1.2c0 .73.33 1.1 1 1.1a6.46 6.46 0 001.66-.24l.3-.08v-2.14zm7.17 4.24V96h2.69v14zM251.46 149.87v-1.24h3.44v6.12a22.65 22.65 0 01-4.05.43c-1.81 0-3.06-.53-3.77-1.57a11.66 11.66 0 010-9.67c.7-1.05 1.95-1.58 3.74-1.58a17.71 17.71 0 013.47.36l.61.12-.06 1.15a23.7 23.7 0 00-3.86-.38 3 3 0 00-2.79 1.19 11.36 11.36 0 000 8A2.94 2.94 0 00251 154a14.22 14.22 0 002.57-.24v-3.84zm5.54.61a5.69 5.69 0 01.88-3.56 4.57 4.57 0 015.95 0 5.69 5.69 0 01.88 3.56 6.07 6.07 0 01-.83 3.58 4.65 4.65 0 01-6.05 0 6.07 6.07 0 01-.83-3.58zm1.39 0a5.71 5.71 0 00.48 2.76 2.17 2.17 0 002 .79c1 0 1.67-.26 2-.79a5.8 5.8 0 00.47-2.76 5.15 5.15 0 00-.52-2.72 2.88 2.88 0 00-3.88 0 5 5 0 00-.57 2.7zm17.11-3.31h-2.87v4.31a5.78 5.78 0 00.23 2c.15.32.51.48 1.07.48l1.6-.11.09 1.12a12.5 12.5 0 01-1.84.2 2.37 2.37 0 01-1.94-.68 4.49 4.49 0 01-.53-2.61v-4.74H270V146h1.29v-2.75h1.32V146h2.87zm1.25 3.31a5.69 5.69 0 01.88-3.56 4.57 4.57 0 015.95 0 5.76 5.76 0 01.87 3.56 6.08 6.08 0 01-.82 3.58 4.65 4.65 0 01-6.05 0 6 6 0 01-.83-3.58zm1.38 0a5.71 5.71 0 00.48 2.76 2.18 2.18 0 002 .79c1 0 1.68-.26 2-.79a5.8 5.8 0 00.47-2.76 5 5 0 00-.53-2.72 2.87 2.87 0 00-3.87 0 4.91 4.91 0 00-.55 2.7zm20.23 4.32a17.08 17.08 0 01-3.33.38 5.93 5.93 0 01-2.39-.41 3 3 0 01-1.4-1.26 5.61 5.61 0 01-.68-2 16.24 16.24 0 01-.19-2.76 16.74 16.74 0 01.19-2.78 5.85 5.85 0 01.68-2 2.88 2.88 0 011.39-1.26 5.76 5.76 0 012.34-.4 16.86 16.86 0 013.39.4l-.05 1.17a17.52 17.52 0 00-3.25-.32 2.68 2.68 0 00-2.61 1.18 9 9 0 00-.64 4 19.59 19.59 0 00.11 2.29 5 5 0 00.46 1.56 2 2 0 001 1 4.83 4.83 0 001.93.3 16.44 16.44 0 003-.33zm7.98-.92h.52v1.06a24.45 24.45 0 01-3.5.29 3.17 3.17 0 01-2.76-1.13 6 6 0 01-.81-3.5c0-3.16 1.25-4.73 3.76-4.73a3.44 3.44 0 012.72 1 4.73 4.73 0 01.9 3.19l-.07 1h-5.94a3.7 3.7 0 00.54 2.22 2.21 2.21 0 001.88.72l2.76-.12zm-.49-3.9a4 4 0 00-.53-2.34 2.06 2.06 0 00-1.73-.68 2.24 2.24 0 00-1.8.71 3.65 3.65 0 00-.62 2.31zm3.45 5.02v-9h1.34v1.22a8.76 8.76 0 013.29-1.42v1.37a8.53 8.53 0 00-1.57.45 9.37 9.37 0 00-1.26.54l-.45.23V155zm10.89-7.83h-2.86v4.31a5.85 5.85 0 00.22 2q.22.48 1.08.48l1.6-.11.08 1.12a12.53 12.53 0 01-1.83.2 2.38 2.38 0 01-2-.68 4.57 4.57 0 01-.53-2.61v-4.74h-1.29V146H316v-2.75h1.33V146h2.86zm1.64-3.17v-1.6h1.36v1.6zm0 11v-9h1.36v9zm5.67-7.83V155h-1.35v-7.83H325V146h1.13v-.81a4.46 4.46 0 01.54-2.6 2.27 2.27 0 011.89-.69l1.82.12v1.11h-1.67a1 1 0 00-.94.44 3.43 3.43 0 00-.28 1.67v.76h2.61v1.17zm4.22-3.17v-1.6h1.36v1.6zm0 11v-9h1.36v9zm7.28-9.18a14.88 14.88 0 012 .22l.43.05-.06 1.1a20.44 20.44 0 00-2.12-.16 2.47 2.47 0 00-2.08.73 4.68 4.68 0 00-.55 2.7 5.3 5.3 0 00.51 2.74 2.45 2.45 0 002.14.77l2.12-.16.06 1.12a18.14 18.14 0 01-2.51.25 3.4 3.4 0 01-2.91-1.08 6.3 6.3 0 01-.8-3.64 5.68 5.68 0 01.87-3.6 3.54 3.54 0 012.9-1.04zm10.85 2.9v4.61c0 .45.39.71 1 .79v1.06a2.92 2.92 0 01-2.15-.72 7.88 7.88 0 01-3.23.72 2.47 2.47 0 01-1.89-.7 2.84 2.84 0 01-.65-2 2.53 2.53 0 01.66-1.93 3.51 3.51 0 012.09-.77l2.83-.27v-.77a1.77 1.77 0 00-.4-1.31A1.43 1.43 0 00347 147a26 26 0 00-3 .18l-.56.05-.05-1a18.49 18.49 0 013.51-.4 2.51 2.51 0 012.91 2.9zm-5.53 3.67c0 1.1.45 1.65 1.36 1.65a7.55 7.55 0 002.42-.41l.41-.14v-3l-2.66.25a1.72 1.72 0 00-1.17.47 1.65 1.65 0 00-.36 1.18zm12.86-5.22h-2.86v4.31a5.85 5.85 0 00.22 2q.22.48 1.08.48l1.6-.11.09 1.12a12.78 12.78 0 01-1.84.2 2.34 2.34 0 01-1.94-.68 4.48 4.48 0 01-.54-2.61v-4.74h-1.28V146H353v-2.75h1.33V146h2.86zm1.65-3.17v-1.6h1.35v1.6zm0 11v-9h1.35v9zm3.54-4.52a5.69 5.69 0 01.88-3.56 4.57 4.57 0 015.95 0 5.69 5.69 0 01.88 3.56 6.07 6.07 0 01-.83 3.58 4.65 4.65 0 01-6.05 0 6.07 6.07 0 01-.83-3.58zm1.39 0a5.71 5.71 0 00.48 2.76 2.17 2.17 0 002 .79c1 0 1.67-.26 2-.79a5.8 5.8 0 00.47-2.76 5.15 5.15 0 00-.52-2.72 2.88 2.88 0 00-3.88 0 5 5 0 00-.55 2.7zm9.86 4.52h-1.35v-9h1.33v.63a5.74 5.74 0 012.79-.81 2.67 2.67 0 012.42 1 6.79 6.79 0 01.63 3.46V155h-1.34v-4.72a6 6 0 00-.37-2.56 1.61 1.61 0 00-1.57-.69 4.9 4.9 0 00-1.22.17 5.79 5.79 0 00-1 .33l-.34.17zm18.54-4.54l-6.1-2.83v-1.39l7.49 3.64v1.2l-7.49 3.68v-1.41z"/></g></svg>