<svg xmlns="http://www.w3.org/2000/svg" width="48" height="48"><defs><linearGradient id="a" x1=".5" x2=".5" y2="1" gradientUnits="objectBoundingBox"><stop offset="0" stop-color="#84fcfc"/><stop offset="1" stop-color="#674ff0"/></linearGradient></defs><g data-name="组 4670"><path data-name="矩形 4146" fill="none" d="M0 0h48v48H0z"/></g><g data-name="组 4673"><g data-name="组 4672"><g data-name="组 4671"><path data-name="路径 15123" d="M34 4.5c-3.9 0-8.1.8-11 3-2.9-2.2-7.1-3-11-3s-8.1.8-11 3v29.3c0 1.3 1.46.9 1.5.9a24.411 24.411 0 0 1 9.5-2.2c3.9 0 8.1.8 11 3a24.091 24.091 0 0 1 11-3 20.357 20.357 0 0 1 9.5 2.1 1.057 1.057 0 0 0 1.5-.9V7.5c-2.98-2.24-7.26-3-11-3Zm7 28a23.241 23.241 0 0 0-7-1 24.091 24.091 0 0 0-11 3v-23a24.091 24.091 0 0 1 11-3 23.241 23.241 0 0 1 7 1Z" transform="translate(1 4.5)" fill="url(#a)"/></g></g></g></svg>