<svg xmlns="http://www.w3.org/2000/svg" width="48" height="48"><defs><linearGradient id="a" x1=".5" x2=".5" y2="1" gradientUnits="objectBoundingBox"><stop offset="0" stop-color="#84fcfc"/><stop offset="1" stop-color="#674ff0"/></linearGradient></defs><path data-name="路径 15130" d="M0 0h48v48H0Z" fill="none"/><path data-name="路径 15131" d="M19 26a5.975 5.975 0 0 0 5.98-6L25 8a6 6 0 0 0-12 0v12a5.992 5.992 0 0 0 6 6Zm10.6-6A10.377 10.377 0 0 1 19 30.2 10.377 10.377 0 0 1 8.4 20H5c0 6.82 5.44 12.46 12 13.44V40h4v-6.56c6.56-.96 12-6.6 12-13.44Z" transform="translate(5 2)" fill="url(#a)"/></svg>