<svg xmlns="http://www.w3.org/2000/svg" width="48" height="48"><defs><linearGradient id="a" x1=".5" x2=".5" y2="1" gradientUnits="objectBoundingBox"><stop offset="0" stop-color="#84fcfc"/><stop offset="1" stop-color="#674ff0"/></linearGradient></defs><path data-name="路径 15126" d="M0 0h48v48H0Z" fill="none"/><path data-name="路径 15127" d="M38 10h-4.36A5.986 5.986 0 0 0 23 4.7l-1 1.34-1-1.36A5.988 5.988 0 0 0 10.36 10H6a3.969 3.969 0 0 0-3.98 4L2 36a3.986 3.986 0 0 0 4 4h32a3.986 3.986 0 0 0 4-4V14a3.986 3.986 0 0 0-4-4ZM28 6a2 2 0 1 1-2 2 2.006 2.006 0 0 1 2-2ZM16 6a2 2 0 1 1-2 2 2.006 2.006 0 0 1 2-2Zm22 30H6v-4h32Zm0-10H6V14h10.16L12 19.66 15.24 22 20 15.52l2-2.72 2 2.72L28.76 22 32 19.66 27.84 14H38Z" transform="translate(2 2)" fill="url(#a)"/></svg>