<svg xmlns="http://www.w3.org/2000/svg" width="48" height="48"><defs><linearGradient id="a" x1=".5" x2=".5" y2="1" gradientUnits="objectBoundingBox"><stop offset="0" stop-color="#84fcfc"/><stop offset="1" stop-color="#674ff0"/></linearGradient></defs><path data-name="路径 15132" d="M0 0h48v48H0Z" fill="none"/><path data-name="路径 15133" d="m40.82 21.16-18-18A3.975 3.975 0 0 0 20 2H6a4.012 4.012 0 0 0-4 4v14a3.991 3.991 0 0 0 1.18 2.84l18 18A3.975 3.975 0 0 0 24 42a3.911 3.911 0 0 0 2.82-1.18l14-14A3.911 3.911 0 0 0 42 24a4.04 4.04 0 0 0-1.18-2.84ZM9 12a3 3 0 1 1 3-3 3 3 0 0 1-3 3Z" transform="translate(2 2)" fill="url(#a)"/></svg>