<svg xmlns="http://www.w3.org/2000/svg" viewBox="0 0 31.85 14.76"><defs><linearGradient id="a" x1=".5" x2=".5" y2="1" gradientUnits="objectBoundingBox"><stop offset="0" stop-color="#84fcfc"/><stop offset="1" stop-color="#674ff0"/></linearGradient></defs><path data-name="路径 15117" d="M25.533-14.7a7.771 7.771 0 0 1 5.36 1.994 6.944 6.944 0 0 1 2.1 5.36 6.98 6.98 0 0 1-2.175 5.412A7.812 7.812 0 0 1 25.326.06a7.62 7.62 0 0 1-4.557-1.372 20.383 20.383 0 0 1-3.936-3.91 11.275 11.275 0 0 1-3.393 3.806A8.2 8.2 0 0 1 8.6.06a7.744 7.744 0 0 1-5.388-1.994 6.99 6.99 0 0 1-2.072-5.36 6.98 6.98 0 0 1 2.175-5.412A7.812 7.812 0 0 1 8.8-14.7a7.233 7.233 0 0 1 4.48 1.424 20.584 20.584 0 0 1 3.858 4.014 11.921 11.921 0 0 1 3.5-3.91 8.238 8.238 0 0 1 4.895-1.528ZM8.857-2.685a6.06 6.06 0 0 0 3.625-1.243 9.937 9.937 0 0 0 2.848-3.314 23.366 23.366 0 0 0-3.211-3.573 4.742 4.742 0 0 0-3.159-1.192 4.6 4.6 0 0 0-3.444 1.295 4.673 4.673 0 0 0-1.269 3.418 4.6 4.6 0 0 0 1.217 3.366 4.53 4.53 0 0 0 3.393 1.243Zm16.314.052a4.6 4.6 0 0 0 3.444-1.295 4.673 4.673 0 0 0 1.269-3.418 4.6 4.6 0 0 0-1.217-3.366 4.53 4.53 0 0 0-3.392-1.243A5.973 5.973 0 0 0 21.6-10.66a10.735 10.735 0 0 0-2.9 3.47 19.972 19.972 0 0 0 3.156 3.39 5.145 5.145 0 0 0 3.314 1.167Z" transform="translate(-1.14 14.7)" fill="url(#a)"/></svg>