<svg xmlns="http://www.w3.org/2000/svg" viewBox="0 0 32 32"><defs><linearGradient id="a" x2="0" y2="1" gradientUnits="objectBoundingBox"><stop offset="0" stop-color="#84fcfc"/><stop offset="1" stop-color="#674ff0"/></linearGradient></defs><path fill="none" d="M0 0h32v32H0z"/><path d="m24.613 19.937-7.066-7.067h-1.32l-3.387 3.387v1.32l7.067 7.067a1.328 1.328 0 0 0 1.88 0l2.827-2.827a1.328 1.328 0 0 0-.001-1.88Z" transform="translate(4.28 4.29)" fill="url(#a)"/><path d="m22.453 13.253 1.88-1.88L27.16 14.2a4 4 0 0 0 0-5.653l-4.72-4.72-1.88 1.88v-3.76L19.627 1l-4.72 4.72.947.947h3.773l-1.88 1.88L19.16 9.96l-3.853 3.853L9.8 8.307V6.413L5.773 2.387 2 6.16l4.04 4.04h1.88l5.507 5.507-1.134 1.133H9.467L2.4 23.907a1.328 1.328 0 0 0 0 1.88l2.827 2.827a1.328 1.328 0 0 0 1.88 0l7.067-7.067V18.72l6.867-6.867Z" transform="translate(.667 .333)" fill="url(#a)"/></svg>