<svg xmlns="http://www.w3.org/2000/svg" viewBox="0 0 32 32"><defs><linearGradient id="a" x1=".5" x2=".5" y2="1" gradientUnits="objectBoundingBox"><stop offset="0" stop-color="#84fcfc"/><stop offset="1" stop-color="#674ff0"/></linearGradient></defs><path data-name="路径 15120" d="M0 0h32v32H0Z" fill="none"/><path data-name="路径 15121" d="M24.333 3H5.667A2.675 2.675 0 0 0 3 5.667v18.666A2.675 2.675 0 0 0 5.667 27h18.666A2.675 2.675 0 0 0 27 24.333V5.667A2.675 2.675 0 0 0 24.333 3ZM11 21.667H8.333V15H11Zm5.333 0h-2.666v-4h2.667Zm0-6.667h-2.666v-2.667h2.667Zm5.333 6.667H19V8.333h2.667Z" transform="translate(1 1)" fill="url(#a)"/></svg>