<svg version="1.0" xmlns="http://www.w3.org/2000/svg" viewBox="0 0 500 500"><path d="M232 .6c-1.9.2-7.8.9-13 1.5-21 2.4-44.8 8.7-65.7 17.5C84.9 48.2 32.2 106.7 10.7 178 3.3 202.5.5 221.9.5 250s2.8 47.5 10.2 72C34.9 402.2 97.8 465.1 178 489.3c24.5 7.4 43.9 10.2 72 10.2s47.5-2.8 72-10.2c80.2-24.2 143.1-87.1 167.3-167.3 7.4-24.5 10.2-43.9 10.2-72 0-11.9-.6-25.5-1.3-30.5-5.8-41.3-18.6-75.4-40.7-108.5C417.3 50.9 355.3 12.4 282 2 274.2.9 238.1-.1 232 .6zm52.3 11.9c36.2 5.7 69.3 18.4 98.1 37.6 58.7 39.2 95.1 97.6 105.7 169.4 1.8 11.8 1.8 49.2 0 61-9 61.3-37.9 114.5-82.6 152.2-35.3 29.8-77.3 48.4-125 55.4-11.8 1.8-49.2 1.8-61 0-63.9-9.4-117.9-39.8-156.7-88.2-27.1-33.7-44.2-73.8-50.9-119.4-1.8-11.8-1.8-49.2 0-61 7.8-53.1 29.6-98.5 65.5-136.3 24.3-25.6 60.3-48.4 95.1-60.1 19.9-6.7 33.4-9.5 59.5-12.5 7.5-.9 43 .4 52.3 1.9z"/><path d="M148.5 166.1c-27.2 4.5-49.9 23.6-60.4 50.9-4.7 12.2-6.4 21.9-6.5 37.5 0 7.7.6 16.7 1.3 20 6.6 31.5 23.9 53.3 50 63.4 10.6 4.1 18.6 5.4 33.1 5.4 15.1 0 22.7-1.6 35.8-7.9 20.2-9.7 34.2-30.2 38-55.7l.9-5.7h-36.4l-1.2 5.7c-2.6 13.2-10.5 24.3-20.9 29.1-5.2 2.5-6.8 2.7-17.7 2.7-11.4 0-12.4-.2-18.6-3.1-11.8-5.6-20.4-16.9-24.6-32.4-2.5-9.1-2.5-33.8 0-43 7-25.9 26.7-40.1 50-36.2 15.8 2.8 26.9 12.7 31.3 27.9.5 1.9 36.4 1.8 36.4 0 0-.8-.9-4.8-2-9.1-6.4-25.2-26.3-43.3-54-49.1-7.7-1.6-26-1.8-34.5-.4zM267 254.5V340h35v-57.3c.1-48.8.3-56.9 1.4-55.4.8 1 16.9 26.8 35.8 57.2l34.3 55.4 18.8.1H411V169h-35l-.1 57.2c0 54.2-.1 57.2-1.7 54.9-.9-1.3-17-26.9-35.7-57l-34.1-54.6-18.7-.3-18.7-.2v85.5z"/></svg>
