<svg xmlns="http://www.w3.org/2000/svg" xmlns:xlink="http://www.w3.org/1999/xlink" width="430.82" height="381.904" viewBox="0 0 430.82 381.904">
  <defs>
    <linearGradient id="linear-gradient" x1="67.279" y1="1.276" x2="69.446" y2="1.276" gradientUnits="objectBoundingBox">
      <stop offset="0" stop-color="#444b8c"/>
      <stop offset="0.996" stop-color="#26264f"/>
    </linearGradient>
    <linearGradient id="linear-gradient-2" x1="65.23" y1="-2.949" x2="66.051" y2="-4.775" gradientUnits="objectBoundingBox">
      <stop offset="0" stop-color="#ffc444"/>
      <stop offset="0.996" stop-color="#f36f56"/>
    </linearGradient>
    <linearGradient id="linear-gradient-3" x1="1.237" y1="0.604" x2="0.533" y2="0.506" xlink:href="#linear-gradient"/>
    <linearGradient id="linear-gradient-4" x1="0.049" y1="0.702" x2="0.53" y2="0.433" gradientUnits="objectBoundingBox">
      <stop offset="0" stop-color="#ff9085"/>
      <stop offset="1" stop-color="#fb6fbb"/>
    </linearGradient>
    <linearGradient id="linear-gradient-5" x1="-5.703" y1="0.663" x2="-4.707" y2="0.663" xlink:href="#linear-gradient"/>
    <linearGradient id="linear-gradient-6" x1="-4.222" y1="1.832" x2="-2.998" y2="0.056" xlink:href="#linear-gradient-2"/>
    <linearGradient id="linear-gradient-7" x1="-0.042" y1="0.923" x2="-1.175" y2="0.274" xlink:href="#linear-gradient"/>
    <linearGradient id="linear-gradient-8" x1="0.136" y1="0.779" x2="0.732" y2="0.353" xlink:href="#linear-gradient-4"/>
    <linearGradient id="linear-gradient-9" x1="0" y1="0.5" x2="1" y2="0.5" xlink:href="#linear-gradient-2"/>
    <linearGradient id="linear-gradient-10" x1="-5.119" y1="-6.17" x2="-5.336" y2="-6.459" xlink:href="#linear-gradient"/>
    <linearGradient id="linear-gradient-11" x1="-5.578" y1="-5.594" x2="-5.057" y2="-6.575" gradientUnits="objectBoundingBox">
      <stop offset="0" stop-color="#311944"/>
      <stop offset="1" stop-color="#893976"/>
    </linearGradient>
    <linearGradient id="linear-gradient-12" x1="-7.776" y1="-6.241" x2="-6.273" y2="-6.241" xlink:href="#linear-gradient-11"/>
    <linearGradient id="linear-gradient-13" x1="-0.164" y1="-0.444" x2="1.456" y2="1.585" xlink:href="#linear-gradient-2"/>
    <linearGradient id="linear-gradient-14" x1="0.178" y1="0.766" x2="0.784" y2="0.258" xlink:href="#linear-gradient-4"/>
    <linearGradient id="linear-gradient-15" x1="1.185" y1="-0.904" x2="1.238" y2="-2.978" xlink:href="#linear-gradient-2"/>
    <linearGradient id="linear-gradient-16" x1="-17.068" y1="-1.158" x2="-17.745" y2="-2.7" gradientUnits="objectBoundingBox">
      <stop offset="0" stop-color="#311944"/>
      <stop offset="1" stop-color="#6b3976"/>
    </linearGradient>
    <linearGradient id="linear-gradient-17" x1="7.14" y1="-2.858" x2="7.104" y2="0.304" xlink:href="#linear-gradient-2"/>
    <linearGradient id="linear-gradient-18" x1="-20.048" y1="-2.187" x2="-20.829" y2="-4.39" xlink:href="#linear-gradient-16"/>
    <linearGradient id="linear-gradient-19" x1="0.461" y1="1.043" x2="0.568" y2="0.055" xlink:href="#linear-gradient-4"/>
    <linearGradient id="linear-gradient-20" x1="0.402" y1="-3.524" x2="0.634" y2="6.387" xlink:href="#linear-gradient"/>
    <linearGradient id="linear-gradient-21" x1="0.561" y1="1.882" x2="0.206" y2="-8.958" xlink:href="#linear-gradient-2"/>
    <linearGradient id="linear-gradient-22" x1="0.365" y1="-1.189" x2="0.664" y2="2.684" xlink:href="#linear-gradient"/>
    <linearGradient id="linear-gradient-23" x1="0.527" y1="1.268" x2="0.349" y2="-3.814" xlink:href="#linear-gradient-2"/>
    <linearGradient id="linear-gradient-24" x1="-0.055" y1="0.668" x2="0.95" y2="0.31" gradientUnits="objectBoundingBox">
      <stop offset="0" stop-color="#aa80f9"/>
      <stop offset="0.996" stop-color="#6165d7"/>
    </linearGradient>
    <linearGradient id="linear-gradient-25" x1="-4.116" y1="1.147" x2="-3.385" y2="7.295" xlink:href="#linear-gradient-2"/>
    <linearGradient id="linear-gradient-26" x1="-0.132" y1="0.737" x2="1.486" y2="0.111" xlink:href="#linear-gradient-24"/>
    <linearGradient id="linear-gradient-27" y1="0.5" x2="1" y2="0.5" gradientUnits="objectBoundingBox">
      <stop offset="0.004" stop-color="#e38ddd"/>
      <stop offset="1" stop-color="#9571f6"/>
    </linearGradient>
    <linearGradient id="linear-gradient-28" x1="0.61" y1="0.683" x2="0.394" y2="0.44" xlink:href="#linear-gradient"/>
    <linearGradient id="linear-gradient-29" x1="-0.295" y1="0.693" x2="1.109" y2="0.332" xlink:href="#linear-gradient-24"/>
    <linearGradient id="linear-gradient-30" x1="0" y1="0.5" x2="1" y2="0.5" xlink:href="#linear-gradient-24"/>
    <linearGradient id="linear-gradient-32" x1="0.315" y1="-0.146" x2="0.528" y2="0.812" xlink:href="#linear-gradient-24"/>
    <linearGradient id="linear-gradient-34" x1="0.463" y1="0.967" x2="1.155" y2="-0.8" xlink:href="#linear-gradient-2"/>
    <linearGradient id="linear-gradient-35" x1="0.192" y1="0.615" x2="3.888" y2="-1.369" xlink:href="#linear-gradient-2"/>
    <linearGradient id="linear-gradient-36" x1="0.475" y1="0.258" x2="1.407" y2="6.391" xlink:href="#linear-gradient-2"/>
    <linearGradient id="linear-gradient-37" x1="22.794" y1="3.727" x2="23.846" y2="5.176" xlink:href="#linear-gradient"/>
    <linearGradient id="linear-gradient-38" x1="29.961" y1="8.765" x2="29.961" y2="7.349" xlink:href="#linear-gradient-2"/>
    <linearGradient id="linear-gradient-39" x1="29.374" y1="4.138" x2="30.706" y2="5.926" xlink:href="#linear-gradient"/>
    <linearGradient id="linear-gradient-40" x1="24.12" y1="-0.515" x2="25.214" y2="0.793" xlink:href="#linear-gradient"/>
    <linearGradient id="linear-gradient-41" x1="25.919" y1="5.091" x2="25.919" y2="3.727" xlink:href="#linear-gradient-2"/>
    <linearGradient id="linear-gradient-42" x1="30.504" y1="-1.298" x2="31.864" y2="0.479" xlink:href="#linear-gradient"/>
    <linearGradient id="linear-gradient-43" x1="-3.283" y1="0.526" x2="-3.583" y2="-0.06" xlink:href="#linear-gradient-4"/>
    <linearGradient id="linear-gradient-44" x1="-33.098" y1="0.168" x2="-33.787" y2="1.411" xlink:href="#linear-gradient-2"/>
    <linearGradient id="linear-gradient-45" x1="-0.822" y1="0.278" x2="-0.209" y2="0.68" xlink:href="#linear-gradient-27"/>
    <linearGradient id="linear-gradient-46" x1="15.852" y1="0.453" x2="17.033" y2="2" xlink:href="#linear-gradient-2"/>
    <linearGradient id="linear-gradient-47" x1="166.783" y1="0.633" x2="181.102" y2="14.422" xlink:href="#linear-gradient-2"/>
    <linearGradient id="linear-gradient-48" x1="-1.421" y1="0.253" x2="-0.667" y2="0.79" xlink:href="#linear-gradient-27"/>
    <linearGradient id="linear-gradient-49" x1="-3.112" y1="0.574" x2="-1.99" y2="1.364" xlink:href="#linear-gradient-27"/>
    <linearGradient id="linear-gradient-50" x1="-0.291" y1="0.132" x2="-0.695" y2="0.499" xlink:href="#linear-gradient"/>
    <linearGradient id="linear-gradient-51" x1="-1.363" y1="0.5" x2="-0.363" y2="0.5" xlink:href="#linear-gradient"/>
    <linearGradient id="linear-gradient-52" x1="-2.083" y1="0.5" x2="-1.083" y2="0.5" xlink:href="#linear-gradient-24"/>
    <linearGradient id="linear-gradient-53" x1="-17.175" y1="0.5" x2="-16.175" y2="0.5" xlink:href="#linear-gradient-24"/>
    <linearGradient id="linear-gradient-54" x1="-0.507" y1="1.084" x2="-0.661" y2="0.837" xlink:href="#linear-gradient-11"/>
    <linearGradient id="linear-gradient-55" x1="6.102" y1="-2.57" x2="6.268" y2="2.836" gradientUnits="objectBoundingBox">
      <stop offset="0.004" stop-color="#26264f"/>
      <stop offset="1" stop-color="#444b8c"/>
    </linearGradient>
    <linearGradient id="linear-gradient-56" x1="-9.678" y1="-5.688" x2="-9.793" y2="-12.187" xlink:href="#linear-gradient-2"/>
    <linearGradient id="linear-gradient-57" x1="6.102" y1="-2.57" x2="6.268" y2="2.836" xlink:href="#linear-gradient-55"/>
    <linearGradient id="linear-gradient-58" x1="-9.656" y1="-4.77" x2="-9.772" y2="-11.269" xlink:href="#linear-gradient-2"/>
    <linearGradient id="linear-gradient-59" x1="0.74" y1="-0.103" x2="0.57" y2="0.191" gradientUnits="objectBoundingBox">
      <stop offset="0" stop-color="#893976"/>
      <stop offset="1" stop-color="#311944"/>
    </linearGradient>
    <linearGradient id="linear-gradient-60" x1="0" y1="0.5" x2="1" y2="0.5" xlink:href="#linear-gradient-59"/>
    <linearGradient id="linear-gradient-61" x1="0.155" y1="0.296" x2="0.802" y2="0.712" xlink:href="#linear-gradient-4"/>
    <linearGradient id="linear-gradient-62" x1="0.521" y1="0.074" x2="0.461" y2="1.199" xlink:href="#linear-gradient-2"/>
    <linearGradient id="linear-gradient-63" x1="18.542" y1="-3.416" x2="19.723" y2="-1.868" xlink:href="#linear-gradient-2"/>
    <linearGradient id="linear-gradient-64" x1="198.159" y1="-30.228" x2="212.477" y2="-16.439" xlink:href="#linear-gradient-2"/>
    <linearGradient id="linear-gradient-65" x1="-0.124" y1="0.253" x2="0.63" y2="0.79" xlink:href="#linear-gradient-4"/>
    <linearGradient id="linear-gradient-66" x1="0.672" y1="0.619" x2="1.587" y2="1.527" xlink:href="#linear-gradient-4"/>
    <linearGradient id="linear-gradient-67" x1="0.174" y1="0.5" x2="1.174" y2="0.5" xlink:href="#linear-gradient-24"/>
    <linearGradient id="linear-gradient-68" x1="1.318" y1="0.5" x2="2.318" y2="0.5" xlink:href="#linear-gradient-24"/>
    <linearGradient id="linear-gradient-69" x1="1.007" y1="1.084" x2="0.852" y2="0.837" xlink:href="#linear-gradient-11"/>
    <linearGradient id="linear-gradient-70" x1="0.263" y1="-0.062" x2="1.13" y2="1.996" gradientUnits="objectBoundingBox">
      <stop offset="0" stop-color="#e38ddd"/>
      <stop offset="0.004" stop-color="#3738c6"/>
      <stop offset="1" stop-color="#9571f6"/>
    </linearGradient>
    <linearGradient id="linear-gradient-71" x1="0.655" y1="-0.064" x2="0.252" y2="1.398" gradientUnits="objectBoundingBox">
      <stop offset="0" stop-color="#26b0e2"/>
      <stop offset="1" stop-color="#3738c6"/>
    </linearGradient>
    <linearGradient id="linear-gradient-72" x1="0.121" y1="0.148" x2="1.649" y2="2.075" gradientUnits="objectBoundingBox">
      <stop offset="0" stop-color="#4842ce"/>
      <stop offset="0.996" stop-color="#f36f56"/>
      <stop offset="1" stop-color="#f36f56"/>
    </linearGradient>
  </defs>
  <g id="组_7595" data-name="组 7595" transform="translate(-1014.847 -183.606)">
    <g id="组_7595-2" data-name="组 7595" transform="translate(1014.847 183.606)">
      <path id="路径_14585" data-name="路径 14585" d="M137.658,435.644c23.478,2.3,51.017-21.518,71.394-12.575,19.887,8.7,3,35.273,20.527,43.926,26.059,12.845,108.9-23.128,150.05-72.326,12.384-14.8,15.7-24.459,32.251-34.533,35.562-21.638,67.682-5.912,84.8-17.826C535.25,315.49,509.141,140.7,356.391,125.17c-71.324-7.253-159.353,21.348-214.521,73.477C42.167,292.842,85,430.492,137.658,435.644Z" transform="translate(-81.742 -87.713)" fill="#3c2e86"/>
      <g id="组_7618" data-name="组 7618" transform="translate(34.689 89.755)">
        <g id="组_7599" data-name="组 7599" transform="translate(86.719 0)">
          <path id="路径_14586" data-name="路径 14586" d="M1162.526,2823.3c-.777-.4-2.084.048-2.937.338a2.229,2.229,0,0,0-.683.292c-.812.719-.1,2.595.883,5.6,1.551,4.746,1.793,6.255,2.627,6.311.781.052,1.46-1.214,1.534-1.355a4.553,4.553,0,0,0,.223-2.785c-.246-2.455-.5-4.073-.58-4.564C1163.109,2824.072,1163.036,2823.558,1162.526,2823.3Z" transform="translate(-1148.738 -2623.473)" fill="url(#linear-gradient)"/>
          <path id="路径_14587" data-name="路径 14587" d="M1186.688,2807.542l-4.972,2.75a3.073,3.073,0,0,1-1.638-2.73l4.567-3.424Z" transform="translate(-1167.554 -2606.858)" fill="url(#linear-gradient-2)"/>
          <path id="路径_14588" data-name="路径 14588" d="M1251.678,2068.226a136.147,136.147,0,0,1,4.318,27.293c.52,9.444.1,19.87-1.041,25.539-5.7,28.4-50.682,43.328-55.983,45.023l-3.338-4.482c5.6-4.164,32.965-25.139,33.237-48.5a124.9,124.9,0,0,0-2.141-20.556,136.833,136.833,0,0,0-5.94-22.029Z" transform="translate(-1181.16 -1963.421)" fill="url(#linear-gradient-3)"/>
          <path id="路径_14589" data-name="路径 14589" d="M1596.333,1421.285l4.011.8s21.058,26.874,18.05,37.1-18.05,2.407-18.05,2.407Z" transform="translate(-1531.507 -1397.774)" fill="url(#linear-gradient-4)"/>
          <path id="路径_14590" data-name="路径 14590" d="M1379.62,2942.708c-.677.55-.8,1.924-.882,2.822a2.216,2.216,0,0,0-.01.743c.327,1.033,2.331,1.142,5.474,1.463,4.967.508,6.445.9,6.834.159.365-.693-.517-1.827-.616-1.952a4.557,4.557,0,0,0-2.456-1.333c-2.343-.771-3.926-1.194-4.406-1.321C1380.565,2942.49,1380.065,2942.347,1379.62,2942.708Z" transform="translate(-1341.223 -2727.852)" fill="url(#linear-gradient-5)"/>
          <path id="路径_14591" data-name="路径 14591" d="M1382.107,2907.9l.5,5.66a3.073,3.073,0,0,1-3.16.39l-1.277-5.564Z" transform="translate(-1340.756 -2697.584)" fill="url(#linear-gradient-6)"/>
          <path id="路径_14592" data-name="路径 14592" d="M1242.483,1962.116q-1.861,33.878-3.034,69-.871,26.353-1.29,52.034l-6.211.767a72.344,72.344,0,0,1-6.477-16.717c-2.211-8.864-1.7-14.128-2.668-23.315-1.088-10.3-2.668-12.548-5.467-25.546-5.681-26.379-8.521-39.568-2.184-47.773C1217.209,1967.906,1223.658,1961.225,1242.483,1962.116Z" transform="translate(-1195.073 -1870.573)" fill="url(#linear-gradient-7)"/>
          <path id="路径_14593" data-name="路径 14593" d="M1169.094,1396.476a106.5,106.5,0,0,1,22.815-3.81c14.172-.8,21.26-1.156,25.42,2.1,12.9,10.1.675,46.217,5.272,65.193,3.869,15.967,4.011,16.245,4.011,16.245.915,1.785,2.4,4.265,1.805,7.22-.465,2.324-2.224,4.994-4.613,5.816-4.965,1.708-7.811-6.23-16.044-8.624-8.606-2.5-18.235,2.469-30.411,8.754-7.749,4-10.395,6.551-13.109,5.285-5.228-2.438-3.792-15.8-3.209-21.258C1163.351,1451.715,1165.961,1426.328,1169.094,1396.476Z" transform="translate(-1150.356 -1372.273)" fill="url(#linear-gradient-8)"/>
          <path id="路径_14594" data-name="路径 14594" d="M1509.368,1690.327c-.375-.083-1.042-2.576.6-3.309,7.42-3.309,13.163,3.243,13.931,5.259l.768,2.016a18.9,18.9,0,0,1-5.971-.48C1516.412,1693.044,1512.415,1691.006,1509.368,1690.327Z" transform="translate(-1455.071 -1629.312)" fill="url(#linear-gradient-9)"/>
          <g id="组_7596" data-name="组 7596" transform="translate(60.456 49.232)">
            <g id="组_7595-3" data-name="组 7595" transform="translate(0 0)">
              <path id="路径_14595" data-name="路径 14595" d="M1576.155,1650.943l-13.055.659c-.5.025-1.1-.594-.974-1.015l6.1-19.734a.775.775,0,0,1,.8-.527l12.52.274c.408.024.631.827.521,1.225l-5.187,18.557A.811.811,0,0,1,1576.155,1650.943Z" transform="translate(-1562.04 -1629.777)" fill="url(#linear-gradient-10)"/>
              <path id="路径_14596" data-name="路径 14596" d="M1575.438,1646.716l-13.127.616c-.5.024-.85-.336-.727-.758l5.864-20.076a.776.776,0,0,1,.806-.526l12.538.742a.639.639,0,0,1,.575.818l-5.2,18.623A.811.811,0,0,1,1575.438,1646.716Z" transform="translate(-1561.56 -1625.971)" fill="url(#linear-gradient-11)"/>
            </g>
            <path id="路径_14597" data-name="路径 14597" d="M1568.811,1634.746c.389,1.825,2.031,1.432,3.37,3.642,1.7,2.806.071,5.283,1.63,6.31a3.309,3.309,0,0,0,2.726.123l-.372,1.332a.811.811,0,0,1-.727.562l-13.127.616c-.5.024-.85-.336-.727-.758l5.864-20.076a.775.775,0,0,1,.806-.526l1.883.111a7.26,7.26,0,0,1,.362,2.368C1570.44,1631.479,1568.356,1632.608,1568.811,1634.746Z" transform="translate(-1561.56 -1625.971)" opacity="0.3" fill="url(#linear-gradient-12)" style="mix-blend-mode: multiply;isolation: isolate"/>
          </g>
          <path id="路径_14598" data-name="路径 14598" d="M1668.943,1679.3c.074-.316-.082-.641-.317-.658-.955-.069-3.171-.1-4.394.963-1.589,1.377-3.644,3.889-1.914,5.156l1.616,1.184a.257.257,0,0,0,.236.046c.574-.178,2.99-.936,3.255-1.125A43.853,43.853,0,0,0,1668.943,1679.3Z" transform="translate(-1588.626 -1622.768)" fill="url(#linear-gradient-13)"/>
          <path id="路径_14599" data-name="路径 14599" d="M1219.794,1596.779c-1.4-2.427-1.341-6.092-4.412-7.822-1.791-1.008-3.186-.536-5.615-.6-7.242-.193-8.628-4.749-13.638-5.014-7.759-.41-11.485,10.144-15.844,8.624-2.845-.993-4.677-6.683-3.209-11.031,2.047-6.06,9.062-5.23,18.25-13.437,3.931-3.511,9.571-9.847,8.022-12.635-1.627-2.928-9.345,1.369-15.042-3.008-3.324-2.554-2.9-5.71-5.616-11.432a48.523,48.523,0,0,0-14.875-16.6c-2.576,24.642-4.789,46.062-6.785,64.729-.583,5.457-2.019,18.821,3.209,21.258,2.715,1.266,5.361-1.285,13.109-5.285,12.176-6.285,21.8-11.256,30.411-8.754,8.233,2.394,11.079,10.332,16.044,8.624a7.121,7.121,0,0,0,3.666-3.34C1223.043,1600.264,1220.849,1598.608,1219.794,1596.779Z" transform="translate(-1150.356 -1487.432)" opacity="0.3" fill="url(#linear-gradient-14)" style="mix-blend-mode: multiply;isolation: isolate"/>
          <g id="组_7598" data-name="组 7598" transform="translate(29.241)">
            <path id="路径_14600" data-name="路径 14600" d="M1327.657,1313.523c.009,1.078,1.158,6.006-2.456,8.623-3.646,2.64-7.033,2.6-8.4,2.941-3.169.786-3.577.764-3.647,1.079-.341,1.534,8.3,6.763,17.228,5.5,5.464-.771,10.435-3.888,10.13-5.525s-5.765-.764-7.392-3.745c-1.132-2.073.137-5.017,1.637-7.454C1333.306,1312.223,1329.11,1316.244,1327.657,1313.523Z" transform="translate(-1313.145 -1303.553)" fill="url(#linear-gradient-15)"/>
            <g id="组_7597" data-name="组 7597" transform="translate(12.638)">
              <path id="路径_14601" data-name="路径 14601" d="M1428.03,1242.779a5.747,5.747,0,0,0-.19-6.592c-1.3-1.612-3.311-1.822-4.517-1.948-3.5-.364-7.883,1.142-9.379,4.371-.887,1.914,1.121,5.848,1.436,6.556.357.8.991,1.069,1.582,1.671.819.834,2.1,2.161,4.194,4.38a14.352,14.352,0,0,1,.767-2.377,12.7,12.7,0,0,1,1.627-2.8C1425.344,1243.8,1426.826,1244.416,1428.03,1242.779Z" transform="translate(-1413.72 -1234.186)" fill="url(#linear-gradient-16)"/>
              <path id="路径_14602" data-name="路径 14602" d="M1430.081,1294.462a7.8,7.8,0,0,0,6.9,3.391c4.088-.312,4.585-9.492,1.951-11.409a5.163,5.163,0,0,0-4.042-.476c-.836.244-1.116.6-2.489.968-1.267.344-1.627.207-2.007.534-.475.409-.816,1.4.015,4.076a2.225,2.225,0,0,0-2.39-.754,1.4,1.4,0,0,0-.539.536C1426.921,1292.382,1427.893,1293.709,1430.081,1294.462Z" transform="translate(-1425.616 -1279.284)" fill="url(#linear-gradient-17)"/>
              <path id="路径_14603" data-name="路径 14603" d="M1431.349,1294.833c.2.145-.4.887-.429,1.93a5.008,5.008,0,0,0,4.1,4.61c1.236.108,1.567-.64,3.605-.878a9.356,9.356,0,0,1,2.979.139c.666,2.211.087,4.428-1.384,5.471-1.583,1.122-3.63.475-4.485.2a5.852,5.852,0,0,1-3.379-2.422c-1.014-1.735-.049-2.8-1.2-3.966-.583-.589-1.342-.839-2.091-1.984a5.768,5.768,0,0,1-.424-.772C1429.679,1296.033,1431.061,1294.623,1431.349,1294.833Z" transform="translate(-1426.761 -1287.194)" fill="url(#linear-gradient-18)"/>
            </g>
          </g>
          <path id="路径_14604" data-name="路径 14604" d="M1110.177,1432.167c-2.164-3.282-6.469-6.5-10.429-6.217-11.563.834-25.818,31.984-16.044,44.322,7.46,9.418,30.507,9.875,51.542-6.418v-5.415c-10.35,1.811-18.931,3.012-25.27,3.811-3.953.5-7.891.947-8.624-.6-1.109-2.343,6.809-5.694,9.827-14.44C1111.6,1446,1114.243,1438.334,1110.177,1432.167Z" transform="translate(-1080.448 -1401.837)" fill="url(#linear-gradient-19)"/>
        </g>
        <g id="组_7601" data-name="组 7601" transform="translate(165.49 6.677)">
          <path id="路径_14605" data-name="路径 14605" d="M2160.837,2757.842a14.148,14.148,0,0,1,.1,3.105c-.2.78-6.959,1.343-9.254,1.072s1.367-2.615,2.83-3.056S2160.837,2757.842,2160.837,2757.842Z" transform="translate(-2095.194 -2573.057)" fill="url(#linear-gradient-20)"/>
          <path id="路径_14606" data-name="路径 14606" d="M2202.6,2725.515l.713,4.667s1.818.817,2.691.01l.1-4.885Z" transform="translate(-2140.362 -2544.61)" fill="url(#linear-gradient-21)"/>
          <path id="路径_14607" data-name="路径 14607" d="M2498.2,2723.159s-1.435,1.065-1.052,2.34,3.731,6.385,6.117,7.835,1.637-1.571.943-3.453-2.469-6.027-3.161-6.722S2498.2,2723.159,2498.2,2723.159Z" transform="translate(-2397.838 -2542.462)" fill="url(#linear-gradient-22)"/>
          <path id="路径_14608" data-name="路径 14608" d="M2485.432,2684.511c.694,1.934,1.361,3.523,1.883,4.695a16.765,16.765,0,0,0,2.5,4.412c.623.734,2.1,2.3,2.495,2.042s-.676-2.171-2.757-7.755c-.3-.811-1.256-3.393-1.256-3.393h-2.865Z" transform="translate(-2387.652 -2508.941)" fill="url(#linear-gradient-23)"/>
          <path id="路径_14609" data-name="路径 14609" d="M2085.586,2040.664a120.757,120.757,0,0,0-.26,21.556c.925,11.927,3.31,19.474,6.3,32.19,1.828,7.772,4.291,19.21,6.52,33.515a6.292,6.292,0,0,0,4,.784,6.079,6.079,0,0,0,2.4-.912c5.848-17.869,4.121-28.942,1.3-35.841-1.2-2.941-2.661-5.261-3.441-9.781-1.031-5.981.244-9.324,2.063-23.177,1.3-9.874,1.072-11.4.209-12.881C2101.227,2040.2,2090.681,2040.313,2085.586,2040.664Z" transform="translate(-2037.509 -1945.88)" fill="url(#linear-gradient-24)"/>
          <path id="路径_14610" data-name="路径 14610" d="M1719.013,1600.05s-.821-3.219-2.187-4.069-3.3-1.758-3.739-2.131-.959.742.316,1.6l1.274.854a1.258,1.258,0,0,1-.052.548,1.92,1.92,0,0,1-1.742,1.1c-3.27.685-4.548.718-5.047.572-.074-.021-.359-.114-.479.012-.193.2.153.845.3,1.07.885,1.351,3.956,1.939,6.256.882.84-.385,1.161-.8,1.775-.7.973.165,1.571,1.449,1.925,2.512Z" transform="translate(-1707.301 -1555.267)" fill="url(#linear-gradient-25)"/>
          <path id="路径_14611" data-name="路径 14611" d="M2250.078,2058.149c3.582,18.5,7.1,28.216,9.759,33.712a92.482,92.482,0,0,1,4.915,12,97.834,97.834,0,0,1,2.986,11.427c1.235,5.671,4.287,13.951,12.5,24.811a3.119,3.119,0,0,0,2.842.146,2.744,2.744,0,0,0,1.15-1.193c-1.074-10.383-2.307-19.108-3.376-25.842-.225-1.412-1.213-7.592-2.764-15.755-.607-3.2-1.5-7.876-2.561-12.684-1.326-5.987-3.359-14.133-6.493-23.893Z" transform="translate(-2181.873 -1961.287)" fill="url(#linear-gradient-26)"/>
          <path id="路径_14612" data-name="路径 14612" d="M1779.511,1463.241l2.794-2.483c.341.344,5.312,5.2,12.262,3.725,4.785-1.013,7.545-4.942,9.313-7.45,5.31-7.534,2.134-13.061,7.852-18.181,1.588-1.421,4.7-3.143,6.738-2.618,4.852,1.25,7.645,15.841,2.949,27.317-.948,2.316-6.167,15.071-18,16.452C1793.855,1481.12,1783.72,1474.385,1779.511,1463.241Z" transform="translate(-1770.437 -1417.438)" fill="url(#linear-gradient-27)"/>
          <path id="路径_14613" data-name="路径 14613" d="M2162.464,1311.012c-2.031-1.878-5.918-4.042-7.867-9.075-.587-1.515-2.666-6.882.4-10.987,1.82-2.437,5.2-4.092,8.181-3.506,2.547.5,2.945,2.274,7.272,5.844a30.614,30.614,0,0,0,7.405,4.864c5.162,2.128,8.263.126,13.446.354,6.367.281,13.763,3.834,17.327,9,6.325,9.171-2.838,18.474,4.09,29.218,2.27,3.52,3.389,2.73,8.765,9.544s8.075,10.233,7.6,14.414c-.665,5.8-6.914,11.344-12.8,11.72-5.748.368-9.4-4.154-12.329-2.176-2.083,1.408-.892,4.146-3.1,7.437-2.851,4.243-8.456,5.088-9.362,5.224-8.4,1.267-19.731-8.585-24.542-20.258C2158.268,1341.581,2173.509,1321.221,2162.464,1311.012Z" transform="translate(-2097.311 -1287.325)" fill="url(#linear-gradient-28)"/>
          <path id="路径_14614" data-name="路径 14614" d="M2152.288,2094.476c-1.2-2.941-2.661-5.261-3.441-9.781-1.031-5.98.244-9.324,2.063-23.177,1.3-9.874,1.072-11.4.209-12.881-1.874-3.218-5.845-4.645-9.9-5.228.054.207.109.416.153.617,2.126,9.71-5.988,15.635-2.328,26.308,1.8,5.262,4.684,6.468,5.354,12.572.629,5.719-1.651,6.909-1.164,12.107.728,7.769,6.247,9.649,7.683,15.6.933,3.866.147,9.519-6.668,17.7.114.7.227,1.412.338,2.132a6.294,6.294,0,0,0,4,.783,6.08,6.08,0,0,0,2.4-.912C2156.836,2112.448,2155.109,2101.375,2152.288,2094.476Z" transform="translate(-2083.952 -1948.4)" opacity="0.3" fill="url(#linear-gradient-29)" style="mix-blend-mode: multiply;isolation: isolate"/>
          <path id="路径_14615" data-name="路径 14615" d="M1817.383,1526.062c-8.75,6.911-7.776,20.165-13.155,20.837-1.643.205-1.552-1.054-5.471-2.328-5.731-1.864-8.424.019-12.456-1.4a12.494,12.494,0,0,1-5.981-4.794l-.809.72c4.208,11.144,14.344,17.879,23.9,16.763,11.838-1.381,17.057-14.136,18-16.452a35.146,35.146,0,0,0,2.224-16.512A18.259,18.259,0,0,0,1817.383,1526.062Z" transform="translate(-1770.437 -1493.296)" opacity="0.15" fill="url(#linear-gradient-30)" style="mix-blend-mode: multiply;isolation: isolate"/>
          <path id="路径_14616" data-name="路径 14616" d="M2022.956,1421.531c.536-.833,2.241-3.141,9.475-4.841a41.635,41.635,0,0,1,18.954-.485,42.332,42.332,0,0,1,22,12.607,29.686,29.686,0,0,0-11.657,14.57c-.967,2.667-3.824,11.784.262,20.323,2.354,4.921,6.518,8.615,9.68,11.421,4.744,4.208,7.2,4.855,8.791,8.625,1.732,4.106-.013,6.108,2.137,8.918,2.31,3.018,5.016,1.615,8.931,4.668,4.01,3.126,2.583,5.7,6.233,9.155,5.3,5.02,12.334,3.39,12.661,5.648.282,1.943-4.714,4.58-8.96,5.649-8.406,2.117-15.739-1.437-17.92-2.532-6.037-3.033-4.995-5-9.6-7.308-7.707-3.871-12.973.437-30.528.88-9.506.241-14.313.295-16.946-2.921-2.405-2.938-1.141-6.16.3-20.048v0c.464-4.638,1.435-14.349,1.441-19.882,0-3.27-1.13-8.614-3.4-19.3-.134-.63-1.361-6.4-2.353-14.117C2021.572,1425.614,2021.7,1423.481,2022.956,1421.531Z" transform="translate(-1982.358 -1399.243)" fill="url(#linear-gradient-27)"/>
          <g id="组_7600" data-name="组 7600" transform="translate(64.653 28.782)" opacity="0.15" style="mix-blend-mode: multiply;isolation: isolate">
            <path id="路径_14617" data-name="路径 14617" d="M2272.561,1594.84c-3.65-3.455-2.223-6.029-6.233-9.155-3.915-3.052-6.621-1.65-8.931-4.668-2.151-2.811-.406-4.813-2.137-8.918-1.591-3.77-4.047-4.417-8.791-8.625-3.162-2.806-7.327-6.5-9.68-11.421-4.086-8.539-1.229-17.656-.262-20.323a29.69,29.69,0,0,1,11.657-14.57c-.219-.236-.477-.5-.753-.788-14.982,2.059-23.718,10.716-24.8,13.28-2.5,5.926,1.456,8.1,1.558,25.192.048,8.169-.833,11.394,1.818,14.8,3.031,3.9,6.524,2.693,10.908,7.791,3.368,3.917,2.828,6.4,5.973,8.051,3.382,1.774,5.536-.293,9.35.52,6.372,1.359,7.734,8.706,11.947,12.726,3.185,3.04,9.075,5.165,20.69,2.884a1.617,1.617,0,0,0,.347-1.13C2284.894,1598.229,2277.864,1599.86,2272.561,1594.84Z" transform="translate(-2221.806 -1516.372)" fill="url(#linear-gradient-32)"/>
          </g>
          <path id="路径_14618" data-name="路径 14618" d="M2263.016,1469.134c-1.593,3.382,5.726,11.259,13.86,15,1.657.762,13.559,6.235,18.864.973,4.383-4.349,1.554-13.34.545-16.55-4.959-15.762-20.188-23.781-26.571-26.672-4.763,11.91-1.958,17.217-.854,18.874a63.46,63.46,0,0,0,7.791,8.57c2.405,2.253,3.9,3.349,3.7,3.7-.251.438-3.07-.389-14.018-5.718C2265.064,1467.517,2263.56,1467.979,2263.016,1469.134Z" transform="translate(-2192.992 -1422.462)" fill="url(#linear-gradient-27)"/>
          <path id="路径_14619" data-name="路径 14619" d="M2136.954,1348.612s.756,6.041,2.985,7.425,5.834,3.191,6.231,3.682-13.812,2.018-20.853-1.535h0c2.32-.484,2.951-.662,2.951-.662a13.057,13.057,0,0,0,2.982-1.18,10.136,10.136,0,0,0,3.279-3.032l-.026-3.345Z" transform="translate(-2072.789 -1340.911)" fill="url(#linear-gradient-34)"/>
          <path id="路径_14620" data-name="路径 14620" d="M2187.185,1326.972a3.344,3.344,0,0,1-3.733,1.164c-2.041-.744-.823-6.016.8-6.618a2.862,2.862,0,0,1,2.194.3,3.175,3.175,0,0,1,1,3.571c.515-.149.969-.014,1.083.241.145.324-.292.765-.391.865A1.732,1.732,0,0,1,2187.185,1326.972Z" transform="translate(-2122.681 -1317.132)" fill="url(#linear-gradient-35)"/>
          <path id="路径_14621" data-name="路径 14621" d="M2210.871,1595.539s-6.675-6.829-9.39-7.838-1.086.465,0,1.319,1.81,1.134,1.254,2.43-1.566,2.445.026,3.461,2.212,1.4,3.454,1.559l1.242.155,1.63.869S2211.181,1597.247,2210.871,1595.539Z" transform="translate(-2138.082 -1549.659)" fill="url(#linear-gradient-36)"/>
        </g>
        <g id="组_7603" data-name="组 7603" transform="translate(20.717 112.301)">
          <path id="路径_14622" data-name="路径 14622" d="M2030.876,2231.456a.513.513,0,0,1-.509-.465l-9.284-100.333a.512.512,0,1,1,1.02-.094l8.262,89.286V2128.39a.512.512,0,1,1,1.024,0v102.554a.512.512,0,0,1-.489.512Z" transform="translate(-1836.879 -2127.878)" fill="#b7c0ce"/>
          <g id="组_7602" data-name="组 7602" transform="translate(0 0.328)">
            <path id="路径_14623" data-name="路径 14623" d="M852.727,2141.649,750.876,2130.49,555.2,2139.384l102.481,12.272Z" transform="translate(-555.203 -2130.49)" fill="#f4f7fa" opacity="0.81"/>
            <path id="路径_14624" data-name="路径 14624" d="M657.684,2213.54l195.043-10.006v4.833l-195.043,10.007L555.2,2206.1v-4.833Z" transform="translate(-555.203 -2192.374)" fill="#b7c0ce"/>
          </g>
          <path id="路径_14625" data-name="路径 14625" d="M1372.69,2437.89h-.02a.513.513,0,0,1-.492-.512V2324.469a.512.512,0,0,1,1.024,0v99.788l7.806-99.827a.512.512,0,1,1,1.021.08l-8.829,112.908A.513.513,0,0,1,1372.69,2437.89Z" transform="translate(-1269.517 -2299.318)" fill="#b7c0ce"/>
          <path id="路径_14626" data-name="路径 14626" d="M560.544,2338.771h-.02a.513.513,0,0,1-.492-.512V2234.045a.512.512,0,1,1,1.025,0v91.146l7.16-91.187a.512.512,0,0,1,1.021.081L561.055,2338.3A.513.513,0,0,1,560.544,2338.771Z" transform="translate(-559.425 -2220.256)" fill="#b7c0ce"/>
          <path id="路径_14627" data-name="路径 14627" d="M2851.2,2338.772a.512.512,0,0,1-.51-.47L2842,2234.089a.512.512,0,0,1,1.021-.085l7.666,91.947v-89.373a.512.512,0,1,1,1.024,0V2338.26a.513.513,0,0,1-.491.512Z" transform="translate(-2554.64 -2220.258)" fill="#b7c0ce"/>
        </g>
        <g id="组_7607" data-name="组 7607" transform="translate(10.539 67.19)">
          <path id="路径_14628" data-name="路径 14628" d="M1098.047,3047.629c-.169-.93-3.173-1.772-4.66-.526-.739.618-1.248,1.873-.82,2.438.155.207-.481.569.129.576C1094.719,3050.141,1098.214,3048.554,1098.047,3047.629Z" transform="translate(-1014.727 -2885.934)" fill="url(#linear-gradient-37)"/>
          <path id="路径_14629" data-name="路径 14629" d="M1087.918,3005.969l-3.117.155c1.08-1.963-.218-7.3-.218-7.3l3.365.1s-.083,1.55-.288,3.852A14.6,14.6,0,0,0,1087.918,3005.969Z" transform="translate(-1007.883 -2844.268)" fill="url(#linear-gradient-38)"/>
          <path id="路径_14630" data-name="路径 14630" d="M1083.764,3052.406s-3.72-.858-4.122-.12-.715,2.714,1.645,2.65S1083.974,3053.031,1083.764,3052.406Z" transform="translate(-1003.32 -2890.752)" fill="url(#linear-gradient-39)"/>
          <path id="路径_14631" data-name="路径 14631" d="M1250.666,3080.138c-.3-.9-3.39-1.311-4.689.131-.645.716-.973,2.029-.47,2.53.183.183-.4.63.208.552C1247.722,3083.092,1250.961,3081.03,1250.666,3080.138Z" transform="translate(-1148.371 -2914.655)" fill="url(#linear-gradient-40)"/>
          <path id="路径_14632" data-name="路径 14632" d="M1229.083,3044.125l-3.062.6c.787-2.1-1.264-7.195-1.264-7.195l3.345-.385s.141,1.546.267,3.854A14.59,14.59,0,0,0,1229.083,3044.125Z" transform="translate(-1130.443 -2877.777)" fill="url(#linear-gradient-41)"/>
          <path id="路径_14633" data-name="路径 14633" d="M1236.073,3088.207s-3.8-.328-4.1.459-.328,2.787,2,2.393S1236.368,3088.8,1236.073,3088.207Z" transform="translate(-1136.631 -2922.362)" fill="url(#linear-gradient-42)"/>
          <g id="组_7604" data-name="组 7604" transform="translate(54.961 32.26)">
            <path id="路径_14634" data-name="路径 14634" d="M939.8,2066l13.14-30.781a2.706,2.706,0,0,0-1.85-3.692l-24.07-5.846a2.706,2.706,0,0,0-3.144,1.606l-12.086,29.584a2.706,2.706,0,0,0,1.713,3.611l23.016,7.042A2.705,2.705,0,0,0,939.8,2066Z" transform="translate(-911.587 -2025.609)" fill="#26264f"/>
            <path id="路径_14635" data-name="路径 14635" d="M948.007,2072.754,960.281,2044a2.528,2.528,0,0,0-1.728-3.448l-22.483-5.46a2.528,2.528,0,0,0-2.936,1.5l-11.289,27.634a2.528,2.528,0,0,0,1.6,3.373l21.5,6.578A2.528,2.528,0,0,0,948.007,2072.754Z" transform="translate(-920.39 -2033.838)" fill="url(#linear-gradient-43)"/>
          </g>
          <path id="路径_14636" data-name="路径 14636" d="M1175.342,2175.312l.394-3.627,2.09-3.984a3.785,3.785,0,0,0,.433-1.759v-3.956l-2.523,5.835a19,19,0,0,0-2.286-1.813c-.631-.316-.552.946-.079,1.419s-.236,4.337.236,4.731l-.158,2.365Z" transform="translate(-1085.187 -2112.589)" fill="url(#linear-gradient-44)"/>
          <path id="路径_14637" data-name="路径 14637" d="M562.572,1965.366c-1.962-4.8-6.174-7.558-8.358-8.989-5.168-3.386-8.476-2.768-20.343-4.573-15.816-2.407-17.709-4.687-23.024-2.839-6.982,2.427-10.629,8.765-12.3,11.669-8.426,14.643,1.425,22.085-1.1,51.253-1.033,11.912-3.681,22.264,2.681,28.386,1.34,1.289,2.838,1.964,5.835,3.312,11.885,5.348,22.541,4.426,29.017,3.785,7.125-.705,10.727-1.11,12.616-3.627,3.018-4.021-.089-9.132-.631-17.978-.389-6.35,1.055-11.383,3.943-21.447C557.616,1980.92,566.332,1974.559,562.572,1965.366Z" transform="translate(-492.445 -1925.746)" fill="url(#linear-gradient-45)"/>
          <g id="组_7606" data-name="组 7606" transform="translate(26.982)">
            <g id="组_7605" data-name="组 7605">
              <path id="路径_14638" data-name="路径 14638" d="M705.606,1845.248a7.611,7.611,0,0,0-.816-5.453c-1.162-2.143-1.459-2.436-2.013-2.807l-.771-.475-.092-.035a8.92,8.92,0,0,0-2.521-.154c-1.09.233-2.252,4.676-1.92,10.957q-.068.359-.131.724-.257,1.488-.413,2.915c-.1.909-1.39.888-2.3.83-3.706-.237-5.519.079-5.677.631-.3,1.034,4.1,4.416,9.528,5.176,7.284.054,13.21-.721,12.573-1.868-.283-.509-5.927-1.984-7.514-3.446a4.858,4.858,0,0,1-1.455-3.71C702.521,1848.3,705.076,1847.137,705.606,1845.248Z" transform="translate(-688.934 -1827.821)" fill="url(#linear-gradient-46)"/>
              <path id="路径_14639" data-name="路径 14639" d="M722.842,1775.791a7.31,7.31,0,0,1-1.39,4.358,3.23,3.23,0,0,0-.7.77.981.981,0,0,0-.111.23c-.426,1.226,1.523,2.669,1.147,3.219-.273.4-1.6-.135-1.756.209-.148.324.953.994.784,1.381-.127.293-.8.025-1.233.474-.213.223-.151.4-.376,1.083a6.133,6.133,0,0,1-.445,1.044c-.672,1.142-2.577,1.56-2.944,1.1-.1-.128-.014-.234-.119-.662a3.41,3.41,0,0,0-.372-.854,8.851,8.851,0,0,0-2.3-1.814,6.3,6.3,0,0,1-2.405-2.74c-.052-.131-.084-.23-.107-.3a7.232,7.232,0,0,1,.181-4.836c1.08-2.171,3.517-1.14,5.511-3.29,2.3-2.481.931-5.872,2.18-6.247C719.755,1768.5,722.854,1772.193,722.842,1775.791Z" transform="translate(-707.51 -1768.884)" fill="#26264f"/>
              <path id="路径_14640" data-name="路径 14640" d="M787.77,1886.551c-.477-.655-1.315-.04-1.32.808s.817,1.73,1.614,1.562S788.412,1887.433,787.77,1886.551Z" transform="translate(-774.196 -1871.525)" fill="url(#linear-gradient-47)"/>
            </g>
            <path id="路径_14641" data-name="路径 14641" d="M793.876,1877.174l1.106,1.439s1.193,1.764,1.889.8c.569-.789.716-.772.751-.739.007.006.008.016.01.016s-.083-.393-.167-.736a6.463,6.463,0,0,1,.946,2.031,3.594,3.594,0,0,1-.011,2.778,2.762,2.762,0,0,1-1.627,1.272,7.309,7.309,0,0,1-2.138-.211s1.889-1.371,1.918-1.7c.078-.886-1.15-1.364-2.062-3.18A7.3,7.3,0,0,1,793.876,1877.174Z" transform="translate(-780.689 -1863.566)" fill="#26264f"/>
          </g>
          <path id="路径_14642" data-name="路径 14642" d="M579.916,2213.377c2.1-4.174-3.04-9.723.315-16.086,2.85-5.4,8.028-4.194,10.408-9.147,2.875-5.982-3.378-10.453-3.154-19.554.268-10.88,9.63-21.771,15.139-20.817,3.565.618,4.023,5.936,6.531,11.758a132.225,132.225,0,0,0-7.161,19.151c-2.888,10.064-4.332,15.1-3.943,21.448.542,8.845,3.649,13.957.631,17.978-1.889,2.517-5.491,2.921-12.616,3.627-6.475.641-17.132,1.563-29.017-3.784-1.5-.677-2.631-1.184-3.549-1.685C572.068,2219.054,578.253,2216.687,579.916,2213.377Z" transform="translate(-543.536 -2100.111)" opacity="0.3" fill="url(#linear-gradient-48)" style="mix-blend-mode: multiply;isolation: isolate"/>
          <path id="路径_14643" data-name="路径 14643" d="M937.589,2045.034l-3.469-1.5c-1.955,2-4.448,3.943-6.545,3.312-3.126-.941-2.344-6.691-6.15-16.8-4.312-11.448-9.205-14.391-11.67-15.454-1.377-.594-2.327-.989-3.469-.71-5.257,1.285-6.995,14.983-5.52,25.232.831,5.775,2.46,17.1,11.749,22.472,1.319.763,8.582,4.966,15.77,1.656C934.425,2060.421,938.22,2053.166,937.589,2045.034Z" transform="translate(-846.724 -1983.022)" fill="url(#linear-gradient-49)"/>
          <path id="路径_14644" data-name="路径 14644" d="M556.279,2540.469l-5.767.641a38.747,38.747,0,0,1-8.543-14.95c-3.968-13.515,2.244-22.386-1.922-25.843-4.8-3.987-14.293,6.784-35.241,9.825-6.742.979-21.709,3.152-27.765-4.912-2.455-3.27-3.865-8.78-1.922-13.456,3.483-8.383,14.957-7.376,52.754-14.737,14.56-2.836,16.861-3.765,20.32-2.113C565.3,2483.089,558.166,2529.268,556.279,2540.469Z" transform="translate(-474.207 -2385.488)" fill="url(#linear-gradient-50)"/>
          <path id="路径_14645" data-name="路径 14645" d="M692.817,2583.735l-5.767.641a38.744,38.744,0,0,1-8.543-14.95c-3.968-13.515,2.245-22.386-1.922-25.844-4.8-3.986-14.293,6.784-35.241,9.825-6.742.979-21.709,3.152-27.765-4.912-2.455-3.27-3.865-8.779-1.922-13.456,3.483-8.383,14.957-7.376,52.754-14.737,14.56-2.835,16.861-3.764,20.32-2.113C701.838,2526.355,694.7,2572.534,692.817,2583.735Z" transform="translate(-593.588 -2423.317)" fill="url(#linear-gradient-51)"/>
        </g>
        <g id="组_7609" data-name="组 7609" transform="translate(0 136.767)">
          <ellipse id="椭圆_1288" data-name="椭圆 1288" cx="31.879" cy="13.01" rx="31.879" ry="13.01" transform="translate(12.09 101.018)" fill="#b7c0ce"/>
          <path id="路径_14646" data-name="路径 14646" d="M486.546,3093.464c0,6.782,14.272,12.281,31.878,12.281s31.879-5.5,31.879-12.281-14.272-17.882-31.879-17.882S486.546,3086.68,486.546,3093.464Z" transform="translate(-474.456 -2980.96)" fill="#fff"/>
          <path id="路径_14647" data-name="路径 14647" d="M486.546,3093.464c0-6.783,14.272-17.882,31.878-17.882a43.253,43.253,0,0,1,21.175,5.583,4.631,4.631,0,0,1,.5,2.427c-.366,3.816-6.59,6.162-10.163,6.936-9,1.949-13.391-3.431-20.809-3.226-4.586.127-10.942,2.43-18.48,12.188C488.042,3097.709,486.546,3095.654,486.546,3093.464Z" transform="translate(-474.456 -2980.96)" opacity="0.3" fill="url(#linear-gradient-52)" style="mix-blend-mode: multiply;isolation: isolate"/>
          <path id="路径_14648" data-name="路径 14648" d="M713.828,2859.039a7.238,7.238,0,0,0,3.58.02,2.3,2.3,0,0,0,1.71-2.242v-35.946H712.03v35.9A2.348,2.348,0,0,0,713.828,2859.039Z" transform="translate(-671.606 -2758.257)" fill="#fff"/>
          <path id="路径_14649" data-name="路径 14649" d="M713.828,2859.039a7.238,7.238,0,0,0,3.58.02,2.3,2.3,0,0,0,1.71-2.242v-35.946H712.03v35.9A2.348,2.348,0,0,0,713.828,2859.039Z" transform="translate(-671.606 -2758.257)" opacity="0.65" fill="url(#linear-gradient-53)" style="mix-blend-mode: multiply;isolation: isolate"/>
          <g id="组_7608" data-name="组 7608">
            <path id="路径_14650" data-name="路径 14650" d="M471.758,2370.068l-10.829-6.846c-.45-2.557-5.555-29.31-26.278-37.71-8.427-3.417-17.5-3.011-22.474-2.788-9.936.443-17.023.76-20.431,5.5-4.377,6.086,2.964,11.6,1.444,29.012-.62,7.1-2.2,10.252-.233,14.955,2.352,5.633,7.807,8.756,12.048,10.513a61.716,61.716,0,0,0,25.555,8.161c19.638,1.721,34.3-6.7,39.341-9.927a6.487,6.487,0,0,0,4.4-4.873A5.723,5.723,0,0,0,471.758,2370.068Z" transform="translate(-390.334 -2322.581)" fill="url(#linear-gradient-54)"/>
          </g>
          <path id="路径_14651" data-name="路径 14651" d="M546.169,2400.108c-.4-2.407-7.109-.412-13.456-5.126-9.486-7.047-4.563-18.983-12.815-30.435-7.573-10.509-22.819-15.858-27.552-11.854-6.3,5.33,9.119,25.262,0,38.124-4.43,6.247-11.178,5.947-11.213,9.611-.055,5.79,16.741,12.466,32.678,12.174C530.945,2412.288,546.8,2403.929,546.169,2400.108Z" transform="translate(-469.724 -2347.747)" fill="#fff" opacity="0.26" style="mix-blend-mode: soft-light;isolation: isolate"/>
        </g>
        <g id="组_7615" data-name="组 7615" transform="translate(206.305 63.789)">
          <g id="组_7612" data-name="组 7612" transform="translate(0 31.203)">
            <g id="组_7611" data-name="组 7611">
              <path id="路径_14652" data-name="路径 14652" d="M2107.652,2231.041l-69.981-.521v1.541a.847.847,0,0,0,.719.837l19.788,3.034a3.168,3.168,0,0,0,.71.029l48-3.46a.819.819,0,0,0,.76-.817Z" transform="translate(-2036.972 -2200.313)" fill="#bfc8d6"/>
              <g id="组_7610" data-name="组 7610">
                <path id="路径_14653" data-name="路径 14653" d="M2077.391,2018.312l-43.862,2.818a1.261,1.261,0,0,1-1.423-1.2V1991.42a1.361,1.361,0,0,1,1.423-1.289h43.862a1.167,1.167,0,0,1,1.17,1.165v25.776A1.263,1.263,0,0,1,2077.391,2018.312Z" transform="translate(-2032.106 -1990.131)" fill="#bfc8d6"/>
                <path id="路径_14654" data-name="路径 14654" d="M2082.956,2018.312l-43.861,2.818a1.262,1.262,0,0,1-1.423-1.2V1991.42a1.362,1.362,0,0,1,1.423-1.289h43.861a1.166,1.166,0,0,1,1.169,1.165v25.776A1.262,1.262,0,0,1,2082.956,2018.312Z" transform="translate(-2036.972 -1990.131)" fill="#d8dee8"/>
                <path id="路径_14655" data-name="路径 14655" d="M2094.865,2028.014l-40.852,2.448a1.033,1.033,0,0,1-1.158-.983v-24.964a1.114,1.114,0,0,1,1.158-1.057l40.852-.153a.957.957,0,0,1,.965.954V2027A1.034,1.034,0,0,1,2094.865,2028.014Z" transform="translate(-2050.248 -2001.65)" fill="#eff2f6"/>
                <path id="路径_14656" data-name="路径 14656" d="M2228.82,1993a.506.506,0,1,1-.5-.479A.494.494,0,0,1,2228.82,1993Z" transform="translate(-2203.217 -1992.222)" fill="#fff"/>
                <path id="路径_14657" data-name="路径 14657" d="M2072.565,2010.505c-3.4-1.655-6.071.442-8.649-1.627-1.564-1.255-.8-2.191-2.72-4.066-2.13-2.077-3.518-1.379-5.66-3.248-2.708-2.364-1.354-4.2-3.686-5.9-2.829-2.059-5.881-.153-8.574-2.127a5.846,5.846,0,0,1-2.132-3.406h-2.636a.8.8,0,0,0-.837.757v29.577a.742.742,0,0,0,.837.7l44.931-2.888a.736.736,0,0,0,.541-.3,10.71,10.71,0,0,1-6.6-2.139C2074.852,2013.824,2075.291,2011.833,2072.565,2010.505Z" transform="translate(-2036.972 -1990.131)" fill="#fff" opacity="0.48" style="mix-blend-mode: soft-light;isolation: isolate"/>
              </g>
              <path id="路径_14658" data-name="路径 14658" d="M2084.7,2213.712l-47.033,2.967,20.507,3.144a3.182,3.182,0,0,0,.71.028l48.764-3.514-22.2-2.605A4.165,4.165,0,0,0,2084.7,2213.712Z" transform="translate(-2036.972 -2185.61)" fill="#fff"/>
              <path id="路径_14659" data-name="路径 14659" d="M2092.286,2220.141l39.156-2.507,12.118,1.411-38.819,2.68Z" transform="translate(-2084.724 -2189.045)" fill="#d8dee8" opacity="0.47"/>
            </g>
          </g>
          <path id="路径_14660" data-name="路径 14660" d="M2410.2,2946.923s-10.287.715-10.438,1.386,6.982,3.268,9.475,3.365,4.543-.64,4.317-1.7-1.1-3.711-1.1-3.711Z" transform="translate(-2353.564 -2794.916)" fill="url(#linear-gradient-55)"/>
          <path id="路径_14661" data-name="路径 14661" d="M2477.714,2915.107l-.182,4.855a3.775,3.775,0,0,0,2.807.376l1.381-5.12Z" transform="translate(-2421.559 -2767.671)" fill="url(#linear-gradient-56)"/>
          <path id="路径_14662" data-name="路径 14662" d="M2181.251,2931.342s-10.287.715-10.439,1.386,6.983,3.268,9.476,3.365,4.543-.64,4.317-1.7-1.1-3.711-1.1-3.711Z" transform="translate(-2153.381 -2781.294)" fill="url(#linear-gradient-57)"/>
          <path id="路径_14663" data-name="路径 14663" d="M2248.76,2899.527l-.182,4.855a3.776,3.776,0,0,0,2.807.376l1.381-5.12Z" transform="translate(-2221.376 -2754.05)" fill="url(#linear-gradient-58)"/>
          <path id="路径_14664" data-name="路径 14664" d="M2448.825,2461.251l5.767.64a38.751,38.751,0,0,0,8.543-14.95c3.993-13.6-1.79-23.4,1.922-25.844,5.255-3.453,16.643,16.426,34.921,15.915,7.5-.21,17.288-3.883,21.051-11.882.568-1.208,3.358-7.529.641-13.455-2.805-6.119-16.722-8.782-44.44-13.858-11.9-2.179-17.906-3.266-20.319-2.113C2439.8,2403.871,2446.938,2450.05,2448.825,2461.251Z" transform="translate(-2393.763 -2313.129)" fill="url(#linear-gradient-59)"/>
          <path id="路径_14665" data-name="路径 14665" d="M2236.7,2497.856l5.965,1.038c2.415-3.557,6.07-9.13,10.157-16.2,8.52-14.742,8.364-17.737,12.3-19.634,8.333-4.016,14.631,6.833,35.241,9.825,6.742.979,21.709,3.151,27.765-4.913,2.456-3.27,3.865-8.78,1.922-13.455-3.483-8.383-14.957-7.376-52.754-14.737-14.74-2.87-16.749-3.383-20.32-2.113C2237.042,2444.755,2236.654,2488.172,2236.7,2497.856Z" transform="translate(-2210.991 -2349.652)" fill="url(#linear-gradient-60)"/>
          <path id="路径_14666" data-name="路径 14666" d="M2559.023,1907.822c1.963-4.8,6.174-7.558,8.358-8.989a18.186,18.186,0,0,1,3.129-1.672,42.384,42.384,0,0,1,17.215-2.9c3.416.256,11.853.887,18.1,6.3,3.026,2.622,5.444,6.281,8.97,26.911,4.918,28.771.926,25.822,4.805,37.483,2.052,6.171,5.25,13.251,1.868,17.772-1.092,1.46-2.653,1.88-5.835,3.311-11.885,5.348-22.542,4.427-29.017,3.785-7.125-.705-10.727-1.109-12.616-3.627-3.018-4.021.089-9.132.631-17.978.389-6.35-1.054-11.383-3.943-21.447C2563.979,1923.376,2555.264,1917.014,2559.023,1907.822Z" transform="translate(-2492.018 -1875.06)" fill="url(#linear-gradient-61)"/>
          <path id="路径_14667" data-name="路径 14667" d="M2188.778,2219.78l-7.594-1.46a4.6,4.6,0,0,0-1.654-.016l-6.569,1.129s4.272,1.718,7.9,1.18,7.6,1.5,7.6,1.5Z" transform="translate(-2155.261 -2158.369)" fill="url(#linear-gradient-62)"/>
          <g id="组_7614" data-name="组 7614" transform="translate(79.02)">
            <g id="组_7613" data-name="组 7613">
              <path id="路径_14668" data-name="路径 14668" d="M2665.731,1776.693c-1.277-1.93.635-5.642,1.391-7.111.026-.051.06-.117.13-.249,1.162-2.143,1.459-2.436,2.014-2.807l.771-.475.092-.035a8.915,8.915,0,0,1,2.521-.154c1.091.233,2.251,4.675,1.921,10.956q.067.36.131.725.258,1.488.414,2.914c.1.909,1.39.889,2.3.831,3.706-.236,5.519.079,5.677.631.3,1.034-4.1,4.416-9.528,5.176-7.285.055-13.21-.721-12.573-1.869.282-.509,5.927-1.984,7.514-3.446a4.859,4.859,0,0,0,1.455-3.709C2669.211,1778.113,2666.705,1778.165,2665.731,1776.693Z" transform="translate(-2660.947 -1762.813)" fill="url(#linear-gradient-63)"/>
              <path id="路径_14669" data-name="路径 14669" d="M2706.179,1743.269c-.6,1.321.854,3.974,1.39,4.359a3.2,3.2,0,0,1,.7.77.984.984,0,0,1,.111.23c.426,1.226-1.524,2.669-1.147,3.218.273.4,1.6-.134,1.756.21.149.324-.953.994-.784,1.381.127.293.805.025,1.233.474a1.636,1.636,0,0,1,.376,1.083c.053,1.743-3.9,8.039-4.724,10.88-.873,3.013.689,5.88,6.365,13.8,8.073,11.271,12.109,16.907,14.354,18.519,10.968,7.874,23.865,6.908,29.154,6.087,6.354-.987,19.48-3.026,23.707-13.135,4.859-11.62-4.708-27.521-14.523-30.222-4.489-1.234-6.878.641-12.708-1.388-6.438-2.241-5.658-6.2-11.619-8.542-7.95-3.121-13.08,2.458-18.5-1.6-2.947-2.211-2.462-4.637-6.087-6.408C2711.663,1741.24,2706.964,1741.538,2706.179,1743.269Z" transform="translate(-2699.349 -1741.815)" fill="#26264f"/>
              <path id="路径_14670" data-name="路径 14670" d="M2724.282,1816.09c.476-.655,1.315-.039,1.319.808s-.816,1.73-1.614,1.562S2723.639,1816.972,2724.282,1816.09Z" transform="translate(-2715.693 -1806.516)" fill="url(#linear-gradient-64)"/>
            </g>
          </g>
          <path id="路径_14671" data-name="路径 14671" d="M2630.451,2131.728c-2.1-4.174,3.04-9.723-.316-16.085-2.85-5.4-8.028-4.194-10.408-9.147-2.875-5.982,3.378-10.454,3.154-19.555-.268-10.88-9.63-21.771-15.139-20.817-3.565.618-4.023,5.936-6.531,11.758a132.27,132.27,0,0,1,7.161,19.152c2.888,10.064,4.332,15.1,3.943,21.447-.543,8.845-3.649,13.956-.631,17.978,1.889,2.517,5.49,2.921,12.616,3.627,6.475.641,17.131,1.563,29.017-3.784,1.5-.677,2.631-1.184,3.549-1.684C2638.3,2137.405,2632.114,2135.038,2630.451,2131.728Z" transform="translate(-2529.698 -2025.32)" opacity="0.3" fill="url(#linear-gradient-65)" style="mix-blend-mode: multiply;isolation: isolate"/>
          <path id="路径_14672" data-name="路径 14672" d="M2283.44,1971.858l.646-2.907c14.591,2.616,20.971-.32,24.053-3.751,2.829-3.148,1.623-4.775,6.15-16.795,4.313-11.449,9.206-14.391,11.67-15.455,1.377-.594,2.327-.989,3.469-.71,5.257,1.285,6.995,14.983,5.52,25.232-.831,5.774-2.46,17.1-11.749,22.472-.171.1-.441.255-.8.446-1.169.626-5.817,2.861-14.972,1.21C2296.635,1979.653,2286.105,1973.467,2283.44,1971.858Z" transform="translate(-2251.857 -1908.231)" fill="url(#linear-gradient-66)"/>
        </g>
        <g id="组_7617" data-name="组 7617" transform="translate(265.325 121.913)">
          <ellipse id="椭圆_1289" data-name="椭圆 1289" cx="31.879" cy="13.011" rx="31.879" ry="13.011" transform="translate(8.242 101.018)" fill="#b7c0ce"/>
          <path id="路径_14673" data-name="路径 14673" d="M2631.135,2975.255c0,6.782-14.272,12.281-31.878,12.281s-31.879-5.5-31.879-12.281,14.272-17.882,31.879-17.882S2631.135,2968.472,2631.135,2975.255Z" transform="translate(-2559.136 -2862.751)" fill="#fff"/>
          <path id="路径_14674" data-name="路径 14674" d="M2702,2975.255c0-6.783-14.272-17.882-31.878-17.882a43.254,43.254,0,0,0-21.175,5.583,4.633,4.633,0,0,0-.5,2.427c.366,3.816,6.59,6.162,10.163,6.936,9,1.949,13.39-3.431,20.808-3.226,4.587.127,10.942,2.431,18.48,12.188C2700.5,2979.5,2702,2977.445,2702,2975.255Z" transform="translate(-2630 -2862.751)" opacity="0.3" fill="url(#linear-gradient-67)" style="mix-blend-mode: multiply;isolation: isolate"/>
          <path id="路径_14675" data-name="路径 14675" d="M2798.153,2740.83a7.234,7.234,0,0,1-3.58.021,2.305,2.305,0,0,1-1.711-2.243v-35.946h7.089v35.9A2.347,2.347,0,0,1,2798.153,2740.83Z" transform="translate(-2756.286 -2640.047)" fill="#fff"/>
          <path id="路径_14676" data-name="路径 14676" d="M2798.153,2740.83a7.234,7.234,0,0,1-3.58.021,2.305,2.305,0,0,1-1.711-2.243v-35.946h7.089v35.9A2.347,2.347,0,0,1,2798.153,2740.83Z" transform="translate(-2756.286 -2640.047)" opacity="0.65" fill="url(#linear-gradient-68)" style="mix-blend-mode: multiply;isolation: isolate"/>
          <g id="组_7616" data-name="组 7616">
            <path id="路径_14677" data-name="路径 14677" d="M2504.455,2251.859l10.829-6.846c.451-2.557,5.555-29.31,26.279-37.71,8.427-3.416,17.5-3.011,22.473-2.788,9.936.443,17.023.76,20.432,5.5,4.376,6.085-2.964,11.6-1.444,29.012.62,7.1,2.2,10.252.233,14.955-2.353,5.633-7.807,8.755-12.048,10.513a61.723,61.723,0,0,1-25.555,8.161c-19.638,1.721-34.3-6.7-39.341-9.927a6.487,6.487,0,0,1-4.4-4.872A5.722,5.722,0,0,1,2504.455,2251.859Z" transform="translate(-2501.79 -2204.372)" fill="url(#linear-gradient-69)"/>
          </g>
          <path id="路径_14678" data-name="路径 14678" d="M2562.493,2281.9c.4-2.407,7.109-.412,13.455-5.126,9.487-7.047,4.563-18.984,12.814-30.435,7.573-10.509,22.82-15.858,27.552-11.854,6.3,5.33-9.119,25.262,0,38.124,4.429,6.248,11.177,5.947,11.213,9.611.055,5.79-16.741,12.466-32.678,12.174C2577.717,2294.08,2561.857,2285.72,2562.493,2281.9Z" transform="translate(-2554.849 -2229.538)" fill="#fff" opacity="0.26" style="mix-blend-mode: soft-light;isolation: isolate"/>
        </g>
      </g>
      <path id="路径_14679" data-name="路径 14679" d="M592.832,745.859c5.251-6.542,8.269-14.125,8.269-22.15,0-23.337-25.654-41.915-57.717-41.49-32.534.432-59.262,20.211-59.262,44.173s26.727,42.515,59.262,41.454a74.892,74.892,0,0,0,32.441-8.308c6.069.815,15.456,2.2,20.393,2.941a1.921,1.921,0,0,0,2.121-2.531Z" transform="translate(-437.649 -661.818)" fill="url(#linear-gradient-70)"/>
      <g id="组_7623" data-name="组 7623" transform="translate(190.859)">
        <path id="路径_14680" data-name="路径 14680" d="M1642.211,592.842a38.218,38.218,0,0,1-9.076-24.533c0-26.661,27.656-48.327,60.258-48.391,31.042-.06,55.136,19.669,55.136,44.064s-24.094,45.931-55.136,48.2a67.332,67.332,0,0,1-33-5.66c-6.416,1.553-16.5,4.138-21.882,5.526a1.96,1.96,0,0,1-2.329-2.643Z" transform="translate(-1633.135 -519.918)" fill="url(#linear-gradient-71)"/>
      </g>
      <g id="组_7625" data-name="组 7625" transform="translate(346.459 56.484)">
        <path id="路径_14690" data-name="路径 14690" d="M2692.745,1097.808a20.578,20.578,0,0,1-4.434-12.785c0-13.988,13.581-25.908,29.855-26.6,15.768-.674,28.2,9.5,28.2,22.714s-12.427,25.053-28.2,26.493a31.6,31.6,0,0,1-16.47-2.762c-3.168.869-8.125,2.3-10.76,3.071a.99.99,0,0,1-1.138-1.372Z" transform="translate(-2688.311 -1058.387)" fill="url(#linear-gradient-72)"/>
        <g id="组_7624" data-name="组 7624" transform="translate(11.902 18.457)" style="mix-blend-mode: soft-light;isolation: isolate">
          <path id="路径_14691" data-name="路径 14691" d="M2791.452,1238.264a4.551,4.551,0,0,1-3.5,5.037,4.111,4.111,0,0,1-4.886-3.618,4.521,4.521,0,0,1,3.769-5.081A4.13,4.13,0,0,1,2791.452,1238.264Z" transform="translate(-2783.024 -1230.882)" fill="#fff"/>
          <path id="路径_14692" data-name="路径 14692" d="M2917.49,1221.6a3.85,3.85,0,0,1-2.706,4.395c-1.838.373-3.6-1.092-3.88-3.282a3.8,3.8,0,0,1,2.891-4.426A3.5,3.5,0,0,1,2917.49,1221.6Z" transform="translate(-2894.801 -1216.625)" fill="#fff"/>
          <path id="路径_14693" data-name="路径 14693" d="M3017.226,1208.313c.239,1.864-.7,3.606-2.142,3.9-1.479.3-2.912-1.04-3.164-3s.784-3.718,2.276-3.92C3015.646,1205.093,3016.987,1206.448,3017.226,1208.313Z" transform="translate(-2983.124 -1205.271)" fill="#fff"/>
        </g>
      </g>
      <g id="组_7626" data-name="组 7626" transform="translate(76.164 54.007)" style="mix-blend-mode: soft-light;isolation: isolate">
        <path id="路径_14694" data-name="路径 14694" d="M734.518,959.382a7.578,7.578,0,0,1-6.837,7.591,6.841,6.841,0,0,1-7.283-7.026,7.526,7.526,0,0,1,7.283-7.609A6.875,6.875,0,0,1,734.518,959.382Z" transform="translate(-720.399 -952.008)" fill="#fff"/>
        <path id="路径_14695" data-name="路径 14695" d="M946.612,957.14c0,3.483-2.375,6.48-5.386,6.7-3.106.226-5.7-2.572-5.7-6.256s2.59-6.689,5.7-6.711C944.238,950.85,946.612,953.657,946.612,957.14Z" transform="translate(-908.497 -950.725)" fill="#fff"/>
        <path id="路径_14696" data-name="路径 14696" d="M1114.445,955.351c0,3.136-1.922,5.818-4.353,5.995-2.5.182-4.577-2.34-4.577-5.637s2.078-5.985,4.577-6C1112.523,949.688,1114.445,952.216,1114.445,955.351Z" transform="translate(-1057.121 -949.705)" fill="#fff"/>
      </g>
    </g>
    <text id="_" data-name="&lt;/&gt;…" transform="translate(1226.797 236)" fill="#fff" font-size="30" font-family="SegoeUI-Bold, Segoe UI" font-weight="700" opacity="0.4"><tspan x="0" y="0">&lt;/&gt;…</tspan></text>
  </g>
</svg>
