<?xml version="1.0" encoding="utf-8"?>
<!-- Generator: Adobe Illustrator 25.1.0, SVG Export Plug-In . SVG Version: 6.00 Build 0)  -->
<svg version="1.1" id="图层_1" xmlns="http://www.w3.org/2000/svg" xmlns:xlink="http://www.w3.org/1999/xlink" x="0px" y="0px"
	 viewBox="0 0 455.4 339" style="enable-background:new 0 0 455.4 339;" xml:space="preserve">
<style type="text/css">
	.st0{fill:#3C2E86;}
	.st1{fill:url(#路径_14586_1_);}
	.st2{fill:url(#路径_14587_1_);}
	.st3{fill:url(#路径_14588_1_);}
	.st4{fill:url(#路径_14589_1_);}
	.st5{fill:url(#路径_14590_1_);}
	.st6{fill:url(#路径_14591_1_);}
	.st7{fill:url(#路径_14592_1_);}
	.st8{fill:url(#路径_14593_1_);}
	.st9{fill:url(#路径_14594_1_);}
	.st10{fill:url(#路径_14595_1_);}
	.st11{fill:url(#路径_14596_1_);}
	.st12{opacity:0.3;fill:url(#路径_14597_1_);enable-background:new    ;}
	.st13{fill:url(#路径_14598_1_);}
	.st14{opacity:0.3;fill:url(#路径_14599_1_);enable-background:new    ;}
	.st15{fill:url(#路径_14600_1_);}
	.st16{fill:url(#路径_14601_1_);}
	.st17{fill:url(#路径_14602_1_);}
	.st18{fill:url(#路径_14603_1_);}
	.st19{fill:url(#路径_14604_1_);}
	.st20{fill:url(#路径_14605_1_);}
	.st21{fill:url(#路径_14606_1_);}
	.st22{fill:url(#路径_14607_1_);}
	.st23{fill:url(#路径_14608_1_);}
	.st24{fill:url(#路径_14609_1_);}
	.st25{fill:url(#路径_14610_1_);}
	.st26{fill:url(#路径_14611_1_);}
	.st27{fill:url(#路径_14612_1_);}
	.st28{fill:url(#路径_14613_1_);}
	.st29{opacity:0.3;fill:url(#路径_14614_1_);enable-background:new    ;}
	.st30{opacity:0.15;fill:url(#路径_14615_1_);enable-background:new    ;}
	.st31{fill:url(#路径_14616_1_);}
	.st32{opacity:0.15;}
	.st33{fill:url(#路径_14617_1_);}
	.st34{fill:url(#路径_14618_1_);}
	.st35{fill:url(#路径_14619_1_);}
	.st36{fill:url(#路径_14620_1_);}
	.st37{fill:url(#路径_14621_1_);}
	.st38{fill:#B7C0CE;}
	.st39{opacity:0.81;fill:#F4F7FA;enable-background:new    ;}
	.st40{fill:url(#路径_14628_1_);}
	.st41{fill:url(#路径_14629_1_);}
	.st42{fill:url(#路径_14630_1_);}
	.st43{fill:url(#路径_14631_1_);}
	.st44{fill:url(#路径_14632_1_);}
	.st45{fill:url(#路径_14633_1_);}
	.st46{fill:#26264F;}
	.st47{fill:url(#路径_14635_1_);}
	.st48{fill:url(#路径_14636_1_);}
	.st49{fill:url(#路径_14637_1_);}
	.st50{fill:url(#路径_14638_1_);}
	.st51{fill:url(#路径_14640_1_);}
	.st52{opacity:0.3;fill:url(#路径_14642_1_);enable-background:new    ;}
	.st53{fill:url(#路径_14643_1_);}
	.st54{fill:url(#路径_14644_1_);}
	.st55{fill:url(#路径_14645_1_);}
	.st56{fill:#FFFFFF;}
	.st57{opacity:0.3;fill:url(#路径_14647_1_);enable-background:new    ;}
	.st58{opacity:0.65;fill:url(#路径_14649_1_);enable-background:new    ;}
	.st59{fill:url(#路径_14650_1_);}
	.st60{opacity:0.26;fill:#FFFFFF;enable-background:new    ;}
	.st61{fill:#BFC8D6;}
	.st62{fill:#D8DEE8;}
	.st63{fill:#EFF2F6;}
	.st64{opacity:0.48;fill:#FFFFFF;enable-background:new    ;}
	.st65{opacity:0.47;fill:#D8DEE8;enable-background:new    ;}
	.st66{fill:url(#路径_14660_1_);}
	.st67{fill:url(#路径_14661_1_);}
	.st68{fill:url(#路径_14662_1_);}
	.st69{fill:url(#路径_14663_1_);}
	.st70{fill:url(#路径_14664_1_);}
	.st71{fill:url(#路径_14665_1_);}
	.st72{fill:url(#路径_14666_1_);}
	.st73{fill:url(#路径_14667_1_);}
	.st74{fill:url(#路径_14668_1_);}
	.st75{fill:url(#路径_14670_1_);}
	.st76{opacity:0.3;fill:url(#路径_14671_1_);enable-background:new    ;}
	.st77{fill:url(#路径_14672_1_);}
	.st78{opacity:0.3;fill:url(#路径_14674_1_);enable-background:new    ;}
	.st79{opacity:0.65;fill:url(#路径_14676_1_);enable-background:new    ;}
	.st80{fill:url(#路径_14677_1_);}
	.st81{fill:url(#路径_14679_1_);}
	.st82{fill:url(#路径_14680_1_);}
	.st83{fill:url(#路径_14690_1_);}
	.st84{font-family:'ITCAvantGardePro-Bold';}
	.st85{font-size:26px;}
	.st86{fill:#27BBE0;}
</style>
<g id="组_7725" transform="translate(-999.584 -131.005)">
	<g id="组_7595" transform="translate(57.786 -52.601)">
		<g id="组_7595-2" transform="translate(1014.847 183.606)">
			<path id="路径_14585" class="st0" d="M49.6,308.8c20.8,2,45.3-19.1,63.4-11.2c17.6,7.7,2.7,31.3,18.2,39
				c23.1,11.4,96.6-20.5,133.2-64.2c11-13.1,13.9-21.7,28.6-30.6c31.6-19.2,60.1-5.2,75.3-15.8C402.5,202.2,379.3,47,243.8,33.2
				c-63.3-6.4-141.4,18.9-190.4,65.2C-35.1,182.1,2.9,304.2,49.6,308.8z"/>
			<g id="组_7618" transform="translate(30.787 79.66)">
				<g id="组_7599" transform="translate(76.966 0)">
					
						<linearGradient id="路径_14586_1_" gradientUnits="userSpaceOnUse" x1="-411.727" y1="1471.8124" x2="-409.56" y2="1471.8124" gradientTransform="matrix(5.0964 0 0 -11.2686 2449.9333 16768.0449)">
						<stop  offset="0" style="stop-color:#444B8C"/>
						<stop  offset="0.996" style="stop-color:#26264F"/>
					</linearGradient>
					<path id="路径_14586" class="st1" d="M12.2,177.4c-0.7-0.4-1.8,0-2.6,0.3c-0.2,0.1-0.4,0.1-0.6,0.3c-0.7,0.6-0.1,2.3,0.8,5
						c1.4,4.2,1.6,5.6,2.3,5.6c0.7,0,1.3-1.1,1.4-1.2c0.3-0.8,0.4-1.6,0.2-2.5c-0.2-2.2-0.4-3.6-0.5-4.1
						C12.8,178,12.7,177.6,12.2,177.4z"/>
					
						<linearGradient id="路径_14587_1_" gradientUnits="userSpaceOnUse" x1="-475.8722" y1="1373.4159" x2="-475.0512" y2="1375.2418" gradientTransform="matrix(5.8671 0 0 -5.4622 2877.5732 7531.7803)">
						<stop  offset="0" style="stop-color:#FFC444"/>
						<stop  offset="0.996" style="stop-color:#F36F56"/>
					</linearGradient>
					<path id="路径_14587" class="st2" d="M17,178.1l-4.4,2.4c-0.9-0.5-1.5-1.4-1.5-2.4l4.1-3L17,178.1z"/>
					
						<linearGradient id="路径_14588_1_" gradientUnits="userSpaceOnUse" x1="-543.6651" y1="1574.4221" x2="-544.3691" y2="1574.52" gradientTransform="matrix(53.7687 0 0 -86.8489 29311.5098 136882.2656)">
						<stop  offset="0" style="stop-color:#444B8C"/>
						<stop  offset="0.996" style="stop-color:#26264F"/>
					</linearGradient>
					<path id="路径_14588" class="st3" d="M62.6,93c2.1,7.9,3.4,16,3.8,24.2c0.5,8.4,0.1,17.6-0.9,22.7c-5.1,25.2-45,38.5-49.7,40
						l-3-4c5-3.7,29.3-22.3,29.5-43c-0.1-6.1-0.8-12.2-1.9-18.2c-1.2-6.7-3-13.2-5.3-19.6L62.6,93z"/>
					
						<linearGradient id="路径_14589_1_" gradientUnits="userSpaceOnUse" x1="-533.0536" y1="1554.9258" x2="-532.5726" y2="1555.1948" gradientTransform="matrix(19.8409 0 0 -38.3149 10634.8066 59624.6523)">
						<stop  offset="0" style="stop-color:#FF9085"/>
						<stop  offset="1" style="stop-color:#FB6FBB"/>
					</linearGradient>
					<path id="路径_14589" class="st4" d="M57.5,20.9l3.6,0.7c0,0,18.7,23.9,16,32.9s-16,2.1-16,2.1L57.5,20.9z"/>
					
						<linearGradient id="路径_14590_1_" gradientUnits="userSpaceOnUse" x1="-523.855" y1="1330.6858" x2="-522.859" y2="1330.6858" gradientTransform="matrix(11.0253 0 0 -5.1321 5746.0288 7022.2778)">
						<stop  offset="0" style="stop-color:#444B8C"/>
						<stop  offset="0.996" style="stop-color:#26264F"/>
					</linearGradient>
					<path id="路径_14590" class="st5" d="M34.1,190.7c-0.6,0.5-0.7,1.7-0.8,2.5c0,0.2,0,0.4,0,0.7c0.3,0.9,2.1,1,4.9,1.3
						c4.4,0.4,5.7,0.8,6.1,0.1c0.3-0.6-0.5-1.6-0.5-1.7c-0.6-0.6-1.3-1-2.2-1.2c-2.1-0.7-3.5-1.1-3.9-1.2
						C34.9,190.5,34.5,190.4,34.1,190.7z"/>
					
						<linearGradient id="路径_14591_1_" gradientUnits="userSpaceOnUse" x1="-459.1472" y1="1349.5596" x2="-457.9232" y2="1351.3356" gradientTransform="matrix(3.9341 0 0 -5.6077 1833.0413 7774.7573)">
						<stop  offset="0" style="stop-color:#FFC444"/>
						<stop  offset="0.996" style="stop-color:#F36F56"/>
					</linearGradient>
					<path id="路径_14591" class="st6" d="M36.7,186.7l0.4,5c-0.8,0.6-1.9,0.8-2.8,0.3l-1.1-4.9L36.7,186.7z"/>
					
						<linearGradient id="路径_14592_1_" gradientUnits="userSpaceOnUse" x1="-537.9352" y1="1577.8149" x2="-539.0682" y2="1578.464" gradientTransform="matrix(27.457 0 0 -108.177 14794.4619 170789.3906)">
						<stop  offset="0" style="stop-color:#444B8C"/>
						<stop  offset="0.996" style="stop-color:#26264F"/>
					</linearGradient>
					<path id="路径_14592" class="st7" d="M42.1,81.2c-1.1,20-2,40.5-2.7,61.2c-0.5,15.6-0.9,31-1.1,46.2l-5.5,0.7
						c-2.5-4.7-4.5-9.7-5.7-14.8c-2-7.9-1.5-12.5-2.4-20.7c-1-9.1-2.4-11.1-4.9-22.7c-5-23.4-7.6-35.1-1.9-42.4
						C19.6,86.4,25.4,80.5,42.1,81.2z"/>
					
						<linearGradient id="路径_14593_1_" gradientUnits="userSpaceOnUse" x1="-545.5325" y1="1574.993" x2="-544.9365" y2="1575.4191" gradientTransform="matrix(60.4869 0 0 -91.2953 33014.7266 143878.1562)">
						<stop  offset="0" style="stop-color:#FF9085"/>
						<stop  offset="1" style="stop-color:#FB6FBB"/>
					</linearGradient>
					<path id="路径_14593" class="st8" d="M16.6,21.5c6.6-1.9,13.4-3,20.2-3.4c12.6-0.7,18.9-1,22.6,1.9c11.5,9,0.6,41,4.7,57.9
						c3.4,14.2,3.6,14.4,3.6,14.4c0.8,1.6,2.1,3.8,1.6,6.4c-0.4,2.3-2,4.2-4.1,5.2c-4.4,1.5-6.9-5.5-14.2-7.7
						c-7.6-2.2-16.2,2.2-27,7.8c-6.9,3.6-9.2,5.8-11.6,4.7c-4.6-2.2-3.4-14-2.8-18.9C11.5,70.5,13.8,48,16.6,21.5z"/>
					
						<linearGradient id="路径_14594_1_" gradientUnits="userSpaceOnUse" x1="-525.2742" y1="1408.2113" x2="-524.2742" y2="1408.2113" gradientTransform="matrix(13.9854 0 0 -7.3226 7393.9307 10365.875)">
						<stop  offset="0" style="stop-color:#FFC444"/>
						<stop  offset="0.996" style="stop-color:#F36F56"/>
					</linearGradient>
					<path id="路径_14594" class="st9" d="M48.2,54.2c-0.3-0.1-0.9-2.3,0.5-2.9c6.6-2.9,11.7,2.9,12.4,4.7l0.7,1.8
						c-1.8,0.1-3.6,0-5.3-0.4C54.4,56.6,50.9,54.8,48.2,54.2z"/>
					<g id="组_7596" transform="translate(53.657 43.695)">
						<g id="组_7595-3" transform="translate(0 0)">
							
								<linearGradient id="路径_14595_1_" gradientUnits="userSpaceOnUse" x1="-589.2734" y1="1482.6824" x2="-589.4904" y2="1482.9714" gradientTransform="matrix(17.7382 0 0 -18.8854 10368.7891 27879.457)">
								<stop  offset="0" style="stop-color:#444B8C"/>
								<stop  offset="0.996" style="stop-color:#26264F"/>
							</linearGradient>
							<path id="路径_14595" class="st10" d="M12.5,18.8L0.9,19.4c-0.4,0-1-0.5-0.9-0.9L5.5,1c0.1-0.3,0.4-0.5,0.7-0.5l11.1,0.2
								c0.4,0,0.6,0.7,0.5,1.1l-4.6,16.5C13.1,18.6,12.8,18.8,12.5,18.8z"/>
							
								<linearGradient id="路径_14596_1_" gradientUnits="userSpaceOnUse" x1="-582.6832" y1="1478.2355" x2="-582.1622" y2="1479.2164" gradientTransform="matrix(17.598 0 0 -18.9617 10283.8809 27996.9707)">
								<stop  offset="0" style="stop-color:#311944"/>
								<stop  offset="1" style="stop-color:#893976"/>
							</linearGradient>
							<path id="路径_14596" class="st11" d="M12.3,18.4L0.7,19c-0.4,0-0.8-0.3-0.6-0.7L5.2,0.5C5.3,0.2,5.6,0,5.9,0l11.1,0.7
								c0.3,0,0.6,0.3,0.5,0.6c0,0,0,0.1,0,0.1L13,17.9C12.9,18.2,12.6,18.4,12.3,18.4z"/>
						</g>
						
							<linearGradient id="路径_14597_1_" gradientUnits="userSpaceOnUse" x1="-585.3257" y1="1476.0039" x2="-583.8228" y2="1476.0039" gradientTransform="matrix(13.2931 0 0 -18.9618 7677.4253 27997.1582)">
							<stop  offset="0" style="stop-color:#311944"/>
							<stop  offset="1" style="stop-color:#893976"/>
						</linearGradient>
						<path id="路径_14597" class="st12" d="M6.4,7.8c0.3,1.6,1.8,1.3,3,3.2c1.5,2.5,0.1,4.7,1.4,5.6c0.8,0.4,1.6,0.4,2.4,0.1
							L13,17.9c-0.1,0.3-0.3,0.5-0.6,0.5L0.7,19c-0.4,0-0.8-0.3-0.6-0.7L5.2,0.5C5.3,0.2,5.6,0,5.9,0l1.7,0.1
							c0.2,0.7,0.3,1.4,0.3,2.1C7.9,4.9,6,5.9,6.4,7.8z"/>
					</g>
					
						<linearGradient id="路径_14598_1_" gradientUnits="userSpaceOnUse" x1="-494.7095" y1="1387.9551" x2="-493.0895" y2="1385.9261" gradientTransform="matrix(6.4796 0 0 -6.5573 3269.2847 9147.8242)">
						<stop  offset="0" style="stop-color:#FFC444"/>
						<stop  offset="0.996" style="stop-color:#F36F56"/>
					</linearGradient>
					<path id="路径_14598" class="st13" d="M71.3,50.2c0.1-0.3-0.1-0.6-0.3-0.6c-0.8-0.1-2.8-0.1-3.9,0.9
						c-1.4,1.2-3.2,3.5-1.7,4.6l1.4,1.1c0.1,0,0.1,0.1,0.2,0c0.5-0.2,2.7-0.8,2.9-1C70.5,53.5,70.9,51.8,71.3,50.2z"/>
					
						<linearGradient id="路径_14599_1_" gradientUnits="userSpaceOnUse" x1="-545.3915" y1="1572.2125" x2="-544.7855" y2="1572.7205" gradientTransform="matrix(59.5259 0 0 -76.6058 32484.4238 120531.625)">
						<stop  offset="0" style="stop-color:#FF9085"/>
						<stop  offset="1" style="stop-color:#FB6FBB"/>
					</linearGradient>
					<path id="路径_14599" class="st14" d="M61.6,97c-1.2-2.2-1.2-5.4-3.9-6.9c-1.6-0.9-2.8-0.5-5-0.5c-6.4-0.2-7.7-4.2-12.1-4.4
						c-6.9-0.4-10.2,9-14.1,7.7c-2.5-0.9-4.2-5.9-2.8-9.8c1.8-5.4,8-4.6,16.2-11.9c3.5-3.1,8.5-8.7,7.1-11.2
						c-1.4-2.6-8.3,1.2-13.3-2.7c-3-2.3-2.6-5.1-5-10.1c-3.2-5.9-7.7-10.9-13.2-14.7c-2.3,21.9-4.2,40.9-6,57.4
						c-0.5,4.8-1.8,16.7,2.8,18.9c2.4,1.1,4.8-1.1,11.6-4.7c10.8-5.6,19.4-10,27-7.8c7.3,2.1,9.8,9.2,14.2,7.7
						c1.4-0.6,2.6-1.6,3.3-3C64.5,100.1,62.6,98.7,61.6,97z"/>
					<g id="组_7598" transform="translate(25.952)">
						
							<linearGradient id="路径_14600_1_" gradientUnits="userSpaceOnUse" x1="-561.9467" y1="1509.5481" x2="-561.8937" y2="1511.6221" gradientTransform="matrix(24.3024 0 0 -16.2766 13669.79 24564.1934)">
							<stop  offset="0" style="stop-color:#FFC444"/>
							<stop  offset="0.996" style="stop-color:#F36F56"/>
						</linearGradient>
						<path id="路径_14600" class="st15" d="M12.9,8.8c0,1,1,5.3-2.2,7.7c-3.2,2.3-6.2,2.3-7.5,2.6c-2.8,0.7-3.2,0.7-3.2,1
							c-0.3,1.4,7.4,6,15.3,4.9c4.8-0.7,9.3-3.5,9-4.9s-5.1-0.7-6.6-3.3c-1-1.8,0.1-4.5,1.5-6.6C17.9,7.7,14.2,11.3,12.9,8.8z"/>
						<g id="组_7597" transform="translate(11.217)">
							
								<linearGradient id="路径_14601_1_" gradientUnits="userSpaceOnUse" x1="-564.4617" y1="1509.7394" x2="-565.1387" y2="1511.2814" gradientTransform="matrix(13.5416 0 0 -15.1163 7604.625 22710.1094)">
								<stop  offset="0" style="stop-color:#311944"/>
								<stop  offset="1" style="stop-color:#6B3976"/>
							</linearGradient>
							<path id="路径_14601" class="st16" d="M12.7,7.6c1.2-1.8,1.1-4.1-0.2-5.9c-1-1.1-2.5-1.7-4-1.7c-3.1-0.3-7,1-8.3,3.9
								c-0.8,1.7,1,5.2,1.3,5.8c0.3,0.7,0.9,0.9,1.4,1.5c0.7,0.7,1.9,1.9,3.7,3.9C6.8,14.4,7,13.7,7.3,13c0.4-0.9,0.9-1.7,1.4-2.5
								C10.3,8.5,11.6,9.1,12.7,7.6z"/>
							
								<linearGradient id="路径_14602_1_" gradientUnits="userSpaceOnUse" x1="-556.8517" y1="1469.5438" x2="-556.8877" y2="1466.3818" gradientTransform="matrix(11.7478 0 0 -10.7493 6549.6323 15770.7334)">
								<stop  offset="0" style="stop-color:#FFC444"/>
								<stop  offset="0.996" style="stop-color:#F36F56"/>
							</linearGradient>
							<path id="路径_14602" class="st17" d="M4,13.5c1.4,2,3.7,3.2,6.1,3c3.6-0.3,4.1-8.4,1.7-10.1c-1.1-0.6-2.4-0.8-3.6-0.4
								C7.5,6.1,7.2,6.5,6,6.8C4.9,7.1,4.6,7,4.2,7.3c-0.4,0.4-0.7,1.2,0,3.6c-0.5-0.6-1.3-0.9-2.1-0.7c-0.2,0.1-0.4,0.3-0.5,0.5
								C1.2,11.6,2,12.8,4,13.5z"/>
							
								<linearGradient id="路径_14603_1_" gradientUnits="userSpaceOnUse" x1="-560.1141" y1="1473.1113" x2="-560.8951" y2="1475.3143" gradientTransform="matrix(11.7933 0 0 -10.5891 6576.5962 15517.0488)">
								<stop  offset="0" style="stop-color:#311944"/>
								<stop  offset="1" style="stop-color:#6B3976"/>
							</linearGradient>
							<path id="路径_14603" class="st18" d="M4.1,6.8c0.2,0.1-0.4,0.8-0.4,1.7c0.1,2,1.6,3.7,3.6,4.1c1.1,0.1,1.4-0.6,3.2-0.8
								c0.9-0.1,1.8-0.1,2.6,0.1c0.7,1.7,0.2,3.7-1.2,4.9c-1.4,1-3.2,0.4-4,0.2c-1.2-0.3-2.3-1.1-3-2.2c-0.9-1.5,0-2.5-1.1-3.5
								C3.4,10.8,2.7,10.6,2,9.5C1.9,9.3,1.8,9.1,1.7,8.8C2.6,7.8,3.8,6.6,4.1,6.8z"/>
						</g>
					</g>
					
						<linearGradient id="路径_14604_1_" gradientUnits="userSpaceOnUse" x1="-543.713" y1="1559.8582" x2="-543.606" y2="1560.8462" gradientTransform="matrix(48.635 0 0 -45.1783 26465.8945 70540.3125)">
						<stop  offset="0" style="stop-color:#FF9085"/>
						<stop  offset="1" style="stop-color:#FB6FBB"/>
					</linearGradient>
					<path id="路径_14604" class="st19" d="M26.4,26.9c-1.9-2.9-5.7-5.8-9.3-5.5C6.9,22.1-5.8,49.8,2.9,60.7
						C9.5,69.1,30,69.5,48.6,55v-4.8c-9.2,1.6-16.8,2.7-22.4,3.4c-3.5,0.4-7,0.8-7.7-0.5c-1-2.1,6-5.1,8.7-12.8
						C27.6,39.2,30,32.4,26.4,26.9z"/>
				</g>
				<g id="组_7601" transform="translate(146.877 5.926)">
					
						<linearGradient id="路径_14605_1_" gradientUnits="userSpaceOnUse" x1="-579.6643" y1="1234.9948" x2="-579.4323" y2="1225.0837" gradientTransform="matrix(8.9084 0 0 -3.7683 5216.9741 4804.5659)">
						<stop  offset="0" style="stop-color:#444B8C"/>
						<stop  offset="0.996" style="stop-color:#26264F"/>
					</linearGradient>
					<path id="路径_14605" class="st20" d="M58.3,164c0.1,0.9,0.2,1.8,0.1,2.8c-0.2,0.7-6.2,1.2-8.2,1s1.2-2.3,2.5-2.7
						S58.3,164,58.3,164z"/>
					
						<linearGradient id="路径_14606_1_" gradientUnits="userSpaceOnUse" x1="-501.7041" y1="1296.5796" x2="-502.0591" y2="1307.4196" gradientTransform="matrix(3.106 0 0 -4.6511 1615.252 6199.6797)">
						<stop  offset="0" style="stop-color:#FFC444"/>
						<stop  offset="0.996" style="stop-color:#F36F56"/>
					</linearGradient>
					<path id="路径_14606" class="st21" d="M55.2,160.6l0.6,4.1c0,0,1.6,0.7,2.4,0l0.1-4.3L55.2,160.6z"/>
					
						<linearGradient id="路径_14607_1_" gradientUnits="userSpaceOnUse" x1="-567.8194" y1="1447.6801" x2="-567.5204" y2="1443.8071" gradientTransform="matrix(6.9309 0 0 -9.6431 4026.1162 14108.71)">
						<stop  offset="0" style="stop-color:#444B8C"/>
						<stop  offset="0.996" style="stop-color:#26264F"/>
					</linearGradient>
					<path id="路径_14607" class="st22" d="M89.1,160.4c0,0-1.3,0.9-0.9,2.1s3.3,5.7,5.4,7s1.5-1.4,0.8-3.1s-2.2-5.3-2.8-6
						S89.1,160.4,89.1,160.4z"/>
					
						<linearGradient id="路径_14608_1_" gradientUnits="userSpaceOnUse" x1="-561.1266" y1="1449.0823" x2="-561.3046" y2="1454.1643" gradientTransform="matrix(6.1772 0 0 -9.9207 3556.2561 14544.2461)">
						<stop  offset="0" style="stop-color:#FFC444"/>
						<stop  offset="0.996" style="stop-color:#F36F56"/>
					</linearGradient>
					<path id="路径_14608" class="st23" d="M86.8,155.8c0.6,1.7,1.2,3.1,1.7,4.2c0.5,1.4,1.3,2.7,2.2,3.9c0.6,0.7,1.9,2,2.2,1.8
						s-0.6-1.9-2.4-6.9c-0.3-0.7-1.1-3-1.1-3L86.8,155.8L86.8,155.8z"/>
					
						<linearGradient id="路径_14609_1_" gradientUnits="userSpaceOnUse" x1="-603.9666" y1="1566.764" x2="-602.9615" y2="1567.1221" gradientTransform="matrix(20.8411 0 0 -78.3187 12628.2812 122843.2891)">
						<stop  offset="0" style="stop-color:#AA80F9"/>
						<stop  offset="0.996" style="stop-color:#6165D7"/>
					</linearGradient>
					<path id="路径_14609" class="st24" d="M42.7,84.1c-0.6,6.4-0.7,12.8-0.2,19.1c0.8,10.6,2.9,17.3,5.6,28.6
						c1.6,6.9,3.8,17,5.8,29.7c1.1,0.6,2.3,0.9,3.5,0.7c0.8-0.1,1.5-0.4,2.1-0.8c5.2-15.9,3.7-25.7,1.2-31.8
						c-1.1-2.6-2.4-4.7-3.1-8.7c-0.9-5.3,0.2-8.3,1.8-20.6c1.1-8.8,1-10.1,0.2-11.4C56.6,83.7,47.2,83.8,42.7,84.1z"/>
					
						<linearGradient id="路径_14610_1_" gradientUnits="userSpaceOnUse" x1="-585.5292" y1="1407.9728" x2="-584.7982" y2="1401.8247" gradientTransform="matrix(10.3948 0 0 -7.5636 6091.5713 10688.0498)">
						<stop  offset="0" style="stop-color:#FFC444"/>
						<stop  offset="0.996" style="stop-color:#F36F56"/>
					</linearGradient>
					<path id="路径_14610" class="st25" d="M10.4,39.7c0,0-0.7-2.9-1.9-3.6s-2.9-1.6-3.3-1.9s-0.9,0.7,0.3,1.4l1.1,0.8
						c0,0.2,0,0.3,0,0.5c-0.3,0.6-0.9,1-1.5,1c-2.9,0.6-4,0.6-4.5,0.5c-0.1,0-0.3-0.1-0.4,0c-0.2,0.2,0.1,0.8,0.3,0.9
						c0.8,1.2,3.5,1.7,5.6,0.8c0.7-0.3,1-0.7,1.6-0.6c0.9,0.1,1.4,1.3,1.7,2.2L10.4,39.7z"/>
					
						<linearGradient id="路径_14611_1_" gradientUnits="userSpaceOnUse" x1="-609.6052" y1="1565.4834" x2="-607.9872" y2="1566.1094" gradientTransform="matrix(30.311 0 0 -73.1028 18534.2988 114581.0391)">
						<stop  offset="0" style="stop-color:#AA80F9"/>
						<stop  offset="0.996" style="stop-color:#6165D7"/>
					</linearGradient>
					<path id="路径_14611" class="st26" d="M60.5,86c3.2,16.4,6.3,25,8.7,29.9c1.7,3.4,3.2,7,4.4,10.6c1.1,3.3,2,6.7,2.6,10.1
						c1.1,5,3.8,12.4,11.1,22c0.8,0.4,1.7,0.5,2.5,0.1c0.4-0.2,0.8-0.6,1-1.1c-1-9.2-2-17-3-22.9c-0.2-1.3-1.1-6.7-2.5-14
						c-0.5-2.8-1.3-7-2.3-11.3c-1.2-5.3-3-12.5-5.8-21.2L60.5,86z"/>
					
						<linearGradient id="路径_14612_1_" gradientUnits="userSpaceOnUse" x1="-612.2812" y1="1549.8436" x2="-611.2812" y2="1549.8436" gradientTransform="matrix(39.3352 0 0 -39.0369 24092.2617 60537.1562)">
						<stop  offset="4.000000e-03" style="stop-color:#E38DDD"/>
						<stop  offset="1" style="stop-color:#9571F6"/>
					</linearGradient>
					<path id="路径_14612" class="st27" d="M8.1,40.7l2.5-2.2c0.3,0.3,4.7,4.6,10.9,3.3c4.2-0.9,6.7-4.4,8.3-6.6
						c4.7-6.7,1.9-11.6,7-16.1c1.4-1.3,4.2-2.8,6-2.3c4.3,1.1,6.8,14.1,2.6,24.2c-0.8,2.1-5.5,13.4-16,14.6
						C20.8,56.5,11.8,50.5,8.1,40.7z"/>
					
						<linearGradient id="路径_14613_1_" gradientUnits="userSpaceOnUse" x1="-615.5859" y1="1568.0598" x2="-615.8019" y2="1568.3029" gradientTransform="matrix(67.2495 0 0 -84.8679 41488.6445 133135.9688)">
						<stop  offset="0" style="stop-color:#444B8C"/>
						<stop  offset="0.996" style="stop-color:#26264F"/>
					</linearGradient>
					<path id="路径_14613" class="st28" d="M57.8,21c-1.8-1.7-5.3-3.6-7-8.1c-0.5-1.3-2.4-6.1,0.4-9.8c1.7-2.3,4.5-3.5,7.3-3.1
						c2.3,0.4,2.6,2,6.5,5.2c2,1.8,4.2,3.2,6.6,4.3c4.6,1.9,7.3,0.1,11.9,0.3c5.7,0.2,12.2,3.4,15.4,8c5.6,8.1-2.5,16.4,3.6,25.9
						c2,3.1,3,2.4,7.8,8.5s7.2,9.1,6.7,12.8c-0.6,5.1-6.1,10.1-11.4,10.4c-5.1,0.3-8.3-3.7-10.9-1.9c-1.8,1.2-0.8,3.7-2.8,6.6
						c-2.5,3.8-7.5,4.5-8.3,4.6c-7.5,1.1-17.5-7.6-21.8-18C54.1,48.2,67.6,30.1,57.8,21z"/>
					
						<linearGradient id="路径_14614_1_" gradientUnits="userSpaceOnUse" x1="-597.1346" y1="1566.6694" x2="-595.7306" y2="1567.0304" gradientTransform="matrix(14.9155 0 0 -77.9989 8950.2217 122336.875)">
						<stop  offset="0" style="stop-color:#AA80F9"/>
						<stop  offset="0.996" style="stop-color:#6165D7"/>
					</linearGradient>
					<path id="路径_14614" class="st29" d="M60.6,129.6c-1.1-2.6-2.4-4.7-3.1-8.7c-0.9-5.3,0.2-8.3,1.8-20.6
						c1.2-8.8,1-10.1,0.2-11.4c-1.7-2.9-5.2-4.1-8.8-4.6c0,0.2,0.1,0.4,0.1,0.5c1.9,8.6-5.3,13.9-2.1,23.4c1.6,4.7,4.2,5.7,4.8,11.2
						c0.6,5.1-1.5,6.1-1,10.7c0.6,6.9,5.5,8.6,6.8,13.8c0.8,3.4,0.1,8.4-5.9,15.7c0.1,0.6,0.2,1.3,0.3,1.9c1.1,0.6,2.3,0.9,3.5,0.7
						c0.8-0.1,1.5-0.4,2.1-0.8C64.7,145.6,63.2,135.8,60.6,129.6z"/>
					
						<linearGradient id="路径_14615_1_" gradientUnits="userSpaceOnUse" x1="-612.2827" y1="1538.6171" x2="-611.2827" y2="1538.6171" gradientTransform="matrix(39.3411 0 0 -29.3618 24095.9043 45217.5469)">
						<stop  offset="0" style="stop-color:#AA80F9"/>
						<stop  offset="0.996" style="stop-color:#6165D7"/>
					</linearGradient>
					<path id="路径_14615" class="st30" d="M41.7,29.1C33.9,35.2,34.8,47,30,47.6c-1.5,0.2-1.4-0.9-4.9-2.1
						c-5.1-1.7-7.5,0-11.1-1.2c-2.2-0.8-4-2.3-5.3-4.3l-0.7,0.6c3.7,9.9,12.7,15.9,21.2,14.9c10.5-1.2,15.1-12.5,16-14.6
						c1.8-4.7,2.5-9.7,2-14.7C45.2,26.8,43.3,27.8,41.7,29.1z"/>
					
						<linearGradient id="路径_14616_1_" gradientUnits="userSpaceOnUse" x1="-616.9925" y1="1569.3815" x2="-615.9925" y2="1569.3815" gradientTransform="matrix(78.5934 0 0 -91.5189 48526.6133 143688.1406)">
						<stop  offset="4.000000e-03" style="stop-color:#E38DDD"/>
						<stop  offset="1" style="stop-color:#9571F6"/>
					</linearGradient>
					<path id="路径_14616" class="st31" d="M36,19.8c0.5-0.7,2-2.8,8.4-4.3c5.5-1.4,11.3-1.6,16.8-0.4c7.5,1.6,14.3,5.6,19.5,11.2
						c-4.7,3.1-8.4,7.6-10.3,12.9c-0.9,2.4-3.4,10.5,0.2,18c2.1,4.4,5.8,7.6,8.6,10.1c4.2,3.7,6.4,4.3,7.8,7.7
						c1.5,3.6,0,5.4,1.9,7.9c2.1,2.7,4.5,1.4,7.9,4.1c3.6,2.8,2.3,5.1,5.5,8.1c4.7,4.5,10.9,3,11.2,5c0.3,1.7-4.2,4.1-8,5
						c-7.5,1.9-14-1.3-15.9-2.2c-5.4-2.7-4.4-4.4-8.5-6.5c-6.8-3.4-11.5,0.4-27.1,0.8c-8.4,0.2-12.7,0.3-15-2.6
						c-2.1-2.6-1-5.5,0.3-17.8l0,0c0.4-4.1,1.3-12.7,1.3-17.6c0-2.9-1-7.6-3-17.1c-0.1-0.6-1.2-5.7-2.1-12.5
						C34.8,23.4,34.9,21.5,36,19.8z"/>
					<g id="组_7600" transform="translate(57.381 25.545)" class="st32">
						
							<linearGradient id="路径_14617_1_" gradientUnits="userSpaceOnUse" x1="-672.1876" y1="1541.6317" x2="-671.9746" y2="1540.6737" gradientTransform="matrix(56.2856 0 0 -76.5101 37852.2422 117939.2734)">
							<stop  offset="0" style="stop-color:#AA80F9"/>
							<stop  offset="0.996" style="stop-color:#6165D7"/>
						</linearGradient>
						<path id="路径_14617" class="st33" d="M45,69.6c-3.2-3.1-2-5.4-5.5-8.1c-3.5-2.7-5.9-1.5-7.9-4.1c-1.9-2.5-0.4-4.3-1.9-7.9
							c-1.4-3.3-3.6-3.9-7.8-7.7c-2.8-2.5-6.5-5.8-8.6-10.1c-3.6-7.6-1.1-15.7-0.2-18c2-5.3,5.6-9.8,10.3-12.9
							C23.2,0.5,23,0.3,22.7,0C9.4,1.8,1.7,9.5,0.7,11.8C-1.5,17,2,19,2.1,34.1c0,7.2-0.7,10.1,1.6,13.1c2.7,3.5,5.8,2.4,9.7,6.9
							c3,3.5,2.5,5.7,5.3,7.1c3,1.6,4.9-0.3,8.3,0.5c5.7,1.2,6.9,7.7,10.6,11.3c2.8,2.7,8.1,4.6,18.4,2.6c0.2-0.3,0.3-0.6,0.3-1
							C56,72.7,49.8,74.1,45,69.6z"/>
					</g>
					
						<linearGradient id="路径_14618_1_" gradientUnits="userSpaceOnUse" x1="-609.8775" y1="1550.9673" x2="-608.8775" y2="1550.9673" gradientTransform="matrix(31.3464 0 0 -40.3683 19179.4395 62647.3125)">
						<stop  offset="4.000000e-03" style="stop-color:#E38DDD"/>
						<stop  offset="1" style="stop-color:#9571F6"/>
					</linearGradient>
					<path id="路径_14618" class="st34" d="M62.1,41.4c-1.4,3,5.1,10,12.3,13.3c1.5,0.7,12,5.5,16.7,0.9
						c3.9-3.9,1.4-11.8,0.5-14.7c-4.4-14-17.9-21.1-23.6-23.7c-4.2,10.6-1.7,15.3-0.8,16.8c2.1,2.7,4.4,5.3,6.9,7.6
						c2.1,2,3.5,3,3.3,3.3c-0.2,0.4-2.7-0.3-12.4-5.1C64,40,62.6,40.4,62.1,41.4z"/>
					
						<linearGradient id="路径_14619_1_" gradientUnits="userSpaceOnUse" x1="-601.211" y1="1457.0521" x2="-600.519" y2="1458.8191" gradientTransform="matrix(18.5142 0 0 -10.5226 11186.1152 15348.9629)">
						<stop  offset="0" style="stop-color:#FFC444"/>
						<stop  offset="0.996" style="stop-color:#F36F56"/>
					</linearGradient>
					<path id="路径_14619" class="st35" d="M56.9,6.8c0,0,0.7,5.4,2.6,6.6s5.2,2.8,5.5,3.3s-12.3,1.8-18.5-1.4l0,0
						c2.1-0.4,2.6-0.6,2.6-0.6c0.9-0.2,1.8-0.6,2.6-1C53,13,54,12.1,54.8,11l0-3L56.9,6.8z"/>
					
						<linearGradient id="路径_14620_1_" gradientUnits="userSpaceOnUse" x1="-553.8104" y1="1366.1953" x2="-550.1143" y2="1368.1792" gradientTransform="matrix(5.4792 0 0 -6.1121 3088.5051 8357.8408)">
						<stop  offset="0" style="stop-color:#FFC444"/>
						<stop  offset="0.996" style="stop-color:#F36F56"/>
					</linearGradient>
					<path id="路径_14620" class="st36" d="M57.2,8.7c-0.8,1-2.1,1.4-3.3,1c-1.8-0.7-0.7-5.3,0.7-5.9c0.7-0.2,1.4-0.1,1.9,0.3
						c0.9,0.8,1.3,2,0.9,3.2c0.5-0.1,0.9,0,1,0.2c0.1,0.3-0.3,0.7-0.3,0.8C57.9,8.5,57.6,8.7,57.2,8.7z"/>
					
						<linearGradient id="路径_14621_1_" gradientUnits="userSpaceOnUse" x1="-582.9147" y1="1436.278" x2="-581.9827" y2="1430.145" gradientTransform="matrix(9.6809 0 0 -8.9939 5702.6953 12953.5186)">
						<stop  offset="0" style="stop-color:#FFC444"/>
						<stop  offset="0.996" style="stop-color:#F36F56"/>
					</linearGradient>
					<path id="路径_14621" class="st37" d="M64.6,40.7c0,0-5.9-6.1-8.3-7s-1,0.4,0,1.2s1.6,1,1.1,2.2s-1.4,2.2,0,3.1
						c0.9,0.7,1.9,1.2,3.1,1.4l1.1,0.1l1.4,0.8C63,42.5,64.9,42.2,64.6,40.7z"/>
				</g>
				<g id="组_7603" transform="translate(18.387 99.671)">
					<path id="路径_14622" class="st38" d="M172.2,91.9c-0.2,0-0.4-0.2-0.5-0.4l-8.2-89c0-0.2,0.1-0.5,0.4-0.5s0.5,0.1,0.5,0.4
						c0,0,0,0.1,0,0.1l7.3,79.2V0.5c0-0.3,0.2-0.5,0.4-0.5c0.3,0,0.5,0.2,0.5,0.4c0,0,0,0,0,0v91C172.6,91.7,172.4,91.9,172.2,91.9
						L172.2,91.9z"/>
					<g id="组_7602" transform="translate(0 0.291)">
						<path id="路径_14623" class="st39" d="M264.1,9.9L173.7,0L0,7.9l91,10.9L264.1,9.9z"/>
						<path id="路径_14624" class="st38" d="M91,18.8l173.1-8.9v4.3L91,23.1L0,12.2V7.9L91,18.8z"/>
					</g>
					<path id="路径_14625" class="st38" d="M91.6,123L91.6,123c-0.3,0-0.5-0.2-0.5-0.5V22.3c0-0.3,0.2-0.4,0.5-0.4
						c0.2,0,0.4,0.2,0.4,0.4v88.6L99,22.3c0-0.3,0.2-0.4,0.5-0.4c0.3,0,0.4,0.2,0.4,0.5c0,0,0,0,0,0L92,122.6
						C92,122.8,91.8,123,91.6,123z"/>
					<path id="路径_14626" class="st38" d="M1,105.2L1,105.2c-0.3,0-0.5-0.2-0.5-0.5V12.2c0-0.3,0.2-0.5,0.4-0.5
						c0.3,0,0.5,0.2,0.5,0.4c0,0,0,0,0,0v80.9l6.4-80.9c0-0.2,0.3-0.4,0.5-0.4c0.2,0,0.4,0.2,0.4,0.5l-7.3,92.5
						C1.4,105,1.2,105.2,1,105.2z"/>
					<path id="路径_14627" class="st38" d="M263.2,105.2c-0.2,0-0.4-0.2-0.5-0.4L255,12.3c0-0.2,0.1-0.5,0.4-0.5
						c0.2,0,0.5,0.1,0.5,0.4c0,0,0,0,0,0l6.8,81.6V14.5c0-0.3,0.2-0.5,0.4-0.5c0.3,0,0.5,0.2,0.5,0.4c0,0,0,0,0,0v90.2
						C263.7,105,263.5,105.2,263.2,105.2L263.2,105.2z"/>
				</g>
				<g id="组_7607" transform="translate(9.354 59.633)">
					
						<linearGradient id="路径_14628_1_" gradientUnits="userSpaceOnUse" x1="-400.4309" y1="1105.9965" x2="-399.3789" y2="1104.5475" gradientTransform="matrix(5.0076 0 0 -3.2324 2122.561 3760.3774)">
						<stop  offset="0" style="stop-color:#444B8C"/>
						<stop  offset="0.996" style="stop-color:#26264F"/>
					</linearGradient>
					<path id="路径_14628" class="st40" d="M73.9,143.5c-0.2-0.8-2.8-1.6-4.1-0.5c-0.7,0.5-1.1,1.7-0.7,2.2
						c0.1,0.2-0.4,0.5,0.1,0.5C71,145.7,74.1,144.3,73.9,143.5z"/>
					
						<linearGradient id="路径_14629_1_" gradientUnits="userSpaceOnUse" x1="-359.4876" y1="1316.7253" x2="-359.4876" y2="1318.1414" gradientTransform="matrix(2.9871 0 0 -6.481 1143.3778 8727.6172)">
						<stop  offset="0" style="stop-color:#FFC444"/>
						<stop  offset="0.996" style="stop-color:#F36F56"/>
					</linearGradient>
					<path id="路径_14629" class="st41" d="M71,143.5l-2.8,0.1c1-1.7-0.2-6.5-0.2-6.5l3,0.1c0,0-0.1,1.4-0.3,3.4
						C70.8,141.6,70.9,142.6,71,143.5z"/>
					
						<linearGradient id="路径_14630_1_" gradientUnits="userSpaceOnUse" x1="-377.776" y1="1006.3021" x2="-376.444" y2="1004.5141" gradientTransform="matrix(3.9536 0 0 -2.6194 1610.791 2822.6113)">
						<stop  offset="0" style="stop-color:#444B8C"/>
						<stop  offset="0.996" style="stop-color:#26264F"/>
					</linearGradient>
					<path id="路径_14630" class="st42" d="M71.4,143.5c0,0-3.3-0.8-3.7-0.1s-0.6,2.4,1.5,2.4S71.6,144,71.4,143.5z"/>
					
						<linearGradient id="路径_14631_1_" gradientUnits="userSpaceOnUse" x1="-397.4081" y1="1148.0836" x2="-396.3141" y2="1146.7756" gradientTransform="matrix(4.8125 0 0 -3.5842 2045.1587 4302.5503)">
						<stop  offset="0" style="stop-color:#444B8C"/>
						<stop  offset="0.996" style="stop-color:#26264F"/>
					</linearGradient>
					<path id="路径_14631" class="st43" d="M90.8,146.9c-0.3-0.8-3-1.2-4.2,0.1c-0.6,0.6-0.9,1.8-0.4,2.2c0.2,0.2-0.4,0.6,0.2,0.5
						C88.2,149.5,91.1,147.7,90.8,146.9z"/>
					
						<linearGradient id="路径_14632_1_" gradientUnits="userSpaceOnUse" x1="-387.0746" y1="1327.9354" x2="-387.0746" y2="1329.2994" gradientTransform="matrix(3.84 0 0 -6.728 1571.9821 9110.084)">
						<stop  offset="0" style="stop-color:#FFC444"/>
						<stop  offset="0.996" style="stop-color:#F36F56"/>
					</linearGradient>
					<path id="路径_14632" class="st44" d="M87.5,147.6l-2.7,0.5c0.7-1.9-1.1-6.4-1.1-6.4l3-0.3c0,0,0.1,1.4,0.2,3.4
						C87,145.8,87.2,146.7,87.5,147.6z"/>
					
						<linearGradient id="路径_14633_1_" gradientUnits="userSpaceOnUse" x1="-377.5598" y1="1012.5762" x2="-376.1999" y2="1010.7991" gradientTransform="matrix(3.87 0 0 -2.6372 1587.3134 2853.9248)">
						<stop  offset="0" style="stop-color:#444B8C"/>
						<stop  offset="0.996" style="stop-color:#26264F"/>
					</linearGradient>
					<path id="路径_14633" class="st45" d="M88.3,147.2c0,0-3.4-0.3-3.6,0.4s-0.3,2.5,1.8,2.1S88.5,147.7,88.3,147.2z"/>
					<g id="组_7604" transform="translate(48.78 28.632)">
						<path id="路径_14634" class="st46" d="M25,35.9L36.7,8.5c0.5-1.2,0-2.6-1.3-3.2c-0.1-0.1-0.2-0.1-0.4-0.1L13.7,0.1
							c-1.2-0.3-2.3,0.3-2.8,1.4L0.2,27.8c-0.5,1.2,0.1,2.6,1.3,3.1c0.1,0,0.1,0.1,0.2,0.1l20.4,6.2C23.3,37.6,24.6,37,25,35.9z"/>
						
							<linearGradient id="路径_14635_1_" gradientUnits="userSpaceOnUse" x1="-522.4741" y1="1464.9299" x2="-522.7741" y2="1465.5159" gradientTransform="matrix(34.4631 0 0 -34.8514 17997.9395 51020.5273)">
							<stop  offset="0" style="stop-color:#FF9085"/>
							<stop  offset="1" style="stop-color:#FB6FBB"/>
						</linearGradient>
						<path id="路径_14635" class="st47" d="M24.5,34.5L35.4,9c0.5-1.1,0-2.5-1.2-2.9C34.1,6,34,6,33.9,6l-20-4.8
							c-1.1-0.3-2.2,0.3-2.6,1.3L1.3,27c-0.5,1.1,0.1,2.5,1.2,2.9c0.1,0,0.1,0,0.2,0.1l19.1,5.8C22.9,36.1,24.1,35.6,24.5,34.5z"/>
					</g>
					
						<linearGradient id="路径_14636_1_" gradientUnits="userSpaceOnUse" x1="-412.1042" y1="1403.7908" x2="-412.7932" y2="1402.5479" gradientTransform="matrix(4.6716 0 0 -11.8259 1968.8903 16815.873)">
						<stop  offset="0" style="stop-color:#FFC444"/>
						<stop  offset="0.996" style="stop-color:#F36F56"/>
					</linearGradient>
					<path id="路径_14636" class="st48" d="M80,55.7l0.3-3.2l1.9-3.5c0.3-0.5,0.4-1,0.4-1.6v-3.5L80.4,49c-0.6-0.6-1.3-1.1-2-1.6
						c-0.6-0.3-0.5,0.8-0.1,1.3s-0.2,3.8,0.2,4.2L78.3,55L80,55.7z"/>
					
						<linearGradient id="路径_14637_1_" gradientUnits="userSpaceOnUse" x1="-478.6146" y1="1515.8177" x2="-478.0016" y2="1515.4158" gradientTransform="matrix(60.719 0 0 -88.3761 29030.8555 133967.9219)">
						<stop  offset="4.000000e-03" style="stop-color:#E38DDD"/>
						<stop  offset="1" style="stop-color:#9571F6"/>
					</linearGradient>
					<path id="路径_14637" class="st49" d="M62.2,35.2c-1.7-4.3-5.5-6.7-7.4-8c-4.6-3-7.5-2.5-18.1-4.1C22.7,21,21,19,16.3,20.6
						C10.1,22.8,6.9,28.4,5.4,31c-7.5,13,1.3,19.6-1,45.5C3.5,87,1.2,96.2,6.8,101.6c1.2,1.1,2.5,1.7,5.2,2.9
						c10.5,4.7,20,3.9,25.8,3.4c6.3-0.6,9.5-1,11.2-3.2c2.7-3.6-0.1-8.1-0.6-16c-0.3-5.6,0.9-10.1,3.5-19
						C57.8,49,65.6,43.3,62.2,35.2z"/>
					<g id="组_7606" transform="translate(23.948)">
						<g id="组_7605">
							
								<linearGradient id="路径_14638_1_" gradientUnits="userSpaceOnUse" x1="-483.2155" y1="1452.3091" x2="-482.0345" y2="1450.7621" gradientTransform="matrix(19.6691 0 0 -18.8733 9623.6357 27566.998)">
								<stop  offset="0" style="stop-color:#FFC444"/>
								<stop  offset="0.996" style="stop-color:#F36F56"/>
							</linearGradient>
							<path id="路径_14638" class="st50" d="M14.8,15.5c0.4-1.6,0.1-3.4-0.7-4.8c-1-1.9-1.3-2.2-1.8-2.5l-0.7-0.4l-0.1,0
								C10.8,7.5,10,7.5,9.3,7.5c-1,0.2-2,4.2-1.7,9.7c0,0.2-0.1,0.4-0.1,0.6c-0.2,0.9-0.3,1.7-0.4,2.6c-0.1,0.8-1.2,0.8-2,0.7
								c-3.3-0.2-4.9,0.1-5,0.6c-0.3,0.9,3.6,3.9,8.5,4.6c6.5,0,11.7-0.6,11.2-1.7c-0.3-0.5-5.3-1.8-6.7-3.1
								c-0.9-0.9-1.4-2.1-1.3-3.3C12.1,18.2,14.3,17.1,14.8,15.5z"/>
							<path id="路径_14639" class="st46" d="M13.6,6.1c0,1.4-0.4,2.7-1.2,3.9c-0.2,0.2-0.5,0.4-0.6,0.7c0,0.1-0.1,0.1-0.1,0.2
								c-0.4,1.1,1.4,2.4,1,2.9c-0.2,0.4-1.4-0.1-1.6,0.2c-0.1,0.3,0.8,0.9,0.7,1.2c-0.1,0.3-0.7,0-1.1,0.4c-0.2,0.2-0.1,0.4-0.3,1
								c-0.1,0.3-0.2,0.6-0.4,0.9c-0.6,1-2.3,1.4-2.6,1c-0.1-0.1,0-0.2-0.1-0.6c-0.1-0.3-0.2-0.5-0.3-0.8c-0.6-0.6-1.3-1.2-2-1.6
								C4,14.9,3.2,14.1,2.8,13c0-0.1-0.1-0.2-0.1-0.3c-0.4-1.4-0.4-2.9,0.2-4.3c1-1.9,3.1-1,4.9-2.9c2-2.2,0.8-5.2,1.9-5.5
								C10.9-0.3,13.6,2.9,13.6,6.1z"/>
							
								<linearGradient id="路径_14640_1_" gradientUnits="userSpaceOnUse" x1="-216.4329" y1="884.7929" x2="-202.1139" y2="871.0039" gradientTransform="matrix(1.8109 0 0 -2.3655 560.0377 2303.9465)">
								<stop  offset="0" style="stop-color:#FFC444"/>
								<stop  offset="0.996" style="stop-color:#F36F56"/>
							</linearGradient>
							<path id="路径_14640" class="st51" d="M12,13.3c-0.4-0.6-1.2,0-1.2,0.7s0.7,1.5,1.4,1.4S12.6,14.1,12,13.3z"/>
						</g>
						<path id="路径_14641" class="st46" d="M11.7,12.1l1,1.3c0,0,1.1,1.6,1.7,0.7c0.5-0.7,0.6-0.7,0.7-0.7c0,0,0,0,0,0
							s-0.1-0.3-0.1-0.7c0.4,0.5,0.7,1.2,0.8,1.8c0.3,0.8,0.3,1.7,0,2.5c-0.3,0.5-0.8,1-1.4,1.1c-0.6,0-1.3,0-1.9-0.2
							c0,0,1.7-1.2,1.7-1.5c0.1-0.8-1-1.2-1.8-2.8C12,13.1,11.8,12.6,11.7,12.1z"/>
					</g>
					
						<linearGradient id="路径_14642_1_" gradientUnits="userSpaceOnUse" x1="-477.5694" y1="1511.0907" x2="-476.8154" y2="1510.5537" gradientTransform="matrix(49.399 0 0 -66.1382 23556.3672 99950.4297)">
						<stop  offset="4.000000e-03" style="stop-color:#E38DDD"/>
						<stop  offset="1" style="stop-color:#9571F6"/>
					</linearGradient>
					<path id="路径_14642" class="st52" d="M32.3,100.5c1.9-3.7-2.7-8.6,0.3-14.3c2.5-4.8,7.1-3.7,9.2-8.1c2.6-5.3-3-9.3-2.8-17.4
						c0.2-9.7,8.5-19.3,13.4-18.5c3.2,0.5,3.6,5.3,5.8,10.4c-2.6,5.5-4.7,11.2-6.4,17c-2.6,8.9-3.8,13.4-3.5,19
						c0.5,7.9,3.2,12.4,0.6,16c-1.7,2.2-4.9,2.6-11.2,3.2c-5.7,0.6-15.2,1.4-25.8-3.4c-1.3-0.6-2.3-1.1-3.2-1.5
						C25.3,105.6,30.8,103.5,32.3,100.5z"/>
					
						<linearGradient id="路径_14643_1_" gradientUnits="userSpaceOnUse" x1="-474.9495" y1="1502.2242" x2="-473.8275" y2="1501.4342" gradientTransform="matrix(33.1904 0 0 -44.9674 15746.9902 67529.2734)">
						<stop  offset="4.000000e-03" style="stop-color:#E38DDD"/>
						<stop  offset="1" style="stop-color:#9571F6"/>
					</linearGradient>
					<path id="路径_14643" class="st53" d="M80.6,55l-3.1-1.3c-1.7,1.8-3.9,3.5-5.8,2.9c-2.8-0.8-2.1-5.9-5.5-14.9
						C62.5,31.6,58.1,29,55.9,28c-0.9-0.6-2-0.8-3.1-0.6c-4.7,1.1-6.2,13.3-4.9,22.4c0.7,5.1,2.2,15.2,10.4,19.9
						c1.2,0.7,7.6,4.4,14,1.5C77.8,68.7,81.2,62.3,80.6,55z"/>
					
						<linearGradient id="路径_14644_1_" gradientUnits="userSpaceOnUse" x1="-478.9786" y1="1507.5582" x2="-479.3826" y2="1507.1913" gradientTransform="matrix(75.5482 0 0 -59.4666 36208.707 89774.5156)">
						<stop  offset="0" style="stop-color:#444B8C"/>
						<stop  offset="0.996" style="stop-color:#26264F"/>
					</linearGradient>
					<path id="路径_14644" class="st54" d="M72.8,137.5l-5.1,0.6c-3.5-3.8-6.1-8.3-7.6-13.3c-3.5-12,2-19.9-1.7-22.9
						c-4.3-3.5-12.7,6-31.3,8.7c-6,0.9-19.3,2.8-24.6-4.4c-2.5-3.4-3.2-7.9-1.7-11.9c3.1-7.4,13.3-6.5,46.8-13.1
						c12.9-2.5,15-3.3,18-1.9C80.8,86.6,74.5,127.6,72.8,137.5z"/>
					
						<linearGradient id="路径_14645_1_" gradientUnits="userSpaceOnUse" x1="-480.6421" y1="1507.8425" x2="-479.6421" y2="1507.8425" gradientTransform="matrix(75.5466 0 0 -59.4692 36223.1836 89783.4531)">
						<stop  offset="0" style="stop-color:#444B8C"/>
						<stop  offset="0.996" style="stop-color:#26264F"/>
					</linearGradient>
					<path id="路径_14645" class="st55" d="M88.1,142.4l-5.1,0.6c-3.5-3.8-6.1-8.3-7.6-13.3c-3.5-12,2-19.9-1.7-22.9
						c-4.3-3.5-12.7,6-31.3,8.7c-6,0.9-19.3,2.8-24.6-4.4c-2.5-3.4-3.2-7.9-1.7-11.9c3.1-7.4,13.3-6.5,46.8-13.1
						c12.9-2.5,15-3.3,18-1.9C96.1,91.4,89.7,132.4,88.1,142.4z"/>
				</g>
				<g id="组_7609" transform="translate(0 121.385)">
					<ellipse id="椭圆_1288" class="st38" cx="39" cy="101.2" rx="28.3" ry="11.5"/>
					<path id="路径_14646" class="st56" d="M10.7,99.9c0,6,12.7,10.9,28.3,10.9c15.6,0,28.3-4.9,28.3-10.9S54.6,84,39,84
						S10.7,93.8,10.7,99.9z"/>
					
						<linearGradient id="路径_14647_1_" gradientUnits="userSpaceOnUse" x1="-469.1154" y1="1405.7725" x2="-468.1154" y2="1405.7725" gradientTransform="matrix(47.542 0 0 -21.218 22214.3945 29922.293)">
						<stop  offset="0" style="stop-color:#AA80F9"/>
						<stop  offset="0.996" style="stop-color:#6165D7"/>
					</linearGradient>
					<path id="路径_14647" class="st57" d="M10.7,99.9c0-6,12.7-15.9,28.3-15.9c6.6,0,13.1,1.7,18.8,5c0.3,0.7,0.5,1.4,0.4,2.2
						c-0.3,3.4-5.8,5.5-9,6.2c-8,1.7-11.9-3-18.5-2.9c-4.1,0.1-9.7,2.2-16.4,10.8C12.1,103.6,10.7,101.8,10.7,99.9z"/>
					<path id="路径_14648" class="st56" d="M37.5,89.4c1,0.3,2.1,0.3,3.2,0c0.9-0.2,1.5-1.1,1.5-2V55.6h-6.3v31.9
						C35.9,88.4,36.5,89.2,37.5,89.4z"/>
					
						<linearGradient id="路径_14649_1_" gradientUnits="userSpaceOnUse" x1="-433.0466" y1="1429.4296" x2="-432.0466" y2="1429.4296" gradientTransform="matrix(6.2919 0 0 -34.0803 2652.5134 48788.0352)">
						<stop  offset="0" style="stop-color:#AA80F9"/>
						<stop  offset="0.996" style="stop-color:#6165D7"/>
					</linearGradient>
					<path id="路径_14649" class="st58" d="M37.5,89.4c1,0.3,2.1,0.3,3.2,0c0.9-0.2,1.5-1.1,1.5-2V55.6h-6.3v31.9
						C35.9,88.4,36.5,89.2,37.5,89.4z"/>
					<g id="组_7608">
						
							<linearGradient id="路径_14650_1_" gradientUnits="userSpaceOnUse" x1="-469.4682" y1="1446.5497" x2="-469.6222" y2="1446.7966" gradientTransform="matrix(74.6313 0 0 -60.7729 35066.6367 87942.7266)">
							<stop  offset="0" style="stop-color:#311944"/>
							<stop  offset="1" style="stop-color:#893976"/>
						</linearGradient>
						<path id="路径_14650" class="st59" d="M72.3,42.1l-9.6-6.1c-0.4-2.3-4.9-26-23.3-33.5c-7.5-3-15.5-2.7-19.9-2.5
							C10.6,0.5,4.3,0.8,1.3,5c-3.9,5.4,2.6,10.3,1.3,25.7C2,37.1,0.6,39.9,2.3,44c2.1,5,6.9,7.8,10.7,9.3c6.9,4,14.7,6.5,22.7,7.2
							c12.3,1,24.6-2.1,34.9-8.8c2-0.6,3.5-2.3,3.9-4.3C75,45.4,74.1,43.3,72.3,42.1z"/>
					</g>
					<path id="路径_14651" class="st60" d="M67.8,46.5c-0.4-2.1-6.3-0.4-11.9-4.6c-8.4-6.3-4-16.8-11.4-27
						C37.8,5.6,24.3,0.8,20.1,4.4c-5.6,4.7,8.1,22.4,0,33.8c-3.9,5.5-9.9,5.3-10,8.5c0,5.1,14.9,11.1,29,10.8
						C54.3,57.3,68.4,49.9,67.8,46.5z"/>
				</g>
				<g id="组_7615" transform="translate(183.102 56.614)">
					<g id="组_7612" transform="translate(0 27.694)">
						<g id="组_7611">
							<path id="路径_14652" class="st61" d="M62.7,27.3L0.6,26.8v1.4c0,0.4,0.3,0.7,0.6,0.7l17.6,2.7c0.2,0,0.4,0,0.6,0l42.6-3.1
								c0.4,0,0.7-0.3,0.7-0.7L62.7,27.3z"/>
							<g id="组_7610">
								<path id="路径_14653" class="st61" d="M40.2,25L1.3,27.5c-0.6,0.1-1.2-0.4-1.3-1c0,0,0-0.1,0-0.1V1.1C0,0.5,0.6,0,1.3,0
									h38.9c0.6,0,1,0.5,1,1v0v22.9C41.2,24.5,40.8,25,40.2,25z"/>
								<path id="路径_14654" class="st62" d="M40.8,25L1.9,27.5c-0.6,0.1-1.2-0.4-1.3-1c0,0,0-0.1,0-0.1V1.1C0.7,0.5,1.2,0,1.9,0
									h38.9c0.6,0,1,0.5,1,1c0,0,0,0,0,0v22.9C41.8,24.5,41.4,25,40.8,25z"/>
								<path id="路径_14655" class="st63" d="M39.6,23.4L3.3,25.6c-0.5,0.1-1-0.3-1-0.8c0,0,0,0,0-0.1V2.5c0-0.5,0.5-1,1-0.9
									l36.3-0.1c0.5,0,0.9,0.4,0.9,0.8c0,0,0,0,0,0v20.2C40.4,23,40.1,23.4,39.6,23.4z"/>
								<path id="路径_14656" class="st56" d="M22.7,0.7c0,0.2-0.2,0.5-0.4,0.5c-0.2,0-0.5-0.2-0.5-0.4c0-0.2,0.2-0.5,0.4-0.5
									c0,0,0,0,0,0C22.5,0.3,22.7,0.5,22.7,0.7z"/>
								<path id="路径_14657" class="st64" d="M31.6,18.1c-3-1.5-5.4,0.4-7.7-1.4c-1.4-1.1-0.7-1.9-2.4-3.6
									c-1.9-1.8-3.1-1.2-5-2.9c-2.4-2.1-1.2-3.7-3.3-5.2C10.7,3.1,8,4.8,5.6,3C4.6,2.3,4,1.2,3.7,0H1.4C1,0,0.6,0.3,0.6,0.7v26.3
									c0,0.4,0.3,0.6,0.7,0.6c0,0,0,0,0.1,0L41.2,25c0.2,0,0.4-0.1,0.5-0.3c-2.1,0-4.2-0.6-5.9-1.9C33.6,21,34,19.3,31.6,18.1z"/>
							</g>
							<path id="路径_14658" class="st56" d="M42.4,24.9L0.6,27.6l18.2,2.8c0.2,0,0.4,0,0.6,0l43.3-3.1L43,25
								C42.8,24.9,42.6,24.9,42.4,24.9z"/>
							<path id="路径_14659" class="st65" d="M6.7,27.6l34.8-2.2l10.8,1.3L17.8,29L6.7,27.6z"/>
						</g>
					</g>
					
						<linearGradient id="路径_14660_1_" gradientUnits="userSpaceOnUse" x1="-627.2625" y1="1259.1252" x2="-627.0965" y2="1253.7192" gradientTransform="matrix(12.2581 0 0 -4.8015 7735.0454 6168.5405)">
						<stop  offset="4.000000e-03" style="stop-color:#26264F"/>
						<stop  offset="1" style="stop-color:#444B8C"/>
					</linearGradient>
					<path id="路径_14660" class="st66" d="M50.3,134.9c0,0-9.1,0.6-9.3,1.2s6.2,2.9,8.4,3s4-0.6,3.8-1.5s-1-3.3-1-3.3L50.3,134.9
						z"/>
					
						<linearGradient id="路径_14661_1_" gradientUnits="userSpaceOnUse" x1="-557.7394" y1="1259.4769" x2="-557.8544" y2="1265.976" gradientTransform="matrix(3.717 0 0 -4.748 2124.2595 6083.0571)">
						<stop  offset="0" style="stop-color:#FFC444"/>
						<stop  offset="0.996" style="stop-color:#F36F56"/>
					</linearGradient>
					<path id="路径_14661" class="st67" d="M49.8,130.9l-0.2,4.3c0.8,0.4,1.6,0.6,2.5,0.3l1.2-4.5L49.8,130.9z"/>
					
						<linearGradient id="路径_14662_1_" gradientUnits="userSpaceOnUse" x1="-627.2649" y1="1259.4066" x2="-627.0989" y2="1254.0006" gradientTransform="matrix(12.259 0 0 -4.8064 7710.1528 6174.2866)">
						<stop  offset="4.000000e-03" style="stop-color:#26264F"/>
						<stop  offset="1" style="stop-color:#444B8C"/>
					</linearGradient>
					<path id="路径_14662" class="st68" d="M24.7,133.2c0,0-9.1,0.6-9.3,1.2s6.2,2.9,8.4,3s4-0.6,3.8-1.5s-1-3.3-1-3.3L24.7,133.2
						z"/>
					
						<linearGradient id="路径_14663_1_" gradientUnits="userSpaceOnUse" x1="-557.7503" y1="1258.5316" x2="-557.8663" y2="1265.0305" gradientTransform="matrix(3.718 0 0 -4.7476 2099.3679 6080.5703)">
						<stop  offset="0" style="stop-color:#FFC444"/>
						<stop  offset="0.996" style="stop-color:#F36F56"/>
					</linearGradient>
					<path id="路径_14663" class="st69" d="M24.3,129.1l-0.2,4.3c0.8,0.4,1.6,0.5,2.5,0.3l1.2-4.5L24.3,129.1z"/>
					
						<linearGradient id="路径_14664_1_" gradientUnits="userSpaceOnUse" x1="-651.7769" y1="1511.3477" x2="-651.947" y2="1511.0537" gradientTransform="matrix(68.4287 0 0 -59.1592 44696.9805 89476.8438)">
						<stop  offset="0" style="stop-color:#893976"/>
						<stop  offset="1" style="stop-color:#311944"/>
					</linearGradient>
					<path id="路径_14664" class="st70" d="M48.9,131.5L54,132c3.5-3.8,6.1-8.3,7.6-13.3c3.5-12.1-1.6-20.8,1.7-22.9
						c4.7-3.1,14.8,14.6,31,14.1c6.7-0.2,15.3-3.4,18.7-10.5c0.5-1.1,3-6.7,0.6-11.9C111,82,98.7,79.7,74.1,75.2
						c-10.6-1.9-15.9-2.9-18-1.9C40.9,80.5,47.2,121.5,48.9,131.5z"/>
					
						<linearGradient id="路径_14665_1_" gradientUnits="userSpaceOnUse" x1="-653.5019" y1="1509.0104" x2="-652.5019" y2="1509.0104" gradientTransform="matrix(83.6323 0 0 -54.9233 54676.6992 82984.8906)">
						<stop  offset="0" style="stop-color:#893976"/>
						<stop  offset="1" style="stop-color:#311944"/>
					</linearGradient>
					<path id="路径_14665" class="st71" d="M22.8,131.5l5.3,0.9c2.1-3.2,5.4-8.1,9-14.4c7.6-13.1,7.4-15.7,10.9-17.4
						c7.4-3.6,13,6.1,31.3,8.7c6,0.9,19.3,2.8,24.6-4.4c2.5-3.4,3.2-7.9,1.7-11.9c-3.1-7.4-13.3-6.5-46.8-13.1
						c-13.1-2.5-14.9-3-18-1.9C23.1,84.4,22.8,122.9,22.8,131.5z"/>
					
						<linearGradient id="路径_14666_1_" gradientUnits="userSpaceOnUse" x1="-651.336" y1="1517.8359" x2="-650.689" y2="1517.4199" gradientTransform="matrix(57.5452 0 0 -85.2894 37548.8164 129497.625)">
						<stop  offset="0" style="stop-color:#FF9085"/>
						<stop  offset="1" style="stop-color:#FB6FBB"/>
					</linearGradient>
					<path id="路径_14666" class="st72" d="M59.5,29.1c1.7-4.3,5.5-6.7,7.4-8c0.9-0.6,1.8-1.1,2.8-1.5c4.9-1.9,10.1-2.8,15.3-2.6
						c3,0.2,10.5,0.8,16.1,5.6c2.7,2.3,4.8,5.6,8,23.9c4.4,25.5,0.8,22.9,4.3,33.3c1.8,5.5,4.7,11.8,1.7,15.8
						c-1,1.3-2.4,1.7-5.2,2.9c-10.5,4.7-20,3.9-25.8,3.4c-6.3-0.6-9.5-1-11.2-3.2c-2.7-3.6,0.1-8.1,0.6-16c0.3-5.6-0.9-10.1-3.5-19
						C63.9,42.9,56.1,37.2,59.5,29.1z"/>
					
						<linearGradient id="路径_14667_1_" gradientUnits="userSpaceOnUse" x1="-630.989" y1="1147.1272" x2="-631.049" y2="1146.0022" gradientTransform="matrix(14.0381 0 0 -3.4409 8880.9004 4000.5554)">
						<stop  offset="0" style="stop-color:#FFC444"/>
						<stop  offset="0.996" style="stop-color:#F36F56"/>
					</linearGradient>
					<path id="路径_14667" class="st73" d="M29.7,54.5L23,53.2c-0.5-0.1-1-0.1-1.5,0l-5.8,1c2.2,0.9,4.6,1.2,7,1
						c3.2-0.5,6.7,1.3,6.7,1.3L29.7,54.5z"/>
					<g id="组_7614" transform="translate(70.133)">
						<g id="组_7613">
							
								<linearGradient id="路径_14668_1_" gradientUnits="userSpaceOnUse" x1="-704.0886" y1="1456.4331" x2="-702.9076" y2="1454.8851" gradientTransform="matrix(19.6694 0 0 -18.8734 13949.7393 27619.3242)">
								<stop  offset="0" style="stop-color:#FFC444"/>
								<stop  offset="0.996" style="stop-color:#F36F56"/>
							</linearGradient>
							<path id="路径_14668" class="st74" d="M4.2,12.3c-1.1-1.7,0.6-5,1.2-6.3c0,0,0.1-0.1,0.1-0.2c1-1.9,1.3-2.2,1.8-2.5
								l0.7-0.4l0.1,0c0.7-0.2,1.5-0.2,2.2-0.1c1,0.2,2,4.2,1.7,9.7c0,0.2,0.1,0.4,0.1,0.6c0.2,0.9,0.3,1.7,0.4,2.6
								c0.1,0.8,1.2,0.8,2,0.7c3.3-0.2,4.9,0.1,5,0.6c0.3,0.9-3.6,3.9-8.5,4.6c-6.5,0-11.7-0.6-11.2-1.7c0.3-0.5,5.3-1.8,6.7-3.1
								C7.6,16,8.1,14.8,8,13.5C7.3,13.6,5.1,13.6,4.2,12.3z"/>
							<path id="路径_14669" class="st46" d="M6.1,1.3C5.5,2.5,6.8,4.8,7.3,5.2c0.2,0.2,0.5,0.4,0.6,0.7C8,5.9,8,6,8,6
								c0.4,1.1-1.4,2.4-1,2.9c0.2,0.4,1.4-0.1,1.6,0.2c0.1,0.3-0.8,0.9-0.7,1.2c0.1,0.3,0.7,0,1.1,0.4c0.2,0.3,0.3,0.6,0.3,1
								c0,1.5-3.5,7.1-4.2,9.7c-0.8,2.7,0.6,5.2,5.6,12.3c7.2,10,10.7,15,12.7,16.4c9.7,7,21.2,6.1,25.9,5.4
								c5.6-0.9,17.3-2.7,21-11.7c4.3-10.3-4.2-24.4-12.9-26.8c-4-1.1-6.1,0.6-11.3-1.2c-5.7-2-5-5.5-10.3-7.6
								c-7.1-2.8-11.6,2.2-16.4-1.4c-2.6-2-2.2-4.1-5.4-5.7C10.9-0.5,6.8-0.2,6.1,1.3z"/>
							
								<linearGradient id="路径_14670_1_" gradientUnits="userSpaceOnUse" x1="-435.4931" y1="886.9694" x2="-421.1751" y2="873.1804" gradientTransform="matrix(1.8105 0 0 -2.3655 954.1891 2306.2488)">
								<stop  offset="0" style="stop-color:#FFC444"/>
								<stop  offset="0.996" style="stop-color:#F36F56"/>
							</linearGradient>
							<path id="路径_14670" class="st75" d="M7.6,8.5c0.4-0.6,1.2,0,1.2,0.7s-0.7,1.5-1.4,1.4S7.1,9.3,7.6,8.5z"/>
						</g>
					</g>
					
						<linearGradient id="路径_14671_1_" gradientUnits="userSpaceOnUse" x1="-650.5516" y1="1513.3636" x2="-649.7975" y2="1512.8267" gradientTransform="matrix(49.3987 0 0 -66.1379 32193.7383 100143.6406)">
						<stop  offset="0" style="stop-color:#FF9085"/>
						<stop  offset="1" style="stop-color:#FB6FBB"/>
					</linearGradient>
					<path id="路径_14671" class="st76" d="M89.4,94.4c-1.9-3.7,2.7-8.6-0.3-14.3c-2.5-4.8-7.1-3.7-9.2-8.1
						c-2.6-5.3,3-9.3,2.8-17.4c-0.2-9.7-8.5-19.3-13.4-18.5c-3.2,0.5-3.6,5.3-5.8,10.4c2.6,5.5,4.7,11.2,6.4,17
						c2.6,8.9,3.8,13.4,3.5,19c-0.5,7.9-3.2,12.4-0.6,16c1.7,2.2,4.9,2.6,11.2,3.2c5.7,0.6,15.2,1.4,25.8-3.4
						c1.3-0.6,2.3-1.1,3.1-1.5C96.4,99.5,90.9,97.4,89.4,94.4z"/>
					
						<linearGradient id="路径_14672_1_" gradientUnits="userSpaceOnUse" x1="-649.2289" y1="1503.1442" x2="-648.3139" y2="1502.2362" gradientTransform="matrix(46.1628 0 0 -44.3878 30029.3184 66770.0156)">
						<stop  offset="0" style="stop-color:#FF9085"/>
						<stop  offset="1" style="stop-color:#FB6FBB"/>
					</linearGradient>
					<path id="路径_14672" class="st77" d="M28,56.5c0.2-0.9,0.4-1.7,0.6-2.6c12.9,2.3,18.6-0.3,21.3-3.3
						c2.5-2.8,1.4-4.2,5.5-14.9c3.8-10.2,8.2-12.8,10.4-13.7c0.9-0.6,2-0.8,3.1-0.6c4.7,1.1,6.2,13.3,4.9,22.4
						c-0.7,5.1-2.2,15.2-10.4,19.9c-0.2,0.1-0.4,0.2-0.7,0.4c-1,0.6-5.2,2.5-13.3,1.1C39.7,63.4,30.4,57.9,28,56.5z"/>
				</g>
				<g id="组_7617" transform="translate(235.484 108.202)">
					<ellipse id="椭圆_1289" class="st38" cx="35.6" cy="101.2" rx="28.3" ry="11.5"/>
					<path id="路径_14673" class="st56" d="M63.9,99.9c0,6-12.7,10.9-28.3,10.9S7.3,105.9,7.3,99.9S20,84,35.6,84
						S63.9,93.8,63.9,99.9z"/>
					
						<linearGradient id="路径_14674_1_" gradientUnits="userSpaceOnUse" x1="-702.3424" y1="1418.9583" x2="-701.3424" y2="1418.9583" gradientTransform="matrix(47.5422 0 0 -21.219 33415.5586 30203.457)">
						<stop  offset="0" style="stop-color:#AA80F9"/>
						<stop  offset="0.996" style="stop-color:#6165D7"/>
					</linearGradient>
					<path id="路径_14674" class="st78" d="M63.9,99.9c0-6-12.7-15.9-28.3-15.9c-6.6,0-13.1,1.7-18.8,5c-0.3,0.7-0.5,1.4-0.4,2.2
						c0.3,3.4,5.8,5.5,9,6.2c8,1.7,11.9-3,18.5-2.9c4.1,0.1,9.7,2.2,16.4,10.8C62.6,103.6,63.9,101.8,63.9,99.9z"/>
					<path id="路径_14675" class="st56" d="M37.2,89.4c-1,0.3-2.1,0.3-3.2,0c-0.9-0.2-1.5-1.1-1.5-2V55.6h6.3v31.9
						C38.7,88.4,38.1,89.2,37.2,89.4z"/>
					
						<linearGradient id="路径_14676_1_" gradientUnits="userSpaceOnUse" x1="-650.0313" y1="1442.6128" x2="-649.0313" y2="1442.6128" gradientTransform="matrix(6.2913 0 0 -34.0806 4130.2705 49237.6797)">
						<stop  offset="0" style="stop-color:#AA80F9"/>
						<stop  offset="0.996" style="stop-color:#6165D7"/>
					</linearGradient>
					<path id="路径_14676" class="st79" d="M37.2,89.4c-1,0.3-2.1,0.3-3.2,0c-0.9-0.2-1.5-1.1-1.5-2V55.6h6.3v31.9
						C38.7,88.4,38.1,89.2,37.2,89.4z"/>
					<g id="组_7616">
						
							<linearGradient id="路径_14677_1_" gradientUnits="userSpaceOnUse" x1="-704.4209" y1="1459.1195" x2="-704.5759" y2="1459.3665" gradientTransform="matrix(74.6304 0 0 -60.7725 52640.4453 88743.1719)">
							<stop  offset="0" style="stop-color:#311944"/>
							<stop  offset="1" style="stop-color:#893976"/>
						</linearGradient>
						<path id="路径_14677" class="st80" d="M2.4,42.1l9.6-6.1c0.4-2.3,4.9-26,23.3-33.5c7.5-3,15.5-2.7,19.9-2.5
							C64.1,0.5,70.4,0.8,73.4,5c3.9,5.4-2.6,10.3-1.3,25.7c0.6,6.3,1.9,9.1,0.2,13.3c-2.1,5-6.9,7.8-10.7,9.3
							c-6.9,4-14.7,6.5-22.7,7.2c-12.3,1-24.6-2.1-34.9-8.8c-2-0.6-3.5-2.3-3.9-4.3C-0.3,45.4,0.6,43.3,2.4,42.1z"/>
					</g>
					<path id="路径_14678" class="st60" d="M6.8,46.5c0.4-2.1,6.3-0.4,11.9-4.5c8.4-6.3,4.1-16.8,11.4-27
						C36.8,5.6,50.4,0.8,54.6,4.4c5.6,4.7-8.1,22.4,0,33.8c3.9,5.5,9.9,5.3,10,8.5c0,5.1-14.9,11.1-29,10.8
						C20.3,57.3,6.2,49.9,6.8,46.5z"/>
				</g>
			</g>
			
				<linearGradient id="路径_14679_1_" gradientUnits="userSpaceOnUse" x1="-440.2126" y1="1652.5706" x2="-439.3456" y2="1650.5126" gradientTransform="matrix(103.825 0 0 -76.0368 45773.625 125669.5625)">
				<stop  offset="0" style="stop-color:#E38DDD"/>
				<stop  offset="4.000000e-03" style="stop-color:#3738C6"/>
				<stop  offset="1" style="stop-color:#9571F6"/>
			</linearGradient>
			<path id="路径_14679" class="st81" d="M137.7,74.6c4.6-5.5,7.2-12.5,7.3-19.7c0-20.7-22.8-37.2-51.2-36.8
				C65,18.5,41.2,36,41.2,57.3S65,95,93.8,94.1c10-0.3,19.9-2.8,28.8-7.4c5.4,0.7,13.7,2,18.1,2.6c0.9,0.2,1.8-0.5,2-1.4
				c0-0.3,0-0.6-0.1-0.8L137.7,74.6z"/>
			<g id="组_7623" transform="translate(169.393)">
				
					<linearGradient id="路径_14680_1_" gradientUnits="userSpaceOnUse" x1="-609.1643" y1="1653.8611" x2="-609.5673" y2="1652.399" gradientTransform="matrix(102.415 0 0 -82.0839 62454.6875 135750.1562)">
					<stop  offset="0" style="stop-color:#26B0E2"/>
					<stop  offset="1" style="stop-color:#3738C6"/>
				</linearGradient>
				<path id="路径_14680" class="st82" d="M8.1,64.7C2.9,58.6,0,50.9,0,42.9C0,19.3,24.5,0.1,53.5,0c27.6-0.1,48.9,17.5,48.9,39.1
					S81,79.9,53.5,81.9c-10,0.8-20.1-0.9-29.3-5c-5.7,1.4-14.6,3.7-19.4,4.9c-0.9,0.3-1.9-0.3-2.1-1.2c-0.1-0.4-0.1-0.8,0.1-1.1
					L8.1,64.7z"/>
			</g>
			<g id="组_7625" transform="translate(307.493 50.132)">
				
					<linearGradient id="路径_14690_1_" gradientUnits="userSpaceOnUse" x1="-744.2207" y1="1589.4929" x2="-742.6927" y2="1587.5659" gradientTransform="matrix(51.5242 0 0 -44.0005 38351.5781 69944.9844)">
					<stop  offset="0" style="stop-color:#4842CE"/>
					<stop  offset="0.996" style="stop-color:#F36F56"/>
					<stop  offset="1" style="stop-color:#F36F56"/>
				</linearGradient>
				<path id="路径_14690" class="st83" d="M3.9,35C1.4,31.8,0,27.8,0,23.6C0,11.2,12.1,0.6,26.5,0c14-0.6,25,8.4,25,20.2
					s-11,22.2-25,23.5c-5,0.5-10.1-0.3-14.6-2.5c-2.8,0.8-7.2,2-9.6,2.7c-0.5,0.1-0.9-0.2-1.1-0.6c0-0.2,0-0.4,0.1-0.6L3.9,35z"/>
				<g id="组_7624" transform="translate(10.563 16.381)">
					<path id="路径_14691" class="st56" d="M7.5,6.6c0.3,2.1-1.1,4-3.1,4.5c-2,0.4-3.9-0.9-4.3-2.9C0.1,8,0,7.9,0,7.8
						c-0.3-2.2,1.2-4.2,3.3-4.5C5.4,3,7.2,4.5,7.5,6.6C7.5,6.5,7.5,6.5,7.5,6.6z"/>
					<path id="路径_14692" class="st56" d="M20.1,4.4c0.3,1.7-0.7,3.4-2.4,3.9c-1.7,0.2-3.2-1-3.4-2.7c0-0.1,0-0.2,0-0.3
						c-0.3-1.8,0.8-3.5,2.6-3.9C18.6,1.4,20,2.7,20.1,4.4C20.1,4.4,20.1,4.4,20.1,4.4z"/>
					<path id="路径_14693" class="st56" d="M30.3,2.7c0.2,1.7-0.6,3.2-1.9,3.5c-1.3,0.3-2.6-0.9-2.8-2.7s0.7-3.3,2-3.5
						C28.9-0.2,30.1,1,30.3,2.7z"/>
				</g>
			</g>
			<g id="组_7626" transform="translate(67.598 47.933)">
				<path id="路径_14694" class="st56" d="M12.5,6.5c0,3.5-2.6,6.4-6.1,6.7C3.1,13.5,0.2,11,0,7.6C0,7.4,0,7.2,0,7
					c0-3.6,2.8-6.6,6.5-6.8c3.4,0,6.1,2.8,6.1,6.1C12.5,6.5,12.5,6.5,12.5,6.5z"/>
				<path id="路径_14695" class="st56" d="M33.8,5.7c0,3.1-2.1,5.8-4.8,5.9C26.3,11.8,24,9.4,24,6.1s2.3-5.9,5.1-6
					C31.7,0.1,33.8,2.6,33.8,5.7z"/>
				<path id="路径_14696" class="st56" d="M50.9,5c0,2.8-1.7,5.2-3.9,5.3c-2.2,0.2-4.1-2.1-4.1-5S44.8,0,47,0
					C49.2,0,50.9,2.2,50.9,5z"/>
			</g>
		</g>
		<text transform="matrix(1 0 0 1 1202.959 229.5821)" class="st56 st84 st85">&lt;/&gt;…</text>
	</g>
	<g id="组_7657" transform="translate(1002.584 346.627)">
		<path class="st86" d="M77,0c0-1.7,1.3-3,3-3l0,0c1.7,0,3,1.3,3,3l0,0c0,1.7-1.3,3-3,3l0,0C78.3,3,77,1.7,77,0z M57,0
			c0-1.7,1.3-3,3-3l0,0c1.7,0,3,1.3,3,3l0,0c0,1.7-1.3,3-3,3l0,0C58.3,3,57,1.7,57,0z M37,0c0-1.7,1.3-3,3-3l0,0c1.7,0,3,1.3,3,3
			l0,0c0,1.7-1.3,3-3,3l0,0C38.3,3,37,1.7,37,0z M17,0c0-1.7,1.3-3,3-3l0,0c1.7,0,3,1.3,3,3l0,0c0,1.7-1.3,3-3,3l0,0
			C18.3,3,17,1.7,17,0z M-3,0c0-1.7,1.3-3,3-3l0,0c1.7,0,3,1.3,3,3l0,0c0,1.7-1.3,3-3,3l0,0C-1.7,3-3,1.7-3,0z"/>
		<path class="st86" d="M77,19.3c0-1.7,1.3-3,3-3l0,0c1.7,0,3,1.3,3,3l0,0c0,1.7-1.3,3-3,3l0,0C78.3,22.3,77,21,77,19.3z M57,19.3
			c0-1.7,1.3-3,3-3l0,0c1.7,0,3,1.3,3,3l0,0c0,1.7-1.3,3-3,3l0,0C58.3,22.3,57,21,57,19.3z M37,19.3c0-1.7,1.3-3,3-3l0,0
			c1.7,0,3,1.3,3,3l0,0c0,1.7-1.3,3-3,3l0,0C38.3,22.3,37,21,37,19.3z M17,19.3c0-1.7,1.3-3,3-3l0,0c1.7,0,3,1.3,3,3l0,0
			c0,1.7-1.3,3-3,3l0,0C18.3,22.3,17,21,17,19.3z M-3,19.3c0-1.7,1.3-3,3-3l0,0c1.7,0,3,1.3,3,3l0,0c0,1.7-1.3,3-3,3l0,0
			C-1.7,22.3-3,21-3,19.3z"/>
		<path class="st86" d="M77,38.7c0-1.7,1.3-3,3-3l0,0c1.7,0,3,1.3,3,3l0,0c0,1.7-1.3,3-3,3l0,0C78.3,41.7,77,40.3,77,38.7z M57,38.7
			c0-1.7,1.3-3,3-3l0,0c1.7,0,3,1.3,3,3l0,0c0,1.7-1.3,3-3,3l0,0C58.3,41.7,57,40.3,57,38.7z M37,38.7c0-1.7,1.3-3,3-3l0,0
			c1.7,0,3,1.3,3,3l0,0c0,1.7-1.3,3-3,3l0,0C38.3,41.7,37,40.3,37,38.7z M17,38.7c0-1.7,1.3-3,3-3l0,0c1.7,0,3,1.3,3,3l0,0
			c0,1.7-1.3,3-3,3l0,0C18.3,41.7,17,40.3,17,38.7z M-3,38.7c0-1.7,1.3-3,3-3l0,0c1.7,0,3,1.3,3,3l0,0c0,1.7-1.3,3-3,3l0,0
			C-1.7,41.7-3,40.3-3,38.7z"/>
	</g>
</g>
</svg>
