<svg xmlns="http://www.w3.org/2000/svg" width="64" height="64" viewBox="0 0 64 64">
  <g id="组_7636" data-name="组 7636" transform="translate(-1177 -1537.998)">
    <g id="business24" transform="translate(1177 1537.998)">
      <g id="组_7630" data-name="组 7630" transform="translate(8.67 7.226)">
        <path id="路径_14700" data-name="路径 14700" d="M79.991,313.332H72.819a5.161,5.161,0,0,1,0-10.323h5.465l6.83-5.161v10.323A5.148,5.148,0,0,1,79.991,313.332Z" transform="translate(-67.696 -266.88)" fill="#27bbe0"/>
        <path id="路径_14701" data-name="路径 14701" d="M315.7,73.332V63.009a5.148,5.148,0,0,1,5.123-5.161h7.172a5.161,5.161,0,0,1,0,10.323h-5.465Z" transform="translate(-283.933 -57.848)" fill="#6c63ff"/>
      </g>
      <g id="组_7631" data-name="组 7631">
        <path id="路径_14702" data-name="路径 14702" d="M46.069,1.848A18,18,0,0,0,28.244,17.987a17.71,17.71,0,0,0-4.716-.655A18.019,18.019,0,0,0,5.6,35.4a17.425,17.425,0,0,0,.1,1.786L0,46.743,5.6,49v9.624h8.2v7.226H33.261V54.576A16.857,16.857,0,0,0,37.4,50.364H55.8V39.092C61.094,35.36,64,28.576,64,19.913A18.019,18.019,0,0,0,46.069,1.848Zm-20.531,28.4,4.813-8.083-.041-.351c-.037-.316-.064-.612-.083-.9A16.014,16.014,0,0,1,39.409,35.4a29.412,29.412,0,0,1-1.025,7.965V41.074h-8.2V32.117Zm6.141,22.918-.466.306V63.783H15.843V56.558h-8.2V47.6L3,45.727l4.813-8.083-.041-.351a16.188,16.188,0,0,1-.122-1.9,15.959,15.959,0,0,1,15.882-16,15.725,15.725,0,0,1,4.616.694c.006.507.034,1.035.092,1.608l-5.694,9.561,5.6,2.255v9.624h8.2V48.23A15,15,0,0,1,31.678,53.162ZM54.22,37.678l-.466.306V48.3H38.643a27.8,27.8,0,0,0,2.816-12.9A18.083,18.083,0,0,0,30.25,18.661a15.871,15.871,0,0,1,31.7,1.251C61.951,28.106,59.2,34.415,54.22,37.678Z" transform="translate(0 -1.848)" fill="#4d5152"/>
        <rect id="矩形_4562" data-name="矩形 4562" width="9.222" height="2.065" transform="translate(12.769 47.484)" fill="#4d5152"/>
        <rect id="矩形_4563" data-name="矩形 4563" width="9.222" height="2.065" transform="translate(44.532 11.355)" fill="#4d5152"/>
      </g>
    </g>
  </g>
</svg>
