<svg xmlns="http://www.w3.org/2000/svg" width="64" height="63.527" viewBox="0 0 64 63.527">
  <g id="组_7636" data-name="组 7636" transform="translate(-1177 -1537.998)">
    <g id="business24" transform="translate(1177 1536.15)">
      <g id="组_7630" data-name="组 7630" transform="translate(8.67 9.02)">
        <path id="路径_14700" data-name="路径 14700" d="M79.991,313.217H72.819a5.123,5.123,0,0,1,0-10.246h5.465l6.83-5.123v10.246A5.129,5.129,0,0,1,79.991,313.217Z" transform="translate(-67.696 -267.109)" fill="#f9746c"/>
        <path id="路径_14701" data-name="路径 14701" d="M315.7,73.217V62.971a5.129,5.129,0,0,1,5.123-5.123h7.172a5.123,5.123,0,0,1,0,10.246h-5.465Z" transform="translate(-283.933 -57.848)" fill="#6c63ff"/>
      </g>
      <g id="组_7631" data-name="组 7631" transform="translate(0 1.848)">
        <path id="路径_14702" data-name="路径 14702" d="M46.069,1.848a17.953,17.953,0,0,0-17.825,16.02A17.869,17.869,0,0,0,5.6,35.148a17.17,17.17,0,0,0,.1,1.773L0,46.411,5.6,48.65V58.2h8.2v7.172H33.261V54.186a16.792,16.792,0,0,0,4.139-4.18H55.8V38.816c5.291-3.7,8.2-10.438,8.2-19.037A17.952,17.952,0,0,0,46.069,1.848ZM25.538,30.033l4.813-8.023-.041-.348c-.037-.314-.064-.608-.083-.893a15.888,15.888,0,0,1,9.183,14.38,28.992,28.992,0,0,1-1.025,7.906V40.784h-8.2V31.893Zm6.141,22.749-.466.3v10.24H15.843V56.153h-8.2V47.262L3,45.4,7.809,37.38l-.041-.348A15.866,15.866,0,0,1,28.143,19.955c.006.5.034,1.028.092,1.6l-5.694,9.49,5.6,2.239v9.553h8.2v5.054A14.935,14.935,0,0,1,31.678,52.782ZM54.22,37.413l-.466.3v10.24H38.643a27.428,27.428,0,0,0,2.816-12.808A17.949,17.949,0,0,0,30.25,18.537a15.874,15.874,0,0,1,31.7,1.242C61.951,27.911,59.2,34.174,54.22,37.413Z" transform="translate(0 -1.848)" fill="#4d5152"/>
        <rect id="矩形_4562" data-name="矩形 4562" width="9.222" height="2.049" transform="translate(12.769 47.133)" fill="#4d5152"/>
        <rect id="矩形_4563" data-name="矩形 4563" width="9.222" height="2.049" transform="translate(44.532 11.271)" fill="#4d5152"/>
      </g>
    </g>
  </g>
</svg>
