<svg xmlns="http://www.w3.org/2000/svg" width="64" height="64.002" viewBox="0 0 64 64.002">
  <g id="组_7635" data-name="组 7635" transform="translate(-364 -1537.998)">
    <g id="组_7628" data-name="组 7628" transform="translate(369.162 1554.515)">
      <rect id="矩形_4554" data-name="矩形 4554" width="42.324" height="2.065" fill="#27bbe0"/>
      <rect id="矩形_4555" data-name="矩形 4555" width="42.324" height="2.065" transform="translate(0 5.161)" fill="#27bbe0"/>
      <rect id="矩形_4556" data-name="矩形 4556" width="42.324" height="2.065" transform="translate(0 10.323)" fill="#27bbe0"/>
      <rect id="矩形_4557" data-name="矩形 4557" width="42.324" height="2.065" transform="translate(0 15.484)" fill="#27bbe0"/>
      <path id="路径_14697" data-name="路径 14697" d="M230.576,369.475l1-6.966,4.351-2.51,4.129,4.129-2.51,4.351Z" transform="translate(-205.986 -330.064)" fill="#27bbe0"/>
    </g>
    <g id="组_7629" data-name="组 7629" transform="translate(364 1537.998)">
      <path id="路径_14698" data-name="路径 14698" d="M82.7,389.856l-4.406,4.406H56.008v2.065H79.751v-.6l4.406-4.406Z" transform="translate(-48.782 -339.55)" fill="#4d5152"/>
      <path id="路径_14699" data-name="路径 14699" d="M62.294,27.793l1.169-1.169a1.867,1.867,0,0,0,0-2.636L61.7,22.224a1.866,1.866,0,0,0-2.636,0l-6.407,6.409V9.291h8.258V5.678A5.685,5.685,0,0,0,55.236,0H5.686A5.685,5.685,0,0,0,.008,5.678V64H52.655V37.433l8.18-8.18.375.375a1.9,1.9,0,0,1,0,2.682l-5.155,5.155,1.46,1.46,5.155-5.155a3.965,3.965,0,0,0,0-5.6Zm-1.913-3.967,1.48,1.48-1.027,1.027-1.48-1.48ZM58.849,5.678V7.226H11.363V5.678a5.654,5.654,0,0,0-1.3-3.613H55.236A3.617,3.617,0,0,1,58.849,5.678ZM50.59,61.937H2.073V5.678a3.613,3.613,0,1,1,7.226,0V9.291H50.59V30.7L34.663,46.625l4.4,4.4L50.59,39.5ZM39.063,45.145l1.48,1.48-1.48,1.48-1.48-1.48Zm2.94.02-1.48-1.48L57.895,26.313l1.48,1.48Z" transform="translate(-0.008)" fill="#4d5152"/>
      <rect id="矩形_4558" data-name="矩形 4558" width="42.324" height="2.065" transform="translate(5.161 14.452)" fill="#4d5152"/>
      <rect id="矩形_4559" data-name="矩形 4559" width="42.324" height="2.065" transform="translate(5.161 19.614)" fill="#4d5152"/>
      <rect id="矩形_4560" data-name="矩形 4560" width="42.324" height="2.065" transform="translate(5.161 24.775)" fill="#4d5152"/>
      <rect id="矩形_4561" data-name="矩形 4561" width="42.324" height="2.065" transform="translate(5.161 29.936)" fill="#4d5152"/>
    </g>
  </g>
</svg>
