<?xml version="1.0" encoding="utf-8"?>
<!-- Generator: Adobe Illustrator 25.1.0, SVG Export Plug-In . SVG Version: 6.00 Build 0)  -->
<svg version="1.1" id="图层_1" xmlns="http://www.w3.org/2000/svg" xmlns:xlink="http://www.w3.org/1999/xlink" x="0px" y="0px"
	 viewBox="0 0 340 407" style="enable-background:new 0 0 340 407;" xml:space="preserve">
<style type="text/css">
	.st0{fill:#F2F7FB;}
	.st1{fill:none;stroke:#D9D9D9;}
	.st2{enable-background:new    ;}
	.st3{fill:#2C2C2C;}
	.st4{fill:#F4F4F4;}
	.st5{fill:none;stroke:#2C2C2C;}
	.st6{fill:#E7E7F8;}
</style>
<g id="组_7710" transform="translate(-1022 -1994)">
	<g id="矩形_4626" transform="translate(1022 2281)">
		<rect class="st0" width="135" height="48"/>
		<rect x="0.5" y="0.5" class="st1" width="134" height="47"/>
	</g>
	<g class="st2">
		<path class="st3" d="M1069.7,2301v9h5.8v1h-6.9v-10H1069.7z"/>
		<path class="st3" d="M1082.3,2304.7c0.5,0.7,0.8,1.7,0.8,3h-5.7c0.1,0.8,0.3,1.4,0.7,1.9c0.4,0.4,0.9,0.7,1.6,0.7
			c0.6,0,1.1-0.2,1.4-0.4c0.3-0.3,0.5-0.6,0.7-1.1h1.1c-0.2,0.7-0.5,1.3-1,1.7c-0.6,0.5-1.4,0.8-2.3,0.8c-1,0-1.9-0.4-2.5-1
			c-0.6-0.7-1-1.6-1-2.8c0-1.1,0.3-2,0.9-2.7c0.6-0.8,1.4-1.1,2.5-1.1C1080.8,2303.6,1081.7,2304,1082.3,2304.7z M1078.1,2305.1
			c-0.4,0.4-0.6,1-0.7,1.7h4.5c-0.1-1.6-0.9-2.3-2.3-2.3C1079,2304.5,1078.5,2304.7,1078.1,2305.1z"/>
		<path class="st3" d="M1089.9,2304.4c0.4,0.5,0.6,1.1,0.6,2v4.7h-1.1v-1.2c-0.3,0.4-0.7,0.7-1.1,1c-0.5,0.3-1.1,0.4-1.8,0.4
			c-0.7,0-1.3-0.2-1.7-0.5c-0.4-0.4-0.7-0.9-0.7-1.5c0-0.8,0.3-1.4,1-1.9c0.6-0.4,1.4-0.6,2.5-0.6l1.7,0v-0.4c0-1.2-0.6-1.8-1.9-1.8
			c-0.5,0-1,0.1-1.3,0.3c-0.4,0.2-0.6,0.6-0.7,1l-1.1-0.1c0.2-0.8,0.5-1.3,1.1-1.7c0.5-0.3,1.2-0.5,2.1-0.5
			C1088.6,2303.6,1089.4,2303.8,1089.9,2304.4z M1087.7,2307.6c-1.6,0-2.4,0.6-2.4,1.6c0,0.3,0.1,0.6,0.4,0.8
			c0.3,0.2,0.6,0.3,1.1,0.3c0.7,0,1.3-0.2,1.8-0.7c0.5-0.4,0.8-0.9,0.8-1.5v-0.6L1087.7,2307.6z"/>
		<path class="st3" d="M1098.7,2300.8v10.2h-1.1v-1.2c-0.5,0.9-1.3,1.4-2.4,1.4c-1.1,0-1.9-0.4-2.5-1.1c-0.5-0.7-0.8-1.6-0.8-2.7
			c0-1.1,0.3-1.9,0.8-2.6c0.6-0.8,1.4-1.2,2.4-1.2s1.8,0.5,2.4,1.5v-4.3H1098.7z M1093.6,2305.3c-0.4,0.5-0.5,1.2-0.5,2
			c0,0.9,0.2,1.6,0.5,2.1c0.4,0.6,1,0.9,1.8,0.9c0.7,0,1.3-0.3,1.7-0.8c0.4-0.5,0.5-1.2,0.5-2v-0.1c0-0.8-0.2-1.5-0.6-2
			c-0.4-0.5-0.9-0.8-1.6-0.8C1094.6,2304.5,1094,2304.8,1093.6,2305.3z"/>
		<path class="st3" d="M1106.1,2304.7c0.5,0.7,0.8,1.7,0.8,3h-5.7c0.1,0.8,0.3,1.4,0.7,1.9c0.4,0.4,0.9,0.7,1.6,0.7
			c0.6,0,1.1-0.2,1.4-0.4c0.3-0.3,0.5-0.6,0.7-1.1h1.1c-0.2,0.7-0.5,1.3-1,1.7c-0.6,0.5-1.4,0.8-2.3,0.8c-1,0-1.9-0.4-2.5-1
			c-0.6-0.7-1-1.6-1-2.8c0-1.1,0.3-2,0.9-2.7c0.6-0.8,1.4-1.1,2.5-1.1C1104.6,2303.6,1105.5,2304,1106.1,2304.7z M1101.9,2305.1
			c-0.4,0.4-0.6,1-0.7,1.7h4.5c-0.1-1.6-0.9-2.3-2.3-2.3C1102.8,2304.5,1102.3,2304.7,1101.9,2305.1z"/>
		<path class="st3" d="M1112.4,2303.7v1.1c-0.4-0.1-0.7-0.2-1.1-0.2c-0.6,0-1,0.2-1.4,0.7c-0.4,0.5-0.6,1-0.6,1.7v3.8h-1.1v-7.2h1.1
			v1.3c0.2-0.4,0.4-0.8,0.8-1c0.4-0.3,0.8-0.5,1.3-0.5C1111.8,2303.6,1112.1,2303.6,1112.4,2303.7z"/>
	</g>
	<g id="矩形_4628" transform="translate(1022 2210)">
		<rect class="st0" width="135" height="48"/>
		<rect x="0.5" y="0.5" class="st1" width="134" height="47"/>
	</g>
	<g class="st2">
		<path class="st3" d="M1062.2,2230.7c0.8,0.6,1.2,1.4,1.3,2.4h-1.1c-0.1-0.7-0.5-1.3-1.1-1.7c-0.5-0.4-1.2-0.6-2-0.6
			c-1.2,0-2.1,0.4-2.7,1.2c-0.6,0.8-0.9,1.8-0.9,3c0,1.2,0.3,2.2,0.9,3c0.6,0.8,1.5,1.2,2.7,1.2c0.8,0,1.5-0.2,2-0.6
			c0.6-0.4,1-1.1,1.2-2h1.1c-0.2,1.2-0.7,2.1-1.6,2.7c-0.8,0.6-1.7,0.9-2.8,0.9c-1.6,0-2.7-0.5-3.6-1.5c-0.8-0.9-1.1-2.1-1.1-3.6
			c0-1.5,0.4-2.7,1.1-3.7c0.8-1.1,2-1.6,3.6-1.6C1060.5,2229.8,1061.5,2230.1,1062.2,2230.7z"/>
		<path class="st3" d="M1071,2233.7c0.6,0.7,0.9,1.6,0.9,2.7c0,1.1-0.3,2-0.9,2.7c-0.7,0.8-1.5,1.1-2.6,1.1c-1.1,0-1.9-0.4-2.6-1.1
			c-0.6-0.7-0.9-1.6-0.9-2.7c0-1.1,0.3-2,0.9-2.7c0.6-0.8,1.5-1.1,2.6-1.1C1069.5,2232.6,1070.4,2232.9,1071,2233.7z M1066.6,2234.4
			c-0.4,0.5-0.6,1.2-0.6,2c0,0.8,0.2,1.5,0.6,2c0.4,0.6,1,0.9,1.8,0.9c0.8,0,1.4-0.3,1.8-0.9c0.4-0.5,0.6-1.2,0.6-2
			c0-0.8-0.2-1.5-0.6-2c-0.4-0.6-1.1-0.9-1.8-0.9C1067.6,2233.5,1067,2233.8,1066.6,2234.4z"/>
		<path class="st3" d="M1080.3,2235.9v1h-7.1v-1H1080.3z"/>
		<path class="st3" d="M1083.1,2230v9h5.8v1h-6.9v-10H1083.1z"/>
		<path class="st3" d="M1095.7,2233.7c0.5,0.7,0.8,1.7,0.8,3h-5.7c0.1,0.8,0.3,1.4,0.7,1.9c0.4,0.4,0.9,0.7,1.6,0.7
			c0.6,0,1.1-0.2,1.4-0.4c0.3-0.3,0.5-0.6,0.7-1.1h1.1c-0.2,0.7-0.5,1.3-1,1.7c-0.6,0.5-1.4,0.8-2.3,0.8c-1,0-1.9-0.4-2.5-1
			c-0.6-0.7-1-1.6-1-2.8c0-1.1,0.3-2,0.9-2.7c0.6-0.8,1.4-1.1,2.5-1.1C1094.2,2232.6,1095.1,2233,1095.7,2233.7z M1091.5,2234.1
			c-0.4,0.4-0.6,1-0.7,1.7h4.5c-0.1-1.6-0.9-2.3-2.3-2.3C1092.4,2233.5,1091.9,2233.7,1091.5,2234.1z"/>
		<path class="st3" d="M1103.3,2233.4c0.4,0.5,0.6,1.1,0.6,2v4.7h-1.1v-1.2c-0.3,0.4-0.7,0.7-1.1,1c-0.5,0.3-1.1,0.4-1.8,0.4
			c-0.7,0-1.3-0.2-1.7-0.5c-0.4-0.4-0.7-0.9-0.7-1.5c0-0.8,0.3-1.4,1-1.9c0.6-0.4,1.4-0.6,2.5-0.6l1.7,0v-0.4c0-1.2-0.6-1.8-1.9-1.8
			c-0.5,0-1,0.1-1.3,0.3c-0.4,0.2-0.6,0.6-0.7,1l-1.1-0.1c0.2-0.8,0.5-1.3,1.1-1.7c0.5-0.3,1.2-0.5,2.1-0.5
			C1102,2232.6,1102.8,2232.8,1103.3,2233.4z M1101.2,2236.6c-1.6,0-2.4,0.6-2.4,1.6c0,0.3,0.1,0.6,0.4,0.8c0.3,0.2,0.6,0.3,1.1,0.3
			c0.7,0,1.3-0.2,1.8-0.7c0.5-0.4,0.8-0.9,0.8-1.5v-0.6L1101.2,2236.6z"/>
		<path class="st3" d="M1112.1,2229.8v10.2h-1.1v-1.2c-0.5,0.9-1.3,1.4-2.4,1.4c-1.1,0-1.9-0.4-2.5-1.1c-0.5-0.7-0.8-1.6-0.8-2.7
			c0-1.1,0.3-1.9,0.8-2.6c0.6-0.8,1.4-1.2,2.4-1.2s1.8,0.5,2.4,1.5v-4.3H1112.1z M1107.1,2234.3c-0.4,0.5-0.5,1.2-0.5,2
			c0,0.9,0.2,1.6,0.5,2.1c0.4,0.6,1,0.9,1.8,0.9c0.7,0,1.3-0.3,1.7-0.8c0.4-0.5,0.5-1.2,0.5-2v-0.1c0-0.8-0.2-1.5-0.6-2
			c-0.4-0.5-0.9-0.8-1.6-0.8C1108.1,2233.5,1107.5,2233.8,1107.1,2234.3z"/>
		<path class="st3" d="M1119.5,2233.7c0.5,0.7,0.8,1.7,0.8,3h-5.7c0.1,0.8,0.3,1.4,0.7,1.9c0.4,0.4,0.9,0.7,1.6,0.7
			c0.6,0,1.1-0.2,1.4-0.4c0.3-0.3,0.5-0.6,0.7-1.1h1.1c-0.2,0.7-0.5,1.3-1,1.7c-0.6,0.5-1.4,0.8-2.3,0.8c-1,0-1.9-0.4-2.5-1
			c-0.6-0.7-1-1.6-1-2.8c0-1.1,0.3-2,0.9-2.7c0.6-0.8,1.4-1.1,2.5-1.1C1118,2232.6,1118.9,2233,1119.5,2233.7z M1115.3,2234.1
			c-0.4,0.4-0.6,1-0.7,1.7h4.5c-0.1-1.6-0.9-2.3-2.3-2.3C1116.2,2233.5,1115.7,2233.7,1115.3,2234.1z"/>
		<path class="st3" d="M1125.8,2232.7v1.1c-0.4-0.1-0.7-0.2-1.1-0.2c-0.6,0-1,0.2-1.4,0.7c-0.4,0.5-0.6,1-0.6,1.7v3.8h-1.1v-7.2h1.1
			v1.3c0.2-0.4,0.4-0.8,0.8-1c0.4-0.3,0.8-0.5,1.3-0.5C1125.2,2232.6,1125.6,2232.6,1125.8,2232.7z"/>
	</g>
	<g id="矩形_4632" transform="translate(1022 2353)">
		<rect class="st0" width="135" height="48"/>
		<rect x="0.5" y="0.5" class="st1" width="134" height="47"/>
	</g>
	<g class="st2">
		<path class="st3" d="M1082.8,2373v1h-3.5v9h-1.1v-9h-3.5v-1H1082.8z"/>
		<path class="st3" d="M1085.5,2373l3.7,8.5h0l3.7-8.5h1.4v10h-1.1v-8h0l-3.5,8h-1l-3.5-8h0v8h-1.1v-10H1085.5z"/>
		<path class="st3" d="M1103.5,2373.7c0.8,0.6,1.2,1.4,1.3,2.4h-1.1c-0.1-0.7-0.5-1.3-1.1-1.7c-0.5-0.4-1.2-0.6-2-0.6
			c-1.2,0-2.1,0.4-2.7,1.2c-0.6,0.8-0.9,1.8-0.9,3c0,1.2,0.3,2.2,0.9,3c0.6,0.8,1.5,1.2,2.7,1.2c0.8,0,1.5-0.2,2-0.6
			c0.6-0.4,1-1.1,1.2-2h1.1c-0.2,1.2-0.7,2.1-1.6,2.7c-0.8,0.6-1.7,0.9-2.8,0.9c-1.6,0-2.7-0.5-3.6-1.5c-0.8-0.9-1.1-2.1-1.1-3.6
			c0-1.5,0.4-2.7,1.1-3.7c0.8-1.1,2-1.6,3.6-1.6C1101.8,2372.8,1102.8,2373.1,1103.5,2373.7z"/>
	</g>
	<g id="矩形_4625" transform="translate(1123 1994)">
		<rect class="st4" width="135" height="48"/>
		<rect x="0.5" y="0.5" class="st1" width="134" height="47"/>
	</g>
	<g class="st2">
		<path class="st3" d="M1154.4,2013v1h-3.5v9h-1.1v-9h-3.5v-1H1154.4z"/>
		<path class="st3" d="M1156.8,2013v6.2c0,1,0.2,1.7,0.7,2.2c0.5,0.5,1.2,0.8,2.2,0.8c1,0,1.7-0.3,2.2-0.8c0.4-0.5,0.7-1.2,0.7-2.2
			v-6.2h1.1v6.2c0,1.3-0.3,2.3-1,3c-0.7,0.7-1.7,1.1-3,1.1c-1.3,0-2.3-0.4-3-1c-0.7-0.7-1-1.7-1-3v-6.2H1156.8z"/>
		<path class="st3" d="M1172.9,2013.7c0.7,0.6,1.1,1.4,1.3,2.5h-1.1c-0.2-0.8-0.5-1.3-1-1.7c-0.5-0.4-1.3-0.6-2.1-0.6
			c-1.1,0-1.9,0.4-2.6,1.1c-0.6,0.8-1,1.8-1,3.1c0,1.3,0.3,2.3,0.9,3c0.7,0.8,1.6,1.2,2.9,1.2c0.5,0,1.1-0.1,1.6-0.2
			c0.5-0.1,0.9-0.3,1.3-0.6v-2.5h-3.1v-1h4.3v4.1c-0.5,0.4-1.1,0.7-1.8,0.9c-0.7,0.2-1.5,0.3-2.3,0.3c-1.6,0-2.8-0.5-3.7-1.5
			c-0.8-0.9-1.2-2.2-1.2-3.6c0-1.5,0.4-2.7,1.2-3.7c0.9-1.1,2-1.6,3.5-1.6C1171.2,2012.8,1172.2,2013.1,1172.9,2013.7z"/>
		<path class="st3" d="M1181.2,2014v-0.9h3c-0.2-0.5-0.5-0.9-0.7-1.3l1.1-0.2c0.3,0.4,0.5,1,0.7,1.5h2.9c0.3-0.5,0.6-1.1,0.9-1.6
			l1,0.3c-0.2,0.5-0.5,0.9-0.8,1.3h3.2v0.9h-3.8v2.7h4.3v1h-12.3v-1h4.3v-2.7H1181.2z M1183.9,2016.2l-0.9,0.4
			c-0.3-0.7-0.6-1.4-1-1.9l0.9-0.3C1183.3,2015,1183.6,2015.6,1183.9,2016.2z M1191.1,2024.4h-1v-0.7h-6.6v0.7h-1v-5.7h8.6V2024.4z
			 M1190.1,2020.8v-1.3h-6.6v1.3H1190.1z M1190.1,2022.9v-1.2h-6.6v1.2H1190.1z M1185.9,2014v2.7h1.7v-2.7H1185.9z M1191.7,2014.8
			c-0.3,0.6-0.7,1.3-1.2,1.8l-0.8-0.4c0.5-0.6,0.9-1.2,1.2-1.8L1191.7,2014.8z"/>
		<path class="st3" d="M1201.2,2024.1c-0.9,0-1.7-0.1-2.2-0.3c-0.6-0.2-1.1-0.5-1.5-1c-0.2-0.2-0.4-0.3-0.5-0.3
			c-0.3,0-0.9,0.6-1.7,1.9l-0.8-0.7c0.7-1.2,1.4-1.9,2-2.1v-4.3h-2v-0.9h2.9v5.2c0.1,0.1,0.2,0.2,0.4,0.3c0.3,0.4,0.7,0.7,1.1,0.9
			c0.4,0.2,1.1,0.3,1.9,0.3c0.7,0,1.7,0,2.8,0c0.6,0,1.3,0,2,0c0.7,0,1.2,0,1.6-0.1l-0.2,1h-3.2
			C1203,2024.1,1202.1,2024.1,1201.2,2024.1z M1198,2014l-0.7,0.7c-0.6-0.7-1.4-1.4-2.4-2.2l0.7-0.7
			C1196.5,2012.5,1197.3,2013.2,1198,2014z M1202.9,2014.2c0.7-0.4,1.4-0.8,2-1.3h-6.2v-0.9h7.6v0.7c-0.8,0.7-1.8,1.4-2.7,1.9
			l0.2,0.2h2.8v6.3c0,0.7-0.4,1.1-1.2,1.1h-1.2l-0.2-0.9l1.1,0c0.3,0,0.5-0.2,0.5-0.5v-1h-2.4v2.4h-0.9v-2.4h-2.3v2.5h-1v-7.5h3.5
			c-0.5-0.4-1.1-0.8-1.8-1.1l0.6-0.6C1201.8,2013.5,1202.4,2013.8,1202.9,2014.2z M1202.3,2015.7h-2.3v1.3h2.3V2015.7z M1199.9,2019
			h2.3v-1.2h-2.3V2019z M1205.5,2015.7h-2.4v1.3h2.4V2015.7z M1203.2,2019h2.4v-1.2h-2.4V2019z"/>
		<path class="st3" d="M1215.2,2011.6c1.8,2,3.8,3.6,6.1,4.7l-0.5,1c-2.3-1.2-4.3-2.8-6-4.8c-1.5,1.8-3.5,3.4-6,4.8l-0.5-1
			c2.5-1.3,4.5-2.8,6.2-4.7H1215.2z M1220.4,2018.7v1h-6.6c-0.7,1.3-1.5,2.5-2.4,3.5c2.3-0.1,4.5-0.3,6.5-0.6
			c-0.5-0.6-1-1.3-1.6-1.9l0.8-0.5c1.3,1.4,2.3,2.7,2.9,3.7l-0.8,0.6c-0.2-0.4-0.5-0.8-0.8-1.1c-2.2,0.3-4.9,0.6-8.3,0.8l-0.3-0.9
			c0.3-0.1,0.4-0.2,0.5-0.3c0.9-1,1.7-2.1,2.3-3.3h-3.5v-1H1220.4z M1218.3,2015.9v1h-6.9v-1H1218.3z"/>
		<path class="st3" d="M1229.4,2018.6c-0.2,2.1-0.6,3.4-1.3,4.2c-0.7,0.9-2.4,1.4-5,1.7l-0.4-0.9c2.3-0.1,3.8-0.6,4.5-1.4
			c0.6-0.7,1-1.9,1.1-3.7L1229.4,2018.6z M1233.5,2021.9h-1v-4.3h-7.4v4.5h-1v-5.4h9.4V2021.9z M1232.7,2012.1v3.5h-7.7v-3.5H1232.7
			z M1231.7,2013h-5.8v1.7h5.8V2013z M1234.8,2023.6l-0.5,0.8c-1.6-0.8-3.3-1.5-5-2l0.5-0.8
			C1231.6,2022.2,1233.3,2022.9,1234.8,2023.6z"/>
	</g>
	<g id="矩形_4627" transform="translate(1123 2066)">
		<rect class="st4" width="135" height="48"/>
		<rect x="0.5" y="0.5" class="st1" width="134" height="47"/>
	</g>
	<g class="st2">
		<path class="st3" d="M1155.9,2084l3.9,10h-1.2l-1.1-2.8h-4.6l-1.1,2.8h-1.2l3.9-10H1155.9z M1157.2,2090.2l-1.9-5h-0.1l-1.9,5
			H1157.2z"/>
		<path class="st3" d="M1166.2,2087.9c0.3-0.5,0.6-0.8,1-1c0.4-0.2,0.8-0.3,1.3-0.3c0.8,0,1.4,0.2,1.8,0.7c0.4,0.5,0.7,1.1,0.7,2
			v4.7h-1.1v-4.6c0-0.6-0.1-1.1-0.4-1.4c-0.3-0.3-0.7-0.5-1.3-0.5c-0.5,0-0.9,0.2-1.2,0.5c-0.3,0.4-0.5,0.8-0.5,1.4v4.5h-1.1v-4.6
			c0-1.3-0.6-1.9-1.7-1.9c-0.5,0-0.9,0.2-1.3,0.6c-0.3,0.4-0.5,0.9-0.5,1.5v4.4h-1.1v-7.2h1.1v1c0.5-0.8,1.2-1.2,2-1.2
			C1165,2086.6,1165.8,2087,1166.2,2087.9z"/>
		<path class="st3" d="M1173.8,2083.8v4.3c0.6-1,1.4-1.5,2.4-1.5c1,0,1.8,0.4,2.4,1.2c0.5,0.7,0.8,1.6,0.8,2.6c0,1.1-0.3,2-0.8,2.7
			c-0.6,0.8-1.4,1.1-2.5,1.1c-1.1,0-1.9-0.5-2.4-1.4v1.2h-1.1v-10.2H1173.8z M1174.4,2088.3c-0.4,0.5-0.6,1.2-0.6,2v0.1
			c0,0.8,0.2,1.5,0.5,2c0.4,0.6,1,0.8,1.7,0.8c0.8,0,1.4-0.3,1.8-0.9c0.3-0.5,0.5-1.2,0.5-2.1c0-0.9-0.2-1.5-0.5-2
			c-0.4-0.6-1-0.8-1.8-0.8C1175.3,2087.5,1174.8,2087.7,1174.4,2088.3z"/>
		<path class="st3" d="M1186.3,2087.4c0.4,0.5,0.6,1.1,0.6,2v4.7h-1.1v-1.2c-0.3,0.4-0.7,0.7-1.1,1c-0.5,0.3-1.1,0.4-1.8,0.4
			c-0.7,0-1.3-0.2-1.7-0.5c-0.4-0.4-0.7-0.9-0.7-1.5c0-0.8,0.3-1.4,1-1.9c0.6-0.4,1.4-0.6,2.5-0.6l1.7,0v-0.4c0-1.2-0.6-1.8-1.9-1.8
			c-0.5,0-1,0.1-1.3,0.3c-0.4,0.2-0.6,0.6-0.7,1l-1.1-0.1c0.2-0.8,0.5-1.3,1.1-1.7c0.5-0.3,1.2-0.5,2.1-0.5
			C1185.1,2086.6,1185.8,2086.8,1186.3,2087.4z M1184.2,2090.6c-1.6,0-2.4,0.6-2.4,1.6c0,0.3,0.1,0.6,0.4,0.8
			c0.3,0.2,0.6,0.3,1.1,0.3c0.7,0,1.3-0.2,1.8-0.7c0.5-0.4,0.8-0.9,0.8-1.5v-0.6L1184.2,2090.6z"/>
		<path class="st3" d="M1194.3,2088.8h-1.1c-0.1-0.4-0.3-0.8-0.6-1c-0.3-0.2-0.8-0.3-1.3-0.3c-0.5,0-0.9,0.1-1.2,0.3
			c-0.3,0.2-0.5,0.4-0.5,0.8c0,0.3,0.2,0.6,0.6,0.8c0.3,0.1,0.8,0.3,1.5,0.5c0.9,0.2,1.5,0.4,1.9,0.7c0.6,0.4,0.9,0.9,0.9,1.5
			c0,1.5-1,2.2-3.1,2.2c-1.9,0-2.9-0.8-3.1-2.5h1.1c0.1,0.6,0.3,1,0.6,1.2c0.3,0.2,0.8,0.3,1.4,0.3c1.3,0,1.9-0.4,1.9-1.2
			c0-0.4-0.2-0.7-0.7-0.9c-0.2-0.1-0.8-0.3-1.5-0.5c-0.9-0.2-1.5-0.4-1.8-0.6c-0.6-0.3-0.8-0.8-0.8-1.4s0.3-1.1,0.8-1.5
			c0.5-0.4,1.2-0.5,2-0.5C1193.1,2086.6,1194.1,2087.3,1194.3,2088.8z"/>
		<path class="st3" d="M1201.3,2088.8h-1.1c-0.1-0.4-0.3-0.8-0.6-1c-0.3-0.2-0.8-0.3-1.3-0.3c-0.5,0-0.9,0.1-1.2,0.3
			c-0.3,0.2-0.5,0.4-0.5,0.8c0,0.3,0.2,0.6,0.6,0.8c0.3,0.1,0.8,0.3,1.5,0.5c0.9,0.2,1.5,0.4,1.9,0.7c0.6,0.4,0.9,0.9,0.9,1.5
			c0,1.5-1,2.2-3.1,2.2c-1.9,0-2.9-0.8-3.1-2.5h1.1c0.1,0.6,0.3,1,0.6,1.2c0.3,0.2,0.8,0.3,1.4,0.3c1.3,0,1.9-0.4,1.9-1.2
			c0-0.4-0.2-0.7-0.7-0.9c-0.2-0.1-0.8-0.3-1.5-0.5c-0.9-0.2-1.5-0.4-1.8-0.6c-0.6-0.3-0.8-0.8-0.8-1.4s0.3-1.1,0.8-1.5
			c0.5-0.4,1.2-0.5,2-0.5C1200.2,2086.6,1201.1,2087.3,1201.3,2088.8z"/>
		<path class="st3" d="M1208.3,2087.4c0.4,0.5,0.6,1.1,0.6,2v4.7h-1.1v-1.2c-0.3,0.4-0.7,0.7-1.1,1c-0.5,0.3-1.1,0.4-1.8,0.4
			c-0.7,0-1.3-0.2-1.7-0.5c-0.4-0.4-0.7-0.9-0.7-1.5c0-0.8,0.3-1.4,1-1.9c0.6-0.4,1.4-0.6,2.5-0.6l1.7,0v-0.4c0-1.2-0.6-1.8-1.9-1.8
			c-0.5,0-1,0.1-1.3,0.3c-0.4,0.2-0.6,0.6-0.7,1l-1.1-0.1c0.2-0.8,0.5-1.3,1.1-1.7c0.5-0.3,1.2-0.5,2.1-0.5
			C1207.1,2086.6,1207.8,2086.8,1208.3,2087.4z M1206.2,2090.6c-1.6,0-2.4,0.6-2.4,1.6c0,0.3,0.1,0.6,0.4,0.8
			c0.3,0.2,0.6,0.3,1.1,0.3c0.7,0,1.3-0.2,1.8-0.7c0.5-0.4,0.8-0.9,0.8-1.5v-0.6L1206.2,2090.6z"/>
		<path class="st3" d="M1217.2,2083.8v10.2h-1.1v-1.2c-0.5,0.9-1.3,1.4-2.4,1.4c-1.1,0-1.9-0.4-2.5-1.1c-0.5-0.7-0.8-1.6-0.8-2.7
			c0-1.1,0.3-1.9,0.8-2.6c0.6-0.8,1.4-1.2,2.4-1.2c1,0,1.8,0.5,2.4,1.5v-4.3H1217.2z M1212.1,2088.3c-0.4,0.5-0.5,1.2-0.5,2
			c0,0.9,0.2,1.6,0.5,2.1c0.4,0.6,1,0.9,1.8,0.9c0.7,0,1.3-0.3,1.7-0.8c0.4-0.5,0.5-1.2,0.5-2v-0.1c0-0.8-0.2-1.5-0.6-2
			c-0.4-0.5-0.9-0.8-1.6-0.8C1213.1,2087.5,1212.5,2087.8,1212.1,2088.3z"/>
		<path class="st3" d="M1224.7,2087.7c0.6,0.7,0.9,1.6,0.9,2.7c0,1.1-0.3,2-0.9,2.7c-0.7,0.8-1.5,1.1-2.6,1.1
			c-1.1,0-1.9-0.4-2.6-1.1c-0.6-0.7-0.9-1.6-0.9-2.7c0-1.1,0.3-2,0.9-2.7c0.6-0.8,1.5-1.1,2.6-1.1
			C1223.2,2086.6,1224.1,2086.9,1224.7,2087.7z M1220.3,2088.4c-0.4,0.5-0.6,1.2-0.6,2c0,0.8,0.2,1.5,0.6,2c0.4,0.6,1,0.9,1.8,0.9
			c0.8,0,1.4-0.3,1.8-0.9c0.4-0.5,0.6-1.2,0.6-2c0-0.8-0.2-1.5-0.6-2c-0.4-0.6-1.1-0.9-1.8-0.9
			C1221.4,2087.5,1220.8,2087.8,1220.3,2088.4z"/>
		<path class="st3" d="M1231.3,2086.7v1.1c-0.4-0.1-0.7-0.2-1.1-0.2c-0.6,0-1,0.2-1.4,0.7c-0.4,0.5-0.6,1-0.6,1.7v3.8h-1.1v-7.2h1.1
			v1.3c0.2-0.4,0.4-0.8,0.8-1c0.4-0.3,0.8-0.5,1.3-0.5C1230.7,2086.6,1231,2086.6,1231.3,2086.7z"/>
	</g>
	<g id="矩形_4630" transform="translate(1123 2137)">
		<rect class="st4" width="135" height="48"/>
		<rect x="0.5" y="0.5" class="st1" width="134" height="47"/>
	</g>
	<g class="st2">
		<path class="st3" d="M1176.3,2145l3.9,10h-1.2l-1.1-2.8h-4.6l-1.1,2.8h-1.2l3.9-10H1176.3z M1177.6,2151.2l-1.9-5h-0.1l-1.9,5
			H1177.6z"/>
		<path class="st3" d="M1186.4,2148.2c0.6,0.4,0.9,1.1,1,2h-1.1c-0.1-0.6-0.3-1-0.7-1.3c-0.4-0.3-0.8-0.4-1.4-0.4
			c-0.7,0-1.3,0.3-1.7,0.8c-0.4,0.5-0.6,1.2-0.6,2.1c0,0.9,0.2,1.6,0.6,2.1c0.4,0.5,0.9,0.8,1.7,0.8c1.2,0,1.9-0.6,2.1-1.9h1.1
			c-0.2,0.9-0.5,1.6-1.1,2.1c-0.5,0.5-1.3,0.7-2.2,0.7c-1.1,0-1.9-0.4-2.5-1.1c-0.6-0.7-0.9-1.6-0.9-2.7s0.3-2,0.9-2.7
			c0.6-0.8,1.5-1.1,2.5-1.1C1185.1,2147.6,1185.8,2147.8,1186.4,2148.2z"/>
		<path class="st3" d="M1190.7,2147.8h1.8v0.9h-1.8v4.6c0,0.3,0,0.5,0.2,0.6c0.1,0.1,0.3,0.2,0.5,0.2h0.9v0.9h-1.1
			c-0.6,0-1-0.2-1.3-0.5c-0.2-0.3-0.4-0.7-0.4-1.2v-4.6h-1.5v-0.9h1.5v-1.9l1.1-0.5V2147.8z"/>
		<path class="st3" d="M1195.3,2145.3c0.2,0.1,0.3,0.3,0.3,0.6c0,0.2-0.1,0.4-0.3,0.6c-0.2,0.2-0.4,0.2-0.6,0.2s-0.4-0.1-0.6-0.2
			c-0.2-0.2-0.2-0.4-0.2-0.6c0-0.3,0.1-0.4,0.2-0.6c0.2-0.2,0.4-0.2,0.6-0.2S1195.1,2145.1,1195.3,2145.3z M1195.2,2147.8v7.2h-1.1
			v-7.2H1195.2z"/>
		<path class="st3" d="M1197.7,2147.8l2.1,5.8l2.1-5.8h1.2l-2.7,7.2h-1.1l-2.7-7.2H1197.7z"/>
		<path class="st3" d="M1209.7,2148.7c0.5,0.7,0.8,1.7,0.8,3h-5.7c0.1,0.8,0.3,1.4,0.7,1.9s0.9,0.7,1.6,0.7c0.6,0,1.1-0.2,1.4-0.4
			c0.3-0.3,0.5-0.6,0.7-1.1h1.1c-0.2,0.7-0.5,1.3-1,1.7c-0.6,0.5-1.4,0.8-2.3,0.8c-1,0-1.9-0.4-2.5-1c-0.6-0.7-1-1.6-1-2.8
			c0-1.1,0.3-2,0.9-2.7c0.6-0.8,1.4-1.1,2.5-1.1C1208.2,2147.6,1209.1,2148,1209.7,2148.7z M1205.5,2149.1c-0.4,0.4-0.6,1-0.7,1.7
			h4.5c-0.1-1.6-0.9-2.3-2.3-2.3C1206.4,2148.5,1205.9,2148.7,1205.5,2149.1z"/>
	</g>
	<g class="st2">
		<path class="st3" d="M1155.9,2165l3.9,10h-1.2l-1.1-2.8h-4.6l-1.1,2.8h-1.2l3.9-10H1155.9z M1157.2,2171.2l-1.9-5h-0.1l-1.9,5
			H1157.2z"/>
		<path class="st3" d="M1166.2,2168.9c0.3-0.5,0.6-0.8,1-1c0.4-0.2,0.8-0.3,1.3-0.3c0.8,0,1.4,0.2,1.8,0.7c0.4,0.5,0.7,1.1,0.7,2
			v4.7h-1.1v-4.6c0-0.6-0.1-1.1-0.4-1.4c-0.3-0.3-0.7-0.5-1.3-0.5c-0.5,0-0.9,0.2-1.2,0.5c-0.3,0.4-0.5,0.8-0.5,1.4v4.5h-1.1v-4.6
			c0-1.3-0.6-1.9-1.7-1.9c-0.5,0-0.9,0.2-1.3,0.6c-0.3,0.4-0.5,0.9-0.5,1.5v4.4h-1.1v-7.2h1.1v1c0.5-0.8,1.2-1.2,2-1.2
			C1165,2167.6,1165.8,2168,1166.2,2168.9z"/>
		<path class="st3" d="M1173.8,2164.8v4.3c0.6-1,1.4-1.5,2.4-1.5c1,0,1.8,0.4,2.4,1.2c0.5,0.7,0.8,1.6,0.8,2.6c0,1.1-0.3,2-0.8,2.7
			c-0.6,0.8-1.4,1.1-2.5,1.1c-1.1,0-1.9-0.5-2.4-1.4v1.2h-1.1v-10.2H1173.8z M1174.4,2169.3c-0.4,0.5-0.6,1.2-0.6,2v0.1
			c0,0.8,0.2,1.5,0.5,2c0.4,0.6,1,0.8,1.7,0.8c0.8,0,1.4-0.3,1.8-0.9c0.3-0.5,0.5-1.2,0.5-2.1c0-0.9-0.2-1.5-0.5-2
			c-0.4-0.6-1-0.8-1.8-0.8C1175.3,2168.5,1174.8,2168.7,1174.4,2169.3z"/>
		<path class="st3" d="M1186.3,2168.4c0.4,0.5,0.6,1.1,0.6,2v4.7h-1.1v-1.2c-0.3,0.4-0.7,0.7-1.1,1c-0.5,0.3-1.1,0.4-1.8,0.4
			c-0.7,0-1.3-0.2-1.7-0.5c-0.4-0.4-0.7-0.9-0.7-1.5c0-0.8,0.3-1.4,1-1.9c0.6-0.4,1.4-0.6,2.5-0.6l1.7,0v-0.4c0-1.2-0.6-1.8-1.9-1.8
			c-0.5,0-1,0.1-1.3,0.3c-0.4,0.2-0.6,0.6-0.7,1l-1.1-0.1c0.2-0.8,0.5-1.3,1.1-1.7c0.5-0.3,1.2-0.5,2.1-0.5
			C1185.1,2167.6,1185.8,2167.8,1186.3,2168.4z M1184.2,2171.6c-1.6,0-2.4,0.6-2.4,1.6c0,0.3,0.1,0.6,0.4,0.8
			c0.3,0.2,0.6,0.3,1.1,0.3c0.7,0,1.3-0.2,1.8-0.7c0.5-0.4,0.8-0.9,0.8-1.5v-0.6L1184.2,2171.6z"/>
		<path class="st3" d="M1194.3,2169.8h-1.1c-0.1-0.4-0.3-0.8-0.6-1c-0.3-0.2-0.8-0.3-1.3-0.3c-0.5,0-0.9,0.1-1.2,0.3
			c-0.3,0.2-0.5,0.4-0.5,0.8c0,0.3,0.2,0.6,0.6,0.8c0.3,0.1,0.8,0.3,1.5,0.5c0.9,0.2,1.5,0.4,1.9,0.7c0.6,0.4,0.9,0.9,0.9,1.5
			c0,1.5-1,2.2-3.1,2.2c-1.9,0-2.9-0.8-3.1-2.5h1.1c0.1,0.6,0.3,1,0.6,1.2c0.3,0.2,0.8,0.3,1.4,0.3c1.3,0,1.9-0.4,1.9-1.2
			c0-0.4-0.2-0.7-0.7-0.9c-0.2-0.1-0.8-0.3-1.5-0.5c-0.9-0.2-1.5-0.4-1.8-0.6c-0.6-0.3-0.8-0.8-0.8-1.4s0.3-1.1,0.8-1.5
			c0.5-0.4,1.2-0.5,2-0.5C1193.1,2167.6,1194.1,2168.3,1194.3,2169.8z"/>
		<path class="st3" d="M1201.3,2169.8h-1.1c-0.1-0.4-0.3-0.8-0.6-1c-0.3-0.2-0.8-0.3-1.3-0.3c-0.5,0-0.9,0.1-1.2,0.3
			c-0.3,0.2-0.5,0.4-0.5,0.8c0,0.3,0.2,0.6,0.6,0.8c0.3,0.1,0.8,0.3,1.5,0.5c0.9,0.2,1.5,0.4,1.9,0.7c0.6,0.4,0.9,0.9,0.9,1.5
			c0,1.5-1,2.2-3.1,2.2c-1.9,0-2.9-0.8-3.1-2.5h1.1c0.1,0.6,0.3,1,0.6,1.2c0.3,0.2,0.8,0.3,1.4,0.3c1.3,0,1.9-0.4,1.9-1.2
			c0-0.4-0.2-0.7-0.7-0.9c-0.2-0.1-0.8-0.3-1.5-0.5c-0.9-0.2-1.5-0.4-1.8-0.6c-0.6-0.3-0.8-0.8-0.8-1.4s0.3-1.1,0.8-1.5
			c0.5-0.4,1.2-0.5,2-0.5C1200.2,2167.6,1201.1,2168.3,1201.3,2169.8z"/>
		<path class="st3" d="M1208.3,2168.4c0.4,0.5,0.6,1.1,0.6,2v4.7h-1.1v-1.2c-0.3,0.4-0.7,0.7-1.1,1c-0.5,0.3-1.1,0.4-1.8,0.4
			c-0.7,0-1.3-0.2-1.7-0.5c-0.4-0.4-0.7-0.9-0.7-1.5c0-0.8,0.3-1.4,1-1.9c0.6-0.4,1.4-0.6,2.5-0.6l1.7,0v-0.4c0-1.2-0.6-1.8-1.9-1.8
			c-0.5,0-1,0.1-1.3,0.3c-0.4,0.2-0.6,0.6-0.7,1l-1.1-0.1c0.2-0.8,0.5-1.3,1.1-1.7c0.5-0.3,1.2-0.5,2.1-0.5
			C1207.1,2167.6,1207.8,2167.8,1208.3,2168.4z M1206.2,2171.6c-1.6,0-2.4,0.6-2.4,1.6c0,0.3,0.1,0.6,0.4,0.8
			c0.3,0.2,0.6,0.3,1.1,0.3c0.7,0,1.3-0.2,1.8-0.7c0.5-0.4,0.8-0.9,0.8-1.5v-0.6L1206.2,2171.6z"/>
		<path class="st3" d="M1217.2,2164.8v10.2h-1.1v-1.2c-0.5,0.9-1.3,1.4-2.4,1.4c-1.1,0-1.9-0.4-2.5-1.1c-0.5-0.7-0.8-1.6-0.8-2.7
			c0-1.1,0.3-1.9,0.8-2.6c0.6-0.8,1.4-1.2,2.4-1.2c1,0,1.8,0.5,2.4,1.5v-4.3H1217.2z M1212.1,2169.3c-0.4,0.5-0.5,1.2-0.5,2
			c0,0.9,0.2,1.6,0.5,2.1c0.4,0.6,1,0.9,1.8,0.9c0.7,0,1.3-0.3,1.7-0.8c0.4-0.5,0.5-1.2,0.5-2v-0.1c0-0.8-0.2-1.5-0.6-2
			c-0.4-0.5-0.9-0.8-1.6-0.8C1213.1,2168.5,1212.5,2168.8,1212.1,2169.3z"/>
		<path class="st3" d="M1224.7,2168.7c0.6,0.7,0.9,1.6,0.9,2.7c0,1.1-0.3,2-0.9,2.7c-0.7,0.8-1.5,1.1-2.6,1.1
			c-1.1,0-1.9-0.4-2.6-1.1c-0.6-0.7-0.9-1.6-0.9-2.7c0-1.1,0.3-2,0.9-2.7c0.6-0.8,1.5-1.1,2.6-1.1
			C1223.2,2167.6,1224.1,2167.9,1224.7,2168.7z M1220.3,2169.4c-0.4,0.5-0.6,1.2-0.6,2c0,0.8,0.2,1.5,0.6,2c0.4,0.6,1,0.9,1.8,0.9
			c0.8,0,1.4-0.3,1.8-0.9c0.4-0.5,0.6-1.2,0.6-2c0-0.8-0.2-1.5-0.6-2c-0.4-0.6-1.1-0.9-1.8-0.9
			C1221.4,2168.5,1220.8,2168.8,1220.3,2169.4z"/>
		<path class="st3" d="M1231.3,2167.7v1.1c-0.4-0.1-0.7-0.2-1.1-0.2c-0.6,0-1,0.2-1.4,0.7c-0.4,0.5-0.6,1-0.6,1.7v3.8h-1.1v-7.2h1.1
			v1.3c0.2-0.4,0.4-0.8,0.8-1c0.4-0.3,0.8-0.5,1.3-0.5C1230.7,2167.6,1231,2167.6,1231.3,2167.7z"/>
	</g>
	<path id="路径_14503" class="st5" d="M1190.5,2041.6v31.7"/>
	<path id="多边形_10" class="st3" d="M1190.5,2077.8l-3.5-6.2h7L1190.5,2077.8z"/>
	<path id="路径_14503-2" class="st5" d="M1190.5,2113v21"/>
	<path id="多边形_10-2" class="st3" d="M1190.5,2137l-3.5-4.1h7L1190.5,2137z"/>
	<path id="路径_14707" class="st5" d="M1089.5,2257v32.9"/>
	<path id="多边形_15" class="st3" d="M1089.5,2292l-3.5-4.1h7L1089.5,2292z"/>
	<path id="路径_14707-2" class="st5" d="M1089.5,2329v32.9"/>
	<path id="多边形_15-2" class="st3" d="M1089.5,2364l-3.5-4.1h7L1089.5,2364z"/>
	<path id="路径_14708" class="st5" d="M1190.5,2185l-101.5,21.8"/>
	<path id="多边形_16" class="st3" d="M1084,2207.8l5-5l1.8,6.7L1084,2207.8z"/>
	<path id="路径_14708-2" class="st5" d="M1190.5,2185l101.5,21.8"/>
	<path id="多边形_16-2" class="st3" d="M1297,2207.8l-6.8,1.8l1.8-6.7L1297,2207.8z"/>
	<g id="矩形_4635" transform="translate(1227 2210)">
		<rect class="st6" width="135" height="48"/>
		<rect x="0.5" y="0.5" class="st1" width="134" height="47"/>
	</g>
	<g class="st2">
		<path class="st3" d="M1281.2,2230l3.7,8.5h0l3.7-8.5h1.4v10h-1.1v-8h0l-3.5,8h-1l-3.5-8h0v8h-1.1v-10H1281.2z"/>
		<path class="st3" d="M1292.4,2230l3.1,8.8h0l3.1-8.8h1.3l-3.7,10h-1.4l-3.7-10H1292.4z"/>
		<path class="st3" d="M1305.3,2230l3.9,10h-1.2l-1.1-2.8h-4.6l-1.1,2.8h-1.2l3.9-10H1305.3z M1306.6,2236.2l-1.9-5h-0.1l-1.9,5
			H1306.6z"/>
	</g>
	<g id="矩形_4636" transform="translate(1227 2281)">
		<rect class="st6" width="135" height="48"/>
		<rect x="0.5" y="0.5" class="st1" width="134" height="47"/>
	</g>
	<g class="st2">
		<path class="st3" d="M1280.3,2301l3.7,8.5h0l3.7-8.5h1.4v10h-1.1v-8h0l-3.5,8h-1l-3.5-8h0v8h-1.1v-10H1280.3z"/>
		<path class="st3" d="M1299.1,2302.3c0.8,1,1.2,2.2,1.2,3.7c0,1.5-0.4,2.7-1.2,3.7c-0.9,1-2.1,1.5-3.6,1.5c-1.5,0-2.7-0.5-3.5-1.5
			c-0.8-1-1.2-2.2-1.2-3.7c0-1.5,0.4-2.7,1.2-3.7c0.9-1,2-1.5,3.6-1.5C1297.1,2300.8,1298.3,2301.3,1299.1,2302.3z M1292.9,2303
			c-0.6,0.8-0.9,1.8-0.9,3c0,1.2,0.3,2.2,0.9,3c0.6,0.8,1.6,1.2,2.7,1.2c1.1,0,2.1-0.4,2.7-1.1c0.6-0.8,0.9-1.8,0.9-3
			c0-1.3-0.3-2.3-0.9-3c-0.6-0.8-1.5-1.1-2.7-1.1S1293.5,2302.2,1292.9,2303z"/>
		<path class="st3" d="M1306.2,2301l3.9,10h-1.2l-1.1-2.8h-4.6l-1.1,2.8h-1.2l3.9-10H1306.2z M1307.5,2307.2l-1.9-5h-0.1l-1.9,5
			H1307.5z"/>
	</g>
	<path id="路径_14709" class="st5" d="M1294.5,2257v32.9"/>
	<path id="多边形_17" class="st3" d="M1294.5,2292l-3.5-4.1h7L1294.5,2292z"/>
</g>
</svg>
