<svg xmlns="http://www.w3.org/2000/svg" width="340" height="407" viewBox="0 0 340 407">
  <g id="组_7710" data-name="组 7710" transform="translate(-1022 -1994)">
    <g id="矩形_4626" data-name="矩形 4626" transform="translate(1022 2281)" fill="#f2f7fb" stroke="#d9d9d9" stroke-width="1">
      <rect width="135" height="48" stroke="none"/>
      <rect x="0.5" y="0.5" width="134" height="47" fill="none"/>
    </g>
    <text id="如何成为_TUG_会员" data-name="如何成为 TUG 会员" transform="translate(1090 2311)" fill="#2c2c2c" font-size="14" font-family="SegoeUI, Segoe UI"><tspan x="-20.733" y="0">Leader</tspan></text>
    <g id="矩形_4628" data-name="矩形 4628" transform="translate(1022 2210)" fill="#f2f7fb" stroke="#d9d9d9" stroke-width="1">
      <rect width="135" height="48" stroke="none"/>
      <rect x="0.5" y="0.5" width="134" height="47" fill="none"/>
    </g>
    <text id="如何成为_TUG_会员-2" data-name="如何成为 TUG 会员" transform="translate(1090 2240)" fill="#2c2c2c" font-size="14" font-family="SegoeUI, Segoe UI"><tspan x="-31.968" y="0">Co-Leader</tspan></text>
    <g id="矩形_4632" data-name="矩形 4632" transform="translate(1022 2353)" fill="#f2f7fb" stroke="#d9d9d9" stroke-width="1">
      <rect width="135" height="48" stroke="none"/>
      <rect x="0.5" y="0.5" width="134" height="47" fill="none"/>
    </g>
    <text id="如何成为_TUG_会员-3" data-name="如何成为 TUG 会员" transform="translate(1090 2383)" fill="#2c2c2c" font-size="14" font-family="SegoeUI, Segoe UI"><tspan x="-14.287" y="0">TMC</tspan></text>
    <g id="矩形_4625" data-name="矩形 4625" transform="translate(1123 1994)" fill="#f4f4f4" stroke="#d9d9d9" stroke-width="1">
      <rect width="135" height="48" stroke="none"/>
      <rect x="0.5" y="0.5" width="134" height="47" fill="none"/>
    </g>
    <text id="如何成为_TUG_会员-4" data-name="如何成为 TUG 会员" transform="translate(1146 2023)" fill="#2c2c2c" font-size="14" font-family="SegoeUI, Segoe UI"><tspan x="0" y="0">TUG </tspan><tspan y="0" font-family="YuGothicUI-Regular, Yu Gothic UI">普通会</tspan><tspan y="0" font-family="MicrosoftJhengHeiUIRegular, Microsoft JhengHei UI">员</tspan></text>
    <g id="矩形_4627" data-name="矩形 4627" transform="translate(1123 2066)" fill="#f4f4f4" stroke="#d9d9d9" stroke-width="1">
      <rect width="135" height="48" stroke="none"/>
      <rect x="0.5" y="0.5" width="134" height="47" fill="none"/>
    </g>
    <text id="如何成为_TUG_会员-5" data-name="如何成为 TUG 会员" transform="translate(1191 2094)" fill="#2c2c2c" font-size="14" font-family="SegoeUI, Segoe UI"><tspan x="-38.38" y="0">Ambassador</tspan></text>
    <g id="矩形_4630" data-name="矩形 4630" transform="translate(1123 2137)" fill="#f4f4f4" stroke="#d9d9d9" stroke-width="1">
      <rect width="135" height="48" stroke="none"/>
      <rect x="0.5" y="0.5" width="134" height="47" fill="none"/>
    </g>
    <text id="如何成为_TUG_会员-6" data-name="如何成为 TUG 会员" transform="translate(1191 2155)" fill="#2c2c2c" font-size="14" font-family="SegoeUI, Segoe UI"><tspan x="-18.83" y="0">Active</tspan><tspan x="-38.38" y="19">Ambassador</tspan></text>
    <path id="路径_14503" data-name="路径 14503" d="M6497.76,10822h31.7" transform="translate(12012.489 -4456.209) rotate(90)" fill="none" stroke="#2c2c2c" stroke-width="1"/>
    <path id="多边形_10" data-name="多边形 10" d="M3.489,0,6.979,6.2H0Z" transform="translate(1193.979 2077.799) rotate(180)" fill="#2c2c2c"/>
    <path id="路径_14503-2" data-name="路径 14503" d="M0,0H20.99" transform="translate(1190.489 2113) rotate(90)" fill="none" stroke="#2c2c2c" stroke-width="1"/>
    <path id="多边形_10-2" data-name="多边形 10" d="M3.489,0,6.979,4.107H0Z" transform="translate(1193.979 2137) rotate(180)" fill="#2c2c2c"/>
    <path id="路径_14707" data-name="路径 14707" d="M0,0H32.946" transform="translate(1089.489 2257) rotate(90)" fill="none" stroke="#2c2c2c" stroke-width="1"/>
    <path id="多边形_15" data-name="多边形 15" d="M3.489,0,6.979,4.107H0Z" transform="translate(1092.979 2292) rotate(180)" fill="#2c2c2c"/>
    <path id="路径_14707-2" data-name="路径 14707" d="M0,0H32.946" transform="translate(1089.489 2329) rotate(90)" fill="none" stroke="#2c2c2c" stroke-width="1"/>
    <path id="多边形_15-2" data-name="多边形 15" d="M3.489,0,6.979,4.107H0Z" transform="translate(1092.979 2364) rotate(180)" fill="#2c2c2c"/>
    <path id="路径_14708" data-name="路径 14708" d="M3220.561,2196l-101.485,21.78" transform="translate(-2030.061 -11)" fill="none" stroke="#2c2c2c" stroke-width="1"/>
    <path id="多边形_16" data-name="多边形 16" d="M3.489,0,6.979,6.107H0Z" transform="matrix(-0.259, -0.966, 0.966, -0.259, 1084.864, 2211.199)" fill="#2c2c2c"/>
    <path id="路径_14708-2" data-name="路径 14708" d="M3119.076,2196l101.485,21.78" transform="translate(-1928.587 -11)" fill="none" stroke="#2c2c2c" stroke-width="1"/>
    <path id="多边形_16-2" data-name="多边形 16" d="M3.489,0,6.979,6.107H0Z" transform="matrix(-0.259, 0.966, -0.966, -0.259, 1297.932, 2204.458)" fill="#2c2c2c"/>
    <g id="矩形_4635" data-name="矩形 4635" transform="translate(1227 2210)" fill="#e7e7f8" stroke="#d9d9d9" stroke-width="1">
      <rect width="135" height="48" stroke="none"/>
      <rect x="0.5" y="0.5" width="134" height="47" fill="none"/>
    </g>
    <text id="如何成为_TUG_会员-7" data-name="如何成为 TUG 会员" transform="translate(1294 2240)" fill="#2c2c2c" font-size="14" font-family="SegoeUI, Segoe UI"><tspan x="-14.738" y="0">MVA</tspan></text>
    <g id="矩形_4636" data-name="矩形 4636" transform="translate(1227 2281)" fill="#e7e7f8" stroke="#d9d9d9" stroke-width="1">
      <rect width="135" height="48" stroke="none"/>
      <rect x="0.5" y="0.5" width="134" height="47" fill="none"/>
    </g>
    <text id="如何成为_TUG_会员-8" data-name="如何成为 TUG 会员" transform="translate(1294 2311)" fill="#2c2c2c" font-size="14" font-family="SegoeUI, Segoe UI"><tspan x="-15.907" y="0">MOA</tspan></text>
    <path id="路径_14709" data-name="路径 14709" d="M0,0H32.946" transform="translate(1294.5 2257) rotate(90)" fill="none" stroke="#2c2c2c" stroke-width="1"/>
    <path id="多边形_17" data-name="多边形 17" d="M3.489,0,6.979,4.107H0Z" transform="translate(1297.989 2292) rotate(180)" fill="#2c2c2c"/>
  </g>
</svg>
