<svg xmlns="http://www.w3.org/2000/svg" viewBox="0 0 645.97 206.68"><defs><linearGradient id="未命名的渐变_21" x1="156.64" y1="171.23" x2="156.64" y2="54.73" gradientUnits="userSpaceOnUse"><stop offset="0" stop-color="#f2f2f2"/><stop offset="1" stop-color="#b3b3b3"/></linearGradient><linearGradient id="未命名的渐变_22" x1="26" y1="132.49" x2="330.15" y2="293.06" gradientUnits="userSpaceOnUse"><stop offset="0" stop-color="#e30c34"/><stop offset="1"/></linearGradient><linearGradient id="未命名的渐变_29" x1="31.13" y1="138.09" x2="31.13" y2="-32.3" gradientUnits="userSpaceOnUse"><stop offset="0" stop-color="#172d72"/><stop offset="1" stop-color="#0a1633"/></linearGradient><linearGradient id="未命名的渐变_23" x1="-34.5" y1="-35.92" x2="152.21" y2="74.18" gradientUnits="userSpaceOnUse"><stop offset="0" stop-color="#172d72"/><stop offset="1" stop-color="#00aeef"/></linearGradient><style>.cls-1{fill:#fff}</style></defs><g id="图层_2" data-name="图层 2"><g id="Layer_1" data-name="Layer 1"><path class="cls-1" d="M236.76 88.24h-7.93V56.33h-11.68v-6.61H248v6.61h-11.24zM260.69 56.33h-7.4v-6.61h7.4zm0 31.91h-7.4V59.71h7.4zM268.62 49.72h15.06c5.91 0 9.56 1.32 12.15 4.44 3.06 3.64 4.7 8.88 4.7 14.79s-1.64 11.21-4.7 14.8c-2.59 3.12-6.29 4.49-12.15 4.49h-15.06zm15.06 31.91c6 0 8.93-4.17 8.93-12.62s-3-12.68-8.93-12.68h-7.14v25.3zM324.2 88.24h-17.33V49.72H324c10.15 0 12.58 6.61 12.58 10.15 0 3.27-1.48 5.49-5.29 7.92 4.34 2.54 6.4 5.55 6.4 9.35.04 4.6-2.69 11.1-13.49 11.1zM314.8 65h8.61c3.64 0 5.6-1.53 5.6-4.33s-2-4.38-5.6-4.38h-8.61zm0 16.59h9.45c3.86 0 5.87-1.74 5.87-5s-2-5-5.87-5h-9.45zM358.75 75.82v-26.1h7.93v26.1c0 4.65 2.38 6.87 7.34 6.87s7.35-2.22 7.35-6.87v-26.1h7.92v26.1c0 10.89-8.77 13.63-15.27 13.63s-15.27-2.74-15.27-13.63zM408.16 83.64c3.43 0 5.49-1 5.49-2.8 0-1.16-.63-1.74-2.48-2.32l-8.82-2.75c-1.64-.53-6.24-1.43-6.24-7 0-5.86 4.49-9.51 11.73-9.51 7.66 0 12.31 3.65 12.42 9.67h-7.14c-.05-2.59-1.79-3.86-5.33-3.86-2.59 0-4.28 1.06-4.28 2.64 0 1.17.53 1.59 2.59 2.22l9.35 2.7c3.75 1.11 5.6 3.49 5.6 7.18 0 4-2.48 9.67-12.47 9.67-8.67 0-13.26-3.27-13.47-9.51h7.24c.42 1.93 1.16 3.67 5.81 3.67zM451.59 75a11.13 11.13 0 0 1-.06 1.27h-19.12c.16 3.86.95 7.5 5.92 7.5a5.73 5.73 0 0 0 5.67-3.56h7.29c-1.64 5.6-6.81 9.24-13.21 9.24-8.08 0-13.08-5.6-13.08-14.74 0-9.56 5-15.48 13.21-15.48 5.72 0 13.38 3.17 13.38 15.77zm-13.48-10.11c-3.27 0-5.12 2.16-5.6 6.49h11.36c-.31-4.17-2.32-6.49-5.76-6.49zM464.53 59.71v5.6c1.59-3.86 4.55-6.08 7.93-6.08a6.94 6.94 0 0 1 .9.05v7.51a13 13 0 0 0-2.33-.21q-6.5 0-6.5 6.49v15.17h-7.39V59.71zM509.92 55.74c-6.71 0-10.78 5-10.78 13.32 0 7.92 4.6 13.53 11 13.53 2 0 9.09-1.27 9.78-8.56h-8.78v-6.61h15.43v20.82h-4.75l-.95-5.07c-3 4.33-6.45 6.18-11.63 6.18-10.41 0-18-8.51-18-20.18 0-12 7.56-20.19 18.65-20.19 9.3 0 15.75 5 16.7 12.94h-7.45c-1.14-3.27-3.73-6.18-9.22-6.18zM540.56 59.71v5.6c1.59-3.86 4.55-6.08 7.93-6.08a6.94 6.94 0 0 1 .9.05v7.51a12.94 12.94 0 0 0-2.33-.21q-6.49 0-6.5 6.49v15.17h-7.39V59.71zM580.77 74.55c0 9.15-5.44 14.9-14.11 14.9s-14.1-5.7-14.1-15.11 5.33-15.11 14.05-15.11c8.93 0 14.16 5.66 14.16 15.32zM560 74.34c0 5.44 2.7 9.14 6.71 9.14s6.71-3.7 6.71-9c0-5.6-2.64-9.25-6.71-9.25S560 68.9 560 74.34zM604.44 88.24v-3.38a9.36 9.36 0 0 1-8.56 4.59c-6.07 0-9.56-3.59-9.56-9.88V59.71h7.4V78c0 3.44 1.58 5.13 4.75 5.13 3.59 0 6-2.22 6-5.6V59.71h7.4v28.53zM646 74.4c0 8.66-5.07 15.11-11.94 15.11a8.42 8.42 0 0 1-7.93-4.65v14.9h-7.39V59.71h7.39v4.22a8.46 8.46 0 0 1 7.93-4.7C641.43 59.23 646 66 646 74.4zm-19.87 0c0 5.33 2.54 8.93 6.24 8.93s6.23-3.65 6.23-8.83c0-5.44-2.48-9.09-6.23-9.09s-6.27 3.65-6.27 8.99z"/><path d="M140.54 167.36a29.4 29.4 0 0 0 22.63 2.79c15.05-3.87 24.6-16.09 24.6-31.53V49.16L125.51 85.1v73.49z" style="fill:url(#未命名的渐变_21)"/><path d="M78 202.59a32.85 32.85 0 0 0 32.3-.31l61-35.22.42-.27a31.1 31.1 0 0 1-31.21-.07l-15.89-9.16h-.16l-30.58-17.67-31.63-18.26-.29.15L0 157.55z" style="fill:url(#未命名的渐变_22)"/><path d="M47.22 39.32c-7.4-4.32-15.33-4.66-22.62-2.79C9.54 40.4 0 52.62 0 68.06v89.46l62.25-35.94V48.09z" style="fill:url(#未命名的渐变_29)"/><path d="M109.75 4.09a32.86 32.86 0 0 0-32.31.31l-61 35.22c-.15.08-.28.18-.42.27a31.08 31.08 0 0 1 31.2.07l15.9 9.16h.16l30.6 17.67 31.63 18.26.3-.15 62-35.77z" style="fill:url(#未命名的渐变_23)"/><path class="cls-1" d="M93.65 82.5 74.88 93.34v10.83l9.39-5.42v21.83l9.38 5.41V93.33l9.39-5.41-9.39-5.42zM103.09 98.81v21.75l9.42-5.44V93.36l-9.42 5.45zM224.65 156.34c.47.32 1 .7 1.74 1.11 2 1.21 4.76 1.39 8.17 1.39a85.11 85.11 0 0 0 11-.77 15.38 15.38 0 0 0-1 3.91c-2.15.12-7.06.33-10.18.33-3.88 0-6.35-.36-8.52-1.59-1.36-.74-2.41-1.71-3.06-1.71-.85 0-2.09 2-3.09 3.82l-2.56-3.52a13 13 0 0 1 4.15-3.3v-8H218v-3.21h6.7zm-1.88-13.82a38.19 38.19 0 0 0-3.88-5.41l2.67-1.74a32.78 32.78 0 0 1 4.06 5.18zM234.65 154h-8.59v-3.26h8.59v-2.64h-4c-1.26 0-2.59.18-2.85.5a33.79 33.79 0 0 0-1.15-3.29c.62-.18 1.09-.82 1.68-1.85.23-.41.67-1.29 1.17-2.44h-3.14v-3h4.29c.32-1 .65-1.94.88-2.94l3.65 1c-.21.65-.44 1.29-.71 2h9.76v3h-11c-.62 1.35-1.3 2.7-2 3.85h3.41V142h3.61v2.88h5v3.23h-5v2.65h6.27V154h-6.27v4.15h-3.61zM262 150.84c-.86.26-1.71.53-2.59.76v7.09c0 1.62-.3 2.47-1.18 3s-2.14.67-4 .64a12.05 12.05 0 0 0-.91-3.23 21.59 21.59 0 0 0 2.35 0c.36 0 .47-.12.47-.5v-6.09l-2.67.77-.77-3.35c1-.21 2.15-.5 3.44-.86v-5.17h-3v-3.24h3v-5.52h3.24v5.52h2.41v3.24h-2.39v4.35l2.11-.59zm15.27 2.16a12.87 12.87 0 0 1-2.26 4.52 40.78 40.78 0 0 1 4.79 2.5l-2.11 2.65a42.2 42.2 0 0 0-5.3-2.91c-2.32 1.38-5.41 2.2-9.55 2.79a10.26 10.26 0 0 0-1.35-2.91 24.81 24.81 0 0 0 7.32-1.44c-1.89-.74-3.74-1.44-5.41-2 .7-.88 1.5-2 2.29-3.23H262v-2.91h5.33c.47-.89.91-1.77 1.26-2.62h-6.17v-3h4.29a14.65 14.65 0 0 0-1.44-3l1.91-.74h-3.88v-2.94h6.2a17.9 17.9 0 0 0-1-1.91l3.3-.44a16.54 16.54 0 0 1 1.26 2.35h6.41v2.94h-4.82l2.5.74c-.62 1.06-1.24 2.12-1.8 3h4.71v3h-10.52l2.35.47c-.29.7-.61 1.41-1 2.15h9.62V153zm-9.11-12.27a15.72 15.72 0 0 1 1.59 3.09l-1.65.68h4a24.26 24.26 0 0 0 1.82-3.77zm1.15 12.27c-.39.64-.8 1.26-1.18 1.85 1.24.41 2.47.88 3.73 1.35a8.76 8.76 0 0 0 1.92-3.2zM313.73 158.43c0 1.88-.41 2.82-1.59 3.35s-3 .64-5.64.61a13.34 13.34 0 0 0-1.12-3.35c1.64.09 3.58.06 4.11.06s.77-.18.77-.7V154h-6.21v8.21h-3.52V154h-6c-.53 3.21-1.59 6.44-3.71 8.74a13.21 13.21 0 0 0-2.76-2.27c3.2-3.53 3.47-8.76 3.47-12.87v-10.5h22.2zm-13.2-7.74v-3.61H295v.52c0 1 0 2-.09 3.09zM295 140.4v3.41h5.53v-3.41zm15.26 0h-6.21v3.41h6.21zm0 10.29v-3.61h-6.21v3.61zM348 139.52v12.64h-3.58v-1.53h-14c-.38 4.21-1.41 8.88-3.88 12.18a12.52 12.52 0 0 0-3.09-2.15c3.18-4.18 3.47-10.23 3.47-14.5v-6.64h9.47c-.35-1.12-.94-2.56-1.44-3.71l3.5-.85a29.22 29.22 0 0 1 1.7 4l-1.82.53zm-3.58 7.85v-4.62h-13.88v4.62zM398.54 149.78v3.41h-26.79v-3.41h6.32v-5.65h-5.29v-3.38h5.29v-5.44h3.65v5.44h6.76v-5.44h3.65v5.44h5.5v3.38h-5.5v5.65zm-15.47 6a36.75 36.75 0 0 1-8.26 6.85 23.89 23.89 0 0 0-2.88-2.44 26.46 26.46 0 0 0 7.44-5.85zm-1.35-6h6.76v-5.65h-6.76zm8.61 4.44a85.94 85.94 0 0 1 8 6.32l-3.47 2.06a69.18 69.18 0 0 0-7.73-6.65zM415.94 145.37a37.4 37.4 0 0 1-2.3 10.67c2.71 2.33 6.35 2.83 10.68 2.86 1.7 0 7.79 0 9.79-.09a11.4 11.4 0 0 0-1.24 3.2h-8.64c-4.94 0-9-.65-12-3.14a12.88 12.88 0 0 1-3.23 3.67 11 11 0 0 0-2.53-2.29 11.84 11.84 0 0 0 3.5-3.88 22 22 0 0 1-2.59-5.71l2.56-.85a14.57 14.57 0 0 0 1.44 3.41 26.59 26.59 0 0 0 1.15-5.2h-4.71c1.18-2.18 2.68-5.33 3.91-8.27h-4.35v-3h9.06c-1.12 2.64-2.5 5.73-3.74 8.26h.71l.59-.06zm6.17-5.32h-5v-2.65h5v-2.2h3.29v2.2h6.44v3.94h1.62V144h-1.62v3.91h-6.44v1.41h6.74v2.53h-6.74v1.44h7.71v2.76h-7.71v2h-3.29v-2h-6.5v-2.76h6.5v-1.44h-5.32v-2.53h5.32v-1.41H417v-2.65h5.14V144h-6.64v-2.68h6.61zm3.29 0v1.29h3.39v-1.29zm3.39 4h-3.39v1.26h3.39zM459.12 150.22a28.72 28.72 0 0 0 10.47 8.09 16.42 16.42 0 0 0-2.53 3 31 31 0 0 1-9.55-8.09v9.35h-3.74v-9.17a32.36 32.36 0 0 1-9.55 7.88 17.62 17.62 0 0 0-2.59-3 28.53 28.53 0 0 0 10.53-8.06h-9.53v-3.47h11.14V143h-8.94v-3.47h8.94v-4.38h3.74v4.38h9.2V143h-9.2v3.76h11.32v3.47zM494.87 151.22a27.23 27.23 0 0 0 10 7.41 16.43 16.43 0 0 0-2.44 2.94 29.63 29.63 0 0 1-9.62-8.06v9h-3.7v-9a30.42 30.42 0 0 1-9.65 7.94 16.61 16.61 0 0 0-2.47-2.94 27.74 27.74 0 0 0 10.01-7.29h-9.23v-3.35h5.55a20.46 20.46 0 0 0-2.2-5.06l3-1.14h-5v-3.36h9.91v-3.2h3.7v3.2H503v3.36h-4.89l3.39 1a54.23 54.23 0 0 1-3.09 5.2h5.7v3.35zm-10.59-9.55a20.69 20.69 0 0 1 2.5 5.11l-2.78 1.09h5.09v-6.2zm8.5 0v6.2h4.94l-2.47-.85a33.69 33.69 0 0 0 2.5-5.35zM518.41 145.66A19.53 19.53 0 0 1 514 149a11.21 11.21 0 0 0-1.79-2.55 15.38 15.38 0 0 0 5-3.44h-4.35v-2.77h2.29a15.81 15.81 0 0 0-1.56-3.64l2.47-1a11.68 11.68 0 0 1 1.77 3.61l-2.39 1.06h3v-5.17h3.24v5.17h5.55v2.77h-4.29c1.33.76 3 1.73 3.47 2.08l-1.82 2.45c-.65-.62-1.79-1.59-2.91-2.47v3.2h-3.24zm4.74 15.06c-.59-.44-1.36-1-2.24-1.5a20.24 20.24 0 0 1-7 3.29 9.39 9.39 0 0 0-1.58-2.62 18.93 18.93 0 0 0 5.76-2.26c-1.38-.73-2.85-1.41-4.18-2 .53-.76 1.09-1.68 1.68-2.67h-2.23v-2.83h3.67c.27-.59.5-1.14.71-1.7l3.08.56c-.14.38-.32.76-.5 1.14h3.74l.53-.09 1.88.71a16 16 0 0 1-3.38 6.41c.79.44 1.5.88 2.09 1.29zM519 153c-.29.55-.59 1.08-.88 1.55.79.39 1.62.8 2.38 1.21a11.3 11.3 0 0 0 2.06-2.76zm7.94-16.35c-1 1.32-1.88 2.64-2.65 3.55l-2.23-1a27.35 27.35 0 0 0 1.94-3.71zm10.82 7.11a35 35 0 0 1-2.82 10.44 14 14 0 0 0 5.35 5.38 11.23 11.23 0 0 0-2.27 2.76 15.86 15.86 0 0 1-5-5 18.26 18.26 0 0 1-6.53 5.38 14.92 14.92 0 0 0-1.85-2.86 14.28 14.28 0 0 0 6.64-5.61 37.87 37.87 0 0 1-2.09-6.15 21.29 21.29 0 0 1-1.55 2.62 17.54 17.54 0 0 0-2.5-2.23c2.35-3.06 3.64-8 4.32-13.29l3.17.47c-.23 1.64-.53 3.29-.88 4.85h7.82v3.23zm-6.47 0a41.73 41.73 0 0 0 1.8 6.71 33.66 33.66 0 0 0 1.44-6.71zM557.22 150.69c-1 .3-2 .62-3 .91v6.91c0 1.62-.26 2.47-1.15 3s-2.17.71-4.05.68a12.29 12.29 0 0 0-.89-3.21h2.41c.35 0 .51-.11.51-.5v-5.94l-2.77.8-.79-3.38c1-.24 2.2-.53 3.56-.89v-5.17H548v-3.24h3.09v-5.55h3.17v5.55h2.94v3.24h-2.94v4.35l2.59-.7zm11.79-.38v2.82h5.29v9.41h-3.14v-.82H564v.85h-3v-9.44h4.71v-2.82h-4.53c-.33 4.29-1.27 9-3.5 12.35a15.76 15.76 0 0 0-2.82-2.06c2.88-4.32 3.11-10.76 3.11-15.35v-9h16.14v8.5H569v2.59h6v2.94zm-3.26-2.94v-2.59h-4.33v2.59zm-4.33-8.12v2.53h9.44v-2.53zm9.74 16.75H564v3h7.12zM610.05 158.31v3.44h-26.43v-3.44H595v-5.91h-8V149h8v-5.18h-6.08a23.72 23.72 0 0 1-2.74 4.26A28.49 28.49 0 0 0 583 146a25.35 25.35 0 0 0 5.2-10.53l3.62.79c-.41 1.42-.88 2.8-1.38 4.15H595v-5.29h3.68v5.29h9.91v3.41h-9.91V149h8.79v3.38h-8.79v5.91zM636 142.08c2 3.29 5.24 5.61 10 6.64a14.21 14.21 0 0 0-2.32 3.21 16.57 16.57 0 0 1-11.17-9.38c-1.56 4.2-4.77 7.7-12.06 9.73a11 11 0 0 0-2-2.94c6.2-1.56 9-4.15 10.41-7.26h-10.09v-3.24h11a36.84 36.84 0 0 0 .53-4.06h3.7c-.12 1.39-.27 2.74-.5 4.06h11.9v3.24zM618.54 160a23.94 23.94 0 0 0 2.67-7.41l3.12 1.06a31 31 0 0 1-2.62 7.94zm17.08-1.11c1.44 0 1.68-.44 1.85-3.41a10.2 10.2 0 0 0 3.15 1.26c-.41 4.2-1.44 5.26-4.73 5.26h-5.68c-4.06 0-5.11-1-5.11-4.14v-5h3.46v5c0 .94.3 1.06 2 1.06zm-4.23-12.21a28.32 28.32 0 0 1 5 3.33l-3.24 1.94a25.63 25.63 0 0 0-4.82-3.44zm.53 4.21a25 25 0 0 1 4.26 4.82l-2.88 1.79a29.32 29.32 0 0 0-4.06-5zm10.2 1.38a37.32 37.32 0 0 1 3.5 8l-3.29 1.14a38.55 38.55 0 0 0-3.3-8.11z"/></g></g></svg>