<svg xmlns="http://www.w3.org/2000/svg" xmlns:xlink="http://www.w3.org/1999/xlink" width="40" height="40" viewBox="0 0 40 40"><defs><clipPath id="a"><rect width="40" height="40" transform="translate(6805 -1767)" fill="#fff" stroke="#707070" stroke-width="1"/></clipPath></defs><g transform="translate(-6805 1767)" clip-path="url(#a)"><g transform="translate(6656.144 -2513)"><path d="M8.533,30.283A4.655,4.655,0,0,1,13.216,25.6H42.655a4.655,4.655,0,0,1,4.683,4.683v4.683H8.533Z" transform="translate(140.993 722.069)" fill="#fff"/><path d="M39.474,27.771H.669A.632.632,0,0,1,0,27.1V22.418a5.368,5.368,0,0,1,5.352-5.352H34.791a5.368,5.368,0,0,1,5.352,5.352V27.1A.632.632,0,0,1,39.474,27.771ZM1.338,26.433H38.805V22.418A4.026,4.026,0,0,0,34.791,18.4H5.352a4.026,4.026,0,0,0-4.014,4.014Z" transform="translate(148.857 729.934)" fill="#4d5152"/><rect width="29.438" height="21.41" transform="translate(154.209 757.036)" fill="#fff"/><path d="M89.841,159.282H60.4a.632.632,0,0,1-.669-.669V137.2a.632.632,0,0,1,.669-.669H89.841a.632.632,0,0,1,.669.669v21.41A.632.632,0,0,1,89.841,159.282Zm-28.769-1.338h28.1V137.872h-28.1Z" transform="translate(93.806 619.832)" fill="#4d5152"/><path d="M8.533,418.133c0,2.208,2.676,5.352,6.021,5.352H41.317c3.345,0,6.021-3.145,6.021-5.352Z" transform="translate(140.993 360.312)" fill="#fff"/><g transform="translate(148.857 761.72)"><path d="M33.453,416.291H6.691c-3.613,0-6.691-3.278-6.691-6.022a.632.632,0,0,1,.669-.669H39.474a.632.632,0,0,1,.669.669C40.143,413.012,37.066,416.291,33.453,416.291ZM1.405,410.938a5.863,5.863,0,0,0,5.286,4.014H33.453a5.863,5.863,0,0,0,5.286-4.014Z" transform="translate(0 -393.543)" fill="#4d5152"/><rect width="1.338" height="1.338" transform="translate(21.41 0)" fill="#4d5152"/><rect width="1.338" height="1.338" transform="translate(17.395 0)" fill="#4d5152"/><path d="M180.7,266.7h-6.691a.609.609,0,0,1-.535-.268c-.134-.134-2.81-3.613-2.81-9.768a.632.632,0,0,1,.669-.669h12.043a.632.632,0,0,1,.669.669c0,6.155-2.676,9.634-2.81,9.768A.608.608,0,0,1,180.7,266.7Zm-6.356-1.338h6.021a15.491,15.491,0,0,0,2.342-8.029h-10.7A15.491,15.491,0,0,0,174.347,265.367Z" transform="translate(-157.286 -251.986)" fill="#4d5152"/></g><path d="M198.439,147.074a1.971,1.971,0,0,1-2.007,2.007h-6.69a1.971,1.971,0,0,1-2.007-2.007v-2.007h10.7v2.007Z" transform="translate(-24.158 611.969)" fill="#6c63ff"/><path d="M188.568,141.886h-6.691a2.684,2.684,0,0,1-2.676-2.676V137.2a.632.632,0,0,1,.669-.669h10.7a.632.632,0,0,1,.669.669v2.007A2.684,2.684,0,0,1,188.568,141.886Zm-8.029-4.014v1.338a1.342,1.342,0,0,0,1.338,1.338h6.691a1.342,1.342,0,0,0,1.338-1.338v-1.338Z" transform="translate(-16.294 619.832)" fill="#4d5152"/><path d="M130.676,384A2.684,2.684,0,0,0,128,386.676h20.072A2.684,2.684,0,0,0,145.4,384Z" transform="translate(30.892 391.77)" fill="#6c63ff"/><path d="M140.208,379.481H120.136a.632.632,0,0,1-.669-.669,3.313,3.313,0,0,1,3.345-3.345h14.719a3.313,3.313,0,0,1,3.345,3.345A.632.632,0,0,1,140.208,379.481Zm-19.269-1.338h18.533a1.949,1.949,0,0,0-1.873-1.338H122.812A1.949,1.949,0,0,0,120.939,378.143Z" transform="translate(38.756 399.633)" fill="#4d5152"/><rect width="10.705" height="4.014" transform="translate(163.576 750.345)" fill="#f9746c"/><g transform="translate(153.54 749.676)"><path d="M190.574,56.553h-10.7a.632.632,0,0,1-.669-.669V51.87a.632.632,0,0,1,.669-.669h10.7a.632.632,0,0,1,.669.669v4.014A.632.632,0,0,1,190.574,56.553Zm-10.036-1.338H189.9V52.539h-9.367Z" transform="translate(-169.833 -51.201)" fill="#4d5152"/><rect width="1.338" height="1.338" transform="translate(5.352 2.007)" fill="#4d5152"/><rect width="1.338" height="1.338" transform="translate(2.676 2.007)" fill="#4d5152"/><rect width="1.338" height="1.338" transform="translate(0 2.007)" fill="#4d5152"/><rect width="1.338" height="1.338" transform="translate(29.438 2.007)" fill="#4d5152"/><rect width="1.338" height="1.338" transform="translate(26.762 2.007)" fill="#4d5152"/><rect width="1.338" height="1.338" transform="translate(24.086 2.007)" fill="#4d5152"/><rect width="8.029" height="1.338" transform="translate(11.374 30.776)" fill="#4d5152"/><path d="M326.274,262.69h-2.007v-1.338h2.007a.632.632,0,0,0,.669-.669v-2.676a.632.632,0,0,0-.669-.669h-1.338V256h1.338a1.971,1.971,0,0,1,2.007,2.007v2.676A1.971,1.971,0,0,1,326.274,262.69Z" transform="translate(-303.526 -239.943)" fill="#4d5152"/></g></g></g></svg>