<svg xmlns="http://www.w3.org/2000/svg" xmlns:xlink="http://www.w3.org/1999/xlink" width="40" height="40" viewBox="0 0 40 40"><defs><clipPath id="a"><rect width="40" height="40" transform="translate(6600 -1815)" fill="none"/></clipPath></defs><g transform="translate(-6600 1815)" clip-path="url(#a)"><g transform="translate(6358 -2562)"><g transform="translate(1636 -11)"><g transform="translate(-1394 758)"><path d="M80,46.571h27.143V12.286A4.3,4.3,0,0,1,111.429,8H84.286A4.3,4.3,0,0,0,80,12.286Z" transform="translate(-79.286 -7.286)" fill="#fff"/><rect width="2.857" height="28.571" transform="translate(27.857 5)" fill="#6c63ff"/><circle cx="4.286" cy="4.286" r="4.286" transform="translate(27.857 0.714)" fill="#6c63ff"/><path d="M424.714,10H424V8.571h.714A3.537,3.537,0,0,0,428.286,5a3.537,3.537,0,0,0-3.571-3.571V0a4.969,4.969,0,0,1,5,5A4.969,4.969,0,0,1,424.714,10Z" transform="translate(-392.571)" fill="#4d5152"/><rect width="1.429" height="1.429" transform="translate(13.571 8.571)" fill="#4d5152"/><rect width="1.429" height="1.429" transform="translate(16.429 8.571)" fill="#4d5152"/><rect width="1.429" height="1.429" transform="translate(10.714 8.571)" fill="#4d5152"/><rect width="16.429" height="1.429" transform="translate(5.714 12.857)" fill="#4d5152"/><rect width="16.429" height="1.429" transform="translate(5.714 15.714)" fill="#4d5152"/><rect width="16.429" height="1.429" transform="translate(5.714 18.571)" fill="#4d5152"/><rect width="16.429" height="1.429" transform="translate(5.714 21.429)" fill="#4d5152"/><rect width="16.429" height="1.429" transform="translate(5.714 24.286)" fill="#4d5152"/><path d="M99.857,40H72.714A.675.675,0,0,1,72,39.286V5a4.969,4.969,0,0,1,5-5h27.143a.675.675,0,0,1,.714.714.675.675,0,0,1-.714.714A3.537,3.537,0,0,0,100.571,5V39.286A.675.675,0,0,1,99.857,40ZM73.429,38.571H99.143V5a4.96,4.96,0,0,1,1.5-3.571H77A3.537,3.537,0,0,0,73.429,5Z" transform="translate(-72)" fill="#4d5152"/><rect width="1.429" height="1.429" transform="translate(5.714 32.143)" fill="#4d5152"/><rect width="1.429" height="1.429" transform="translate(20.714 32.143)" fill="#4d5152"/><rect width="1.429" height="25" transform="translate(30 8.571)" fill="#4d5152"/><g transform="translate(9.643 21.429)"><path d="M205.714,378l-2.857-2.222L200,378V368h5.714Z" transform="translate(-198.571 -363.714)" fill="#f9746c"/><circle cx="4.286" cy="4.286" r="4.286" fill="#6c63ff"/></g></g></g></g></g></svg>