<svg xmlns="http://www.w3.org/2000/svg" width="175" height="34.522"><path d="M3.433 33.658a3.475 3.475 0 0 1-.351-.018 3.475 3.475 0 0 0 .351.018z" fill="#eaeaea"/><path d="M3.433 26.779H28.15V0H3.402a3.4 3.4 0 0 0-3.4 3.4v26.694a3.437 3.437 0 0 1 3.431-3.315z" fill="#e30c34"/><path d="M14.075 5.711 7.184 9.689v7.957l6.891 3.978 6.891-3.978V9.689zm0 5.3 6.891 7.954-2.288-1.319v-5.319l-2.289 1.321v-2.642l4.576-2.642 2.288 1.321zm4.6 5.311-2.3 1.326v-5.3l2.3-1.327z" fill="#fff"/><path d="M28.15 27.619H3.344a2.54 2.54 0 1 0 .252 5.073h24.553z" fill="#e6e6e6"/><path d="M9.747 30.092H4.622v4.43l2.555-1.416 2.571 1.416z" fill="#e30c34"/><path d="M40.236 20.208h-2.215V9.445h4.754c2.244 0 3.469 1.181 3.469 3.337 0 2.185-1.27 3.588-3.248 3.588h-2.76zm2.067-5.684c1.181 0 1.727-.517 1.727-1.609s-.546-1.624-1.727-1.624l-2.067-3.838v3.233zM49.936 11.29h-2.067V9.445h2.067zm0 8.918h-2.067v-7.973h2.067zM53.991 12.236v1.151a2.62 2.62 0 0 1 2.392-1.284 2.473 2.473 0 0 1 2.672 2.761v5.344h-2.064v-4.916c0-.945-.443-1.432-1.329-1.432a1.525 1.525 0 0 0-1.668 1.565v4.784h-2.067v-7.972zM68.095 12.236v8.238c0 1.875-1.388 2.953-3.794 2.953-2.111 0-3.5-.871-3.529-2.259h2.141a1.338 1.338 0 0 0 1.462.93 1.62 1.62 0 0 0 1.757-1.624v-1.078a2.669 2.669 0 0 1-2.259 1.151c-1.964 0-3.263-1.654-3.263-4.134s1.417-4.311 3.307-4.311a2.513 2.513 0 0 1 2.214 1.358v-1.225zm-5.418 4.149c0 1.447.679 2.436 1.653 2.436 1.078 0 1.831-.989 1.831-2.436 0-1.476-.768-2.554-1.8-2.554-1.005 0-1.684 1.048-1.684 2.554zM74.65 11.158c-1.742 0-2.79 1.417-2.79 3.794 0 2.347 1 3.735 2.717 3.735a2.2 2.2 0 0 0 2.377-2.156h2.156c-.133 2.465-1.92 4.016-4.592 4.016-3 0-4.872-2.17-4.872-5.625 0-3.484 1.89-5.655 4.931-5.655 2.51 0 4.3 1.4 4.488 3.824h-2.111a2.173 2.173 0 0 0-2.304-1.933zM82.83 18.038l-.723 2.17h-2.259l3.824-10.763h2.451l3.721 10.763H87.57l-.709-2.17zm2.023-6.053-1.4 4.208h2.805zM93.386 20.208h-2.215V9.445h4.754c2.244 0 3.469 1.181 3.469 3.337 0 2.185-1.27 3.588-3.248 3.588h-2.761zm2.067-5.684c1.181 0 1.727-.517 1.727-1.609s-.546-1.624-1.727-1.624h-2.067v3.233zM107.485 18.365h5.832v1.846h-8.046V9.445h7.78v1.845h-5.566v2.436h5.153v1.846h-5.153zM114.498 16.34c0-2.406 1.447-4.237 3.351-4.237a2.4 2.4 0 0 1 2.2 1.167V9.446h2.067v10.763h-2.067v-.812a2.424 2.424 0 0 1-2.2 1.152c-2.007-.001-3.351-1.877-3.351-4.209zm2.067 0c0 1.462.708 2.48 1.742 2.48s1.742-1 1.742-2.451c0-1.521-.694-2.539-1.742-2.539s-1.742 1.035-1.742 2.51zM129.099 20.208v-.945a2.62 2.62 0 0 1-2.392 1.284 2.473 2.473 0 0 1-2.672-2.761v-5.551h2.067v5.123c0 .96.443 1.432 1.329 1.432a1.525 1.525 0 0 0 1.668-1.565v-4.99h2.067v7.972zM134.783 16.385c0 1.55.635 2.495 1.683 2.495.8 0 1.211-.4 1.476-1.432h1.979a3.28 3.28 0 0 1-3.469 3.1c-2.362 0-3.735-1.535-3.735-4.163 0-2.717 1.388-4.282 3.765-4.282a3.179 3.179 0 0 1 3.44 3.115h-1.979c-.236-1.048-.635-1.447-1.476-1.447-1.433 0-1.684 1.506-1.684 2.614zM140.954 18.156c0-1.432.768-2.244 2.348-2.51l.827-.148c.679-.1 1.653-.147 1.653-.93q0-.8-1.2-.8c-1.019 0-1.358.266-1.462 1.093h-1.993c.133-1.845 1.255-2.761 3.411-2.761s3.263.827 3.263 2.451v4.429a1.137 1.137 0 0 0 .472.974v.251h-2.244a1.018 1.018 0 0 1-.236-.8 3.31 3.31 0 0 1-2.421 1.137 2.278 2.278 0 0 1-2.418-2.386zm4.828-1.713a2.592 2.592 0 0 1-.871.251l-.709.133c-.856.177-1.181.472-1.181 1.093 0 .591.428.959 1.122.959 1.048 0 1.639-.679 1.639-1.875zM153.267 13.772h-1.151v4.341c0 .708.133.871.679.871a3.115 3.115 0 0 0 .473-.044v1.447a3.78 3.78 0 0 1-1.2.163c-1.358 0-2.023-.62-2.023-1.875v-4.9h-1.019v-1.373h1.019v-2.141h2.067v2.141h1.151zM156.811 11.29h-2.067V9.445h2.067zm0 8.918h-2.067v-7.973h2.067zM166.319 16.385c0 2.554-1.521 4.163-3.942 4.163-2.451 0-3.942-1.594-3.942-4.222s1.491-4.223 3.927-4.223c2.495.002 3.957 1.58 3.957 4.282zm-5.817-.059c0 1.521.753 2.554 1.875 2.554 1.107 0 1.875-1.033 1.875-2.524 0-1.565-.738-2.584-1.875-2.584s-1.875 1.033-1.875 2.554zM169.936 12.236v1.151a2.62 2.62 0 0 1 2.392-1.284A2.473 2.473 0 0 1 175 14.864v5.344h-2.067v-4.916c0-.945-.443-1.432-1.329-1.432a1.525 1.525 0 0 0-1.668 1.565v4.784h-2.067v-7.972z" fill="#172d72"/></svg>