<svg xmlns="http://www.w3.org/2000/svg" viewBox="0 0 122.064 28"><path d="M91.238 17.876h-.005l-.036.058a6.377 6.377 0 0 1-2.182 2.083 5.84 5.84 0 0 1-2.987.864 5.964 5.964 0 0 1-4.521-2.063 6.971 6.971 0 0 1-1.81-4.928 6.861 6.861 0 0 1 1.868-4.675 6.05 6.05 0 0 1 9.612.926l.037.057h.035l1.485-.918a8.234 8.234 0 0 0-2.453-2.608 7.657 7.657 0 0 0-4.252-1.286 7.457 7.457 0 0 0-5.677 2.419 8.533 8.533 0 0 0-2.382 6.168 8.918 8.918 0 0 0 2.36 6.187 7.415 7.415 0 0 0 5.62 2.55h.081a7.775 7.775 0 0 0 6.7-3.913zM102.326 5.6h-2.018l-7.5 16.788h2.393l2.318-5.58.819-1.744 3.019-7.085 2.959 7.085h-4.247l-.774 1.744h5.711l2.339 5.58h2.11zm18.106 1.537a6.015 6.015 0 0 0-4.165-1.515h-5.432v16.765h1.979V7.429h3.539a3.93 3.93 0 0 1 2.58.9 2.88 2.88 0 0 1 1.173 2.222 2.948 2.948 0 0 1-1.052 2.556 3.721 3.721 0 0 1-2.594.953h-2.05v1.765h2.372a5.3 5.3 0 0 0 3.694-1.408 4.611 4.611 0 0 0 1.588-3.486 4.744 4.744 0 0 0-1.632-3.794zM46.721 5.931H48.7V7.91h-1.979zm0 4.434H48.7v12.049h-1.979zm29.807 10.844v-5.174a6.579 6.579 0 0 0-6.618-6.55 6.229 6.229 0 0 0-4.426 1.994 6.385 6.385 0 0 0-1.8 4.533 6.512 6.512 0 0 0 1.948 4.707 6.046 6.046 0 0 0 4.648 1.863 6.169 6.169 0 0 0 4.371-1.961v.821m0 0a3.765 3.765 0 0 1-1.29 2.845 4.313 4.313 0 0 1-3.021 1.23 4.423 4.423 0 0 1-2.692-.9 4.126 4.126 0 0 1-1.427-1.677l-1.515.875a5.81 5.81 0 0 0 1.582 1.912 6.5 6.5 0 0 0 3.854 1.359c.094 0 .188.005.282.005a6.5 6.5 0 0 0 4.141-1.472 4.858 4.858 0 0 0 1.959-3.944v-.469m-1.909-5.046a4.648 4.648 0 0 1-1.337 3.217 4.088 4.088 0 0 1-3.1 1.333 4.341 4.341 0 0 1-3.212-1.335 4.484 4.484 0 0 1-1.378-3.236 4.558 4.558 0 0 1 1.254-3.279 4.334 4.334 0 0 1 3.107-1.5c.081 0 .16-.006.239-.006a4.062 4.062 0 0 1 3.094 1.382 4.533 4.533 0 0 1 1.333 3.424zM43.198 7.137a6.016 6.016 0 0 0-4.165-1.515h-5.432v16.765h1.979V7.429h3.539a3.93 3.93 0 0 1 2.581.9 2.879 2.879 0 0 1 1.173 2.222 2.948 2.948 0 0 1-1.052 2.556 3.722 3.722 0 0 1-2.594.953h-2.05v1.765h2.372a5.305 5.305 0 0 0 3.694-1.408 4.611 4.611 0 0 0 1.588-3.486 4.744 4.744 0 0 0-1.633-3.794zM56.47 9.628a5.349 5.349 0 0 0-3.966 1.622 5.55 5.55 0 0 0-1.578 4.028v7.084h1.909v-7.259a3.466 3.466 0 0 1 1.074-2.56 3.51 3.51 0 0 1 2.56-1.074 3.418 3.418 0 0 1 2.517 1.078 3.479 3.479 0 0 1 1.1 2.56v7.255h1.909v-7.084a5.55 5.55 0 0 0-1.578-4.028 5.323 5.323 0 0 0-3.947-1.622zm-42.471-3.1L1.693 3.064a1.333 1.333 0 0 0-1.165.214A1.293 1.293 0 0 0 0 4.324v22.364a1.3 1.3 0 0 0 .505 1.028 1.332 1.332 0 0 0 .821.282 1.36 1.36 0 0 0 .311-.036l12.307-2.892a1.31 1.31 0 0 0 1.02-1.274V7.787a1.319 1.319 0 0 0-.965-1.259z" fill="#172d72"/><path d="M22.382 5.732a1.319 1.319 0 0 0-.963-1.256L5.755.052a1.333 1.333 0 0 0-1.166.213 1.293 1.293 0 0 0-.529 1.046v16.97a1.3 1.3 0 0 0 .506 1.029 1.333 1.333 0 0 0 .819.281 1.349 1.349 0 0 0 .314-.037l15.682-3.722a1.309 1.309 0 0 0 1.018-1.276z" fill="#00aeef"/><path d="M13.999 6.528 4.061 3.733v14.548a1.3 1.3 0 0 0 .506 1.029 1.333 1.333 0 0 0 .819.281 1.349 1.349 0 0 0 .314-.037l9.263-2.2V7.786a1.319 1.319 0 0 0-.964-1.258z" fill="#3d3fea"/></svg>