<svg xmlns="http://www.w3.org/2000/svg" viewBox="0 0 82.272 32"><path d="M0 8v16l13.856 8 13.856-8V8L13.856 0z" fill="#e30c34"/><path d="m13.853 5.341-9.2 5.313v5.312l4.6-2.657v10.7l4.6 2.652V10.655l4.6-2.656zm4.622 7.995V24l4.62-2.667V10.667z" fill="#fff"/><path d="M40.512 24.043h-3.307V10.726h-4.868V7.97h12.876v2.756h-4.7zM50.5 10.727h-3.087V7.971H50.5zm0 13.317h-3.087V12.143H50.5zm6.614-.001h-3.307V7.97h3.307v7.056l6.284-7.056h3.9l-6.416 6.923 7.1 9.15h-3.947l-5.27-7.1-1.654 1.72zm16.845 0L68.535 7.97h3.329l3.572 12.1 3.506-12.1h3.33l-5.513 16.073z" fill="#172d72"/></svg>