<svg xmlns="http://www.w3.org/2000/svg" viewBox="0 0 130.772 32"><g fill="#172d72"><path d="M5.107 6.098a1.461 1.461 0 0 1 .507.092A17.278 17.278 0 0 1 7.03.638a.443.443 0 0 0-.793-.393 17.748 17.748 0 0 0-1.509 5.9 1.461 1.461 0 0 1 .379-.047zm1.462 1.466a1.456 1.456 0 0 1-.212.756 46.66 46.66 0 0 0 2.018.314.436.436 0 0 0 .059 0 .442.442 0 0 0 .058-.881 44.67 44.67 0 0 1-1.928-.3c.002.039.005.075.005.111zM.285 6.762a30.488 30.488 0 0 0 3.367.992 1.427 1.427 0 0 1-.014-.191 1.457 1.457 0 0 1 .17-.685 30.693 30.693 0 0 1-3.209-.943.442.442 0 1 0-.315.827z"/><path d="M31.426 14.952a.442.442 0 0 0-.561-.277 43.067 43.067 0 0 1-5.756 1.364 22.445 22.445 0 0 1-1.6-7.593 47.687 47.687 0 0 0 7.64-1.679.443.443 0 0 0-.285-.838 46.562 46.562 0 0 1-7.375 1.625 17.468 17.468 0 0 1 1.48-6.917.443.443 0 0 0-.793-.393 18.018 18.018 0 0 0-1.571 7.433q-.768.1-1.591.186a57.654 57.654 0 0 1-6.487.3c0-.061 0-.12-.006-.181A17.467 17.467 0 0 1 15.997.638a.443.443 0 0 0-.793-.393 18.036 18.036 0 0 0-1.568 7.758v.147q-1.279-.034-2.541-.125a42.098 42.098 0 0 1-.7-.057.443.443 0 0 0-.079.882c.236.021.476.041.713.058.875.064 1.757.1 2.643.127a22.183 22.183 0 0 0 1.085 5.778 2.075 2.075 0 0 0-.2.12 2.888 2.888 0 0 0-1.268 1.951 54.626 54.626 0 0 1-2.191-.113 44.267 44.267 0 0 1-3.828-.449 22.827 22.827 0 0 1-1.681-7.378 1.442 1.442 0 0 1-.886.029 22.955 22.955 0 0 0 1.556 7.175 36.321 36.321 0 0 1-5.661-1.466.443.443 0 0 0-.315.827 36.778 36.778 0 0 0 6.343 1.607l.029.076a22.342 22.342 0 0 1 1.615 5.831 16.609 16.609 0 0 1 .1 2.21 39.083 39.083 0 0 1-7.777-1.805.443.443 0 0 0-.315.827 39 39 0 0 0 8.056 1.868 20.214 20.214 0 0 1-1.051 5.278.442.442 0 1 0 .826.316 20.482 20.482 0 0 0 1.109-5.485q.874.1 1.81.169 2.012.147 4.065.147c.725 0 1.454-.019 2.184-.046a20.068 20.068 0 0 1-1.023 4.9.443.443 0 0 0 .827.316 20.4 20.4 0 0 0 1.092-5.252q1.46-.077 2.925-.227a.443.443 0 1 0-.091-.88c-.93.1-1.859.167-2.786.218a17.934 17.934 0 0 0-.1-2.654 18.582 18.582 0 0 0-.612-3.014c.074-.04.149-.076.22-.122a2.88 2.88 0 0 0 1.25-1.832q.03-.145.046-.289a56.121 56.121 0 0 0 5.513-.63l.061.158a22.328 22.328 0 0 1 1.615 5.831c.061.521.093 1.035.1 1.538-.988.2-2.112.392-3.351.562a.442.442 0 0 0 .059.881.464.464 0 0 0 .061 0c1.19-.163 2.27-.347 3.227-.533a20.3 20.3 0 0 1-1.082 5.935.442.442 0 1 0 .826.316 20.686 20.686 0 0 0 1.147-6.432 37.619 37.619 0 0 0 3.943-1.024.443.443 0 0 0-.285-.838 37.379 37.379 0 0 1-3.664.956 17.137 17.137 0 0 0-.106-1.458 23.348 23.348 0 0 0-1.665-6.039 43.638 43.638 0 0 0 5.72-1.367.443.443 0 0 0 .282-.57zM17.338 25.616a55.662 55.662 0 0 1-6.238-.1 42.4 42.4 0 0 1-1.837-.174 17.773 17.773 0 0 0-.111-2.423 22.178 22.178 0 0 0-1.514-5.643c1.049.156 2.186.288 3.4.376q1.115.082 2.244.116a2.885 2.885 0 0 0 2.271 2.425 2.911 2.911 0 0 0 .6.063 2.839 2.839 0 0 0 .526-.055 17.593 17.593 0 0 1 .567 2.82 16.849 16.849 0 0 1 .091 2.595zm.786-7.9c0 .017 0 .033-.008.05a2 2 0 0 1-.869 1.272 2 2 0 0 1-.829.307c-.03 0-.061.006-.091.009h-.024a1.991 1.991 0 0 1-2.026-1.265q-.032-.083-.057-.167l-.016-.061-.02-.073a2.013 2.013 0 0 1 0-.887c.007-.031.017-.062.026-.093s.011-.043.018-.064c.014-.045.031-.088.048-.132l.017-.044c.023-.056.05-.11.078-.164a1.989 1.989 0 0 1 .667-.729l.013-.007a2 2 0 0 1 .832-.3h.06l.076-.006c.039 0 .077-.008.116-.008a2.035 2.035 0 0 1 .417.043 2 2 0 0 1 1.272.869c.017.027.029.056.045.083a2.12 2.12 0 0 1 .125.248 2.031 2.031 0 0 1 .079.222c0 .008.006.016.009.024a2.012 2.012 0 0 1 .035.887zm2.891-1.111c-.677.07-1.354.124-2.029.17a2.9 2.9 0 0 0-3.387-2.269 21.426 21.426 0 0 1-1.031-5.461h.533a58.717 58.717 0 0 0 6.005-.31q.786-.081 1.524-.177a23.013 23.013 0 0 0 1.591 7.621 50.429 50.429 0 0 1-3.207.431z"/></g><g transform="translate(21.548 6.641)" fill="#f25c7c"><circle cx="1.465" cy="1.465" r="1.465"/><circle cx=".488" cy=".488" r=".488" transform="translate(.977 .977)"/></g><g transform="translate(5.479 15.175)" fill="#10a6fa"><circle cx="1.465" cy="1.465" r="1.465"/><circle cx=".488" cy=".488" r=".488" transform="translate(.977 .977)"/></g><circle cx="1.465" cy="1.465" r="1.465" transform="translate(12.593 7.148)" fill="#10a6fa"/><path d="M24.818 15.029a1.465 1.465 0 1 0 1.465 1.465 1.465 1.465 0 0 0-1.465-1.465z" fill="#10a6fa"/><g transform="translate(3.622 6.099)" fill="#f25c7c"><circle cx="1.465" cy="1.465" r="1.465"/><circle cx=".488" cy=".488" r=".488" transform="translate(.977 .977)"/></g><g transform="translate(7.274 24.23)" fill="#f25c7c"><circle cx="1.465" cy="1.465" r="1.465"/><circle cx=".488" cy=".488" r=".488" transform="translate(.977 .977)"/></g><circle cx="1.465" cy="1.465" r="1.465" transform="translate(25.265 23.425)" fill="#f25c7c"/><g transform="translate(16.253 24.639)" fill="#10a6fa"><circle cx="1.465" cy="1.465" r="1.465"/><circle cx=".488" cy=".488" r=".488" transform="translate(.977 .977)"/></g><path d="M6.961 18.799a2.158 2.158 0 1 1 2.158-2.158 2.161 2.161 0 0 1-2.158 2.158zm0-3.431a1.273 1.273 0 1 0 1.273 1.273 1.275 1.275 0 0 0-1.273-1.273zM5.103 9.723a2.158 2.158 0 1 1 2.158-2.158 2.161 2.161 0 0 1-2.158 2.158zm0-3.432a1.273 1.273 0 1 0 1.273 1.274 1.275 1.275 0 0 0-1.273-1.274zm8.971 4.485a2.158 2.158 0 1 1 2.158-2.158 2.161 2.161 0 0 1-2.158 2.158zm0-3.432a1.273 1.273 0 1 0 1.273 1.273 1.275 1.275 0 0 0-1.273-1.277zm8.955 2.921a2.158 2.158 0 1 1 2.158-2.158 2.161 2.161 0 0 1-2.158 2.158zm0-3.432a1.273 1.273 0 1 0 1.273 1.273 1.275 1.275 0 0 0-1.273-1.272zm1.805 11.819a2.158 2.158 0 1 1 2.158-2.158 2.161 2.161 0 0 1-2.158 2.158zm0-3.432a1.273 1.273 0 1 0 1.273 1.273 1.275 1.275 0 0 0-1.273-1.272zm1.913 11.829a2.158 2.158 0 1 1 2.158-2.158 2.161 2.161 0 0 1-2.158 2.158zm0-3.432a1.273 1.273 0 1 0 1.273 1.273 1.275 1.275 0 0 0-1.273-1.272zm-9.013 4.646a2.158 2.158 0 1 1 2.158-2.158 2.161 2.161 0 0 1-2.158 2.158zm0-3.432a1.273 1.273 0 1 0 1.273 1.273 1.275 1.275 0 0 0-1.273-1.273zm-8.978 3.022a2.158 2.158 0 1 1 2.158-2.158 2.161 2.161 0 0 1-2.158 2.158zm0-3.432a1.273 1.273 0 1 0 1.273 1.273 1.275 1.275 0 0 0-1.273-1.272z" fill="#172d72"/><g fill="#172d72"><path d="M43.684 11.402c-1.746 0-2.8 1.42-2.8 3.8 0 2.352 1.006 3.743 2.722 3.743a2.207 2.207 0 0 0 2.382-2.16h2.16c-.133 2.471-1.923 4.024-4.6 4.024-3 0-4.882-2.175-4.882-5.637 0-3.492 1.894-5.666 4.941-5.666 2.515 0 4.305 1.405 4.5 3.832h-2.113a2.178 2.178 0 0 0-2.31-1.936zm9.69 2.706a1.523 1.523 0 0 0-1.6 1.568v4.793h-2.065V9.68h2.071v3.95a2.609 2.609 0 0 1 2.338-1.287 2.452 2.452 0 0 1 2.6 2.767v5.355h-2.071v-4.882c-.001-.853-.311-1.475-1.273-1.475zm4.896 4.305c0-1.435.769-2.249 2.352-2.515l.828-.148c.681-.1 1.657-.148 1.657-.932q0-.8-1.2-.8c-1.021 0-1.361.266-1.465 1.095h-2c.133-1.849 1.258-2.767 3.417-2.767s3.27.828 3.27 2.456v4.438a1.139 1.139 0 0 0 .474.976v.252h-2.249a1.02 1.02 0 0 1-.237-.8 3.318 3.318 0 0 1-2.426 1.139 2.283 2.283 0 0 1-2.421-2.394zm4.838-1.716a2.608 2.608 0 0 1-.873.252l-.71.133c-.858.177-1.184.473-1.184 1.095 0 .592.429.962 1.125.962 1.05 0 1.642-.68 1.642-1.879zm11.435-.06c0 2.559-1.524 4.172-3.95 4.172-2.456 0-3.95-1.6-3.95-4.231s1.494-4.231 3.935-4.231c2.501 0 3.965 1.584 3.965 4.29zm-5.829-.059c0 1.524.755 2.559 1.879 2.559s1.879-1.036 1.879-2.53c0-1.568-.74-2.589-1.879-2.589s-1.879 1.036-1.879 2.56zm10.518 2.604c.962 0 1.539-.3 1.539-.784 0-.325-.178-.488-.7-.651l-2.471-.769a1.972 1.972 0 0 1-1.746-1.968c0-1.642 1.258-2.663 3.284-2.663 2.145 0 3.447 1.021 3.477 2.707h-2c-.015-.725-.5-1.08-1.494-1.08-.725 0-1.2.3-1.2.74 0 .325.148.444.725.621l2.619.755a1.941 1.941 0 0 1 1.568 2.012c0 1.11-.7 2.708-3.492 2.708-2.426 0-3.713-.917-3.773-2.663h2.027c.128.547.335 1.035 1.637 1.035zm11.642 1.288h-2.219V9.68h3.311l1.953 8.581 1.894-8.581h3.343v10.785h-2.219v-8.4l-1.909 8.4h-2.219l-1.938-8.4zm17.501-3.7a3.5 3.5 0 0 1-.015.355h-5.355c.044 1.08.266 2.1 1.657 2.1a1.6 1.6 0 0 0 1.583-1.006h2.042a3.7 3.7 0 0 1-3.7 2.589c-2.264 0-3.654-1.568-3.654-4.128 0-2.678 1.406-4.335 3.7-4.335 1.597.002 3.742.886 3.742 4.425zm-3.773-2.841c-.917 0-1.435.607-1.568 1.82h3.184c-.091-1.168-.653-1.818-1.615-1.818zm8.462 5.253c.962 0 1.539-.3 1.539-.784 0-.325-.178-.488-.7-.651l-2.471-.769a1.972 1.972 0 0 1-1.746-1.968c0-1.642 1.258-2.663 3.285-2.663 2.145 0 3.447 1.021 3.477 2.707h-2c-.015-.725-.5-1.08-1.494-1.08-.725 0-1.2.3-1.2.74 0 .325.148.444.725.621l2.619.755a1.941 1.941 0 0 1 1.568 2.012c0 1.11-.7 2.708-3.491 2.708-2.426 0-3.713-.917-3.773-2.663h2.027c.126.547.333 1.035 1.635 1.035zm8.758-5.074a1.523 1.523 0 0 0-1.6 1.568v4.793h-2.071V9.68h2.071v3.95a2.608 2.608 0 0 1 2.337-1.287 2.452 2.452 0 0 1 2.6 2.767v5.355h-2.071v-4.882c.006-.853-.304-1.475-1.266-1.475z"/></g><path d="M130.772 11.366a1.862 1.862 0 1 1-1.859-1.859 1.859 1.859 0 0 1 1.859 1.859zm-3.344 0a1.482 1.482 0 1 0 1.48-1.509 1.506 1.506 0 0 0-1.485 1.509zm1.09 1.076h-.467v-2.156h1.158a.584.584 0 0 1 .248 1.115c.253.117.263.151.277.774a.15.15 0 0 0 .093.166v.1h-.5a.706.706 0 0 1-.068-.394v-.21c0-.166-.093-.239-.3-.239h-.448zm.5-1.236c.234 0 .312-.063.312-.263s-.078-.263-.312-.263h-.5v.526z" fill="#172d72"/></svg>