<svg xmlns="http://www.w3.org/2000/svg" xmlns:xlink="http://www.w3.org/1999/xlink" width="40" height="40" viewBox="0 0 40 40"><defs><clipPath id="a"><rect width="40" height="40" transform="translate(6590 -1285)" fill="#fff" stroke="#707070" stroke-width="1"/></clipPath></defs><g transform="translate(-6590 1285)" clip-path="url(#a)"><g transform="translate(6392.682 -2031.875)"><g transform="translate(204.945 747.502)"><path d="M121.555,36.213V30.57a12.135,12.135,0,0,0,6.27-10.658,11.912,11.912,0,0,0-23.824,0,12.061,12.061,0,0,0,6.27,10.658v5.643" transform="translate(-104 -8)" fill="#fff"/><path d="M235.762,480v1.881H232V480" transform="translate(-221.969 -443.01)" fill="#fff"/></g><g transform="translate(209.677 775.95)"><rect width="1" height="6" transform="translate(1.323 1.049)" fill="#4d5152"/><rect width="3" height="6" transform="translate(11.323 1.049)" fill="#4d5152"/><rect width="15" height="1" transform="translate(0.323 0.049)" fill="#4d5152"/></g><rect width="9" height="6" transform="translate(212 777)" fill="#f9746c"/><g transform="translate(204.318 746.875)"><rect width="15" height="1" transform="translate(5.682 31.125)" fill="#4d5152"/><rect width="15" height="2" transform="translate(5.682 33.125)" fill="#4d5152"/><rect width="15" height="2" transform="translate(5.682 36.125)" fill="#4d5152"/><path d="M229.016,482.508H224V480h1.254v1.254h2.508V480h1.254Z" transform="translate(-213.969 -442.383)" fill="#4d5152"/><path d="M114.809,28.84h-1.254V22.821l.313-.188a11.5,11.5,0,0,0,5.956-10.094,11.285,11.285,0,0,0-22.57,0,11.5,11.5,0,0,0,5.956,10.094l.313.188V28.84H102.27V23.573A12.845,12.845,0,0,1,96,12.539a12.539,12.539,0,1,1,25.078,0,12.924,12.924,0,0,1-6.27,11.034Z" transform="translate(-96)" fill="#4d5152"/><rect width="2" height="6" transform="translate(9.682 23.125)" fill="#4d5152"/><rect width="1" height="6" transform="translate(13.682 23.125)" fill="#4d5152"/></g><circle cx="8" cy="8" r="8" transform="translate(209 752)" fill="#6c63ff"/><g transform="translate(212.468 757.279)"><path d="M203.135,155.762a.569.569,0,0,1-.439-.188l-2.508-2.508a.621.621,0,1,1,.878-.878l2.508,2.508a.606.606,0,0,1,0,.878A.569.569,0,0,1,203.135,155.762Z" transform="translate(-200 -149.492)" fill="#fff"/><path d="M232.627,126.27a.569.569,0,0,1-.439-.188.606.606,0,0,1,0-.878l5.016-5.016a.621.621,0,0,1,.878.878l-5.016,5.016A.569.569,0,0,1,232.627,126.27Z" transform="translate(-229.492 -120)" fill="#fff"/></g></g></g></svg>