<svg xmlns="http://www.w3.org/2000/svg" viewBox="0 0 153.6 94" style="enable-background:new 0 0 153.6 94" xml:space="preserve"><g transform="translate(-156.184 -123.115)"><radialGradient id="a" cx="-61.237" cy="533.496" r="24.766" gradientTransform="matrix(7.98 0 0 -7.98 646.87 4386.707)" gradientUnits="userSpaceOnUse"><stop offset="0" style="stop-color:#35fff7"/><stop offset=".164" style="stop-color:#31dee2"/><stop offset=".525" style="stop-color:#288aae"/><stop offset="1" style="stop-color:#1b1464"/></radialGradient><path d="M305.8 209.1c-2.2 0-4 1.8-4 4s1.8 4 4 4 4-1.8 4-4-1.8-4-4-4z" style="fill:url(#a)"/><radialGradient id="b" cx="-56.676" cy="533.496" r="24.766" gradientTransform="matrix(7.98 0 0 -7.98 610.47 4386.707)" gradientUnits="userSpaceOnUse"><stop offset="0" style="stop-color:#35fff7"/><stop offset=".164" style="stop-color:#31dee2"/><stop offset=".525" style="stop-color:#288aae"/><stop offset="1" style="stop-color:#1b1464"/></radialGradient><path d="M269.4 209.1c-2.2 0-4 1.8-4 4s1.8 4 4 4 4-1.8 4-4-1.8-4-4-4z" style="fill:url(#b)"/><radialGradient id="c" cx="-52.116" cy="533.496" r="24.766" gradientTransform="matrix(7.98 0 0 -7.98 574.071 4386.707)" gradientUnits="userSpaceOnUse"><stop offset="0" style="stop-color:#35fff7"/><stop offset=".164" style="stop-color:#31dee2"/><stop offset=".525" style="stop-color:#288aae"/><stop offset="1" style="stop-color:#1b1464"/></radialGradient><path d="M233 209.1c-2.2 0-4 1.8-4 4s1.8 4 4 4 4-1.8 4-4-1.8-4-4-4z" style="fill:url(#c)"/><radialGradient id="d" cx="-47.554" cy="533.496" r="24.766" gradientTransform="matrix(7.98 0 0 -7.98 537.673 4386.707)" gradientUnits="userSpaceOnUse"><stop offset="0" style="stop-color:#35fff7"/><stop offset=".164" style="stop-color:#31dee2"/><stop offset=".525" style="stop-color:#288aae"/><stop offset="1" style="stop-color:#1b1464"/></radialGradient><path d="M196.6 209.1c-2.2 0-4 1.8-4 4s1.8 4 4 4 4-1.8 4-4-1.8-4-4-4z" style="fill:url(#d)"/><radialGradient id="e" cx="-42.992" cy="533.496" r="24.766" gradientTransform="matrix(7.98 0 0 -7.98 501.275 4386.707)" gradientUnits="userSpaceOnUse"><stop offset="0" style="stop-color:#35fff7"/><stop offset=".164" style="stop-color:#31dee2"/><stop offset=".525" style="stop-color:#288aae"/><stop offset="1" style="stop-color:#1b1464"/></radialGradient><path d="M160.2 209.1c-2.2 0-4 1.8-4 4s1.8 4 4 4 4-1.8 4-4-1.8-4-4-4z" style="fill:url(#e)"/><radialGradient id="f" cx="-61.237" cy="529.902" r="24.766" gradientTransform="matrix(7.98 0 0 -7.98 646.87 4358.038)" gradientUnits="userSpaceOnUse"><stop offset="0" style="stop-color:#35fff7"/><stop offset=".164" style="stop-color:#31dee2"/><stop offset=".525" style="stop-color:#288aae"/><stop offset="1" style="stop-color:#1b1464"/></radialGradient><path d="M305.8 180.5c-2.2 0-4 1.8-4 4s1.8 4 4 4 4-1.8 4-4c0-2.3-1.8-4-4-4z" style="fill:url(#f)"/><radialGradient id="g" cx="-56.677" cy="529.902" r="24.765" gradientTransform="matrix(7.98 0 0 -7.98 610.47 4358.04)" gradientUnits="userSpaceOnUse"><stop offset="0" style="stop-color:#35fff7"/><stop offset=".164" style="stop-color:#31dee2"/><stop offset=".525" style="stop-color:#288aae"/><stop offset="1" style="stop-color:#1b1464"/></radialGradient><circle cx="269.4" cy="184.5" r="4" style="fill:url(#g)"/><radialGradient id="h" cx="-52.116" cy="529.902" r="24.766" gradientTransform="matrix(7.98 0 0 -7.98 574.071 4358.038)" gradientUnits="userSpaceOnUse"><stop offset="0" style="stop-color:#35fff7"/><stop offset=".164" style="stop-color:#31dee2"/><stop offset=".525" style="stop-color:#288aae"/><stop offset="1" style="stop-color:#1b1464"/></radialGradient><path d="M233 180.5c-2.2 0-4 1.8-4 4s1.8 4 4 4 4-1.8 4-4c0-2.3-1.8-4-4-4z" style="fill:url(#h)"/><radialGradient id="i" cx="-47.554" cy="529.902" r="24.766" gradientTransform="matrix(7.98 0 0 -7.98 537.673 4358.038)" gradientUnits="userSpaceOnUse"><stop offset="0" style="stop-color:#35fff7"/><stop offset=".164" style="stop-color:#31dee2"/><stop offset=".525" style="stop-color:#288aae"/><stop offset="1" style="stop-color:#1b1464"/></radialGradient><path d="M196.6 180.5c-2.2 0-4 1.8-4 4s1.8 4 4 4 4-1.8 4-4c0-2.3-1.8-4-4-4z" style="fill:url(#i)"/><radialGradient id="j" cx="-42.992" cy="529.902" r="24.766" gradientTransform="matrix(7.98 0 0 -7.98 501.275 4358.038)" gradientUnits="userSpaceOnUse"><stop offset="0" style="stop-color:#35fff7"/><stop offset=".164" style="stop-color:#31dee2"/><stop offset=".525" style="stop-color:#288aae"/><stop offset="1" style="stop-color:#1b1464"/></radialGradient><path d="M160.2 180.5c-2.2 0-4 1.8-4 4s1.8 4 4 4 4-1.8 4-4-1.8-4-4-4z" style="fill:url(#j)"/><radialGradient id="k" cx="-61.237" cy="526.309" r="24.766" gradientTransform="matrix(7.98 0 0 -7.98 646.87 4329.364)" gradientUnits="userSpaceOnUse"><stop offset="0" style="stop-color:#35fff7"/><stop offset=".164" style="stop-color:#31dee2"/><stop offset=".525" style="stop-color:#288aae"/><stop offset="1" style="stop-color:#1b1464"/></radialGradient><path d="M305.8 151.8c-2.2 0-4 1.8-4 4s1.8 4 4 4 4-1.8 4-4-1.8-4-4-4z" style="fill:url(#k)"/><radialGradient id="l" cx="-56.676" cy="526.309" r="24.766" gradientTransform="matrix(7.98 0 0 -7.98 610.47 4329.364)" gradientUnits="userSpaceOnUse"><stop offset="0" style="stop-color:#35fff7"/><stop offset=".164" style="stop-color:#31dee2"/><stop offset=".525" style="stop-color:#288aae"/><stop offset="1" style="stop-color:#1b1464"/></radialGradient><path d="M269.4 151.8c-2.2 0-4 1.8-4 4s1.8 4 4 4 4-1.8 4-4-1.8-4-4-4z" style="fill:url(#l)"/><radialGradient id="m" cx="-52.116" cy="526.309" r="24.766" gradientTransform="matrix(7.98 0 0 -7.98 574.071 4329.364)" gradientUnits="userSpaceOnUse"><stop offset="0" style="stop-color:#35fff7"/><stop offset=".164" style="stop-color:#31dee2"/><stop offset=".525" style="stop-color:#288aae"/><stop offset="1" style="stop-color:#1b1464"/></radialGradient><path d="M233 151.8c-2.2 0-4 1.8-4 4s1.8 4 4 4 4-1.8 4-4-1.8-4-4-4z" style="fill:url(#m)"/><radialGradient id="n" cx="-47.554" cy="526.309" r="24.766" gradientTransform="matrix(7.98 0 0 -7.98 537.673 4329.364)" gradientUnits="userSpaceOnUse"><stop offset="0" style="stop-color:#35fff7"/><stop offset=".164" style="stop-color:#31dee2"/><stop offset=".525" style="stop-color:#288aae"/><stop offset="1" style="stop-color:#1b1464"/></radialGradient><path d="M196.6 151.8c-2.2 0-4 1.8-4 4s1.8 4 4 4 4-1.8 4-4-1.8-4-4-4z" style="fill:url(#n)"/><radialGradient id="o" cx="-42.992" cy="526.309" r="24.766" gradientTransform="matrix(7.98 0 0 -7.98 501.275 4329.364)" gradientUnits="userSpaceOnUse"><stop offset="0" style="stop-color:#35fff7"/><stop offset=".164" style="stop-color:#31dee2"/><stop offset=".525" style="stop-color:#288aae"/><stop offset="1" style="stop-color:#1b1464"/></radialGradient><path d="M160.2 151.8c-2.2 0-4 1.8-4 4s1.8 4 4 4 4-1.8 4-4-1.8-4-4-4z" style="fill:url(#o)"/><radialGradient id="p" cx="-61.237" cy="522.715" r="24.766" gradientTransform="matrix(7.98 0 0 -7.98 646.867 4300.7)" gradientUnits="userSpaceOnUse"><stop offset="0" style="stop-color:#35fff7"/><stop offset=".164" style="stop-color:#31dee2"/><stop offset=".525" style="stop-color:#288aae"/><stop offset="1" style="stop-color:#1b1464"/></radialGradient><path d="M305.8 131.1c2.2 0 4-1.8 4-4s-1.8-4-4-4-4 1.8-4 4 1.8 4 4 4z" style="fill:url(#p)"/><radialGradient id="q" cx="-56.677" cy="522.715" r="24.765" gradientTransform="matrix(7.98 0 0 -7.98 610.47 4300.694)" gradientUnits="userSpaceOnUse"><stop offset="0" style="stop-color:#35fff7"/><stop offset=".164" style="stop-color:#31dee2"/><stop offset=".525" style="stop-color:#288aae"/><stop offset="1" style="stop-color:#1b1464"/></radialGradient><circle cx="269.4" cy="127.1" r="4" style="fill:url(#q)"/><radialGradient id="r" cx="-52.116" cy="522.715" r="24.766" gradientTransform="matrix(7.98 0 0 -7.98 574.071 4300.691)" gradientUnits="userSpaceOnUse"><stop offset="0" style="stop-color:#35fff7"/><stop offset=".164" style="stop-color:#31dee2"/><stop offset=".525" style="stop-color:#288aae"/><stop offset="1" style="stop-color:#1b1464"/></radialGradient><path d="M233 123.1c-2.2 0-4 1.8-4 4s1.8 4 4 4 4-1.8 4-4-1.8-4-4-4z" style="fill:url(#r)"/><radialGradient id="s" cx="-47.554" cy="522.715" r="24.766" gradientTransform="matrix(7.98 0 0 -7.98 537.673 4300.691)" gradientUnits="userSpaceOnUse"><stop offset="0" style="stop-color:#35fff7"/><stop offset=".164" style="stop-color:#31dee2"/><stop offset=".525" style="stop-color:#288aae"/><stop offset="1" style="stop-color:#1b1464"/></radialGradient><path d="M196.6 123.1c-2.2 0-4 1.8-4 4s1.8 4 4 4 4-1.8 4-4-1.8-4-4-4z" style="fill:url(#s)"/><radialGradient id="t" cx="-42.992" cy="522.715" r="24.766" gradientTransform="matrix(7.98 0 0 -7.98 501.275 4300.691)" gradientUnits="userSpaceOnUse"><stop offset="0" style="stop-color:#35fff7"/><stop offset=".164" style="stop-color:#31dee2"/><stop offset=".525" style="stop-color:#288aae"/><stop offset="1" style="stop-color:#1b1464"/></radialGradient><path d="M160.2 123.1c-2.2 0-4 1.8-4 4s1.8 4 4 4 4-1.8 4-4-1.8-4-4-4z" style="fill:url(#t)"/></g></svg>