<svg xmlns="http://www.w3.org/2000/svg" viewBox="0 0 47.456 38"><g data-name="组 5255"><g data-name="组 5254"><path data-name="矩形 4461" fill="#e8eaf1" d="M0 4.799h47.456v33.078H0z"/><path data-name="矩形 4462" fill="#172d72" d="M0 0h47.456v4.799H0z"/><path data-name="路径 15813" d="M47.457 26.83h-11.2v11.171z" fill="#172d72"/><g data-name="组 5253" fill="#4fc172"><g data-name="组 5250"><path data-name="矩形 4463" d="M6.531 8.984h4.913v4.913H6.531z"/><path data-name="矩形 4464" d="M16.358 8.984h4.913v4.913h-4.913z"/><path data-name="矩形 4465" d="M26.185 8.984h4.913v4.913h-4.913z"/><path data-name="矩形 4466" d="M36.011 8.984h4.913v4.913h-4.913z"/></g><g data-name="组 5251"><path data-name="矩形 4467" d="M6.531 28.263h4.913v4.913H6.531z"/><path data-name="矩形 4468" d="M16.358 28.263h4.913v4.913h-4.913z"/><path data-name="矩形 4469" d="M26.185 28.263h4.913v4.913h-4.913z"/></g><g data-name="组 5252"><path data-name="矩形 4470" d="M6.531 18.624h4.913v4.913H6.531z"/><path data-name="矩形 4471" d="M16.358 18.624h4.913v4.913h-4.913z"/><path data-name="矩形 4472" d="M26.185 18.624h4.913v4.913h-4.913z"/><path data-name="矩形 4473" d="M36.011 18.624h4.913v4.913h-4.913z"/></g></g></g></g></svg>