<svg version="1.1" id="图层_1" xmlns="http://www.w3.org/2000/svg" x="0" y="0" viewBox="0 0 56 56" style="enable-background:new 0 0 47.5 38" xml:space="preserve"><style>.st1{fill:#172d72}.st2{fill:#be1d32}</style><g id="组_5255" transform="translate(-1351 -898)"><g id="组_5254" transform="translate(1351 898)"><path id="矩形_4461" style="fill:#e8eaf1" d="M0 4.8h47.5v33.1H0z"/><path id="矩形_4462" class="st1" d="M0 0h47.5v4.8H0z"/><path id="路径_15813" class="st1" d="M47.5 26.8H36.3V38l11.2-11.2z"/><g id="组_5253" transform="translate(6.531 8.984)"><g id="组_5250"><path id="矩形_4463" class="st2" d="M0 0h4.9v4.9H0z"/><path id="矩形_4464" class="st2" d="M9.8 0h4.9v4.9H9.8z"/><path id="矩形_4465" class="st2" d="M19.7 0h4.9v4.9h-4.9z"/><path id="矩形_4466" class="st2" d="M29.5 0h4.9v4.9h-4.9z"/></g><g id="组_5251" transform="translate(0 19.279)"><path id="矩形_4467" class="st2" d="M0 0h4.9v4.9H0z"/><path id="矩形_4468" class="st2" d="M9.8 0h4.9v4.9H9.8z"/><path id="矩形_4469" class="st2" d="M19.7 0h4.9v4.9h-4.9z"/></g><g id="组_5252" transform="translate(0 9.64)"><path id="矩形_4470" class="st2" d="M0 0h4.9v4.9H0z"/><path id="矩形_4471" class="st2" d="M9.8 0h4.9v4.9H9.8z"/><path id="矩形_4472" class="st2" d="M19.7 0h4.9v4.9h-4.9z"/><path id="矩形_4473" class="st2" d="M29.5 0h4.9v4.9h-4.9z"/></g></g></g></g></svg>