<svg version="1.1" id="图层_1" xmlns="http://www.w3.org/2000/svg" x="0" y="0" viewBox="0 0 56 56" style="enable-background:new 0 0 56 56" xml:space="preserve"><style>.st2{fill:#172d72}.st3{fill:#be1d32}</style><g id="组_5973" transform="translate(-1269 -522)"><g id="组_5972" transform="translate(1269 522)"><path id="矩形_5295" style="fill:none" d="M0 0h56v56H0z"/></g><g id="组_5254" transform="translate(1276.875 534.25)"><path id="矩形_4461" style="fill:#e2e5ee" d="M0 4h40v27.9H0z"/><path id="矩形_4462" class="st2" d="M0 0h40v4H0z"/><path id="路径_15813" class="st2" d="M40 22.6h-9.4V32l9.4-9.4z"/><g id="组_5253" transform="translate(5.505 7.565)"><g id="组_5250"><path id="矩形_4463" class="st3" d="M0 0h4.1v4.1H0z"/><path id="矩形_4464" class="st3" d="M8.3 0h4.1v4.1H8.3z"/><path id="矩形_4465" class="st3" d="M16.6 0h4.1v4.1h-4.1z"/><path id="矩形_4466" class="st3" d="M24.8 0h4.1v4.1h-4.1z"/></g><g id="组_5251" transform="translate(0 16.234)"><path id="矩形_4467" class="st3" d="M0 0h4.1v4.1H0z"/><path id="矩形_4468" class="st3" d="M8.3 0h4.1v4.1H8.3z"/><path id="矩形_4469" class="st3" d="M16.6 0h4.1v4.1h-4.1z"/></g><g id="组_5252" transform="translate(0 8.118)"><path id="矩形_4470" class="st3" d="M0 0h4.1v4.1H0z"/><path id="矩形_4471" class="st3" d="M8.3 0h4.1v4.1H8.3z"/><path id="矩形_4472" class="st3" d="M16.6 0h4.1v4.1h-4.1z"/><path id="矩形_4473" class="st3" d="M24.8 0h4.1v4.1h-4.1z"/></g></g></g></g></svg>