<svg xmlns="http://www.w3.org/2000/svg" viewBox="0 0 56 56"><path fill="none" d="M0 0h56v56H0z"/><path fill="#e2e5ee" d="M7.875 16.291h39.999v27.854H7.875z"/><path fill="#172d72" d="M7.875 12.25h39.999v4.041H7.875zm40 22.595h-9.44v9.4Z"/><path d="M13.38 19.815h4.141v4.137H13.38zm8.283 0h4.141v4.137h-4.141zm8.283 0h4.141v4.137h-4.141zm8.282 0h4.141v4.137h-4.141zM13.38 36.049h4.141v4.137H13.38zm8.283 0h4.141v4.137h-4.141zm8.283 0h4.141v4.137h-4.141zM13.38 27.933h4.141v4.137H13.38zm8.283 0h4.141v4.137h-4.141zm8.283 0h4.141v4.137h-4.141zm8.282 0h4.141v4.137h-4.141z" fill="#4fc172"/></svg>