<svg xmlns="http://www.w3.org/2000/svg" viewBox="0 0 56 56">
    <g id="组_5976" transform="translate(-309 -520)">
        <g id="组_5497" transform="translate(321 528)">
            <g id="组_5257">
                <path id="路径_15814" d="M792.618,510.664A11.933,11.933,0,0,0,774.9,494.7l-8.111,8.131,3.027,3.027,1.755-1.759a11.931,11.931,0,0,0,11.884,10.853c.056,0,.11,0,.167,0l-.239,5.005,7.854-7.888a12.434,12.434,0,0,0,1.3-1.3l.09-.092Z" transform="translate(-763.226 -491.087)" fill="#e8eaf1"/>
                <path id="路径_15815" d="M791.234,505.087a11.933,11.933,0,0,0-20.512-8.3l-3.934,3.954,1.041,1.041a11.938,11.938,0,0,0,15.681,14.469l.02,1.479,3.88-3.894A11.9,11.9,0,0,0,791.234,505.087Z" transform="translate(-763.226 -489)" fill="#4fc172"/>
                <path id="路径_15816" d="M788.883,507.147a11.933,11.933,0,1,0-14.877,11.569l.006,8.2,10.754-10.754A11.9,11.9,0,0,0,788.883,507.147Z" transform="translate(-765.016 -486.919)" fill="#172d72"/>
                <g id="组_5256" transform="translate(5.65 12.967)">
                    <path id="路径_15817" d="M774.1,497.538l-6.269,3.62v3.619l3.136-1.81v7.287l3.134,1.807h0v-10.9l3.134-1.809Z" transform="translate(-767.826 -497.538)" fill="#e8eaf1"/>
                    <path id="路径_15818" d="M772.513,501.161v7.264l3.147-1.817v-7.266Z" transform="translate(-763.092 -495.714)" fill="#e8eaf1"/>
                </g>
            </g>
        </g>
        <g id="组_5963" transform="translate(309 520)">
            <rect id="矩形_5289" width="56" height="56" fill="none"/>
        </g>
    </g>
</svg>
