<svg version="1.1" id="图层_1" xmlns="http://www.w3.org/2000/svg" x="0" y="0" viewBox="0 0 56 56" style="enable-background:new 0 0 35.4 44" xml:space="preserve"><style>.st0{fill:#e8eaf1}</style><g id="组_5497" transform="translate(-637 -960)"><g id="组_5257" transform="translate(637 960)"><path id="路径_15814" class="st0" d="M32.3 21.5C37 16 36.2 7.7 30.6 3c-5.3-4.4-13-4-17.8.9l-8.9 8.9 3.3 3.3 1.9-1.9c.6 6.8 6.3 11.9 13.1 11.9h.2l-.3 5.5 8.6-8.7c.5-.4 1-.9 1.4-1.4h.2z"/><path id="路径_15815" d="M30.8 17.7c0-7.2-5.9-13.1-13.1-13.1-3.6 0-7 1.4-9.4 4L4 12.9 5.1 14c-2 7 2 14.2 9 16.2 2.7.8 5.6.7 8.3-.3v1.6l4.3-4.3c2.6-2.4 4.1-5.8 4.1-9.5z" style="fill:#be1d32"/><path id="路径_15816" d="M26.3 22.3c0-7.2-5.9-13.1-13.1-13.1C5.9 9.1 0 15 0 22.3c0 6 4.1 11.2 9.9 12.7v9l11.8-11.8c2.9-2.5 4.6-6.1 4.6-9.9z" style="fill:#172d72"/><g id="组_5256" transform="translate(6.214 14.263)"><path id="路径_15817" class="st0" d="M6.9 0 0 4v4l3.4-2v8l3.4 2V4l3.4-2-3.3-2z"/><path id="路径_15818" class="st0" d="M10.4 6v8l3.5-2V4l-3.5 2z"/></g></g></g></svg>