<svg xmlns="http://www.w3.org/2000/svg" viewBox="0 0 56 56"><path d="M41.392 27.577a11.933 11.933 0 0 0-17.718-15.964l-8.111 8.131 3.027 3.027 1.755-1.759a11.931 11.931 0 0 0 11.884 10.853h.167l-.239 5.005 7.854-7.888a12.434 12.434 0 0 0 1.3-1.3l.09-.092Z" fill="#e8eaf1"/><path d="M40.008 24.087a11.933 11.933 0 0 0-20.512-8.3l-3.934 3.954 1.041 1.041a11.938 11.938 0 0 0 15.681 14.469l.02 1.479 3.88-3.894a11.9 11.9 0 0 0 3.824-8.749Z" fill="#4fc172"/><path d="M35.867 28.228A11.933 11.933 0 1 0 20.99 39.797l.006 8.2L31.75 37.243a11.9 11.9 0 0 0 4.117-9.015Z" fill="#172d72"/><path d="m23.924 20.967-6.269 3.62v3.619l3.136-1.81v7.287l3.134 1.807v-10.9l3.134-1.809Zm3.147 5.447v7.264l3.147-1.817v-7.266Z" fill="#e8eaf1"/><path fill="none" d="M0 0h56v56H0z"/></svg>