<svg xmlns="http://www.w3.org/2000/svg" viewBox="0 0 35.379 44"><g data-name="组 5497"><g data-name="组 5257"><path data-name="路径 15814" d="M32.33 21.535A13.127 13.127 0 0 0 12.839 3.976L3.917 12.92l3.33 3.33 1.93-1.935a13.124 13.124 0 0 0 13.072 11.938h.184l-.263 5.506 8.639-8.677a13.691 13.691 0 0 0 1.428-1.435l.1-.1z" fill="#e8eaf1"/><path data-name="路径 15815" d="M30.808 17.696A13.126 13.126 0 0 0 8.245 8.571L3.918 12.92l1.145 1.145a13.132 13.132 0 0 0 17.249 15.916l.022 1.627 4.268-4.283a13.089 13.089 0 0 0 4.206-9.629z" fill="#4fc172"/><path data-name="路径 15816" d="M26.253 22.251A13.127 13.127 0 1 0 9.884 34.976L9.891 44l11.83-11.83a13.094 13.094 0 0 0 4.532-9.919z" fill="#172d72"/><g data-name="组 5256" fill="#e8eaf1"><path data-name="路径 15817" d="m13.111 14.263-6.9 3.982v3.98l3.449-1.991v8.016l3.447 1.988V18.243l3.447-1.99z"/><path data-name="路径 15818" d="M16.577 20.254v7.991l3.462-2v-7.993z"/></g></g></g></svg>