<svg xmlns="http://www.w3.org/2000/svg" viewBox="0 0 349.744 47.881"><path fill="#fff" d="M135.381 11.631h1.152v24.06h-1.152z"/><path d="M0 11.97v23.94l20.733 11.97 20.733-11.97V11.97L20.733 0z" fill="#e30c34"/><path d="m20.72 7.992-13.77 7.95v7.948l6.887-3.976V35.92l6.884 3.969v-23.95l6.883-3.974zM27.643 19.954V35.91l6.912-3.99V15.961z" fill="#fff"/><g fill="#fff"><path d="M60.527 35.866h-4.913V16.08h-7.238v-4.094h19.126v4.094h-6.976zM74.286 16.08h-4.59v-4.094h4.59zm0 19.782-4.59-4.094V18.176h4.59zM79.324 11.986h9.334c3.668 0 5.928.819 7.533 2.751a15.882 15.882 0 0 1 0 18.34c-1.6 1.932-3.9 2.784-7.533 2.784h-9.334zm9.334 19.781c3.7 0 5.535-2.587 5.535-7.827 0-5.273-1.834-7.86-5.535-7.86h-4.422v15.686zM114.126 35.866h-10.742v-23.88h10.644c6.288 0 7.795 4.094 7.795 6.288 0 2.03-.917 3.406-3.275 4.913 2.686 1.572 3.963 3.439 3.963 5.8-.001 2.846-1.671 6.879-8.385 6.879zm-5.83-14.378h5.338c2.26 0 3.471-.95 3.471-2.686 0-1.769-1.212-2.718-3.471-2.718h-5.337zm0 10.284h5.862c2.391 0 3.635-1.081 3.635-3.079 0-2.03-1.244-3.111-3.635-3.111l-5.861-5.404z"/></g><g fill="#fff"><path d="M163.793 19.261c-.164-2.42-1.9-3.729-5-3.729-2.519 0-4.121 1.145-4.121 2.944 0 1.734 1.014 2.421 4.514 3.108l3.729.72c4.416.85 6.313 2.813 6.313 6.574 0 4.841-3.631 7.72-9.78 7.72-6.084 0-9.584-2.78-9.878-7.883h4.776c.164 2.551 2.028 3.958 5.364 3.958 2.977 0 4.809-1.211 4.809-3.206 0-1.93-1.21-2.846-4.481-3.467l-3.336-.654c-4.841-.916-6.705-2.715-6.705-6.411 0-4.645 3.3-7.327 9.028-7.327 3.7 0 9.355 1.145 9.355 7.654zM194.799 24.037a14.012 14.012 0 0 1-2.617 8.439l2.617 2.486-2.486 2.65-2.813-2.65a11.139 11.139 0 0 1-6.182 1.636c-7 0-11.481-5.3-11.481-12.5s4.481-12.5 11.481-12.5c7.098.009 11.481 5.439 11.481 12.439zm-5.986 5.266a11.572 11.572 0 0 0 1.08-5.168c0-5.07-2.584-8.341-6.575-8.341-3.958 0-6.575 3.3-6.575 8.308s2.617 8.308 6.542 8.308a6.552 6.552 0 0 0 2.879-.621l-2.514-2.388 2.486-2.649zM203.631 31.756h11.416v4.089h-16.322V11.999h4.906zM226.756 31.298c0-3.173 1.7-4.972 5.2-5.561l1.832-.327c1.5-.229 3.663-.327 3.663-2.061q0-1.766-2.65-1.766c-2.257 0-3.009.589-3.238 2.42h-4.416c.295-4.089 2.781-6.117 7.556-6.117s7.229 1.832 7.229 5.43v9.818a2.52 2.52 0 0 0 1.047 2.159v.556h-4.973a2.254 2.254 0 0 1-.524-1.766 7.336 7.336 0 0 1-5.364 2.519 5.048 5.048 0 0 1-5.362-5.304zm10.7-3.795a5.747 5.747 0 0 1-1.93.556l-1.57.294c-1.9.393-2.617 1.047-2.617 2.421 0 1.309.949 2.126 2.486 2.126 2.322 0 3.631-1.5 3.631-4.154zM254.032 21.583h-2.551v9.614c0 1.57.294 1.93 1.5 1.93a6.887 6.887 0 0 0 1.047-.1v3.206a8.382 8.382 0 0 1-2.65.36c-3.009 0-4.481-1.374-4.481-4.154v-10.86h-2.257v-3.042h2.257v-4.74h4.58v4.743h2.551zM279.648 19.261c-.164-2.42-1.9-3.729-5-3.729-2.519 0-4.121 1.145-4.121 2.944 0 1.734 1.014 2.421 4.514 3.108l3.729.72c4.416.85 6.313 2.813 6.313 6.574 0 4.841-3.631 7.72-9.78 7.72-6.084 0-9.584-2.78-9.879-7.883h4.776c.164 2.551 2.028 3.958 5.365 3.958 2.977 0 4.808-1.211 4.808-3.206 0-1.93-1.21-2.846-4.481-3.467l-3.336-.654c-4.841-.916-6.706-2.715-6.706-6.411 0-4.645 3.3-7.327 9.028-7.327 3.7 0 9.355 1.145 9.355 7.654zM292.274 27.373c0 3.434 1.407 5.528 3.729 5.528 1.766 0 2.682-.883 3.271-3.173h4.383a7.267 7.267 0 0 1-7.687 6.869c-5.234 0-8.275-3.4-8.275-9.224 0-6.019 3.075-9.486 8.341-9.486 4.416 0 7.294 2.584 7.621 6.9h-4.383c-.523-2.323-1.406-3.206-3.271-3.206-3.173.002-3.729 3.338-3.729 5.792zM305.946 31.298c0-3.173 1.7-4.972 5.2-5.561l1.832-.327c1.5-.229 3.664-.327 3.664-2.061q0-1.766-2.65-1.766c-2.257 0-3.009.589-3.238 2.42h-4.416c.295-4.089 2.78-6.117 7.556-6.117s7.229 1.832 7.229 5.43v9.818a2.52 2.52 0 0 0 1.047 2.159v.556h-4.972a2.254 2.254 0 0 1-.523-1.766 7.337 7.337 0 0 1-5.365 2.519 5.048 5.048 0 0 1-5.364-5.304zm10.7-3.795a5.75 5.75 0 0 1-1.93.556l-1.57.294c-1.9.393-2.617 1.047-2.617 2.421 0 1.309.949 2.126 2.486 2.126 2.322 0 3.631-1.5 3.631-4.154zM329.858 35.845h-4.58V11.999h4.58zM349.744 27.667a7.791 7.791 0 0 1-.033.785h-11.842c.1 2.388.589 4.645 3.664 4.645a3.546 3.546 0 0 0 3.5-2.224h4.514a8.177 8.177 0 0 1-8.178 5.724c-5 0-8.079-3.467-8.079-9.126 0-5.921 3.107-9.584 8.178-9.584 3.533 0 8.276 1.963 8.276 9.78zm-8.341-6.28c-2.028 0-3.173 1.341-3.467 4.023h7.033c-.2-2.584-1.44-4.023-3.566-4.023z"/></g></svg>