<svg xmlns="http://www.w3.org/2000/svg" width="735.512" height="532.138"><defs><linearGradient id="a" x1="6.415" y1="-.507" x2="7.722" y2="-.507" gradientUnits="objectBoundingBox"><stop offset="0" stop-color="#009cff"/><stop offset=".422" stop-color="#00cce5"/><stop offset=".8" stop-color="#00f0d1"/><stop offset="1" stop-color="#00ffca"/></linearGradient><linearGradient id="b" x1="6.805" y1="-.558" x2="8.205" y2="-.558" gradientUnits="objectBoundingBox"><stop offset="0" stop-color="#0098ff"/><stop offset=".384" stop-color="#00c1e7"/><stop offset=".788" stop-color="#00e7d1"/><stop offset="1" stop-color="#00f6c9"/></linearGradient><linearGradient id="c" x1="7.251" y1="-.605" x2="8.758" y2="-.605" gradientUnits="objectBoundingBox"><stop offset="0" stop-color="#0093fa"/><stop offset=".352" stop-color="#00b7e6"/><stop offset=".778" stop-color="#00dfd1"/><stop offset="1" stop-color="#00eec9"/></linearGradient><linearGradient id="d" x1="7.76" y1="-.645" x2="9.389" y2="-.645" gradientUnits="objectBoundingBox"><stop offset="0" stop-color="#028ff8"/><stop offset=".309" stop-color="#01ade6"/><stop offset=".764" stop-color="#00d6d0"/><stop offset="1" stop-color="#00e6c8"/></linearGradient><linearGradient id="e" x1="8.352" y1="-.672" x2="10.123" y2="-.672" gradientUnits="objectBoundingBox"><stop offset="0" stop-color="#308bf4"/><stop offset=".26" stop-color="#21a3e6"/><stop offset=".749" stop-color="#09cdd0"/><stop offset="1" stop-color="#00dec8"/></linearGradient><linearGradient id="f" x1="9.039" y1="-.678" x2="10.976" y2="-.678" gradientUnits="objectBoundingBox"><stop offset="0" stop-color="#4586f1"/><stop offset=".213" stop-color="#3499e6"/><stop offset=".735" stop-color="#0ec5d0"/><stop offset="1" stop-color="#00d6c8"/></linearGradient><linearGradient id="g" x1="9.85" y1="-.644" x2="11.983" y2="-.644" gradientUnits="objectBoundingBox"><stop offset="0" stop-color="#5482ed"/><stop offset=".221" stop-color="#3e95e3"/><stop offset=".739" stop-color="#11bece"/><stop offset="1" stop-color="#00cec7"/></linearGradient><linearGradient id="h" x1="10.805" y1="-.548" x2="13.172" y2="-.548" gradientUnits="objectBoundingBox"><stop offset="0" stop-color="#617fea"/><stop offset=".289" stop-color="#4195de"/><stop offset=".763" stop-color="#12b7cc"/><stop offset="1" stop-color="#00c5c6"/></linearGradient><linearGradient id="i" x1="11.94" y1="-.345" x2="14.588" y2="-.345" gradientUnits="objectBoundingBox"><stop offset="0" stop-color="#6d7ae6"/><stop offset=".334" stop-color="#4493da"/><stop offset=".779" stop-color="#13b1cb"/><stop offset="1" stop-color="#00bdc6"/></linearGradient><linearGradient id="j" x1="13.284" y1=".02" x2="16.275" y2=".02" gradientUnits="objectBoundingBox"><stop offset="0" stop-color="#7776e3"/><stop offset=".361" stop-color="#478fd6"/><stop offset=".789" stop-color="#13aaca"/><stop offset="1" stop-color="#00b5c5"/></linearGradient><linearGradient id="k" x1="14.866" y1=".654" x2="18.258" y2=".654" gradientUnits="objectBoundingBox"><stop offset="0" stop-color="#8071df"/><stop offset=".377" stop-color="#4a8ad3"/><stop offset=".796" stop-color="#14a4c8"/><stop offset="1" stop-color="#00aec4"/></linearGradient><linearGradient id="l" x1="16.643" y1="1.703" x2="20.495" y2="1.703" gradientUnits="objectBoundingBox"><stop offset="0" stop-color="#8a6cdc"/><stop offset=".394" stop-color="#4e85d1"/><stop offset=".802" stop-color="#169cc6"/><stop offset="1" stop-color="#00a6c3"/></linearGradient><linearGradient id="m" x1="18.472" y1="3.397" x2="22.804" y2="3.397" gradientUnits="objectBoundingBox"><stop offset="0" stop-color="#9468d8"/><stop offset=".404" stop-color="#527ecf"/><stop offset=".808" stop-color="#1793c7"/><stop offset="1" stop-color="#009cc4"/></linearGradient><linearGradient id="n" x1="19.96" y1="5.954" x2="24.699" y2="5.954" gradientUnits="objectBoundingBox"><stop offset="0" stop-color="#9d63d5"/><stop offset=".407" stop-color="#5778cd"/><stop offset=".81" stop-color="#188cc5"/><stop offset="1" stop-color="#0094c3"/></linearGradient><linearGradient id="o" x1="20.339" y1="9.484" x2="25.212" y2="9.484" gradientUnits="objectBoundingBox"><stop offset="0" stop-color="#a55fd1"/><stop offset=".405" stop-color="#5c72ca"/><stop offset=".811" stop-color="#1984c4"/><stop offset="1" stop-color="#008cc2"/></linearGradient><linearGradient id="p" x1="18.641" y1="13.302" x2="23.262" y2="13.302" gradientUnits="objectBoundingBox"><stop offset="0" stop-color="#ae5bce"/><stop offset=".406" stop-color="#616cc8"/><stop offset=".811" stop-color="#1b7dc3"/><stop offset="1" stop-color="#0084c1"/></linearGradient><linearGradient id="q" x1="14.761" y1="16.221" x2="18.793" y2="16.221" gradientUnits="objectBoundingBox"><stop offset="0" stop-color="#b655cb"/><stop offset=".356" stop-color="#7563c7"/><stop offset=".796" stop-color="#2a75c2"/><stop offset="1" stop-color="#0d7cc1"/></linearGradient><linearGradient id="r" x1="9.789" y1="17.429" x2="13.485" y2="17.429" gradientUnits="objectBoundingBox"><stop offset="0" stop-color="#be51c8"/><stop offset=".255" stop-color="#935ac5"/><stop offset=".766" stop-color="#436cc1"/><stop offset="1" stop-color="#2474c0"/></linearGradient><linearGradient id="s" x1="5.46" y1="17.037" x2="8.652" y2="17.037" gradientUnits="objectBoundingBox"><stop offset="0" stop-color="#c54dc4"/><stop offset=".174" stop-color="#a952c3"/><stop offset=".742" stop-color="#5364c0"/><stop offset="1" stop-color="#316bbf"/></linearGradient><linearGradient id="t" x1="2.197" y1="15.746" x2="5.048" y2="15.746" gradientUnits="objectBoundingBox"><stop offset="0" stop-color="#cd47c1"/><stop offset=".106" stop-color="#bc4ac0"/><stop offset=".722" stop-color="#5e5bbe"/><stop offset="1" stop-color="#3a63be"/></linearGradient><linearGradient id="u" x1=".059" y1="13.999" x2="2.677" y2="13.999" gradientUnits="objectBoundingBox"><stop offset="0" stop-color="#d643bd"/><stop offset=".025" stop-color="#d243bd"/><stop offset=".699" stop-color="#6c53bd"/><stop offset="1" stop-color="#445abe"/></linearGradient><linearGradient id="v" x1="-1.171" y1="12.316" x2="1.2" y2="12.316" gradientUnits="objectBoundingBox"><stop offset="0" stop-color="#dd3fba"/><stop offset=".675" stop-color="#764bbc"/><stop offset="1" stop-color="#4a51bd"/></linearGradient><linearGradient id="w" x1="-1.742" y1="10.877" x2=".345" y2="10.877" gradientUnits="objectBoundingBox"><stop offset="0" stop-color="#e439b6"/><stop offset=".65" stop-color="#7f43ba"/><stop offset="1" stop-color="#4e49bd"/></linearGradient><linearGradient id="x" x1="-1.943" y1="9.676" x2="-.1" y2="9.676" gradientUnits="objectBoundingBox"><stop offset="0" stop-color="#eb35b3"/><stop offset=".615" stop-color="#8a3bb8"/><stop offset="1" stop-color="#5340bc"/></linearGradient><linearGradient id="y" x1="-1.926" y1="8.681" x2="-.291" y2="8.681" gradientUnits="objectBoundingBox"><stop offset="0" stop-color="#f330af"/><stop offset=".578" stop-color="#9534b6"/><stop offset="1" stop-color="#5637bb"/></linearGradient><linearGradient id="z" x1="-1.799" y1="7.853" x2="-.343" y2="7.853" gradientUnits="objectBoundingBox"><stop offset="0" stop-color="#fa2bac"/><stop offset=".518" stop-color="#a52cb3"/><stop offset="1" stop-color="#5b2dba"/></linearGradient><linearGradient id="A" x1="-1.636" y1="7.152" x2="-.31" y2="7.152" gradientUnits="objectBoundingBox"><stop offset="0" stop-color="#ff27a8"/><stop offset=".44" stop-color="#b625af"/><stop offset="1" stop-color="#5e24b9"/></linearGradient><linearGradient id="B" x1="-1.456" y1="6.566" x2="-.227" y2="6.566" gradientUnits="objectBoundingBox"><stop offset="0" stop-color="#ff21a4"/><stop offset=".298" stop-color="#ce1faa"/><stop offset="1" stop-color="#601bb8"/></linearGradient><linearGradient id="C" x1="-1.264" y1="6.068" x2="-.124" y2="6.068" gradientUnits="objectBoundingBox"><stop offset="0" stop-color="#ff1ca0"/><stop offset=".058" stop-color="#f51ba1"/><stop offset="1" stop-color="#6212b8"/></linearGradient><linearGradient id="D" x1="-1.066" y1="5.623" x2="-.006" y2="5.623" gradientUnits="objectBoundingBox"><stop offset="0" stop-color="#ff189d"/><stop offset="1" stop-color="#6507b7"/></linearGradient><linearGradient id="E" x1="-.874" y1="5.215" x2=".138" y2="5.215" gradientUnits="objectBoundingBox"><stop offset="0" stop-color="#ff1299"/><stop offset="1" stop-color="#6702b6"/></linearGradient><linearGradient id="F" x1="-.689" y1="4.843" x2=".277" y2="4.843" gradientUnits="objectBoundingBox"><stop offset="0" stop-color="#ff0d96"/><stop offset="1" stop-color="#6800b5"/></linearGradient></defs><g data-name="组 5339" opacity=".5"><g data-name="组 5242" opacity=".5"><g data-name="组 5210"><path data-name="路径 14338" d="M261.352 894.955q-2.419 0-4.849-.147c-39.234-2.364-83.411-29.384-118.174-72.276-4.015-4.957-7.995-10.192-11.844-15.257-12.791-16.831-26.016-34.236-42.945-44.489-15.156-9.181-31.549-11.519-47.4-13.78-7.551-1.076-15.359-2.19-23-4.024-24.427-5.865-49.135-20.021-71.451-40.937a228.523 228.523 0 0 1-51.671-72.482c-23.158-51.552-27.531-110.973-12-163.025 4.616-15.469 10.888-30.169 16.953-44.384 5.98-14.015 12.163-28.509 16.73-43.685 7.675-25.507 13.194-63.662-4.094-100.586-2.069-4.418-4.489-8.856-6.829-13.148-5.186-9.51-10.548-19.343-12.515-29.716-3.084-16.256 3.079-32.755 15.7-42.03 9.974-7.332 23.717-10.778 41.978-10.57 47.051.566 99.044 24.269 139.081 63.405 4.347 4.251 8.636 8.745 12.784 13.091 7.493 7.852 15.24 15.971 23.548 22.862 14.827 12.3 29.6 18.5 41.6 17.45 8.383-.731 15.315-4.723 22.656-8.948 3.3-1.9 6.7-3.858 10.219-5.469 31-14.2 75.974-.911 109.382 32.317 29.811 29.651 50.581 73.179 56.986 119.421 5.284 38.158 1.443 77.593-11.742 120.554-3.56 11.6-7.7 23.289-11.709 34.592-14.2 40.053-28.875 81.468-21.343 128.564 2.047 12.8 5.77 25.937 9.372 38.638 5.506 19.424 11.2 39.508 10.966 58.74-.262 21.554-8.652 41.094-23.625 55.02a77.577 77.577 0 0 1-52.764 20.299ZM-55.681 186.539c-17 0-29.795 3.33-39.093 10.165-11.964 8.794-17.8 24.462-14.868 39.917 1.906 10.044 7.186 19.728 12.293 29.093 2.356 4.321 4.791 8.788 6.888 13.266 17.572 37.533 11.985 76.241 4.2 102.1-4.6 15.29-10.807 29.838-16.811 43.908-6.041 14.16-12.289 28.8-16.871 44.156-15.387 51.57-11.051 110.449 11.9 161.542 25 55.652 73.9 100.751 121.677 112.222 7.541 1.811 15.3 2.918 22.8 3.988 16.065 2.291 32.676 4.66 48.2 14.065 17.275 10.464 30.626 28.033 43.537 45.022 3.84 5.052 7.808 10.276 11.8 15.2 34.393 42.438 78 69.164 116.646 71.493 20.884 1.255 41.3-5.881 56.039-19.588 14.541-13.525 22.69-32.52 22.945-53.485.23-18.923-5.421-38.856-10.886-58.134-3.617-12.76-7.357-25.954-9.424-38.881-7.618-47.632 7.154-89.308 21.439-129.612 4-11.283 8.133-22.95 11.68-34.5 13.092-42.66 16.908-81.794 11.667-119.639-6.34-45.789-26.889-88.872-56.377-118.2-32.791-32.614-76.789-45.729-106.993-31.892-3.425 1.57-6.789 3.507-10.042 5.379-7.218 4.155-14.682 8.451-23.534 9.224-12.562 1.1-27.887-5.272-43.15-17.933-8.4-6.97-16.193-15.135-23.729-23.03-4.134-4.333-8.411-8.814-12.733-13.039-39.654-38.763-91.1-62.239-137.618-62.8-.52-.005-1.054-.007-1.582-.007Z" transform="rotate(-93 112.392 283.743)" fill="url(#a)"/></g><g data-name="组 5211"><path data-name="路径 14339" d="M254.973 888.553q-2.644 0-5.3-.179c-38.049-2.578-81.059-29.012-115.05-70.711-3.906-4.774-7.778-9.813-11.521-14.686-12.6-16.4-25.635-33.365-42.312-43.3-15.087-8.993-31.31-11.732-47-14.38-7.587-1.28-15.431-2.6-23.054-4.618-23.835-6.3-47.812-20.487-69.339-41.039a222.825 222.825 0 0 1-49.812-71.174c-22.307-50.957-26.029-109.069-10.211-159.432 4.675-14.886 11.005-29.022 17.127-42.692 6.38-14.246 12.977-28.978 17.712-44.581 10.456-34.6 9.229-69.775-3.456-99.057-1.7-3.932-3.574-7.825-5.383-11.592-4.914-10.227-9.555-19.888-10.987-30.076-2.149-15.306 4.347-29.943 16.954-38.2 9.913-6.493 22.986-9.241 41.149-8.648 47.244 1.54 96.758 24.308 135.846 62.463 5.845 5.661 11.476 11.78 16.921 17.7 6.362 6.914 12.942 14.063 19.691 20.264 10.1 9.28 25.048 20.2 38.938 19.419 7.743-.425 14.078-4.092 20.786-7.975a105.684 105.684 0 0 1 9.467-5.059c29.53-13.279 72.694.23 104.969 32.851 28.972 29.283 49.065 71.721 55.126 116.433 5.023 37.167 1.074 75.473-12.071 117.106-3.456 11.039-7.428 22.152-11.27 32.9-13.873 38.81-28.218 78.94-21.654 124.667 1.751 12.2 5.007 24.645 8.156 36.681 4.764 18.214 9.691 37.047 9.306 54.971-.444 20.774-8.686 39.53-23.208 52.815a74.918 74.918 0 0 1-50.52 19.129ZM11.261 738.674c7.531 1.99 15.329 3.306 22.87 4.578 15.877 2.679 32.295 5.452 47.715 14.642 17.016 10.142 30.172 27.264 42.893 43.821 3.735 4.861 7.6 9.888 11.484 14.639 33.637 41.265 76.1 67.416 113.586 69.954 20.209 1.37 39.99-5.345 54.284-18.421 14.1-12.9 22.1-31.127 22.536-51.331.378-17.635-4.512-36.326-9.24-54.4-3.163-12.092-6.434-24.6-8.2-36.912-6.638-46.234 7.8-86.61 21.753-125.657 3.834-10.727 7.8-21.82 11.244-32.822 13.053-41.339 16.975-79.349 11.995-116.208-6-44.275-25.884-86.284-54.547-115.253-31.679-32.02-73.89-45.353-102.649-32.418a103.883 103.883 0 0 0-9.278 4.961c-6.623 3.833-13.471 7.8-21.709 8.25-14.609.8-30.058-10.413-40.451-19.961-6.814-6.261-13.424-13.442-19.814-20.387-5.426-5.9-11.037-11.993-16.842-17.615C50.734 220.886.465 197.755-45.58 196.253c-17.716-.58-30.408 2.063-39.947 8.311a36.626 36.626 0 0 0-16.037 36.18c1.385 9.869 5.959 19.39 10.8 29.467 1.818 3.784 3.7 7.7 5.417 11.664 12.879 29.731 14.135 65.416 3.537 100.481-4.773 15.731-11.4 30.523-17.8 44.827-6.1 13.617-12.4 27.7-17.042 42.467-15.671 49.894-11.977 107.476 10.132 157.982 23.664 54.059 70.996 98.683 117.781 111.042Z" transform="rotate(-93 112.01 284.49)" fill="url(#b)"/></g><g data-name="组 5212"><path data-name="路径 14340" d="M248.834 882.156q-2.979 0-6-.228c-36.863-2.788-78.7-28.635-111.925-69.142-3.793-4.592-7.554-9.431-11.191-14.11-12.419-15.978-25.261-32.5-41.686-42.127-14.982-8.783-31-11.912-46.481-14.936-7.661-1.5-15.583-3.044-23.228-5.256-47.045-13.606-92.255-57.179-115.179-111.007-21.437-50.336-24.506-107.138-8.423-155.839 4.742-14.36 11.14-27.983 17.328-41.156 6.773-14.422 13.778-29.336 18.668-45.323 10.053-33.107 9.053-67.744-2.816-97.527-1.176-2.952-2.392-5.86-3.567-8.672-4.608-11.026-8.961-21.441-9.828-31.8a35.856 35.856 0 0 1 18.209-34.361c9.826-5.624 22.262-7.7 40.316-6.729 46.445 2.5 94.78 24.922 132.608 61.519 7.311 7.072 14.17 14.851 20.8 22.372 5.5 6.241 10.7 12.135 16.089 17.6 13.806 14 26.233 21.391 35.969 21.391h.311c7.1-.115 12.845-3.463 18.923-7.006a87.323 87.323 0 0 1 8.7-4.643c14.246-6.268 31.608-6.171 50.206.278 17.658 6.123 35.539 17.88 50.35 33.1 28.13 28.916 47.546 70.265 53.268 113.445 4.729 35.935.673 73.111-12.4 113.654-3.3 10.24-7.023 20.538-10.621 30.5-13.654 37.786-27.771 76.859-22.174 121.481 1.454 11.589 4.236 23.337 6.926 34.7 4.213 17.794 8.193 34.6 7.662 51.227-.639 20-8.743 37.981-22.818 50.621a71.132 71.132 0 0 1-47.996 17.974ZM-45.094 205.718c-13.415 0-23.23 2.136-31.192 6.694a33.864 33.864 0 0 0-17.206 32.449c.841 10.047 5.134 20.32 9.679 31.2 1.179 2.821 2.4 5.736 3.579 8.7 12.038 30.2 13.057 65.313 2.872 98.858-4.933 16.125-11.969 31.1-18.772 45.59-6.162 13.12-12.534 26.687-17.238 40.932-15.933 48.245-12.884 104.53 8.364 154.421 22.7 53.295 67.4 96.42 113.888 109.865 7.56 2.187 15.437 3.725 23.055 5.214 15.651 3.058 31.835 6.219 47.112 15.174 16.76 9.825 29.722 26.5 42.257 42.629 3.628 4.668 7.38 9.494 11.156 14.065 32.881 40.094 74.2 65.67 110.525 68.417 19.807 1.49 38.453-4.627 52.5-17.245 13.664-12.269 21.532-29.738 22.153-49.19.523-16.359-3.427-33.039-7.609-50.7-2.7-11.414-5.5-23.215-6.965-34.912-5.657-45.1 8.545-84.4 22.278-122.414 3.592-9.943 7.308-20.225 10.6-30.431 12.98-40.254 17.01-77.142 12.321-112.775-5.667-42.76-24.881-83.693-52.716-112.305-14.6-15-32.2-26.584-49.568-32.607-18.111-6.282-34.964-6.4-48.737-.338a86.246 86.246 0 0 0-8.5 4.539c-6.033 3.519-12.273 7.157-19.9 7.28-10.516.2-23.192-7.226-37.745-21.988-5.427-5.5-10.643-11.418-16.166-17.681-6.607-7.492-13.439-15.239-20.693-22.256-37.482-36.266-85.346-58.484-131.316-60.957q-4.211-.227-8.016-.228Z" transform="rotate(-93 111.631 285.229)" fill="url(#c)"/></g><g data-name="组 5213"><path data-name="路径 14341" d="M242.465 875.737q-3.209 0-6.466-.273c-35.478-2.979-76.151-28.241-108.8-67.573-3.562-4.292-7.1-8.8-10.524-13.151-12.334-15.7-25.09-31.932-41.4-41.334-14.832-8.55-30.589-12.051-45.828-15.437-7.779-1.728-15.824-3.517-23.535-5.947-45.968-14.494-89.62-57.593-111.208-109.8-20.546-49.689-22.965-105.182-6.636-152.247 4.815-13.879 11.286-27.029 17.546-39.747 7.162-14.553 14.569-29.6 19.606-45.936a152.34 152.34 0 0 0-2.174-96l-.9-2.478c-5-13.686-9.315-25.507-9.514-36.814-.23-13.052 7.048-24.459 19.466-30.514 12.2-5.946 26.8-5.769 39.477-4.811 45.834 3.465 92.989 25.543 129.375 60.576 8.977 8.643 17.1 18.338 24.955 27.714 4.21 5.026 8.188 9.774 12.21 14.267 13.639 15.238 24.955 23.1 33.633 23.362 6.463.2 11.611-2.834 17.064-6.043a71.314 71.314 0 0 1 7.932-4.226c27.044-11.584 65.678 2.045 96.14 33.915 27.288 28.552 46.026 68.812 51.41 110.458 4.454 34.83.29 70.876-12.729 110.2-3.14 9.485-6.619 19.017-9.983 28.236-13.4 36.725-27.259 74.7-22.686 118.156 1.154 10.97 3.454 22 5.679 32.666 3.452 16.549 6.712 32.18 6.034 47.534-.849 19.244-8.825 36.446-22.46 48.44a68.482 68.482 0 0 1-45.684 16.807ZM-40.313 215.119c-9.144 0-18.546 1.127-26.738 5.121-11.719 5.714-18.587 16.453-18.372 28.727.194 10.98 4.458 22.658 9.4 36.18l.9 2.479a154.307 154.307 0 0 1 2.207 97.238c-5.083 16.482-12.524 31.6-19.72 46.224-6.232 12.663-12.678 25.759-17.454 39.525-16.175 46.62-13.771 101.608 6.6 150.862 21.378 51.7 64.551 94.359 109.993 108.685 7.63 2.406 15.633 4.184 23.372 5.9 15.382 3.419 31.287 6.953 46.377 15.652 16.638 9.589 29.511 25.973 41.961 41.818 3.415 4.345 6.946 8.839 10.49 13.11 32.322 38.938 72.494 63.938 107.463 66.875 19.1 1.609 37.1-4.095 50.695-16.051 13.233-11.64 20.975-28.354 21.8-47.063.667-15.109-2.569-30.625-5.995-47.052-2.234-10.713-4.545-21.791-5.71-32.858-4.621-43.9 9.316-82.094 22.794-119.028 3.358-9.205 6.832-18.723 9.963-28.181 12.926-39.042 17.063-74.809 12.646-109.341-5.331-41.241-23.878-81.1-50.885-109.358-29.9-31.288-67.664-44.738-93.963-33.471a69.5 69.5 0 0 0-7.712 4.114c-5.452 3.208-11.095 6.519-18.112 6.311-9.363-.286-20.82-8.14-35.027-24.011-4.044-4.517-8.031-9.276-12.252-14.314-7.822-9.336-15.912-18.991-24.812-27.561-36.065-34.722-82.78-56.6-128.17-60.036-3.782-.28-7.737-.496-11.739-.496Z" transform="rotate(-93 111.26 285.958)" fill="url(#d)"/></g><g data-name="组 5214"><path data-name="路径 14342" d="M236.087 869.309q-3.435 0-6.926-.322c-34.223-3.181-73.728-27.856-105.676-66.006-3.4-4.061-6.782-8.312-10.052-12.424-12.194-15.329-24.8-31.181-40.918-40.309-14.627-8.286-30.07-12.136-45-15.861-7.955-1.984-16.182-4.034-24.01-6.716-44.878-15.371-86.971-57.995-107.241-108.594-19.636-49.016-21.4-103.2-4.849-148.653 4.894-13.437 11.444-26.149 17.779-38.442 7.548-14.649 15.354-29.8 20.531-46.448 9.209-30.035 8.664-63.585-1.533-94.467-4.942-14.967-8.1-27.177-7.437-38.116.72-11.951 8.273-21.671 20.72-26.651 11.782-4.718 25.531-4.18 38.633-2.9 45.251 4.437 91.227 26.172 126.14 59.632 10.825 10.374 20.183 22.233 29.233 33.7 2.839 3.6 5.521 7 8.2 10.286 13.53 16.616 23.38 24.667 31 25.34 5.808.518 10.372-2.205 15.2-5.082a56.421 56.421 0 0 1 7.157-3.808c25.581-10.611 62.443 3.238 91.723 34.448 26.443 28.187 44.5 67.358 49.551 107.47 4.18 33.728-.091 68.645-13.059 106.752-2.944 8.651-6.147 17.34-9.245 25.743-13.175 35.741-26.8 72.7-23.3 115.062.854 10.333 2.664 20.614 4.414 30.557 2.7 15.327 5.247 29.8 4.424 43.916-1.078 18.5-8.941 34.931-22.141 46.277a65.832 65.832 0 0 1-43.318 15.616ZM4.114 725.884c7.751 2.654 15.573 4.6 23.854 6.669 15.057 3.755 30.632 7.637 45.479 16.047 16.433 9.308 29.159 25.307 41.465 40.777 3.263 4.1 6.638 8.343 10.023 12.387 31.635 37.777 70.663 62.2 104.4 65.338 18.375 1.706 35.723-3.564 48.847-14.845 12.808-11.009 20.439-26.974 21.487-44.955.808-13.89-1.721-28.262-4.4-43.478-1.758-9.986-3.575-20.31-4.437-30.729-3.537-42.782 10.16-79.938 23.406-115.872 3.094-8.392 6.293-17.069 9.229-25.7 12.873-37.829 17.118-72.472 12.973-105.908-5-39.723-22.877-78.508-49.054-106.412-28.745-30.64-64.759-44.3-89.621-33.995a55.126 55.126 0 0 0-6.914 3.686c-4.878 2.905-9.92 5.911-16.337 5.341-8.162-.72-18.426-8.992-32.3-26.029-2.689-3.3-5.375-6.705-8.218-10.308-9.009-11.417-18.326-23.223-29.056-33.506-34.611-33.169-80.179-54.716-125.015-59.112-12.247-1.2-26.31-1.809-37.747 2.77-11.741 4.7-18.863 13.82-19.539 25.016-.642 10.639 2.473 22.65 7.346 37.41 10.319 31.251 10.867 65.208 1.544 95.617-5.226 16.811-13.07 32.033-20.656 46.755-6.307 12.242-12.829 24.9-17.682 38.224-16.4 45.024-14.638 98.714 4.827 147.3 20.074 50.113 61.719 92.314 106.096 107.512Z" transform="rotate(-93 110.896 286.68)" fill="url(#e)"/></g><g data-name="组 5215"><path data-name="路径 14343" d="M229.705 862.867a72.472 72.472 0 0 1-7.384-.38c-32.967-3.377-71.3-27.466-102.551-64.437-3.234-3.826-6.453-7.821-9.567-11.685-12.059-14.963-24.528-30.436-40.449-39.3-14.356-7.987-29.416-12.156-43.982-16.187-8.572-2.369-16.672-4.61-24.683-7.578-43.758-16.228-84.289-58.379-103.268-107.387-18.706-48.313-19.821-101.188-3.062-145.059 4.963-12.989 11.585-25.251 17.988-37.11 7.962-14.743 16.195-29.99 21.476-46.983 8.8-28.325 8.488-61.33-.888-92.938-4.551-15.346-5.966-27.087-4.451-36.95 1.66-10.8 9.464-18.892 21.975-22.787 10.676-3.323 22.825-2.8 37.785-.985 44.7 5.413 89.494 26.8 122.907 58.689 12.923 12.331 23.938 27.3 33.656 40.511q2.054 2.792 4.04 5.477c9.475 12.776 20.257 26.013 28.379 27.326 5.14.826 9.124-1.578 13.34-4.127a43.754 43.754 0 0 1 6.376-3.391c24.138-9.6 59.224 4.458 87.306 34.983 25.6 27.823 42.979 65.906 47.693 104.481 3.909 32.633-.471 66.422-13.389 103.3-2.7 7.7-5.579 15.434-8.365 22.914-13.587 36.472-26.42 70.922-24.048 112.307.553 9.653 1.864 19.135 3.131 28.3 1.955 14.151 3.8 27.519 2.834 40.442-1.331 17.766-9.1 33.439-21.876 44.134a63.153 63.153 0 0 1-40.923 14.42ZM1.725 721.583c7.934 2.942 16 5.173 24.535 7.537 14.67 4.06 29.838 8.258 44.384 16.351 16.232 9.033 28.816 24.647 40.984 39.748 3.107 3.854 6.319 7.841 9.539 11.651 30.95 36.618 68.834 60.468 101.341 63.8 17.631 1.8 34.3-3.029 46.944-13.616 12.394-10.374 19.932-25.6 21.225-42.868.954-12.728-.881-26-2.822-40.054-1.271-9.205-2.586-18.725-3.144-28.451-2.4-41.769 11.1-78.006 24.16-113.051 2.783-7.471 5.661-15.2 8.353-22.881 12.824-36.609 17.174-70.129 13.3-102.476-4.6-37.641-22.253-76.319-47.223-103.464-27.57-29.969-61.842-43.841-85.283-34.521a42.435 42.435 0 0 0-6.106 3.257c-4.313 2.607-8.773 5.3-14.579 4.367-8.744-1.414-19.373-14.313-29.555-28.043q-1.988-2.681-4.044-5.482c-9.674-13.15-20.639-28.053-33.445-40.273-33.134-31.617-77.551-52.829-121.865-58.2-14.723-1.782-26.654-2.309-37.02.916-6.839 2.129-18.623 7.729-20.711 21.317-1.472 9.586-.076 21.074 4.4 36.153 9.478 31.951 9.791 65.333.881 94-5.334 17.163-13.61 32.489-21.613 47.31-6.376 11.806-12.968 24.016-17.889 36.893-16.6 43.453-15.486 95.846 3.058 143.743 18.794 48.542 58.91 90.28 102.2 106.332Z" transform="rotate(-93 110.54 287.391)" fill="url(#f)"/></g><g data-name="组 5216"><path data-name="路径 14344" d="M223.315 856.4a69.684 69.684 0 0 1-7.835-.444c-32.18-3.622-68.42-26.537-99.428-62.868-3.06-3.587-6.112-7.321-9.062-10.931-11.93-14.6-24.267-29.7-40-38.3-13.994-7.645-28.586-12.084-42.7-16.377-8.924-2.715-17.352-5.279-25.617-8.588-42.622-17.067-81.6-58.744-99.3-106.179-17.757-47.589-18.221-99.15-1.274-141.463 5.048-12.6 11.754-24.478 18.239-35.962 8.347-14.781 16.979-30.067 22.381-47.338 8.344-26.672 8.258-59.133-.243-91.4-3.68-13.973-4.156-25.681-1.455-35.792 2.561-9.586 10.589-16.123 23.218-18.9 10.109-2.225 21.627-1.3 36.935.92 44.821 6.493 87.322 27 119.676 57.744 15.393 14.629 27.9 33.127 37.955 47.992 9.788 14.473 19.126 27.607 25.772 29.32 4.455 1.15 7.86-.954 11.465-3.18a33.039 33.039 0 0 1 5.6-2.976c23.08-8.685 55.613 5.254 82.884 35.518 24.382 27.057 41.516 65 45.834 101.493 3.64 31.544-.847 64.2-13.718 99.851-2.371 6.567-4.856 13.164-7.26 19.544-13.469 35.745-26.19 69.506-25.025 110.1.254 8.882 1.057 17.468 1.834 25.772 1.223 13.072 2.378 25.42 1.254 37.248-1.618 17.058-9.317 31.98-21.679 42.018a60.454 60.454 0 0 1-38.451 13.178ZM-.666 717.253c8.195 3.282 16.588 5.835 25.474 8.539 14.2 4.319 28.878 8.785 43.032 16.517 16.035 8.76 28.483 24 40.521 38.728 2.945 3.6 5.989 7.332 9.038 10.9 30.719 35.993 66.54 58.685 98.278 62.259 16.858 1.9 32.824-2.491 44.974-12.358 11.991-9.737 19.46-24.229 21.034-40.81 1.107-11.662-.04-23.929-1.255-36.917-.779-8.332-1.584-16.947-1.841-25.887-1.174-40.935 11.607-74.855 25.139-110.768 2.4-6.375 4.885-12.966 7.252-19.522 12.776-35.384 17.232-67.781 13.625-99.044-4.277-36.142-21.246-73.719-45.391-100.515-26.78-29.719-58.55-43.474-80.946-35.046a31.56 31.56 0 0 0-5.293 2.826c-3.762 2.321-7.654 4.721-12.836 3.387-7.257-1.87-16.43-14.713-26.8-30.044-10-14.793-22.453-33.2-37.709-47.7-32.087-30.489-74.245-50.83-118.707-57.271-15.11-2.19-26.454-3.109-36.3-.944-8.327 1.834-18.884 6.381-21.89 17.632-2.62 9.806-2.144 21.218 1.457 34.884 8.584 32.589 8.663 65.4.221 92.385-5.458 17.449-14.137 32.817-22.53 47.679-6.456 11.433-13.132 23.256-18.137 35.75-16.785 41.909-16.315 93 1.29 140.186 17.534 46.989 56.119 88.265 98.3 105.154Z" transform="rotate(-93 110.199 288.086)" fill="url(#g)"/></g><g data-name="组 5217"><path data-name="路径 14345" d="M216.911 849.9a67.533 67.533 0 0 1-8.275-.515c-30.9-3.816-66-26.159-96.3-61.3-2.879-3.34-5.753-6.806-8.532-10.158-11.811-14.247-24.024-28.98-39.575-37.316-13.521-7.248-27.536-11.894-41.089-16.388-9.388-3.113-18.257-6.054-26.874-9.771-41.466-17.883-78.886-59.087-95.335-104.971-16.79-46.834-16.6-97.084.511-137.867 5.138-12.241 11.928-23.748 18.5-34.876 8.732-14.8 17.762-30.1 23.283-47.629 10.079-32.01 5.782-66.54.4-89.871-3.058-13.262-2.549-24.593 1.553-34.642 3.446-8.44 11.443-13.349 24.448-15.007 10.277-1.31 21.923.42 36.082 2.818 44.32 7.508 85.674 27.679 116.445 56.8 15.605 14.77 28.073 33.558 38.211 49.989l2.1 3.409c8.562 13.915 15.957 25.933 21.085 27.923 3.738 1.451 6.441-.262 9.571-2.245a24.085 24.085 0 0 1 4.829-2.562c21.687-7.56 52.482 6.589 78.459 36.053 23.542 26.7 39.982 63.528 43.975 98.507 3.372 30.459-1.223 61.992-14.048 96.4q-2.865 7.686-5.781 15.264c-13.486 35.327-26.224 68.695-26.379 108.793-.031 7.871.271 15.342.562 22.568.492 12.232.958 23.785-.347 34.728-1.954 16.38-9.617 30.563-21.578 39.934a57.723 57.723 0 0 1-35.901 11.932ZM-22.812 250.846a58.149 58.149 0 0 0-7.348.436c-12.34 1.574-19.89 6.14-23.082 13.959-3.965 9.711-4.446 20.7-1.471 33.611 5.427 23.539 9.757 58.392-.438 90.77-5.579 17.715-14.66 33.1-23.44 47.985-6.538 11.079-13.3 22.535-18.391 34.67-16.952 40.393-17.126 90.193-.479 136.629 16.3 45.46 53.352 86.274 94.4 103.977 8.549 3.687 17.383 6.617 26.735 9.717 13.622 4.518 27.708 9.188 41.357 16.505 15.849 8.495 28.169 23.356 40.087 37.731 2.774 3.346 5.642 6.806 8.51 10.132 30.028 34.824 64.734 56.957 95.217 60.722 16.036 1.98 31.277-1.95 42.913-11.067 11.6-9.091 19.036-22.866 20.934-38.791 1.289-10.808.826-22.3.336-34.458-.292-7.245-.594-14.735-.563-22.642.156-40.411 12.948-73.92 26.492-109.4 1.93-5.056 3.868-10.133 5.776-15.252 12.729-34.152 17.293-65.427 13.951-95.613-3.956-34.641-20.239-71.115-43.559-97.567-25.515-28.938-55.587-42.9-76.615-35.568a22.8 22.8 0 0 0-4.476 2.392c-3.229 2.042-6.565 4.153-11.1 2.393-5.664-2.2-12.839-13.858-21.921-28.62l-2.1-3.409c-10.08-16.336-22.468-35.01-37.932-49.643-30.532-28.888-71.571-48.903-115.56-56.354-10.721-1.815-19.978-3.245-28.233-3.245Z" transform="rotate(-93 109.875 288.76)" fill="url(#h)"/></g><g data-name="组 5218"><path data-name="路径 14346" d="M210.708 843.368a66.565 66.565 0 0 1-8.919-.61c-29.614-4-63.577-25.775-93.178-59.734-2.688-3.084-5.375-6.274-7.972-9.361-11.7-13.9-23.8-28.275-39.182-36.359-12.9-6.783-26.2-11.551-39.062-16.161-10-3.588-19.456-6.975-28.547-11.191-40.281-18.677-76.148-59.406-91.367-103.764-15.805-46.05-14.967-94.989 2.3-134.27 5.229-11.9 12.1-23.055 18.754-33.844 9.116-14.8 18.544-30.095 24.179-47.871 7.574-23.9 7.929-53.615 1.051-88.334-2.564-12.944-1.066-23.9 4.578-33.493 5.451-9.267 16.577-10.8 25.66-11.105 9.46-.313 19.975 1.736 33.293 4.334l1.937.377c31.023 6.038 75.848 20.628 113.216 55.855 13.187 12.431 25.768 29.435 38.463 51.984 2.24 3.979 4.286 7.741 6.265 11.38 6.075 11.172 10.872 20 14.347 21.988 2.978 1.709 5.146.3 7.656-1.334a16.853 16.853 0 0 1 4.075-2.147c20.674-6.432 49.042 7.588 74.027 36.591 22.777 26.438 38.522 62.147 42.118 95.521 3.153 29.261-1.55 59.664-14.377 92.948q-1.791 4.644-3.581 9.246c-13.785 35.493-26.8 69.017-28.454 109.231-.245 5.978-.376 11.594-.5 17.025-.3 12.778-.552 23.817-2.158 34.547-4.43 29.583-26.324 48.551-54.622 48.551ZM-5.459 708.456c9.024 4.184 18.441 7.56 28.41 11.133 12.915 4.63 26.269 9.418 39.273 16.254C77.891 744.079 90.1 758.58 101.9 772.6c2.592 3.081 5.274 6.266 7.953 9.339 29.343 33.661 62.932 55.232 92.156 59.182 31.58 4.278 56.95-14.871 61.686-46.549 1.589-10.629 1.845-21.619 2.14-34.342.126-5.439.256-11.062.5-17.053 1.66-40.489 14.728-74.137 28.564-109.762q1.787-4.6 3.58-9.241c12.731-33.034 17.4-63.185 14.276-92.179-3.562-33.054-19.161-68.427-41.728-94.622-24.55-28.5-52.252-42.329-72.288-36.091a15.61 15.61 0 0 0-3.666 1.954c-2.589 1.684-5.521 3.591-9.375 1.384-3.88-2.225-8.534-10.784-14.977-22.631-1.976-3.633-4.018-7.39-6.252-11.358-12.613-22.4-25.094-39.28-38.157-51.594C89.235 284.082 44.726 269.6 13.917 263.6l-1.938-.377c-13.215-2.577-23.653-4.619-32.922-4.3-12.866.428-20.358 3.6-24.294 10.293-3.465 5.888-7.687 15.646-4.382 32.336 6.931 35 6.563 64.99-1.1 89.154-5.7 17.971-15.178 33.357-24.347 48.236-6.619 10.743-13.464 21.85-18.648 33.643-17.1 38.905-17.92 87.409-2.247 133.073 15.087 43.949 50.61 84.301 90.502 102.798Z" transform="rotate(-93 109.577 289.402)" fill="url(#i)"/></g><g data-name="组 5219"><path data-name="路径 14347" d="M204.3 836.641a64.067 64.067 0 0 1-9.363-.7c-28.325-4.185-61.148-25.385-90.054-58.164-2.485-2.817-4.972-5.724-7.376-8.535-11.6-13.566-23.6-27.592-38.826-35.435C46.6 727.578 34.2 722.811 22.216 718.2c-10.83-4.166-21.059-8.1-30.785-12.939-39.672-19.74-73.162-59.036-87.4-102.554-14.8-45.239-13.312-92.868 4.084-130.675 5.324-11.571 12.284-22.392 19.016-32.858 9.5-14.774 19.326-30.052 25.074-48.064 7.128-22.335 7.684-50.727 1.7-86.8-2.148-12.948.344-23.527 7.618-32.337 5.9-7.152 16.185-9.908 26.852-7.216 6.617-.8 13.9 1.205 22.331 3.526 3.821 1.052 7.772 2.139 12.047 3.083 30.719 6.778 74.737 21.807 109.988 54.911 14.086 13.229 27.111 31.389 38.712 53.977 3.531 6.875 6.585 13.122 9.28 18.634 4.026 8.237 6.957 14.232 8.781 16.783 2.609 1.287 4.067.413 5.9-.691a11.736 11.736 0 0 1 3.154-1.478c19.466-4.995 46.132 9.23 69.585 37.129 21.937 26.1 36.988 60.688 40.261 92.533 2.9 28.182-1.915 57.456-14.707 89.5-3.12 7.814-6.581 15.634-9.93 23.2-12.981 29.323-25.243 57.02-21.983 89.558l.015.146-.039.142c-2.909 10.65-3.4 19.87-3.875 28.787a128.425 128.425 0 0 1-1.633 16.922c-5.262 27.948-25.613 45.222-51.962 45.222ZM-7.861 703.836c9.659 4.805 19.854 8.728 30.648 12.88 12.028 4.627 24.464 9.41 36.627 15.677 15.5 7.984 27.6 22.131 39.3 35.813 2.4 2.807 4.884 5.71 7.361 8.518 28.661 32.5 61.134 53.51 89.094 57.642 29.9 4.424 53.824-12.96 59.528-43.245a127.423 127.423 0 0 0 1.608-16.713c.455-8.543.971-18.221 3.89-28.978-3.249-32.9 9.65-62.032 22.125-90.213 3.343-7.551 6.8-15.357 9.907-23.143 12.695-31.8 17.471-60.824 14.6-88.745-3.241-31.541-18.155-65.811-39.9-91.673-23.057-27.429-49.1-41.452-67.974-36.613a10.373 10.373 0 0 0-2.73 1.3c-1.927 1.158-4.112 2.472-7.613.656l-.164-.084-.11-.149c-1.9-2.576-4.9-8.7-9.04-17.179-2.692-5.506-5.742-11.746-9.266-18.606-11.518-22.428-24.433-40.443-38.387-53.546-34.988-32.858-78.718-47.782-109.242-54.518-4.315-.953-8.287-2.045-12.127-3.1-8.328-2.293-15.52-4.272-21.86-3.464l-.151.02-.148-.039c-10.114-2.6-19.842-.055-25.377 6.651-6.965 8.436-9.344 18.6-7.276 31.066 6.025 36.327 5.451 64.961-1.754 87.541-5.812 18.212-15.694 33.58-25.251 48.441-6.7 10.419-13.631 21.194-18.908 32.662-17.232 37.448-18.7 84.654-4.018 129.515 14.11 43.129 47.293 82.069 86.6 101.626Z" transform="rotate(-93 109.368 289.949)" fill="url(#j)"/></g><g data-name="组 5220"><path data-name="路径 14348" d="M197.717 829.879a60.461 60.461 0 0 1-9.63-.789c-27.031-4.361-58.716-24.99-86.93-56.6-2.266-2.538-4.5-5.11-6.738-7.677-12.05-13.85-23.432-26.932-38.51-34.539-11.006-5.552-22.248-10.154-33.119-14.6-11.935-4.885-23.208-9.5-33.778-15.134-38.419-20.479-70.391-59.314-83.438-101.346-13.781-44.4-11.641-90.714 5.871-127.076 5.419-11.255 12.463-21.753 19.274-31.908 9.889-14.741 20.113-29.984 25.972-48.224 8.562-26.654 5.993-58.056 2.35-85.258-1.77-13.212 1.721-23.407 10.672-31.17 6.857-5.947 17.583-7.216 28.025-3.322 5.918-.219 12.3 1.888 19.676 4.325 4.344 1.436 8.836 2.92 13.857 4.164 44.283 10.961 80.2 29.117 106.76 53.965 19.744 18.472 32.884 42.994 38.96 55.967 7.142 15.253 11.859 27.838 14.394 34.6.442 1.18.81 2.16 1.1 2.915 1.8 1.275 2.57.794 3.723.077a5.077 5.077 0 0 1 2.685-.99c16.185-6.05 41.122 8.368 65.129 37.681 21.408 26.139 35.4 58.778 38.4 89.545 2.641 27.114-2.278 55.259-15.037 86.046-3.071 7.409-6.459 14.816-9.737 21.981-12.769 27.912-24.829 54.276-22.049 85.175l.015.172-.06.162c-3.855 10.456-5.092 19.361-6.183 27.216-.618 4.445-1.2 8.643-2.185 12.753-6.279 26.234-25.202 41.889-49.469 41.889ZM-14.189 271.531a22.786 22.786 0 0 0-15.1 5.18c-8.532 7.4-11.854 17.149-10.158 29.81 3.665 27.372 6.245 58.986-2.41 85.931-5.925 18.444-16.211 33.778-26.157 48.607-6.781 10.11-13.794 20.563-19.167 31.719-17.344 36.016-19.455 81.928-5.787 125.96 12.932 41.663 44.62 80.152 82.7 100.449 10.5 5.6 21.74 10.2 33.639 15.07 10.9 4.461 22.168 9.074 33.228 14.655 15.346 7.742 27.358 21.548 38.975 34.9 2.229 2.562 4.462 5.129 6.725 7.664 27.984 31.348 59.342 51.8 86.032 56.1 27.962 4.515 50.482-11.17 57.372-39.947.967-4.037 1.545-8.2 2.158-12.609 1.1-7.892 2.338-16.833 6.2-27.373-2.754-31.233 9.93-58.96 22.2-85.778 3.272-7.15 6.655-14.545 9.715-21.928 12.661-30.551 17.544-58.457 14.928-85.314-2.969-30.475-16.843-62.813-38.064-88.724-23.644-28.869-47.989-43.118-63.535-37.17l-.142.054h-.151a3.338 3.338 0 0 0-1.992.757c-1.275.793-2.86 1.781-5.62-.276l-.177-.131-.079-.2c-.305-.784-.7-1.841-1.189-3.141-2.526-6.741-7.231-19.29-14.347-34.487-6.029-12.873-19.063-37.2-38.619-55.5-26.365-24.667-62.057-42.7-106.084-53.6-5.077-1.257-9.8-2.818-13.969-4.2-7.3-2.411-13.6-4.487-19.285-4.242l-.157.007-.147-.055a32.791 32.791 0 0 0-11.536-2.188Z" transform="rotate(-93 109.172 290.478)" fill="url(#k)"/></g><g data-name="组 5221"><path data-name="路径 14349" d="M191.93 823.116a61.714 61.714 0 0 1-10.7-.947c-25.73-4.53-56.276-24.586-83.806-55.027-2.034-2.249-4.045-4.52-6.052-6.786-11.979-13.523-23.293-26.3-38.244-33.679-9.555-4.718-19.288-8.917-28.7-12.978-13.441-5.8-26.135-11.277-37.841-17.954C-50.549 674.56-81 636.189-92.884 595.607c-12.745-43.526-9.955-88.531 7.655-123.479 5.518-10.949 12.642-21.137 19.532-30.991 10.275-14.694 20.9-29.89 26.87-48.349 8.1-25.055 5.926-55.1 3-83.719-1.377-13.477 3.241-23.563 13.729-29.979 7.754-4.746 18.923-4.53 29.184.555 5.3.266 10.876 2.458 17.325 4.992a151.01 151.01 0 0 0 15.368 5.368c45.174 12.438 78.073 29.286 103.535 53.022 20.918 19.5 33.54 44.68 39.2 57.954 8.163 19.138 12.206 34.31 12.9 39.641 1.209 1.31 1.5 1.113 1.965.8a2.324 2.324 0 0 1 1.873-.493c14.767-5.193 37.4 9.084 60.63 38.24 20.547 25.794 33.867 57.344 36.545 86.559 2.389 26.055-2.637 53.072-15.367 82.6-3.022 7.01-6.339 14.011-9.547 20.782-12.552 26.5-24.408 51.521-22.111 80.774l.016.2-.087.179c-3.717 7.662-5.214 14.274-6.535 20.107-1.207 5.327-2.25 9.936-4.672 14.137a39.576 39.576 0 0 1-15.226 28.62c-8.359 6.53-19.274 9.988-30.968 9.989ZM-9.035 277.141a23.455 23.455 0 0 0-12.294 3.2c-9.964 6.1-14.35 15.71-13.035 28.576 2.941 28.779 5.126 58.994-3.065 84.32-6.038 18.669-16.727 33.956-27.064 48.739-6.86 9.811-13.954 19.955-19.424 30.811-17.444 34.618-20.2 79.232-7.558 122.405 11.78 40.23 41.971 78.269 78.793 99.274 11.633 6.637 24.293 12.1 37.695 17.881 9.428 4.067 19.177 8.275 28.766 13.01 15.21 7.508 27.148 20.988 38.693 34.023 2 2.262 4.011 4.528 6.041 6.773 27.315 30.2 57.557 50.091 82.972 54.567 15.2 2.676 29.964-.518 40.51-8.758a38.13 38.13 0 0 0 14.678-27.736l.011-.172.087-.149c2.369-4.044 3.4-8.6 4.593-13.868a88.146 88.146 0 0 1 6.559-20.244c-2.259-29.556 9.654-54.7 22.263-81.319 3.2-6.759 6.514-13.75 9.525-20.735 12.631-29.293 17.62-56.075 15.254-81.88-2.653-28.936-15.859-60.2-36.232-85.778-22.927-28.781-45.059-42.877-59.195-37.7l-.238.086-.24-.076c-.321-.1-.472-.018-.86.243-1.166.786-2.2.842-4.033-1.205l-.155-.174-.027-.231c-.591-5.025-4.594-20.185-12.821-39.471-5.617-13.168-18.134-38.144-38.854-57.458-25.277-23.561-57.982-40.295-102.919-52.672A152.249 152.249 0 0 1 23.877 286c-6.391-2.51-11.91-4.68-17.008-4.9l-.157-.006-.141-.071a35.235 35.235 0 0 0-15.606-3.882Z" transform="rotate(-93 109.007 290.97)" fill="url(#l)"/></g><g data-name="组 5222"><path data-name="路径 14350" d="M185.7 816.27a60.134 60.134 0 0 1-11.332-1.1c-33.435-6.42-64.9-36.25-80.681-53.458q-2.667-2.908-5.3-5.837c-11.93-13.22-23.2-25.707-38.047-32.875-7.574-3.657-15.273-7.118-22.72-10.466-15.535-6.983-30.208-13.579-43.458-21.659-35.832-21.85-64.767-59.757-75.513-98.929-11.693-42.623-8.252-86.318 9.441-119.88 5.617-10.654 12.82-20.54 19.785-30.1 10.665-14.638 21.692-29.775 27.773-48.451 7.81-23.987 5.746-52.882 3.923-78.376l-.27-3.8c-1.3-18.437 9.956-25.937 16.783-28.766 8.6-3.562 20.212-1.873 30.338 4.412 4.738.674 9.618 2.933 15.26 5.545a126.169 126.169 0 0 0 16.6 6.683C78.917 308.534 118 322.872 148.6 351.294c16.085 14.94 30.461 36.787 39.445 59.94 7.442 19.182 10.77 35.435 10.256 41.775.376.683.609 1.069.751 1.288a.17.17 0 0 1 .085 0 .979.979 0 0 1 .585.208c13.3-4.189 33.674 9.926 56.023 38.828 19.68 25.448 32.324 55.909 34.689 83.571 2.168 25.354-2.82 50.5-15.7 79.146-2.975 6.616-6.222 13.217-9.363 19.6-12.333 25.072-23.982 48.75-22.171 76.35l.015.228-.121.193a89.206 89.206 0 0 0-8.141 16.9c-1.721 4.462-3.212 8.327-5.91 11.633a36.465 36.465 0 0 1-14.419 26.216c-7.824 5.964-17.994 9.1-28.924 9.1ZM-15.1 689.677c13.175 8.034 27.809 14.612 43.3 21.576 7.455 3.351 15.164 6.817 22.754 10.482 15.1 7.289 26.457 19.876 38.481 33.2 1.755 1.944 3.513 3.893 5.288 5.828 15.663 17.082 46.872 46.684 79.909 53.027 14.7 2.822 28.969 0 39.141-7.739a35.087 35.087 0 0 0 13.886-25.43l.018-.223.143-.173c2.64-3.165 4.044-6.8 5.82-11.411a90.715 90.715 0 0 1 8.141-16.947c-1.758-27.877 9.941-51.664 22.325-76.841 3.136-6.374 6.377-12.965 9.343-19.559 12.775-28.414 17.725-53.341 15.579-78.446-2.343-27.4-14.882-57.591-34.4-82.831-21.86-28.267-42.365-42.556-54.854-38.224l-.445.154-.256-.288a.74.74 0 0 1-.266.017c-.479-.052-.747-.335-1.849-2.352l-.1-.191.021-.216c.6-6.012-2.7-22.145-10.147-41.348-8.908-22.961-23.156-44.617-39.09-59.417-30.388-28.226-69.277-42.489-99.762-51.76a127.33 127.33 0 0 1-16.782-6.754c-5.6-2.592-10.432-4.829-15.007-5.448l-.15-.019-.128-.082c-9.777-6.113-20.959-7.793-29.181-4.384-7.911 3.277-17.095 10.687-15.918 27.364l.271 3.8c1.831 25.623 3.906 54.664-3.989 78.914-6.149 18.887-17.245 34.116-27.975 48.842-6.936 9.521-14.108 19.366-19.677 29.93-17.528 33.248-20.928 76.568-9.329 118.85 10.655 38.838 39.35 76.428 74.888 98.1Z" transform="rotate(-93 108.874 291.423)" fill="url(#m)"/></g><g data-name="组 5223"><path data-name="路径 14351" d="M179.487 809.379a58.572 58.572 0 0 1-11.987-1.268c-31.629-6.625-62.169-35.355-77.558-51.889q-2.24-2.408-4.456-4.825c-11.908-12.943-23.157-25.168-37.935-32.138a1788.379 1788.379 0 0 0-14.293-6.637c-18.563-8.552-36.1-16.63-51.523-26.679-34.5-22.47-61.914-59.914-71.552-97.72-10.628-41.691-6.536-84.073 11.226-116.281 5.716-10.365 12.994-19.957 20.033-29.234 11.058-14.572 22.491-29.641 28.683-48.528 7.054-21.516 5.89-46.3 4.766-70.261-.164-3.505-.327-6.97-.461-10.373-.783-20.048 13.6-25.932 19.824-27.532 9.4-2.415 21.459.745 31.5 8.253 4.24 1.012 8.517 3.325 13.462 6a108.084 108.084 0 0 0 17.573 8.092c31.678 10.583 67.918 24.133 97.088 51.131 16.854 15.6 31.318 38.169 39.685 61.923 7.556 21.453 9.243 37.441 7.571 43.9a5.165 5.165 0 0 1 .231 2.456c11.792-1.973 29.512 11.991 50.236 39.655 18.806 25.1 30.773 54.475 32.832 80.584 1.917 24.306-3.176 48.358-16.029 75.7-2.929 6.231-6.11 12.441-9.185 18.446-12.118 23.633-23.551 45.965-22.218 71.903l.013.259-.164.2a117.114 117.114 0 0 0-9.131 13.016c-2.54 4.068-4.56 7.3-7.759 9.825a33.408 33.408 0 0 1-13.6 23.8c-7.297 5.402-16.712 8.222-26.872 8.222ZM-17.529 684.814c15.344 9.994 32.835 18.053 51.351 26.583 4.755 2.19 9.535 4.394 14.3 6.643 15.016 7.083 26.352 19.4 38.352 32.444q2.217 2.409 4.451 4.818c15.281 16.419 45.583 44.941 76.848 51.49 14.212 2.976 27.984.531 37.78-6.712a31.665 31.665 0 0 0 13.084-23.135l.027-.295.235-.18c3.141-2.4 5.04-5.441 7.669-9.649a118.747 118.747 0 0 1 9.065-12.954c-1.258-26.189 10.224-48.607 22.378-72.338 3.071-5.995 6.245-12.194 9.166-18.4 12.748-27.116 17.8-50.953 15.9-75.016-2.041-25.862-13.91-54.978-32.567-79.881-21.108-28.176-39.523-42.311-50.517-38.751l-.807.26-.071-.846a1.253 1.253 0 0 1 .872-1.483.636.636 0 0 0 .1-.043 5.778 5.778 0 0 0-.318-1.885l-.047-.177.048-.178c1.64-5.932-.006-22-7.5-43.266-8.3-23.552-22.631-45.925-39.329-61.38-28.974-26.817-65.055-40.3-96.6-50.842a109.273 109.273 0 0 1-17.788-8.186c-4.913-2.658-9.154-4.952-13.264-5.9l-.139-.033-.114-.086c-9.74-7.329-21.413-10.436-30.462-8.108-5.9 1.517-19.557 7.106-18.812 26.173.133 3.4.295 6.86.459 10.363 1.13 24.086 2.3 48.993-4.831 70.743-6.263 19.1-17.766 34.262-28.89 48.924-7.009 9.239-14.257 18.791-19.926 29.07-17.6 31.911-21.643 73.934-11.1 115.3 9.558 37.491 36.757 74.63 70.982 96.923Z" transform="rotate(-93 108.772 291.838)" fill="url(#n)"/></g><g data-name="组 5224"><path data-name="路径 14352" d="M173.3 802.451a56.975 56.975 0 0 1-12.671-1.465c-22.09-5.048-48.525-22.92-74.434-50.322q-1.761-1.864-3.51-3.73c-11.922-12.7-23.183-24.694-37.929-31.481l-1.7-.786c-22.167-10.2-45.09-20.75-63.747-33.721-33.638-23.388-58.907-59.468-67.594-96.512-9.549-40.726-4.807-81.8 13.011-112.682 5.814-10.079 13.164-19.383 20.27-28.379 11.454-14.5 23.3-29.495 29.6-48.594 6.47-19.6 5.86-42.148 5.271-63.954-.142-5.252-.275-10.212-.312-15.133C-20.58 298.5-8.734 290.84 2.4 289.408c10.176-1.317 22.679 3.314 32.657 12.077 3.8 1.291 7.56 3.65 11.9 6.375 5.161 3.239 11.009 6.91 18.317 9.578 29.1 10.626 65.312 23.849 93.868 50.186 17.335 15.989 32.259 39.877 39.922 63.9 6.221 19.5 8.166 37.938 4.863 45.983.057 2.4-.734 3.23-1.772 3.795 12.821-.693 31.506 21.107 45.287 40.144 17.925 24.757 29.215 53.039 30.976 77.6 1.668 23.271-3.529 46.226-16.359 72.245-2.886 5.854-6 11.68-9.017 17.313-11.881 22.206-23.1 43.18-22.26 67.45l.01.291-.212.2c-3.234 3.045-5.7 5.558-7.88 7.772-4.648 4.73-7.5 7.635-11.846 9.414a30.4 30.4 0 0 1-12.758 21.382c-6.759 4.829-15.419 7.338-24.796 7.338ZM5.922 290.475a26.363 26.363 0 0 0-3.362.21c-5.134.661-21.877 4.417-21.723 25 .036 4.908.17 9.862.312 15.108.592 21.918 1.2 44.581-5.336 64.394C-30.563 414.5-42.478 429.584-54 444.173c-7.078 8.961-14.4 18.227-20.166 28.225C-91.822 503-96.514 543.731-87.039 584.142c8.616 36.742 33.691 72.536 67.075 95.747C-1.4 692.8 21.47 703.322 43.587 713.5l1.7.785c14.974 6.893 26.319 18.977 38.33 31.77q1.748 1.859 3.506 3.724c25.736 27.221 51.94 44.96 73.786 49.951 13.728 3.139 27.008 1.071 36.432-5.668a28.745 28.745 0 0 0 12.274-20.862l.041-.391.367-.142c4.292-1.662 6.944-4.361 11.757-9.259 2.033-2.068 4.551-4.63 7.7-7.609-.756-24.49 10.5-45.535 22.42-67.81 3.009-5.624 6.12-11.44 9-17.275 12.724-25.8 17.88-48.55 16.228-71.582-1.743-24.324-12.945-52.366-30.733-76.934-20.629-28.493-36.6-42.08-46.183-39.277l-1.178.343.386-1.165a2.9 2.9 0 0 1 1.777-1.761c.847-.4 1.516-.723 1.434-2.929l-.005-.143.056-.132c2.72-6.417 2.275-22.888-4.849-45.221-7.6-23.821-22.391-47.5-39.569-63.346-28.364-26.157-64.442-39.332-93.432-49.918-7.435-2.716-13.347-6.425-18.561-9.7-4.321-2.711-8.052-5.053-11.75-6.286l-.222-.129c-8.644-7.623-19.215-12.059-28.377-12.059Z" transform="rotate(-93 108.695 292.22)" fill="url(#o)"/></g><g data-name="组 5225"><path data-name="路径 14353" d="M167.13 795.507a55.441 55.441 0 0 1-13.386-1.7c-26.561-6.626-53.44-30.169-71.311-48.753l-2.421-2.524c-11.982-12.5-23.3-24.309-38.066-30.934-21.236-9.53-45.575-21.223-65.086-35.7-32.23-23.912-56.019-59.539-63.636-95.3-8.46-39.727-3.068-79.485 14.794-109.08 5.913-9.8 13.327-18.818 20.5-27.541 11.855-14.422 24.112-29.336 30.531-48.645 6-18.052 5.793-38.8 5.594-58.865-.065-6.509-.127-12.658.019-18.677.439-18.064 14.2-24.773 25.854-25.028 11.091-.275 23.741 5.694 33.828 15.892 3.418 1.525 6.732 3.922 10.563 6.693 5.219 3.774 11.133 8.053 18.85 11.121q2.959 1.177 6.016 2.38c26.268 10.366 58.961 23.269 84.632 46.86 18.041 16.581 33.055 41.209 40.16 65.879 6.252 21.707 5.059 39.443 2.137 48.035a7.377 7.377 0 0 1-3.775 4.54 10.3 10.3 0 0 0-1.124.736h.307c8.78 0 21.968 13.009 41.173 40.53 10.011 14.346 27.106 43.118 29.119 74.61 1.423 22.253-3.881 44.112-16.689 68.794-2.849 5.49-5.908 10.943-8.867 16.219-11.646 20.751-22.646 40.363-22.287 62.945l.005.323-.264.187c-11.365 8.1-15.818 11.044-22.566 11.564a27.077 27.077 0 0 1-11.9 18.957c-6.212 4.275-14.111 6.482-22.704 6.482ZM11.145 293.984c-.2 0-.4 0-.6.006-11.111.245-24.235 6.632-24.652 23.83-.146 6-.085 12.137-.02 18.637.2 20.165.409 41.018-5.655 59.262-6.491 19.527-18.823 34.53-30.748 49.039-7.143 8.69-14.528 17.674-20.4 27.4-17.7 29.33-23.039 68.764-14.643 108.191 7.555 35.478 31.169 70.833 63.166 94.571 19.416 14.406 43.681 26.063 64.857 35.564C57.433 717.2 68.831 729.1 80.9 741.685l2.42 2.523c17.759 18.466 44.445 41.857 70.723 48.412 13.25 3.3 26.044 1.626 35.1-4.607a25.883 25.883 0 0 0 11.442-18.6l.062-.509.512-.029c6.652-.39 10.933-3.186 22.172-11.187-.253-22.777 10.773-42.436 22.444-63.244 2.954-5.266 6.008-10.711 8.847-16.183 12.7-24.474 17.962-46.129 16.555-68.148-1.994-31.2-18.963-59.745-28.9-73.986-20.1-28.809-33.8-41.829-41.854-39.8l-1.418.355.739-1.261a6.364 6.364 0 0 1 2.554-2.313 6.187 6.187 0 0 0 3.241-3.88c2.864-8.422 4.019-25.865-2.154-47.3-7.046-24.462-21.928-48.878-39.811-65.313-25.5-23.439-58.077-36.293-84.252-46.623q-3.056-1.206-6.018-2.38c-7.859-3.125-13.839-7.45-19.116-11.268-3.815-2.759-7.109-5.142-10.446-6.613l-.19-.131c-9.54-9.676-21.895-15.616-32.407-15.616Z" transform="rotate(-93 108.638 292.574)" fill="url(#p)"/></g><g data-name="组 5226"><path data-name="路径 14354" d="M160.992 788.564a53.914 53.914 0 0 1-14.138-1.964c-24.776-6.754-50.756-29.387-68.188-47.185l-1.143-1.166c-12.1-12.367-23.535-24.047-38.393-30.54-27.213-11.892-48.382-23.959-64.718-36.89-30.8-24.38-53.108-59.555-59.678-94.094-7.362-38.7-1.32-77.143 16.576-105.48 6.01-9.515 13.484-18.255 20.711-26.708 12.261-14.337 24.94-29.168 31.479-48.692 5.609-16.758 5.711-36 5.808-54.619.039-7.481.076-14.548.46-21.374.41-7.3 3.033-13.132 7.794-17.336 5.256-4.64 12.933-6.99 21.049-6.43 11.638.793 22.576 9.648 34.155 19.022l.844.682a233.887 233.887 0 0 1 3.923 3.276c6.156 5.214 13.817 11.7 24.7 16.4 3.506 1.514 7.135 3.038 10.854 4.6 25.005 10.51 53.346 22.422 76.575 43.7 18.731 17.154 33.831 42.52 40.4 67.853 6.042 23.319 3.665 41.15-.574 50.061a11.209 11.209 0 0 1-5.2 5.185 14.608 14.608 0 0 0-2.358 1.587c7.187.425 18.221 12.627 37.192 40.921 16.373 24.418 26.055 49.856 27.262 71.625 1.179 21.249-4.229 42.013-17.02 65.341-2.817 5.137-5.824 10.231-8.734 15.158-11.395 19.3-22.158 37.527-22.288 58.411v.351l-.311.163c-12.958 6.782-18.691 7.415-25.414 5.961a24.233 24.233 0 0 1-11.02 16.549c-5.678 3.724-12.816 5.632-20.605 5.632ZM-24.863 669.9c16.256 12.868 37.342 24.883 64.462 36.733 15.065 6.584 26.574 18.344 38.76 30.794L79.5 738.6c17.331 17.695 43.138 40.19 67.661 46.874 12.78 3.484 25.091 2.2 33.778-3.522a23.08 23.08 0 0 0 10.6-16.361l.089-.632.622.143c6.8 1.574 12.035 1.144 24.912-5.559.25-21.051 11.034-39.315 22.448-58.645 2.9-4.919 5.908-10 8.714-15.125 12.682-23.13 18.045-43.693 16.879-64.716-1.2-21.562-10.809-46.79-27.067-71.038-13.97-20.835-29.35-41.909-37.531-40.329l-1.5.291.921-1.216a11.34 11.34 0 0 1 3.657-2.915 9.964 9.964 0 0 0 4.734-4.676c4.151-8.727 6.462-26.251.5-49.267-6.509-25.123-21.483-50.277-40.054-67.284-23.08-21.137-51.322-33.006-76.238-43.478-3.723-1.566-7.355-3.092-10.864-4.607-11.038-4.763-18.773-11.314-24.988-16.578a240.295 240.295 0 0 0-3.9-3.257l-.844-.683c-11.432-9.255-22.229-18-33.5-18.765-7.808-.526-15.174 1.706-20.2 6.141-4.519 3.989-7.009 9.549-7.4 16.526-.382 6.8-.419 13.849-.457 21.315-.1 18.705-.2 38.047-5.868 54.982C-22 415.955-34.757 430.87-47.092 445.3c-7.2 8.421-14.646 17.129-20.611 26.574-17.74 28.088-23.724 66.228-16.416 104.638 6.519 34.267 28.671 69.181 59.256 93.388Z" transform="rotate(-93 108.595 292.905)" fill="url(#q)"/></g><g data-name="组 5227"><path data-name="路径 14355" d="M154.885 781.641a52.463 52.463 0 0 1-14.932-2.283c-18.429-5.5-40.32-20.845-65.065-45.615-11.571-11.583-23.537-23.562-38.588-29.956-25.359-10.777-47.61-23.945-64.345-38.078-29.344-24.785-50.175-59.509-55.723-92.886-6.257-37.632.435-74.766 18.358-101.878 6.1-9.233 13.63-17.7 20.908-25.88 12.675-14.255 25.782-28.995 32.436-48.735 5.275-15.649 5.622-33.611 5.956-50.982.159-8.247.31-16.037.968-23.46.649-7.331 3.57-13.1 8.679-17.137 5.84-4.617 14.493-6.628 23.14-5.367 13.056 1.9 25.342 13.376 36.181 23.5 1.144 1.067 2.32 2.217 3.554 3.419 5.94 5.795 13.333 13.009 24.272 18.118 4.66 2.178 9.507 4.327 14.64 6.6 22.712 10.069 48.453 21.479 69.571 40.751 19.117 17.444 34.685 44.2 40.63 69.824 5.725 24.674 2.058 43.076-3.282 52.071-1.849 3.114-4.266 4.5-6.6 5.843a20.565 20.565 0 0 0-3.677 2.474c6.863 1.392 18.1 18.145 32.962 41.287 10.93 17.024 24.21 42.751 25.407 68.635 1.231 26.629-9.313 48.076-17.352 61.893-2.792 4.8-5.759 9.548-8.628 14.141-11.133 17.825-21.65 34.66-22.266 53.831l-.012.375-.352.128c-13.581 4.959-20.554 4-28.273.353a21.48 21.48 0 0 1-10.119 14.194 34.632 34.632 0 0 1-18.448 4.82ZM-27.331 664.862c16.651 14.063 38.806 27.172 64.068 37.906 15.246 6.478 27.289 18.534 38.936 30.192 24.614 24.639 46.347 39.893 64.6 45.337 12.316 3.673 24.152 2.8 32.472-2.408a20.356 20.356 0 0 0 9.745-14.159l.121-.734.669.327c7.646 3.742 14.352 4.862 27.714.046.748-19.313 11.278-36.169 22.421-54.007 2.865-4.586 5.827-9.327 8.61-14.112 7.968-13.695 18.42-34.948 17.2-61.284-1.186-25.639-14.376-51.179-25.233-68.088-15.124-23.556-27.188-41.492-33.222-40.856l-1.421.157.944-1.073a17.714 17.714 0 0 1 4.794-3.548c2.213-1.269 4.5-2.583 6.2-5.448 5.23-8.81 8.806-26.9 3.155-51.256-5.9-25.418-21.338-51.954-40.3-69.256-20.985-19.15-46.639-30.522-69.273-40.556-5.138-2.278-9.99-4.429-14.661-6.609-11.108-5.192-18.57-12.478-24.57-18.333-1.226-1.2-2.4-2.341-3.535-3.4-10.721-10.016-22.872-21.37-35.584-23.218-8.354-1.209-16.687.708-22.294 5.14-4.862 3.845-7.641 9.35-8.263 16.366-.654 7.384-.8 15.154-.962 23.381-.337 17.456-.684 35.506-6.014 51.317-6.727 19.953-19.91 34.779-32.659 49.115-7.252 8.155-14.751 16.589-20.811 25.756-17.77 26.882-24.4 63.725-18.19 101.086 5.505 33.124 26.195 67.6 55.343 92.219Z" transform="rotate(-93 108.56 293.215)" fill="url(#r)"/></g><g data-name="组 5228"><path data-name="路径 14356" d="M148.814 774.755a51.091 51.091 0 0 1-15.773-2.663c-17.159-5.609-37.42-20.018-61.942-44.046-12.225-11.98-23.5-22.372-37.634-28.2-24.276-10.016-47-23.962-63.977-39.267-27.87-25.121-47.223-59.393-51.769-91.676-5.143-36.534 2.2-72.354 20.141-98.277 6.193-8.948 13.763-17.135 21.083-25.052 13.1-14.166 26.64-28.816 33.419-48.778 4.983-14.677 5.532-31.518 6.062-47.8.289-8.858.561-17.225 1.516-25.086.893-7.359 4.106-13.062 9.548-16.951 6.514-4.657 15.949-6.258 25.237-4.29 13.55 2.874 25.408 14.553 37.368 27.3 1.077 1.148 2.18 2.377 3.33 3.657 5.7 6.344 12.784 14.239 23.706 19.752 5.53 2.792 11.4 5.52 17.62 8.407 20.681 9.606 44.12 20.492 63.376 38 19.77 17.977 35.429 45.487 40.864 71.8 5.343 25.862.413 44.887-5.983 54.067-2.282 3.273-5.183 4.919-7.989 6.509a27.65 27.65 0 0 0-5.044 3.365c4.5 1.768 11.675 13.574 23 32.214q2.73 4.493 5.754 9.443c14.935 24.393 22.86 46.481 23.552 65.649.916 25.364-9.654 45.5-17.684 58.442-2.781 4.482-5.721 8.905-8.565 13.185-10.853 16.331-21.1 31.756-22.2 49.192l-.025.391-.381.087c-14.645 3.372-22.88.523-31.144-5.279a18.832 18.832 0 0 1-9.2 11.915 32.016 32.016 0 0 1-16.266 3.99ZM26.91 302.881A29.011 29.011 0 0 0 10.1 307.8c-5.2 3.714-8.264 9.173-9.121 16.228-.949 7.815-1.221 16.16-1.509 24.994-.533 16.362-1.084 33.282-6.117 48.107-6.85 20.173-20.47 34.9-33.642 49.151-7.295 7.892-14.838 16.051-20.991 24.938-17.8 25.709-25.072 61.26-19.963 97.536C-76.731 600.8-57.5 634.835-29.811 659.8c16.893 15.224 39.511 29.1 63.674 39.073 14.313 5.906 25.663 16.367 37.968 28.425 24.4 23.914 44.532 38.239 61.534 43.8 11.86 3.878 23.226 3.423 31.185-1.249a17.722 17.722 0 0 0 8.874-12l.157-.8.663.478c8.176 5.887 16.16 8.889 30.566 5.656 1.243-17.554 11.5-32.985 22.35-49.315 2.839-4.272 5.775-8.689 8.547-13.158 7.957-12.824 18.433-32.774 17.527-57.851-.685-18.987-8.558-40.9-23.4-65.14q-3.025-4.941-5.755-9.445c-11.232-18.481-19.347-31.835-23.183-31.94l-1.196-.034.832-.857a25.319 25.319 0 0 1 5.964-4.2c2.7-1.533 5.5-3.118 7.645-6.2 6.271-9 11.093-27.719 5.817-53.256-5.392-26.1-20.927-53.4-40.543-71.231-19.137-17.4-42.5-28.252-63.112-37.825-6.225-2.89-12.1-5.622-17.651-8.421-11.1-5.6-18.259-13.58-24.014-19.989-1.145-1.275-2.243-2.5-3.314-3.64-11.842-12.62-23.568-24.181-36.821-26.992a36.719 36.719 0 0 0-7.593-.808Z" transform="rotate(-93 108.53 293.51)" fill="url(#s)"/></g><g data-name="组 5229"><path data-name="路径 14357" d="M142.756 767.883a49.754 49.754 0 0 1-16.642-3.073c-20.735-7.448-43.5-27.809-58.821-42.477C56.6 712.1 44.959 701.619 30.61 695.881c-23.8-9.518-46.386-23.886-63.6-40.456-26.777-25.771-44.2-58.746-47.816-90.468-4.03-35.4 3.96-69.906 21.92-94.676 6.28-8.659 13.882-16.57 21.235-24.219 13.53-14.078 27.52-28.635 34.425-48.826 4.724-13.809 5.444-29.65 6.141-44.968.425-9.353.826-18.187 2.094-26.368 1.129-7.286 4.732-13.091 10.417-16.789 7.2-4.678 17.412-5.872 27.324-3.191 14.428 3.9 27.057 17.247 38.558 31.09 1.041 1.254 2.1 2.592 3.206 3.985 5.435 6.857 12.2 15.391 23.045 21.3 6.183 3.367 12.88 6.611 19.97 10.044 18.855 9.134 40.225 19.484 57.814 35.418 20.415 18.494 36.162 46.758 41.1 73.763 4.181 22.884.936 43.839-8.681 56.053-2.713 3.445-6.088 5.342-9.352 7.176a35.689 35.689 0 0 0-6.455 4.264c2.152 1.529 5.345 7.287 11.586 18.761 3.485 6.408 7.823 14.384 12.985 23.266 14.155 24.36 21.252 44.858 21.7 62.664.6 24.129-9.993 42.941-18.015 54.991-2.788 4.189-5.721 8.309-8.558 12.294-10.553 14.811-20.517 28.811-22.091 44.489l-.04.4-.395.046c-16.949 1.94-26.427-4.028-34.029-10.944a16.305 16.305 0 0 1-8.264 9.732 29.555 29.555 0 0 1-14.078 3.171ZM32.423 305.532a30.451 30.451 0 0 0-16.46 4.408c-5.521 3.59-8.879 9.011-9.979 16.112-1.26 8.127-1.661 16.935-2.085 26.26-.7 15.388-1.423 31.3-6.192 45.245-6.976 20.4-21.043 35.035-34.648 49.19-7.33 7.625-14.908 15.51-21.147 24.115-17.818 24.572-25.742 58.828-21.739 93.983 3.585 31.5 20.906 64.253 47.519 89.869 17.126 16.484 39.6 30.778 63.285 40.25 14.512 5.8 26.236 16.35 37 26.656 15.255 14.605 37.915 34.877 58.471 42.261 11.246 4.038 22.429 4.022 29.913-.04a15.208 15.208 0 0 0 7.986-9.895l.194-.826.623.577c7.474 6.932 16.7 13.092 33.456 11.286 1.726-15.78 11.682-29.767 22.218-44.568 2.832-3.979 5.761-8.093 8.54-12.268 7.947-11.938 18.446-30.569 17.85-54.418-.44-17.636-7.494-37.98-21.563-62.191-5.169-8.9-9.511-16.878-13-23.292-5.716-10.509-9.845-18.1-11.7-18.649l-.819-.241.617-.59a34.146 34.146 0 0 1 7.16-4.878c3.181-1.787 6.469-3.635 9.06-6.926 9.444-12 12.616-32.655 8.485-55.265-4.9-26.8-20.525-54.852-40.788-73.208-17.483-15.838-38.785-26.157-57.58-35.261-7.1-3.439-13.808-6.688-20.011-10.066-11.023-6-17.856-14.625-23.348-21.552-1.1-1.386-2.155-2.719-3.192-3.968-11.4-13.719-23.893-26.94-38.055-30.768a38.724 38.724 0 0 0-10.071-1.342Z" transform="rotate(-93 108.5 293.788)" fill="url(#t)"/></g><g data-name="组 5230"><path data-name="路径 14358" d="M192.041 767.715c-18.324 0-28.933-8.746-36.145-16.648a13.945 13.945 0 0 1-7.316 7.663c-7.365 3.613-18.359 3.16-29.408-1.21-18.11-7.165-37.472-23.9-55.7-40.909-11.947-11.151-22.6-19.618-35.734-24.7a181.061 181.061 0 0 1-63.227-41.642c-25.256-25.977-41.243-58.511-43.863-89.26-2.917-34.225 5.722-67.42 23.7-91.072 6.358-8.364 13.983-16 21.356-23.378 13.975-13.99 28.425-28.455 35.463-48.884 4.487-13.025 5.355-27.956 6.2-42.4.567-9.757 1.1-18.974 2.7-27.384a23.855 23.855 0 0 1 11.293-16.643c7.765-4.616 19.03-5.411 29.4-2.079C66.822 314.34 79.861 329.7 90.5 344.05c1.026 1.384 2.063 2.856 3.139 4.382 5.439 7.725 11.6 16.481 22.334 22.777 6.659 3.908 14.016 7.613 21.806 11.535 17.2 8.66 36.689 18.475 52.765 32.983 21.053 19 36.889 48.019 41.328 75.728 3.8 23.745-.448 45.441-11.372 58.036-3.144 3.624-6.984 5.766-10.7 7.838a44.541 44.541 0 0 0-7.892 5.158 66.943 66.943 0 0 1 3.534 7.561c3.207 7.389 8.575 19.757 16.853 34.853 8.388 15.3 19.571 38.124 19.843 59.677.289 22.929-10.333 40.4-18.348 51.541-2.822 3.923-5.776 7.767-8.634 11.485-10.2 13.272-19.84 25.808-21.88 39.709l-.057.391-.395.005c-.262.005-.524.006-.783.006ZM155.49 749.23l.559.622c7.092 7.908 17.577 16.936 36 16.936h.372c2.2-13.98 11.82-26.5 22-39.748 2.853-3.711 5.8-7.549 8.616-11.46 7.939-11.039 18.459-28.333 18.173-50.988-.269-21.345-11.388-44.033-19.728-59.244-8.3-15.131-13.676-27.523-16.89-34.928-1.78-4.1-3.067-7.068-3.649-7.666l-.334-.344.356-.323a44.063 44.063 0 0 1 8.383-5.566c3.645-2.033 7.413-4.136 10.45-7.636 10.746-12.391 14.918-33.8 11.156-57.28-4.407-27.511-20.13-56.322-41.034-75.187-15.983-14.425-35.416-24.21-52.56-32.844-7.8-3.929-15.174-7.64-21.858-11.563-10.9-6.4-17.13-15.242-22.624-23.044-1.071-1.52-2.1-2.986-3.124-4.364-9.932-13.4-23.373-29.431-39.287-34.548-10.119-3.255-21.094-2.492-28.639 1.993-5.85 3.475-9.5 8.866-10.855 16.019-1.581 8.351-2.116 17.537-2.681 27.265-.844 14.5-1.715 29.5-6.244 42.644-7.107 20.632-21.634 35.174-35.684 49.237-7.351 7.361-14.953 14.97-21.273 23.285-17.841 23.472-26.413 56.432-23.515 90.432 2.6 30.54 18.5 62.867 43.6 88.692a180.107 180.107 0 0 0 62.9 41.424c13.276 5.136 24.006 13.664 36.032 24.888 17.289 16.139 37.393 33.6 55.407 40.723 10.809 4.278 21.523 4.739 28.658 1.24a12.836 12.836 0 0 0 7.085-7.865Z" transform="rotate(-93 108.466 294.056)" fill="url(#u)"/></g><g data-name="组 5231"><path data-name="路径 14359" d="m186.891 769.51-.38-.028c-16.029-1.2-28.707-8.321-39.837-22.38a11.781 11.781 0 0 1-6.362 5.734c-7.011 2.987-17.515 2.006-28.1-2.621-16.464-7.2-34.265-22.714-52.579-39.336-9.218-8.37-20.559-17.64-34.783-22.951C1.836 679.334-21.072 663.723-38 645.1c-23.731-26.111-38.279-58.2-39.912-88.052-1.834-33.5 7.215-64.566 25.479-87.471 6.427-8.06 14.06-15.412 21.441-22.522 14.435-13.9 29.359-28.278 36.536-48.958 4.27-12.3 5.268-26.4 6.234-40.027.714-10.093 1.39-19.626 3.314-28.2a24.239 24.239 0 0 1 12.189-16.519c8.445-4.6 20.5-4.967 31.443-.947 13.716 5.034 26.725 17.321 40.941 38.665 1.025 1.538 2.036 3.146 3.108 4.85 5.16 8.2 11.008 17.5 21.587 24.189 7 4.423 14.883 8.543 23.234 12.905 15.674 8.186 33.438 17.465 48.125 30.669 21.685 19.5 37.609 49.266 41.561 77.694 3.414 24.563-1.843 47-14.061 60.011-3.57 3.8-7.867 6.188-12.022 8.494a55.4 55.4 0 0 0-9.316 6.022c.361 2.949 4.049 19.272 16.164 42.845 8.908 17.33 18.01 37.616 17.989 56.691-.018 16.566-5.954 31.846-18.681 48.088-2.9 3.7-5.92 7.3-8.841 10.788-9.8 11.69-19.062 22.732-21.546 34.818Zm-40.471-24.141.479.616c10.993 14.128 23.488 21.317 39.3 22.6 2.64-12.15 11.878-23.169 21.651-34.826 2.918-3.48 5.934-7.077 8.824-10.765 12.6-16.082 18.478-31.193 18.5-47.554.02-18.89-9.034-39.058-17.893-56.293-12.52-24.36-16.095-41.1-16.279-43.389l-.018-.219.165-.143a55 55 0 0 1 9.634-6.272c4.1-2.273 8.334-4.624 11.811-8.328 12.04-12.826 17.212-34.993 13.834-59.3-3.924-28.234-19.742-57.8-41.281-77.168-14.606-13.13-32.318-22.382-47.947-30.545-8.367-4.371-16.27-8.5-23.3-12.941-10.746-6.793-16.65-16.18-21.858-24.46a211.18 211.18 0 0 0-3.1-4.832c-14.106-21.18-26.981-33.36-40.514-38.329-10.722-3.934-22.5-3.592-30.731.9a23.4 23.4 0 0 0-11.757 15.943c-1.91 8.508-2.583 18.01-3.3 28.068-.97 13.689-1.973 27.843-6.28 40.251-7.245 20.876-22.247 35.325-36.753 49.3-7.362 7.091-14.973 14.421-21.365 22.438-18.127 22.736-27.109 53.592-25.286 86.879 1.623 29.652 16.088 61.551 39.688 87.517 16.837 18.525 39.621 34.05 62.511 42.6 14.362 5.363 25.784 14.7 35.064 23.121 18.257 16.572 36 32.039 52.341 39.185 10.372 4.533 20.619 5.513 27.413 2.618a10.656 10.656 0 0 0 6.178-5.937Z" transform="rotate(-93 108.43 294.306)" fill="url(#v)"/></g><g data-name="组 5232"><path data-name="路径 14360" d="m180.544 771.3-.353-.054c-17.3-2.656-31.293-11.867-42.756-28.15-3.65 5.939-16.375 7.486-32.2-.192-14.762-7.161-30.773-21.286-46.257-34.946l-3.2-2.822c-12-10.563-22.434-17.1-33.835-21.2-22.973-8.259-45.742-24.3-62.469-44.012-22.21-26.174-35.317-57.824-35.963-86.844-.717-32.234 8.963-62.019 27.258-83.868 6.485-7.745 14.11-14.811 21.482-21.645 14.911-13.819 30.33-28.109 37.654-49.053 4.066-11.627 5.179-24.941 6.255-37.818.867-10.373 1.686-20.17 3.95-28.846a24.785 24.785 0 0 1 13.117-16.413c9.127-4.571 21.945-4.5 33.454.2 14.791 6.031 28.573 19.915 42.134 42.447 1.028 1.708 2.032 3.488 3.1 5.371 4.884 8.656 10.419 18.467 20.823 25.551 7.224 4.92 15.535 9.416 24.334 14.176 14.955 8.091 30.418 16.457 43.818 28.456 22.31 19.977 38.324 50.5 41.791 79.655 3.014 25.349-3.245 48.524-16.745 61.989-3.993 3.982-8.736 6.6-13.322 9.137a66.881 66.881 0 0 0-10.7 6.835c-1.262 3.7.947 20.461 11.876 43.341 7.961 16.664 16.428 35.932 16.136 53.7-.258 15.708-6.3 29.892-19.014 44.636-3.036 3.521-6.186 6.923-9.234 10.212-9.324 10.064-18.133 19.57-21.03 29.81Zm-43.208-29.759.391.564c11.323 16.311 25.141 25.568 42.236 28.288 3.046-10.293 11.826-19.77 21.115-29.8 3.043-3.284 6.188-6.678 9.215-10.188 12.583-14.594 18.564-28.613 18.819-44.122.289-17.6-8.137-36.763-16.057-53.345-11.13-23.3-13.245-40.46-11.868-44.072l.037-.1.081-.068a67.01 67.01 0 0 1 10.914-6.994c4.537-2.505 9.23-5.1 13.143-9 13.325-13.291 19.5-36.215 16.512-61.32-3.393-28.53-19.693-59.6-41.528-79.15-13.329-11.935-28.75-20.278-43.663-28.347-8.817-4.769-17.147-9.276-24.4-14.218-10.559-7.19-16.145-17.089-21.071-25.821-1.061-1.88-2.063-3.654-3.084-5.353-13.473-22.374-27.128-36.15-41.752-42.113-11.3-4.607-23.863-4.693-32.788-.223a24 24 0 0 0-12.7 15.895c-2.246 8.611-3.062 18.373-3.926 28.71-1.081 12.926-2.2 26.293-6.3 38.017-7.385 21.132-22.878 35.491-37.862 49.378-7.355 6.817-14.96 13.865-21.413 21.571-18.168 21.7-27.781 51.295-27.069 83.331C-75.04 581.9-62 613.367-39.911 639.4c16.638 19.607 39.282 35.562 62.127 43.775 11.5 4.133 22.015 10.719 34.094 21.352l3.2 2.822c15.443 13.624 31.411 27.713 46.075 34.826 15.671 7.6 28.525 5.908 31.446-.023Z" transform="rotate(-93 108.388 294.545)" fill="url(#w)"/></g><g data-name="组 5233"><path data-name="路径 14361" d="m174.172 773.068-.314-.07c-18.577-4.147-33.945-15.569-45.682-33.948-3.805 4.3-15.75 4.209-29.94-3.466-11.952-6.465-25.144-17.888-37.9-28.935a1247.925 1247.925 0 0 0-8.437-7.263c-10.926-9.3-21.376-15.476-32.886-19.448-23.022-7.946-45.653-24.419-62.087-45.2-20.7-26.168-32.367-57.382-32.014-85.635.386-30.926 10.7-59.432 29.035-80.266 6.529-7.421 14.128-14.195 21.475-20.745 15.408-13.741 31.342-27.948 38.821-49.172 3.873-10.994 5.087-23.57 6.26-35.732 1.023-10.608 1.991-20.627 4.6-29.372A25.486 25.486 0 0 1 39.189 317.5c9.8-4.512 23.376-3.994 35.42 1.357 15.832 7.034 30.41 22.588 43.328 46.23 1.037 1.9 2.036 3.862 3.094 5.944 4.616 9.083 9.848 19.377 20.052 26.863 7.362 5.4 16.007 10.243 25.159 15.368 13.564 7.595 27.59 15.448 39.785 26.322 22.585 20.139 39.08 52.176 42.022 81.617 2.61 26.113-4.651 50.023-19.426 63.961-3.856 3.639-8.535 6-13.061 8.292-5.093 2.576-9.9 5.009-13.605 9.092-3.314 3.656-2.536 20.941 7.541 43.884l.055.128c6.937 15.791 14.8 33.69 14.227 50.593-.5 14.679-6.824 28.152-19.348 41.184-3.27 3.4-6.649 6.647-9.918 9.784-8.729 8.38-16.974 16.3-20.225 24.653Zm-45.942-35.329.3.469c11.6 18.361 26.8 29.8 45.184 33.991 3.387-8.4 11.6-16.282 20.286-24.622 3.263-3.132 6.637-6.371 9.9-9.764 12.39-12.894 18.651-26.2 19.14-40.691.565-16.734-7.26-34.549-14.164-50.268l-.056-.128c-10.667-24.289-10.729-41.024-7.41-44.685 3.794-4.186 8.891-6.764 13.822-9.257 4.477-2.264 9.108-4.6 12.885-8.168 14.607-13.78 21.782-37.46 19.2-63.344-2.925-29.266-19.322-61.113-41.775-81.134-12.134-10.819-26.123-18.652-39.653-26.227-9.173-5.136-17.837-9.987-25.236-15.417-10.346-7.592-15.621-17.97-20.275-27.128-1.056-2.077-2.052-4.037-3.083-5.924-12.837-23.495-27.3-38.939-42.976-45.905-11.852-5.265-25.188-5.785-34.8-1.361a24.763 24.763 0 0 0-13.682 15.858c-2.59 8.675-3.553 18.66-4.573 29.23-1.177 12.207-2.4 24.829-6.3 35.907C7.4 420.578-8.6 434.851-24.082 448.654c-7.331 6.536-14.911 13.3-21.412 20.681-18.219 20.7-28.464 49.035-28.848 79.78-.35 28.087 11.259 59.128 31.853 85.163 16.349 20.669 38.853 37.053 61.745 44.953 11.6 4 22.127 10.226 33.127 19.585 2.787 2.372 5.606 4.813 8.441 7.268C73.55 717.1 86.711 728.5 98.592 734.927c14.28 7.724 26.119 7.724 29.315 3.263Z" transform="rotate(-93 108.338 294.77)" fill="url(#x)"/></g><g data-name="组 5234"><path data-name="路径 14362" d="m167.777 774.824-.265-.075c-25.016-7.153-40.22-25.5-48.612-39.77-3.9 2.595-14.7 1.159-27.682-6.721-9.408-5.707-19.92-14.754-30.086-23.5-4.321-3.718-8.788-7.564-13.135-11.124a96.9 96.9 0 0 0-31.936-17.7c-22.805-7.527-45.872-24.864-61.7-46.376-19.206-26.1-29.436-56.87-28.067-84.427 1.469-29.574 12.412-56.8 30.81-76.663 6.557-7.078 14.1-13.552 21.4-19.813 15.934-13.667 32.409-27.8 40.054-49.327 3.69-10.391 4.992-22.262 6.251-33.744 1.184-10.806 2.3-21.013 5.267-29.8a26.35 26.35 0 0 1 15.1-16.243c10.479-4.432 24.785-3.464 37.334 2.525 21.261 10.148 35.948 32.8 44.523 50.009 1.046 2.1 2.04 4.262 3.092 6.553 4.359 9.489 9.3 20.245 19.28 28.142 7.43 5.88 16.333 11.036 25.759 16.5 12.251 7.1 24.92 14.433 35.979 24.251 23.194 20.592 39.779 53.4 42.252 83.577 2.2 26.859-6.062 51.507-22.105 65.935-4.359 3.919-9.525 6.608-14.521 9.208-5.17 2.691-10.514 5.473-14.762 9.576-4.355 4.206-6.248 20.774 3.178 44.439l1.2 3.006c5.632 14.05 12.016 29.974 11.228 44.73-.742 13.9-7.18 26.242-19.683 37.731-3.658 3.362-7.42 6.5-11.057 9.526-7.955 6.626-15.469 12.886-18.971 19.336ZM119.1 733.961l.2.345c8.257 14.154 23.3 32.508 48.136 39.707 3.618-6.479 11.093-12.705 19-19.294 3.631-3.025 7.386-6.154 11.031-9.5 12.363-11.361 18.729-23.549 19.462-37.263.78-14.6-5.573-30.453-11.18-44.437l-1.2-3.007c-8.661-21.743-8.335-40.049-3.017-45.187 4.32-4.172 9.71-6.977 14.923-9.691 4.958-2.581 10.083-5.249 14.378-9.11 15.884-14.284 24.064-38.721 21.881-65.367-2.459-30.012-18.955-62.638-42.024-83.119-11.008-9.772-23.645-17.092-35.868-24.17-9.448-5.472-18.372-10.64-25.841-16.551-10.11-8-15.086-18.835-19.477-28.4-1.05-2.286-2.042-4.445-3.083-6.534-8.528-17.115-23.119-39.63-44.2-49.695-12.375-5.906-26.465-6.867-36.77-2.511a25.678 25.678 0 0 0-14.719 15.831c-2.941 8.711-4.056 18.882-5.236 29.651-1.263 11.52-2.569 23.432-6.285 33.9-7.707 21.7-24.253 35.891-40.254 49.617-7.285 6.248-14.817 12.709-21.347 19.757-18.29 19.746-29.167 46.818-30.629 76.23-1.361 27.4 8.821 58.015 27.934 83.986 15.751 21.4 38.69 38.647 61.365 46.131a97.579 97.579 0 0 1 32.153 17.82c4.354 3.567 8.825 7.414 13.149 11.136 10.145 8.732 20.633 17.76 29.994 23.438 13.9 8.434 24.283 8.9 27.215 6.539Z" transform="rotate(-93 108.28 294.984)" fill="url(#y)"/></g><g data-name="组 5235"><path data-name="路径 14363" d="m161.361 776.568-.21-.071c-21.093-7.224-39.386-23.41-51.533-45.593-3.486.692-12.887-1.37-25.437-9.971-7.072-4.847-14.665-11.445-22.7-18.43-5.7-4.949-11.586-10.066-17.4-14.629-9.12-7.157-18.677-12.074-30.988-15.946-22.993-7.228-45.916-25.007-61.321-47.556-17.74-25.969-26.532-56.3-24.12-83.22 2.525-28.178 14.1-54.125 32.585-73.062 6.56-6.719 14.033-12.882 21.26-18.843 16.488-13.6 33.537-27.661 41.358-49.516 3.513-9.815 4.891-21.01 6.222-31.835 1.35-10.975 2.626-21.341 5.953-30.141a27.383 27.383 0 0 1 16.179-16.176c11.148-4.323 26.164-2.905 39.187 3.7 23.99 12.17 38.942 38.922 45.719 53.785 1.054 2.313 2.042 4.685 3.087 7.2 4.113 9.876 8.773 21.071 18.51 29.391 7.443 6.359 16.542 11.809 26.175 17.58 11 6.591 22.379 13.405 32.36 22.226 23.8 21.032 40.477 54.606 42.483 85.534 1.789 27.592-7.475 52.977-24.783 67.907-4.845 4.18-10.495 7.167-15.958 10.055-5.51 2.914-11.208 5.926-15.934 10.123-6.484 5.757-8.976 23.064-1.195 45 .6 1.683 1.221 3.4 1.854 5.142 4.549 12.514 9.7 26.7 8.725 39.61-.986 12.975-7.721 24.508-20.018 34.276-4.3 3.415-8.691 6.47-12.938 9.424-7.2 5.007-13.413 9.331-16.984 13.862Zm-51.423-46.385.116.214c12.032 22.079 30.169 38.206 51.091 45.435 3.649-4.539 9.832-8.842 16.979-13.814 4.24-2.949 8.624-6 12.906-9.4 12.156-9.656 18.811-21.039 19.783-33.834.97-12.777-4.162-26.894-8.688-39.347a663.395 663.395 0 0 1-1.857-5.147c-7.874-22.2-5.272-39.786 1.37-45.682 4.783-4.248 10.514-7.278 16.058-10.209 5.433-2.872 11.051-5.842 15.841-9.975 17.161-14.8 26.345-40 24.567-67.392-2-30.772-18.588-64.178-42.271-85.106-9.938-8.78-21.29-15.581-32.267-22.158-9.657-5.784-18.777-11.248-26.26-17.642-9.85-8.415-14.542-19.684-18.682-29.626-1.043-2.507-2.029-4.874-3.08-7.177-6.743-14.788-21.612-41.4-45.432-53.486-12.87-6.529-27.688-7.936-38.677-3.676a26.771 26.771 0 0 0-15.818 15.814c-3.3 8.729-4.572 19.059-5.917 30-1.336 10.859-2.717 22.09-6.253 31.971-7.881 22.017-25 36.135-41.551 49.788-7.214 5.951-14.673 12.1-21.21 18.8-18.387 18.833-29.9 44.645-32.41 72.679-2.4 26.776 6.354 56.958 24.015 82.81 15.328 22.437 38.127 40.122 60.986 47.31 12.386 3.9 22 8.846 31.187 16.051 5.828 4.572 11.724 9.7 17.425 14.649 8.025 6.973 15.6 13.559 22.647 18.385 12.588 8.628 22.115 10.607 25.167 9.828Z" transform="rotate(-93 108.214 295.186)" fill="url(#z)"/></g><g data-name="组 5236"><path data-name="路径 14364" d="m154.922 778.3-.154-.061c-22.629-8.907-41.956-27.154-54.435-51.39-4.41-1.177-13.077-5.331-23.214-13.25-4.893-3.824-10.132-8.515-15.678-13.481-6.909-6.188-14.055-12.587-21.312-18.01-10.254-7.661-20.5-11.35-30.04-14.194-22.88-6.818-46.226-25.491-60.928-48.733-16.313-25.79-23.666-55.682-20.175-82.012 3.546-26.735 15.748-51.4 34.358-69.46 6.537-6.34 13.9-12.18 21.026-17.827 17.08-13.541 34.742-27.543 42.755-49.756 3.341-9.26 4.781-19.8 6.173-29.987 1.519-11.119 2.955-21.62 6.658-30.423a28.582 28.582 0 0 1 17.32-16.113c11.81-4.187 27.51-2.317 40.973 4.879 25.581 13.675 40.375 41.933 46.916 57.561 1.062 2.537 2.041 5.124 3.078 7.862 4.069 10.749 8.277 21.864 17.746 30.616 7.411 6.85 16.65 12.574 26.432 18.635 9.809 6.077 19.952 12.362 28.9 20.231 24.406 21.459 41.172 55.8 42.713 87.491 1.377 28.313-8.889 54.436-27.459 69.879-5.317 4.423-11.443 7.691-17.366 10.852-5.878 3.136-11.954 6.378-17.133 10.716-7.5 6.283-12.448 23.225-5.572 45.572.669 2.175 1.383 4.366 2.137 6.686 3.63 11.144 7.743 23.776 6.59 35.081-1.253 12.281-8.1 22.651-20.352 30.82-5.375 3.584-11.052 6.659-16.059 9.372-5.62 3.046-10.474 5.675-13.77 8.337ZM-50.36 618.881c14.632 23.132 37.857 41.714 60.612 48.494 9.592 2.859 19.893 6.567 30.216 14.283C47.746 687.1 54.9 693.5 61.82 699.7c5.539 4.96 10.77 9.645 15.649 13.456 13.383 10.455 22.172 12.933 23.13 13.181l.122.032.058.114c12.385 24.113 31.573 42.281 54.044 51.172 3.332-2.658 8.154-5.27 13.726-8.29 5-2.708 10.66-5.777 16.015-9.347 12.1-8.07 18.868-18.3 20.1-30.406 1.141-11.185-2.953-23.756-6.565-34.848-.756-2.322-1.471-4.515-2.141-6.695-6.953-22.593-1.894-39.773 5.749-46.173 5.224-4.374 11.328-7.631 17.231-10.781s12-6.4 17.271-10.789c18.434-15.329 28.624-41.279 27.255-69.415-1.534-31.543-18.224-65.73-42.521-87.092-8.913-7.838-19.036-14.11-28.825-20.175-9.805-6.076-19.068-11.814-26.518-18.7-9.567-8.843-13.8-20.021-17.891-30.832-1.035-2.734-2.013-5.316-3.071-7.845-6.513-15.558-21.233-43.688-46.66-57.28-13.329-7.125-28.854-8.982-40.517-4.844a28.029 28.029 0 0 0-16.988 15.8c-3.673 8.733-5.1 19.2-6.618 30.279-1.4 10.22-2.839 20.786-6.2 30.1-8.066 22.365-25.791 36.418-42.934 50.008-7.113 5.638-14.466 11.469-20.983 17.79-18.52 17.967-30.662 42.517-34.191 69.126-3.473 26.202 3.853 55.954 20.093 81.635Z" transform="rotate(-93 108.135 295.374)" fill="url(#A)"/></g><g data-name="组 5237"><path data-name="路径 14365" d="m148.461 780.033-.1-.045c-23.814-10.483-44.7-31.312-57.316-57.148-.653-.483-1.424-1.037-2.3-1.669a202.327 202.327 0 0 1-18.711-14.9c-2.81-2.532-5.766-5.34-8.894-8.314-7.6-7.221-16.206-15.406-24.985-21.607-9.285-6.558-18.668-9.515-29.092-12.44C-16.1 657.4-39.3 638.28-53.479 614c-14.93-25.572-20.845-55.022-16.231-80.8a116.441 116.441 0 0 1 36.131-65.86c6.478-5.94 13.7-11.439 20.683-16.757 17.717-13.492 36.037-27.442 44.26-50.048 3.174-8.723 4.663-18.621 6.1-28.19 1.692-11.239 3.29-21.853 7.382-30.651a29.959 29.959 0 0 1 18.535-16.052c12.456-4.027 28.812-1.706 42.686 6.055 19.834 11.1 37.37 33.456 48.112 61.335 1.068 2.772 2.037 5.58 3.063 8.553 3.841 11.123 7.812 22.625 16.986 31.82 7.348 7.363 16.681 13.346 26.563 19.679 8.659 5.55 17.614 11.29 25.57 18.249 25.009 21.871 41.864 56.981 42.942 89.446.978 29.459-10 55.648-30.132 71.852-5.777 4.65-12.366 8.187-18.738 11.607-6.266 3.363-12.745 6.84-18.369 11.349-8.342 6.689-15.954 22.786-9.952 46.141.647 2.515 1.374 5.063 2.145 7.761 2.97 10.394 6.041 21.144 4.733 31.023-1.918 14.484-12.309 22.874-20.688 27.361a157.875 157.875 0 0 1-21.36 8.952c-3.255 1.169-6.066 2.178-8.384 3.172Zm-201.5-166.292c14.114 24.175 37.2 43.21 60.238 49.678 10.469 2.941 19.9 5.911 29.247 12.516 8.809 6.222 17.433 14.42 25.041 21.653 3.126 2.971 6.079 5.779 8.885 8.305a202.415 202.415 0 0 0 18.664 14.867c.905.65 1.7 1.217 2.361 1.71l.077.092c12.541 25.72 33.308 46.46 56.99 56.917 2.313-.985 5.1-1.984 8.312-3.138a157.49 157.49 0 0 0 21.292-8.924c8.274-4.431 18.534-12.708 20.423-26.98 1.295-9.774-1.762-20.473-4.717-30.818-.772-2.7-1.5-5.251-2.149-7.773-6.062-23.589 1.667-39.88 10.126-46.663 5.66-4.539 12.16-8.027 18.446-11.4 6.352-3.409 12.92-6.933 18.66-11.555 20-16.1 30.917-42.142 29.945-71.44-1.074-32.331-17.862-67.3-42.77-89.083-7.927-6.933-16.866-12.662-25.509-18.2-9.905-6.349-19.261-12.346-26.648-19.748-9.257-9.277-13.247-20.835-17.106-32.012-1.025-2.969-1.993-5.773-3.058-8.535-10.7-27.772-28.153-50.032-47.886-61.074-13.754-7.7-29.957-10-42.282-6.018A29.465 29.465 0 0 0 45.31 341.9c-4.061 8.731-5.654 19.311-7.34 30.512-1.445 9.6-2.939 19.518-6.129 28.288-8.274 22.747-26.654 36.743-44.43 50.279-6.975 5.311-14.187 10.8-20.647 16.729a115.928 115.928 0 0 0-35.974 65.575c-4.595 25.664 1.299 54.989 16.168 80.458Z" transform="rotate(-93 108.042 295.547)" fill="url(#B)"/></g><g data-name="组 5238"><path data-name="路径 14366" d="m141.977 781.754-.059-.028c-26.886-12.981-45.161-39.261-60.18-62.877-2.024-3.182-5.643-6.738-10.225-11.241-2.58-2.536-5.5-5.411-8.606-8.677q-1.09-1.147-2.223-2.347c-8.012-8.473-17.983-19.018-28.549-26.008-8.368-5.536-16.976-7.779-26.089-10.152l-2.055-.537c-23.134-6.072-46.743-26.125-60.145-51.085-13.6-25.327-18.078-54.337-12.288-79.594a116.5 116.5 0 0 1 37.9-62.258c6.376-5.518 13.411-10.658 20.213-15.628 18.408-13.452 37.442-27.362 45.893-50.4 3.008-8.2 4.536-17.472 6.013-26.437 1.867-11.337 3.632-22.044 8.13-30.834 4.007-7.832 10.863-13.362 19.829-15.991 13.29-3.895 29.857-1.194 44.316 7.23 20.97 12.217 38.943 35.948 49.309 65.106 1.07 3.012 2.072 6.185 3.041 9.254 3.628 11.487 7.378 23.366 16.233 33.012 7.261 7.91 16.647 14.133 26.583 20.722 7.55 5.008 15.357 10.184 22.352 16.267 25.611 22.271 42.557 58.149 43.171 91.4.558 30.175-11.4 57.083-32.807 73.824-6.224 4.868-13.265 8.661-20.074 12.33-6.67 3.593-13.569 7.31-19.638 12.015-9.931 7.7-18.913 24.01-14.335 46.71.55 2.728 1.222 5.5 1.933 8.437 2.236 9.224 4.547 18.762 3.1 27.364-2.435 14.439-14.216 21.172-21.02 23.9-9.766 3.915-20.026 5.446-29.658 6.516ZM-55.76 608.592c13.347 24.857 36.846 44.822 59.866 50.864l2.054.537c9.15 2.383 17.792 4.635 26.223 10.212 10.608 7.019 20.6 17.585 28.627 26.075q1.132 1.2 2.221 2.345c3.1 3.261 6.019 6.133 8.6 8.666 4.6 4.523 8.237 8.094 10.288 11.32 14.976 23.546 33.191 49.746 59.94 62.687 9.584-1.067 19.784-2.594 29.478-6.48 6.719-2.693 18.348-9.335 20.746-23.56 1.436-8.511-.865-18-3.089-27.185-.712-2.939-1.385-5.717-1.937-8.454-4.617-22.9 4.462-39.371 14.5-47.151 6.1-4.728 13.012-8.452 19.7-12.054 6.792-3.659 13.816-7.443 20.011-12.288 21.3-16.656 33.19-43.432 32.636-73.464-.612-33.134-17.5-68.882-43.018-91.073-6.973-6.063-14.768-11.232-22.306-16.231-9.96-6.6-19.367-12.843-26.664-20.793-8.922-9.72-12.688-21.646-16.33-33.18-1.012-3.205-1.969-6.233-3.036-9.237-10.331-29.061-28.232-52.705-49.112-64.87-14.355-8.363-30.794-11.05-43.966-7.188-8.845 2.594-15.607 8.045-19.557 15.766-4.466 8.726-6.224 19.4-8.086 30.7-1.48 8.986-3.012 18.278-6.034 26.519-8.5 23.168-27.588 37.118-46.049 50.609-6.8 4.966-13.822 10.1-20.184 15.605a116.05 116.05 0 0 0-37.767 62.021c-5.767 25.152-1.304 54.049 12.245 79.282Z" transform="rotate(-93 107.935 295.7)" fill="url(#C)"/></g><g data-name="组 5239"><path data-name="路径 14367" d="M147.042 785.071a37.575 37.575 0 0 1-11.572-1.589c-28.517-9.418-47.166-38.538-63.07-68.6-3.481-6.58-9.346-14.114-16.651-23.281-7.137-8.957-16.733-20.1-27.667-26.791-7.165-4.384-14.44-6.026-22.142-7.765a308.609 308.609 0 0 1-5.053-1.169c-11.743-2.855-23.679-9.474-34.518-19.142a109.755 109.755 0 0 1-25.233-33.115c-12.329-25.068-15.371-53.639-8.346-78.385 6.367-22.431 20.085-42.716 39.671-58.66 6.215-5.059 12.994-9.812 19.551-14.409 19.162-13.433 38.977-27.325 47.722-50.849 2.825-7.675 4.374-16.308 5.873-24.656 1.962-10.934 3.992-22.241 8.923-31.042 4.452-7.942 11.809-13.459 21.277-15.951 13.928-3.67 31.047-.518 45.793 8.424 11.447 6.88 21.845 16.857 30.906 29.654a149.43 149.43 0 0 1 19.6 39.223c1.071 3.256 2.057 6.665 3.013 9.961 3.431 11.843 6.979 24.089 15.485 34.2 7.158 8.507 16.555 14.953 26.5 21.778a216.594 216.594 0 0 1 19.236 14.275 126.648 126.648 0 0 1 31.816 43.275c7.507 16.487 11.513 33.8 11.585 50.08.137 30.884-12.794 58.511-35.479 75.8-6.662 5.077-14.146 9.119-21.383 13.028-7.088 3.828-14.419 7.787-20.933 12.7-14.364 10.839-21.363 28.514-18.722 47.28.4 2.841.959 5.726 1.55 8.781 1.579 8.154 3.212 16.586 1.631 24.039-2.121 9.988-9.9 17.437-21.352 20.435a72.388 72.388 0 0 1-18.011 2.471ZM-58.519 603.446C-45.764 629.38-22.411 649.813.977 655.5c1.692.412 3.4.8 5.047 1.169 7.735 1.745 15.04 3.394 22.259 7.812 10.985 6.725 20.61 17.9 27.767 26.88 7.319 9.183 13.194 16.732 16.69 23.341 15.868 29.994 34.463 59.042 62.85 68.418 7.188 2.373 18.165 2.038 29.365-.895 11.3-2.959 18.982-10.3 21.071-20.141 1.566-7.376-.059-15.769-1.631-23.885-.593-3.06-1.152-5.951-1.553-8.8a51.453 51.453 0 0 1 3.75-28.687 48.928 48.928 0 0 1 15.122-18.955c6.538-4.933 13.881-8.9 20.984-12.735 7.223-3.9 14.693-7.936 21.332-13 22.587-17.212 35.463-44.726 35.327-75.487-.15-33.953-17.134-70.483-43.268-93.064a215.987 215.987 0 0 0-19.2-14.25c-9.971-6.84-19.388-13.3-26.579-21.847-8.56-10.172-12.12-22.46-15.561-34.341-.954-3.293-1.94-6.7-3.009-9.948-9.851-29.973-28.67-55.643-50.338-68.667-14.657-8.889-31.666-12.023-45.5-8.382-9.365 2.466-16.64 7.918-21.039 15.768-4.9 8.744-6.833 19.515-8.88 30.92-1.5 8.365-3.054 17.016-5.891 24.723-8.787 23.636-28.651 37.563-47.862 51.032-6.551 4.593-13.325 9.342-19.528 14.392-19.525 15.894-33.2 36.111-39.545 58.465-6.996 24.656-3.963 53.126 8.324 78.11Z" transform="rotate(-93 107.806 295.834)" fill="url(#D)"/></g><g data-name="组 5240"><path data-name="路径 14368" d="M152.4 790.3a56.467 56.467 0 0 1-23.471-5.08c-35.115-16.548-56.368-53.656-65.911-74.3a207.1 207.1 0 0 0-14.471-26.651c-7.725-11.856-16.219-20.578-24.567-25.226-6.307-3.512-12.65-4.649-19.367-5.851-2.25-.4-4.578-.821-6.881-1.332-23.521-5.229-47.373-26.7-59.355-53.428-11.122-24.81-12.728-52.94-4.406-77.173 7.23-21.056 21.173-39.581 41.442-55.064 6-4.579 12.472-8.922 18.736-13.122 20.007-13.414 40.7-27.287 49.7-51.361 2.674-7.187 4.235-15.228 5.744-23.006 2.13-10.978 4.331-22.328 9.706-31.119 4.908-8.027 12.763-13.511 22.713-15.86 14.53-3.431 32.207.143 47.283 9.562 22.855 14.219 42.184 41.377 51.7 72.648 1.068 3.508 2.041 7.154 2.981 10.68 3.251 12.192 6.613 24.8 14.74 35.374 7.042 9.167 16.409 15.811 26.324 22.847 5.443 3.86 11.07 7.852 16.22 12.273 13.34 11.447 24.512 26.694 32.309 44.094 7.556 16.861 11.471 34.568 11.322 51.212a100.877 100.877 0 0 1-10.741 45.093 93.251 93.251 0 0 1-27.41 32.678c-7.1 5.305-15.04 9.6-22.717 13.747-7.5 4.053-15.257 8.246-22.2 13.372-9.429 6.958-24.968 22.427-23.11 47.847.21 2.867.627 5.9 1.03 8.835.987 7.175 2.006 14.592.3 21-2.475 9.311-10.578 15.653-21.678 16.966a51.055 51.055 0 0 1-5.965.345Zm-213.726-192c11.941 26.638 35.7 48.034 59.129 53.242 2.3.51 4.62.926 6.867 1.329 6.744 1.208 13.114 2.349 19.469 5.887 8.513 4.74 16.817 13.264 24.681 25.332a207.525 207.525 0 0 1 14.494 26.692c9.525 20.607 30.732 57.642 65.754 74.145a56.059 56.059 0 0 0 29.262 4.708c10.961-1.3 18.961-7.549 21.4-16.725 1.687-6.347.672-13.733-.311-20.875-.4-2.94-.822-5.979-1.033-8.857-1.87-25.575 13.758-41.135 23.242-48.132 6.965-5.141 14.73-9.339 22.241-13.4 7.668-4.145 15.6-8.43 22.678-13.721 23.879-17.707 37.737-45.959 38.02-77.511.312-34.793-16.769-72.1-43.516-95.057-5.14-4.41-10.76-8.4-16.2-12.253-9.5-6.741-19.322-13.708-26.394-22.913-8.166-10.628-11.537-23.267-14.8-35.489-.939-3.523-1.911-7.166-2.978-10.668-9.5-31.2-28.773-58.289-51.565-72.467-15-9.372-32.586-12.931-47.035-9.521-9.863 2.328-17.647 7.762-22.509 15.713-5.345 8.739-7.541 20.061-9.664 31.01-1.511 7.791-3.074 15.846-5.758 23.059C35.114 426 14.382 439.9-5.667 453.346c-6.26 4.2-12.733 8.536-18.721 13.111-20.212 15.443-34.122 33.917-41.33 54.909-8.296 24.157-6.694 52.198 4.394 76.934Z" transform="rotate(-93 107.653 295.95)" fill="url(#E)"/></g><g data-name="组 5241"><path data-name="路径 14369" d="M152.531 797.335c-.294 0-.586-.005-.882-.014-8.35-.25-17.93-3.636-29.291-10.352A164.789 164.789 0 0 1 82 752.732a173.708 173.708 0 0 1-28.4-45.764c-1.481-3.555-2.854-7.205-4.181-10.736a182.933 182.933 0 0 0-8.11-19.287c-5.785-11.273-13.411-19.678-21.472-23.667-5.654-2.8-11.559-3.527-17.27-4.232-2.634-.326-5.358-.663-8.03-1.2-23.569-4.715-47.812-27.166-58.957-54.6-9.98-24.561-10.153-52.246-.468-75.955 8-19.576 22.132-36.411 43.21-51.468 5.7-4.07 11.794-7.97 17.689-11.743 20.952-13.406 42.617-27.268 51.914-51.967 2.527-6.71 4.086-14.177 5.594-21.4 2.295-11 4.669-22.365 10.511-31.148 6.712-10.093 18.105-16.044 32.083-16.759 13.515-.694 28.014 3.46 40.838 11.687 23.954 15.369 43.731 43.936 52.9 76.418 1.063 3.761 2.019 7.644 2.943 11.4 3.089 12.538 6.283 25.5 14 36.55 6.923 9.912 16.65 17.04 26.056 23.936 4.441 3.255 9.035 6.623 13.295 10.25 13.617 11.594 24.961 27.122 32.807 44.908 7.6 17.233 11.424 35.335 11.053 52.351-.7 32.288-15.583 61.353-40.823 79.743-7.5 5.468-15.834 9.981-23.892 14.347-7.967 4.316-16.205 8.78-23.634 14.161-12.51 9.063-27.436 24.818-27.5 48.412-.008 2.822.2 5.774.4 8.627.445 6.274.905 12.763-.918 18.23-2.751 8.274-10.985 13.509-21.107 13.509ZM48.05 402.159l.125.047c-9.328 24.783-31.031 38.669-52.019 52.1-5.894 3.77-11.987 7.669-17.679 11.734-21.036 15.028-35.14 31.824-43.118 51.352-9.659 23.644-9.489 51.258.467 75.761 11.113 27.352 35.274 49.737 58.762 54.434 2.664.532 5.382.868 8.011 1.193 5.733.708 11.66 1.441 17.354 4.258 8.113 4.014 15.781 12.461 21.592 23.786a183.29 183.29 0 0 1 8.122 19.314c1.326 3.528 2.7 7.176 4.176 10.727 13.591 32.635 39.257 62.493 68.65 79.875 11.32 6.693 20.859 10.067 29.163 10.314.293.009.584.014.873.014 10.007 0 18.141-5.166 20.863-13.327 1.807-5.419 1.348-11.879.9-18.128-.2-2.86-.412-5.817-.4-8.647.062-23.707 15.049-39.53 27.61-48.628 7.442-5.391 15.688-9.86 23.664-14.179 8.049-4.361 16.372-8.87 23.861-14.327 25.171-18.34 40.011-47.33 40.713-79.534.764-35.108-16.824-74.109-43.766-97.05-4.253-3.621-8.842-6.985-13.28-10.237-9.424-6.908-19.169-14.051-26.118-24-7.745-11.088-10.945-24.077-14.039-36.638-.925-3.752-1.881-7.633-2.942-11.39-9.154-32.42-28.889-60.932-52.79-76.265-12.777-8.2-27.22-12.337-40.679-11.645-13.891.711-25.211 6.62-31.875 16.64-5.813 8.742-8.181 20.085-10.472 31.057-1.509 7.231-3.071 14.707-5.6 21.437Z" transform="rotate(-93 107.478 296.046)" fill="url(#F)"/></g></g></g></svg>