<svg xmlns="http://www.w3.org/2000/svg" width="100" height="100"><defs><clipPath id="a"><path data-name="矩形 4483" transform="translate(5206 12105)" fill="none" stroke="#707070" d="M0 0h100v100H0z"/></clipPath></defs><g data-name="蒙版组 142" transform="translate(-5206 -12105)" clip-path="url(#a)"><g data-name="组 5329"><g data-name="组 4622"><g data-name="组 4617" transform="translate(5231 12121)"><path data-name="路径 13896" d="M1.212 66.635H47.25V8.481a7.291 7.291 0 0 1 7.27-7.269H8.481a7.291 7.291 0 0 0-7.269 7.269Z" fill="#37268b"/><path data-name="矩形 3935" fill="#37268b" d="M47.25 8.481h4.846v48.462H47.25z"/><circle data-name="椭圆 1190" cx="7.269" cy="7.269" r="7.269" transform="translate(47.25 1.212)" fill="#37268b"/><path data-name="路径 13897" d="M54.52 16.962h-1.212v-2.424h1.212a6 6 0 0 0 6.058-6.058 6 6 0 0 0-6.058-6.058V0a8.429 8.429 0 0 1 8.481 8.481 8.429 8.429 0 0 1-8.481 8.481Z" fill="#b49243"/><g data-name="组 5141" fill="#b49243"><path data-name="矩形 3936" d="M23.019 14.539h2.423v2.423h-2.423z"/><path data-name="矩形 3937" d="M27.865 14.539h2.423v2.423h-2.423z"/><path data-name="矩形 3938" d="M18.173 14.539h2.423v2.423h-2.423z"/><path data-name="矩形 3939" d="M9.692 21h27.865v2.423H9.692z"/><path data-name="矩形 3940" d="M9.692 26h27.865v2.423H9.692z"/><path data-name="矩形 3941" d="M9.692 32h27.865v2.423H9.692z"/><path data-name="矩形 3942" d="M9.692 37h27.865v2.423H9.692z"/></g><path data-name="路径 13898" d="M47.25 67.846H1.212A1.145 1.145 0 0 1 0 66.635V8.481A8.429 8.429 0 0 1 8.481 0h46.038a1.145 1.145 0 0 1 1.212 1.212 1.145 1.145 0 0 1-1.212 1.212 6 6 0 0 0-6.058 6.058v58.153a1.145 1.145 0 0 1-1.211 1.211ZM2.423 65.423h43.615V8.481a8.413 8.413 0 0 1 2.544-6.058h-40.1a6 6 0 0 0-6.058 6.058Z" fill="#b49243"/><path data-name="矩形 3944" fill="#b49243" d="M9.692 54.519h2.423v2.423H9.692z"/><path data-name="矩形 3945" fill="#b49243" d="M35.135 54.519h2.423v2.423h-2.423z"/><path data-name="矩形 3946" fill="#37268b" d="M50.885 14.538h2.423v42.404h-2.423z"/><g data-name="组 4491" transform="translate(16.356 42.346)"><path data-name="路径 13899" d="m12.115 24.231-4.846-3.769-4.846 3.769V7.269h9.692Z" fill="#7c71af"/><circle data-name="椭圆 1191" cx="7.269" cy="7.269" r="7.269" fill="#b49243"/></g></g></g></g></g></svg>