<svg xmlns="http://www.w3.org/2000/svg" width="100" height="100"><defs><clipPath id="a"><path data-name="矩形 4492" transform="translate(5471 12105)" fill="none" stroke="#707070" d="M0 0h100v100H0z"/></clipPath></defs><g data-name="蒙版组 145" transform="translate(-5471 -12105)" clip-path="url(#a)"><g data-name="组 5338"><g data-name="组 5337" transform="translate(5032 8928)"><path data-name="路径 14398" d="M523.017 3252.659a4.693 4.693 0 0 1-4.679 4.679h-58.489a4.693 4.693 0 0 1-4.679-4.679v-37.433a4.693 4.693 0 0 1 4.679-4.679h58.487a4.693 4.693 0 0 1 4.679 4.679Z" fill="#7c71af"/><path data-name="路径 14399" d="M518.338 3258.508h-58.489a5.792 5.792 0 0 1-5.849-5.849v-37.433a5.792 5.792 0 0 1 5.849-5.849h58.489a5.792 5.792 0 0 1 5.849 5.849v37.433a5.792 5.792 0 0 1-5.849 5.849Zm-58.489-46.791a3.447 3.447 0 0 0-3.509 3.509v37.433a3.447 3.447 0 0 0 3.509 3.509h58.489a3.447 3.447 0 0 0 3.509-3.509v-37.433a3.447 3.447 0 0 0-3.509-3.509Z" fill="#b49243"/><path data-name="路径 14400" d="M507.81 3244.47a7.039 7.039 0 0 1-7.019 7.019h-32.753a7.039 7.039 0 0 1-7.019-7.019v-21.056a7.039 7.039 0 0 1 7.019-7.019h32.753a7.039 7.039 0 0 1 7.019 7.019Z" fill="#37268b"/><path data-name="矩形 4486" fill="#b49243" d="M458.679 3258.507h2.34v2.34h-2.34z"/><path data-name="矩形 4487" fill="#b49243" d="M517.168 3258.507h2.34v2.34h-2.34z"/><g data-name="组 5335" fill="#b49243"><path data-name="矩形 4488" d="M513.658 3230.433h2.34v2.34h-2.34z"/><path data-name="矩形 4489" d="M513.658 3235.111h2.34v2.34h-2.34z"/><path data-name="矩形 4490" d="M513.658 3239.791h2.34v2.34h-2.34z"/><path data-name="矩形 4491" d="M513.658 3244.47h2.34v2.34h-2.34z"/></g><circle data-name="椭圆 1286" cx="4.679" cy="4.679" r="4.679" transform="translate(510.149 3216.396)" fill="#b49243"/><circle data-name="椭圆 1287" cx="2.34" cy="2.34" r="2.34" transform="translate(512.489 3218.734)" fill="#37268b"/><g data-name="组 5336" fill="#b49243"><path data-name="路径 14401" d="M483.244 3210.376a5.85 5.85 0 0 1 11.7 0"/><path data-name="路径 14402" d="M484.414 3208.037a1.062 1.062 0 0 1-.819-.351l-11.7-11.7a1.158 1.158 0 0 1 1.638-1.638l11.7 11.7a1.131 1.131 0 0 1 0 1.638 1.062 1.062 0 0 1-.819.351Z"/><path data-name="路径 14403" d="M493.772 3208.038a1.062 1.062 0 0 1-.819-.351 1.131 1.131 0 0 1 0-1.638l11.7-11.7a1.158 1.158 0 0 1 1.638 1.638l-11.7 11.7a1.062 1.062 0 0 1-.819.351Z"/><path data-name="路径 14404" d="M496.112 3210.378h-2.337a4.679 4.679 0 0 0-9.358 0h-2.342a7.019 7.019 0 1 1 14.037 0Z"/></g><text transform="translate(485 3239)" fill="#b49243" font-size="14" font-family="ITCAvantGardePro-Demi, ITC Avant Garde Gothic Pro" font-weight="300" letter-spacing=".05em"><tspan x="-14.63" y="0">LIVE</tspan></text></g></g></g></svg>