<svg xmlns="http://www.w3.org/2000/svg" width="860" height="742.801"><defs><linearGradient id="a" x1="2.447" y1="1.484" x2="3.389" y2="1.484" gradientUnits="objectBoundingBox"><stop offset="0" stop-color="#009cff"/><stop offset=".422" stop-color="#00cce5"/><stop offset=".8" stop-color="#00f0d1"/><stop offset="1" stop-color="#00ffca"/></linearGradient><linearGradient id="b" x1="2.502" y1="1.506" x2="3.444" y2="1.506" gradientUnits="objectBoundingBox"><stop offset="0" stop-color="#0098ff"/><stop offset=".384" stop-color="#00c1e7"/><stop offset=".788" stop-color="#00e7d1"/><stop offset="1" stop-color="#00f6c9"/></linearGradient><linearGradient id="c" x1="2.559" y1="1.529" x2="3.499" y2="1.529" gradientUnits="objectBoundingBox"><stop offset="0" stop-color="#0093fa"/><stop offset=".352" stop-color="#00b7e6"/><stop offset=".778" stop-color="#00dfd1"/><stop offset="1" stop-color="#00eec9"/></linearGradient><linearGradient id="d" x1="2.618" y1="1.554" x2="3.557" y2="1.554" gradientUnits="objectBoundingBox"><stop offset="0" stop-color="#028ff8"/><stop offset=".309" stop-color="#01ade6"/><stop offset=".764" stop-color="#00d6d0"/><stop offset="1" stop-color="#00e6c8"/></linearGradient><linearGradient id="e" x1="2.679" y1="1.58" x2="3.617" y2="1.58" gradientUnits="objectBoundingBox"><stop offset="0" stop-color="#308bf4"/><stop offset=".26" stop-color="#21a3e6"/><stop offset=".749" stop-color="#09cdd0"/><stop offset="1" stop-color="#00dec8"/></linearGradient><linearGradient id="f" x1="2.742" y1="1.607" x2="3.678" y2="1.607" gradientUnits="objectBoundingBox"><stop offset="0" stop-color="#4586f1"/><stop offset=".213" stop-color="#3499e6"/><stop offset=".735" stop-color="#0ec5d0"/><stop offset="1" stop-color="#00d6c8"/></linearGradient><linearGradient id="g" x1="2.806" y1="1.635" x2="3.741" y2="1.635" gradientUnits="objectBoundingBox"><stop offset="0" stop-color="#5482ed"/><stop offset=".221" stop-color="#3e95e3"/><stop offset=".739" stop-color="#11bece"/><stop offset="1" stop-color="#00cec7"/></linearGradient><linearGradient id="h" x1="2.872" y1="1.665" x2="3.806" y2="1.665" gradientUnits="objectBoundingBox"><stop offset="0" stop-color="#617fea"/><stop offset=".289" stop-color="#4195de"/><stop offset=".763" stop-color="#12b7cc"/><stop offset="1" stop-color="#00c5c6"/></linearGradient><linearGradient id="i" x1="2.94" y1="1.696" x2="3.872" y2="1.696" gradientUnits="objectBoundingBox"><stop offset="0" stop-color="#6d7ae6"/><stop offset=".334" stop-color="#4493da"/><stop offset=".779" stop-color="#13b1cb"/><stop offset="1" stop-color="#00bdc6"/></linearGradient><linearGradient id="j" x1="3.01" y1="1.73" x2="3.94" y2="1.73" gradientUnits="objectBoundingBox"><stop offset="0" stop-color="#7776e3"/><stop offset=".361" stop-color="#478fd6"/><stop offset=".789" stop-color="#13aaca"/><stop offset="1" stop-color="#00b5c5"/></linearGradient><linearGradient id="k" x1="3.069" y1="1.765" x2="3.998" y2="1.765" gradientUnits="objectBoundingBox"><stop offset="0" stop-color="#8071df"/><stop offset=".377" stop-color="#4a8ad3"/><stop offset=".796" stop-color="#14a4c8"/><stop offset="1" stop-color="#00aec4"/></linearGradient><linearGradient id="l" x1="3.139" y1="1.812" x2="4.067" y2="1.812" gradientUnits="objectBoundingBox"><stop offset="0" stop-color="#8a6cdc"/><stop offset=".394" stop-color="#4e85d1"/><stop offset=".802" stop-color="#169cc6"/><stop offset="1" stop-color="#00a6c3"/></linearGradient><linearGradient id="m" x1="3.212" y1="1.864" x2="4.138" y2="1.864" gradientUnits="objectBoundingBox"><stop offset="0" stop-color="#9468d8"/><stop offset=".404" stop-color="#527ecf"/><stop offset=".808" stop-color="#1793c7"/><stop offset="1" stop-color="#009cc4"/></linearGradient><linearGradient id="n" x1="3.287" y1="1.918" x2="4.211" y2="1.918" gradientUnits="objectBoundingBox"><stop offset="0" stop-color="#9d63d5"/><stop offset=".407" stop-color="#5778cd"/><stop offset=".81" stop-color="#188cc5"/><stop offset="1" stop-color="#0094c3"/></linearGradient><linearGradient id="o" x1="3.357" y1="1.947" x2="4.286" y2="1.947" gradientUnits="objectBoundingBox"><stop offset="0" stop-color="#a55fd1"/><stop offset=".405" stop-color="#5c72ca"/><stop offset=".811" stop-color="#1984c4"/><stop offset="1" stop-color="#008cc2"/></linearGradient><linearGradient id="p" x1="3.423" y1="1.955" x2="4.362" y2="1.955" gradientUnits="objectBoundingBox"><stop offset="0" stop-color="#ae5bce"/><stop offset=".406" stop-color="#616cc8"/><stop offset=".811" stop-color="#1b7dc3"/><stop offset="1" stop-color="#0084c1"/></linearGradient><linearGradient id="q" x1="3.487" y1="1.962" x2="4.433" y2="1.962" gradientUnits="objectBoundingBox"><stop offset="0" stop-color="#b655cb"/><stop offset=".356" stop-color="#7563c7"/><stop offset=".796" stop-color="#2a75c2"/><stop offset="1" stop-color="#0d7cc1"/></linearGradient><linearGradient id="r" x1="3.528" y1="1.97" x2="4.473" y2="1.97" gradientUnits="objectBoundingBox"><stop offset="0" stop-color="#be51c8"/><stop offset=".255" stop-color="#935ac5"/><stop offset=".766" stop-color="#436cc1"/><stop offset="1" stop-color="#2474c0"/></linearGradient><linearGradient id="s" x1="3.566" y1="1.978" x2="4.508" y2="1.978" gradientUnits="objectBoundingBox"><stop offset="0" stop-color="#c54dc4"/><stop offset=".174" stop-color="#a952c3"/><stop offset=".742" stop-color="#5364c0"/><stop offset="1" stop-color="#316bbf"/></linearGradient><linearGradient id="t" x1="3.605" y1="1.985" x2="4.544" y2="1.985" gradientUnits="objectBoundingBox"><stop offset="0" stop-color="#cd47c1"/><stop offset=".106" stop-color="#bc4ac0"/><stop offset=".722" stop-color="#5e5bbe"/><stop offset="1" stop-color="#3a63be"/></linearGradient><linearGradient id="u" x1="3.643" y1="1.993" x2="4.58" y2="1.993" gradientUnits="objectBoundingBox"><stop offset="0" stop-color="#d643bd"/><stop offset=".025" stop-color="#d243bd"/><stop offset=".699" stop-color="#6c53bd"/><stop offset="1" stop-color="#445abe"/></linearGradient><linearGradient id="v" x1="3.682" y1="2" x2="4.617" y2="2" gradientUnits="objectBoundingBox"><stop offset="0" stop-color="#dd3fba"/><stop offset=".675" stop-color="#764bbc"/><stop offset="1" stop-color="#4a51bd"/></linearGradient><linearGradient id="w" x1="3.721" y1="2.007" x2="4.653" y2="2.007" gradientUnits="objectBoundingBox"><stop offset="0" stop-color="#e439b6"/><stop offset=".65" stop-color="#7f43ba"/><stop offset="1" stop-color="#4e49bd"/></linearGradient><linearGradient id="x" x1="3.762" y1="2.013" x2="4.69" y2="2.013" gradientUnits="objectBoundingBox"><stop offset="0" stop-color="#eb35b3"/><stop offset=".615" stop-color="#8a3bb8"/><stop offset="1" stop-color="#5340bc"/></linearGradient><linearGradient id="y" x1="3.797" y1="2.02" x2="4.728" y2="2.02" gradientUnits="objectBoundingBox"><stop offset="0" stop-color="#f330af"/><stop offset=".578" stop-color="#9534b6"/><stop offset="1" stop-color="#5637bb"/></linearGradient><linearGradient id="z" x1="3.832" y1="2.026" x2="4.766" y2="2.026" gradientUnits="objectBoundingBox"><stop offset="0" stop-color="#fa2bac"/><stop offset=".518" stop-color="#a52cb3"/><stop offset="1" stop-color="#5b2dba"/></linearGradient><linearGradient id="A" x1="3.868" y1="2.031" x2="4.806" y2="2.031" gradientUnits="objectBoundingBox"><stop offset="0" stop-color="#ff27a8"/><stop offset=".44" stop-color="#b625af"/><stop offset="1" stop-color="#5e24b9"/></linearGradient><linearGradient id="B" x1="3.899" y1="2.037" x2="4.838" y2="2.037" gradientUnits="objectBoundingBox"><stop offset="0" stop-color="#ff21a4"/><stop offset=".298" stop-color="#ce1faa"/><stop offset="1" stop-color="#601bb8"/></linearGradient><linearGradient id="C" x1="3.915" y1="2.042" x2="4.851" y2="2.042" gradientUnits="objectBoundingBox"><stop offset="0" stop-color="#ff1ca0"/><stop offset=".058" stop-color="#f51ba1"/><stop offset="1" stop-color="#6212b8"/></linearGradient><linearGradient id="D" x1="3.928" y1="2.046" x2="4.861" y2="2.046" gradientUnits="objectBoundingBox"><stop offset="0" stop-color="#ff189d"/><stop offset="1" stop-color="#6507b7"/></linearGradient><linearGradient id="E" x1="3.94" y1="2.05" x2="4.868" y2="2.05" gradientUnits="objectBoundingBox"><stop offset="0" stop-color="#ff1299"/><stop offset="1" stop-color="#6702b6"/></linearGradient><linearGradient id="F" x1="3.95" y1="2.054" x2="4.874" y2="2.054" gradientUnits="objectBoundingBox"><stop offset="0" stop-color="#ff0d96"/><stop offset="1" stop-color="#6800b5"/></linearGradient><radialGradient id="G" cx=".196" cy=".26" r=".804" gradientTransform="rotate(-13.18 24.188 8.815)" gradientUnits="objectBoundingBox"><stop offset="0" stop-color="#662d91"/><stop offset=".466" stop-color="#45227d"/><stop offset="1" stop-color="#1b1464"/></radialGradient></defs><g data-name="组 5343" transform="translate(-1307.98 -73.797)"><g data-name="组 5205" opacity=".5"><g data-name="组 5173"><path data-name="路径 14306" d="M1791.556 812.96q-4.649 1.087-9.407 1.839c-45.93 7.251-97.2-7.621-140.66-40.8-35.825-27.35-66.324-65.916-93.24-117.9-7.266-14.036-14.2-28.8-20.909-43.076-23.782-50.627-48.375-102.978-93.321-135.631-12.209-8.87-25.872-16.169-39.085-23.231-20.221-10.806-41.131-21.979-57.162-38.982-18.444-19.561-29.01-46.595-29.748-76.118-.715-28.539 7.6-56.487 23.4-78.694 29.49-41.427 83.233-66.88 143.764-68.085 6.992-.139 14.195.008 21.16.148 23.112.471 47.012.958 67.47-8.867 18.352-8.811 31.819-24.958 44.845-40.573 6.2-7.43 12.606-15.113 19.5-21.981 22.065-21.979 51.295-37.051 84.6-43.593a195.557 195.557 0 0 1 97.377 5.814c59.663 19.206 112.765 66.07 145.689 128.575 9.779 18.564 17.753 38.3 25.466 57.389 7.613 18.84 15.485 38.32 25.071 56.611 16.1 30.726 44.363 70.073 87.539 83.039 5.163 1.55 10.59 2.728 15.842 3.87 11.661 2.533 23.718 5.151 33.858 12.017 15.789 10.69 25.323 31.74 24.293 53.629-.813 17.314-7.5 35.443-20.44 55.423a226.442 226.442 0 0 1-150.907 98.971c-6.629 1.12-13.423 1.964-19.992 2.779-11.858 1.472-24.12 3-35.727 6.2-20.744 5.73-36.329 16.74-43.885 31-5.312 10.023-6.89 21.765-8.416 33.12-.712 5.292-1.447 10.763-2.551 16.038-9.138 43.715-47.297 80.049-94.424 91.069ZM1430.867 200.1c-41.052 9.6-75.927 31.252-97.541 61.615-33.059 46.442-30.361 113.148 6.142 151.86 15.77 16.726 36.509 27.807 56.564 38.525 13.284 7.1 27.018 14.439 39.358 23.4 45.43 33 70.152 85.631 94.06 136.524 6.7 14.257 13.623 29 20.869 43 26.754 51.674 57.037 89.984 92.583 117.122 42.959 32.8 93.579 47.5 138.884 40.351q4.672-.738 9.25-1.81c46.264-10.814 83.705-46.43 92.668-89.274 1.085-5.191 1.816-10.62 2.52-15.87 1.554-11.558 3.161-23.509 8.668-33.9 7.859-14.835 23.956-26.257 45.324-32.158 11.779-3.254 24.122-4.786 36.061-6.268 6.545-.812 13.312-1.652 19.892-2.765 60.4-10.218 116.241-46.829 149.338-97.938 12.709-19.624 19.274-37.374 20.068-54.265.994-21.1-8.142-41.346-23.272-51.59-9.767-6.614-21.6-9.184-33.046-11.67-5.295-1.149-10.768-2.339-16.017-3.914-43.954-13.2-72.623-53.068-88.934-84.19-9.64-18.392-17.534-37.927-25.167-56.82-7.691-19.032-15.644-38.714-25.368-57.175-32.642-61.969-85.252-108.42-144.338-127.443-64.313-20.7-136.494-5.745-179.622 37.213-6.819 6.791-13.192 14.432-19.356 21.822-13.184 15.806-26.817 32.151-45.626 41.181-20.964 10.063-45.142 9.571-68.524 9.1-6.942-.142-14.12-.287-21.067-.15a213.754 213.754 0 0 0-44.371 5.487Z" fill="url(#a)"/></g><g data-name="组 5174"><path data-name="路径 14307" d="M1779.755 797.927q-5.015 1.172-10.088 1.941c-45.013 6.8-94.978-7.743-137.083-39.914-34.969-26.722-64.6-64.41-90.573-115.222-6.893-13.432-13.5-27.507-19.886-41.12-23.134-49.3-47.056-100.274-90.106-132.9-11.5-8.711-24.13-16.038-36.345-23.124-18.9-10.964-38.442-22.3-53.454-38.749-35.375-38.76-37.554-104.595-4.962-149.878 28.848-40.079 81.227-64.909 140.119-66.426 6.825-.2 13.854-.118 20.649-.04 22.458.263 45.678.532 65.474-9.366 17.756-8.879 31.2-24.582 44.193-39.767 6.511-7.607 13.244-15.474 20.461-22.427 22.014-21.207 50.873-35.663 83.443-41.8a191.993 191.993 0 0 1 95.4 6.374c58.378 19.239 110.336 65.532 142.552 127.008 9.391 18.03 17.125 37.163 24.605 55.666 7.89 19.515 16.047 39.694 26.132 58.515 15.856 29.6 43.74 67.82 86.53 81.838 4.347 1.424 8.792 2.669 13.09 3.872 12.71 3.557 24.718 6.918 34.739 14.653 14.541 11.223 22.338 31.521 20.348 52.971-1.553 16.74-8.425 33.766-21.627 53.584-31.648 47.5-81.474 81.674-137.794 94.845q-4.831 1.128-9.715 2.05c-8.35 1.573-16.986 2.7-25.335 3.794-10.77 1.406-21.906 2.863-32.448 5.281-15.281 3.514-35.5 11.058-45.048 27.135-5.464 9.2-7.127 20.127-8.736 30.69-.725 4.763-1.475 9.686-2.563 14.438-5.115 22.337-17.893 42.625-36.95 58.673a133.288 133.288 0 0 1-55.022 27.405ZM1434.89 200.2c-40.265 9.414-74.533 30.549-95.794 60.088-31.989 44.447-29.882 109.029 4.8 147.026 14.776 16.192 33.3 26.94 52.918 38.317 12.275 7.121 24.967 14.484 36.577 23.28 43.5 32.959 67.538 84.191 90.789 133.737 6.378 13.594 12.976 27.651 19.853 41.05 25.82 50.506 55.236 87.942 89.931 114.455 41.62 31.8 90.96 46.188 135.368 39.474 49.06-7.421 90.255-42.9 100.191-86.279 1.07-4.669 1.813-9.551 2.531-14.273 1.643-10.779 3.339-21.924 9.031-31.506 9.955-16.767 30.763-24.6 46.486-28.186 10.647-2.443 21.838-3.905 32.66-5.319 8.321-1.087 16.923-2.212 25.21-3.774 59.721-11.254 112.923-46.208 146.043-95.922 12.987-19.494 19.742-36.189 21.258-52.539 1.918-20.684-5.545-40.215-19.477-50.969-9.672-7.465-21.472-10.768-33.965-14.265-4.321-1.209-8.789-2.459-13.184-3.9-43.5-14.251-71.77-52.959-87.822-82.921-10.14-18.93-18.323-39.167-26.235-58.735-7.46-18.454-15.174-37.536-24.511-55.467-31.946-60.956-83.432-106.848-141.253-125.9-63.519-20.934-132.826-7.234-176.568 34.9l-.785-.816.785.816c-7.138 6.877-13.835 14.7-20.312 22.268-13.143 15.356-26.734 31.235-44.9 40.32-20.29 10.147-43.789 9.872-66.513 9.606-6.774-.079-13.777-.162-20.561.038a210.818 210.818 0 0 0-42.551 5.396Z" transform="translate(3.276 1.092)" fill="url(#b)"/></g><g data-name="组 5175"><path data-name="路径 14308" d="M1768.688 782.8q-5.654 1.323-11.491 2.167c-44.1 6.361-92.758-7.862-133.507-39.024-34.112-26.094-62.866-62.906-87.905-112.541-6.505-12.8-12.767-26.15-18.823-39.067-22.505-48.005-45.777-97.646-86.934-130.256-10.732-8.5-22.271-15.8-33.428-22.866-18.449-11.676-35.875-22.7-49.926-38.67-16.573-18.833-25.916-44.235-26.308-71.528-.382-26.684 7.69-52.754 22.733-73.413 28.04-38.508 79.057-62.723 136.469-64.769 6.475-.232 13.129-.209 19.566-.188 22 .072 44.751.15 64.056-9.906 17.137-8.925 30.5-24.156 43.431-38.884 6.858-7.813 13.952-15.894 21.531-22.951 44.244-41.184 113.216-54.165 175.713-33.068 57.326 19.352 108.142 65.074 139.417 125.443 9.126 17.617 16.671 36.313 23.968 54.393 8.09 20.044 16.455 40.773 26.966 59.969 22.045 40.259 52.417 68.9 85.519 80.638a606.883 606.883 0 0 0 8.7 2.988c13.914 4.7 27.057 9.145 37.258 18.176 13.059 11.558 19.344 31.6 16.406 52.31-2.29 16.111-9.325 32.07-22.815 51.747a237.649 237.649 0 0 1-62.528 62.269c-25.635 17.259-53.1 28.212-81.641 32.559-6.406.975-13.012 1.918-19.4 2.829-13.412 1.915-27.278 3.893-40.388 6.326-23.161 4.307-38.711 12.13-46.214 23.271-5.628 8.356-7.3 18-9.067 28.217-.735 4.248-1.5 8.639-2.566 12.88-9.896 39.249-44.865 70.68-88.792 80.949ZM1439.18 200.379c-39.683 9.278-73.454 29.893-94.3 58.523-30.9 42.43-29.382 104.89 3.448 142.193 13.842 15.729 31.139 26.674 49.45 38.263 11.207 7.092 22.794 14.425 33.618 23 41.561 32.93 64.945 82.81 87.56 131.046 6.047 12.9 12.3 26.24 18.791 39.008 24.889 49.334 53.439 85.9 87.281 111.787 40.282 30.8 88.341 44.872 131.856 38.593 48.383-6.981 87.935-39.72 98.463-81.477 1.05-4.16 1.8-8.51 2.531-12.717 1.732-9.993 3.52-20.324 9.411-29.071 7.845-11.65 23.862-19.792 47.639-24.2 13.154-2.441 27.043-4.423 40.476-6.34 6.383-.912 12.982-1.852 19.379-2.828 55.561-8.465 107.577-42.688 142.684-93.9 13.289-19.384 20.212-35.055 22.451-50.812 2.836-19.983-3.173-39.278-15.684-50.353-9.869-8.738-22.807-13.111-36.5-17.741-2.877-.972-5.793-1.956-8.728-3-33.612-11.92-64.407-40.92-86.712-81.653-10.573-19.31-18.963-40.1-27.078-60.2-7.277-18.031-14.8-36.678-23.882-54.2-31.015-59.868-81.375-105.2-138.165-124.37-61.745-20.843-129.851-8.049-173.512 32.594-7.5 6.98-14.554 15.019-21.375 22.791-13.061 14.881-26.566 30.268-44.068 39.383-19.79 10.308-42.813 10.23-65.08 10.155-6.413-.021-13.048-.043-19.48.187a211.039 211.039 0 0 0-40.474 5.339Z" transform="translate(6.539 2.149)" fill="url(#c)"/></g><g data-name="组 5176"><path data-name="路径 14309" d="M1757.062 767.751q-6.067 1.419-12.344 2.284c-43.182 5.917-90.539-7.983-129.931-38.135-33.022-25.288-60.9-61.222-85.239-109.857-5.92-11.833-11.664-24.12-17.216-36-22.017-47.1-44.781-95.8-84.3-128.631-9.874-8.2-20.226-15.39-30.236-22.343-17.227-11.963-33.5-23.263-46.671-38.853-15.617-18.487-24.342-43.075-24.569-69.237-.221-25.756 7.725-50.888 22.378-70.767 27.309-37.048 76.96-60.638 132.822-63.114 6.207-.274 12.582-.313 18.746-.35 21.452-.131 43.637-.266 62.371-10.43 16.492-8.946 29.739-23.676 42.551-37.918 7.243-8.053 14.733-16.38 22.719-23.556l.713.793-.713-.793c44.124-39.657 111.867-51.713 172.579-30.713C1856.866 109.545 1906.539 154.7 1937 214c8.821 17.174 16.16 35.382 23.257 52.993 8.312 20.62 16.9 41.942 27.879 61.551 21.654 38.694 51.665 66.9 84.5 79.437l.959.365c17.29 6.594 32.219 12.29 43.121 23.443 11.763 12.035 16.419 31.342 12.459 51.645-3.8 19.483-14.821 36.906-24 49.907-32.88 46.589-78.381 78.788-126.546 90.053q-7.1 1.66-14.25 2.7c-9.75 1.423-19.858 2.954-29.632 4.436-10.67 1.617-21.706 3.289-32.182 4.8-24.512 3.543-40.024 9.9-47.4 19.414-5.8 7.477-7.546 16.325-9.4 25.693-.742 3.748-1.509 7.624-2.556 11.372-10.249 36.728-44.098 66.11-86.147 75.942Zm-313.68-567.272c-39.021 9.123-72.262 29.227-92.731 56.994-30.268 41.063-29.365 100.115 2.1 137.362 12.99 15.375 29.149 26.6 46.257 38.479 10.048 6.977 20.438 14.193 30.383 22.454 39.888 33.135 62.756 82.056 84.87 129.368 5.549 11.87 11.286 24.143 17.194 35.952 24.186 48.339 51.869 84.031 84.628 109.117 38.944 29.809 85.722 43.556 128.342 37.716 46.83-6.419 85.715-37.233 96.737-76.678 1.026-3.668 1.783-7.5 2.517-11.211 1.822-9.2 3.705-18.711 9.809-26.586 7.73-9.978 23.678-16.588 48.78-20.22 10.468-1.513 21.5-3.185 32.166-4.8 9.778-1.483 19.887-3.014 29.643-4.437 52.8-7.7 103.589-41.19 139.361-91.876 9.053-12.828 19.921-30 23.646-49.085 3.826-19.615-.619-38.211-11.889-49.743-10.574-10.82-25.3-16.437-42.356-22.942l-.96-.367c-33.306-12.709-63.708-41.259-85.606-80.387-11.04-19.728-19.659-41.114-27.994-61.8-7.079-17.566-14.4-35.73-23.177-52.817-30.215-58.819-79.449-103.592-135.082-122.834-59.99-20.75-126.9-8.863-170.454 30.283-7.9 7.1-15.354 15.385-22.558 23.4-12.932 14.378-26.3 29.245-43.119 38.367-19.2 10.418-41.659 10.555-63.377 10.688-6.144.037-12.5.076-18.665.35a209.856 209.856 0 0 0-38.465 5.253Z" transform="translate(9.813 3.245)" fill="url(#d)"/></g><g data-name="组 5177"><path data-name="路径 14310" d="M1745.787 752.65a137.136 137.136 0 0 1-13.557 2.455c-42.262 5.472-88.316-8.1-126.353-37.247-32.1-24.608-59.1-59.664-82.572-107.175-5.413-10.961-10.7-22.291-15.809-33.247-21.493-46.077-43.72-93.72-81.473-126.7-8.837-7.72-17.844-14.627-26.553-21.307-16.185-12.414-31.474-24.14-43.908-39.552-30.1-37.309-30.444-95.375-.8-135.067 26.572-35.584 74.858-58.559 129.174-61.456 5.936-.316 12.022-.414 17.91-.51 20.912-.341 42.541-.692 60.706-10.957 15.821-8.94 28.9-23.138 41.543-36.868 7.667-8.325 15.595-16.932 24.03-24.246 43.987-38.132 110.5-49.262 169.447-28.359 54.956 19.488 103.486 64.066 133.145 122.309 8.531 16.752 15.671 34.5 22.575 51.663 8.518 21.175 17.326 43.072 28.761 63.064 21.242 37.138 50.892 64.922 83.49 78.234 18.291 7.468 32.467 14.826 42.205 26.46 10.287 12.289 13.467 31.344 8.513 50.972-4.576 18.13-15.295 34.473-25.176 48.068-33.357 45.895-77.77 77.381-123.587 88.1q-6.906 1.614-13.835 2.592c-7.836 1.1-15.957 2.394-23.808 3.642-13.289 2.114-27.031 4.3-40.029 5.678-17.754 1.885-39.32 5.356-48.594 15.561-5.964 6.563-7.8 14.607-9.74 23.124-.745 3.263-1.513 6.64-2.535 9.909-5.9 18.9-18.271 35.844-35.772 48.994a126.962 126.962 0 0 1-47.398 21.866Zm-298.166-552.081c-38.382 8.974-71.111 28.573-91.205 55.481-29.091 38.959-28.767 95.935.758 132.53 12.278 15.22 27.471 26.872 43.556 39.209 8.735 6.7 17.767 13.628 26.655 21.391 38.083 33.265 60.4 81.112 81.986 127.382 5.106 10.947 10.387 22.265 15.791 33.2 23.322 47.22 50.137 82.041 81.975 106.45 37.606 28.813 83.1 42.24 124.83 36.836 45.947-5.947 83.239-34.165 95.012-71.88 1-3.193 1.758-6.528 2.493-9.753 1.915-8.4 3.9-17.09 10.224-24.055 9.685-10.659 30.662-14.185 49.905-16.228 12.947-1.374 26.66-3.554 39.923-5.663 7.862-1.25 15.99-2.543 23.845-3.648 50.073-7.048 99.658-39.8 136.038-89.856 9.767-13.435 20.354-29.569 24.845-47.357 4.793-18.988 1.767-37.358-8.093-49.14-9.466-11.306-23.4-18.52-41.4-25.872-33.022-13.484-63.031-41.583-84.5-79.122-11.5-20.114-20.339-42.078-28.883-63.319-6.889-17.122-14.01-34.827-22.5-51.5-29.421-57.774-77.531-101.986-131.992-121.3-58.262-20.658-123.968-9.678-167.4 27.974-8.349 7.237-16.237 15.8-23.864 24.082-12.754 13.849-25.944 28.168-42.047 37.268-18.624 10.525-40.519 10.881-61.69 11.225-5.868.095-11.936.194-17.833.509a208.989 208.989 0 0 0-36.429 5.156Z" transform="translate(13.093 4.336)" fill="url(#e)"/></g><g data-name="组 5178"><path data-name="路径 14311" d="M1734.4 737.584a136.9 136.9 0 0 1-14.658 2.594c-41.345 5.029-86.094-8.223-122.776-36.357-31.174-23.928-57.311-58.107-79.905-104.492-4.859-9.973-9.635-20.238-14.255-30.165-21.022-45.176-42.761-91.892-78.791-125.091-7.419-6.835-14.76-13.1-21.86-19.15-15.524-13.235-30.185-25.736-42.155-41.374-13.652-17.834-21.123-40.8-21.041-64.655.084-23.913 7.761-47.163 21.621-65.471 26.218-34.629 71.972-56.426 125.527-59.8 5.657-.356 11.452-.514 17.056-.665 20.379-.553 41.452-1.125 59.058-11.491 15.118-8.9 27.966-22.535 40.389-35.721 8.136-8.634 16.549-17.56 25.49-25.03 43.822-36.606 109.1-46.815 166.312-26.007 53.757 19.552 101.142 63.56 130.01 120.743 8.25 16.345 15.2 33.652 21.912 50.387 8.715 21.716 17.727 44.172 29.623 64.523 20.807 35.59 50.1 62.948 82.472 77.031 19.441 8.457 32.256 17.709 40.328 29.114 8.97 12.68 10.636 31.012 4.57 50.3-5.256 16.72-15.772 32.1-26.352 46.229-20.3 27.109-61.781 72.4-120.015 86.02q-6.866 1.6-14.033 2.6c-7.76 1.062-15.8 2.4-23.581 3.693-14.037 2.334-28.554 4.747-42.28 5.707-20.278 1.418-40.826 3.491-49.806 11.714-6.127 5.609-8.047 12.842-10.08 20.5-.742 2.8-1.512 5.692-2.5 8.5-11.293 32.08-42.003 56.865-80.28 65.814Zm-283.357-536.839c-37.568 8.782-68.947 27.582-88.86 53.887-27.876 36.822-28.13 91.721-.589 127.7 11.839 15.468 26.424 27.9 41.864 41.066 7.115 6.066 14.472 12.339 21.918 19.2 36.32 33.468 58.145 80.364 79.25 125.719 4.616 9.918 9.388 20.174 14.239 30.132 22.456 46.1 48.4 80.046 79.323 103.78 36.269 27.819 80.487 40.926 121.314 35.958 44.224-5.38 80.836-31.712 93.292-67.087.963-2.736 1.721-5.591 2.455-8.351 2.016-7.6 4.1-15.457 10.662-21.464 9.457-8.657 30.387-10.791 51.018-12.234 13.633-.954 28.1-3.358 42.093-5.684 7.791-1.3 15.847-2.635 23.636-3.7 64.89-8.892 111.01-58.845 132.718-87.834 10.471-13.988 20.875-29.2 26.043-45.63 5.877-18.682 4.312-36.374-4.295-48.539-7.85-11.1-20.4-20.13-39.492-28.435-32.762-14.251-62.382-41.9-83.4-77.856-11.972-20.478-21.011-43-29.754-64.788-6.7-16.7-13.627-33.961-21.841-50.231-28.637-56.73-75.623-100.383-128.905-119.762-56.55-20.568-121.059-10.5-164.345 25.661l-.64-.769.64.769c-8.85 7.393-17.219 16.276-25.314 24.868-12.521 13.287-25.469 27.028-40.831 36.073-18.054 10.629-39.387 11.207-60.019 11.766-5.587.153-11.364.309-16.986.663a213.662 213.662 0 0 0-35.194 5.122Z" transform="translate(16.372 5.422)" fill="url(#f)"/></g><g data-name="组 5179"><path data-name="路径 14312" d="M1723.386 722.476a140.51 140.51 0 0 1-16.126 2.782c-40.426 4.585-83.873-8.342-119.2-35.469-30.251-23.248-55.518-56.551-77.239-101.81-4.234-8.819-8.427-17.86-12.481-26.6-20.624-44.458-41.949-90.431-76.326-123.965-4.954-4.831-9.771-9.411-14.429-13.84-16.6-15.786-30.943-29.42-43.142-46.347-26.419-36.661-25.591-89.309 1.967-125.184 25.46-33.143 69.884-54.335 121.878-58.142 5.371-.393 10.867-.607 16.182-.813 19.853-.772 40.378-1.57 57.431-12.03 14.38-8.821 26.936-21.858 39.076-34.466 8.653-8.987 17.6-18.279 27.107-25.922l.607.753-.607-.753c43.631-35.082 107.681-44.368 163.179-23.654 52.546 19.613 98.791 63.052 126.872 119.175 7.986 15.958 14.74 32.84 21.274 49.166 8.9 22.242 18.1 45.242 30.464 65.93 20.339 34.043 49.264 60.973 81.45 75.828 18.262 8.428 30.837 18.821 38.444 31.772 10.324 17.573 4.83 38.627.634 49.615-6.086 15.937-16.935 30.67-27.527 44.392-38.312 49.639-84.719 80.378-130.673 86.548-7.8 1.049-15.885 2.447-23.7 3.8-14.669 2.539-29.836 5.163-44.175 5.678l-2.588.092c-20.463.723-39.792 1.406-48.444 7.771-6.285 4.624-8.3 11.045-10.433 17.845-.737 2.345-1.5 4.772-2.448 7.136-12.013 29.887-40.792 52.236-77.027 60.712Zm-267.978-521.662c-37 8.65-67.914 26.959-87.46 52.406-27.051 35.214-27.863 86.889-1.932 122.872 12.092 16.781 26.37 30.358 42.905 46.077 4.662 4.432 9.482 9.016 14.447 13.857 34.632 33.781 56.032 79.918 76.732 124.535 4.052 8.738 8.243 17.771 12.471 26.58 21.588 44.979 46.668 78.053 76.673 101.113 34.933 26.823 77.868 39.61 117.8 35.079 43-4.877 78.088-28.749 91.572-62.3.922-2.294 1.671-4.683 2.4-6.994 2.132-6.8 4.338-13.826 11.133-18.823 9.141-6.722 28.756-7.413 49.523-8.147l2.588-.092c14.208-.511 29.309-3.124 43.914-5.652 7.838-1.356 15.942-2.759 23.778-3.812 45.455-6.108 91.4-36.58 129.4-85.812 10.5-13.609 21.258-28.208 27.249-43.9 4.07-10.662 9.42-31.069-.494-47.943-7.4-12.6-19.7-22.737-37.586-30.994-32.536-15.017-61.764-42.219-82.3-76.594-12.44-20.819-21.672-43.891-30.6-66.2-6.518-16.29-13.258-33.132-21.206-49.019-27.867-55.691-73.725-98.782-125.819-118.227-54.868-20.481-118.178-11.315-161.288 23.349-9.41 7.567-18.315 16.814-26.926 25.757-12.226 12.7-24.867 25.823-39.457 34.774-17.486 10.725-38.271 11.534-58.368 12.315-5.3.206-10.779.419-16.117.81a213.754 213.754 0 0 0-33.032 4.985Z" transform="translate(19.654 6.503)" fill="url(#g)"/></g><g data-name="组 5180"><path data-name="路径 14313" d="M1711.7 707.493a137.3 137.3 0 0 1-16.947 2.851c-39.5 4.144-81.646-8.46-115.621-34.58-29.334-22.573-53.727-55-74.572-99.127-3.509-7.428-7.012-15.014-10.4-22.351-20.319-44-41.331-89.5-74.169-123.529-20.368-21.109-37.065-38.922-51.128-59.854a105.423 105.423 0 0 1-17.429-60.068c.37-22.41 7.557-43.217 20.784-60.172 24.694-31.653 67.785-52.241 118.23-56.485 5.078-.426 10.264-.694 15.28-.952 20.223-1.044 39.325-2.027 55.834-12.581 13.606-8.7 25.8-21.1 37.583-33.094 9.226-9.388 18.765-19.093 28.9-26.931 43.412-33.562 106.234-41.924 160.045-21.3 51.333 19.673 96.433 62.539 123.739 117.608 7.728 15.586 14.3 32.061 20.652 47.993 9.076 22.755 18.461 46.284 31.285 67.287 19.84 32.49 48.4 58.992 80.429 74.623 17.432 8.507 29.73 20.091 36.554 34.428 8.013 16.837 2.629 35.9-3.3 48.93-6.4 14.063-16.351 27.047-28.7 42.56-25.311 31.8-65.035 70.559-114.633 82.157q-6.231 1.458-12.662 2.322c-7.864 1.045-16.013 2.508-23.894 3.923-15.277 2.742-31.072 5.579-46 5.632-3.913.015-7.768-.011-11.518-.037-17.786-.121-33.144-.226-40.76 4.047-6.432 3.607-8.556 9.223-10.808 15.168-.72 1.9-1.464 3.869-2.362 5.8-12.733 27.349-40.44 47.788-74.412 55.732Zm-251.873-506.628c-36.463 8.526-66.948 26.353-86.136 50.949-26.125 33.488-27.472 82.03-3.277 118.045 14 20.849 29.941 37.853 50.922 59.6 33.057 34.262 54.136 79.9 74.519 124.044 3.387 7.332 6.889 14.915 10.393 22.335 20.715 43.854 44.929 76.056 74.022 98.444 33.6 25.829 75.252 38.3 114.285 34.2 40.9-4.293 75.342-26.329 89.861-57.514.868-1.866 1.6-3.8 2.308-5.67 2.27-6 4.615-12.2 11.641-16.139 8.053-4.513 23.641-4.408 41.688-4.286 3.744.026 7.593.052 11.5.037 14.77-.054 30.484-2.875 45.679-5.6 7.9-1.42 16.073-2.886 23.979-3.939 54.9-7.3 98.86-49.592 126.077-83.788 12.676-15.927 22.136-28.273 28.458-42.17 5.764-12.666 11.017-31.163 3.313-47.351-6.638-13.946-18.644-25.233-35.686-33.551-32.342-15.786-61.182-42.538-81.2-75.329-12.908-21.137-22.322-44.741-31.427-67.568-6.34-15.9-12.9-32.339-20.591-47.856-27.1-54.653-71.832-97.185-122.731-116.692-53.214-20.394-115.324-12.14-158.236 21.034-10.034 7.758-19.529 17.418-28.71 26.762-11.861 12.069-24.125 24.547-37.91 33.36-16.926 10.82-37.167 11.864-56.745 12.871-5 .258-10.173.524-15.219.949a214.107 214.107 0 0 0-30.777 4.823Z" transform="translate(22.955 7.577)" fill="url(#h)"/></g><g data-name="组 5181"><path data-name="路径 14314" d="M1703.831 691.968a163.307 163.307 0 0 1-21.611 3.514c-38.584 3.7-79.423-8.578-112.044-33.688-28.425-21.9-51.945-53.453-71.906-96.447q-3.932-8.467-7.81-16.952c-20.169-43.961-41.027-89.419-72.518-124.24a385.3 385.3 0 0 1-44.686-59.521c-22.37-36.157-20.42-83.566 4.741-115.294 23.92-30.161 65.686-50.144 114.583-54.828 4.773-.457 9.643-.773 14.352-1.081 19.691-1.284 38.291-2.494 54.261-13.139 12.787-8.523 24.53-20.247 35.886-31.587 9.859-9.843 20.055-20.023 30.9-28.075 21.352-15.853 47.323-26 75.1-29.351a168.852 168.852 0 0 1 81.813 10.4c50.1 19.728 94.062 62.021 120.6 116.038 7.482 15.226 13.872 31.312 20.053 46.867 9.241 23.255 18.794 47.3 32.085 68.6a206.564 206.564 0 0 0 79.406 73.417c16.877 8.688 28.862 21.511 34.658 37.086 6.3 16.931-.454 35.581-7.225 48.244s-16.275 24.208-27.281 37.583l-2.585 3.144c-40.336 49.12-82.02 76.849-123.916 82.411-7.931 1.053-16.145 2.577-24.087 4.052-15.882 2.948-32.305 6-47.829 5.582-22.656-.608-43.275-.529-53.806.2-5.671.4-7.384 4.656-9.379 9.591a29.058 29.058 0 0 1-3.795 7.326c-7.921 23.574-33.628 42.121-67.96 50.148Zm-239.526-491.026c-35.972 8.409-66.06 25.771-84.894 49.519-24.7 31.144-26.6 77.7-4.621 113.224a383.781 383.781 0 0 0 44.489 59.259c31.679 35.027 52.594 80.613 72.823 124.7q3.886 8.474 7.806 16.946c19.836 42.725 43.18 74.053 71.369 95.777 32.264 24.834 72.639 36.979 110.773 33.322 44.3-4.249 78.873-24.891 88.086-52.585l.052-.157.1-.127a27.15 27.15 0 0 0 3.625-6.994c2.034-5.035 4.136-10.244 10.925-10.714 10.747-.749 30.927-.827 53.982-.209 15.332.41 31.659-2.62 47.451-5.551 7.965-1.478 16.2-3.008 24.177-4.067 41.418-5.5 82.721-33.011 122.759-81.766l2.586-3.146c10.945-13.3 20.4-24.788 27.083-37.288 6.6-12.336 13.189-30.463 7.127-46.763-5.637-15.147-17.322-27.633-33.794-36.111a208.393 208.393 0 0 1-80.109-74.071c-13.378-21.433-22.963-45.558-32.232-68.889-6.167-15.523-12.547-31.573-19.995-46.737-26.346-53.618-69.954-95.591-119.646-115.155-51.585-20.312-112.492-12.964-155.176 18.72-10.739 7.972-20.886 18.1-30.7 27.9-11.419 11.4-23.226 23.19-36.162 31.81-16.373 10.912-36.083 12.2-55.145 13.438-4.7.307-9.551.622-14.3 1.078a214.97 214.97 0 0 0-28.439 4.637Z" transform="translate(26.281 8.597)" fill="url(#i)"/></g><g data-name="组 5182"><path data-name="路径 14315" d="M1693.552 676.876a168.716 168.716 0 0 1-23.847 3.752c-37.662 3.26-77.2-8.7-108.469-32.8-27.515-21.236-50.164-51.906-69.239-93.764q-2.177-4.778-4.344-9.553c-20.283-44.65-41.256-90.823-71.745-126.951-16-18.965-25.1-35.434-33.9-51.359-1.438-2.6-2.878-5.21-4.35-7.833-16.926-30.173-21.6-75.994 6.129-110.345 23.136-28.664 63.57-48.044 110.936-53.17 4.458-.483 9-.845 13.389-1.2 19.169-1.532 37.277-2.977 52.725-13.713 11.919-8.283 23.124-19.283 33.962-29.921 10.562-10.366 21.482-21.086 33.123-29.374l.5.708-.5-.708c43.553-31 102.478-37.367 153.78-16.6 48.869 19.78 91.685 61.5 117.469 114.471 7.243 14.883 13.459 30.592 19.469 45.785 9.4 23.744 19.11 48.3 32.871 69.868 18.714 29.337 46.549 54.981 78.376 72.21 21.2 11.474 29.513 27.945 32.758 39.741 3.751 13.64 0 29.64-11.147 47.555-6.352 10.207-14.473 19.634-23.877 30.551-2.331 2.705-4.72 5.479-7.153 8.348-37.812 44.6-72.71 69.749-108.821 78.194q-5.837 1.364-11.719 2.151c-7.984 1.068-16.247 2.65-24.238 4.18-16.5 3.158-33.563 6.426-49.687 5.529-10.138-.564-19.731-1.414-28.194-2.164-11.539-1.022-20.674-1.833-26.615-1.557-5.083 2.189-7.242 5.056-9.524 8.09a36.47 36.47 0 0 1-4.2 4.909c-7.636 20.916-31.692 37.435-63.918 44.97ZM1468.9 200.988c-35.535 8.309-65.266 25.218-83.757 48.129-27.215 33.716-22.606 78.74-5.965 108.4 1.471 2.626 2.914 5.236 4.354 7.844 8.755 15.852 17.807 32.243 33.7 51.078 30.645 36.311 51.669 82.594 72 127.353q2.169 4.773 4.344 9.551c18.954 41.594 41.432 72.051 68.718 93.108 30.929 23.841 70.024 35.666 107.256 32.444 43.364-3.752 77.261-22.506 86.362-47.776l.072-.2.154-.144a34.239 34.239 0 0 0 4.144-4.824c2.342-3.11 4.761-6.328 10.378-8.706l.141-.06.155-.008c6.057-.3 15.3.517 27.01 1.554 8.449.749 18.025 1.6 28.135 2.16 15.911.883 32.866-2.362 49.264-5.5 8.013-1.533 16.3-3.121 24.336-4.2 39.9-5.339 77.85-30.682 119.442-79.744q3.654-4.31 7.162-8.361c9.357-10.861 17.438-20.241 23.717-30.333 10.881-17.487 14.564-33.022 10.948-46.176-3.155-11.469-11.253-27.489-31.908-38.671-32.084-17.368-60.145-43.223-79.015-72.8-13.851-21.712-23.6-46.344-33.022-70.165-6-15.162-12.2-30.839-19.417-45.662-25.6-52.586-68.08-94-116.557-113.622-50.751-20.54-109.039-14.257-152.113 16.41-11.531 8.208-22.4 18.879-32.915 29.2-10.889 10.688-22.149 21.741-34.187 30.107-15.832 11-35.022 12.536-53.58 14.019-4.379.35-8.908.712-13.342 1.192a216.855 216.855 0 0 0-26.014 4.403Z" transform="translate(29.592 9.61)" fill="url(#j)"/></g><g data-name="组 5183"><path data-name="路径 14316" d="M1685.211 661.641a179.827 179.827 0 0 1-27.134 4.1c-36.737 2.818-74.967-8.813-104.893-31.909-26.612-20.57-48.386-50.364-66.573-91.082-4.85-10.863-9.4-22.2-13.808-33.158-14.678-36.53-29.855-74.305-57.927-98.544l-.124-.107-.075-.147a292.992 292.992 0 0 0-15.046-25.554c-7.282-11.395-13.575-21.244-16.687-33.164-21.77-27.521-18.478-73.778 7.532-105.4 22.34-27.164 61.443-45.941 107.289-51.513 4.128-.5 8.329-.9 12.39-1.295 18.663-1.787 36.294-3.476 51.228-14.3 10.991-7.969 21.557-18.189 31.775-28.072 11.34-10.968 23.066-22.309 35.607-30.858l.472.692-.472-.692c43.248-29.476 100.969-34.936 150.65-14.253 47.624 19.829 89.3 60.98 114.331 112.9 7.017 14.552 13.064 29.9 18.91 44.75 9.539 24.22 19.4 49.265 33.633 71.09 18.074 27.718 45.545 52.935 77.349 71 21.267 12.082 28.514 29.721 30.846 42.39 2.556 13.872-2.369 29.2-15.058 46.867-5.751 8.008-12.909 15.821-20.487 24.093-3.782 4.128-7.691 8.4-11.708 12.984a270.491 270.491 0 0 1-117 78.238c-24.8 8.347-51.823 11.833-76.091 9.822-16.53-1.37-31.717-3.823-42.805-5.613-5.284-.854-9.858-1.593-13.28-2.007a20.686 20.686 0 0 0-9.742 5.611 33.031 33.031 0 0 1-4.263 3.451c-7.394 18.453-29.017 32.707-58.839 39.68Zm-269.117-251.754c28.3 24.507 43.53 62.416 58.26 99.079 4.4 10.947 8.947 22.265 13.785 33.1 18.071 40.459 39.681 70.044 66.067 90.44 29.6 22.849 67.414 34.353 103.742 31.567 43.1-3.3 75.528-19.771 84.638-42.971l.1-.252.227-.147a30.666 30.666 0 0 0 4.265-3.427 22.112 22.112 0 0 1 10.592-6.031l.157-.043.159.02c3.474.413 8.125 1.165 13.51 2.034 11.061 1.785 26.211 4.232 42.677 5.6 23.7 1.964 51.185-1.587 75.417-9.739a268.824 268.824 0 0 0 116.28-77.755c4.031-4.6 7.946-8.877 11.734-13.013 7.543-8.234 14.667-16.01 20.362-23.939 12.408-17.275 17.239-32.186 14.773-45.588-2.27-12.319-9.321-29.473-30.028-41.237-32.031-18.2-59.706-43.607-77.923-71.544-14.325-21.968-24.22-47.093-33.788-71.391-5.837-14.818-11.871-30.141-18.859-44.637-24.86-51.559-66.217-92.413-113.47-112.086-49.161-20.469-106.279-15.071-149.062 14.091-12.425 8.469-24.1 19.758-35.385 30.676-10.26 9.924-20.87 20.186-31.956 28.224-15.3 11.1-33.983 12.885-52.05 14.615-4.052.388-8.24.79-12.348 1.288-45.414 5.525-84.127 24.081-106.2 50.916-25.573 31.093-28.825 76.526-7.405 103.436l.111.139.045.174c3.029 11.74 9.282 21.524 16.521 32.852a295.036 295.036 0 0 1 15.052 25.549Z" transform="translate(32.015 10.661)" fill="url(#k)"/></g><g data-name="组 5184"><path data-name="路径 14317" d="M1859.973 614.231c-19.827 4.636-40.334 6.161-58.463 4.188a354.925 354.925 0 0 1-57.355-11.538 24.267 24.267 0 0 0-10.14 3.179 37.842 37.842 0 0 1-4.171 1.978c-9.383 21.132-41.571 36-84.149 38.821a151.464 151.464 0 0 1-101.315-31.02c-25.711-19.908-46.615-48.825-63.906-88.4-4.62-10.575-8.944-21.6-13.126-32.261-13.762-35.085-27.99-71.365-54.361-94.739l-.135-.119-.07-.164c-3.968-9.2-8.072-17.053-11.691-23.984-6.268-12-11.687-22.38-13.609-34.392-20.2-26.321-16.3-70.394 8.926-100.45 29.479-35.128 77.587-46.315 103.639-49.856 3.784-.514 7.625-.949 11.341-1.368 18.178-2.054 35.344-4 49.78-14.919 10-7.564 19.808-16.938 29.293-26 12.2-11.662 24.823-23.72 38.387-32.557l.438.674-.438-.674c42.9-27.952 99.427-32.515 147.516-11.905 46.372 19.873 86.9 60.453 111.2 111.337 6.794 14.231 12.675 29.238 18.36 43.749 9.675 24.688 19.679 50.216 34.384 72.279 22.26 33.392 53.789 56.386 76.32 69.8 22.627 13.467 27.837 33.994 28.93 45.033 1.4 14.121-4.629 28.794-18.966 46.179-5.085 6.166-11.063 12.208-17.391 18.6-5.146 5.2-10.467 10.578-15.966 16.656-31.488 34.783-70.778 61.121-113.625 76.17a189.528 189.528 0 0 1-19.637 5.703Zm-119.948-8.277a35.629 35.629 0 0 1 4.1-.689l.158-.018.153.043a353.771 353.771 0 0 0 57.245 11.532c23.99 2.611 52.2-.967 77.393-9.817 42.595-14.96 81.657-41.149 112.964-75.733 5.524-6.1 10.858-11.494 16.015-16.706 6.3-6.371 12.255-12.388 17.294-18.5 14.047-17.033 19.958-31.33 18.606-45-1.062-10.737-6.133-30.7-28.154-43.81-22.673-13.495-54.407-36.641-76.833-70.286-14.8-22.205-24.837-47.816-34.543-72.584-5.675-14.484-11.544-29.462-18.315-43.642-24.13-50.535-64.362-90.83-110.38-110.551-47.6-20.4-103.546-15.888-146 11.774-13.438 8.756-26 20.762-38.153 32.373-9.519 9.1-19.364 18.5-29.433 26.123-14.789 11.193-32.167 13.157-50.57 15.236-3.706.419-7.538.851-11.306 1.363-25.82 3.509-73.494 14.586-102.625 49.3-24.808 29.562-28.655 72.87-8.758 98.6l.127.164.032.2c1.852 11.836 6.982 21.661 13.478 34.1 3.61 6.916 7.7 14.748 11.67 23.928 26.575 23.633 40.851 60.033 54.657 95.238 4.176 10.646 8.5 21.655 13.1 32.2 17.181 39.324 37.925 68.034 63.418 87.773a149.836 149.836 0 0 0 100.225 30.688c42.182-2.8 73.953-17.424 82.915-38.167l.135-.312.318-.121a35.5 35.5 0 0 0 4.3-2.016 25.293 25.293 0 0 1 6.767-2.683Z" transform="translate(35.191 11.701)" fill="url(#l)"/></g><g data-name="组 5185"><path data-name="路径 14318" d="M1847.622 612.725c-20.074 4.694-40.64 6.018-58.726 3.6-24.755-3.3-46.477-10.149-58.611-15.477a43.726 43.726 0 0 0-11.132.712c-1.011.177-2.144.376-3.515.566-9.392 18.872-40.108 31.518-82.313 33.86-34.885 1.935-70.512-9.047-97.741-30.13-24.819-19.252-44.851-47.292-61.238-85.718-4.393-10.3-8.488-21.022-12.448-31.393-13.437-35.177-26.127-68.4-50.791-90.909l-.143-.13-.064-.182c-2.838-7.978-5.707-14.983-8.239-21.164-5.591-13.657-10.014-24.46-10.633-36.872-18.623-25.115-14.114-67 10.317-95.493 28.348-33.056 74.814-44.386 99.994-48.2 3.419-.517 6.886-.974 10.238-1.415 17.7-2.329 34.428-4.532 48.387-15.561 8.919-7.046 17.833-15.491 26.453-23.657 13.17-12.475 26.788-25.375 41.521-34.535l.407.656-.407-.656c42.526-26.434 97.85-30.1 144.384-9.557 45.109 19.913 84.5 59.921 108.063 109.768 6.584 13.926 12.3 28.6 17.832 42.789 9.8 25.146 19.933 51.146 35.116 73.428 17.061 25.033 42.39 48.108 75.287 68.585a56.459 56.459 0 0 1 27.01 47.669c.352 18.676-12.882 34.908-22.866 45.494-4.443 4.709-9.453 9.331-14.759 14.225-6.37 5.877-12.958 11.954-19.763 19.22-31.468 33.6-69.59 59.229-110.244 74.1a184.512 184.512 0 0 1-21.376 6.377Zm-133.008-12.015.414-.055c1.522-.2 2.709-.408 3.857-.61a45.323 45.323 0 0 1 11.6-.729l.281.066c12.01 5.293 33.643 12.124 58.33 15.421 24.362 3.251 53.291-.356 79.369-9.9 40.429-14.791 78.344-40.279 109.649-73.708 6.843-7.307 13.452-13.4 19.842-19.3 5.286-4.876 10.277-9.481 14.682-14.15 9.8-10.389 22.786-26.3 22.447-44.406-.173-9.137-3.078-31.945-26.285-46.392-33.079-20.59-58.566-43.814-75.747-69.025-15.283-22.427-25.448-48.51-35.278-73.735-5.521-14.166-11.228-28.814-17.79-42.691-23.409-49.517-62.516-89.251-107.291-109.016-46.073-20.339-100.849-16.717-142.948 9.456-14.6 9.076-28.16 21.923-41.274 34.346-8.645 8.189-17.586 16.657-26.557 23.746-14.294 11.294-31.222 13.521-49.144 15.882-3.344.44-6.8.9-10.207 1.411-24.962 3.78-71.029 15-99.056 47.678-24.039 28.033-28.48 69.216-10.11 93.755l.144.19.009.238c.563 12.243 4.963 22.989 10.533 36.594 2.519 6.149 5.369 13.114 8.2 21.051 24.844 22.754 38.164 57.633 51.049 91.367 3.956 10.357 8.046 21.067 12.426 31.338 16.283 38.181 36.159 66.018 60.765 85.105 26.941 20.859 62.191 31.724 96.711 29.809 41.921-2.325 72.271-14.8 81.193-33.365Z" transform="translate(38.358 12.73)" fill="url(#m)"/></g><g data-name="组 5186"><path data-name="路径 14319" d="M1835.418 611.216c-20.321 4.752-40.995 5.883-59.124 3.037-20.926-3.285-38.349-10.562-51.068-15.874-3.35-1.4-6.242-2.608-8.777-3.564a29.871 29.871 0 0 0-11.425-2.378 67.105 67.105 0 0 1-3.589-.209c-9.364 16.539-38.636 27.066-80.473 28.908-33.958 1.495-68.28-9.163-94.164-29.241-23.932-18.6-43.091-45.763-58.571-83.036-4.167-10.033-8.035-20.464-11.777-30.554-12.477-33.644-24.26-65.421-47.214-87.048l-.148-.141-.057-.2c-1.672-5.949-3.339-11.427-4.81-16.258-4.972-16.347-8.576-28.189-7.636-41.445-17.038-23.913-11.922-63.616 11.709-90.535 27.189-30.969 72.032-42.45 96.347-46.541 3.028-.509 6.051-.967 9.058-1.424 17.267-2.62 33.571-5.1 47.073-16.243 7.74-6.392 15.251-13.475 23.2-20.975 14.248-13.435 28.984-27.329 45.061-36.846 42.116-24.932 96.24-27.7 141.252-7.213 43.841 19.948 82.085 59.385 104.93 108.2 6.377 13.628 11.936 27.978 17.313 41.855 9.917 25.6 20.171 52.067 35.838 74.55 16.373 23.5 40.661 45.534 74.254 67.375 24.321 15.813 25.647 40.443 25.088 50.3-1.056 18.668-14.856 33.754-26.762 44.811-3.888 3.612-8.151 7.159-12.663 10.913a282.377 282.377 0 0 0-23.02 20.724c-31.533 32.524-68.487 57.434-106.866 72.037a180.062 180.062 0 0 1-22.979 7.015Zm-134.807-20.555.487.05c1.538.156 2.782.2 3.983.249a31.068 31.068 0 0 1 11.89 2.473c2.559.966 5.461 2.178 8.824 3.581 12.651 5.285 29.978 12.523 50.73 15.78 24.808 3.894 54.463.26 81.35-9.973 38.179-14.526 74.948-39.315 106.333-71.684a283.334 283.334 0 0 1 23.134-20.831c4.5-3.742 8.743-7.275 12.605-10.861 11.7-10.869 25.262-25.67 26.291-43.813.544-9.6-.746-33.585-24.418-48.976-33.755-21.949-58.177-44.116-74.66-67.77-15.769-22.629-26.055-49.182-36-74.86-5.368-13.855-10.918-28.182-17.273-41.763-22.7-48.5-60.68-87.678-104.205-107.482-44.582-20.281-98.182-17.55-139.89 7.139l-.376-.636.376.636c-15.938 9.434-30.612 23.271-44.8 36.651-7.97 7.517-15.5 14.617-23.276 21.038-13.817 11.408-30.323 13.913-47.792 16.565-3 .456-6.015.913-9.034 1.42-24.122 4.056-68.6 15.433-95.482 46.06-23.269 26.506-28.305 65.563-11.465 88.916l.157.219-.02.269c-.987 13.091 2.6 24.869 7.556 41.172 1.457 4.787 3.106 10.2 4.764 16.093 23.107 21.86 34.925 53.731 47.437 87.468 3.735 10.077 7.6 20.495 11.755 30.5 15.379 37.033 34.389 64 58.113 82.437 25.612 19.865 59.58 30.411 93.2 28.932 41.659-1.834 70.63-12.246 79.476-28.565Z" transform="translate(41.515 13.745)" fill="url(#n)"/></g><g data-name="组 5187"><path data-name="路径 14320" d="M1823.329 609.712c-20.564 4.808-41.389 5.748-59.619 2.479-25.3-4.538-46.04-15.472-58.429-22.005l-2.635-1.386a74.425 74.425 0 0 0-15.413-6.476c-9.277 14.138-37.15 22.644-78.62 23.969-33.03 1.053-66.047-9.279-90.59-28.351-23.051-17.952-41.337-44.236-55.9-80.354-3.945-9.779-7.589-19.936-11.112-29.757-11.513-32.093-22.388-62.406-43.629-83.146l-.155-.15-.043-.211c-.561-2.7-1.108-5.273-1.631-7.748-4.445-20.989-7.392-34.9-4.4-49.627-15.445-22.707-9.723-60.221 13.1-85.573 24.692-27.423 64.045-39.547 92.7-44.883 2.608-.486 5.208-.937 7.792-1.386 16.85-2.924 32.772-5.687 45.844-16.973 6.435-5.556 12.761-11.524 19.457-17.843 15.462-14.592 31.451-29.681 49.1-39.607l.347.614-.347-.614c41.67-23.436 94.593-25.3 138.121-4.867 42.558 19.977 79.661 58.844 101.795 106.632 6.18 13.34 11.585 27.382 16.813 40.959 10.022 26.039 20.39 52.965 36.544 75.637 20.166 28.3 49.722 50.225 73.217 66.163 25.556 17.334 24.189 44.886 23.161 52.918-2.426 18.968-17.654 33.548-30.648 44.129-3.45 2.809-7.155 5.562-11.078 8.477-7.966 5.918-17 12.627-25.771 21.36-31.7 31.549-67.484 55.744-103.488 69.969a175.69 175.69 0 0 1-24.483 7.651Zm-136.706-29.063.987.315a75.768 75.768 0 0 1 15.689 6.588l2.638 1.388c13.114 6.915 32.933 17.365 58.02 21.865 25.308 4.539 55.68.874 83.337-10.051 35.825-14.158 71.448-38.245 103.013-69.659 8.845-8.8 17.918-15.546 25.924-21.493 3.909-2.9 7.6-5.648 11.029-8.437 12.791-10.418 27.776-24.742 30.141-43.215 1-7.83 2.334-34.688-22.555-51.573-23.594-16-53.277-38.028-73.575-66.512-16.258-22.815-26.656-49.827-36.71-75.947-5.219-13.557-10.617-27.576-16.775-40.874-22-47.493-58.853-86.11-101.116-105.949-43.121-20.24-95.548-18.4-136.829 4.819-17.5 9.842-33.424 24.869-48.825 39.4-6.708 6.329-13.044 12.309-19.5 17.886-13.366 11.54-29.47 14.335-46.524 17.294-2.58.448-5.174.9-7.774 1.383-28.451 5.3-67.485 17.311-91.912 44.441-22.491 24.979-28.122 61.911-12.819 84.077l.173.249-.061.3c-3.037 14.543-.105 28.386 4.332 49.341q.765 3.616 1.588 7.541c21.374 20.963 32.276 51.354 43.817 83.528 3.52 9.81 7.159 19.952 11.092 29.705 14.473 35.882 32.616 61.974 55.463 79.77 24.287 18.872 56.973 29.1 89.68 28.053 41.436-1.322 69.055-9.762 77.764-23.767Z" transform="translate(44.66 14.746)" fill="url(#o)"/></g><g data-name="组 5188"><path data-name="路径 14321" d="M1811.412 608.215c-20.81 4.867-41.814 5.62-60.2 1.929-27.3-5.479-48.612-18.23-62.263-27.344-2.615-1.746-4.612-3.149-6.375-4.387a82.578 82.578 0 0 0-9.457-6.01c-11.468 14.745-47.985 18.509-76.766 19.061-32.1.615-63.817-9.4-87.017-27.46-21.867-17.07-39.779-43.2-53.236-77.673-3.725-9.539-7.145-19.433-10.453-29-10.549-30.526-20.514-59.359-40.04-79.2l-.156-.159-.031-.222c-3.4-24.912-5.209-41.051.394-57.048-14.085-21.845-7.89-56.427 14.492-80.61 23.511-25.407 61.395-37.531 89.053-43.228 2.144-.442 4.28-.862 6.4-1.281 16.487-3.248 32.064-6.316 44.738-17.768 4.964-4.488 9.883-9.165 15.092-14.117 16.834-16.009 34.243-32.564 53.756-42.962l.316.593-.316-.593c41.188-21.949 92.911-22.915 134.99-2.522 41.266 20 77.228 58.295 98.661 105.064 5.986 13.064 11.24 26.806 16.323 40.1 10.123 26.474 20.59 53.85 37.234 76.69 19.306 26.49 47.382 47.415 72.183 64.95 20.783 14.7 24.6 38.323 21.236 55.531-3.786 19.378-20.446 33.4-34.537 43.454-3.124 2.229-6.435 4.407-9.939 6.711-8.717 5.733-18.6 12.234-28.074 21.326-32.451 31.131-66.133 53.977-100.112 67.9a171.06 171.06 0 0 1-25.896 8.275Zm-138.692-37.537.513.269a82.036 82.036 0 0 1 10.109 6.366c1.756 1.233 3.745 2.632 6.348 4.37 13.558 9.05 34.711 21.71 61.781 27.144 25.858 5.188 56.955 1.5 85.325-10.131 33.823-13.865 67.364-36.618 99.692-67.632 9.566-9.178 19.5-15.712 28.267-21.479 3.494-2.3 6.794-4.468 9.9-6.682 13.886-9.907 30.3-23.7 34-42.616 3.282-16.8-.431-39.85-20.692-54.176-24.887-17.6-53.066-38.6-72.492-65.257-16.75-22.983-27.249-50.445-37.4-77-5.073-13.27-10.32-26.991-16.289-40.015-21.305-46.491-57.034-84.549-98.025-104.414-41.7-20.211-92.956-19.252-133.771 2.5-19.352 10.312-36.692 26.8-53.462 42.749-5.216 4.958-10.14 9.641-15.117 14.14-12.95 11.7-28.7 14.8-45.379 18.091-2.12.419-4.252.838-6.393 1.279-27.457 5.655-65.069 17.678-88.336 42.823-22.071 23.848-28.164 57.913-14.173 79.241l.183.28-.112.313c-5.617 15.76-3.847 31.761-.47 56.51 19.636 20.053 29.623 48.953 40.2 79.546 3.3 9.556 6.718 19.437 10.432 28.952 13.369 34.242 31.137 60.183 52.812 77.1 22.961 17.88 54.366 27.784 86.164 27.176 41.265-.789 67.563-7.352 76.057-18.974Z" transform="translate(47.725 15.732)" fill="url(#p)"/></g><g data-name="组 5189"><path data-name="路径 14322" d="M1799.978 606.816c-21.054 4.923-42.265 5.49-60.861 1.38-28.22-6.239-50.078-20.461-63.448-31.293-3.67-2.973-6.227-5.424-8.483-7.589a73.119 73.119 0 0 0-7.781-6.765c-8.859 9.314-33.381 13.955-74.917 14.187-31.627.177-61.26-9.259-83.441-26.569-21.011-16.441-38.026-41.672-50.568-74.99-3.509-9.322-6.707-18.976-9.8-28.313-9.585-28.933-18.64-56.262-36.444-75.193l-.158-.167-.015-.229c-1.652-24.929-1.052-41.4 6.815-56.728-12.455-20.61-5.67-53.052 15.875-75.647 17.6-18.454 45.7-32.29 83.544-41.138.62-.145 1.239-.287 1.864-.43q2.442-.557 4.864-1.09c16.186-3.6 31.469-6.993 43.787-18.653 3.271-3.1 6.586-6.3 9.95-9.557 18.4-17.791 37.421-36.187 59.183-47.146a147.554 147.554 0 0 1 131.861-.179c39.969 20.017 74.788 57.74 95.53 103.494 5.8 12.795 10.9 26.245 15.842 39.252 10.213 26.907 20.776 54.731 37.92 77.726 18.766 25.175 45.906 45.156 69.851 62.786l1.292.951c21.307 15.693 23.717 41.126 19.309 58.136-5.16 19.9-23.24 33.317-38.416 42.78-2.9 1.808-5.947 3.567-9.169 5.431-9.363 5.409-19.974 11.54-30.015 20.813-33.38 30.832-65.023 52.369-96.737 65.842a167.24 167.24 0 0 1-27.234 8.898Zm-140.753-45.976.469.336a72.5 72.5 0 0 1 8.378 7.214c2.238 2.146 4.774 4.579 8.4 7.518 13.261 10.746 34.942 24.854 62.919 31.037 26.453 5.849 58.28 2.129 87.316-10.207 31.576-13.414 63.1-34.873 96.37-65.606 10.144-9.369 20.822-15.538 30.242-20.981 3.212-1.857 6.248-3.61 9.133-5.408 14.974-9.337 32.809-22.551 37.855-42.016 4.309-16.625 1.962-41.471-18.829-56.785l-1.292-.951c-24.016-17.683-51.237-37.725-70.119-63.052-17.25-23.139-27.844-51.047-38.089-78.036-4.931-12.989-10.03-26.421-15.812-39.177-20.623-45.493-55.226-82.992-94.937-102.88a146.268 146.268 0 0 0-130.713.177c-21.59 10.872-40.542 29.2-58.87 46.923a1285.592 1285.592 0 0 1-9.963 9.567c-12.573 11.905-28.021 15.335-44.386 18.973-1.613.359-3.231.718-4.858 1.088-38.524 8.769-67.058 22.633-84.766 41.205-21.266 22.3-27.94 54.287-15.525 74.4l.191.31-.168.321c-7.861 15.106-8.483 31.4-6.854 56.146 17.894 19.13 26.967 46.515 36.57 75.5 3.089 9.325 6.284 18.966 9.783 28.264 12.459 33.1 29.334 58.139 50.159 74.432 21.955 17.135 51.307 26.474 82.648 26.3 41.777-.234 66.1-4.873 74.361-14.186Z" transform="translate(50.378 16.619)" fill="url(#q)"/></g><g data-name="组 5190"><path data-name="路径 14323" d="M1790.551 605.356c-21.3 4.98-42.741 5.362-61.578.83a144.551 144.551 0 0 1-64.62-35.237 102.682 102.682 0 0 1-9.129-10.043 78.106 78.106 0 0 0-7.572-8.31c-10.588 8.682-41.346 9.629-73.075 9.35-30.682-.271-59.045-9.389-79.866-25.678-20.165-15.821-36.282-40.148-47.9-72.308-3.3-9.125-6.274-18.561-9.154-27.685-8.619-27.318-16.761-53.121-32.843-71.125l-.155-.173v-.232c.075-27.312 3.667-42.661 13.236-56.41-10.82-19.372-3.447-49.675 17.256-70.686 17.07-17.323 43.813-30.378 81.761-39.912l3.106-.775c15.961-3.974 31.037-7.726 43.052-19.66l3.8-3.783c19.243-19.168 41.051-40.894 65.619-52.545a145.694 145.694 0 0 1 128.73 2.164c39.228 20.321 72.041 56.519 92.4 101.926 5.617 12.532 10.578 25.7 15.376 38.434 10.3 27.335 20.942 55.6 38.59 78.735 16.832 22.065 39.622 39.365 61.664 56.1q4.264 3.24 8.44 6.427c21.817 16.726 23 43.171 17.383 60.734-6.565 20.533-26.052 33.29-42.294 42.107-2.762 1.5-5.64 2.947-8.686 4.48-9.924 4.992-21.172 10.652-31.668 19.974-21.747 19.312-55.085 46.936-93.365 63.779a163.186 163.186 0 0 1-28.508 9.522Zm-142.881-54.382.4.364a76.375 76.375 0 0 1 8.086 8.8 102.484 102.484 0 0 0 9.03 9.935 143.313 143.313 0 0 0 64.068 34.936c27.092 6.517 59.646 2.768 89.312-10.286 38.124-16.776 71.362-44.319 93.047-63.576 10.615-9.428 21.94-15.124 31.928-20.151 3.039-1.528 5.909-2.973 8.653-4.462 16.044-8.711 35.284-21.29 41.718-41.412 5.5-17.189 4.353-43.059-16.966-59.4q-4.163-3.191-8.435-6.424c-22.106-16.779-44.964-34.13-61.895-56.326-17.754-23.277-28.434-51.626-38.761-79.042-4.792-12.718-9.745-25.869-15.347-38.366-20.244-45.16-52.861-81.151-91.846-101.345a144.478 144.478 0 0 0-127.654-2.146l-.26-.547.26.547c-24.38 11.563-46.11 33.21-65.283 52.31l-3.8 3.783c-12.25 12.169-27.485 15.962-43.613 19.977l-3.1.775c-37.725 9.478-64.283 22.425-81.193 39.587-20.453 20.758-27.709 50.667-16.877 69.569l.193.333-.223.316c-9.547 13.563-13.14 28.7-13.236 55.8 16.152 18.188 24.309 44.035 32.94 71.394 2.876 9.113 5.849 18.535 9.138 27.637 11.543 31.943 27.527 56.089 47.51 71.765 20.611 16.125 48.713 25.154 79.129 25.421 31.914.281 62.809-.662 72.676-9.4Z" transform="translate(51.088 17.569)" fill="url(#r)"/></g><g data-name="组 5191"><path data-name="路径 14324" d="M1781.44 603.92c-21.54 5.036-43.231 5.232-62.346.277a138.669 138.669 0 0 1-65.784-39.176 102.344 102.344 0 0 1-9.472-12.307 87.178 87.178 0 0 0-7.668-10.077c-10.17 6.015-38.5 5.33-71.241 4.539-29.736-.72-56.831-9.522-76.294-24.79-19.325-15.2-34.544-38.628-45.234-69.624-3.089-8.958-5.846-18.2-8.512-27.144-7.651-25.669-14.881-49.915-29.236-66.97l-.152-.177.019-.232c1.857-26.363 7.56-42.653 19.663-56.091-9.178-18.132-1.223-46.3 18.629-65.731 20.962-20.521 52.757-31.222 78.114-38.252l1.032-.286c15.864-4.4 30.845-8.546 42.634-20.843 21.082-22 43.831-44.441 69.7-55.952l.232.524-.232-.524a143.82 143.82 0 0 1 125.6 4.506c37.89 20.322 69.592 55.963 89.264 100.358 5.44 12.276 10.259 25.172 14.919 37.643 10.371 27.757 21.1 56.458 39.251 79.719 15.3 19.6 35.628 35.328 55.285 50.54 4.781 3.7 9.3 7.193 13.777 10.766 20.9 16.666 22.821 43.814 15.458 63.328-8.113 21.5-30.234 33.947-46.168 41.435-2.688 1.264-5.478 2.475-8.432 3.757-10.415 4.518-22.221 9.64-33.1 18.911-27.105 23.11-56.768 46.581-89.992 61.719a159.326 159.326 0 0 1-29.714 10.154Zm-145.073-62.76.324.35a85.813 85.813 0 0 1 8.093 10.556 101.575 101.575 0 0 0 9.371 12.18 137.49 137.49 0 0 0 65.226 38.839c27.768 7.2 61.045 3.424 91.3-10.364 33.1-15.08 62.683-38.492 89.725-61.546 11.006-9.383 22.895-14.542 33.384-19.093 2.946-1.278 5.727-2.484 8.4-3.74 15.754-7.4 37.617-19.689 45.585-40.8 7.214-19.124 5.342-45.72-15.1-62.026-4.474-3.569-8.986-7.06-13.764-10.757-19.714-15.254-40.1-31.027-55.487-50.741-18.265-23.4-29.02-52.184-39.423-80.022-4.654-12.455-9.467-25.336-14.891-37.58-19.571-44.164-51.092-79.611-88.757-99.812a142.665 142.665 0 0 0-124.593-4.468c-25.682 11.427-48.337 33.78-69.341 55.7-12.006 12.526-27.138 16.717-43.157 21.155l-1.03.286c-25.226 6.994-56.845 17.631-77.621 37.968-19.633 19.219-27.471 47.049-18.23 64.734l.187.356-.271.295c-12.06 13.247-17.751 29.328-19.619 55.466 14.41 17.227 21.648 41.5 29.31 67.2 2.661 8.929 5.414 18.162 8.5 27.1 10.616 30.784 25.71 54.032 44.858 69.1 19.271 15.115 46.124 23.831 75.614 24.545 33 .8 61.494 1.486 71.005-4.611Z" transform="translate(51.534 18.497)" fill="url(#s)"/></g><g data-name="组 5192"><path data-name="路径 14325" d="M1772.375 602.517c-21.78 5.093-43.738 5.1-63.161-.284a134.108 134.108 0 0 1-66.941-43.108 109.594 109.594 0 0 1-9.7-14.482 99.8 99.8 0 0 0-7.868-11.959c-7.673 2.788-24.84 1.921-48.447.732-6.689-.338-13.606-.685-20.975-.984-20.364-.825-49.511-5.643-72.721-23.9-18.5-14.6-32.817-37.117-42.565-66.941-2.886-8.828-5.421-17.92-7.873-26.711-6.685-23.978-13-46.627-25.627-62.706l-.142-.18.03-.228c3.572-26.078 11.385-42.787 26.1-55.775-7.534-16.882 1-42.919 19.989-60.779 19.113-17.976 47.088-28.212 74.47-36.6 14.519-4.445 29.531-9.041 41.175-21.823 18.073-19.844 42.361-44.091 69.985-55.573a141.916 141.916 0 0 1 122.473 6.846c36.541 20.311 67.129 55.4 86.131 98.788 5.267 12.029 9.946 24.66 14.472 36.874 10.438 28.175 21.231 57.309 39.906 80.682 14.048 17.582 32.4 31.943 50.146 45.832 6.237 4.882 12.131 9.493 17.874 14.257 21.249 17.628 21.912 46.524 13.537 65.914-7.342 16.995-23.243 29.948-50.04 40.768-2.672 1.079-5.432 2.1-8.353 3.179-10.855 4.011-23.157 8.556-34.353 17.707-25.514 20.846-54.434 44.475-86.622 59.655a155.687 155.687 0 0 1-30.9 10.799Zm-147.328-71.126.251.31a98.322 98.322 0 0 1 8.2 12.391 108.717 108.717 0 0 0 9.613 14.349 133 133 0 0 0 66.391 42.751c28.486 7.893 62.492 4.09 93.3-10.445 32.068-15.124 60.933-38.708 86.4-59.515 11.338-9.264 23.729-13.843 34.662-17.884 2.915-1.076 5.668-2.094 8.324-3.167 26.517-10.705 42.229-23.478 49.451-40.194 8.22-19.032 7.586-47.382-13.233-64.655-5.732-4.753-11.618-9.36-17.851-14.238-17.8-13.927-36.2-28.327-50.324-46.009-18.781-23.507-29.607-52.725-40.074-80.98-4.519-12.2-9.193-24.816-14.448-36.816-18.907-43.177-49.331-78.079-85.667-98.278a140.833 140.833 0 0 0-121.531-6.792l-.208-.5.208.5c-27.428 11.4-51.6 35.542-69.6 55.3-11.843 13-27 17.641-41.656 22.129C1500 208 1472.161 218.176 1453.21 236c-18.8 17.684-27.22 43.438-19.582 59.9l.171.367-.306.267c-14.652 12.8-22.438 29.3-26.011 55.146 12.668 16.238 18.988 38.908 25.68 62.9 2.447 8.781 4.979 17.86 7.857 26.665 9.683 29.618 23.884 51.969 42.208 66.429 22.98 18.075 51.889 22.847 72.1 23.667 7.373.3 14.292.648 20.985.984 22.969 1.158 41.1 2.074 48.372-.8Z" transform="translate(51.982 19.4)" fill="url(#t)"/></g><g data-name="组 5193"><path data-name="路径 14326" d="M1763.355 601.149c-22.019 5.148-44.258 4.964-64.021-.851a131.9 131.9 0 0 1-68.093-47.038 120.736 120.736 0 0 1-9.886-16.6 114.627 114.627 0 0 0-8.11-13.909c-5.4.7-15.416-.327-29.179-1.738-10.669-1.094-23.948-2.456-38.441-3.3-19.692-1.145-47.675-6.065-69.147-23.006-17.675-14-31.1-35.617-39.9-64.261-2.686-8.741-5-17.721-7.228-26.4-5.719-22.241-11.121-43.246-22.025-58.32l-.13-.18.044-.217c5.261-26.01 15.3-43.131 32.539-55.457-5.988-15.868 2.933-39.267 21.344-55.833 19.554-17.6 49.188-27.619 70.825-34.939 14.866-5.029 28.035-10.195 38.685-22.52 24.473-28.33 47.457-46.384 70.263-55.192a140.015 140.015 0 0 1 119.346 9.184c35.18 20.293 64.658 54.821 83 97.22 5.1 11.789 9.641 24.162 14.036 36.128 10.5 28.591 21.351 58.154 40.548 81.622 13 15.887 29.712 29.041 45.88 41.763 7.408 5.83 14.406 11.336 21.1 17.108 21.7 18.722 21.233 48.631 11.618 68.5-10.623 21.942-31.819 37.7-54.018 40.126-14.517 1.593-30.072 8.37-43.778 19.081q-4.629 3.618-9.324 7.326c-23.254 18.322-47.3 37.268-73.928 50.271a152.012 152.012 0 0 1-32.02 11.432ZM1408.282 345.31c10.929 15.216 16.333 36.233 22.054 58.48 2.23 8.672 4.538 17.641 7.216 26.359 8.737 28.443 22.047 49.9 39.556 63.761 21.264 16.778 49.028 21.655 68.579 22.791 14.512.844 27.8 2.207 38.483 3.3 13.958 1.432 24.041 2.465 29.238 1.7l.306-.046.18.252a113.735 113.735 0 0 1 8.362 14.28 120.062 120.062 0 0 0 9.8 16.469 130.864 130.864 0 0 0 67.562 46.665c29.245 8.605 63.982 4.77 95.306-10.523 26.532-12.955 50.532-31.867 73.744-50.154q4.7-3.7 9.327-7.331c13.854-10.824 29.579-17.675 44.293-19.289 21.854-2.395 42.742-17.924 53.213-39.559 9.453-19.529 9.929-48.915-11.365-67.287-6.674-5.756-13.662-11.257-21.062-17.079-16.209-12.756-32.97-25.945-46.035-41.918-19.306-23.6-30.19-53.246-40.717-81.916-4.388-11.954-8.926-24.313-14.014-36.074-18.254-42.2-47.579-76.558-82.573-96.743a139.006 139.006 0 0 0-118.472-9.119l-.183-.474.183.474c-22.647 8.749-45.5 26.71-69.862 54.909-10.815 12.52-24.119 17.741-39.127 22.818-21.554 7.292-51.073 17.278-70.472 34.731-17.956 16.157-26.958 39.836-20.935 55.078l.146.37-.325.231c-17.155 12.15-27.155 29.07-32.406 54.844Z" transform="translate(52.432 20.276)" fill="url(#u)"/></g><g data-name="组 5194"><path data-name="路径 14327" d="M1754.8 599.613c-22.452 5.25-45.414 4.971-65.345-1.223-28.169-8.75-53.407-27.325-69.242-50.961a134.559 134.559 0 0 1-10.04-18.672 131.744 131.744 0 0 0-8.366-15.908c-3.04-.332-7.6-1.2-13.347-2.3a460.916 460.916 0 0 0-52.485-7.527c-27.671-2.132-49.734-9.573-65.576-22.115-16.867-13.406-29.392-34.122-37.23-61.578-2.487-8.714-4.563-17.638-6.572-26.27-4.754-20.435-9.246-39.737-18.432-53.76l-.116-.177.055-.2c6.951-26.084 19.345-43.616 38.99-55.136-4.3-14.584 5.183-35.911 22.688-50.9 17.091-14.632 41.3-23.642 62.654-31.593l4.527-1.687c15.314-5.733 26.711-11.618 36.2-23.217 15.609-19.092 40.518-44.1 70.541-54.812a138.093 138.093 0 0 1 116.213 11.523c33.813 20.261 62.176 54.231 79.869 95.65 4.934 11.552 9.34 23.673 13.6 35.394 10.55 29.007 21.456 59 41.186 82.551 12.092 14.432 27.431 26.516 42.265 38.2 8.364 6.588 16.263 12.81 23.665 19.451 21.146 18.971 20.885 50.116 9.7 71.076-11.78 22.072-34.483 37.557-57.865 39.455a88.376 88.376 0 0 0-44.978 17.31c-5.663 4.221-11.492 8.718-17.131 13.067-19.873 15.329-40.424 31.18-62.753 42.471a146.588 146.588 0 0 1-32.675 11.888Zm-345.725-260.652c9.2 14.149 13.694 33.455 18.447 53.888 2.007 8.619 4.079 17.533 6.562 26.224 7.781 27.26 20.2 47.814 36.908 61.094 15.689 12.423 37.578 19.8 65.058 21.913a461.478 461.478 0 0 1 52.591 7.541c5.862 1.117 10.494 2 13.493 2.308l.226.023.124.191a131.163 131.163 0 0 1 8.552 16.211A134.086 134.086 0 0 0 1621 546.9c15.719 23.459 40.771 41.895 68.736 50.582 29.609 9.2 65.983 5.237 97.308-10.6 22.248-11.249 42.763-27.073 62.6-42.376 5.642-4.351 11.474-8.85 17.142-13.077a89.345 89.345 0 0 1 45.47-17.493c23.053-1.868 45.471-17.161 57.1-38.956 11.012-20.636 11.288-51.278-9.495-69.923-7.38-6.62-15.268-12.833-23.618-19.411-14.873-11.716-30.251-23.83-42.405-38.338-19.836-23.676-30.774-53.751-41.351-82.836-4.258-11.709-8.66-23.818-13.585-35.345-17.614-41.236-45.841-75.048-79.482-95.209a137.129 137.129 0 0 0-115.41-11.445l-.159-.448.159.448c-29.817 10.641-54.592 35.52-70.124 54.518-9.62 11.764-21.135 17.716-36.6 23.5l-4.527 1.689c-21.282 7.923-45.406 16.9-62.368 31.423-17.376 14.875-26.75 36.01-22.29 50.255l.113.361-.327.191c-19.54 11.358-31.88 28.696-38.812 54.551Z" transform="translate(52.881 21.123)" fill="url(#v)"/></g><g data-name="组 5195"><path data-name="路径 14328" d="M1745.852 598.327c-22.684 5.305-45.951 4.828-66.273-1.807-29.085-9.5-54.741-29.5-70.388-54.883a151.279 151.279 0 0 1-10.176-20.7 150.439 150.439 0 0 0-8.625-17.939 266.2 266.2 0 0 0-64.065-14.621c-27.073-2.638-47.354-9.582-62-21.226-16.07-12.824-27.7-32.638-34.561-58.894-2.291-8.761-4.122-17.7-5.893-26.35-3.8-18.548-7.384-36.068-14.864-48.987l-.1-.171.063-.188c8.649-26.253 23.518-44.186 45.45-54.813-2.6-13.287 7.438-32.547 24.022-45.967 14.823-11.994 35.246-20.2 53.265-27.449 3.514-1.412 6.956-2.8 10.274-4.174 11.654-4.838 23.8-11.083 33.705-23.914 12.051-15.615 37.274-43.452 70.815-54.428 37.317-12.214 79.582-7.026 113.09 13.861 32.431 20.217 59.684 53.629 76.737 94.082 4.772 11.32 9.047 23.194 13.18 34.677 10.592 29.423 21.545 59.846 41.817 83.464 11.3 13.171 25.462 24.293 39.156 35.05 8.749 6.873 17.8 13.981 25.725 21.38 21.534 20.09 20.215 52.259 7.783 73.653-12.892 22.188-37.12 37.412-61.713 38.786-12.022.671-29.794 3.913-46.182 15.538-7.584 5.382-15.013 11.052-22.876 17.058-17.073 13.034-34.728 26.515-53.639 36.423a143.021 143.021 0 0 1-33.727 12.539Zm-335.984-265.682c7.483 13.024 11.069 30.54 14.864 49.08 1.77 8.636 3.6 17.566 5.882 26.3 6.815 26.066 18.341 45.725 34.257 58.426 14.511 11.534 34.641 18.416 61.54 21.036a267.159 267.159 0 0 1 64.422 14.722l.152.052.083.139a150.3 150.3 0 0 1 8.76 18.181 150.477 150.477 0 0 0 10.115 20.588c15.54 25.207 41.02 45.074 69.909 54.506 30.447 9.939 67.575 5.95 99.314-10.681 18.844-9.871 36.469-23.327 53.512-36.342 7.523-5.744 15.3-11.685 22.9-17.074 16.559-11.748 34.5-15.022 46.645-15.7 24.311-1.357 48.25-16.411 61-38.349 12.255-21.089 13.572-52.788-7.623-72.562-7.9-7.375-16.531-14.153-25.669-21.331-13.727-10.783-27.92-21.935-39.281-35.171-20.377-23.74-31.358-54.242-41.977-83.739-4.13-11.473-8.4-23.335-13.163-34.633-16.984-40.287-44.112-73.555-76.39-93.675-33.291-20.753-75.3-25.9-112.347-13.773l-.137-.42.137.42c-33.315 10.9-58.4 38.593-70.391 54.13-10.027 12.993-22.3 19.306-34.066 24.189-3.32 1.379-6.765 2.763-10.283 4.179-17.961 7.22-38.318 15.405-53.037 27.316-16.483 13.337-26.427 32.446-23.645 45.436l.073.339-.314.151c-21.821 10.478-36.623 28.226-45.242 54.26Z" transform="translate(53.333 21.935)" fill="url(#w)"/></g><g data-name="组 5196"><path data-name="路径 14329" d="M1736.936 597.095c-22.908 5.357-46.492 4.677-67.237-2.41a132.752 132.752 0 0 1-71.533-58.8c-4.362-7.63-7.383-15.3-10.3-22.708a170.991 170.991 0 0 0-8.879-19.987c-11.4-6.9-34.514-16.108-62.311-19.434-18.052-2.16-41.008-6.423-58.431-20.334-15.071-12.079-26.1-31.517-31.894-56.21-2.091-8.914-3.652-17.968-5.16-26.723-2.852-16.553-5.547-32.191-11.347-43.925l-.079-.162.066-.168c10.363-26.476 27.83-44.806 51.918-54.485-.922-12.16 9.45-28.982 25.351-41.046 12.717-9.649 28.993-16.6 44.735-23.326 5.331-2.276 10.366-4.426 15.16-6.641 14.069-6.493 23.405-13.854 31.216-24.613 19.359-26.664 45.269-46.362 71.088-54.044 36.495-10.867 77.615-4.809 109.961 16.2 31.041 20.157 57.182 53.013 73.607 92.514 4.615 11.09 8.755 22.719 12.761 33.965 10.63 29.841 21.621 60.7 42.445 84.372 10.611 12.061 23.743 22.32 36.444 32.24 9.377 7.324 19.073 14.9 27.388 22.97 10.027 9.73 15.613 22.775 16.153 37.724a69.544 69.544 0 0 1-10.282 38.5c-13.962 22.292-39.7 37.254-65.558 38.121-19.067.639-34.569 5.139-47.388 13.767-9.035 6.079-18.205 13.07-27.073 19.83-14.722 11.223-29.945 22.83-46.078 31.593a139.416 139.416 0 0 1-34.743 13.22Zm-326.282-270.734c5.8 11.823 8.488 27.448 11.338 43.986 1.507 8.744 3.066 17.785 5.151 26.674 4.012 17.094 12.752 40.644 31.61 55.759 17.261 13.782 40.073 18.014 58.017 20.16 28 3.35 51.295 12.654 62.732 19.6l.094.058.052.095a173.26 173.26 0 0 1 8.977 20.178c2.912 7.385 5.921 15.023 10.253 22.6a131.922 131.922 0 0 0 71.088 58.431c31.333 10.707 69.21 6.685 101.319-10.757 16.076-8.734 31.274-20.321 45.973-31.524 8.877-6.768 18.057-13.767 27.111-19.861 12.949-8.712 28.592-13.261 47.818-13.9 25.6-.856 51.07-15.668 64.892-37.737 13.149-20.993 15.6-54.485-5.745-75.2-8.286-8.041-17.964-15.6-27.324-22.911-12.73-9.944-25.893-20.226-36.554-32.345-20.927-23.789-31.946-54.721-42.6-84.636-4-11.237-8.141-22.855-12.744-33.927-16.364-39.35-42.394-72.072-73.3-92.141-32.148-20.877-72.992-26.9-109.284-16.1l-.116-.391.116.391c-25.649 7.632-51.4 27.22-70.659 53.74-7.9 10.879-17.33 18.32-31.535 24.875-4.806 2.219-9.846 4.371-15.182 6.65-15.694 6.705-31.925 13.637-44.562 23.226-15.82 12-26.1 28.707-25 40.623l.028.3-.285.113c-23.969 9.545-41.354 27.702-51.679 53.971Z" transform="translate(53.785 22.712)" fill="url(#x)"/></g><g data-name="组 5197"><path data-name="路径 14330" d="M1728.054 595.923c-23.125 5.408-47.036 4.518-68.234-3.034a134.535 134.535 0 0 1-72.676-62.714c-4.391-8.234-7.456-16.59-10.418-24.672a196.006 196.006 0 0 0-9.14-22.066c-10.023-8.625-31.871-20.134-60.565-24.262-19.385-2.788-39.448-7.074-54.864-19.442-18.082-14.566-25.873-37.149-29.224-53.528-1.885-9.206-3.129-18.5-4.333-27.48-1.932-14.416-3.755-28.033-7.923-38.479l-.059-.148.067-.145c12.085-26.729 32.273-45.45 58.391-54.156.829-10.808 11.75-25.62 26.672-36.131 10.719-7.552 24.012-13.493 36.866-19.237 6.887-3.077 13.392-5.985 19.39-9.073a73.911 73.911 0 0 0 28.724-25.313c18.009-26.461 44.683-46.52 71.357-53.659 35.717-9.568 75.617-2.62 106.837 18.534 29.634 20.078 54.663 52.375 70.478 90.944 4.456 10.866 8.468 22.256 12.347 33.271 10.659 30.262 21.681 61.554 43.064 85.264 9.99 11.075 22.221 20.549 34.048 29.708 9.906 7.671 20.148 15.6 28.736 24.276 21.982 22.193 18.446 57.162 3.959 78.8-16.764 25.038-46.963 34.188-69.352 37.453-3.109.454-6.267.8-9.611 1.172-13.093 1.444-26.63 2.939-39.034 10.826-10.126 6.438-20.261 14.207-30.064 21.722-12.728 9.756-25.893 19.846-39.723 27.646a135.744 135.744 0 0 1-35.716 13.923Zm-316.619-275.807c4.159 10.513 5.982 24.113 7.91 38.508 1.2 8.972 2.446 18.25 4.324 27.429 3.329 16.26 11.052 38.668 28.959 53.094 15.273 12.253 35.22 16.51 54.5 19.283 28.909 4.159 50.931 15.789 61.006 24.484l.089.113a195.877 195.877 0 0 1 9.211 22.217c2.953 8.058 6.008 16.39 10.375 24.576a133.785 133.785 0 0 0 72.267 62.361c32.273 11.5 70.9 7.448 103.328-10.837 13.786-7.774 26.927-17.848 39.634-27.588 9.816-7.525 19.963-15.3 30.118-21.76 12.552-7.979 26.792-9.551 39.354-10.938 3.338-.37 6.49-.717 9.585-1.169 22.23-3.245 52.224-12.319 68.837-37.127 14.32-21.388 17.831-55.94-3.869-77.849-8.554-8.639-18.776-16.555-28.663-24.212-11.854-9.18-24.111-18.673-34.145-29.8-21.486-23.822-32.532-55.186-43.214-85.517-3.878-11.006-7.887-22.389-12.335-33.236-15.758-38.433-40.693-70.611-70.2-90.608-31.043-21.033-70.758-27.906-106.219-18.43l-.1-.362.1.362c-26.506 7.1-53.022 27.041-70.929 53.355a74.608 74.608 0 0 1-29.005 25.559c-6.014 3.1-12.529 6.01-19.425 9.091-12.822 5.73-26.082 11.656-36.739 19.165-17.348 12.22-25.831 27.133-26.374 35.818l-.015.254-.24.079c-25.989 8.587-46.083 27.15-58.125 53.685Z" transform="translate(54.238 23.448)" fill="url(#y)"/></g><g data-name="组 5198"><path data-name="路径 14331" d="M1719.628 594.566c-23.549 5.505-48.23 4.51-69.685-3.434-31.566-11.691-58.472-35.975-73.819-66.628-3.733-7.454-6.1-15.289-8.382-22.866-3.011-9.975-5.853-19.4-11.54-27.906-7.159-10.711-28.128-23.864-58.835-29.1-18.156-3.1-37.074-7.078-51.293-18.551-17.142-13.888-23.9-35.315-26.555-50.844-1.656-9.7-2.5-19.4-3.324-28.771-1.058-12.082-2.057-23.5-4.678-32.5l-.038-.131.063-.121c14.019-27.384 36.446-45.989 64.868-53.82 2.208-8 11.675-20.689 27.989-31.226 8.769-5.663 19.283-10.5 29.448-15.177 8.324-3.829 16.185-7.445 23.168-11.477 10.751-6.207 18.6-13.987 26.237-26.014 16.982-26.739 43.758-46.653 71.623-53.271.129-.031.264-.063.394-.092 34.709-8.116 73.3-.293 103.319 20.96 28.625 20.269 51.914 51.175 67.349 89.377 4.3 10.641 8.18 21.794 11.936 32.58 10.68 30.685 21.725 62.416 43.683 86.152 9.431 10.195 20.86 18.951 31.914 27.419 10.349 7.928 21.051 16.127 29.819 25.342 22.269 23.4 17.676 59.389 2.049 81.367-14.41 20.269-40.412 33.339-73.208 36.794-3.263.345-6.567.572-10.066.812-13.354.919-27.162 1.869-39.773 9.411-10.939 6.542-21.7 14.884-32.1 22.951-11.023 8.549-22.419 17.386-34.326 24.363a130.711 130.711 0 0 1-36.237 14.401ZM1412.213 313.9c2.612 9.05 3.609 20.443 4.665 32.5.819 9.362 1.666 19.043 3.318 28.715 2.632 15.414 9.334 36.674 26.311 50.427 14.089 11.369 32.907 15.327 50.977 18.407 30.906 5.27 52.048 18.562 59.288 29.4 5.744 8.594 8.6 18.065 11.625 28.09 2.279 7.549 4.633 15.355 8.339 22.756 15.271 30.5 42.04 54.66 73.445 66.29 32.774 12.137 73.138 7.957 105.337-10.915 11.867-6.954 23.247-15.778 34.253-24.313 10.42-8.079 21.192-16.434 32.166-23 12.753-7.625 26.646-8.582 40.079-9.505 3.493-.24 6.791-.468 10.042-.81 18.887-1.993 53.434-9.385 72.722-36.51 15.468-21.754 20.027-57.358-1.989-80.5-8.73-9.175-19.411-17.357-29.739-25.27-11.077-8.484-22.529-17.258-32-27.5-22.055-23.842-33.124-55.64-43.83-86.394-3.75-10.777-7.63-21.923-11.923-32.548-15.384-38.08-38.59-68.881-67.111-89.073-29.857-21.141-68.243-28.923-102.763-20.853l-.391.092-.079-.333.079.333c-27.7 6.578-54.314 26.379-71.2 52.971-7.7 12.127-15.621 19.975-26.474 26.24-7.011 4.047-14.885 7.671-23.223 11.506-10.145 4.668-20.636 9.493-29.363 15.13-16.291 10.522-25.676 23.159-27.75 31.017l-.049.191-.193.052c-28.282 7.746-50.604 26.207-64.569 53.407Z" transform="translate(54.693 24.148)" fill="url(#z)"/></g><g data-name="组 5199"><path data-name="路径 14332" d="M1710.812 593.516c-23.749 5.554-48.779 4.336-70.747-4.1-32.333-12.411-59.657-38.121-74.963-70.538-3.868-8.189-6.4-16.773-8.846-25.074-3.1-10.51-6.027-20.435-11.439-29.721-7.4-12.694-27.925-28.114-57.1-33.948l-.778-.156c-15.787-3.156-33.682-6.733-46.946-17.5-12.663-10.323-21.145-27.427-23.885-48.16a299.29 299.29 0 0 1-1.978-30.81c-.277-9.482-.538-18.439-1.77-25.777l-.018-.109.053-.1c15.646-27.414 40.684-46.315 70.573-53.3.258-.061.514-.119.774-.179 3.439-6.3 13.138-16.914 29.309-26.329 6.8-3.956 14.655-7.6 22.254-11.132 9.3-4.318 18.911-8.781 26.725-13.866 11.4-7.424 18.152-17.227 23.747-26.717 15.738-26.7 43.306-46.969 71.886-52.88 33.913-7.022 71.517 1.651 100.587 23.2 27.174 20.143 49.384 50.508 64.222 87.808 4.147 10.419 7.9 21.339 11.529 31.9 10.7 31.115 21.757 63.288 44.3 87.036 8.927 9.4 19.639 17.5 30 25.334 10.724 8.108 21.814 16.492 30.685 26.2 9.982 10.925 15.211 25.852 14.721 42.029a75.136 75.136 0 0 1-14.578 41.905c-21.272 28.334-57.413 34.8-77.063 36.137-3.434.232-6.9.336-10.56.446-13.6.406-27.658.828-40.479 8-11.532 6.452-22.632 15.207-33.367 23.673-9.55 7.532-19.425 15.321-29.7 21.588a126.9 126.9 0 0 1-37.148 15.14Zm-297.824-285.779c1.224 7.358 1.484 16.295 1.759 25.753a299.142 299.142 0 0 0 1.973 30.746c2.719 20.574 11.122 37.537 23.662 47.761 13.145 10.673 30.959 14.234 46.677 17.375l.778.156c29.365 5.872 50.046 21.43 57.516 34.245 5.451 9.349 8.524 19.775 11.5 29.857 2.44 8.278 4.965 16.839 8.81 24.986 15.24 32.273 42.44 57.868 74.625 70.223 33.822 12.984 74.957 8.77 107.351-10.993 10.239-6.247 20.1-14.024 29.633-21.545 10.754-8.481 21.874-17.252 33.45-23.728 12.955-7.246 27.09-7.67 40.762-8.079 3.657-.11 7.115-.214 10.537-.446 19.544-1.325 55.486-7.751 76.607-35.889 16.589-22.1 22.189-58.746-.1-83.144-8.833-9.666-19.9-18.033-30.6-26.123-10.38-7.849-21.112-15.963-30.073-25.4-22.635-23.845-33.718-56.083-44.437-87.261-3.627-10.552-7.378-21.464-11.519-31.87-14.8-37.193-36.933-67.464-64.014-87.539-28.932-21.446-66.348-30.078-100.093-23.092-28.477 5.9-55.825 26.039-71.478 52.588-5.634 9.554-12.434 19.43-23.942 26.921-7.852 5.111-17.485 9.585-26.8 13.91-7.587 3.522-15.431 7.164-22.2 11.106-16.168 9.412-25.8 20-29.144 26.211l-.068.125-.137.031c-.3.067-.605.138-.905.208-29.696 6.938-54.566 25.695-70.13 52.907Z" transform="translate(55.148 24.802)" fill="url(#A)"/></g><g data-name="组 5200"><path data-name="路径 14333" d="M1702.412 592.543c-23.94 5.6-49.333 4.147-71.849-4.792-33.079-13.129-60.819-40.264-76.106-74.448-4.006-8.955-6.7-18.332-9.308-27.4-3.031-10.542-6.165-21.443-11.337-31.413-7.052-13.592-25.784-31.909-55.374-38.8q-2.015-.468-4.069-.934c-14.138-3.227-28.758-6.563-40.088-15.833-16.148-13.261-20.221-34.184-21.213-45.476-1.03-11.72-.461-23.5.04-33.892.313-6.525.612-12.688.471-18.01v-.084l.044-.07c17.8-28.314 45.429-47.185 77.813-53.136 6.45-6.893 17.9-14.9 30.641-21.44 4.691-2.406 9.672-4.672 14.946-7.074 10.733-4.885 21.833-9.938 30.4-16.27 9.81-7.254 15.43-16.71 21.255-27.422 14.759-27.132 42.413-47.25 72.149-52.487 32.987-5.816 69.422 3.728 97.462 25.533 25.708 19.987 46.835 49.809 61.1 86.24 3.993 10.2 7.617 20.88 11.123 31.211 10.706 31.552 21.774 64.178 44.917 87.921 8.466 8.688 18.531 16.182 28.266 23.431 11.038 8.218 22.451 16.717 31.361 26.876 9.991 11.395 15.043 26.836 14.222 43.478a77.112 77.112 0 0 1-15.983 43.024c-16.891 21.415-46.382 34.346-80.915 35.481-3.618.118-7.246.1-11.089.072-13.82-.086-28.114-.174-41.15 6.6-11.955 6.213-23.168 15.255-34.012 24-8.269 6.669-16.822 13.565-25.692 19.21a123.013 123.013 0 0 1-38.025 15.904Zm-288.276-290.934c.133 5.324-.162 11.466-.476 17.968-.5 10.375-1.067 22.133-.041 33.817.984 11.2 5.023 31.963 21.013 45.1 11.229 9.186 25.785 12.507 39.86 15.72 1.368.313 2.727.622 4.072.935 29.771 6.936 48.634 25.392 55.74 39.089 5.2 10.019 8.339 20.947 11.376 31.515 2.6 9.05 5.293 18.409 9.283 27.33 15.229 34.051 42.857 61.08 75.8 74.157 34.934 13.868 76.84 9.625 109.362-11.072 8.845-5.629 17.383-12.515 25.641-19.173 10.866-8.761 22.1-17.82 34.1-24.059 13.158-6.837 27.521-6.748 41.41-6.662 3.836.024 7.46.046 11.069-.072 34.359-1.13 63.7-13.984 80.5-35.27 17.926-22.728 23.492-61.032 1.779-85.793-8.871-10.114-20.26-18.6-31.274-26.8-9.753-7.262-19.836-14.771-28.333-23.488-23.229-23.835-34.32-56.52-45.045-88.13-3.5-10.325-7.125-21-11.113-31.188-14.225-36.337-35.291-66.076-60.919-86-27.919-21.708-64.191-31.212-97.026-25.424-29.583 5.214-57.079 25.219-71.758 52.207-5.857 10.769-11.511 20.279-21.414 27.6-8.611 6.369-19.739 11.433-30.5 16.331-5.269 2.4-10.242 4.662-14.922 7.063-12.733 6.53-24.154 14.526-30.551 21.389l-.063.067-.092.017c-32.231 5.894-59.748 24.659-77.478 52.826Z" transform="translate(55.229 25.411)" fill="url(#B)"/></g><g data-name="组 5201"><path data-name="路径 14334" d="M1695.182 591.521a124.576 124.576 0 0 1-15.983 2.652 120 120 0 0 1-57.208-8.04c-33.809-13.846-61.966-42.4-77.249-78.353-4.145-9.75-7-19.958-9.765-29.832-3.083-11.02-6.273-22.416-11.237-33-7.572-16.145-25.639-36.094-53.646-43.663-2.108-.57-4.307-1.129-6.435-1.671-12.042-3.065-24.493-6.233-34.158-14.205-11.132-9.218-17.89-24.814-18.543-42.789-.5-13.669 1.687-27.405 3.44-38.443.492-3.1.958-6.034 1.339-8.773l.04-.1a124.487 124.487 0 0 1 84.271-52.789c7.95-5.133 19.3-11.009 31.979-16.552a674.48 674.48 0 0 1 6.946-2.976c11.908-5.051 25.406-10.777 34.769-18.717 8.326-7.063 12.88-16.253 17.7-25.982l1.064-2.144c13.554-27.226 41.974-47.677 72.406-52.094a115.809 115.809 0 0 1 49.592 4 131.005 131.005 0 0 1 44.749 23.865c24.224 19.8 44.268 49.08 57.969 84.673 3.838 9.973 7.335 20.42 10.715 30.523 10.708 32 21.779 65.083 45.534 88.81 8.045 8.035 17.527 14.974 26.7 21.684 11.3 8.267 22.98 16.817 31.875 27.394 9.988 11.875 14.858 27.831 13.713 44.932a79.07 79.07 0 0 1-17.377 44.135c-18.26 22.127-49.152 34.821-84.762 34.826-3.811 0-7.792-.157-11.64-.312-14.037-.558-28.554-1.136-41.8 5.209-12.237 5.86-23.37 15.084-34.138 24.006a271.689 271.689 0 0 1-22.211 17.152 118.472 118.472 0 0 1-38.649 16.574Zm-278.969-295.994c-.379 2.727-.843 5.641-1.332 8.724-1.842 11.59-3.927 24.727-3.433 38.35.645 17.835 7.341 33.3 18.365 42.43 9.579 7.9 21.976 11.057 33.967 14.108 2.129.541 4.329 1.1 6.441 1.672 28.168 7.613 46.344 27.683 53.96 43.929 4.983 10.623 8.177 22.037 11.266 33.076 2.759 9.858 5.612 20.053 9.745 29.773 15.232 35.833 43.293 64.3 76.982 78.094 36.133 14.8 78.811 10.522 111.378-11.152a271.407 271.407 0 0 0 22.17-17.122c10.791-8.94 21.947-18.184 34.239-24.07 13.36-6.4 27.935-5.817 42.031-5.255 3.845.153 7.82.31 11.622.31 35.456 0 66.216-12.633 84.386-34.648 19-23.025 25.568-62.4 3.667-88.442-8.857-10.531-20.515-19.063-31.79-27.313-9.183-6.721-18.679-13.67-26.75-21.733-23.838-23.809-34.928-56.95-45.654-89-3.378-10.1-6.874-20.541-10.708-30.5-13.669-35.515-33.664-64.724-57.823-84.47-26.933-22.014-62.058-32.391-93.958-27.758-30.274 4.394-58.552 24.739-72.04 51.828l-1.062 2.141c-4.844 9.777-9.418 19.011-17.822 26.138-9.42 7.989-22.954 13.73-34.895 18.8-2.413 1.026-4.692 1.992-6.939 2.974-12.677 5.542-24.027 11.419-31.958 16.544l-.045.029-.052.008a123.991 123.991 0 0 0-83.958 52.535Z" transform="translate(54.381 25.971)" fill="url(#C)"/></g><g data-name="组 5202"><path data-name="路径 14335" d="M1688.152 590.567a122.038 122.038 0 0 1-74.578-6c-34.526-14.56-63.1-44.542-78.393-82.261-4.284-10.568-7.3-21.644-10.218-32.356-3.125-11.479-6.358-23.347-11.141-34.492-10.019-23.347-29.428-41.488-51.92-48.528-2.635-.824-5.4-1.6-8.083-2.348-10.2-2.852-20.747-5.8-28.943-12.634-10.343-8.646-16.277-23.639-15.873-40.1.413-16.769 3.716-32.279 9.062-42.554 16.749-32.183 54.006-43.565 90.732-52.467 6.059-1.467 12.909-4.056 20.844-7.054 3.98-1.5 8.1-3.058 12.492-4.616 13.4-4.749 28.5-10.606 38.087-20.046 6.634-6.533 10.115-14.623 13.8-23.187a336.8 336.8 0 0 1 2.469-5.645 87.236 87.236 0 0 1 29.564-35.1 93.593 93.593 0 0 1 43.1-16.6 110.586 110.586 0 0 1 48.314 5.557 130.933 130.933 0 0 1 42.9 24.637c23.047 19.85 41.5 47.81 54.844 83.1 3.685 9.747 7.052 19.955 10.309 29.829 10.7 32.454 21.767 66.011 46.15 89.7 7.66 7.445 16.611 13.869 25.268 20.082 11.51 8.261 23.413 16.8 32.246 27.766 9.969 12.367 14.653 28.843 13.19 46.391a81.09 81.09 0 0 1-18.752 45.242c-10.186 11.839-23.645 20.843-40 26.763a132.3 132.3 0 0 1-48.608 7.41c-4.01-.122-8.176-.419-12.2-.7-14.242-1.012-28.972-2.056-42.444 3.824-12.406 5.418-23.295 14.737-33.824 23.749-6.169 5.279-12.549 10.74-19.168 15.359a113.78 113.78 0 0 1-39.226 17.279Zm-29.3-463.774c-27.206 6.361-50.871 25.051-61.98 49.658-.853 1.889-1.672 3.8-2.466 5.637-3.7 8.6-7.2 16.73-13.892 23.321-9.647 9.5-24.8 15.379-38.242 20.142-4.393 1.557-8.505 3.112-12.484 4.614-7.946 3-14.809 5.6-20.9 7.071-36.629 8.877-73.787 20.224-90.454 52.248-5.318 10.219-8.6 25.663-9.015 42.37-.4 16.336 5.475 31.2 15.721 39.767 8.124 6.774 18.627 9.712 28.784 12.552 2.682.75 5.455 1.525 8.094 2.352a79.793 79.793 0 0 1 32.6 19.925 92.381 92.381 0 0 1 19.584 28.839c4.794 11.174 8.03 23.057 11.16 34.549 2.915 10.7 5.927 21.765 10.2 32.307 15.252 37.617 43.741 67.516 78.163 82.032 36.845 15.537 81.355 11.133 113.394-11.229 6.6-4.607 12.974-10.06 19.135-15.333 10.552-9.033 21.465-18.373 33.93-23.815 13.573-5.93 28.35-4.876 42.644-3.859 4.021.286 8.183.581 12.185.7 36.539 1.111 68.716-11.289 88.277-34.026 20.044-23.3 27.6-63.738 5.556-91.091-8.8-10.918-20.677-19.443-32.165-27.688-8.669-6.222-17.632-12.657-25.314-20.122-24.458-23.767-35.541-57.375-46.26-89.876-3.254-9.869-6.618-20.075-10.3-29.812-13.319-35.229-31.73-63.131-54.726-82.935-25.966-22.363-59.945-33.614-90.894-30.092a90.267 90.267 0 0 0-10.331 1.794Z" transform="translate(53.376 26.483)" fill="url(#D)"/></g><g data-name="组 5203"><path data-name="路径 14336" d="M1681.067 589.835a122.1 122.1 0 0 1-75.814-6.8c-35.229-15.269-64.218-46.677-79.533-86.166-4.425-11.407-7.6-23.379-10.666-34.957-3.159-11.919-6.424-24.243-11.051-35.9-6.089-15.352-20.707-42.7-50.193-53.393-2.968-1.076-6.107-2.033-9.145-2.959-8.563-2.612-17.421-5.313-24.317-11.132-9.6-8.116-14.656-22.451-13.2-37.413a84.237 84.237 0 0 1 13.329-37.832c10.011-14.829 24.365-26.947 42.665-36.016 15.795-7.827 34.13-13.239 54.489-16.084a293.766 293.766 0 0 0 34.7-6.789c15.98-4.2 27.575-10.392 34.462-18.4 5.35-6.218 7.991-13.641 10.785-21.5.94-2.64 1.912-5.371 2.99-8.037 11.344-28.042 40.647-48.664 72.913-51.3a106.859 106.859 0 0 1 47.046 7.106 131.185 131.185 0 0 1 41.051 25.415c21.5 19.566 38.905 47 51.72 81.538 3.531 9.516 6.768 19.485 9.9 29.123 10.69 32.923 21.743 66.967 46.775 90.615 7.306 6.9 15.772 12.848 23.958 18.6 11.681 8.206 23.76 16.692 32.5 28.013 9.936 12.876 14.435 29.875 12.666 47.866a81.762 81.762 0 0 1-20.128 46.332c-10.8 12.115-24.927 21.2-41.982 27.006a133.65 133.65 0 0 1-50.477 6.514c-4.216-.249-8.567-.683-12.776-1.1-14.442-1.443-29.381-2.933-43.073 2.446-12.486 4.906-22.98 14.237-33.128 23.263-5.31 4.72-10.8 9.6-16.513 13.8a109.544 109.544 0 0 1-39.953 18.141Zm-181.756-354.9c-35.224 8.235-62.726 25.126-78.532 48.54a83.835 83.835 0 0 0-13.271 37.667c-1.448 14.847 3.563 29.065 13.073 37.106 6.84 5.773 15.66 8.461 24.19 11.064 3.042.926 6.186 1.885 9.163 2.964 11.694 4.24 22.221 11.6 31.284 21.875a109.184 109.184 0 0 1 19.118 31.723c4.634 11.682 7.9 24.016 11.064 35.944 3.066 11.569 6.236 23.532 10.652 34.92 15.281 39.4 44.2 70.735 79.343 85.967 38.21 16.562 83.513 12.124 115.411-11.307 5.7-4.188 11.185-9.064 16.488-13.779 10.172-9.045 20.689-18.4 33.235-23.327 13.779-5.414 28.756-3.916 43.241-2.47 4.2.42 8.552.854 12.761 1.1 37.106 2.193 71.563-10.294 92.171-33.4 24.041-26.823 27.312-68 7.445-93.743-8.7-11.28-20.761-19.749-32.419-27.94-8.2-5.759-16.674-11.714-24-18.633-25.1-23.711-36.165-57.8-46.869-90.764-3.129-9.637-6.363-19.6-9.892-29.111-12.795-34.485-30.164-61.87-51.625-81.4-25.391-23.1-57.4-34.92-87.826-32.431-32.139 2.635-61.315 23.159-72.612 51.078-1.076 2.659-2.047 5.386-2.985 8.024-2.807 7.891-5.458 15.344-10.849 21.612-6.936 8.061-18.592 14.289-34.644 18.511a293.792 293.792 0 0 1-34.745 6.8q-9.488 1.328-18.37 3.406Z" transform="translate(52.276 26.961)" fill="url(#E)"/></g><g data-name="组 5204"><path data-name="路径 14337" d="M1674.473 589.012a117.661 117.661 0 0 1-16.672 2.643 123.636 123.636 0 0 1-60.779-10.118c-18.346-8.16-34.87-20.541-49.114-36.8a173.206 173.206 0 0 1-31.564-53.272c-4.562-12.269-7.89-25.166-11.109-37.64-3.184-12.338-6.476-25.1-10.962-37.234-7.558-20.452-22.1-47.16-48.464-58.261-3.152-1.327-6.492-2.433-9.723-3.5-7.1-2.352-14.447-4.784-20.179-9.7-8.906-7.633-13.039-21.262-10.526-34.722 2-10.695 7.752-21.524 17.6-33.106a149.484 149.484 0 0 1 103.569-51.738c4.276-.258 8.638-.332 12.859-.4 7.646-.128 15.553-.263 23.216-1.5 13.786-2.233 24.736-8.183 30.849-16.758 4.29-6.019 6.322-13.33 8.286-20.4.905-3.26 1.842-6.632 2.99-9.845 5.094-14.262 15.038-26.708 28.761-35.993a88.139 88.139 0 0 1 44.4-14.905c29.508-1.463 60.481 11.239 84.974 34.849 20.22 19.491 36.116 45.65 48.6 79.971 3.375 9.278 6.477 19 9.479 28.392 10.67 33.412 21.7 67.962 47.4 91.549 6.98 6.407 15 11.914 22.765 17.238 11.81 8.105 24.024 16.484 32.631 28.143 9.881 13.389 14.181 30.907 12.105 49.326a84 84 0 0 1-21.464 47.438c-22.111 23.865-58.113 36.151-96.306 32.869-4.422-.38-8.957-.954-13.344-1.509-14.644-1.851-29.788-3.765-43.71 1.071-12.494 4.341-22.459 13.609-32.1 22.574-4.553 4.235-9.262 8.614-14.195 12.443a104.115 104.115 0 0 1-40.273 18.895ZM1502.8 229.35c-30.661 7.168-59.307 24.272-79.6 48.142-9.81 11.541-15.546 22.326-17.531 32.97-2.493 13.36 1.6 26.881 10.429 34.447 5.689 4.876 13 7.3 20.081 9.641 3.236 1.072 6.582 2.18 9.744 3.511 26.46 11.141 41.047 37.924 48.625 58.428 4.491 12.154 7.786 24.92 10.97 37.265 3.218 12.464 6.543 25.355 11.1 37.611 15.321 41.189 44.669 73.958 80.522 89.906 39.067 17.377 86.258 12.8 117.434-11.387 4.92-3.82 9.625-8.194 14.173-12.425 9.66-8.986 19.65-18.276 32.2-22.636 13.979-4.857 29.165-2.941 43.842-1.085 4.384.555 8.915 1.126 13.333 1.507 38.1 3.272 74.016-8.98 96.064-32.778 25.122-27.113 29.223-69.454 9.339-96.392-8.578-11.621-20.77-19.986-32.559-28.078-7.769-5.33-15.8-10.841-22.8-17.262-25.757-23.64-36.8-58.228-47.488-91.676-3-9.4-6.1-19.109-9.473-28.382-12.466-34.278-28.339-60.4-48.525-79.861-24.438-23.553-55.332-36.226-84.759-34.768-32.844 1.629-62.821 22.48-72.9 50.706-1.145 3.2-2.079 6.569-2.984 9.825-1.972 7.094-4.009 14.429-8.329 20.489-6.161 8.64-17.186 14.636-31.041 16.877-7.683 1.244-15.6 1.377-23.257 1.507-4.215.072-8.576.145-12.846.4a142.191 142.191 0 0 0-23.764 3.498Z" transform="translate(51.088 27.398)" fill="url(#F)"/></g></g><circle data-name="椭圆 1280" cx="42.416" cy="42.416" r="42.416" transform="translate(1732.991 566.103)" fill="url(#G)"/><circle data-name="椭圆 1281" cx="42.416" cy="42.416" r="42.416" transform="translate(1732.991 566.103)" opacity=".1"/></g></svg>