<svg xmlns="http://www.w3.org/2000/svg" width="100" height="100"><defs><clipPath id="a"><path data-name="矩形 4484" transform="translate(5334 12105)" fill="none" stroke="#707070" d="M0 0h100v100H0z"/></clipPath></defs><g data-name="蒙版组 143" transform="translate(-5334 -12105)" clip-path="url(#a)"><g data-name="组 5331"><path data-name="路径 14225" d="M5371.31 12150.828a13.655 13.655 0 1 0 13.655 13.655 13.616 13.616 0 0 0-13.655-13.655Zm0 22.345a8.69 8.69 0 1 1 8.69-8.69 8.636 8.636 0 0 1-8.69 8.69Z" fill="#37268b"/><path data-name="路径 14226" d="M5371.311 12174.414a9.931 9.931 0 1 1 9.931-9.931 9.96 9.96 0 0 1-9.931 9.931Zm0-17.38a7.448 7.448 0 1 0 7.448 7.448 7.47 7.47 0 0 0-7.448-7.447Z" fill="#b49243"/><path data-name="路径 14227" d="M5345.241 12150.828a2.483 2.483 0 0 1 4.966 0v7.448a2.483 2.483 0 0 1-4.966 0Z" fill="#37268b"/><path data-name="路径 14228" d="M5371.314 12179.379a14.9 14.9 0 1 1 14.9-14.9 14.941 14.941 0 0 1-14.9 14.9Zm0-27.311a12.414 12.414 0 1 0 12.411 12.418 12.45 12.45 0 0 0-12.411-12.417Z" fill="#b49243"/><path data-name="路径 14229" d="M5422.207 12130.965v47.176a3.724 3.724 0 1 1-7.448 0v-47.176a3.724 3.724 0 0 1 7.448 0Z" fill="#37268b"/><path data-name="路径 14230" d="M5350.207 12150.828v7.448l40.966 12.662v-32.772Z" fill="#7c71af"/><path data-name="路径 14231" d="M5391.173 12138.166v32.773l23.586 7.2v-47.173Z" fill="#37268b"/><g data-name="组 5148" fill="#b49243"><path data-name="路径 14232" d="M5414.759 12179.38h-.372l-64.553-19.863a1.422 1.422 0 0 1-.869-1.614 1.348 1.348 0 0 1 1.49-.869l63.063 19.366v-43.7l-62.939 19.369a1.22 1.22 0 1 1-.621-2.359l64.553-19.862a1 1 0 0 1 .993.124 1.533 1.533 0 0 1 .5.993v47.173a1.533 1.533 0 0 1-.5.993 1.764 1.764 0 0 1-.745.249Z"/><path data-name="路径 14233" d="M5347.724 12162.004a3.658 3.658 0 0 1-3.724-3.727v-7.448a3.658 3.658 0 0 1 3.724-3.725 3.658 3.658 0 0 1 3.724 3.724v7.448a3.658 3.658 0 0 1-3.724 3.728Zm0-12.414a1.173 1.173 0 0 0-1.241 1.241v7.448a1.173 1.173 0 0 0 1.241 1.241 1.173 1.173 0 0 0 1.241-1.241v-7.448a1.173 1.173 0 0 0-1.241-1.244Z"/><path data-name="路径 14234" d="M5418.484 12183.1a4.98 4.98 0 0 1-4.966-4.961v-47.173a4.966 4.966 0 0 1 9.931 0v47.173a4.98 4.98 0 0 1-4.965 4.961Zm0-54.621a2.49 2.49 0 0 0-2.483 2.483v47.173a2.483 2.483 0 0 0 4.966 0v-47.169a2.49 2.49 0 0 0-2.483-2.483Z"/></g></g></g></svg>