<svg xmlns="http://www.w3.org/2000/svg" width="73" height="73"><defs><clipPath id="a"><path data-name="矩形 4420" transform="translate(1337 13046)" fill="none" stroke="#707070" d="M0 0h73v73H0z"/></clipPath></defs><g data-name="蒙版组 137" transform="translate(-1337 -13046)" clip-path="url(#a)"><g data-name="组 5169"><path data-name="路径 14272" d="M1397.126 13072.927c13.272 17.517-36.152 31.402-41.582 26.261-8.33-7.888-2.086-24.355 13.51-36.671 6.432-5.08 18.266-2.534 28.072 10.41Z" fill="#594b9f"/><g transform="translate(1351 13064)" fill="none" stroke-linejoin="round" stroke-miterlimit="10" stroke-width="2"><path data-name="路径 14261" d="M2 2s13.206 13.123 19.95 13.02C29.552 14.9 42.921 2 42.921 2S31.644 13.858 29.9 22.8c-1.716 8.8-3.72 20.125-3.72 20.125l-3.72-14.88-5.58 14.88s-.744-15.147-1.86-20.46C13.4 14.752 2.719 3.226 2 2Z" stroke="#190f4b"/><ellipse data-name="椭圆 1269" cx="4.5" cy="5" rx="4.5" ry="5" transform="translate(18 2)" stroke="#fff"/></g></g></g></svg>