<svg xmlns="http://www.w3.org/2000/svg" width="73" height="73"><defs><clipPath id="a"><path data-name="矩形 4421" transform="translate(1436 13046)" fill="none" stroke="#707070" d="M0 0h73v73H0z"/></clipPath></defs><g data-name="蒙版组 138" transform="translate(-1436 -13046)" clip-path="url(#a)"><g data-name="组 5170"><path data-name="路径 14287" d="M1496.126 13071.927c13.272 17.517-36.152 31.402-41.582 26.261-8.33-7.888-2.086-24.355 13.51-36.671 6.432-5.08 18.266-2.534 28.072 10.41Z" fill="#594b9f"/><g fill="none" stroke-linecap="round" stroke-linejoin="round" stroke-miterlimit="10" stroke-width="2"><path data-name="路径 14279" d="M1453 13069.618v33.17a.877.877 0 0 0 .932.809h38.2" stroke="#190f4b"/><path data-name="路径 14280" d="M1458.591 13099.552h1.868a.877.877 0 0 0 .932-.809v-3.236a.877.877 0 0 0-.932-.809h-1.868a.877.877 0 0 0-.932.809v3.236a.877.877 0 0 0 .932.809Z" stroke="#fff"/><path data-name="路径 14281" d="M1466.977 13099.551h1.868a.877.877 0 0 0 .932-.809v-8.9a.877.877 0 0 0-.932-.808h-1.868a.877.877 0 0 0-.932.809v8.9a.877.877 0 0 0 .932.808Z" stroke="#fff"/><path data-name="路径 14282" d="M1475.364 13099.551h1.868a.877.877 0 0 0 .932-.809v-14.562a.877.877 0 0 0-.932-.809h-1.868a.877.877 0 0 0-.932.809v14.562a.877.877 0 0 0 .932.809Z" stroke="#fff"/><path data-name="路径 14283" d="M1483.75 13099.551h1.868a.877.877 0 0 0 .932-.809v-20.225a.877.877 0 0 0-.932-.809h-1.868a.877.877 0 0 0-.932.809v20.225a.877.877 0 0 0 .932.809Z" stroke="#fff"/><path data-name="路径 14284" d="M1457.659 13084.989s13.2-1.887 27.955-16.18" stroke="#190f4b"/><path data-name="路径 14285" d="M1481.886 13068h4.659v4.045" stroke="#190f4b"/></g></g></g></svg>