<svg xmlns="http://www.w3.org/2000/svg" width="73" height="73"><defs><clipPath id="a"><path data-name="矩形 4418" transform="translate(1126 13046)" fill="none" stroke="#707070" d="M0 0h73v73H0z"/></clipPath></defs><g data-name="蒙版组 135" transform="translate(-1126 -13046)" clip-path="url(#a)"><g data-name="组 5167"><path data-name="路径 14286" d="M1185.126 13071.927c13.272 17.517-36.152 31.402-41.582 26.261-8.33-7.888-2.086-24.355 13.51-36.671 6.432-5.08 18.266-2.534 28.072 10.41Z" fill="#594b9f"/><g transform="translate(1141 13066.023)" fill="none" stroke-linecap="round" stroke-linejoin="round" stroke-miterlimit="10" stroke-width="2"><path data-name="路径 14277" d="M38.3 37.977H2.7a1.7 1.7 0 0 1-1.7-1.7v-23.73a1.7 1.7 0 0 1 1.7-1.7h35.6a1.7 1.7 0 0 1 1.7 1.7v23.735a1.7 1.7 0 0 1-1.7 1.695Z" stroke="#190f4b"/><ellipse data-name="椭圆 1274" cx="4.5" cy="4" rx="4.5" ry="4" transform="translate(6 14.977)" stroke="#190f4b"/><path data-name="路径 14278" d="M15.413 32.89H5.239v-3.391a5.087 5.087 0 0 1 5.087-5.087h0a5.087 5.087 0 0 1 5.087 5.087Z" stroke="#190f4b"/><path data-name="直线 311" stroke="#fff" d="M21 16.977h5"/><path data-name="直线 312" stroke="#fff" d="M21 21.977h13"/><path data-name="直线 313" stroke="#fff" d="M21 26.977h13"/><path data-name="直线 314" stroke="#fff" d="M21 31.977h13"/><ellipse data-name="椭圆 1275" cx="3.5" cy="3" rx="3.5" ry="3" transform="translate(17 3.977)" stroke="#190f4b"/></g></g></g></svg>