<svg xmlns="http://www.w3.org/2000/svg" width="73" height="73"><defs><clipPath id="a"><path data-name="矩形 4416" transform="translate(919 13046)" fill="none" stroke="#707070" d="M0 0h73v73H0z"/></clipPath></defs><g data-name="蒙版组 133" transform="translate(-919 -13046)" clip-path="url(#a)"><g data-name="组 5165"><path data-name="路径 14269" d="M979.126 13071.927c13.272 17.517-36.152 31.402-41.582 26.261-8.33-7.888-2.086-24.355 13.51-36.671 6.432-5.08 18.266-2.534 28.072 10.41Z" fill="#594b9f"/><path data-name="路径 14257" d="M955.246 13065.933c-2.125 0-4 1.7-5.139 3.523h10.278c-1.139-1.827-3.014-3.523-5.139-3.523Z" fill="none" stroke="#fff" stroke-linejoin="round" stroke-miterlimit="10" stroke-width="2"/><path data-name="路径 14258" d="M965.032 13072.198c-.039-.065 2.017-4.036 5.748-3.653 5.761.588 6.595 22.167-13.773 28.206" fill="none" stroke="#190f4b" stroke-linecap="round" stroke-linejoin="round" stroke-miterlimit="10" stroke-width="2"/><path data-name="路径 14259" d="M945.398 13072.197c.04-.064-2.036-3.959-5.748-3.653-5.771.471-6.912 22.166 13.455 28.2" fill="none" stroke="#190f4b" stroke-linecap="round" stroke-linejoin="round" stroke-miterlimit="10" stroke-width="2"/><path data-name="直线 302" fill="none" stroke="#fff" stroke-linecap="round" stroke-linejoin="round" stroke-miterlimit="10" stroke-width="2" d="M953.418 13096.87v5.483"/><path data-name="直线 303" fill="none" stroke="#fff" stroke-linecap="round" stroke-linejoin="round" stroke-miterlimit="10" stroke-width="2" d="M957.073 13096.87v5.483"/><path data-name="路径 14260" d="M960.728 13106.921h-10.965v-1.79a2.779 2.779 0 0 1 2.779-2.779h5.406a2.779 2.779 0 0 1 2.779 2.779Z" fill="none" stroke="#190f4b" stroke-linecap="round" stroke-linejoin="round" stroke-miterlimit="10" stroke-width="2"/><g data-name="组 5160"><path data-name="路径 14256" d="M964.952 13072.198h-19.376a19.162 19.162 0 0 0-2.173 9.015c0 8.647 5.311 15.657 11.861 15.657s11.861-7.01 11.861-15.657a19.162 19.162 0 0 0-2.173-9.015Z" fill="none" stroke="#fff" stroke-linejoin="round" stroke-miterlimit="10" stroke-width="2"/></g></g></g></svg>