<svg xmlns="http://www.w3.org/2000/svg" width="73" height="73"><defs><clipPath id="a"><path data-name="矩形 4417" transform="translate(1024 13046)" fill="none" stroke="#707070" d="M0 0h73v73H0z"/></clipPath></defs><g data-name="蒙版组 134" transform="translate(-1024 -13046)" clip-path="url(#a)"><g data-name="组 5166"><path data-name="路径 14271" d="M1084.126 13069.927c13.272 17.517-36.152 31.402-41.582 26.261-8.33-7.888-2.086-24.355 13.51-36.671 6.432-5.08 18.266-2.534 28.072 10.41Z" fill="#594b9f"/><g data-name="组 5163" fill="none" stroke-linecap="round" stroke-linejoin="round" stroke-miterlimit="10" stroke-width="2"><path data-name="直线 307" stroke="#fff" d="M1056.606 13079.814v25.398"/><path data-name="直线 308" stroke="#fff" d="M1064.421 13079.814v25.398"/><path data-name="直线 309" stroke="#190f4b" d="M1054.653 13071.022v8.792"/><path data-name="直线 310" stroke="#190f4b" d="M1066.375 13071.022v8.792"/><path data-name="路径 14274" d="M1060.514 13071.022a7.531 7.531 0 0 1 5.861-7.81c6.433-1.758 8.351 8.2-5.861 7.81Z" stroke="#fff"/><path data-name="路径 14275" d="M1061.477 13071.022a7.531 7.531 0 0 0-5.861-7.81c-6.433-1.758-8.351 8.2 5.861 7.81Z" stroke="#fff"/><path data-name="路径 14276" d="M1074.19 13105.213h-27.352a3.907 3.907 0 0 1-3.907-3.909v-21.491h35.167v21.491a3.907 3.907 0 0 1-3.908 3.909Z" stroke="#190f4b"/><path data-name="矩形 4415" stroke="#190f4b" d="M1040 13071.021h41.028v8.792H1040z"/></g></g></g></svg>