<svg xmlns="http://www.w3.org/2000/svg" width="73" height="73"><defs><clipPath id="a"><path data-name="矩形 4419" transform="translate(1231 13046)" fill="none" stroke="#707070" d="M0 0h73v73H0z"/></clipPath></defs><g data-name="蒙版组 136" transform="translate(-1231 -13046)" clip-path="url(#a)"><g data-name="组 5168"><path data-name="路径 14270" d="M1290.126 13071.927c13.272 17.517-36.152 31.402-41.582 26.261-8.33-7.888-2.086-24.355 13.51-36.671 6.432-5.08 18.266-2.534 28.072 10.41Z" fill="#594b9f"/><g data-name="组 5162" transform="translate(1247 13069)" fill="none" stroke-linecap="round" stroke-linejoin="round" stroke-miterlimit="10" stroke-width="2"><path data-name="路径 14266" d="M38.589 16.154v15.07A3.776 3.776 0 0 1 34.813 35H4.673a3.776 3.776 0 0 1-3.776-3.776v-15.07" stroke="#190f4b"/><ellipse data-name="椭圆 1273" cx="2" cy="1.5" rx="2" ry="1.5" transform="translate(18 11)" stroke="#fff"/><path data-name="路径 14267" d="M14.359 3.59V1.864A1.864 1.864 0 0 1 16.223 0h7.036a1.864 1.864 0 0 1 1.864 1.864V3.59" stroke="#fff"/><path data-name="路径 14268" d="m39.487 15.256-17.875 4.875a7.1 7.1 0 0 1-3.738 0L0 15.256V6.282a1.8 1.8 0 0 1 1.795-1.795h35.9a1.8 1.8 0 0 1 1.795 1.795Z" stroke="#190f4b"/></g></g></g></svg>