<svg xmlns="http://www.w3.org/2000/svg" width="25.915" height="31.593"><defs><linearGradient id="a" x1=".5" x2=".5" y2="1" gradientUnits="objectBoundingBox"><stop offset="0" stop-color="#aa8952"/><stop offset="1" stop-color="#554529"/></linearGradient></defs><g data-name="组 7831"><path data-name="路径 19253" d="M491.66 508.9v26.307l12.958 5.286 12.958-5.286V508.9Z" transform="translate(-491.659 -508.904)" fill="url(#a)"/><path data-name="路径 19254" d="m12.844 28.341-.089-.038-9.9-4.189V3.178h19.98v20.933Zm-9.533-4.53 9.534 4.033 9.532-4.033V3.635H3.311Z" fill="#fff"/><path data-name="路径 19257" d="M9.294 11.31a3.3 3.3 0 0 1 1.14-2.5 4.22 4.22 0 0 1 2.79-.882 4.553 4.553 0 0 1 2.022.412 2.968 2.968 0 0 1 1.27 1.116 3 3 0 0 1 .428 1.595 2.8 2.8 0 0 1-.526 1.723 2.576 2.576 0 0 1-1.254.946v.065a2.719 2.719 0 0 1 1.465 1.035 3.232 3.232 0 0 1 .526 1.909 3.363 3.363 0 0 1-.445 1.731 3.027 3.027 0 0 1-1.306 1.188 4.641 4.641 0 0 1-2.083.428 4.607 4.607 0 0 1-2.976-.922 3.448 3.448 0 0 1-1.213-2.717h2.2a1.762 1.762 0 0 0 .542 1.27 1.966 1.966 0 0 0 1.4.477 1.683 1.683 0 0 0 1.27-.461 1.641 1.641 0 0 0 .445-1.189 1.563 1.563 0 0 0-.615-1.391 3.429 3.429 0 0 0-1.91-.42h-.469v-1.858h.469q2.3 0 2.3-1.537a1.416 1.416 0 0 0-.412-1.084 1.671 1.671 0 0 0-1.189-.388 1.586 1.586 0 0 0-1.176.409 1.667 1.667 0 0 0-.477 1.043Z" fill="#fff"/></g></svg>