<svg xmlns="http://www.w3.org/2000/svg" viewBox="0 0 28 28"><defs><style>.cls-2{fill:#172d72}.cls-4{fill:#5b62e8}</style></defs><g id="图层_2" data-name="图层 2"><g id="icon"><path style="fill:none" d="M0 0h28v28H0z"/><path class="cls-2" d="M20.29 15.72a1 1 0 0 1-.76-.35c-.24-.28-.5-.58-.8-.88C15.54 11.3 10.2 8.6 7.07 8.6c-.76 0-1.3.16-1.47.45A1 1 0 0 1 3.88 8c.39-.62 1.26-1.4 3.19-1.4 3.7 0 9.44 2.84 13.07 6.48.34.34.64.67.91 1a1 1 0 0 1-.76 1.64z"/><rect x="7.41" y="8" width="11.92" height="11.94" rx="5.62" style="fill:#e2e5ee"/><circle class="cls-4" cx="4.86" cy="8" r="2"/><circle class="cls-4" cx="21.87" cy="19" r="3"/><path class="cls-2" d="M19.54 21c-3.7 0-9.44-2.85-13.07-6.48-.37-.38-.71-.76-1.09-1.22A1 1 0 0 1 6.94 12a12.6 12.6 0 0 0 .94 1.06c3.2 3.2 8.54 5.9 11.66 5.9a1.86 1.86 0 0 0 1.46-.41 1 1 0 1 1 1.65 1.12A3.45 3.45 0 0 1 19.54 21z"/></g></g></svg>