<svg xmlns="http://www.w3.org/2000/svg" viewBox="0 0 28 28"><defs><style>.cls-1{fill:none}</style></defs><g id="图层_2" data-name="图层 2"><g id="icon"><path class="cls-1" d="M0 0h28v28H0z"/><path style="fill:#5b62e8" d="m19.82 18.45-.01.01L13.99 8.3 5.98 22.29 5 24h3.93l2.2-3.84h-.01l2.87-5L19.05 24l.02-.01V24H23l-3.18-5.55z"/><path class="cls-1" d="M17.49 15.22a1.41 1.41 0 0 1 .61-.33 1.34 1.34 0 0 1 .67-1.18 1.5 1.5 0 0 1 0-.7 1.34 1.34 0 0 1 .35-.6 1.36 1.36 0 0 1 0-1.35 1.29 1.29 0 0 1-.35-.6 1.51 1.51 0 0 1 0-.7 1.35 1.35 0 0 1-.49-.49 1.32 1.32 0 0 1-.18-.69 1.41 1.41 0 0 1-.61-.33 1.32 1.32 0 0 1-.33-.6 1.46 1.46 0 0 1-.69-.19A1.35 1.35 0 0 1 16 7a1.28 1.28 0 0 1-.7 0 1.34 1.34 0 0 1-.6-.35 1.36 1.36 0 0 1-1.35 0A1.34 1.34 0 0 1 12 7a1.28 1.28 0 0 1-.49.49 1.43 1.43 0 0 1-.69.19 1.23 1.23 0 0 1-.93.93 1.43 1.43 0 0 1-.19.69 1.35 1.35 0 0 1-.49.49 1.34 1.34 0 0 1-.35 1.3 1.36 1.36 0 0 1 0 1.35 1.34 1.34 0 0 1 .35.6 1.28 1.28 0 0 1 0 .7 1.35 1.35 0 0 1 .49.49 1.46 1.46 0 0 1 .19.69 1.32 1.32 0 0 1 .6.33 1.41 1.41 0 0 1 .33.61 1.32 1.32 0 0 1 .69.18 1.28 1.28 0 0 1 .49.49 1.51 1.51 0 0 1 .7 0 1.38 1.38 0 0 1 .6.35 1.36 1.36 0 0 1 1.35 0 1.44 1.44 0 0 1 .6-.35 1.5 1.5 0 0 1 .7 0 1.34 1.34 0 0 1 1.18-.67 1.41 1.41 0 0 1 .36-.64z"/><path d="M21.74 11.74a1.39 1.39 0 0 0-.39-1 1.38 1.38 0 0 0 .13-1 1.4 1.4 0 0 0-.63-.83 1.43 1.43 0 0 0-.14-1 1.41 1.41 0 0 0-.83-.65 1.38 1.38 0 0 0-1.36-1.36 1.42 1.42 0 0 0-.65-.9 1.39 1.39 0 0 0-1-.15 1.4 1.4 0 0 0-.87-.59 1.44 1.44 0 0 0-1 .13 1.39 1.39 0 0 0-1.93 0 1.43 1.43 0 0 0-1-.13 1.4 1.4 0 0 0-.83.63 1.39 1.39 0 0 0-1 .15 1.36 1.36 0 0 0-.64.82 1.4 1.4 0 0 0-1.47 1.36 1.42 1.42 0 0 0-.82.65 1.39 1.39 0 0 0-.15 1 1.4 1.4 0 0 0-.63.83 1.43 1.43 0 0 0 .13 1 1.39 1.39 0 0 0 0 1.93 1.44 1.44 0 0 0-.13 1 1.4 1.4 0 0 0 .63.83 1.39 1.39 0 0 0 .15 1 1.42 1.42 0 0 0 .82.65 1.39 1.39 0 0 0 .41 1 1.41 1.41 0 0 0 1 .4 1.35 1.35 0 0 0 .64.83 1.43 1.43 0 0 0 1 .14 1.4 1.4 0 0 0 .83.63 1.38 1.38 0 0 0 1-.13 1.39 1.39 0 0 0 1.93 0 1.39 1.39 0 0 0 1.87-.5 1.43 1.43 0 0 0 1-.14 1.41 1.41 0 0 0 .65-.83 1.37 1.37 0 0 0 1.36-1.36 1.41 1.41 0 0 0 .83-.65 1.43 1.43 0 0 0 .14-1 1.39 1.39 0 0 0 .5-1.87 1.39 1.39 0 0 0 .45-.89zM16.47 16a1.35 1.35 0 0 0-.49.49 1.5 1.5 0 0 0-.7 0 1.44 1.44 0 0 0-.6.35 1.36 1.36 0 0 0-1.35 0 1.38 1.38 0 0 0-.6-.35 1.51 1.51 0 0 0-.7 0 1.28 1.28 0 0 0-.49-.49 1.32 1.32 0 0 0-.69-.18 1.41 1.41 0 0 0-.33-.61 1.32 1.32 0 0 0-.6-.33 1.46 1.46 0 0 0-.19-.69 1.35 1.35 0 0 0-.49-.49 1.28 1.28 0 0 0 0-.7 1.34 1.34 0 0 0-.35-.6 1.36 1.36 0 0 0 0-1.35 1.34 1.34 0 0 0 .35-1.3 1.35 1.35 0 0 0 .49-.49 1.43 1.43 0 0 0 .19-.69 1.23 1.23 0 0 0 .93-.93 1.43 1.43 0 0 0 .69-.19A1.28 1.28 0 0 0 12 7a1.34 1.34 0 0 0 1.3-.35 1.36 1.36 0 0 0 1.35 0 1.34 1.34 0 0 0 .6.35A1.28 1.28 0 0 0 16 7a1.35 1.35 0 0 0 .49.49 1.46 1.46 0 0 0 .69.19 1.32 1.32 0 0 0 .33.6 1.41 1.41 0 0 0 .61.33 1.32 1.32 0 0 0 .18.69 1.35 1.35 0 0 0 .49.49 1.51 1.51 0 0 0 0 .7 1.29 1.29 0 0 0 .35.6 1.36 1.36 0 0 0 0 1.35 1.34 1.34 0 0 0-.35.6 1.5 1.5 0 0 0 0 .7 1.34 1.34 0 0 0-.67 1.18 1.21 1.21 0 0 0-.94.94 1.34 1.34 0 0 0-.71.14z" style="fill:#172d72"/><circle cx="14.01" cy="11.74" r="5.74" style="fill:#e2e5ee"/></g></g></svg>