<?xml version="1.0" encoding="utf-8"?>
<!-- Generator: Adobe Illustrator 25.2.1, SVG Export Plug-In . SVG Version: 6.00 Build 0)  -->
<svg version="1.1" id="aff82094-dd84-4d6a-a3ba-e579cac0668b"
	 xmlns="http://www.w3.org/2000/svg" xmlns:xlink="http://www.w3.org/1999/xlink" x="0px" y="0px" viewBox="0 0 624.4 614.2"
	 style="enable-background:new 0 0 624.4 614.2;" xml:space="preserve">
<style type="text/css">
	.st0{fill:#3F3D56;}
	.st1{fill:#2F2E41;}
	.st2{fill:#FFB8B8;}
	.st3{fill:#6C63FF;}
	.st4{fill:#A0616A;}
	.st5{fill:#CCCCCC;}
	.st6{opacity:0.7;}
	.st7{opacity:0.7;fill:#3F3D56;}
	.st8{fill:none;stroke:#3F3D56;stroke-width:2;stroke-miterlimit:10;}
	.st9{opacity:0.3;fill:#3F3D56;}
	.st10{opacity:0.5;fill:#3F3D56;}
	.st11{opacity:0.5;fill:#6C63FF;}
	.st12{opacity:0.71;fill:#3F3D56;}
	.st13{fill:#E30C34;}
	.st14{fill:#FFFFFF;}
</style>
<g>
	<path class="st0" d="M426.9,239.3H197.6c-1.8,0-3.3,1.5-3.3,3.3V398c0,1.8,1.5,3.3,3.3,3.3h229.3c1,0,1.9-0.4,2.5-1.2
		c0,0,0.1-0.1,0.1-0.1c0.2-0.2,0.4-0.5,0.5-0.8c0.2-0.4,0.3-0.8,0.2-1.3V242.6C430.2,240.8,428.7,239.3,426.9,239.3z M429.2,398
		c0,0.5-0.1,0.9-0.4,1.3c-0.2,0.3-0.5,0.6-0.9,0.8c-0.3,0.2-0.7,0.3-1.1,0.3H197.6c-1.3,0-2.4-1.1-2.4-2.4V242.6
		c0-1.3,1.1-2.4,2.4-2.4h229.3c1.3,0,2.4,1.1,2.4,2.4V398z"/>
	<rect x="194.8" y="252.5" class="st0" width="234.9" height="0.9"/>
	<circle class="st0" cx="202.8" cy="246.4" r="2.8"/>
	<circle class="st0" cx="210.9" cy="246.4" r="2.8"/>
	<circle class="st0" cx="219" cy="246.4" r="2.8"/>
	<path class="st1" d="M298.9,332.6c-2.8-1.8-4.2-6.1-3.5-10c0.7-3.9,3.3-7.3,6.4-8.7c3.1-1.4,6.7-1.1,9.5,0.7
		c2.9,1.8,6.9,2.7,8.3,6.2c1,2.7-0.3,8.2-1.7,10.8c-1.2,2.3-3.5,3.3-5.7,3.7c-4.9,1-9.9-0.2-13.8-3.2L298.9,332.6z"/>
	<polygon class="st2" points="297.4,353.3 295.2,357.2 294.9,357.7 294.4,358.5 287.8,358.5 288.2,357.7 289.4,355.8 292.1,351.2 
		295.2,352.4 	"/>
	<path class="st1" d="M287.3,358.5l-1.2-0.8l-0.2-0.1l7.6-13.9c0.7-1.2,1.8-2.1,3.1-2.5c0.8-0.2,1.7-0.3,2.6-0.1
		c0.5,0.1,1,0.3,1.4,0.5c0.2,0.1,0.4,0.2,0.5,0.3c0.6,0.5,1.2,1.1,1.5,1.7c0.9,1.7,0.8,3.7-0.2,5.3l-2.9,4.7l-2.5,4l-0.5,0.8
		L287.3,358.5L287.3,358.5z"/>
	<circle class="st2" cx="306.9" cy="328.2" r="9.3"/>
	<path class="st3" d="M316.2,358.5h-20.9l0.1-0.3c-0.1-0.2-0.1-0.3-0.1-0.5c0-0.2-0.1-0.3-0.1-0.5c-0.3-1.6-0.3-3.2,0-4.8
		c1.2-5.7,5.7-10.3,5.7-10.3c0.1-0.1,0.2-0.1,0.2-0.2c0.7-0.5,1.4-0.9,2.2-1.2c3.4-1.4,7-0.8,9.4-0.1c0.8,0.3,1.7,0.6,2.5,0.9
		c0.3,0.1,0.4,0.2,0.4,0.2l0.2,7.3l0.3,8.7L316.2,358.5z"/>
	<path class="st1" d="M325.9,357.7l-1.6-8.1l-1.6-8.2c-0.1-0.7-0.7-1.2-1.4-1.3l-3.4-0.6l-3.1-0.5c-0.6-0.1-1.2,0.1-1.6,0.6
		c-0.2,0.3-0.4,0.7-0.4,1c0,0.2,0,0.5,0.1,0.7c1.6,3.8,1.7,9.9,1.3,16.4c0,0.2,0,0.5-0.1,0.8H326L325.9,357.7z"/>
	<path class="st1" d="M303.4,340.7c-0.2-0.9-1.2-1.5-2.1-1.2c-0.2,0.1-0.4,0.2-0.6,0.3l-1.4,1.3l-5.9,5.4c-0.2,0.2-0.3,0.4-0.4,0.6
		c-0.7,1.6-2,4.8-3.5,8.6c-0.2,0.6-0.5,1.3-0.8,2c-0.1,0.2-0.2,0.5-0.3,0.8h9.8c0.1-0.3,0.2-0.5,0.2-0.8c0.4-1.4,0.9-2.7,1.3-4
		c1.2-3.8,2.3-7.2,3.1-10c0.2-0.8,0.4-1.5,0.6-2.1C303.4,341.3,303.4,341,303.4,340.7z"/>
	<polygon class="st2" points="328.1,358.5 328.7,358.5 328.6,358.3 328.4,357.7 324.8,349.3 324.3,349.6 319.9,352.3 322.1,357.7 
		322.4,358.5 326,358.5 	"/>
	<path class="st1" d="M324.4,342.6c-1-2.6-3.9-4-6.5-3.1c-0.2,0.1-0.3,0.1-0.5,0.2c-0.9,0.4-1.7,1-2.2,1.9c-0.2,0.3-0.4,0.7-0.5,1
		c-0.5,1.3-0.5,2.7,0.1,4l1.1,2.4l3.9,8.7l0.3,0.8h7.9l0.5-0.2l1.4-0.5l0.2-0.1L324.4,342.6z"/>
	<path class="st1" d="M314.2,317.6c0.7,0.2,1.4-0.1,1.7-0.7c0.3-0.6,0.4-1.3,0.1-1.9c-0.3-0.6-0.7-1.2-1.2-1.6
		c-0.6-0.5-1.3-0.9-2.1-1.1c-0.8-0.2-1.6,0-2.3,0.5c-0.6,0.5-0.9,1.4-0.7,2.2c0.2,0.7,0.9,1.2,1.5,1.5c1.3,0.7,2.7,1.1,4.2,1.2
		L314.2,317.6z"/>
	<path class="st1" d="M316,327.9c-1.5,0.2-1.3-0.6-1.9-1.9s-1.4-3-2.9-3.2c-1.2-0.1-2.2,0.9-3.2,1.6c-1.8,1.3-4.2,1.9-6.2,1.2
		c-2.1-0.8-3.5-3.2-2.7-5.3c0.5-1.1,1.4-2,2.6-2.5c1.2-0.4,2.4-0.6,3.6-0.5c2.7,0.1,5.4,0.8,7.9,2c1.7,0.9,3.3,2.1,4,3.9
		c0.6,1.8,1.1,4.3-0.8,4.8L316,327.9z"/>
	<path class="st1" d="M313.4,312.7c-0.7-1.3-0.1-3,1.1-3.9s2.8-0.9,4.3-0.6c2.9,0.7,5.2,2.9,6,5.8c0.6,2.2,0.2,4.7,0.8,6.9
		c1.1,4.9,6,8,10.9,6.8c0.2,0,0.4-0.1,0.5-0.1c1.5-0.5,3.1-1.6,3.3-3.2c0.3,3.8-1.8,7.4-5.3,8.9c-2,0.8-4.2,0.9-6.4,0.8
		c-1.4,0-2.9-0.1-4.2-0.7c-1.8-0.8-3.2-2.4-3.9-4.2c-0.7-1.9-0.8-3.9-0.5-5.8c0.2-1.5,0.6-3,0.8-4.5s-0.1-3.2-1.1-4.4
		c-0.9-1.2-2.7-1.8-4.1-1.1c-0.5,0.3-1,0.8-1.6,1s-1.4-0.1-1.4-0.8L313.4,312.7z"/>
	<path class="st3" d="M376.7,358.5l0.1-0.8l2.1-22.2c0.7-0.5,1.4-1,2.2-1.4c4.4-2.2,8.6-1.2,10.9-0.2c0.6,0.2,1.2,0.5,1.8,0.9
		l1.2,23l0,0.8H376.7z"/>
	<ellipse transform="matrix(0.1602 -0.9871 0.9871 0.1602 8.5168 650.7744)" class="st2" cx="386.7" cy="320.4" rx="9.3" ry="9.3"/>
	<path class="st1" d="M394.2,326c1.9-2,1.8-5.2-0.2-7.1c-1-0.9-2.3-1.4-3.6-1.4c-1.3,0-2.5,0.6-3.7,1c-1.9,0.6-3.8,0.8-5.8,0.5
		c-1.9-0.3-3.7-1.3-4.9-2.9c-1.1-1.6-1.5-3.8-0.7-5.5c0.9-2,3.1-3.2,5.2-4.1c0.8-0.4,1.7-0.7,2.6-0.9c0.9-0.2,1.9,0.1,2.6,0.7
		c0.6,0.5,0.9,1.2,1.5,1.7c0.7,0.5,1.6,0.5,2.5,0.6c5.2,0.5,9,5.2,8.5,10.4c-0.3,2.7-1.7,5.2-3.9,6.8L394.2,326z"/>
	<path class="st1" d="M382.6,338l-1.4-3.8l-0.1-0.2c-0.1-0.4-0.6-0.6-1-0.5c-0.1,0-0.1,0.1-0.2,0.1l-1.6,1c0,0-10.1,0-10.9,6
		c0,0.1,0,0.2,0,0.3c0,0,0,0,0,0c-0.1,0.4-2,7.7-3.6,16.8c0,0.2-0.1,0.5-0.1,0.8h21.9v0C386.2,349.4,385.8,340.9,382.6,338z"/>
	<path class="st1" d="M408.6,357.7c-1.2-9.3-2.9-16.8-2.9-16.8c0-0.1,0-0.2,0-0.3c-0.8-6-10.9-6-10.9-6l-1.6-1
		c-0.4-0.2-0.9-0.1-1.1,0.2c0,0.1-0.1,0.1-0.1,0.2l-1.5,4.1c-3.3,2.9-3.7,11.4-3,20.5l0,0h21.1C408.7,358.2,408.7,358,408.6,357.7z"
		/>
	<path class="st3" d="M231.5,336.5l-2.2,21.2l-0.1,0.8h-6.1c0.1-0.2,0.1-0.5,0.2-0.8c1.7-5.9,4.1-14.5,3.8-16.8
		c-0.4-3.6,2.4-4.8,2.4-4.8l0.2,0L231.5,336.5z"/>
	<circle class="st4" cx="241.3" cy="320.7" r="9.3"/>
	<path class="st3" d="M253.3,354c-0.5,0.9-0.9,1.8-1.1,2.7c-0.1,0.3-0.2,0.7-0.3,1c-0.1,0.2-0.1,0.5-0.2,0.8h-24.5
		c0-0.2,0.1-0.5,0.1-0.8c1.3-9.9,2.3-19.9,2.4-21.5c0-0.2,0-0.2,0-0.2c14.7-7.7,25.4,2.4,25.4,2.4s0,0.1,0,0.2
		C255.3,340,256.5,348.2,253.3,354z"/>
	<path class="st3" d="M252.1,356.7l-1.6-3.5l0.4-13.9l4.2-0.8l0.1,0c2.2,1.3,3.9,3.2,4.8,5.6c0.8,2,2.4,8.2,3.7,13.6
		c0.1,0.3,0.1,0.5,0.2,0.8H253l-0.4-0.8L252.1,356.7z"/>
	<path class="st0" d="M267,296.2h-53.6c-2.4,0-4.3,1.9-4.3,4.3v53.6c0,2.4,1.9,4.3,4.3,4.3H267c2.4,0,4.3-1.9,4.3-4.3v-53.6
		C271.4,298.1,269.4,296.2,267,296.2z M270.6,354.1c0,2-1.6,3.6-3.6,3.6h-53.6c-2,0-3.6-1.6-3.6-3.6v-53.6c0-2,1.6-3.6,3.6-3.6H267
		c2,0,3.6,1.6,3.6,3.6V354.1z M229.2,357.7l-0.1,0.8h22.5c0.1-0.3,0.1-0.5,0.2-0.8H229.2z"/>
	<path class="st0" d="M339,296.2h-53.6c-2.4,0-4.3,1.9-4.3,4.3v53.6c0,2.4,1.9,4.3,4.3,4.3H339c2.4,0,4.3-1.9,4.3-4.3v-53.6
		C343.4,298.1,341.4,296.2,339,296.2z M342.6,354.1c0,2-1.6,3.6-3.6,3.6h-53.6c-2,0-3.6-1.6-3.6-3.6v-53.6c0-2,1.6-3.6,3.6-3.6H339
		c2,0,3.6,1.6,3.6,3.6V354.1z M295.3,357.7c0,0.2,0.1,0.3,0.1,0.5l-0.1,0.3h18.8c0-0.3,0-0.5,0.1-0.8H295.3z"/>
	<path class="st0" d="M411,296.2h-53.6c-2.4,0-4.3,1.9-4.3,4.3v53.6c0,2.4,1.9,4.3,4.3,4.3H411c2.4,0,4.3-1.9,4.3-4.3v-53.6
		C415.4,298.1,413.4,296.2,411,296.2z M414.6,354.1c0,2-1.6,3.6-3.6,3.6h-53.6c-2,0-3.6-1.6-3.6-3.6v-53.6c0-2,1.6-3.6,3.6-3.6H411
		c2,0,3.6,1.6,3.6,3.6V354.1z M385.6,357.7c0,0.2,0,0.5-0.1,0.8h16.3c0-0.2,0.1-0.5,0.1-0.8H385.6z"/>
	<path class="st5" d="M374.5,380.4H249.9c-1.7,0-3-1.4-3-3s1.4-3,3-3h124.6c1.7,0,3,1.4,3,3S376.2,380.4,374.5,380.4z"/>
	<path class="st3" d="M339.6,280.3h-54.8c-1.7,0-3-1.4-3-3s1.4-3,3-3h54.8c1.7,0,3,1.4,3,3S341.3,280.3,339.6,280.3z"/>
	<path class="st1" d="M245.7,328.8c0.6,0.6,1.7,0.7,2.4,0.2c2.2-1.6,4.1-3.6,5.2-6.1c1.3-2.8,1.4-6.3-0.1-9c-1.3-2.3-3.7-3.7-6-4.9
		c-0.9-0.5-1.9-0.9-2.9-1.1c-1-0.2-2.1-0.1-3,0.5c-0.9,0.6-1.4,1.6-1.2,2.7c-1.1-1.3-2.6-2.2-4.2-2.8c-1-0.4-2.1-0.5-3.2-0.2
		c-1.5,0.4-2.6,1.7-3.2,3.2c-0.5,1.1-0.6,2.3-0.5,3.4c0.2,1.2,0.8,2.2,1.8,2.9c1.2,0.8,2.8,0.7,4.2,0.4s2.8-0.8,4.2-1
		c1.4-0.1,3,0.2,3.9,1.4c0.6,0.8,0.8,1.9,0.9,2.9l0.7,5.2c0.1,0.8,0.3,1.5,0.6,2.2C245.6,328.6,245.6,328.7,245.7,328.8z"/>
</g>
<g class="st6">
	<rect x="348.4" y="401.3" class="st7" width="0.6" height="22"/>
	<rect x="347.5" y="427.9" class="st7" width="48.5" height="0.6"/>
	<rect x="326.9" y="436.4" class="st0" width="0.6" height="26.6"/>
	<rect x="332.5" y="467.6" class="st0" width="73.5" height="0.6"/>
	<path class="st8" d="M411,463"/>
	<path class="st8" d="M411,437.3"/>
	<rect x="466.6" y="329.2" class="st9" width="0.6" height="31.6"/>
	<rect x="429.2" y="365.7" class="st10" width="32.7" height="0.6"/>
	<rect x="410.7" y="400.3" class="st7" width="0.6" height="12.6"/>
	<path class="st0" d="M327.5,473.3c-2.9,0-5.3-2.4-5.3-5.3s2.4-5.3,5.3-5.3s5.3,2.4,5.3,5.3l0,0
		C332.8,470.9,330.4,473.3,327.5,473.3z M327.5,463.3c-2.6,0-4.7,2.1-4.7,4.7c0,2.6,2.1,4.7,4.7,4.7s4.7-2.1,4.7-4.7l0,0
		C332.2,465.4,330.1,463.3,327.5,463.3z"/>
	<circle class="st3" cx="349.1" cy="428.3" r="5"/>
	<rect x="478.2" y="388.6" class="st10" width="51.9" height="0.6"/>
	<rect x="472.9" y="393.8" class="st7" width="0.6" height="29.4"/>
	<rect x="426.3" y="427.9" class="st7" width="41.6" height="0.6"/>
	<rect x="499.4" y="430.8" class="st10" width="43.1" height="0.6"/>
	<rect x="494.4" y="436.4" class="st0" width="0.6" height="26.6"/>
	<rect x="416" y="467.6" class="st0" width="73.5" height="0.6"/>
	<rect x="410.7" y="443.6" class="st0" width="0.6" height="19.4"/>
	<circle class="st11" cx="473.2" cy="388.9" r="5"/>
	<path class="st10" d="M466.9,371c-2.9,0-5.3-2.4-5.3-5.3c0-2.9,2.4-5.3,5.3-5.3s5.3,2.4,5.3,5.3C472.2,368.7,469.9,371,466.9,371z
		 M466.9,361c-2.6,0-4.7,2.1-4.7,4.7c0,2.6,2.1,4.7,4.7,4.7c2.6,0,4.7-2.1,4.7-4.7C471.6,363.1,469.5,361,466.9,361L466.9,361z"/>
	<path class="st10" d="M494.4,436.7c-2.9,0-5.3-2.4-5.3-5.3s2.4-5.3,5.3-5.3c2.9,0,5.3,2.4,5.3,5.3l0,0
		C499.7,434.3,497.4,436.7,494.4,436.7z M494.4,426.7c-2.6,0-4.7,2.1-4.7,4.7s2.1,4.7,4.7,4.7c2.6,0,4.7-2.1,4.7-4.7l0,0
		C499.1,428.8,497,426.7,494.4,426.7z"/>
	<circle class="st3" cx="494.4" cy="468" r="5"/>
	<path class="st0" d="M411,473.3c-2.9,0-5.3-2.4-5.3-5.3s2.4-5.3,5.3-5.3s5.3,2.4,5.3,5.3l0,0C416.3,470.9,413.9,473.3,411,473.3z
		 M411,463.3c-2.6,0-4.7,2.1-4.7,4.7c0,2.6,2.1,4.7,4.7,4.7c2.6,0,4.7-2.1,4.7-4.7l0,0C415.7,465.4,413.6,463.3,411,463.3z"/>
	<path class="st7" d="M472.9,433.6c-2.9,0-5.3-2.4-5.3-5.3c0-2.9,2.4-5.3,5.3-5.3s5.3,2.4,5.3,5.3l0,0
		C478.2,431.2,475.8,433.6,472.9,433.6z M472.9,423.6c-2.6,0-4.7,2.1-4.7,4.7c0,2.6,2.1,4.7,4.7,4.7c2.6,0,4.7-2.1,4.7-4.7
		C477.5,425.7,475.5,423.6,472.9,423.6z"/>
	<path class="st12" d="M327.5,420.8c-3.5,0-6.3,2.8-6.3,6.3c0,3.5,2.8,6.3,6.3,6.3s6.3-2.8,6.3-6.3
		C333.7,423.6,330.9,420.8,327.5,420.8z M327.5,422.6c1,0,1.9,0.8,1.9,1.9c0,1-0.8,1.9-1.9,1.9c-1,0-1.9-0.8-1.9-1.9
		C325.6,423.5,326.5,422.6,327.5,422.6z M327.5,431.7c-1.5,0-2.9-0.8-3.8-2c0-1.3,2.5-1.9,3.8-1.9c1.3,0,3.7,0.7,3.8,1.9
		C330.4,430.9,329,431.6,327.5,431.7z"/>
	<path class="st9" d="M466.9,313.8c-3.5,0-6.3,2.8-6.3,6.3s2.8,6.3,6.3,6.3c3.5,0,6.3-2.8,6.3-6.3
		C473.2,316.6,470.4,313.8,466.9,313.8z M466.9,315.7c1,0,1.9,0.8,1.9,1.9c0,1-0.8,1.9-1.9,1.9c-1,0-1.9-0.8-1.9-1.9
		C465,316.6,465.9,315.7,466.9,315.7z M466.9,324.7c-1.5,0-2.9-0.8-3.8-2c0-1.3,2.5-1.9,3.8-1.9c1.3,0,3.7,0.7,3.8,1.9
		C469.8,324,468.4,324.7,466.9,324.7z"/>
	<path class="st0" d="M538.8,382.3c-3.5,0-6.3,2.8-6.3,6.3s2.8,6.3,6.3,6.3s6.3-2.8,6.3-6.3C545.1,385.1,542.3,382.3,538.8,382.3z
		 M538.8,384.2c1,0,1.9,0.8,1.9,1.9c0,1-0.8,1.9-1.9,1.9s-1.9-0.8-1.9-1.9C537,385,537.8,384.2,538.8,384.2z M538.8,393.2
		c-1.5,0-2.9-0.8-3.8-2c0-1.3,2.5-1.9,3.8-1.9s3.7,0.7,3.8,1.9C541.7,392.4,540.3,393.2,538.8,393.2z"/>
	<path class="st9" d="M550.7,424.5c-3.5,0-6.3,2.8-6.3,6.3s2.8,6.3,6.3,6.3s6.3-2.8,6.3-6.3C556.9,427.3,554.2,424.5,550.7,424.5z
		 M550.7,426.4c1,0,1.9,0.8,1.9,1.9c0,1-0.8,1.9-1.9,1.9s-1.9-0.8-1.9-1.9C548.8,427.2,549.7,426.4,550.7,426.4z M550.7,435.4
		c-1.5,0-2.9-0.8-3.8-2c0-1.3,2.5-1.9,3.8-1.9s3.7,0.7,3.8,1.9C553.6,434.7,552.2,435.4,550.7,435.4z"/>
	<path class="st3" d="M411.4,424.4l-0.6,2.6c0.7,0.2,3,0.9,3.3-0.5C414.4,424.9,412.1,424.6,411.4,424.4z"/>
	<path class="st3" d="M410.4,428.3l-0.7,2.8c0.9,0.2,3.6,1.1,4-0.5C414.1,428.9,411.3,428.5,410.4,428.3z"/>
	<path class="st3" d="M414.3,416.8c-6.3-1.6-12.6,2.3-14.2,8.5s2.3,12.6,8.5,14.2c6.3,1.6,12.6-2.3,14.2-8.5
		C424.4,424.7,420.5,418.3,414.3,416.8C414.3,416.8,414.3,416.8,414.3,416.8z"/>
	<g id="Layer_2_1_">
		<g id="Layer_2-2_1_">
			<polygon class="st13" points="404.4,424.6 404.4,432.5 411.3,436.5 418.1,432.5 418.1,424.6 411.3,420.7 			"/>
			<polygon class="st14" points="411.3,423.3 406.7,425.9 406.7,428.6 409,427.2 409,432.5 411.3,433.8 411.3,433.8 411.3,425.9 
				413.5,424.6 			"/>
			<polygon class="st14" points="413.6,427.3 413.6,432.5 415.8,431.2 415.8,425.9 			"/>
		</g>
	</g>
</g>
<g>
	<path class="st2" d="M160.4,360.2c-1.5,0-3-0.6-4.2-1.6c-1.3-1.2-2.1-2.8-2.1-4.5l-24.5-17.8c-2.8-2.1-3.5-6-1.4-8.8
		c0.2-0.3,0.4-0.5,0.6-0.8l18.2-18.2c2.1-2.1,5.5-2.1,7.6,0c1,1,1.6,2.4,1.6,3.8c-0.1,2.8-1.2,5.4-3.1,7.5l-12.4,12.4l19.4,15.5
		c0.1,0,0.1,0,0.2,0c3.5,0,6.3,2.8,6.3,6.3c0,3.2-2.4,5.9-5.6,6.2C160.9,360.2,160.6,360.2,160.4,360.2z"/>
	<polygon class="st2" points="189.5,465.5 196.1,463.1 189.8,436.6 180.1,440.2 	"/>
	<path class="st1" d="M211.1,464.5l-20.7,7.7l0,0l-3-8l0,0l13-4.8c4.3-1.6,9,0.6,10.6,4.8L211.1,464.5L211.1,464.5z"/>
	<polygon class="st2" points="130.4,466.8 137.4,466.8 140.7,439.7 130.4,439.7 	"/>
	<path class="st1" d="M150.9,473.3l-22.1,0l0,0l0-8.5l0,0l13.8,0c4.5,0,8.2,3.7,8.2,8.2L150.9,473.3L150.9,473.3z"/>
	<path class="st1" d="M137.9,459.4c-0.1,0-0.2,0-0.2,0l-7.4-0.7c-1.2-0.1-2.2-1.2-2.2-2.4c-0.4-16.1-1.5-97.5,19.4-116.1
		c0.4-0.3,0.8-0.5,1.3-0.6v0c3.8-0.5,16.6-1.8,22,3.7c0.3,0.3,0.6,0.8,0.7,1.3L195.1,454c0.3,1.3-0.6,2.7-1.9,3c-0.1,0-0.1,0-0.2,0
		l-9.1,1.1c-1.4,0.2-2.6-0.8-2.8-2.2c0,0,0,0,0-0.1c-0.9-8.8-6.3-53.6-24.5-69.4c-0.5-0.4-1.2-0.6-1.8-0.4c-0.6,0.2-1.1,0.7-1.3,1.3
		c-3.4,11-14.3,48.6-13,69.3c0.1,1.4-1,2.5-2.3,2.6C138,459.4,138,459.4,137.9,459.4L137.9,459.4z"/>
	<circle class="st2" cx="152.3" cy="281.7" r="13.6"/>
	<path class="st3" d="M138.9,307.3c0,0,12.6-14.9,22.9-2.9l0,0c6.6,7.7,10.1,17.7,9.8,27.9l-0.4,13.1l-23.8-3.7L138.9,307.3z"/>
	<path class="st2" d="M172,336.1c-0.1,0-0.2,0-0.3,0c-2.1-0.1-4-1.1-5.2-2.7l-15.4-19.7c-1.8-2.3-1.4-5.7,0.9-7.5
		c1.1-0.9,2.5-1.3,4-1.1l2.2,0.3c1.4,0.2,2.6,1,3.6,2l12.2,15.5l17.7-17.4c0-0.1,0-0.1,0-0.2c0.4-3.4,3.5-5.9,7-5.5
		c3.4,0.4,5.9,3.5,5.5,7c-0.4,3.4-3.4,5.8-6.8,5.5l-20.1,21.6C175.9,335.3,174,336.1,172,336.1z"/>
	<path class="st1" d="M154.5,284.1l5.8-6.9c1.5-1.8,3.1-3.7,3.3-6c0.2-2.5-1.3-5-3.4-6.4c-2.1-1.4-4.7-2-7.2-2.2
		c-4.7-0.4-9.7,0.4-13.5,3.1c-3.9,2.7-6.4,7.6-5.5,12.2c0.7,3.6,3.5,7.1,2.4,10.7c-1.2,3.9-5.9,5.1-9.8,6.3
		c-6.5,2-12.8,5.8-16.2,11.7s-3.4,14,1.2,19.1c3,3.3,7.4,4.9,11.8,5.2c4.4,0.2,8.8-0.8,13-2.2c3.9-1.3,7.7-3,10.7-5.7
		c3-2.7,5.2-6.6,5.1-10.7c-0.1-3.9-2.2-7.4-3-11.2c-1.4-6.4,0.8-13.1,5.7-17.5"/>
</g>
</svg>
