<svg id="aff82094-dd84-4d6a-a3ba-e579cac0668b" xmlns="http://www.w3.org/2000/svg" viewBox="0 0 449.02 234"><defs><style>.cls-1,.cls-10,.cls-11,.cls-13,.cls-8{fill:#3f3d56;}.cls-2{fill:#2f2e41;}.cls-3{fill:#ffb8b8;}.cls-12,.cls-4{fill:#6c63ff;}.cls-5{fill:#a0616a;}.cls-6{fill:#ccc;}.cls-7,.cls-8{opacity:0.7;}.cls-10,.cls-11,.cls-12,.cls-13,.cls-8{isolation:isolate;}.cls-9{fill:none;stroke:#3f3d56;stroke-miterlimit:10;stroke-width:2px;}.cls-10{opacity:0.3;}.cls-11,.cls-12{opacity:0.5;}.cls-13{opacity:0.71;}.cls-14{fill:#e30c34;}.cls-15{fill:#fff;}</style></defs><path class="cls-1" d="M426.9,239.3H197.6a3.33,3.33,0,0,0-3.3,3.3V398a3.33,3.33,0,0,0,3.3,3.3H426.9a3,3,0,0,0,2.5-1.2l.1-.1a2.18,2.18,0,0,0,.5-.8,1.91,1.91,0,0,0,.2-1.3V242.6A3.33,3.33,0,0,0,426.9,239.3ZM429.2,398a2,2,0,0,1-.4,1.3,2.36,2.36,0,0,1-.9.8,2,2,0,0,1-1.1.3H197.6a2.43,2.43,0,0,1-2.4-2.4V242.6a2.43,2.43,0,0,1,2.4-2.4H426.9a2.43,2.43,0,0,1,2.4,2.4V398Z" transform="translate(-107.98 -239.3)"/><rect class="cls-1" x="86.82" y="13.2" width="234.9" height="0.9"/><circle class="cls-1" cx="94.82" cy="7.1" r="2.8"/><circle class="cls-1" cx="102.92" cy="7.1" r="2.8"/><circle class="cls-1" cx="111.02" cy="7.1" r="2.8"/><path class="cls-2" d="M298.9,332.6c-2.8-1.8-4.2-6.1-3.5-10a12,12,0,0,1,6.4-8.7,10,10,0,0,1,9.5.7c2.9,1.8,6.9,2.7,8.3,6.2,1,2.7-.3,8.2-1.7,10.8a7.6,7.6,0,0,1-5.7,3.7,17,17,0,0,1-13.8-3.2Z" transform="translate(-107.98 -239.3)"/><polygon class="cls-3" points="189.42 114 187.22 117.9 186.92 118.4 186.42 119.2 179.82 119.2 180.22 118.4 181.42 116.5 184.12 111.9 187.22 113.1 189.42 114"/><path class="cls-2" d="M287.3,358.5l-1.2-.8-.2-.1,7.6-13.9a5.48,5.48,0,0,1,3.1-2.5,5.66,5.66,0,0,1,2.6-.1,5.78,5.78,0,0,1,1.4.5,2.19,2.19,0,0,1,.5.3,5.93,5.93,0,0,1,1.5,1.7,5.29,5.29,0,0,1-.2,5.3l-2.9,4.7-2.5,4-.5.8-9.2.1Z" transform="translate(-107.98 -239.3)"/><circle class="cls-3" cx="198.92" cy="88.9" r="9.3"/><path class="cls-4" d="M316.2,358.5H295.3l.1-.3a.9.9,0,0,1-.1-.5c0-.2-.1-.3-.1-.5a12.91,12.91,0,0,1,0-4.8c1.2-5.7,5.7-10.3,5.7-10.3s.2-.1.2-.2a9.41,9.41,0,0,1,2.2-1.2,14.4,14.4,0,0,1,9.4-.1c.8.3,1.7.6,2.5.9a1.09,1.09,0,0,1,.4.2l.2,7.3.3,8.7Z" transform="translate(-107.98 -239.3)"/><path class="cls-2" d="M325.9,357.7l-1.6-8.1-1.6-8.2a1.59,1.59,0,0,0-1.4-1.3l-3.4-.6-3.1-.5a1.66,1.66,0,0,0-1.6.6,2.11,2.11,0,0,0-.4,1,1.7,1.7,0,0,0,.1.7c1.6,3.8,1.7,9.9,1.3,16.4a2.49,2.49,0,0,1-.1.8H326Z" transform="translate(-107.98 -239.3)"/><path class="cls-2" d="M303.4,340.7a1.66,1.66,0,0,0-2.1-1.2l-.6.3-1.4,1.3-5.9,5.4a2.09,2.09,0,0,0-.4.6c-.7,1.6-2,4.8-3.5,8.6-.2.6-.5,1.3-.8,2a6.89,6.89,0,0,0-.3.8h9.8a2.35,2.35,0,0,0,.2-.8c.4-1.4.9-2.7,1.3-4,1.2-3.8,2.3-7.2,3.1-10q.3-1.2.6-2.1Z" transform="translate(-107.98 -239.3)"/><polygon class="cls-3" points="220.12 119.2 220.72 119.2 220.62 119 220.42 118.4 216.82 110 216.32 110.3 211.92 113 214.12 118.4 214.42 119.2 218.02 119.2 220.12 119.2"/><path class="cls-2" d="M324.4,342.6a5.21,5.21,0,0,0-6.5-3.1c-.2.1-.3.1-.5.2a4.52,4.52,0,0,0-2.2,1.9,4.67,4.67,0,0,0-.5,1,5.06,5.06,0,0,0,.1,4l1.1,2.4,3.9,8.7.3.8H328l.5-.2,1.4-.5.2-.1Z" transform="translate(-107.98 -239.3)"/><path class="cls-2" d="M314.2,317.6a1.43,1.43,0,0,0,1.7-.7,2.13,2.13,0,0,0,.1-1.9,4.81,4.81,0,0,0-1.2-1.6,5.29,5.29,0,0,0-2.1-1.1,2.75,2.75,0,0,0-2.3.5,2.24,2.24,0,0,0-.7,2.2,2.76,2.76,0,0,0,1.5,1.5,10.18,10.18,0,0,0,4.2,1.2Z" transform="translate(-107.98 -239.3)"/><path class="cls-2" d="M316,327.9c-1.5.2-1.3-.6-1.9-1.9s-1.4-3-2.9-3.2c-1.2-.1-2.2.9-3.2,1.6a7,7,0,0,1-6.2,1.2,4.31,4.31,0,0,1-2.7-5.3,4.9,4.9,0,0,1,2.6-2.5,9,9,0,0,1,3.6-.5,20.05,20.05,0,0,1,7.9,2,8,8,0,0,1,4,3.9c.6,1.8,1.1,4.3-.8,4.8Z" transform="translate(-107.98 -239.3)"/><path class="cls-2" d="M313.4,312.7a3.19,3.19,0,0,1,1.1-3.9,5.34,5.34,0,0,1,4.3-.6,8.2,8.2,0,0,1,6,5.8c.6,2.2.2,4.7.8,6.9a9,9,0,0,0,10.9,6.8,4.33,4.33,0,0,0,.5-.1c1.5-.5,3.1-1.6,3.3-3.2a8.89,8.89,0,0,1-5.3,8.9,15.28,15.28,0,0,1-6.4.8,10,10,0,0,1-4.2-.7,7.64,7.64,0,0,1-3.9-4.2,11.52,11.52,0,0,1-.5-5.8c.2-1.5.6-3,.8-4.5a5.78,5.78,0,0,0-1.1-4.4,3.43,3.43,0,0,0-4.1-1.1,8.64,8.64,0,0,1-1.6,1c-.6.2-1.4-.1-1.4-.8Z" transform="translate(-107.98 -239.3)"/><path class="cls-4" d="M376.7,358.5l.1-.8,2.1-22.2a16.44,16.44,0,0,1,2.2-1.4,12.88,12.88,0,0,1,10.9-.2,7.57,7.57,0,0,1,1.8.9l1.2,23v.8H376.7Z" transform="translate(-107.98 -239.3)"/><circle class="cls-3" cx="278.75" cy="81.09" r="9.3"/><path class="cls-2" d="M394.2,326a5,5,0,0,0-.2-7.1,5.43,5.43,0,0,0-3.6-1.4,12,12,0,0,0-3.7,1,12.65,12.65,0,0,1-5.8.5,7.6,7.6,0,0,1-4.9-2.9,5.75,5.75,0,0,1-.7-5.5c.9-2,3.1-3.2,5.2-4.1a11.42,11.42,0,0,1,2.6-.9,3.09,3.09,0,0,1,2.6.7c.6.5.9,1.2,1.5,1.7a5.14,5.14,0,0,0,2.5.6,9.53,9.53,0,0,1,8.5,10.4,9.74,9.74,0,0,1-3.9,6.8Z" transform="translate(-107.98 -239.3)"/><path class="cls-2" d="M382.6,338l-1.4-3.8-.1-.2a.83.83,0,0,0-1-.5c-.1,0-.1.1-.2.1l-1.6,1s-10.1,0-10.9,6v.3h0c-.1.4-2,7.7-3.6,16.8,0,.2-.1.5-.1.8h21.9C386.2,349.4,385.8,340.9,382.6,338Z" transform="translate(-107.98 -239.3)"/><path class="cls-2" d="M408.6,357.7c-1.2-9.3-2.9-16.8-2.9-16.8v-.3c-.8-6-10.9-6-10.9-6l-1.6-1a.89.89,0,0,0-1.1.2c0,.1-.1.1-.1.2l-1.5,4.1c-3.3,2.9-3.7,11.4-3,20.5h21.1A1.38,1.38,0,0,0,408.6,357.7Z" transform="translate(-107.98 -239.3)"/><path class="cls-4" d="M231.5,336.5l-2.2,21.2-.1.8h-6.1c.1-.2.1-.5.2-.8,1.7-5.9,4.1-14.5,3.8-16.8a4.51,4.51,0,0,1,2.4-4.8h.2Z" transform="translate(-107.98 -239.3)"/><circle class="cls-5" cx="133.32" cy="81.4" r="9.3"/><path class="cls-4" d="M253.3,354a10.24,10.24,0,0,0-1.1,2.7c-.1.3-.2.7-.3,1s-.1.5-.2.8H227.2c0-.2.1-.5.1-.8,1.3-9.9,2.3-19.9,2.4-21.5V336c14.7-7.7,25.4,2.4,25.4,2.4v.2C255.3,340,256.5,348.2,253.3,354Z" transform="translate(-107.98 -239.3)"/><path class="cls-4" d="M252.1,356.7l-1.6-3.5.4-13.9,4.2-.8h.1a11,11,0,0,1,4.8,5.6c.8,2,2.4,8.2,3.7,13.6.1.3.1.5.2.8H253l-.4-.8Z" transform="translate(-107.98 -239.3)"/><path class="cls-1" d="M267,296.2H213.4a4.27,4.27,0,0,0-4.3,4.3v53.6a4.27,4.27,0,0,0,4.3,4.3H267a4.27,4.27,0,0,0,4.3-4.3V300.5A4.21,4.21,0,0,0,267,296.2Zm3.6,57.9a3.59,3.59,0,0,1-3.6,3.6H213.4a3.59,3.59,0,0,1-3.6-3.6V300.5a3.59,3.59,0,0,1,3.6-3.6H267a3.59,3.59,0,0,1,3.6,3.6Zm-41.4,3.6-.1.8h22.5c.1-.3.1-.5.2-.8Z" transform="translate(-107.98 -239.3)"/><path class="cls-1" d="M339,296.2H285.4a4.27,4.27,0,0,0-4.3,4.3v53.6a4.27,4.27,0,0,0,4.3,4.3H339a4.27,4.27,0,0,0,4.3-4.3V300.5A4.21,4.21,0,0,0,339,296.2Zm3.6,57.9a3.59,3.59,0,0,1-3.6,3.6H285.4a3.59,3.59,0,0,1-3.6-3.6V300.5a3.59,3.59,0,0,1,3.6-3.6H339a3.59,3.59,0,0,1,3.6,3.6Zm-47.3,3.6c0,.2.1.3.1.5l-.1.3h18.8a2.2,2.2,0,0,1,.1-.8Z" transform="translate(-107.98 -239.3)"/><path class="cls-1" d="M411,296.2H357.4a4.27,4.27,0,0,0-4.3,4.3v53.6a4.27,4.27,0,0,0,4.3,4.3H411a4.27,4.27,0,0,0,4.3-4.3V300.5A4.21,4.21,0,0,0,411,296.2Zm3.6,57.9a3.59,3.59,0,0,1-3.6,3.6H357.4a3.59,3.59,0,0,1-3.6-3.6V300.5a3.59,3.59,0,0,1,3.6-3.6H411a3.59,3.59,0,0,1,3.6,3.6Zm-29,3.6a2.49,2.49,0,0,1-.1.8h16.3c0-.2.1-.5.1-.8Z" transform="translate(-107.98 -239.3)"/><path class="cls-6" d="M374.5,380.4H249.9a3,3,0,0,1-3-3,3.08,3.08,0,0,1,3-3H374.5a3,3,0,0,1,0,6Z" transform="translate(-107.98 -239.3)"/><path class="cls-4" d="M339.6,280.3H284.8a3,3,0,0,1-3-3,3.08,3.08,0,0,1,3-3h54.8a3,3,0,0,1,0,6Z" transform="translate(-107.98 -239.3)"/><path class="cls-2" d="M245.7,328.8a2,2,0,0,0,2.4.2,15.34,15.34,0,0,0,5.2-6.1,10.17,10.17,0,0,0-.1-9c-1.3-2.3-3.7-3.7-6-4.9a10.21,10.21,0,0,0-2.9-1.1,4,4,0,0,0-3,.5,2.63,2.63,0,0,0-1.2,2.7,10,10,0,0,0-4.2-2.8,5,5,0,0,0-3.2-.2,5.09,5.09,0,0,0-3.2,3.2,6.74,6.74,0,0,0-.5,3.4,4.29,4.29,0,0,0,1.8,2.9,5.53,5.53,0,0,0,4.2.4c1.4-.3,2.8-.8,4.2-1a4.37,4.37,0,0,1,3.9,1.4,5.83,5.83,0,0,1,.9,2.9l.7,5.2a7.94,7.94,0,0,0,.6,2.2C245.6,328.6,245.6,328.7,245.7,328.8Z" transform="translate(-107.98 -239.3)"/><g class="cls-7"><rect class="cls-8" x="240.42" y="162" width="0.6" height="22"/><rect class="cls-8" x="239.52" y="188.6" width="48.5" height="0.6"/><rect class="cls-1" x="218.92" y="197.1" width="0.6" height="26.6"/><rect class="cls-1" x="224.52" y="228.3" width="73.5" height="0.6"/><path class="cls-9" d="M411,463" transform="translate(-107.98 -239.3)"/><path class="cls-9" d="M411,437.3" transform="translate(-107.98 -239.3)"/><rect class="cls-10" x="358.62" y="89.9" width="0.6" height="31.6"/><rect class="cls-11" x="321.22" y="126.4" width="32.7" height="0.6"/><rect class="cls-8" x="302.72" y="161" width="0.6" height="12.6"/><path class="cls-1" d="M327.5,473.3a5.3,5.3,0,1,1,5.3-5.3h0A5.34,5.34,0,0,1,327.5,473.3Zm0-10a4.7,4.7,0,1,0,4.7,4.7h0A4.69,4.69,0,0,0,327.5,463.3Z" transform="translate(-107.98 -239.3)"/><circle class="cls-4" cx="241.12" cy="189" r="5"/><rect class="cls-11" x="370.22" y="149.3" width="51.9" height="0.6"/><rect class="cls-8" x="364.92" y="154.5" width="0.6" height="29.4"/><rect class="cls-8" x="318.32" y="188.6" width="41.6" height="0.6"/><rect class="cls-11" x="391.42" y="191.5" width="43.1" height="0.6"/><rect class="cls-1" x="386.42" y="197.1" width="0.6" height="26.6"/><rect class="cls-1" x="308.02" y="228.3" width="73.5" height="0.6"/><rect class="cls-1" x="302.72" y="204.3" width="0.6" height="19.4"/><circle class="cls-12" cx="365.22" cy="149.6" r="5"/><path class="cls-11" d="M466.9,371a5.3,5.3,0,1,1,5.3-5.3A5.21,5.21,0,0,1,466.9,371Zm0-10a4.7,4.7,0,1,0,4.7,4.7,4.69,4.69,0,0,0-4.7-4.7Z" transform="translate(-107.98 -239.3)"/><path class="cls-11" d="M494.4,436.7a5.3,5.3,0,1,1,5.3-5.3h0A5.27,5.27,0,0,1,494.4,436.7Zm0-10a4.7,4.7,0,1,0,4.7,4.7h0A4.69,4.69,0,0,0,494.4,426.7Z" transform="translate(-107.98 -239.3)"/><circle class="cls-4" cx="386.42" cy="228.7" r="5"/><path class="cls-1" d="M411,473.3a5.3,5.3,0,1,1,5.3-5.3h0A5.34,5.34,0,0,1,411,473.3Zm0-10a4.7,4.7,0,1,0,4.7,4.7h0A4.69,4.69,0,0,0,411,463.3Z" transform="translate(-107.98 -239.3)"/><path class="cls-8" d="M472.9,433.6a5.3,5.3,0,1,1,5.3-5.3h0A5.34,5.34,0,0,1,472.9,433.6Zm0-10a4.7,4.7,0,1,0,4.7,4.7A4.76,4.76,0,0,0,472.9,423.6Z" transform="translate(-107.98 -239.3)"/><path class="cls-13" d="M327.5,420.8a6.3,6.3,0,1,0,6.3,6.3A6.4,6.4,0,0,0,327.5,420.8Zm0,1.8a1.9,1.9,0,1,1-1.9,1.9A2,2,0,0,1,327.5,422.6Zm0,9.1a4.83,4.83,0,0,1-3.8-2c0-1.3,2.5-1.9,3.8-1.9s3.7.7,3.8,1.9A5.14,5.14,0,0,1,327.5,431.7Z" transform="translate(-107.98 -239.3)"/><path class="cls-10" d="M466.9,313.8a6.3,6.3,0,1,0,6.3,6.3A6.27,6.27,0,0,0,466.9,313.8Zm0,1.9a1.9,1.9,0,1,1-1.9,1.9A2,2,0,0,1,466.9,315.7Zm0,9a4.83,4.83,0,0,1-3.8-2c0-1.3,2.5-1.9,3.8-1.9s3.7.7,3.8,1.9A4.57,4.57,0,0,1,466.9,324.7Z" transform="translate(-107.98 -239.3)"/><path class="cls-1" d="M538.8,382.3a6.3,6.3,0,1,0,6.3,6.3A6.27,6.27,0,0,0,538.8,382.3Zm0,1.9a1.9,1.9,0,1,1,0,3.8,1.84,1.84,0,0,1-1.9-1.9A2,2,0,0,1,538.8,384.2Zm0,9a4.83,4.83,0,0,1-3.8-2c0-1.3,2.5-1.9,3.8-1.9s3.7.7,3.8,1.9A4.83,4.83,0,0,1,538.8,393.2Z" transform="translate(-107.98 -239.3)"/><path class="cls-10" d="M550.7,424.5a6.3,6.3,0,1,0,6.3,6.3A6.34,6.34,0,0,0,550.7,424.5Zm0,1.9a1.9,1.9,0,0,1,0,3.8,1.84,1.84,0,0,1-1.9-1.9A1.9,1.9,0,0,1,550.7,426.4Zm0,9a4.83,4.83,0,0,1-3.8-2c0-1.3,2.5-1.9,3.8-1.9s3.7.7,3.8,1.9A4.57,4.57,0,0,1,550.7,435.4Z" transform="translate(-107.98 -239.3)"/><path class="cls-4" d="M411.4,424.4l-.6,2.6c.7.2,3,.9,3.3-.5C414.4,424.9,412.1,424.6,411.4,424.4Z" transform="translate(-107.98 -239.3)"/><path class="cls-4" d="M410.4,428.3l-.7,2.8c.9.2,3.6,1.1,4-.5S411.3,428.5,410.4,428.3Z" transform="translate(-107.98 -239.3)"/><path class="cls-4" d="M414.3,416.8a11.7,11.7,0,1,0,8.5,14.2,11.73,11.73,0,0,0-8.5-14.2Z" transform="translate(-107.98 -239.3)"/><g id="Layer_2" data-name="Layer 2"><g id="Layer_2-2" data-name="Layer 2-2"><polygon class="cls-14" points="296.42 185.3 296.42 193.2 303.32 197.2 310.12 193.2 310.12 185.3 303.32 181.4 296.42 185.3"/><polygon class="cls-15" points="303.32 184 298.72 186.6 298.72 189.3 301.02 187.9 301.02 193.2 303.32 194.5 303.32 194.5 303.32 186.6 305.52 185.3 303.32 184"/><polygon class="cls-15" points="305.62 188 305.62 193.2 307.82 191.9 307.82 186.6 305.62 188"/></g></g></g><path class="cls-3" d="M160.4,360.2a6.66,6.66,0,0,1-4.2-1.6,6.18,6.18,0,0,1-2.1-4.5l-24.5-17.8a6.28,6.28,0,0,1-1.4-8.8c.2-.3.4-.5.6-.8L147,308.5a5.37,5.37,0,0,1,7.6,0,5.46,5.46,0,0,1,1.6,3.8,11.73,11.73,0,0,1-3.1,7.5l-12.4,12.4,19.4,15.5h.2a6.27,6.27,0,0,1,6.3,6.3,6.2,6.2,0,0,1-5.6,6.2Z" transform="translate(-107.98 -239.3)"/><polygon class="cls-3" points="81.52 226.2 88.12 223.8 81.82 197.3 72.12 200.9 81.52 226.2"/><path class="cls-2" d="M211.1,464.5l-20.7,7.7h0l-3-8h0l13-4.8a8.25,8.25,0,0,1,10.6,4.8l.1.3Z" transform="translate(-107.98 -239.3)"/><polygon class="cls-3" points="22.42 227.5 29.42 227.5 32.72 200.4 22.42 200.4 22.42 227.5"/><path class="cls-2" d="M150.9,473.3H128.8v-8.5h13.8a8.24,8.24,0,0,1,8.2,8.2l.1.3Z" transform="translate(-107.98 -239.3)"/><path class="cls-2" d="M137.9,459.4h-.2l-7.4-.7a2.48,2.48,0,0,1-2.2-2.4c-.4-16.1-1.5-97.5,19.4-116.1a3.1,3.1,0,0,1,1.3-.6h0c3.8-.5,16.6-1.8,22,3.7a2.73,2.73,0,0,1,.7,1.3L195.1,454a2.58,2.58,0,0,1-1.9,3H193l-9.1,1.1a2.49,2.49,0,0,1-2.8-2.2v-.1c-.9-8.8-6.3-53.6-24.5-69.4a2,2,0,0,0-1.8-.4,2.1,2.1,0,0,0-1.3,1.3c-3.4,11-14.3,48.6-13,69.3a2.46,2.46,0,0,1-2.3,2.6c-.2.2-.2.2-.3.2Z" transform="translate(-107.98 -239.3)"/><circle class="cls-3" cx="44.32" cy="42.4" r="13.6"/><path class="cls-4" d="M138.9,307.3s12.6-14.9,22.9-2.9h0a41.1,41.1,0,0,1,9.8,27.9l-.4,13.1-23.8-3.7Z" transform="translate(-107.98 -239.3)"/><path class="cls-3" d="M172,336.1h-.3a6.88,6.88,0,0,1-5.2-2.7l-15.4-19.7a5.38,5.38,0,0,1,.9-7.5,5.13,5.13,0,0,1,4-1.1l2.2.3a6.49,6.49,0,0,1,3.6,2L174,322.9l17.7-17.4v-.2a6.29,6.29,0,1,1,5.7,7l-20.1,21.6A7.49,7.49,0,0,1,172,336.1Z" transform="translate(-107.98 -239.3)"/><path class="cls-2" d="M154.5,284.1l5.8-6.9c1.5-1.8,3.1-3.7,3.3-6a7.35,7.35,0,0,0-3.4-6.4,15.18,15.18,0,0,0-7.2-2.2c-4.7-.4-9.7.4-13.5,3.1s-6.4,7.6-5.5,12.2c.7,3.6,3.5,7.1,2.4,10.7-1.2,3.9-5.9,5.1-9.8,6.3-6.5,2-12.8,5.8-16.2,11.7s-3.4,14,1.2,19.1a17.37,17.37,0,0,0,11.8,5.2,36.27,36.27,0,0,0,13-2.2,29.85,29.85,0,0,0,10.7-5.7c3-2.7,5.2-6.6,5.1-10.7-.1-3.9-2.2-7.4-3-11.2a18.32,18.32,0,0,1,5.7-17.5" transform="translate(-107.98 -239.3)"/></svg>