<svg xmlns="http://www.w3.org/2000/svg" xmlns:xlink="http://www.w3.org/1999/xlink" viewBox="0 0 449.02 234" xmlns:v="https://vecta.io/nano"><style><![CDATA[.F,.G,.E{isolation:isolate}.I{fill:#6c63ff}.J{fill:#2f2e41}.K{fill:#ffb8b8}.L{fill:#3f3d56}.M{opacity:.7}.N{opacity:.5}]]></style><g class="L"><path d="M318.92 0H89.62a3.33 3.33 0 0 0-3.3 3.3v155.4a3.33 3.33 0 0 0 3.3 3.3h229.3a3 3 0 0 0 2.5-1.2l.1-.1a2.18 2.18 0 0 0 .5-.8 1.91 1.91 0 0 0 .2-1.3V3.3a3.33 3.33 0 0 0-3.3-3.3zm2.3 158.7a2 2 0 0 1-.4 1.3 2.36 2.36 0 0 1-.9.8 2 2 0 0 1-1.1.3H89.62a2.43 2.43 0 0 1-2.4-2.4V3.3a2.43 2.43 0 0 1 2.4-2.4h229.3a2.43 2.43 0 0 1 2.4 2.4v155.4z"/><path d="M86.82 13.2h234.9v.9H86.82z"/><circle cx="94.82" cy="7.1" r="2.8"/><circle cx="102.92" cy="7.1" r="2.8"/><circle cx="111.02" cy="7.1" r="2.8"/></g><path d="M190.92 93.3c-2.8-1.8-4.2-6.1-3.5-10a12 12 0 0 1 6.4-8.7 10 10 0 0 1 9.5.7c2.9 1.8 6.9 2.7 8.3 6.2 1 2.7-.3 8.2-1.7 10.8a7.6 7.6 0 0 1-5.7 3.7 17 17 0 0 1-13.8-3.2z" class="J"/><path d="M189.42 114l-2.2 3.9-.3.5-.5.8h-6.6l.4-.8 1.2-1.9 2.7-4.6 3.1 1.2 2.2.9z" class="K"/><path d="M179.32 119.2l-1.2-.8-.2-.1 7.6-13.9a5.48 5.48 0 0 1 3.1-2.5 5.66 5.66 0 0 1 2.6-.1 5.78 5.78 0 0 1 1.4.5 2.19 2.19 0 0 1 .5.3 5.93 5.93 0 0 1 1.5 1.7 5.29 5.29 0 0 1-.2 5.3l-2.9 4.7-2.5 4-.5.8-9.2.1z" class="J"/><circle cx="198.92" cy="88.9" r="9.3" class="K"/><path d="M208.22 119.2h-20.9l.1-.3a.9.9 0 0 1-.1-.5c0-.2-.1-.3-.1-.5a12.91 12.91 0 0 1 0-4.8c1.2-5.7 5.7-10.3 5.7-10.3s.2-.1.2-.2a9.41 9.41 0 0 1 2.2-1.2 14.4 14.4 0 0 1 9.4-.1l2.5.9a1.09 1.09 0 0 1 .4.2l.2 7.3.3 8.7z" class="I"/><path d="M217.92 118.4l-1.6-8.1-1.6-8.2a1.59 1.59 0 0 0-1.4-1.3l-3.4-.6-3.1-.5a1.66 1.66 0 0 0-1.6.6 2.11 2.11 0 0 0-.4 1 1.7 1.7 0 0 0 .1.7c1.6 3.8 1.7 9.9 1.3 16.4a2.49 2.49 0 0 1-.1.8h11.9zm-22.5-17a1.66 1.66 0 0 0-2.1-1.2l-.6.3-1.4 1.3-5.9 5.4a2.09 2.09 0 0 0-.4.6c-.7 1.6-2 4.8-3.5 8.6-.2.6-.5 1.3-.8 2a6.89 6.89 0 0 0-.3.8h9.8a2.35 2.35 0 0 0 .2-.8c.4-1.4.9-2.7 1.3-4l3.1-10q.3-1.2.6-2.1z" class="J"/><path d="M220.12 119.2h.6l-.1-.2-.2-.6-3.6-8.4-.5.3-4.4 2.7 2.2 5.4.3.8h5.7z" class="K"/><g class="J"><path d="M216.42 103.3a5.21 5.21 0 0 0-6.5-3.1c-.2.1-.3.1-.5.2a4.52 4.52 0 0 0-2.2 1.9 4.67 4.67 0 0 0-.5 1 5.06 5.06 0 0 0 .1 4l1.1 2.4 3.9 8.7.3.8h7.9l.5-.2 1.4-.5.2-.1zm-10.2-25a1.43 1.43 0 0 0 1.7-.7 2.13 2.13 0 0 0 .1-1.9 4.81 4.81 0 0 0-1.2-1.6 5.29 5.29 0 0 0-2.1-1.1 2.75 2.75 0 0 0-2.3.5 2.24 2.24 0 0 0-.7 2.2 2.76 2.76 0 0 0 1.5 1.5 10.18 10.18 0 0 0 4.2 1.2zm1.8 10.3c-1.5.2-1.3-.6-1.9-1.9s-1.4-3-2.9-3.2c-1.2-.1-2.2.9-3.2 1.6a7 7 0 0 1-6.2 1.2 4.31 4.31 0 0 1-2.7-5.3 4.9 4.9 0 0 1 2.6-2.5 9 9 0 0 1 3.6-.5 20.05 20.05 0 0 1 7.9 2 8 8 0 0 1 4 3.9c.6 1.8 1.1 4.3-.8 4.8z"/><path d="M205.42 73.4a3.19 3.19 0 0 1 1.1-3.9 5.34 5.34 0 0 1 4.3-.6 8.2 8.2 0 0 1 6 5.8c.6 2.2.2 4.7.8 6.9a9 9 0 0 0 10.9 6.8 4.33 4.33 0 0 0 .5-.1c1.5-.5 3.1-1.6 3.3-3.2a8.89 8.89 0 0 1-5.3 8.9 15.28 15.28 0 0 1-6.4.8 10 10 0 0 1-4.2-.7 7.64 7.64 0 0 1-3.9-4.2 11.52 11.52 0 0 1-.5-5.8l.8-4.5a5.78 5.78 0 0 0-1.1-4.4 3.43 3.43 0 0 0-4.1-1.1 8.64 8.64 0 0 1-1.6 1c-.6.2-1.4-.1-1.4-.8z"/></g><path d="M268.72 119.2l.1-.8 2.1-22.2a16.44 16.44 0 0 1 2.2-1.4 12.88 12.88 0 0 1 10.9-.2 7.57 7.57 0 0 1 1.8.9l1.2 23v.8h-18.3z" class="I"/><circle cx="278.75" cy="81.09" r="9.3" class="K"/><path d="M286.22 86.7a5 5 0 0 0-.2-7.1 5.43 5.43 0 0 0-3.6-1.4 12 12 0 0 0-3.7 1 12.65 12.65 0 0 1-5.8.5 7.6 7.6 0 0 1-4.9-2.9 5.75 5.75 0 0 1-.7-5.5c.9-2 3.1-3.2 5.2-4.1a11.42 11.42 0 0 1 2.6-.9 3.09 3.09 0 0 1 2.6.7c.6.5.9 1.2 1.5 1.7a5.14 5.14 0 0 0 2.5.6 9.53 9.53 0 0 1 8.5 10.4 9.74 9.74 0 0 1-3.9 6.8zm-11.6 12l-1.4-3.8-.1-.2a.83.83 0 0 0-1-.5c-.1 0-.1.1-.2.1l-1.6 1s-10.1 0-10.9 6v.3c-.1.4-2 7.7-3.6 16.8 0 .2-.1.5-.1.8h21.9c.6-9.1.2-17.6-3-20.5zm26 19.7c-1.2-9.3-2.9-16.8-2.9-16.8v-.3c-.8-6-10.9-6-10.9-6l-1.6-1a.89.89 0 0 0-1.1.2c0 .1-.1.1-.1.2l-1.5 4.1c-3.3 2.9-3.7 11.4-3 20.5h21.1a1.38 1.38 0 0 0 0-.9z" class="J"/><path d="M123.52 97.2l-2.2 21.2-.1.8h-6.1c.1-.2.1-.5.2-.8 1.7-5.9 4.1-14.5 3.8-16.8a4.51 4.51 0 0 1 2.4-4.8h.2z" class="I"/><circle cx="133.32" cy="81.4" r="9.3" fill="#a0616a"/><g class="I"><path d="M145.32 114.7a10.24 10.24 0 0 0-1.1 2.7l-.3 1c-.1.3-.1.5-.2.8h-24.5c0-.2.1-.5.1-.8 1.3-9.9 2.3-19.9 2.4-21.5v-.2c14.7-7.7 25.4 2.4 25.4 2.4v.2c.2 1.4 1.4 9.6-1.8 15.4z"/><path d="M144.12 117.4l-1.6-3.5.4-13.9 4.2-.8h.1a11 11 0 0 1 4.8 5.6c.8 2 2.4 8.2 3.7 13.6.1.3.1.5.2.8h-10.9l-.4-.8z"/></g><path d="M159.02 56.9h-53.6a4.27 4.27 0 0 0-4.3 4.3v53.6a4.27 4.27 0 0 0 4.3 4.3h53.6a4.27 4.27 0 0 0 4.3-4.3V61.2a4.21 4.21 0 0 0-4.3-4.3zm3.6 57.9a3.59 3.59 0 0 1-3.6 3.6h-53.6a3.59 3.59 0 0 1-3.6-3.6V61.2a3.59 3.59 0 0 1 3.6-3.6h53.6a3.59 3.59 0 0 1 3.6 3.6zm-41.4 3.6l-.1.8h22.5c.1-.3.1-.5.2-.8zm109.8-61.5h-53.6a4.27 4.27 0 0 0-4.3 4.3v53.6a4.27 4.27 0 0 0 4.3 4.3h53.6a4.27 4.27 0 0 0 4.3-4.3V61.2a4.21 4.21 0 0 0-4.3-4.3zm3.6 57.9a3.59 3.59 0 0 1-3.6 3.6h-53.6a3.59 3.59 0 0 1-3.6-3.6V61.2a3.59 3.59 0 0 1 3.6-3.6h53.6a3.59 3.59 0 0 1 3.6 3.6zm-47.3 3.6c0 .2.1.3.1.5l-.1.3h18.8a2.2 2.2 0 0 1 .1-.8zm115.7-61.5h-53.6a4.27 4.27 0 0 0-4.3 4.3v53.6a4.27 4.27 0 0 0 4.3 4.3h53.6a4.27 4.27 0 0 0 4.3-4.3V61.2a4.21 4.21 0 0 0-4.3-4.3zm3.6 57.9a3.59 3.59 0 0 1-3.6 3.6h-53.6a3.59 3.59 0 0 1-3.6-3.6V61.2a3.59 3.59 0 0 1 3.6-3.6h53.6a3.59 3.59 0 0 1 3.6 3.6zm-29 3.6a2.49 2.49 0 0 1-.1.8h16.3c0-.2.1-.5.1-.8z" class="L"/><path d="M266.52 141.1h-124.6a3 3 0 0 1-3-3 3.08 3.08 0 0 1 3-3h124.6a3 3 0 1 1 0 6z" fill="#ccc"/><path d="M231.62 41h-54.8a3 3 0 0 1-3-3 3.08 3.08 0 0 1 3-3h54.8a3 3 0 1 1 0 6z" class="I"/><path d="M137.72 89.5a2 2 0 0 0 2.4.2 15.34 15.34 0 0 0 5.2-6.1 10.17 10.17 0 0 0-.1-9c-1.3-2.3-3.7-3.7-6-4.9a10.21 10.21 0 0 0-2.9-1.1 4 4 0 0 0-3 .5 2.63 2.63 0 0 0-1.2 2.7 10 10 0 0 0-4.2-2.8 5 5 0 0 0-3.2-.2 5.09 5.09 0 0 0-3.2 3.2 6.74 6.74 0 0 0-.5 3.4 4.29 4.29 0 0 0 1.8 2.9 5.53 5.53 0 0 0 4.2.4l4.2-1a4.37 4.37 0 0 1 3.9 1.4 5.83 5.83 0 0 1 .9 2.9l.7 5.2a7.94 7.94 0 0 0 .6 2.2c.3-.1.3 0 .4.1z" class="J"/><g class="M"><g class="L"><path class="E M" d="M240.42 162h.6v22h-.6zm-.9 26.6h48.5v.6h-48.5z"/><path d="M218.92 197.1h.6v26.6h-.6zm5.6 31.2h73.5v.6h-73.5z"/><path class="F" d="M358.62 89.9h.6v31.6h-.6z" opacity=".3"/><path class="G N" d="M321.22 126.4h32.7v.6h-32.7z"/><path class="E M" d="M302.72 161h.6v12.6h-.6z"/><use xlink:href="#B"/></g><circle cx="241.12" cy="189" r="5" class="I"/><g class="L"><path class="G N" d="M370.22 149.3h51.9v.6h-51.9z"/><path class="E M" d="M364.92 154.5h.6v29.4h-.6zm-46.6 34.1h41.6v.6h-41.6z"/><path class="G N" d="M391.42 191.5h43.1v.6h-43.1z"/><path d="M386.42 197.1h.6v26.6h-.6zm-78.4 31.2h73.5v.6h-73.5zm-5.3-24h.6v19.4h-.6z"/></g><circle cx="365.22" cy="149.6" r="5" class="I N"/><path class="G L N" d="M358.92 131.7a5.3 5.3 0 0 1 0-10.6 5.3 5.3 0 0 1 5.3 5.3 5.21 5.21 0 0 1-5.3 5.3zm0-10a4.7 4.7 0 0 0-3.323 8.023 4.7 4.7 0 0 0 8.023-3.323 4.69 4.69 0 0 0-4.7-4.7zm27.5 75.7a5.3 5.3 0 1 1 0-10.6 5.3 5.3 0 0 1 5.3 5.3 5.27 5.27 0 0 1-5.3 5.3zm0-10a4.7 4.7 0 0 0-3.323 8.023 4.7 4.7 0 0 0 8.023-3.323 4.69 4.69 0 0 0-4.7-4.7z"/><circle cx="386.42" cy="228.7" r="5" class="I"/><g class="L"><use xlink:href="#B" x="83.5"/><path class="E M" d="M364.92 194.3a5.3 5.3 0 0 1 0-10.6 5.3 5.3 0 0 1 5.3 5.3 5.34 5.34 0 0 1-5.3 5.3zm0-10a4.7 4.7 0 0 0-3.323 8.023A4.7 4.7 0 0 0 369.62 189a4.76 4.76 0 0 0-4.7-4.7z"/><path d="M219.52 181.5a6.3 6.3 0 1 0 0 12.6 6.3 6.3 0 0 0 6.3-6.3 6.4 6.4 0 0 0-6.3-6.3zm0 1.8a1.9 1.9 0 0 1 1.344 3.244 1.9 1.9 0 0 1-3.244-1.344 2 2 0 0 1 1.9-1.9zm0 9.1a4.83 4.83 0 0 1-3.8-2c0-1.3 2.5-1.9 3.8-1.9s3.7.7 3.8 1.9a5.14 5.14 0 0 1-3.8 2z" opacity=".71"/><path class="F" d="M358.92 74.5a6.3 6.3 0 1 0 0 12.6 6.3 6.3 0 0 0 6.3-6.3 6.27 6.27 0 0 0-6.3-6.3zm0 1.9a1.9 1.9 0 0 1 1.344 3.244 1.9 1.9 0 0 1-3.244-1.344 2 2 0 0 1 1.9-1.9zm0 9a4.83 4.83 0 0 1-3.8-2c0-1.3 2.5-1.9 3.8-1.9s3.7.7 3.8 1.9a4.57 4.57 0 0 1-3.8 2z" opacity=".3"/><path d="M430.82 143a6.3 6.3 0 0 0-4.455 10.755 6.3 6.3 0 0 0 10.755-4.455 6.27 6.27 0 0 0-6.3-6.3zm0 1.9a1.9 1.9 0 1 1 0 3.8 1.84 1.84 0 0 1-1.9-1.9 2 2 0 0 1 1.9-1.9zm0 9a4.83 4.83 0 0 1-3.8-2c0-1.3 2.5-1.9 3.8-1.9s3.7.7 3.8 1.9a4.83 4.83 0 0 1-3.8 2z"/><path class="F" d="M442.72 185.2a6.3 6.3 0 0 0-4.455 10.755 6.3 6.3 0 0 0 10.755-4.455 6.34 6.34 0 0 0-6.3-6.3zm0 1.9a1.9 1.9 0 0 1 0 3.8 1.84 1.84 0 0 1-1.9-1.9 1.9 1.9 0 0 1 1.9-1.9zm0 9a4.83 4.83 0 0 1-3.8-2c0-1.3 2.5-1.9 3.8-1.9s3.7.7 3.8 1.9a4.57 4.57 0 0 1-3.8 2z" opacity=".3"/></g><g class="I"><path d="M303.42 185.1l-.6 2.6c.7.2 3 .9 3.3-.5.3-1.6-2-1.9-2.7-2.1zm-1 3.9l-.7 2.8c.9.2 3.6 1.1 4-.5s-2.4-2.1-3.3-2.3z"/><path d="M306.32 177.5c-6.267-1.572-12.622 2.233-14.195 8.5s2.231 12.622 8.498 14.196 12.623-2.23 14.197-8.496c1.558-6.266-2.241-12.613-8.5-14.2z"/></g><path fill="#e30c34" d="M296.42 185.3v7.9l6.9 4 6.8-4v-7.9l-6.8-3.9-6.9 3.9z"/><path d="M303.32 184l-4.6 2.6v2.7l2.3-1.4v5.3l2.3 1.3v-7.9l2.2-1.3-2.2-1.3zm2.3 4v5.2l2.2-1.3v-5.3l-2.2 1.4z" fill="#fff"/></g><path d="M52.42 120.9a6.66 6.66 0 0 1-4.2-1.6 6.18 6.18 0 0 1-2.1-4.5L21.62 97a6.28 6.28 0 0 1-1.4-8.8c.2-.3.4-.5.6-.8l18.2-18.2a5.37 5.37 0 0 1 7.6 0 5.46 5.46 0 0 1 1.6 3.8 11.73 11.73 0 0 1-3.1 7.5l-12.4 12.4 19.4 15.5h.2a6.27 6.27 0 0 1 6.3 6.3 6.2 6.2 0 0 1-5.6 6.2zm29.1 105.3l6.6-2.4-6.3-26.5-9.7 3.6 9.4 25.3z" class="K"/><path d="M103.12 225.2l-20.7 7.7-3-8 13-4.8a8.25 8.25 0 0 1 10.6 4.8l.1.3z" class="J"/><path d="M22.42 227.5h7l3.3-27.1h-10.3v27.1z" class="K"/><path d="M42.92 234h-22.1v-8.5h13.8a8.24 8.24 0 0 1 8.2 8.2l.1.3zm-13-13.9h-.2l-7.4-.7a2.48 2.48 0 0 1-2.2-2.4c-.4-16.1-1.5-97.5 19.4-116.1a3.1 3.1 0 0 1 1.3-.6c3.8-.5 16.6-1.8 22 3.7a2.73 2.73 0 0 1 .7 1.3l23.6 109.4a2.58 2.58 0 0 1-1.9 3h-.2l-9.1 1.1a2.49 2.49 0 0 1-2.8-2.2v-.1c-.9-8.8-6.3-53.6-24.5-69.4a2 2 0 0 0-1.8-.4 2.1 2.1 0 0 0-1.3 1.3c-3.4 11-14.3 48.6-13 69.3a2.46 2.46 0 0 1-2.3 2.6c-.2.2-.2.2-.3.2z" class="J"/><circle cx="44.32" cy="42.4" r="13.6" class="K"/><path d="M30.92 68s12.6-14.9 22.9-2.9a41.1 41.1 0 0 1 9.8 27.9l-.4 13.1-23.8-3.7z" class="I"/><path d="M64.02 96.8h-.3a6.88 6.88 0 0 1-5.2-2.7l-15.4-19.7a5.38 5.38 0 0 1 .9-7.5 5.13 5.13 0 0 1 4-1.1l2.2.3a6.49 6.49 0 0 1 3.6 2l12.2 15.5 17.7-17.4V66a6.29 6.29 0 0 1 12.507 1.343A6.29 6.29 0 0 1 89.42 73l-20.1 21.6a7.49 7.49 0 0 1-5.3 2.2z" class="K"/><path d="M46.52 44.8l5.8-6.9c1.5-1.8 3.1-3.7 3.3-6a7.35 7.35 0 0 0-3.4-6.4 15.18 15.18 0 0 0-7.2-2.2c-4.7-.4-9.7.4-13.5 3.1s-6.4 7.6-5.5 12.2c.7 3.6 3.5 7.1 2.4 10.7-1.2 3.9-5.9 5.1-9.8 6.3-6.5 2-12.8 5.8-16.2 11.7s-3.4 14 1.2 19.1a17.37 17.37 0 0 0 11.8 5.2 36.27 36.27 0 0 0 13-2.2 29.85 29.85 0 0 0 10.7-5.7c3-2.7 5.2-6.6 5.1-10.7-.1-3.9-2.2-7.4-3-11.2a18.32 18.32 0 0 1 5.7-17.5" class="J"/><defs ><path id="B" d="M219.52 234a5.3 5.3 0 1 1 0-10.6 5.3 5.3 0 0 1 5.3 5.3 5.34 5.34 0 0 1-5.3 5.3zm0-10a4.7 4.7 0 0 0-3.323 8.023 4.7 4.7 0 0 0 8.023-3.323 4.69 4.69 0 0 0-4.7-4.7z"/></defs></svg>