<svg xmlns="http://www.w3.org/2000/svg" viewBox="0 0 428 397"><defs><linearGradient id="a" x1=".283" y1=".695" x2="1.25" y2="-.175" gradientUnits="objectBoundingBox"><stop offset="0" stop-color="#fff"/><stop offset=".3" stop-color="#f8f8f8"/><stop offset=".76" stop-color="#e4e4e4"/><stop offset="1" stop-color="#d6d6d6"/></linearGradient><style>.e{fill:#fdd762}.f{fill:#be1d32}.g{fill:#efefef}.h{fill:#660202}.i{fill:#ffc2b0}.j{fill:#a50c26}.k{fill:#fff}.l{fill:#ea9c92}.m{fill:#d8892b}.n{fill:#ff2c2c}.af,.o{fill:#adadad}.o{opacity:.5}.p{fill:#d15805}.q{fill:#fc9e5e}.r{fill:#ea6e1b}.s{fill:#95d359}.t{fill:#c13d1a}.u{fill:#db5126}.v{fill:#ef602e}.w{fill:#e8a200}.x{fill:#f9bf30}.y{fill:#c0c8ce}.z{fill:#ededed}.ab{fill:#e7edf2}.ac{fill:#ccc}.ad{fill:#e8e8e8}.ae{fill:#fafdff}.ag{fill:#d4ecff}.ai{fill:#232323}.aj{fill:#ff6d40}.am{fill:#b2b2b2}.an{fill:#ddd}.ao{fill:#fcfcfc}.ap{fill:#e2e2e2}.ar{fill:#595959}.as{fill:#ff8f8f}.at{fill:#fcb4b4}</style></defs><path style="fill:url(#a)" d="M0 0h428v397H0z"/><text transform="translate(27 61)" style="fill:#2c2c2c;font-size:24px;font-family:PingFangSC-Medium,PingFang SC;font-weight:500"><tspan x="0" y="0">2021 分布式 KV 数据库实现学习营</tspan></text><text transform="translate(214 100)" style="font-size:14px;fill:#565656;font-family:PingFangSC-Regular,PingFang SC;letter-spacing:.05em"><tspan x="-188.468" y="0">搞定 LSM 存储引擎，Raft 一致性协议，MVCC 和事务，</tspan><tspan x="-132.615" y="20">动手实现一个完整的分布式 KV 数据库。</tspan></text><text transform="translate(118 174)" style="font-size:16px;fill:#565656;font-family:PingFangSC-Regular,PingFang SC;letter-spacing:.05em"><tspan x="0" y="0">2021.11.15 - 2022.01.07</tspan></text><path class="e" d="m303.769 304.006 1.03-1.47 4.263 2.988-1.03 1.47z"/><path class="e" d="m302.244 300.753 1.03-1.47 4.263 2.988-1.03 1.47zM300.722 297.492l1.03-1.47 4.263 2.988-1.03 1.47z"/><path class="e" d="m299.198 294.239 1.03-1.47 4.263 2.988-1.03 1.47z"/><path class="f" d="m157.28 248.103-.725-1.234a1.769 1.769 0 0 1-1.272.134 2.475 2.475 0 0 1-1.336-1.393 4.272 4.272 0 0 0-4.766-2.621l.34 1.389-.172-.694.165.694a2.865 2.865 0 0 1 3.181 1.851 3.754 3.754 0 0 0 2.221 2.144 3.181 3.181 0 0 0 2.364-.27Z"/><ellipse class="g" cx="4.95" cy="2.857" rx="4.95" ry="2.857" transform="translate(275.438 304.1)"/><path class="h" d="M283.512 270.812s-.134 2.742-.344 4.581-4.638-1.412-4.638-1.412v-2.1ZM281.15 304.881a5.5 5.5 0 0 1-2.367 1.909 2.622 2.622 0 0 1-1.05.146.35.35 0 0 1-.286-.464 4.365 4.365 0 0 1 2.2-2.424c1.952-.959 1.503.833 1.503.833ZM281.533 305.424a9.437 9.437 0 0 0-.566 1.864 3 3 0 0 0 .439 1.635.477.477 0 0 0 .744.127 2.73 2.73 0 0 0 .929-1.782 4.225 4.225 0 0 0 0-1.68Z"/><path class="e" d="M284.3 288.121a27.784 27.784 0 0 1 0 3.818c-.153 2-.687 11.338-.789 13.59 0 0 .051.674-1.272.528s-1.209-.9-1.209-.9-1.852 0-1.909-1.12-1.909-13.016-1.909-17.306Z"/><path class="i" d="m276.55 278.783-.91 1.406-3.111 3.76a.694.694 0 0 0 .5.439c.3.076 2.92-2.424 4.053-3.525a.865.865 0 0 0 .121-1.1Z"/><path class="j" d="M278.32 273.026s-1.444-.038-1.941 2.042-.9 4.683-.458 4.9a1.909 1.909 0 0 0 2.138-.112Z"/><path class="f" d="M277.886 273.114a1.164 1.164 0 0 1 .776-.045c1.228.35 5.841 1.705 6.6 2.354.878.751-1.317 4.969-1.272 6.363s.185 3.016.312 4.517.286 2.329-.942 2.965a4.823 4.823 0 0 1-4.9-.528 2.553 2.553 0 0 1-1.223-2.884c.051-.865.6-4.632.554-5.726a4.072 4.072 0 0 1-.967-1.107c-.407-.7.318-1.985.636-2.819s-.172-1.794-.076-2.475a.77.77 0 0 1 .5-.617Z"/><path class="k" d="M279.363 274.552a1.788 1.788 0 1 0 1.909-1.158 1.6 1.6 0 0 0-1.909 1.158Z"/><path class="i" d="M279.857 274.617a1.273 1.273 0 1 0 1.368-.827 1.145 1.145 0 0 0-1.368.827Z"/><path class="i" d="M280.533 272.829s.833-.681 1-.337a11.235 11.235 0 0 1 .3 1.839l-1.654.445.248-1.508s-.333-.286.106-.439Z"/><path class="i" d="M277.951 271.2a2.469 2.469 0 1 0 2.316-2.609 2.469 2.469 0 0 0-2.316 2.609Z"/><path class="l" d="m281.647 272.917.038.248c-.165.859-1.451 1.234-1.451 1.234l.191-1.139s-.153-.134-.108-.267c.503-.152 1.146-.292 1.33-.076Z"/><path class="i" d="M277.951 271.2a2.469 2.469 0 1 0 2.316-2.609 2.469 2.469 0 0 0-2.316 2.609ZM286.495 281.501l-.274 6.611-.967.1-.63-5.943Z"/><path class="j" d="M283.321 280.953c.324-1.412.954-4.53.954-4.53l.267 3.1a8.41 8.41 0 0 0-.566 2.252c0 .814.083 1.712.153 2.615s-1.126-2.031-.808-3.437Z"/><path class="f" d="M285.076 275.291s.77.293 1.209 2.666.763 4.746 0 5.052-1.432.541-1.661-.1a32.629 32.629 0 0 1-.4-4.791c-.039-1.096-.084-2.611.852-2.827Z"/><path class="i" d="M272.759 283.677a2.024 2.024 0 0 0-.719.484 4.263 4.263 0 0 0-.49.636c-.242.356-.445 1.133-.3 1.228s.986-1.273 1.12-.973 0 .636.172.636.776-1.4 1.272-1.839-1.055-.172-1.055-.172Z"/><path class="m" d="M281.037 305.138a4.193 4.193 0 0 1-.528-.057l-.363-14.52Z"/><path class="j" d="m282.437 297.293.509-.668 5.408-3.13a.757.757 0 0 0 .312-.6v-4.454l.312-.4-.293-.172a.2.2 0 0 0-.21 0l-6.127 3.544a.757.757 0 0 0-.312.6v4.823a.274.274 0 0 0 .115.255Z"/><path class="n" d="m286.171 294.754.382-.223 2.106-3.658v-2.401l.312-.4-.293-.172a.2.2 0 0 0-.21 0l-6.127 3.544a.636.636 0 0 0-.229.274Z"/><path class="j" d="m288.862 288.245.14-.178-.293-.172a.2.2 0 0 0-.21 0l-.108.064ZM282.285 291.49a.834.834 0 0 0-.254.515l.6.35.286-.5Z"/><path class="f" d="m282.634 291.622 6.121-3.544c.178-.1.318 0 .318.235v4.816a.745.745 0 0 1-.318.6l-6.121 3.542c-.172.1-.312 0-.312-.235v-4.816a.744.744 0 0 1 .312-.6Z"/><path class="i" d="M286.21 288.054a14.744 14.744 0 0 1 .223 2.036c-.038.49-.305 1.272-.509 1.272s0-1.985-.356-1.794-.388.534-.547.414.28-1.8.159-2.545 1.03.617 1.03.617Z"/><path class="l" d="M279.466 271.27c-1.234.439-1.476.172-1.489.159a1.314 1.314 0 0 1 0-.229 2.507 2.507 0 0 1 .083-.789l3.181-.433a3.512 3.512 0 0 1-1.775 1.292Z"/><path class="h" d="M277.862 268.744a3.639 3.639 0 0 1 3.232-1.2 2.843 2.843 0 0 1 2.388 2.823 4.218 4.218 0 0 1-1.139 3.353.867.867 0 0 1-.134-.064c-.477-.312-.528-.484-.528-.484l-.1-.935a.261.261 0 0 1 .235-.261.471.471 0 0 0 .344-.21.554.554 0 0 0-.395-.929.42.42 0 0 1-.433-.305.216.216 0 0 0-.286-.153 6.138 6.138 0 0 1-3.118.426c-1.246-.356-.359-1.813-.066-2.061Z"/><path class="k" d="m279.268 272.384-.751-.2a1.813 1.813 0 0 0 .884.713c.528.14.6-.305.6-.305Z"/><path class="f" d="m284.93 289.957.643-.369-.242.394-.324.121Z"/><path class="o" d="m155.288 310.558 4.988-2.882 4.988 2.882-4.988 2.876Z"/><path class="o" d="m160.276 307.676 4.988-2.882 4.988 2.882-4.988 2.882Z"/><path class="p" d="M159.528 305.226v-8.627l-4.237-2.45v8.63Z"/><path class="q" d="m159.526 296.599 4.237-2.45v8.63l-4.237 2.443Z"/><path class="r" d="m155.288 294.15 4.237-2.443 4.237 2.443-4.237 2.45Z"/><path class="s" d="m155.288 306.041 4.237-2.443v1.629l-4.237 2.45Z"/><path class="t" d="M163.763 307.676V294.62l-4.237-2.443v13.05Z"/><path class="u" d="m163.763 294.62 4.237-2.443v13.05l-4.237 2.45Z"/><path class="v" d="m159.526 292.177 4.237-2.45 4.237 2.45-4.237 2.443Z"/><path class="j" d="M163.763 307.676V294.62l-4.237-2.443v13.05Z"/><path class="f" d="m163.763 294.62 4.237-2.443v13.05l-4.237 2.45Z"/><path class="n" d="m159.526 292.177 4.237-2.45 4.237 2.45-4.237 2.443Z"/><path class="w" d="M159.528 310.119v-7.336l-4.237-2.45v7.342Z"/><path class="x" d="m159.526 302.783 4.237-2.45v7.342l-4.237 2.443Z"/><path class="e" d="m155.288 300.335 4.237-2.45 4.237 2.45-4.237 2.45Z"/><path class="o" d="m232.077 300.607 4.995-2.882 4.988 2.882-4.988 2.876Z"/><path class="o" d="m237.072 297.725 4.988-2.882 4.988 2.882-4.988 2.882Z"/><path class="p" d="M236.321 295.276v-8.628l-4.244-2.443v8.628Z"/><path class="q" d="m236.321 286.648 4.237-2.443v8.628l-4.237 2.443Z"/><path class="r" d="m232.077 284.205 4.244-2.45 4.237 2.45-4.237 2.443Z"/><path class="s" d="m234.584 295.434 4.237-2.443v1.629l-4.237 2.45Z"/><path class="t" d="M243.065 297.069v-15.646l-4.244-2.933v15.645Z"/><path class="u" d="m243.065 281.423 4.237-2.933v15.645l-4.237 2.933Z"/><path class="v" d="m238.821 278.491 4.244-2.933 4.237 2.933-4.237 2.933Z"/><path class="j" d="M243.065 297.069v-15.646l-4.244-2.933v15.645Z"/><path class="f" d="m243.065 281.423 4.237-2.933v15.645l-4.237 2.933Z"/><path class="n" d="m238.821 278.491 4.244-2.933 4.237 2.933-4.237 2.933Z"/><path class="w" d="M238.777 301.74v-7.342l-4.244-2.443v7.342Z"/><path class="x" d="m238.777 294.397 4.237-2.443v7.342l-4.237 2.443Z"/><path class="e" d="m234.533 291.955 4.244-2.45 4.237 2.45-4.237 2.443Z"/><path class="y" d="M198.738 262.954a.344.344 0 0 0 .344-.344v-14.105a.344.344 0 1 0-.687 0v14.105a.344.344 0 0 0 .343.344Z"/><path class="y" d="M199.966 252.907h-2.45v-5.287h2.45z"/><path class="y" d="M197.882 253.404a1.909 1.909 0 0 0 1.731 0 .528.528 0 0 0 0-1 1.909 1.909 0 0 0-1.731 0 .528.528 0 0 0 0 1ZM200.741 248.409h-3.97v-8.297h3.97z"/><path class="z" d="M199.985 248.352v1.794a3.181 3.181 0 0 1-2.45 0v-1.794a3.181 3.181 0 0 1 2.45 0Z"/><path class="y" d="M197.357 249.217a3.073 3.073 0 0 0 2.806 0 .859.859 0 0 0 0-1.622 3.111 3.111 0 0 0-2.806 0 .859.859 0 0 0 0 1.622ZM185.002 270.696a.344.344 0 0 0 .344-.344v-14.111a.344.344 0 0 0-.344-.344.35.35 0 0 0-.344.344v14.131a.35.35 0 0 0 .344.324Z"/><path class="y" d="M186.229 260.645h-2.45v-5.287h2.45z"/><path class="y" d="M184.139 261.147a1.909 1.909 0 0 0 1.731 0c.484-.28.484-.725 0-1a1.909 1.909 0 0 0-1.731 0 .528.528 0 0 0 0 1ZM186.993 256.28h-3.97v-8.297h3.97z"/><path class="z" d="M186.229 256.23v1.788a3.181 3.181 0 0 1-2.45 0v-1.788a3.181 3.181 0 0 1 2.45 0Z"/><path class="y" d="M183.601 257.094a3.111 3.111 0 0 0 2.806 0 .859.859 0 0 0 0-1.622 3.073 3.073 0 0 0-2.806 0 .859.859 0 0 0 0 1.622ZM171.632 261.751l-5.33-3.137 5.071-6.331 1.336 2.176ZM210.298 227.005l-8.5-4.886.318 4.886c0 .006 4.886 1.514 4.886 1.514Z"/><path d="M131.343 50.993a5.23 5.23 0 0 1 1.839-.681c.853-4.5 3.989-9.289 7.724-11.453a7.635 7.635 0 0 1 3.181-1.069c.509-5.459 4.307-11.662 8.907-14.322 2.411-1.393 4.594-1.559 6.2-.706l.083.045.121.07 5.014 2.959-1.68 1.342c1.5.636 2.437 2.329 2.437 4.8a15.764 15.764 0 0 1-7.164 12.413l-26.662 19.053c-2.971 1.718-5.383.324-5.383-3.1a11.952 11.952 0 0 1 5.383-9.351Z" transform="translate(38.809 194.84)" style="fill:#e5f0f9"/><path class="y" d="m203.731 224.792-11.5-6.719c2.233-1.164 4.257-1.272 5.764-.464l.083.045.121.07 5.014 2.959-1.667 1.336a4 4 0 0 1 2.185 2.773ZM182.495 244.567l-8.4-4.925a16.269 16.269 0 0 1 5.618-5.936q.439-.248.859-.439l10.676 6.242Z"/><path class="ab" d="m206.809 221.526-4.014 2.321-7.358-4.321a14.664 14.664 0 0 1 1.652-1.119 10.553 10.553 0 0 1 2.567-1.078ZM175.025 238.191l6.7 3.945-2.3 2.6-6.083-3.595a18.955 18.955 0 0 1 1.683-2.95Z"/><path class="ab" d="M175.413 248.931a5.23 5.23 0 0 1 1.839-.681c.853-4.5 3.989-9.289 7.724-11.453a7.635 7.635 0 0 1 3.181-1.069c.509-5.459 4.307-11.662 8.907-14.322 4.956-2.863 8.977-.541 8.977 5.179v.592c3.62-1.686 6.452.21 6.452 4.5a15.774 15.774 0 0 1-7.164 12.413l-29.9 17.255c-2.971 1.718-5.383.324-5.383-3.1a11.847 11.847 0 0 1 5.367-9.314Z"/><path class="k" d="M206.017 227.185v-.592c2-.776 3.722-.439 4.8.814-1.161-.992-2.866-1.126-4.8-.222ZM174.974 248.505a5.319 5.319 0 0 1 1.839-.681c.859-4.5 3.989-9.289 7.724-11.453a7.635 7.635 0 0 1 3.181-1.069c.515-5.459 4.307-11.662 8.907-14.322 3.092-1.781 5.815-1.552 7.431.255-1.648-1.406-4.167-1.457-7 .172-4.606 2.66-8.4 8.863-8.907 14.322a7.635 7.635 0 0 0-3.181 1.069c-3.735 2.157-6.871 6.941-7.724 11.453a5.23 5.23 0 0 0-1.839.681 11.89 11.89 0 0 0-5.376 9.353 4.454 4.454 0 0 0 .859 2.863 4 4 0 0 1-1.273-3.289 11.82 11.82 0 0 1 5.359-9.354Z"/><path class="y" d="m206.647 228.545-2.246 1.043.115-2.475v-.522c0-2.208-.636-3.818-1.877-4.5s-2.933-.477-4.848.636c-4.11 2.38-7.7 8.157-8.169 13.164l-.115 1.272-1.273.1a6.025 6.025 0 0 0-2.545.872c-3.264 1.909-6.21 6.267-7 10.422l-.2 1.037-1.05.165a3.817 3.817 0 0 0-1.317.5 10.3 10.3 0 0 0-4.632 8.017c0 1.082.3 1.909.827 2.182a2.534 2.534 0 0 0 2.3-.375l29.9-17.261a14.417 14.417 0 0 0 6.413-11.109c0-1.578-.464-2.78-1.272-3.3a2.214 2.214 0 0 0-1.19-.318 4.517 4.517 0 0 0-1.821.45Z"/><path class="g" d="m191.726 247.277-.789-.394.776-.585ZM194.092 236.626l-.763-.388-.013.4ZM189.474 244.789l-.8-.4 1.54-1.463Z"/><path class="g" d="m191.166 246.831 3.735-2.2a.8.8 0 0 0 .344-.636v-4.315l-4.454 2.6v4.32c.032.27.191.371.375.231Z"/><path class="g" d="m193.337 236.244 4.034 2.6c.172.108.032.522-.229.674l-4.117 2.424-4.117 2.424c-.261.153-.4-.1-.229-.4l4-7.311c.175-.341.486-.526.658-.411Z"/><path class="k" d="m191.968 247.265 3.735-2.2a.8.8 0 0 0 .344-.636v-4.322l-4.422 2.6v4.32c-.001.244.152.35.343.238Z"/><path class="k" d="m194.138 236.651 4.034 2.6c.172.115 0 .522-.229.674l-4.118 2.421-4.117 2.43c-.261.153-.4-.1-.235-.407l4.008-7.33c.173-.324.485-.502.657-.388ZM199.151 251.984c0 .248.172.344.382.223a.846.846 0 0 0 .382-.636c0-.242-.172-.344-.382-.223a.859.859 0 0 0-.382.636ZM185.345 259.843c0 .242.172.337.382.216a.84.84 0 0 0 .382-.636c0-.248-.172-.344-.382-.223a.846.846 0 0 0-.382.643Z"/><path class="o" d="m209.967 313.179 17.471-9.964c.636-.363.56-1.012-.178-1.438l-10.053-5.8a2.774 2.774 0 0 0-2.494-.1l-17.471 9.958c-.636.369-.56 1.012.178 1.438l10.046 5.8a2.774 2.774 0 0 0 2.501.106Z"/><path class="ac" d="M195.709 302.484v-40.783l16.211-4.244 2.984-1.718a2.959 2.959 0 0 1 2.679.108l2.787 1.61h8.65l-2.545 39.371a.776.776 0 0 1-.458.719l-16.18 12.2a2.946 2.946 0 0 1-2.672-.108l-10.784-6.223c-.481-.276-.698-.594-.672-.932Z"/><path class="ad" d="M216.145 255.465a3.137 3.137 0 0 1 1.438.375l2.787 1.61h8.647v40.917a.789.789 0 0 1-.458.719l-18.744 10.683a2.4 2.4 0 0 1-1.241.267l-.191-41.146Z"/><path class="y" d="M209.643 309.819a3.054 3.054 0 0 1-2.138 0v-41.45h2.138Z"/><path class="ad" d="m209.811 268.865 18.744-10.689c.681-.394.6-1.088-.2-1.546l-10.753-6.227a2.984 2.984 0 0 0-2.679-.115l-18.737 10.694c-.687.394-.6 1.088.191 1.546l10.784 6.223a2.971 2.971 0 0 0 2.653.115Z"/><path class="ae" d="m196.358 261.764 10.784 6.229a2.946 2.946 0 0 0 2.672.108l18.744-10.683a.993.993 0 0 0 .337-.305.719.719 0 0 1-.337 1.063l-18.743 10.689a2.971 2.971 0 0 1-2.672-.115l-10.784-6.223c-.636-.356-.8-.853-.534-1.273a1.476 1.476 0 0 0 .533.51Z"/><path class="af" d="m209.287 264.529 12.477-7.234c.318-.185.28-.509-.089-.719l-5.043-2.912a1.368 1.368 0 0 0-1.273-.051l-12.46 7.216c-.318.185-.28.509.089.725l5.071 2.927a1.406 1.406 0 0 0 1.228.048Z"/><path class="ag" d="m216.022 257.648.725-.414c.045 0 .038-.076 0-.1l-.7-.407a.2.2 0 0 0-.172 0l-.719.42c-.045 0-.045.07 0 .1l.694.4a.184.184 0 0 0 .172.001ZM213.607 259.005l.719-.414c.045 0 .045-.07 0-.1l-.7-.4a.185.185 0 0 0-.172 0l-.725.414c-.045 0-.038.07 0 .1l.7.4a.185.185 0 0 0 .178 0ZM211.185 260.402l.725-.42c.045 0 .038-.07 0-.1l-.7-.4a.185.185 0 0 0-.172 0l-.725.42c-.045 0-.038.07 0 .1l.7.407a.2.2 0 0 0 .172 0ZM208.777 261.79l.719-.42c.045 0 .038-.07 0-.1l-.694-.407a.216.216 0 0 0-.178 0l-.719.42c-.045 0-.038.07 0 .1l.694.4a.2.2 0 0 0 .178.007Z"/><path class="y" d="m221.763 257.297-.07-.051-5.045-2.917a1.413 1.413 0 0 0-1.273-.051l-12.464 7.237c-.293-.216-.312-.5 0-.674l12.464-7.228a1.368 1.368 0 0 1 1.273.051l5.045 2.914c.363.21.363.534.07.719Z"/><path class="af" d="m205.037 276.939-7.094-4.059a1.724 1.724 0 0 1-.725-1.381v-2.545c0-.528.324-.776.725-.547l7.094 4.066a1.724 1.724 0 0 1 .725 1.381v2.545c-.005.528-.325.776-.725.54Z"/><path class="k" d="M197.592 268.337a.706.706 0 0 0-.185.528v2.545a1.724 1.724 0 0 0 .725 1.381l7.094 4.066a.579.579 0 0 0 .35.076.433.433 0 0 1-.541 0l-7.094-4.059a1.724 1.724 0 0 1-.725-1.381v-2.545c.026-.35.154-.573.376-.611Z"/><path class="y" d="m202.905 274.19-.636-.375a.382.382 0 0 1-.153-.3v-.694c0-.121.07-.172.153-.121l.636.375a.382.382 0 0 1 .153.3v.7c-.002.115-.089.159-.153.115Z"/><path class="k" d="m200.729 272.917-.636-.375a.382.382 0 0 1-.153-.3v-.7c0-.115.07-.165.153-.115l.636.375a.375.375 0 0 1 .153.3v.694c0 .121-.07.183-.153.121Z"/><path class="af" d="m204.994 286.203-7.12-4.059a1.743 1.743 0 0 1-.725-1.381v-2.545c0-.534.324-.776.725-.547l7.094 4.059a1.743 1.743 0 0 1 .725 1.381v2.545c.031.534-.293.776-.699.547Z"/><path class="k" d="M197.555 277.601a.694.694 0 0 0-.185.528v2.545a1.743 1.743 0 0 0 .725 1.381l7.094 4.059a.5.5 0 0 0 .35.076.426.426 0 0 1-.541 0l-7.12-4.047a1.743 1.743 0 0 1-.725-1.381v-2.545c.026-.355.179-.576.402-.616Z"/><path class="y" d="m202.868 283.448-.636-.375a.382.382 0 0 1-.153-.3v-.7c0-.115.07-.165.153-.115l.636.375a.375.375 0 0 1 .153.3v.694c0 .114-.051.171-.153.121Z"/><path class="k" d="m200.691 282.187-.636-.375a.382.382 0 0 1-.153-.3v-.694c0-.115.07-.172.153-.121l.636.375a.382.382 0 0 1 .153.3v.7c0 .115-.07.166-.153.115Z"/><path class="af" d="m205.037 294.55-7.094-4.066a1.724 1.724 0 0 1-.725-1.381v-2.544c0-.528.324-.776.725-.541l7.094 4.078a1.724 1.724 0 0 1 .72 1.383v2.545c0 .526-.32.762-.72.526Z"/><path class="k" d="M197.592 285.948a.706.706 0 0 0-.185.528v2.545a1.724 1.724 0 0 0 .725 1.381l7.095 4.066a.579.579 0 0 0 .35.076.439.439 0 0 1-.541 0l-7.094-4.066a1.724 1.724 0 0 1-.725-1.381v-2.545c.025-.337.153-.566.375-.604Z"/><path class="y" d="m202.905 291.794-.636-.375a.382.382 0 0 1-.153-.3v-.694c0-.115.07-.172.153-.121l.636.375a.382.382 0 0 1 .153.3v.7c-.002.115-.089.166-.153.115Z"/><path class="k" d="m200.729 290.542-.636-.375a.382.382 0 0 1-.153-.3v-.7c0-.115.07-.165.153-.115l.636.375a.382.382 0 0 1 .153.3v.694c0 .114-.07.171-.153.121Z"/><path class="af" d="m205.037 303.611-7.094-4.059a1.724 1.724 0 0 1-.725-1.381v-2.545c0-.528.324-.776.725-.547l7.094 4.066a1.724 1.724 0 0 1 .725 1.381v2.545c-.005.527-.325.776-.725.54Z"/><path class="k" d="M197.592 295.008a.706.706 0 0 0-.185.528v2.545a1.724 1.724 0 0 0 .725 1.381l7.094 4.066a.579.579 0 0 0 .35.076.433.433 0 0 1-.541 0l-7.094-4.059a1.724 1.724 0 0 1-.725-1.381v-2.545c.026-.344.154-.573.376-.611Z"/><path class="y" d="m202.905 300.856-.636-.375a.382.382 0 0 1-.153-.3v-.694c0-.121.07-.172.153-.121l.636.375a.382.382 0 0 1 .153.3v.7c-.002.115-.089.167-.153.115Z"/><path class="k" d="m200.729 299.602-.636-.375a.382.382 0 0 1-.153-.3v-.7c0-.115.07-.165.153-.115l.636.375a.382.382 0 0 1 .153.3v.693c0 .115-.07.16-.153.122Z"/><path class="af" d="m211.183 274.345 16.364-9.448a1.572 1.572 0 0 0 .636-1.272v-3.12c0-.484-.293-.713-.636-.5l-16.364 9.448a1.578 1.578 0 0 0-.636 1.273v3.124c-.032.48.267.709.636.495Z"/><path class="y" d="m211.647 273.248 15.429-8.908a.8.8 0 0 0 .337-.636v-2.348c0-.248-.153-.363-.337-.255l-15.429 8.908a.8.8 0 0 0-.331.636v2.341c0 .255.146.37.331.262Z"/><path class="ae" d="m223.863 265.015 2.3-1.33a.789.789 0 0 0 .324-.636c0-.242-.146-.35-.324-.248l-2.3 1.33a.783.783 0 0 0-.324.636c0 .242.146.35.324.248Z"/><path class="ac" d="M221.904 265.709c0 .242.165.337.375.223a.827.827 0 0 0 .375-.636c0-.242-.165-.337-.375-.216a.808.808 0 0 0-.375.63ZM220.567 266.478c0 .242.172.337.382.216a.846.846 0 0 0 .375-.636c0-.242-.172-.344-.375-.223a.84.84 0 0 0-.382.643Z"/><path class="ae" d="M219.238 267.252c0 .242.172.337.375.216a.84.84 0 0 0 .382-.636c0-.235-.172-.337-.382-.216a.846.846 0 0 0-.375.636Z"/><path class="ac" d="M217.908 268.018c0 .242.165.337.375.216a.827.827 0 0 0 .375-.636c0-.242-.165-.337-.375-.216a.827.827 0 0 0-.375.636ZM212.895 271.608l.776-.445a.515.515 0 0 0 .21-.4v-.821c0-.153-.1-.229-.21-.159l-.776.445a.515.515 0 0 0-.21.4v.821c0 .159.095.229.21.159Z"/><path class="af" d="m211.431 279.757 16.352-9.448a1.591 1.591 0 0 0 .636-1.272v-3.118c0-.484-.3-.713-.636-.5l-16.352 9.448a1.591 1.591 0 0 0-.636 1.272v3.137c-.025.473.274.691.636.481Z"/><path class="y" d="m211.876 278.643 15.429-8.908a.808.808 0 0 0 .337-.636v-2.341c0-.248-.153-.363-.337-.255l-15.429 8.904a.821.821 0 0 0-.337.636v2.348c.03.252.178.38.337.252Z"/><path class="ae" d="m224.111 270.43 2.3-1.33a.789.789 0 0 0 .331-.636c0-.242-.146-.356-.331-.248l-2.3 1.33a.783.783 0 0 0-.324.636c0 .242.18.348.324.248Z"/><path class="ac" d="M222.152 271.123c0 .242.172.337.375.216a.814.814 0 0 0 .382-.636c0-.242-.172-.337-.382-.223a.846.846 0 0 0-.375.643ZM220.822 271.892c0 .242.165.337.375.216a.827.827 0 0 0 .375-.636c0-.242-.165-.344-.375-.223a.827.827 0 0 0-.375.643Z"/><path class="ae" d="M219.511 272.663c0 .242.165.337.375.216a.827.827 0 0 0 .375-.636c0-.242-.165-.337-.375-.216a.827.827 0 0 0-.375.636Z"/><path class="ac" d="M218.156 273.433c0 .235.172.337.382.216a.846.846 0 0 0 .375-.636c0-.242-.172-.337-.375-.216a.84.84 0 0 0-.382.636ZM213.15 277.022l.776-.445a.515.515 0 0 0 .21-.4v-.821c0-.159-.1-.229-.21-.159l-.776.445a.515.515 0 0 0-.21.4v.821c0 .152.095.229.21.159Z"/><path class="af" d="m211.303 285.121 16.371-9.448a1.61 1.61 0 0 0 .636-1.273v-3.115c0-.49-.3-.713-.636-.5l-16.371 9.448a1.61 1.61 0 0 0-.636 1.272v3.124c-.025.479.274.702.636.492Z"/><path class="y" d="m211.775 284.026 15.429-8.908a.808.808 0 0 0 .337-.636v-2.349c0-.248-.153-.363-.337-.255l-15.429 8.908a.808.808 0 0 0-.337.636v2.348c0 .249.153.363.337.256Z"/><path class="ae" d="m223.965 275.786 2.3-1.33a.783.783 0 0 0 .324-.636c0-.242-.146-.35-.324-.248l-2.3 1.342a.789.789 0 0 0-.331.636c.025.23.172.344.331.236Z"/><path class="ac" d="M222.057 276.487c0 .242.172.337.382.216a.846.846 0 0 0 .375-.636c0-.242-.172-.337-.375-.216a.84.84 0 0 0-.382.636ZM220.694 277.257c0 .235.172.337.375.216a.84.84 0 0 0 .382-.636c0-.242-.172-.337-.382-.216a.846.846 0 0 0-.375.636Z"/><path class="ae" d="M219.365 278.007c0 .242.165.344.375.223a.827.827 0 0 0 .375-.636c0-.242-.165-.337-.375-.216a.827.827 0 0 0-.375.629Z"/><path class="ac" d="M218.035 278.79c0 .242.165.337.375.216a.827.827 0 0 0 .375-.636c0-.242-.165-.337-.375-.223a.827.827 0 0 0-.375.643ZM213.022 282.384l.776-.452a.5.5 0 0 0 .21-.4v-.821c0-.153-.1-.223-.21-.159l-.776.452a.5.5 0 0 0-.21.4v.821c0 .153.095.24.21.159Z"/><path class="af" d="m211.303 290.516 16.371-9.448a1.6 1.6 0 0 0 .636-1.272v-3.124c0-.49-.3-.713-.636-.5l-16.371 9.474a1.61 1.61 0 0 0-.636 1.272v3.118c-.025.468.274.697.636.48Z"/><path class="y" d="m211.775 289.422 15.429-8.908a.808.808 0 0 0 .337-.636v-2.348c0-.248-.153-.363-.337-.255l-15.429 8.908a.808.808 0 0 0-.337.636v2.348c0 .248.153.363.337.255Z"/><path class="ae" d="m223.965 281.189 2.3-1.33a.783.783 0 0 0 .324-.636c0-.235-.146-.35-.324-.242l-2.3 1.33a.789.789 0 0 0-.331.636c.025.242.172.344.331.242Z"/><path class="ac" d="M222.057 281.886c0 .242.172.337.382.216a.846.846 0 0 0 .375-.636c0-.235-.172-.337-.375-.216a.84.84 0 0 0-.382.636ZM220.694 282.652c0 .242.172.337.375.216a.84.84 0 0 0 .382-.636c0-.242-.172-.337-.382-.216a.846.846 0 0 0-.375.636Z"/><path class="ae" d="M219.365 283.422c0 .235.165.337.375.216a.827.827 0 0 0 .375-.636c0-.242-.165-.337-.375-.216a.827.827 0 0 0-.375.636Z"/><path class="ac" d="M218.035 284.185c0 .242.165.344.375.223a.827.827 0 0 0 .375-.636c0-.242-.165-.337-.375-.216a.827.827 0 0 0-.375.629ZM213.022 287.78l.776-.452a.5.5 0 0 0 .21-.4v-.814c0-.159-.1-.229-.21-.159l-.776.445a.515.515 0 0 0-.21.4v.821c0 .153.095.223.21.159Z"/><path class="af" d="m211.303 295.93 16.371-9.448a1.591 1.591 0 0 0 .636-1.273v-3.123c0-.484-.3-.713-.636-.5l-16.371 9.455a1.591 1.591 0 0 0-.636 1.272v3.118c-.025.487.274.716.636.499Z"/><path class="y" d="m211.775 294.837 15.429-8.908a.8.8 0 0 0 .337-.636v-2.342c0-.248-.153-.363-.337-.255l-15.429 8.908a.8.8 0 0 0-.337.636v2.341c0 .25.153.364.337.256Z"/><path class="ae" d="m223.965 286.603 2.3-1.33a.789.789 0 0 0 .324-.636c0-.242-.146-.356-.324-.248l-2.3 1.342a.77.77 0 0 0-.331.636c.025.229.172.338.331.236Z"/><path class="ac" d="M222.057 287.297c0 .242.172.337.382.223a.846.846 0 0 0 .375-.636c0-.242-.172-.337-.375-.216a.814.814 0 0 0-.382.629ZM220.694 288.066c0 .242.172.337.375.216a.834.834 0 0 0 .382-.636c0-.242-.172-.344-.382-.223a.846.846 0 0 0-.375.643Z"/><path class="ae" d="M219.365 288.824c0 .242.165.337.375.216a.827.827 0 0 0 .375-.636c0-.235-.165-.337-.375-.216a.827.827 0 0 0-.375.636Z"/><path class="ac" d="M218.035 289.607c0 .242.165.337.375.216a.827.827 0 0 0 .375-.636c0-.242-.165-.337-.375-.216a.827.827 0 0 0-.375.636ZM213.022 293.195l.776-.445a.515.515 0 0 0 .21-.4v-.821c0-.153-.1-.229-.21-.159l-.776.445a.515.515 0 0 0-.21.4v.821c0 .159.095.242.21.159Z"/><path class="af" d="m211.303 301.25 16.371-9.448a1.591 1.591 0 0 0 .636-1.273v-3.118c0-.49-.3-.719-.636-.5l-16.371 9.455a1.591 1.591 0 0 0-.636 1.272v3.124c-.025.476.274.704.636.488Z"/><path class="y" d="m211.775 300.156 15.429-8.908a.8.8 0 0 0 .337-.636v-2.341c0-.248-.153-.363-.337-.255l-15.429 8.908a.8.8 0 0 0-.337.636v2.341c0 .249.153.376.337.255Z"/><path class="ae" d="m223.965 291.923 2.3-1.33a.783.783 0 0 0 .324-.636c0-.242-.146-.35-.324-.248l-2.3 1.343a.77.77 0 0 0-.331.636c.025.229.172.318.331.235Z"/><path class="ac" d="M222.057 292.641c0 .242.172.344.382.223a.846.846 0 0 0 .375-.636c0-.242-.172-.337-.375-.216a.834.834 0 0 0-.382.629ZM220.694 293.385c0 .242.172.337.375.216a.834.834 0 0 0 .382-.636c0-.242-.172-.337-.382-.223a.846.846 0 0 0-.375.643Z"/><path class="ae" d="M219.365 294.155c0 .242.165.337.375.216a.827.827 0 0 0 .375-.636c0-.235-.165-.337-.375-.216a.827.827 0 0 0-.375.636Z"/><path class="ac" d="M218.035 294.929c0 .242.165.337.375.216a.827.827 0 0 0 .375-.636c0-.242-.165-.337-.375-.216a.827.827 0 0 0-.375.636ZM213.022 298.515l.776-.445a.515.515 0 0 0 .21-.4v-.821c0-.153-.1-.223-.21-.159l-.776.445a.515.515 0 0 0-.21.4v.833c0 .147.095.217.21.147Z"/><path class="af" d="m211.558 306.639 16.364-9.448a1.578 1.578 0 0 0 .668-1.272v-3.118c0-.49-.3-.713-.668-.5l-16.364 9.467a1.572 1.572 0 0 0-.636 1.272v3.124c-.025.475.267.704.636.475Z"/><path class="y" d="m212.029 305.558 15.423-8.908a.8.8 0 0 0 .337-.636v-2.348c0-.248-.146-.363-.337-.255l-15.423 8.908a.808.808 0 0 0-.337.636v2.341c0 .255.185.37.337.262Z"/><path class="ae" d="m224.238 297.324 2.3-1.33a.783.783 0 0 0 .324-.636c0-.242-.146-.35-.324-.248l-2.3 1.349a.783.783 0 0 0-.324.636c0 .223.146.331.324.229Z"/><path class="ac" d="M222.279 298.018c0 .242.165.344.375.223a.827.827 0 0 0 .375-.636c0-.242-.165-.337-.375-.216a.827.827 0 0 0-.375.63ZM220.948 298.787c0 .242.165.337.375.216a.808.808 0 0 0 .375-.636c0-.242-.165-.337-.375-.216a.808.808 0 0 0-.375.636Z"/><path class="ae" d="M219.613 299.557c0 .242.172.337.382.216a.846.846 0 0 0 .375-.636c0-.242-.172-.344-.375-.223a.84.84 0 0 0-.382.643Z"/><path class="ac" d="M218.283 300.328c0 .242.172.337.375.216a.84.84 0 0 0 .382-.636c0-.235-.172-.337-.382-.216a.846.846 0 0 0-.375.636ZM213.276 303.916l.776-.445a.515.515 0 0 0 .21-.4v-.818c0-.153-.1-.223-.21-.159l-.776.445a.5.5 0 0 0-.21.4v.821c0 .156.083.226.21.156Z"/><path class="o" d="m188.52 325.961 17.465-9.957c.636-.369.56-1.018-.178-1.444l-10.056-5.803a2.761 2.761 0 0 0-2.488-.1l-17.471 9.964c-.636.369-.56 1.012.178 1.438l10.053 5.8a2.774 2.774 0 0 0 2.497.102Z"/><path class="ac" d="M174.235 315.266v-40.784l16.212-4.244 2.99-1.724a2.946 2.946 0 0 1 2.672.108l2.787 1.61h8.647l-2.547 39.371a.783.783 0 0 1-.464.719l-16.2 12.222a2.946 2.946 0 0 1-2.672-.108l-10.778-6.254c-.45-.261-.673-.594-.647-.916Z"/><path class="ad" d="M194.697 268.247a3.111 3.111 0 0 1 1.432.375l2.787 1.61h8.647v40.86a.776.776 0 0 1-.458.719l-18.769 10.734a2.386 2.386 0 0 1-1.241.267l-.191-41.146Z"/><path class="y" d="M188.169 322.611a3.054 3.054 0 0 1-2.138 0v-41.46h2.138Z"/><path class="ad" d="m188.335 281.647 18.744-10.689c.687-.394.6-1.088-.191-1.546l-10.787-6.223a2.971 2.971 0 0 0-2.672-.115l-18.744 10.689c-.681.394-.6 1.088.191 1.546l10.784 6.223a2.971 2.971 0 0 0 2.675.115Z"/><path class="ae" d="m174.884 274.546 10.784 6.229a2.946 2.946 0 0 0 2.672.108l18.744-10.683a1.018 1.018 0 0 0 .344-.305.719.719 0 0 1-.344 1.063l-18.75 10.688a2.971 2.971 0 0 1-2.672-.115l-10.784-6.223c-.636-.356-.8-.853-.528-1.272a1.4 1.4 0 0 0 .534.51Z"/><path class="af" d="m187.813 277.314 12.477-7.234c.324-.185.28-.509-.089-.719l-5.045-2.914a1.368 1.368 0 0 0-1.272-.051l-12.478 7.226c-.318.185-.28.509.089.725l5.045 2.914a1.413 1.413 0 0 0 1.273.053Z"/><path class="ag" d="m194.551 270.405.719-.414a.057.057 0 0 0 0-.1l-.7-.407a.2.2 0 0 0-.172 0l-.725.42c-.045 0-.038.07 0 .1l.7.4a.184.184 0 0 0 .178.001ZM192.152 271.792l.725-.414c.045 0 .038-.07 0-.1l-.7-.4a.184.184 0 0 0-.172 0l-.725.414c-.045 0-.038.07 0 .1l.7.4a.184.184 0 0 0 .172 0ZM189.722 273.185l.719-.42c.045 0 .038-.07 0-.1l-.706-.382a.2.2 0 0 0-.178 0l-.719.42c-.045 0-.038.07 0 .1l.693.407a.216.216 0 0 0 .191-.019ZM187.304 274.573l.725-.42c.045 0 .038-.07 0-.1l-.7-.407a.2.2 0 0 0-.172 0l-.725.42c-.045 0-.038.07 0 .1l.7.4a.184.184 0 0 0 .172.007Z"/><path class="y" d="m200.29 270.08-.076-.051-5.045-2.914a1.406 1.406 0 0 0-1.272-.051l-12.458 7.228c-.3-.216-.312-.5 0-.674l12.477-7.228a1.368 1.368 0 0 1 1.272.051l5.045 2.914c.337.216.382.541.057.725Z"/><path class="af" d="m183.563 289.721-7.094-4.078a1.737 1.737 0 0 1-.719-1.381v-2.545c0-.528.324-.776.719-.547l7.094 4.066a1.724 1.724 0 0 1 .725 1.381v2.545c0 .547-.324.795-.725.559Z"/><path class="k" d="M176.119 281.119a.732.732 0 0 0-.178.528v2.545a1.718 1.718 0 0 0 .719 1.381l7.094 4.066a.579.579 0 0 0 .35.076.433.433 0 0 1-.541 0l-7.094-4.072a1.737 1.737 0 0 1-.719-1.381v-2.545a.56.56 0 0 1 .369-.598Z"/><path class="y" d="m181.436 286.966-.636-.375a.375.375 0 0 1-.159-.3v-.694c0-.115.07-.172.159-.121l.636.375a.375.375 0 0 1 .159.3v.7c-.005.115-.075.166-.159.115Z"/><path class="k" d="m179.255 285.713-.636-.375a.375.375 0 0 1-.159-.3v-.668c0-.115.07-.165.159-.115l.636.375a.375.375 0 0 1 .159.3v.694c.013.082-.07.14-.159.089Z"/><path class="af" d="m183.525 299.004-7.094-4.059a1.756 1.756 0 0 1-.719-1.381v-2.545c0-.534.324-.776.719-.547l7.094 4.078a1.743 1.743 0 0 1 .727 1.381v2.545c0 .528-.326.738-.727.528Z"/><path class="k" d="M176.081 290.383a.719.719 0 0 0-.178.528v2.545a1.737 1.737 0 0 0 .719 1.381l7.094 4.059a.5.5 0 0 0 .35.076.426.426 0 0 1-.541 0l-7.094-4.059a1.756 1.756 0 0 1-.719-1.381v-2.545c0-.343.146-.566.369-.604Z"/><path class="y" d="m181.394 296.23-.635-.378a.375.375 0 0 1-.159-.3v-.7c0-.115.07-.165.159-.115l.636.375a.375.375 0 0 1 .159.3v.694c-.001.117-.071.174-.16.124Z"/><path class="k" d="m179.217 294.972-.636-.375a.375.375 0 0 1-.159-.3v-.694c0-.115.07-.172.159-.121l.636.375a.375.375 0 0 1 .159.3v.7c0 .115-.074.164-.159.115Z"/><path class="af" d="m183.563 307.339-7.094-4.066a1.737 1.737 0 0 1-.719-1.381v-2.544c0-.528.324-.776.719-.541l7.094 4.059a1.724 1.724 0 0 1 .725 1.381v2.545c0 .528-.324.776-.725.547Z"/><path class="k" d="M176.119 298.73a.732.732 0 0 0-.178.528v2.545a1.718 1.718 0 0 0 .719 1.381l7.094 4.091a.579.579 0 0 0 .35.076.439.439 0 0 1-.541 0l-7.094-4.066a1.737 1.737 0 0 1-.719-1.381v-2.544c0-.356.146-.592.369-.63Z"/><path class="y" d="m181.436 304.579-.636-.375a.375.375 0 0 1-.159-.3v-.694c0-.115.07-.172.159-.121l.636.375a.375.375 0 0 1 .159.3v.7c-.005.115-.075.164-.159.115Z"/><path class="k" d="m179.255 303.324-.636-.375a.376.376 0 0 1-.159-.3v-.7c0-.115.07-.165.159-.115l.636.375a.375.375 0 0 1 .159.3v.694c.013.114-.07.171-.159.121Z"/><path class="af" d="m183.563 316.399-7.094-4.034a1.737 1.737 0 0 1-.719-1.381v-2.545c0-.528.324-.776.719-.547l7.094 4.066a1.724 1.724 0 0 1 .725 1.381v2.545c0 .496-.324.744-.725.515Z"/><path class="k" d="M176.119 307.79a.732.732 0 0 0-.178.528v2.545a1.718 1.718 0 0 0 .719 1.381l7.094 4.066a.579.579 0 0 0 .35.076.439.439 0 0 1-.541 0l-7.094-4.021a1.737 1.737 0 0 1-.719-1.385v-2.545c0-.378.146-.607.369-.645Z"/><path class="y" d="m181.436 313.638-.636-.375a.375.375 0 0 1-.159-.3v-.694c0-.115.07-.172.159-.121l.636.375a.375.375 0 0 1 .159.3v.7c-.005.115-.075.166-.159.115Z"/><path class="k" d="m179.255 312.366-.636-.375a.375.375 0 0 1-.159-.3v-.7c0-.115.07-.165.159-.115l.636.375a.375.375 0 0 1 .159.3v.694c.013.121-.07.191-.159.121Z"/><path class="af" d="m189.714 287.125 16.364-9.448a1.578 1.578 0 0 0 .668-1.272v-3.124c0-.484-.3-.713-.668-.5l-16.364 9.452a1.571 1.571 0 0 0-.636 1.272v3.124c-.03.484.262.712.636.496Z"/><path class="y" d="m190.18 286.03 15.429-8.908a.8.8 0 0 0 .331-.636v-2.341c0-.248-.146-.363-.331-.254l-15.429 8.908a.8.8 0 0 0-.337.636v2.341c0 .248.153.363.337.254Z"/><path class="ae" d="m202.385 277.797 2.3-1.33a.789.789 0 0 0 .324-.636c0-.242-.146-.35-.324-.248l-2.3 1.33a.783.783 0 0 0-.324.636c.004.242.15.35.324.248Z"/><path class="ac" d="M200.424 278.491c0 .242.165.337.375.223a.84.84 0 0 0 .382-.636c0-.242-.172-.337-.382-.216a.827.827 0 0 0-.375.629ZM199.101 279.277c0 .242.165.337.375.216a.827.827 0 0 0 .375-.636c0-.242-.165-.344-.375-.223a.827.827 0 0 0-.375.643Z"/><path class="ae" d="M197.763 280.031c0 .242.172.337.382.216a.846.846 0 0 0 .375-.636c0-.235-.172-.337-.375-.216a.84.84 0 0 0-.382.636Z"/><path class="ac" d="M196.435 280.804c0 .242.172.337.382.216a.846.846 0 0 0 .375-.636c0-.242-.172-.337-.375-.216a.84.84 0 0 0-.382.636ZM191.428 284.37l.776-.445a.515.515 0 0 0 .21-.4v-.821c0-.153-.1-.229-.21-.159l-.776.445a.515.515 0 0 0-.21.4v.821c0 .159.095.248.21.159Z"/><path class="af" d="m189.964 292.542 16.364-9.442a1.572 1.572 0 0 0 .636-1.273v-3.125c0-.484-.293-.713-.636-.5l-16.364 9.448a1.578 1.578 0 0 0-.668 1.272v3.12c0 .485.312.708.668.5Z"/><path class="y" d="m190.427 291.445 15.429-8.908a.808.808 0 0 0 .337-.636v-2.341c0-.248-.153-.363-.337-.254l-15.429 8.907a.814.814 0 0 0-.331.636v2.348c.001.242.147.357.331.248Z"/><path class="ae" d="m202.644 283.212 2.3-1.33a.8.8 0 0 0 .324-.636c0-.242-.146-.356-.324-.248l-2.3 1.33a.77.77 0 0 0-.331.636c.02.241.147.35.331.248Z"/><path class="ac" d="M200.678 283.905c0 .242.172.337.382.216a.827.827 0 0 0 .375-.636c0-.242-.172-.337-.375-.223a.84.84 0 0 0-.382.643ZM199.348 284.676c0 .242.172.337.382.216a.846.846 0 0 0 .375-.636c0-.242-.172-.344-.375-.223a.84.84 0 0 0-.382.643Z"/><path class="ae" d="M198.018 285.449c0 .242.172.337.375.216a.84.84 0 0 0 .382-.636c0-.242-.172-.337-.382-.216a.846.846 0 0 0-.375.636Z"/><path class="ac" d="M196.69 286.215c0 .235.165.337.375.216a.827.827 0 0 0 .375-.636c0-.242-.165-.337-.375-.216a.827.827 0 0 0-.375.636ZM191.675 289.804l.776-.445a.515.515 0 0 0 .21-.4v-.821c0-.153-.1-.229-.21-.159l-.776.445a.515.515 0 0 0-.21.4v.821c0 .153.095.229.21.159Z"/><path class="af" d="m189.841 297.903 16.364-9.448a1.6 1.6 0 0 0 .636-1.272v-3.118c0-.49-.293-.713-.636-.5l-16.364 9.445a1.591 1.591 0 0 0-.636 1.273v3.124c-.03.483.262.706.636.496Z"/><path class="y" d="m190.307 296.81 15.423-8.908a.8.8 0 0 0 .337-.636v-2.348c0-.248-.146-.363-.337-.254l-15.423 8.907a.8.8 0 0 0-.337.636v2.348c0 .248.146.363.337.255Z"/><path class="ae" d="m202.512 288.57 2.3-1.33a.783.783 0 0 0 .324-.636c0-.242-.146-.35-.324-.248l-2.3 1.33a.8.8 0 0 0-.324.636c.004.242.144.357.324.248Z"/><path class="ac" d="M200.558 289.269c0 .242.165.337.375.216a.827.827 0 0 0 .375-.636c0-.242-.165-.337-.375-.216a.827.827 0 0 0-.375.636ZM199.221 290.038c0 .235.172.337.382.216a.846.846 0 0 0 .375-.636c0-.242-.172-.337-.375-.216a.84.84 0 0 0-.382.636Z"/><path class="ae" d="M197.879 290.803c0 .242.172.344.382.223a.846.846 0 0 0 .375-.636c0-.242-.172-.337-.375-.216a.834.834 0 0 0-.382.63Z"/><path class="ac" d="M196.562 291.572c0 .242.172.337.375.216a.833.833 0 0 0 .382-.636c0-.242-.172-.337-.382-.223a.846.846 0 0 0-.375.643ZM191.554 295.187l.77-.452a.477.477 0 0 0 .21-.4v-.821c0-.153-.089-.223-.21-.159l-.77.452a.49.49 0 0 0-.21.4v.821c0 .159.089.204.21.159Z"/><path class="af" d="m189.841 303.299 16.364-9.448a1.584 1.584 0 0 0 .636-1.273v-3.118c0-.49-.293-.713-.636-.5l-16.364 9.446a1.6 1.6 0 0 0-.636 1.273v3.143c-.03.464.262.687.636.477Z"/><path class="y" d="m190.307 302.185 15.423-8.908a.8.8 0 0 0 .337-.636v-2.348c0-.248-.146-.363-.337-.255l-15.423 8.908a.8.8 0 0 0-.337.636v2.348c0 .255.146.382.337.255Z"/><path class="ae" d="m202.512 293.966 2.3-1.323a.8.8 0 0 0 .324-.636c0-.235-.146-.35-.324-.242l-2.3 1.323a.8.8 0 0 0-.324.636c.004.234.144.348.324.242Z"/><path class="ac" d="M200.558 294.664c0 .242.165.337.375.216a.827.827 0 0 0 .375-.636c0-.235-.165-.337-.375-.216a.827.827 0 0 0-.375.636ZM199.221 295.438c0 .242.172.337.382.216a.846.846 0 0 0 .375-.636c0-.242-.172-.337-.375-.216a.84.84 0 0 0-.382.636Z"/><path class="ae" d="M197.879 296.204c0 .235.172.337.382.216a.846.846 0 0 0 .375-.636c0-.242-.172-.337-.375-.216a.84.84 0 0 0-.382.636Z"/><path class="ac" d="M196.562 296.968c0 .242.172.344.375.223a.84.84 0 0 0 .382-.636c0-.242-.172-.337-.382-.216a.846.846 0 0 0-.375.63ZM191.554 300.563l.77-.452a.477.477 0 0 0 .21-.394v-.821c0-.159-.089-.229-.21-.159l-.77.445a.5.5 0 0 0-.21.4v.821c0 .153.089.223.21.16Z"/><path class="af" d="m189.841 308.713 16.364-9.448a1.572 1.572 0 0 0 .636-1.273v-3.123c0-.484-.293-.713-.636-.5l-16.364 9.452a1.572 1.572 0 0 0-.636 1.272v3.124c-.03.482.262.713.636.496Z"/><path class="y" d="m190.307 307.618 15.423-8.908a.783.783 0 0 0 .337-.636v-2.341c0-.248-.146-.363-.337-.254l-15.423 8.908a.783.783 0 0 0-.337.636v2.341c0 .248.146.363.337.254Z"/><path class="ae" d="m202.512 299.385 2.3-1.33a.789.789 0 0 0 .324-.636c0-.242-.146-.35-.324-.248l-2.3 1.33a.783.783 0 0 0-.324.636c.004.242.144.35.324.248Z"/><path class="ac" d="M200.558 300.079c0 .242.165.337.375.223a.827.827 0 0 0 .375-.636c0-.242-.165-.337-.375-.216a.808.808 0 0 0-.375.63ZM199.221 300.846c0 .242.172.337.382.216a.846.846 0 0 0 .375-.636c0-.242-.172-.344-.375-.223a.84.84 0 0 0-.382.643Z"/><path class="ae" d="M197.879 301.619c0 .242.172.337.382.216a.846.846 0 0 0 .375-.636c0-.235-.172-.337-.375-.216a.84.84 0 0 0-.382.636Z"/><path class="ac" d="M196.562 302.388c0 .242.172.337.375.216a.84.84 0 0 0 .382-.636c0-.242-.172-.337-.382-.216a.846.846 0 0 0-.375.636ZM191.554 306.003l.77-.445a.5.5 0 0 0 .21-.4v-.821c0-.153-.089-.229-.21-.159l-.77.445a.5.5 0 0 0-.21.4v.821c0 .159.089.204.21.159Z"/><path class="af" d="m189.841 314.031 16.364-9.448a1.572 1.572 0 0 0 .636-1.273v-3.118c0-.49-.293-.719-.636-.5l-16.364 9.447a1.572 1.572 0 0 0-.636 1.273v3.124c-.03.483.262.737.636.495Z"/><path class="y" d="m190.307 312.938 15.423-8.908a.808.808 0 0 0 .337-.636v-2.341c0-.248-.146-.363-.337-.255l-15.423 8.904a.783.783 0 0 0-.337.636v2.341c0 .253.146.368.337.259Z"/><path class="ae" d="m202.512 304.73 2.3-1.33a.783.783 0 0 0 .324-.636c0-.242-.146-.35-.324-.248l-2.3 1.33a.783.783 0 0 0-.324.636c.004.248.144.325.324.248Z"/><path class="ac" d="M200.558 305.397c0 .242.165.344.375.223a.827.827 0 0 0 .375-.636c0-.242-.165-.337-.375-.216a.827.827 0 0 0-.375.63ZM199.221 306.169c0 .242.172.337.382.216a.833.833 0 0 0 .375-.636c0-.242-.172-.337-.375-.223a.84.84 0 0 0-.382.643Z"/><path class="ae" d="M197.879 306.938c0 .242.172.337.382.216a.846.846 0 0 0 .375-.636c0-.235-.172-.337-.375-.216a.84.84 0 0 0-.382.636Z"/><path class="ac" d="M196.562 307.708c0 .242.172.337.375.216a.84.84 0 0 0 .382-.636c0-.242-.172-.337-.382-.216a.846.846 0 0 0-.375.636ZM191.554 311.297l.77-.445a.5.5 0 0 0 .21-.4v-.818c0-.153-.089-.223-.21-.159l-.77.445a.5.5 0 0 0-.21.4v.821c0 .156.089.226.21.156Z"/><path class="af" d="m190.084 319.433 16.371-9.448a1.591 1.591 0 0 0 .636-1.273v-3.118c0-.49-.3-.713-.636-.5l-16.371 9.448a1.591 1.591 0 0 0-.636 1.273v3.124c-.025.481.274.71.636.494Z"/><path class="y" d="m190.558 318.34 15.429-8.908a.821.821 0 0 0 .337-.636v-2.348c0-.248-.153-.363-.337-.254l-15.429 8.907a.808.808 0 0 0-.337.636v2.354c.022.242.15.357.337.249Z"/><path class="ae" d="m202.771 310.105 2.3-1.33a.77.77 0 0 0 .331-.636c0-.242-.146-.35-.331-.248l-2.3 1.33a.77.77 0 0 0-.331.636c.001.242.147.35.331.248Z"/><path class="ac" d="M200.806 310.8c0 .242.172.344.382.223a.846.846 0 0 0 .375-.636c0-.242-.172-.337-.375-.216a.833.833 0 0 0-.382.629ZM199.476 311.57c0 .242.172.337.375.216a.814.814 0 0 0 .382-.636c0-.242-.172-.337-.382-.216a.827.827 0 0 0-.375.636Z"/><path class="ae" d="M198.146 312.362c0 .242.165.337.375.216a.827.827 0 0 0 .375-.636c0-.242-.165-.344-.375-.223a.827.827 0 0 0-.375.643Z"/><path class="ac" d="M196.816 313.11c0 .242.165.337.375.216a.827.827 0 0 0 .375-.636c0-.235-.165-.337-.375-.216a.827.827 0 0 0-.375.636ZM191.803 316.698l.776-.445a.515.515 0 0 0 .21-.4v-.821c0-.153-.1-.223-.21-.159l-.776.445a.515.515 0 0 0-.21.4v.821c0 .159.095.229.21.159Z"/><path class="f" d="M215.185 316.183a.248.248 0 0 0 .21-.121.235.235 0 0 0-.089-.324l-3.226-1.864a1.2 1.2 0 0 1-.6-1.031v-1.712a.235.235 0 0 0-.235-.235.242.242 0 0 0-.242.235v1.712a1.654 1.654 0 0 0 .833 1.438l3.219 1.9a.286.286 0 0 0 .13.002Z"/><path class="o" d="m230.549 355.35 40.624-23.452c1.145-.636 1-1.826-.324-2.59l-27.657-15.963a4.982 4.982 0 0 0-4.49-.18l-40.618 23.452c-1.152.636-1.005 1.82.324 2.583l27.658 15.964a4.969 4.969 0 0 0 4.483.186Z"/><path class="f" d="M220.741 354.236a.223.223 0 0 0 .121-.038l7.775-4.6a.242.242 0 0 0-.242-.414l-7.775 4.606a.241.241 0 0 0 .121.445Z"/><path class="af" d="m197.312 332.229 5.554-.732 35.84-20.691a4.963 4.963 0 0 1 4.486.184l25.4 14.634 3.353-.445v1.909a1.311 1.311 0 0 1-.77 1.183l-40.624 23.452a4.95 4.95 0 0 1-4.454-.184l-27.683-15.951a1.813 1.813 0 0 1-1.1-1.508Z"/><path class="o" d="m224.245 319.154 2.545-1.47h27.995l13.807 7.966 3.353-.445v1.909a1.311 1.311 0 0 1-.77 1.158l-40.625 23.452a4.187 4.187 0 0 1-2.31.433Z"/><path class="g" d="m270.456 325.401 1.489-.2v1.909a1.311 1.311 0 0 1-.77 1.158l-.719.414Z"/><path d="M226.528 231.616a5.2 5.2 0 0 1-3.817-.235v-4.25h3.818Z" transform="translate(3.615 120.312)" style="fill:#a3a3a3"/><path class="g" d="m230.549 349.835 40.624-23.471c1.145-.636 1-1.82-.324-2.583l-27.657-15.964a4.982 4.982 0 0 0-4.486-.191l-40.618 23.452c-1.152.668-1.005 1.826.324 2.59l27.658 15.961a4.969 4.969 0 0 0 4.479.2Z"/><path class="k" d="m198.412 332.996 27.658 15.96a4.988 4.988 0 0 0 4.454.185l40.625-23.452a1.508 1.508 0 0 0 .713-.783 1.228 1.228 0 0 1-.687 1.457l-40.624 23.452a4.969 4.969 0 0 1-4.454-.185l-27.658-15.964c-.9-.515-1.272-1.209-1.037-1.807a2.157 2.157 0 0 0 1.012 1.133Z"/><path class="af" d="m253.869 318.62 1.839-1.063c.146-.083.127-.229-.038-.331l-2.17-1.272a.636.636 0 0 0-.579 0l-1.839 1.063c-.146.089-.127.235.045.337l2.17 1.273a.636.636 0 0 0 .573-.006ZM251.057 320.261l1.839-1.063c.146-.089.127-.235-.038-.331l-2.17-1.272a.636.636 0 0 0-.579 0l-1.839 1.063c-.146.083-.127.235.045.331l2.17 1.273a.636.636 0 0 0 .572-.001ZM248.219 321.909l1.839-1.063c.146-.083.127-.229-.045-.331l-2.165-1.272a.636.636 0 0 0-.579 0l-1.839 1.056c-.146.089-.127.235.045.337l2.17 1.272a.636.636 0 0 0 .573 0ZM244.324 320.547l1.839-1.063c.146-.089.127-.235-.045-.331l-1.851-1.063a.636.636 0 0 0-.573 0l-1.839 1.056c-.146.089-.127.235.038.337l1.826 1.05a.636.636 0 0 0 .605.014ZM241.455 322.182l1.839-1.063c.146-.083.127-.229-.045-.331l-1.82-1.05a.636.636 0 0 0-.573 0l-1.839 1.063c-.146.083-.127.235.038.331l1.826 1.05a.636.636 0 0 0 .574 0ZM238.599 323.817l1.836-1.064c.146-.089.127-.235-.045-.331l-1.794-1.05a.636.636 0 0 0-.573 0l-1.839 1.056c-.146.089-.134.235.038.337l1.82 1.05a.636.636 0 0 0 .557.002ZM235.781 325.459l1.839-1.063c.146-.083.127-.229-.045-.331l-1.82-1.05a.636.636 0 0 0-.573 0l-1.839 1.063c-.153.083-.134.235.038.331l1.82 1.05a.636.636 0 0 0 .58 0ZM232.942 327.101l1.839-1.063c.146-.083.127-.235-.045-.331l-1.82-1.056a.636.636 0 0 0-.579 0l-1.832 1.056c-.153.089-.134.235.038.337l1.82 1.05a.636.636 0 0 0 .579.006ZM230.107 328.735l1.839-1.063c.146-.083.127-.229-.045-.331l-1.82-1.05a.636.636 0 0 0-.579 0l-1.832 1.063c-.153.083-.134.235.038.331l1.82 1.056a.636.636 0 0 0 .579-.006ZM227.267 330.377l1.832-1.063c.153-.083.134-.235-.038-.331l-1.82-1.05a.636.636 0 0 0-.579 0l-1.839 1.063c-.146.083-.127.229.045.331l1.82 1.05a.636.636 0 0 0 .579 0ZM224.429 332.013l1.832-1.056c.153-.089.134-.235-.038-.337l-1.82-1.075a.636.636 0 0 0-.579 0l-1.839 1.063c-.146.089-.127.235.045.331l1.82 1.056a.636.636 0 0 0 .579.018ZM221.585 333.654l1.839-1.063c.153-.083.134-.235-.038-.331l-1.82-1.05a.636.636 0 0 0-.579 0l-1.839 1.063c-.146.083-.127.229.045.331l1.82 1.05a.636.636 0 0 0 .572 0ZM218.748 335.27l1.839-1.056c.146-.089.134-.235-.038-.337l-1.82-1.05a.636.636 0 0 0-.579 0l-1.82 1.056c-.146.089-.127.235.045.331l1.8 1.056a.636.636 0 0 0 .573 0Z"/><path class="o" d="m240.113 319.77 1.839-1.063c.146-.089.127-.235-.045-.331l-1.82-1.056a.636.636 0 0 0-.573 0l-1.839 1.056c-.153.089-.134.235.038.337l1.82 1.05a.636.636 0 0 0 .58.007ZM242.995 318.09l1.832-1.063c.153-.083.134-.229-.038-.331l-1.82-1.05a.636.636 0 0 0-.579 0l-1.839 1.063c-.146.083-.127.235.045.331l1.82 1.05a.636.636 0 0 0 .579 0Z"/><path class="af" d="m245.877 316.437 3.957-2.284c.146-.083.127-.235-.038-.331l-1.82-1.05a.636.636 0 0 0-.579 0l-3.957 2.284c-.146.089-.127.235.038.331l1.826 1.056a.636.636 0 0 0 .573-.006ZM243.86 314.414l3.18-1.858c.146-.083.127-.229-.045-.331l-1.82-1.05a.636.636 0 0 0-.573 0l-3.181 1.826c-.146.083-.127.235.038.331l1.826 1.05a.636.636 0 0 0 .575.032Z"/><path class="o" d="m237.276 321.406 1.839-1.063c.146-.083.127-.229-.045-.331l-1.82-1.05a.636.636 0 0 0-.579 0l-1.832 1.037c-.153.083-.134.235.038.331l1.82 1.05a.636.636 0 0 0 .579.026Z"/><path class="af" d="m234.438 323.048 1.839-1.063c.146-.083.127-.235-.045-.331l-1.82-1.056a.636.636 0 0 0-.579 0l-1.839 1.056c-.146.089-.127.235.045.337l1.82 1.05a.636.636 0 0 0 .579.007ZM231.6 324.683l1.832-1.063c.153-.083.134-.229-.038-.331l-1.794-1.05a.636.636 0 0 0-.579 0l-1.839 1.063c-.146.083-.127.235.045.331l1.82 1.05a.636.636 0 0 0 .553 0ZM228.762 326.32l1.832-1.063c.153-.083.134-.235-.038-.331l-1.82-1.05a.636.636 0 0 0-.579 0l-1.839 1.063c-.146.083-.127.229.045.331l1.82 1.05a.636.636 0 0 0 .579 0ZM225.919 327.959l1.839-1.056c.146-.089.134-.235-.038-.337l-1.845-1.05a.636.636 0 0 0-.579 0l-1.839 1.063c-.146.083-.127.235.045.331l1.82 1.056a.636.636 0 0 0 .597-.007ZM223.081 329.601l1.839-1.062c.146-.083.127-.235-.038-.331l-1.82-1.05a.636.636 0 0 0-.579 0l-1.839 1.063c-.146.083-.127.229.045.331l1.82 1.05a.636.636 0 0 0 .572-.001ZM220.243 331.236l1.813-1.056c.146-.089.127-.235-.038-.337l-1.826-1.05a.636.636 0 0 0-.573 0l-1.839 1.063c-.146.089-.127.235.045.331l1.82 1.056a.636.636 0 0 0 .598-.007ZM217.405 332.874l1.839-1.063c.146-.083.127-.235-.038-.331l-1.826-1.05a.636.636 0 0 0-.573 0l-1.839 1.018c-.146.083-.127.235.038.331l1.826 1.05a.636.636 0 0 0 .573.045ZM214.567 334.52l1.839-1.063c.146-.089.127-.235-.045-.337l-1.82-1.031a.636.636 0 0 0-.573 0l-1.839 1.056c-.146.089-.127.235.038.337l1.826 1.05a.636.636 0 0 0 .574-.012ZM209.522 337.427l4.008-2.316c.153-.083.134-.229-.038-.331l-1.82-1.05a.636.636 0 0 0-.579 0l-4.008 2.316c-.146.089-.127.235.038.331l1.826 1.056a.636.636 0 0 0 .573-.006ZM203.999 334.239l3.385-1.953c.146-.089.127-.235-.045-.331l-1.826-1.056a.636.636 0 0 0-.579 0l-3.385 1.953c-.146.083-.127.235.045.331l1.82 1.05a.636.636 0 0 0 .585.006ZM232.307 321.088l1.839-1.088c.153-.083.134-.235-.038-.331l-1.82-1.056a.636.636 0 0 0-.579 0l-1.839 1.063c-.146.083-.127.229.045.331l1.82 1.05a.636.636 0 0 0 .572.031ZM235.214 319.408l1.839-1.063c.146-.083.127-.235-.045-.331l-1.82-1.05a.636.636 0 0 0-.579 0l-1.832 1.063c-.153.083-.134.229.038.331l1.82 1.05a.636.636 0 0 0 .579 0Z"/><path class="o" d="m238.122 317.728 1.839-1.063c.146-.083.127-.235-.045-.331l-1.82-1.05a.636.636 0 0 0-.573 0l-1.839 1.063c-.146.083-.134.229.038.331l1.82 1.05a.636.636 0 0 0 .58 0Z"/><path class="af" d="m241.029 316.049 1.839-1.063c.146-.083.127-.235-.045-.331l-1.82-1.018a.636.636 0 0 0-.573 0l-1.832 1.005c-.146.083-.127.229.038.331l1.826 1.05a.636.636 0 0 0 .567.026ZM229.462 322.723l1.839-1.056c.153-.089.134-.235-.038-.337l-1.82-1.05a.636.636 0 0 0-.579 0l-1.839 1.063c-.146.083-.127.235.045.331l1.82 1.056a.636.636 0 0 0 .572-.007ZM226.625 324.364l1.839-1.063c.146-.083.134-.235-.038-.331l-1.82-1.063a.636.636 0 0 0-.579 0l-1.839 1.063c-.146.083-.127.229.045.331l1.82 1.05a.636.636 0 0 0 .573.013ZM223.788 325.999l1.839-1.056c.146-.089.127-.235-.038-.337l-1.826-1.05a.636.636 0 0 0-.573 0l-1.839 1.063c-.146.089-.127.235.045.331l1.821 1.055a.636.636 0 0 0 .571-.006ZM220.949 327.634l1.839-1.063c.146-.083.127-.235-.038-.331l-1.826-1.05a.636.636 0 0 0-.573 0l-1.839 1.063c-.146.083-.127.229.045.331l1.82 1.05a.636.636 0 0 0 .572 0ZM218.112 329.276l1.839-1.056c.146-.089.127-.235-.038-.337l-1.826-1.05a.636.636 0 0 0-.573 0l-1.82 1.037c-.146.089-.127.235.038.331l1.826 1.056a.636.636 0 0 0 .554.019ZM215.274 330.918l1.839-1.063c.146-.083.127-.235-.045-.331l-1.82-1.05a.636.636 0 0 0-.573 0l-1.839 1.069c-.146.083-.127.235.038.331l1.826 1.05a.636.636 0 0 0 .574-.006ZM212.436 332.56l1.839-1.063c.146-.089.127-.235-.045-.331l-1.82-1.056a.636.636 0 0 0-.573 0l-1.839 1.056c-.146.089-.127.235.038.337l1.839 1.031a.636.636 0 0 0 .561.026ZM209.598 334.194l1.839-1.063c.146-.083.127-.229-.045-.331l-1.82-1.05a.636.636 0 0 0-.573 0l-1.839 1.063c-.146.083-.134.235.038.331l1.82 1.05a.636.636 0 0 0 .58 0ZM206.786 335.836l1.839-1.063c.146-.089.127-.235-.045-.331l-1.845-1.082a.636.636 0 0 0-.579 0l-1.832 1.056c-.153.089-.134.235.038.337l1.82 1.05a.636.636 0 0 0 .6.032ZM233.794 317.036l1.839-1.063c.153-.083.134-.235-.038-.331l-1.82-1.056a.636.636 0 0 0-.579 0l-1.839 1.056c-.146.089-.127.235.045.337l1.82 1.05a.636.636 0 0 0 .572.007ZM236.621 315.399l1.839-1.056c.146-.089.127-.235-.038-.337l-1.826-1.05a.636.636 0 0 0-.573 0l-1.843 1.063c-.146.089-.127.235.045.331l1.82 1.056a.636.636 0 0 0 .576-.007ZM239.445 313.77l1.839-1.063c.146-.083.127-.229-.038-.331l-1.826-1.05a.636.636 0 0 0-.573 0l-1.839 1.037c-.146.083-.127.235.045.331l1.82 1.05a.636.636 0 0 0 .572.026ZM242.269 312.143l1.839-1.063c.146-.083.127-.235-.045-.331l-1.82-1.05a.636.636 0 0 0-.573 0l-1.839 1.063c-.146.083-.127.229.038.331l1.826 1.05a.636.636 0 0 0 .574 0ZM239.368 310.456l1.839-1.056c.146-.089.127-.235-.045-.337l-.6-.344a.636.636 0 0 0-.573 0l-1.839 1.063c-.146.083-.127.235.045.331l.6.35a.636.636 0 0 0 .573-.007ZM235.679 312.594l1.839-1.063c.146-.083.134-.235-.038-.331l-.636-.35a.636.636 0 0 0-.573 0l-1.839 1.063c-.146.089-.127.235.038.331l.6.35a.636.636 0 0 0 .609 0ZM232.873 314.216l1.839-1.063c.146-.083.134-.235-.038-.331l-.6-.35a.636.636 0 0 0-.573 0l-1.839 1.056c-.146.089-.134.235.038.337l.636.344a.636.636 0 0 0 .537.007ZM230.055 315.839l1.839-1.063c.146-.083.134-.229-.038-.331l-.636-.344a.636.636 0 0 0-.573 0l-1.839 1.063c-.146.083-.134.229.038.331l.6.344a.636.636 0 0 0 .609 0ZM227.244 317.455l1.839-1.056c.146-.089.127-.235-.038-.337l-.6-.344a.636.636 0 0 0-.573 0l-1.839 1.063c-.146.083-.134.235.038.331l.6.35a.636.636 0 0 0 .573-.007ZM211.545 326.528l1.839-1.063c.146-.083.127-.229-.045-.331l-.636-.344a.636.636 0 0 0-.573 0l-1.839 1.063c-.146.083-.127.229.045.331l.6.344a.636.636 0 0 0 .609 0ZM208.733 328.15l1.832-1.056c.153-.089.134-.235-.038-.337l-.6-.344a.636.636 0 0 0-.573 0l-1.839 1.063c-.146.083-.127.235.045.331l.6.35a.636.636 0 0 0 .573-.007ZM205.921 329.778l1.832-1.063c.153-.089.134-.235-.038-.331l-.636-.35a.636.636 0 0 0-.573 0l-1.839 1.063c-.146.083-.127.235.045.331l.6.35a.636.636 0 0 0 .609 0ZM203.109 331.401l1.832-1.063c.153-.083.134-.235-.038-.331l-.6-.35a.636.636 0 0 0-.573 0l-1.839 1.063c-.146.089-.127.235.038.331l.6.35a.636.636 0 0 0 .579 0ZM230.964 318.67l1.839-1.063c.146-.083.134-.229-.038-.331l-1.8-1.05a.636.636 0 0 0-.579 0l-1.839 1.063c-.146.083-.127.235.045.331l1.82 1.056a.636.636 0 0 0 .552-.006ZM228.12 320.312l1.839-1.063c.146-.083.127-.235-.038-.331l-1.826-1.05a.636.636 0 0 0-.573 0l-1.839 1.063c-.146.083-.127.229.045.331l1.82 1.05a.636.636 0 0 0 .572 0ZM225.283 321.947l1.864-1.056c.146-.089.127-.235-.038-.337l-1.871-1.05a.636.636 0 0 0-.573 0l-1.839 1.063c-.146.089-.127.235.045.331l1.82 1.056a.636.636 0 0 0 .592-.007ZM222.444 323.589l1.84-1.043c.146-.083.127-.235-.045-.331l-1.82-1.05a.636.636 0 0 0-.573 0l-1.839 1.063c-.146.083-.127.229.038.331l1.826 1.05a.636.636 0 0 0 .573-.02ZM219.606 325.223l1.839-1.056c.146-.089.127-.235-.045-.337l-1.82-1.05a.636.636 0 0 0-.573 0l-1.839 1.037c-.146.089-.127.235.038.331l1.826 1.056a.636.636 0 0 0 .574.019ZM216.768 326.865l1.839-1.063c.146-.083.127-.235-.045-.331l-1.82-1.018a.636.636 0 0 0-.573 0l-1.839 1.063c-.146.083-.134.235.038.331l1.82 1.05a.636.636 0 0 0 .58-.032ZM213.931 328.507l1.839-1.063c.146-.089.127-.235-.045-.331l-1.82-1.056a.636.636 0 0 0-.573 0l-1.839 1.056c-.153.089-.134.235.038.337l1.82 1.05a.636.636 0 0 0 .58.007ZM211.094 330.139l1.839-1.063c.146-.083.127-.229-.045-.331l-1.82-1.05a.636.636 0 0 0-.579 0l-1.832 1.063c-.153.083-.134.235.038.331l1.82 1.05a.636.636 0 0 0 .579 0ZM208.256 331.784l1.839-1.063c.146-.089.127-.235-.045-.331l-1.82-1.056a.636.636 0 0 0-.579 0l-1.832 1.056c-.153.089-.134.235.038.337l1.82 1.05a.636.636 0 0 0 .579.007ZM247.189 318.874l5.408-3.124c.153-.083.134-.235-.038-.331l-1.818-1.056a.636.636 0 0 0-.579 0l-5.408 3.124c-.153.083-.134.235.038.331l1.82 1.05a.636.636 0 0 0 .577.006ZM212.315 339.005l5.414-3.1c.146-.083.127-.235-.038-.331l-1.826-1.056a.636.636 0 0 0-.573 0l-5.414 3.124c-.146.083-.127.235.045.331l1.82 1.05a.636.636 0 0 0 .572-.018ZM223.666 336.076l1.839-1.062c.146-.083.134-.235-.038-.331l-2.17-1.273a.636.636 0 0 0-.579 0l-1.839 1.063c-.146.089-.127.235.045.331l2.17 1.272a.636.636 0 0 0 .572 0ZM244.28 324.174l2.939-1.7c.146-.083.127-.235-.045-.331l-2.17-1.273a.636.636 0 0 0-.573 0l-2.937 1.671c-.146.083-.127.235.038.331l2.17 1.273a.636.636 0 0 0 .579.025ZM226.403 334.494l2.939-1.7c.146-.083.127-.235-.038-.331l-2.17-1.272a.636.636 0 0 0-.579 0l-2.939 1.7c-.146.083-.127.235.045.331l2.17 1.273a.636.636 0 0 0 .572-.001ZM240.184 326.534l2.939-1.692c.146-.089.134-.235-.038-.337l-2.17-1.273a.636.636 0 0 0-.579 0l-2.939 1.692c-.146.089-.127.235.045.337l2.17 1.273a.636.636 0 0 0 .572 0Z"/><path class="af" d="m240.317 323.246-12.776 7.374c-.159.1-.159.242 0 .331l2.208 1.272a.636.636 0 0 0 .579 0l12.776-7.381ZM215.738 339.046l-2.049 1.183c-.121.07-.108.191.032.274l.891.509a.515.515 0 0 0 .471 0l2.049-1.183c.121-.07.1-.191-.038-.267l-.884-.515a.515.515 0 0 0-.471 0ZM218.595 337.39l-2.042 1.183c-.121.07-.108.191.032.274l.891.509a.515.515 0 0 0 .471 0l2.042-1.177c.121-.07.108-.191-.032-.274l-.884-.515a.547.547 0 0 0-.478 0ZM221.42 335.753l-2.049 1.183c-.121.064-.108.191.032.267l.891.515a.516.516 0 0 0 .471 0l2.049-1.183c.121-.07.1-.191-.038-.274l-.884-.509a.515.515 0 0 0-.472.001ZM217.029 336.485l-2.049 1.183c-.121.07-.1.191.038.274l.884.509a.515.515 0 0 0 .471 0l2.049-1.183c.121-.064.108-.191 0-.267l-.891-.515a.515.515 0 0 0-.502-.001Z"/><path class="o" d="m240.036 340.737-9.391-5.421a.9.9 0 0 1-.528-.751.725.725 0 0 1 .407-.636l14.182-8.2a2.125 2.125 0 0 1 1.909.07l9.391 5.427a.91.91 0 0 1 .534.751.713.713 0 0 1-.407.636l-14.186 8.193a1.763 1.763 0 0 1-.8.191 2.163 2.163 0 0 1-1.111-.26Zm4.925-14.6-14.182 8.189c-.07.038-.184.121-.184.235s.115.255.305.369l9.359 5.427a1.667 1.667 0 0 0 1.489.07l14.188-8.189c.07-.038.185-.121.185-.235s-.115-.254-.312-.369l-9.391-5.421a1.775 1.775 0 0 0-.859-.216 1.273 1.273 0 0 0-.598.14Z"/><path class="k" d="m244.394 332.089-1.393-.783a.585.585 0 0 0-.5 0c-.153.083-.165.216-.038.286l1.393.776a.56.56 0 0 0 .5 0c.146-.082.165-.209.038-.279ZM247.347 333.743l-2.055-1.152a.566.566 0 0 0-.5 0c-.146.083-.165.21-.038.286l2.055 1.145a.56.56 0 0 0 .5 0c.146-.082.197-.209.038-.279ZM239.793 334.634l-2.653-1.489a.585.585 0 0 0-.5 0c-.146.089-.165.216-.038.286l2.64 1.521a.6.6 0 0 0 .509 0c.152-.108.171-.234.042-.318ZM240.272 332.343l-.872-.484a.56.56 0 0 0-.5 0c-.153.089-.165.216-.038.286l.872.49a.585.585 0 0 0 .5 0c.146-.094.165-.222.038-.292ZM242.225 330.873l-.56-.312a.56.56 0 0 0-.5 0c-.153.089-.165.216-.038.286l.56.312a.56.56 0 0 0 .5 0c.146-.089.165-.216.038-.286ZM244.624 329.652l-.693-.388a.56.56 0 0 0-.5 0c-.153.089-.165.216-.038.286l.694.388a.56.56 0 0 0 .5 0c.145-.089.164-.216.037-.286ZM247.318 331.16l-1.826-1.024a.566.566 0 0 0-.5 0c-.146.083-.165.21-.038.286l1.826 1.018a.56.56 0 0 0 .5 0c.151-.083.164-.21.038-.28ZM246.374 329.347l-1.311-.732a.56.56 0 0 0-.5 0c-.153.089-.165.216-.038.286l1.311.738a.56.56 0 0 0 .5 0c.152-.095.165-.216.038-.292ZM243.497 334.157l-2.316-1.3a.585.585 0 0 0-.5 0c-.153.083-.165.216-.038.286l2.322 1.272a.547.547 0 0 0 .5 0c.147-.061.166-.188.032-.258ZM242.315 334.774l-4.047-2.271a.585.585 0 0 0-.5 0c-.146.089-.165.216-.038.286l4.053 2.29a.547.547 0 0 0 .5 0c.134-.108.134-.235.032-.305ZM242.852 332.51l-2.322-1.272a.56.56 0 0 0-.5 0c-.153.089-.165.216-.038.286l2.322 1.3a.585.585 0 0 0 .5 0c.15-.099.169-.246.038-.314ZM245.26 335.136l-.84-.471a.6.6 0 0 0-.509 0c-.146.083-.165.216 0 .286l.84.471a.566.566 0 0 0 .5 0c.123-.082.136-.209.009-.286ZM245.598 331.453l-2.787-1.559a.56.56 0 0 0-.5 0c-.153.089-.165.216-.038.286l2.787 1.565a.579.579 0 0 0 .509 0 .161.161 0 0 0 .029-.292Z"/><path class="f" d="M204.183 315.159a1.833 1.833 0 0 0 .9-.242l12.515-7.247a1.228 1.228 0 0 0 .636-1.082 1.272 1.272 0 0 0-.6-1.088l-3.461-2.1a.248.248 0 0 0-.331.083.229.229 0 0 0 .083.324l3.461 2.1a.789.789 0 0 1 0 1.349l-12.509 7.247a1.33 1.33 0 0 1-1.355 0l-4.307-2.628a.229.229 0 0 0-.324.076.235.235 0 0 0 .076.324l4.307 2.634a1.807 1.807 0 0 0 .91.248Z"/><path class="ai" d="M196.415 285.4a1.183 1.183 0 0 1 1.393.216 6.636 6.636 0 0 1 1.317 3.181c0 1.037-.821.967-1.323.725a9.268 9.268 0 0 1-2.055-2.787 1.438 1.438 0 0 1 .248-1.088 4.46 4.46 0 0 1 .42-.247Z"/><path class="ad" d="m196.225 285.192-.038.9a.5.5 0 0 0 .254.464.974.974 0 0 0 .636.108c.636-.108.713-.293.757-1.19s-1.609-.282-1.609-.282Z"/><path class="ai" d="M199.578 283.677a1.19 1.19 0 0 1 1.4.216 6.687 6.687 0 0 1 1.311 3.219c0 1.031-.821.961-1.317.719a9.3 9.3 0 0 1-2.055-2.787 1.444 1.444 0 0 1 .242-1.088c.14-.111.419-.279.419-.279Z"/><path class="ad" d="m199.392 283.472-.045.891a.522.522 0 0 0 .255.471 1.037 1.037 0 0 0 .636.1c.636-.108.713-.293.757-1.19s-1.603-.272-1.603-.272Z"/><path class="e" d="M191.676 267.019c.254-4.161 4.511.636 4.511.636l2.908 2.85 2.621 2.882a2.583 2.583 0 0 1 .636 2.074l-1.063 8.074a.8.8 0 0 1-.8.694 2.4 2.4 0 0 1-.394-.038.986.986 0 0 1-.878-1.043l.2-7.552-5.484-3.315s-2.512-1.094-2.257-5.262Z"/><path class="e" d="M188.507 268.611c.261-4.167 4.511.636 4.511.636l2.914 2.85 2.621 2.882a2.6 2.6 0 0 1 .636 2.081l-1.056 8.074a.8.8 0 0 1-.8.687 2.266 2.266 0 0 1-.388-.032.986.986 0 0 1-.878-1.05l.191-7.552-5.5-3.321s-2.506-1.094-2.251-5.255Z"/><path class="aj" d="M191.026 255.242c-3.226 1.336-3.181 3.239-3.181 3.239a109.434 109.434 0 0 1 .42 11.662c-.1 1.947 10.364 2.1 8.806-3.111-1.839-6.133-1.152-11.1-2.011-11.853s-3.2-.29-4.034.063Z"/><path class="i" d="M189.989 256.929a1.5 1.5 0 0 0 1.909.77c.884-.229 1.476-.942 1.272-1.6a1.5 1.5 0 0 0-1.909-.77c-.884.232-1.443.945-1.272 1.6Z"/><path class="k" d="M190.619 257.788a1.222 1.222 0 0 1-.783-.821 1.228 1.228 0 0 1 .286-1.094 2.252 2.252 0 0 1 2.456-.636 1.222 1.222 0 0 1 .783.821 1.273 1.273 0 0 1-.286 1.094 2.176 2.176 0 0 1-1.133.694 2.361 2.361 0 0 1-.592.076 1.871 1.871 0 0 1-.731-.134Zm.713-2.31a1.794 1.794 0 0 0-.967.592.923.923 0 0 0-.229.821.935.935 0 0 0 .6.636 1.839 1.839 0 0 0 1.133.051 1.794 1.794 0 0 0 .967-.592.853.853 0 0 0-.369-1.432 1.661 1.661 0 0 0-.636-.115 2.042 2.042 0 0 0-.5.038Z"/><path class="i" d="M192.317 255.103a8.7 8.7 0 0 0 0 1.152c0 .318-1.107.636-1.393.331s-.178-.6-.248-1.692 1.641.209 1.641.209Z"/><path class="l" d="M190.701 254.887a2.271 2.271 0 0 0 1.648 1.406v-.923Z"/><circle class="i" cx="2.481" cy="2.481" transform="rotate(-30.5 556.698 -220.31)" r="2.481"/><path class="l" d="M191.675 253.028a7.635 7.635 0 0 0 2.31.592c.948 0 .738-.789.738-.789l-2.812-.407Z"/><path class="ai" d="M194.264 253.194a4.371 4.371 0 0 0-2.233-.293 1.088 1.088 0 0 0-.636.369.344.344 0 0 1-.191.14c-.185.045-.49-.725-.846-.744s-.6.242-.305.713a.961.961 0 0 1 .064 1.088c-.134.076-1.578-1.024-.305-3.544s4.5-1.164 5-.636c0 0 .528.458.961.051-.001-.039.476 3.568-1.509 2.856Z"/><path class="i" d="M189.67 263.59v1.909a.77.77 0 0 0 .255.566l3.881 3.538-.445.674-5.122-3.353a1.056 1.056 0 0 1-.426-.738l-.344-3.652Z"/><path class="aj" d="M188.138 257.54s-1.177 1.769-1.616 6.426a6.974 6.974 0 0 0 3.149.286c1.139-.349-1.533-6.712-1.533-6.712Z"/><path class="n" d="M189.887 259.78a32.322 32.322 0 0 1 .49 3.62.744.744 0 0 1-.49.719Z"/><path class="ac" d="m190.88 272.039.859-.115 5.535-3.181a.783.783 0 0 1 .693 0l3.926 2.265.515-.064v.515a.2.2 0 0 1-.121.178l-6.273 3.62a.744.744 0 0 1-.694 0l-4.269-2.469a.28.28 0 0 1-.172-.229Z"/><path class="ac" d="m195.053 270.023.394-.229h4.339l2.131 1.228.515-.064v.515a.2.2 0 0 1-.121.178l-6.273 3.62a.636.636 0 0 1-.356.07Z"/><path class="ad" d="M202.192 271.009h.229v.515a.2.2 0 0 1-.121.178l-.108.064ZM195.97 275.303a.783.783 0 0 1-.585-.038v-.878h.585Z"/><path class="k" d="m196.028 274.756 6.305-3.62c.178-.1.159-.28-.051-.4l-4.269-2.462a.764.764 0 0 0-.694 0l-6.273 3.627c-.178.1-.153.28.051.394l4.269 2.469a.764.764 0 0 0 .662-.008Z"/><path d="m173.542 109.323 5.217-3.009c.146-.089.127-.235-.045-.331l-2.284-1.272a.636.636 0 0 0-.579 0l-5.217 3.016c-.146.083-.127.235.045.331l2.284 1.272a.636.636 0 0 0 .579-.007Z" transform="translate(22.594 164.867)" style="fill:#f4f4f4"/><path class="i" d="m197.738 268.153.064.433a3.277 3.277 0 0 1 0 1.113l-.076.382a.547.547 0 0 1-.433.42.3.3 0 0 1-.35-.261l-.1-.923s-.235.312-.35.312.127-.929.388-1.457.857-.019.857-.019Z"/><path class="i" d="m195.614 261.274.674 1.33a2.691 2.691 0 0 1 .274 1.012l.293 4.556h.884l.4-5.09a2 2 0 0 0 0-.477l-.464-2.59Z"/><path class="ac" d="m196.247 275.107.522-.687 5.535-3.181a.77.77 0 0 0 .318-.636v-4.53l.318-.414-.3-.172a.191.191 0 0 0-.216 0l-6.267 3.627a.783.783 0 0 0-.318.636v4.931a.293.293 0 0 0 .121.267Z"/><path class="ac" d="m200.067 272.511.394-.229 2.157-3.748v-2.462l.318-.414-.3-.172a.191.191 0 0 0-.216 0l-6.267 3.627a.636.636 0 0 0-.235.28Z"/><path class="ad" d="m202.792 265.843.14-.185-.3-.172a.191.191 0 0 0-.216 0l-.108.064Z"/><path d="M175.041 104.11a.8.8 0 0 0-.261.528l.636.35.293-.509Z" transform="translate(21.051 165.06)" style="fill:#969696"/><path class="k" d="m196.447 269.304 6.267-3.633c.178-.1.324 0 .324.242v4.931a.77.77 0 0 1-.324.636l-6.267 3.633c-.178.1-.324 0-.324-.248v-4.932a.744.744 0 0 1 .324-.629Z"/><path class="i" d="m193.362 270.258.1.21a1.4 1.4 0 0 0 .528.579l.636.382a.636.636 0 0 0 .636 0 .375.375 0 0 0 .051-.579l-.636-.668s.363.28.464.165-.35-.484-.681-.5a1.272 1.272 0 0 1-.636-.274Z"/><path class="aj" d="M195.012 255.166a20.468 20.468 0 0 1 3.347 4.975 4.874 4.874 0 0 1-2.812 2.049c-1.994.576-.535-7.024-.535-7.024Z"/><path class="n" d="m195.97 262.038-.382-3.735.91 3.5a5.089 5.089 0 0 1-.528.235Z"/><path class="k" d="m193.227 254.645.636-.178a1.527 1.527 0 0 1-.757.636c-.445.127-.515-.255-.515-.255Z"/><path class="g" d="m264.367 316.272 7.158-4.129c.439-.255.382-.7-.127-.993l-6.91-3.989a1.909 1.909 0 0 0-1.711-.07l-7.158 4.136c-.439.248-.388.693.121.986l6.91 3.97a1.909 1.909 0 0 0 1.718.089Z"/><path class="am" d="M253.085 307.766v-3.091h6.935l2.4-1.381a2.373 2.373 0 0 1 2.144.089l2.24 1.272h6.941v3.181a.636.636 0 0 1-.369.573l-8.965 5.179a2.392 2.392 0 0 1-2.144-.089l-8.659-5a.853.853 0 0 1-.523-.733Z"/><path class="am" d="M263.412 303.07a2.5 2.5 0 0 1 1.152.305l2.24 1.272h6.941v3.181a.636.636 0 0 1-.369.573l-8.964 5.179a1.909 1.909 0 0 1-1 .21Z"/><path class="g" d="M272.956 304.661h.789v3.181a.636.636 0 0 1-.369.573l-.42.242ZM264.271 313.638a2.4 2.4 0 0 1-1.712 0v-3.608h1.712Z"/><path class="g" d="m264.411 310.456 8.965-5.179c.547-.318.477-.872-.159-1.241l-8.653-5.033a2.373 2.373 0 0 0-2.144-.089l-8.965 5.179c-.547.318-.484.878.153 1.241l8.659 5a2.392 2.392 0 0 0 2.144.121Z"/><path class="an" d="m264.252 309.489 7.508-4.333c.464-.267.407-.732-.127-1.043l-7.253-4.187a2 2 0 0 0-1.8-.07l-7.508 4.333c-.464.267-.407.732.127 1.037l7.253 4.187a1.985 1.985 0 0 0 1.8.076Z"/><path class="k" d="m256.676 308.881.073-.126 3.598 2.078-.073.126z"/><path class="ao" d="M256.413 308.578a.8.8 0 0 0 .363.636.225.225 0 0 0 .363-.21.808.808 0 0 0-.363-.636c-.229-.112-.363-.017-.363.21ZM255.218 307.913a.8.8 0 0 0 .363.636.225.225 0 0 0 .363-.21.789.789 0 0 0-.363-.636c-.198-.115-.363-.026-.363.21ZM254.053 307.238a.8.8 0 0 0 .363.636.223.223 0 0 0 .363-.2.8.8 0 0 0-.363-.636c-.198-.125-.363-.03-.363.2Z"/><path class="am" d="M253.085 302.821v-3.092h6.935l2.4-1.381a2.373 2.373 0 0 1 2.144.089l2.24 1.273h6.941v3.181a.636.636 0 0 1-.369.573l-8.965 5.179a2.392 2.392 0 0 1-2.144-.089l-8.659-5a.853.853 0 0 1-.523-.733Z"/><path class="am" d="M263.412 298.093a2.5 2.5 0 0 1 1.152.305l2.24 1.273h6.941v3.181a.636.636 0 0 1-.369.573l-8.964 5.179a1.979 1.979 0 0 1-1 .21Z"/><path class="g" d="M272.956 299.685h.789v3.181a.636.636 0 0 1-.369.573l-.42.242ZM264.271 308.682a2.443 2.443 0 0 1-1.712 0v-3.608h1.712Z"/><path class="g" d="m264.411 305.442 8.965-5.166c.547-.318.477-.872-.159-1.273l-8.653-4.995a2.373 2.373 0 0 0-2.144-.089l-8.965 5.173c-.547.318-.484.872.153 1.241l8.659 5.033a2.373 2.373 0 0 0 2.144.076Z"/><path class="k" d="m253.607 299.749 8.659 4.982a2.392 2.392 0 0 0 2.144.089l8.965-5.179a.859.859 0 0 0 .274-.242.579.579 0 0 1-.274.853l-8.965 5.173a2.373 2.373 0 0 1-2.144-.089l-8.659-4.995c-.49-.286-.636-.681-.426-.993a1.209 1.209 0 0 0 .426.401Z"/><path class="ao" d="M256.413 303.604a.815.815 0 0 0 .363.636.225.225 0 0 0 .363-.21.8.8 0 0 0-.363-.636c-.229-.114-.363-.019-.363.21ZM259.951 305.563a.789.789 0 0 0 .363.636.225.225 0 0 0 .363-.21.827.827 0 0 0-.363-.636.227.227 0 0 0-.363.21Z"/><path class="k" d="M259.951 310.692a.789.789 0 0 0 .363.636.225.225 0 0 0 .363-.21.8.8 0 0 0-.363-.636c-.204-.112-.363-.026-.363.21Z"/><path class="ao" d="M255.218 302.929a.8.8 0 0 0 .363.636.225.225 0 0 0 .363-.21.789.789 0 0 0-.363-.636c-.198-.112-.363-.019-.363.21ZM254.053 302.262a.8.8 0 0 0 .363.636.225.225 0 0 0 .363-.21.8.8 0 0 0-.363-.636c-.198-.115-.363-.026-.363.21Z"/><path class="ap" d="m263.883 302.236 4.193-2.418c.254-.153.223-.414-.07-.585l-4.053-2.335a1.126 1.126 0 0 0-1.005-.045l-4.193 2.424c-.261.146-.229.407.07.579l4.053 2.341a1.1 1.1 0 0 0 1.005.039Z"/><path class="ao" d="m263.476 300.213.585-.337c.032 0 .032-.057 0-.083l-.56-.324a.178.178 0 0 0-.14 0l-.579.337c-.038 0-.032.057 0 .083l.56.324a.165.165 0 0 0 .134 0Z"/><path class="am" d="m268.076 299.819-.057-.045-4.053-2.335a1.126 1.126 0 0 0-1.005-.045l-4.18 2.418c-.242-.172-.254-.4 0-.541l4.193-2.424a1.126 1.126 0 0 1 1.005.045l4.053 2.335c.267.178.299.413.044.592Z"/><path class="ao" d="M264.762 306.181c0 .242.165.337.382.216a.827.827 0 0 0 .375-.636c0-.248-.165-.344-.375-.223a.834.834 0 0 0-.382.643Z"/><path class="g" d="M265.958 305.5c0 .242.165.344.382.223a.846.846 0 0 0 .382-.636c0-.242-.172-.344-.382-.223a.834.834 0 0 0-.382.636Z"/><path class="ao" d="M264.762 307.606c0 .242.165.344.382.223a.84.84 0 0 0 .375-.636c0-.242-.165-.344-.375-.223a.84.84 0 0 0-.382.636ZM265.958 306.931c0 .242.165.337.382.216a.84.84 0 0 0 .382-.636c0-.242-.172-.337-.382-.216a.821.821 0 0 0-.382.636ZM264.762 311.092c0 .248.165.344.382.223a.84.84 0 0 0 .375-.636c0-.242-.165-.344-.375-.216a.821.821 0 0 0-.382.63ZM265.958 310.411c0 .242.165.337.382.216a.84.84 0 0 0 .382-.636c0-.242-.172-.337-.382-.216a.821.821 0 0 0-.382.636Z"/><path class="ap" d="M264.762 312.518c0 .242.165.344.382.223a.852.852 0 0 0 .375-.636c0-.248-.165-.344-.375-.223a.834.834 0 0 0-.382.636Z"/><path class="ao" d="M265.958 311.838c0 .242.165.344.382.223a.846.846 0 0 0 .382-.636c0-.242-.172-.344-.382-.223a.834.834 0 0 0-.382.636Z"/><path class="am" d="M253.085 303.057v-3.09h6.935l2.4-1.387a2.412 2.412 0 0 1 2.144.089l2.24 1.273h6.941v3.181a.636.636 0 0 1-.369.573l-8.961 5.171a2.373 2.373 0 0 1-2.144-.089l-8.659-4.995a.853.853 0 0 1-.527-.726Z"/><path class="am" d="M263.412 298.368a2.5 2.5 0 0 1 1.152.3l2.24 1.273h6.941v3.181a.636.636 0 0 1-.369.573l-8.964 5.173a1.978 1.978 0 0 1-1 .216Z"/><path class="g" d="M272.956 299.952h.789v3.181a.636.636 0 0 1-.369.573l-.42.242ZM264.271 308.948a2.443 2.443 0 0 1-1.712 0v-3.614h1.712Z"/><path class="g" d="m264.411 305.71 8.965-5.173c.547-.318.477-.872-.159-1.241l-8.653-4.995a2.373 2.373 0 0 0-2.144-.089l-8.965 5.173c-.547.318-.484.872.153 1.272l8.659 4.995a2.373 2.373 0 0 0 2.144.057Z"/><path class="an" d="m264.252 304.781 7.508-4.339c.464-.267.407-.732-.127-1.037l-7.253-4.187a2 2 0 0 0-1.8-.076l-7.508 4.339c-.464.267-.407.732.127 1.037l7.253 4.187a1.985 1.985 0 0 0 1.8.076Z"/><path class="k" d="m256.677 304.172.073-.126 3.598 2.078-.073.126z"/><path class="ao" d="M256.413 303.869a.827.827 0 0 0 .363.636.225.225 0 0 0 .363-.21.789.789 0 0 0-.363-.636c-.229-.112-.363-.017-.363.21ZM255.218 303.197a.8.8 0 0 0 .363.636.225.225 0 0 0 .363-.21.808.808 0 0 0-.363-.636c-.198-.114-.363-.019-.363.21ZM254.053 302.53a.8.8 0 0 0 .363.636.225.225 0 0 0 .363-.21.8.8 0 0 0-.363-.636c-.198-.134-.363-.026-.363.21Z"/><path class="am" d="M253.085 298.082v-3.1h6.935l2.4-1.387a2.392 2.392 0 0 1 2.144.089l2.24 1.272h6.941v3.181a.636.636 0 0 1-.369.573l-8.965 5.173a2.373 2.373 0 0 1-2.144-.089l-8.659-4.995a.853.853 0 0 1-.523-.717Z"/><path class="am" d="M263.412 293.386a2.424 2.424 0 0 1 1.152.3l2.24 1.272h6.941v3.181a.636.636 0 0 1-.369.573l-8.964 5.172a1.979 1.979 0 0 1-1 .21Z"/><path class="g" d="M272.956 294.977h.789v3.181a.636.636 0 0 1-.369.573l-.42.274ZM264.271 303.973a2.443 2.443 0 0 1-1.712 0v-3.633h1.712Z"/><path class="g" d="m264.411 300.735 8.965-5.173c.547-.318.477-.872-.159-1.272l-8.653-4.995a2.373 2.373 0 0 0-2.144-.089l-8.965 5.173c-.547.318-.484.872.153 1.241l8.659 4.995a2.373 2.373 0 0 0 2.144.121Z"/><path class="k" d="m253.607 295.04 8.659 5a2.411 2.411 0 0 0 2.144.089l8.965-5.179a.859.859 0 0 0 .274-.242.579.579 0 0 1-.274.853l-8.965 5.173a2.373 2.373 0 0 1-2.144-.089l-8.659-4.995c-.49-.286-.636-.687-.426-1a1.164 1.164 0 0 0 .426.388Z"/><path class="ao" d="M256.413 298.897a.8.8 0 0 0 .363.636.222.222 0 0 0 .363-.2.789.789 0 0 0-.363-.636c-.229-.125-.363-.03-.363.2ZM259.951 300.856a.808.808 0 0 0 .363.636.225.225 0 0 0 .363-.21.8.8 0 0 0-.363-.636c-.204-.114-.363-.019-.363.21Z"/><path class="k" d="M259.951 306.002a.8.8 0 0 0 .363.636.225.225 0 0 0 .363-.21.814.814 0 0 0-.363-.636c-.204-.135-.363-.035-.363.21Z"/><path class="ao" d="M255.218 298.221a.815.815 0 0 0 .363.636.225.225 0 0 0 .363-.21.8.8 0 0 0-.363-.636c-.198-.112-.363-.019-.363.21ZM254.053 297.546a.8.8 0 0 0 .363.636.225.225 0 0 0 .363-.21.8.8 0 0 0-.363-.636c-.198-.114-.363-.019-.363.21Z"/><path class="ap" d="m263.883 297.527 4.193-2.424c.254-.146.223-.407-.07-.579l-4.053-2.335a1.126 1.126 0 0 0-1.005-.045l-4.193 2.405c-.261.146-.229.407.07.579l4.053 2.335a1.126 1.126 0 0 0 1.005.064Z"/><path class="ao" d="m263.476 295.498.573-.312c.032 0 .032-.057 0-.083l-.56-.324a.153.153 0 0 0-.14 0l-.579.337c-.038 0-.032.057 0 .076l.56.324a.14.14 0 0 0 .146-.018Z"/><path class="am" d="m268.076 295.103-.057-.038-4.052-2.341a1.107 1.107 0 0 0-1.005-.038l-4.18 2.411c-.242-.165-.254-.4 0-.534l4.193-2.424a1.126 1.126 0 0 1 1.005.045l4.053 2.335c.266.177.298.438.043.584Z"/><path class="ao" d="M264.762 301.466c0 .248.165.344.382.223a.84.84 0 0 0 .375-.636c0-.242-.165-.337-.375-.216a.821.821 0 0 0-.382.629Z"/><path class="g" d="M265.958 300.792c0 .242.165.344.382.216a.84.84 0 0 0 .382-.636c0-.248-.172-.344-.382-.223a.834.834 0 0 0-.382.643Z"/><path class="ao" d="M264.762 302.897c0 .242.165.344.382.223a.853.853 0 0 0 .375-.636c0-.248-.165-.344-.375-.223a.833.833 0 0 0-.382.636ZM265.958 302.217c0 .248.165.344.382.223a.846.846 0 0 0 .382-.636c0-.242-.172-.344-.382-.223a.84.84 0 0 0-.382.636ZM264.762 306.382c0 .242.165.344.382.223a.84.84 0 0 0 .375-.636c0-.242-.165-.344-.375-.223a.834.834 0 0 0-.382.636ZM265.958 305.696c0 .248.165.344.382.223a.846.846 0 0 0 .382-.636c0-.242-.172-.344-.382-.216a.821.821 0 0 0-.382.629Z"/><path class="ap" d="M264.762 307.809c0 .242.165.337.382.216a.834.834 0 0 0 .375-.636c0-.242-.165-.337-.375-.216a.821.821 0 0 0-.382.636Z"/><path class="ao" d="M265.958 307.129c0 .242.165.344.382.223a.859.859 0 0 0 .382-.636c0-.248-.172-.344-.382-.223a.834.834 0 0 0-.382.636Z"/><path class="am" d="M253.085 293.544v-3.092h6.935l2.4-1.387a2.392 2.392 0 0 1 2.144.089l2.24 1.272h6.941v3.18a.636.636 0 0 1-.369.579l-8.965 5.173a2.373 2.373 0 0 1-2.144-.089l-8.659-4.995a.853.853 0 0 1-.523-.73Z"/><path class="am" d="M263.412 288.856a2.424 2.424 0 0 1 1.152.3l2.24 1.273h6.941v3.177a.636.636 0 0 1-.369.579l-8.964 5.176a1.979 1.979 0 0 1-1 .216Z"/><path class="g" d="M272.956 290.446h.789v3.181a.636.636 0 0 1-.369.579l-.42.242ZM264.271 299.443a2.443 2.443 0 0 1-1.712 0v-3.62h1.712Z"/><path class="g" d="m264.411 296.2 8.965-5.173c.547-.318.477-.872-.153-1.241l-8.659-4.995a2.373 2.373 0 0 0-2.144-.089l-8.965 5.173c-.547.318-.484.872.153 1.273l8.659 4.995a2.373 2.373 0 0 0 2.144.057Z"/><path class="an" d="m264.252 295.275 7.508-4.339c.464-.267.407-.732-.127-1.037l-7.253-4.187a1.985 1.985 0 0 0-1.8-.076l-7.508 4.339c-.464.261-.407.732.127 1.037l7.253 4.187a2 2 0 0 0 1.8.076Z"/><path class="k" d="m257.015 293.942.073-.127 3.615 2.077-.073.127z"/><path class="ao" d="M256.413 294.367a.8.8 0 0 0 .363.636.225.225 0 0 0 .363-.21.789.789 0 0 0-.363-.636c-.229-.115-.363-.026-.363.21ZM255.218 293.689a.827.827 0 0 0 .363.636.225.225 0 0 0 .363-.21.789.789 0 0 0-.363-.636c-.198-.112-.363-.017-.363.21ZM254.053 293.016a.8.8 0 0 0 .363.636.225.225 0 0 0 .363-.21.827.827 0 0 0-.363-.636c-.198-.114-.363-.019-.363.21Z"/><path class="am" d="M253.085 288.569v-3.092h6.935l2.4-1.387a2.373 2.373 0 0 1 2.144.089l2.24 1.273h6.941v3.181a.636.636 0 0 1-.369.579l-8.965 5.173a2.373 2.373 0 0 1-2.144-.089l-8.659-4.995a.872.872 0 0 1-.523-.732Z"/><path class="am" d="M263.412 283.879a2.424 2.424 0 0 1 1.152.3l2.24 1.273h6.941v3.181a.636.636 0 0 1-.369.579l-8.964 5.172a1.979 1.979 0 0 1-1 .216Z"/><path class="g" d="M272.956 285.464h.789v3.18a.636.636 0 0 1-.369.579l-.42.235ZM264.271 294.463a2.443 2.443 0 0 1-1.712 0v-3.61h1.712Z"/><path class="g" d="m264.411 291.229 8.965-5.173c.547-.318.477-.878-.153-1.272l-8.659-5a2.411 2.411 0 0 0-2.144-.089l-8.965 5.179c-.547.318-.484.872.153 1.241l8.659 4.995a2.373 2.373 0 0 0 2.144.119Z"/><path class="k" d="m253.607 285.535 8.659 4.995a2.373 2.373 0 0 0 2.144.089l8.965-5.173a.859.859 0 0 0 .274-.242.579.579 0 0 1-.274.853l-8.961 5.17a2.373 2.373 0 0 1-2.144-.089l-8.659-4.995c-.49-.286-.636-.687-.426-1a1.165 1.165 0 0 0 .422.392Z"/><path class="ao" d="M256.413 289.39a.8.8 0 0 0 .363.636.225.225 0 0 0 .363-.21.789.789 0 0 0-.363-.636c-.229-.115-.363-.026-.363.21ZM259.951 291.369a.789.789 0 0 0 .363.636.224.224 0 0 0 .363-.2.8.8 0 0 0-.363-.636c-.204-.147-.363-.047-.363.2Z"/><path class="k" d="M259.951 296.459a.789.789 0 0 0 .363.636.223.223 0 0 0 .363-.2.8.8 0 0 0-.363-.636c-.204-.105-.363-.01-.363.2Z"/><path class="ao" d="M255.218 288.716a.8.8 0 0 0 .363.636.222.222 0 0 0 .363-.2.789.789 0 0 0-.363-.636c-.198-.125-.363-.03-.363.2ZM254.053 288.041a.814.814 0 0 0 .363.636.225.225 0 0 0 .363-.21.814.814 0 0 0-.363-.636c-.198-.112-.363-.019-.363.21Z"/><path class="ap" d="m263.883 288.021 4.193-2.424c.254-.146.223-.407-.07-.579l-4.053-2.341a1.126 1.126 0 0 0-1.005-.038l-4.193 2.418c-.261.153-.229.414.07.585l4.053 2.335a1.126 1.126 0 0 0 1.005.044Z"/><path class="ao" d="m263.483 285.993.566-.35c.032 0 .032-.057 0-.076l-.56-.324a.153.153 0 0 0-.14 0l-.579.337c-.038 0-.032.057 0 .076l.56.324a.153.153 0 0 0 .153.013Z"/><path class="am" d="m268.076 285.599-.057-.038-4.052-2.34a1.107 1.107 0 0 0-1.005-.038l-4.18 2.411c-.242-.172-.254-.4 0-.541l4.193-2.418a1.126 1.126 0 0 1 1.005.038l4.053 2.341c.266.177.298.438.043.585Z"/><path class="ao" d="M264.762 291.961c0 .242.165.344.382.223a.846.846 0 0 0 .382-.636c0-.242-.172-.344-.382-.223a.84.84 0 0 0-.382.636Z"/><path class="g" d="M265.958 291.286c0 .242.165.337.382.216a.84.84 0 0 0 .382-.636c0-.242-.172-.337-.382-.216a.821.821 0 0 0-.382.636Z"/><path class="ao" d="M264.762 293.391c0 .242.165.337.382.216a.84.84 0 0 0 .382-.636c0-.242-.172-.337-.382-.216a.833.833 0 0 0-.382.636ZM265.958 292.711c0 .242.165.344.382.223a.846.846 0 0 0 .382-.636c0-.242-.172-.344-.382-.223a.834.834 0 0 0-.382.636ZM264.762 296.872c0 .242.165.344.382.223a.859.859 0 0 0 .382-.636c0-.248-.172-.344-.382-.223a.834.834 0 0 0-.382.636ZM265.958 296.191c0 .242.165.344.382.223a.846.846 0 0 0 .382-.636c0-.242-.172-.344-.382-.223a.834.834 0 0 0-.382.636Z"/><path class="ap" d="M264.762 298.299c0 .248.165.344.382.223a.846.846 0 0 0 .382-.636c0-.242-.172-.344-.382-.216a.821.821 0 0 0-.382.629Z"/><path class="ao" d="M265.958 297.624c0 .242.165.337.382.216a.84.84 0 0 0 .382-.636c0-.242-.172-.337-.382-.216a.821.821 0 0 0-.382.636Z"/><path class="am" d="M253.232 288.304v-3.1h6.935l2.4-1.387a2.392 2.392 0 0 1 2.144.089l2.24 1.272h6.942v3.181a.636.636 0 0 1-.369.573l-8.965 5.173a2.373 2.373 0 0 1-2.144-.089l-8.653-4.995a.853.853 0 0 1-.53-.717Z"/><path class="am" d="M263.571 283.613a2.4 2.4 0 0 1 1.145.3l2.24 1.272h6.941v3.181a.636.636 0 0 1-.369.573l-8.965 5.173a1.953 1.953 0 0 1-.993.216Z"/><path class="g" d="M273.108 285.204h.789v3.181a.636.636 0 0 1-.369.573l-.42.242ZM264.424 294.2a2.443 2.443 0 0 1-1.711 0v-3.614h1.712Z"/><path class="g" d="m264.565 290.962 8.965-5.173c.547-.318.484-.872-.153-1.241l-8.659-4.995a2.373 2.373 0 0 0-2.144-.089l-8.965 5.173c-.547.318-.477.872.159 1.273l8.653 4.995a2.373 2.373 0 0 0 2.144.057Z"/><path class="an" d="m264.404 290.033 7.508-4.339c.464-.267.407-.732-.127-1.037l-7.253-4.187a2 2 0 0 0-1.8-.076l-7.508 4.339c-.464.267-.4.732.127 1.037l7.253 4.187a2 2 0 0 0 1.8.076Z"/><path class="k" d="m257.155 288.704.073-.127 3.615 2.077-.073.127z"/><path class="ao" d="M256.541 289.123a.8.8 0 0 0 .356.636.222.222 0 0 0 .363-.2.789.789 0 0 0-.363-.636c-.197-.099-.356-.03-.356.2ZM255.37 288.449a.814.814 0 0 0 .363.636.225.225 0 0 0 .363-.21.8.8 0 0 0-.363-.636c-.198-.114-.363-.019-.363.21ZM254.206 287.771a.8.8 0 0 0 .363.636.225.225 0 0 0 .363-.21.789.789 0 0 0-.363-.636.223.223 0 0 0-.363.21Z"/><path class="am" d="M253.232 283.325v-3.092h6.935l2.4-1.387a2.392 2.392 0 0 1 2.144.089l2.24 1.273h6.942v3.181a.636.636 0 0 1-.369.579l-8.965 5.173a2.373 2.373 0 0 1-2.144-.089l-8.653-4.995a.853.853 0 0 1-.53-.732Z"/><path class="am" d="M263.571 278.644a2.4 2.4 0 0 1 1.145.3l2.24 1.272h6.941v3.181a.636.636 0 0 1-.369.579l-8.965 5.173a1.953 1.953 0 0 1-.993.216Z"/><path class="g" d="M273.108 280.228h.789v3.181a.636.636 0 0 1-.369.579l-.42.242ZM264.424 289.224a2.443 2.443 0 0 1-1.711 0v-3.614h1.712Z"/><path class="g" d="m264.565 285.986 8.965-5.173c.547-.318.484-.872-.153-1.273l-8.659-4.995a2.373 2.373 0 0 0-2.144-.089l-8.965 5.173c-.547.318-.477.872.159 1.272l8.653 4.995a2.373 2.373 0 0 0 2.144.09Z"/><path class="k" d="m253.767 280.292 8.653 4.995a2.373 2.373 0 0 0 2.144.089l8.965-5.173a.859.859 0 0 0 .274-.242.579.579 0 0 1-.274.853l-8.965 5.173a2.373 2.373 0 0 1-2.144-.089l-8.653-4.995c-.5-.286-.636-.687-.433-1a1.19 1.19 0 0 0 .433.389Z"/><path class="ao" d="M256.541 284.146a.8.8 0 0 0 .356.636.225.225 0 0 0 .363-.21.789.789 0 0 0-.363-.636c-.197-.113-.356-.024-.356.21ZM260.104 286.107a.8.8 0 0 0 .363.636.222.222 0 0 0 .363-.2.789.789 0 0 0-.363-.636c-.198-.125-.363-.03-.363.2Z"/><path class="k" d="M260.104 291.235a.827.827 0 0 0 .363.636.225.225 0 0 0 .363-.21.789.789 0 0 0-.363-.636c-.198-.114-.363-.019-.363.21Z"/><path class="ao" d="M255.37 283.473a.827.827 0 0 0 .363.636.225.225 0 0 0 .363-.21.789.789 0 0 0-.363-.636c-.198-.114-.363-.019-.363.21ZM254.206 282.799a.8.8 0 0 0 .363.636.225.225 0 0 0 .363-.21.808.808 0 0 0-.363-.636c-.193-.127-.363-.019-.363.21Z"/><path class="ap" d="m264.048 282.779 4.193-2.424c.261-.146.229-.407-.07-.579l-4.053-2.335a1.126 1.126 0 0 0-1.005-.045l-4.193 2.424c-.255.146-.223.407.07.579l4.053 2.335a1.126 1.126 0 0 0 1.005.045Z"/><path class="ao" d="m263.635 280.749.579-.337c.038 0 .032-.051 0-.076l-.56-.324a.14.14 0 0 0-.134 0l-.585.337c-.032 0-.032.057 0 .076l.56.324a.153.153 0 0 0 .14 0Z"/><path class="am" d="m268.229 280.354-.057-.038-4.066-2.31a1.1 1.1 0 0 0-1.005-.038l-4.18 2.411c-.235-.165-.248-.4 0-.534l4.193-2.424a1.126 1.126 0 0 1 1.005.045l4.053 2.335c.286.146.33.407.057.553Z"/><path class="ao" d="M264.914 286.72c0 .248.172.344.382.223a.846.846 0 0 0 .382-.636c0-.242-.172-.344-.382-.216a.84.84 0 0 0-.382.629Z"/><path class="g" d="M266.097 286.043c0 .242.172.337.382.216a.84.84 0 0 0 .382-.636c0-.242-.172-.337-.382-.216a.84.84 0 0 0-.382.636Z"/><path class="ao" d="M264.914 288.149c0 .242.172.344.382.216a.84.84 0 0 0 .382-.636c0-.248-.172-.344-.382-.223a.846.846 0 0 0-.382.643ZM266.097 287.468c0 .242.172.344.382.223a.846.846 0 0 0 .382-.636c0-.242-.172-.344-.382-.223a.846.846 0 0 0-.382.636ZM264.914 291.63c0 .242.172.344.382.223a.846.846 0 0 0 .382-.636c0-.242-.172-.344-.382-.223a.846.846 0 0 0-.382.636ZM266.097 290.948c0 .248.172.344.382.223a.846.846 0 0 0 .382-.636c0-.242-.172-.344-.382-.223a.859.859 0 0 0-.382.636Z"/><path class="ap" d="M264.914 293.055c0 .248.172.344.382.223a.84.84 0 0 0 .382-.636c0-.242-.172-.337-.382-.216a.84.84 0 0 0-.382.629Z"/><path class="ao" d="M266.097 292.381c0 .242.172.344.382.216a.84.84 0 0 0 .382-.636c0-.248-.172-.344-.382-.223a.846.846 0 0 0-.382.643Z"/><path class="o" d="M165.956 342.988a13.342 13.342 0 0 0 12.025 0c3.321-1.909 3.321-5.026 0-6.941a13.322 13.322 0 0 0-12.025 0c-3.325 1.908-3.325 5.026 0 6.941Zm3.245-5.09a6.1 6.1 0 0 1 5.529 0c1.527.878 1.527 2.31 0 3.181a6.1 6.1 0 0 1-5.529 0c-1.527-.846-1.527-2.278 0-3.156Z"/><path class="w" d="m179.231 333.411-3.035.045a3.124 3.124 0 0 0-.954-.8 7.33 7.33 0 0 0-6.108-.229l-1.794-1.692-2.774.045.426-.267a15.5 15.5 0 0 1 14 0 7.221 7.221 0 0 1 1.737 1.355Z"/><path class="x" d="M164.552 326.369v4.412l2.774-.045v-4.4Z"/><path class="w" d="M169.127 328.023v4.4l-1.8-1.692v-4.4ZM176.195 329.054v4.4l-3.989-3.277-3.073 2.221v-4.4l2.831-1.374s3.9 1.2 4.1 1.273.131 1.157.131 1.157Z"/><path class="w" d="M179.23 329.01v4.4l-3.035.045v-4.4Z"/><path class="x" d="M180.682 327.457v4.409l-1.451 1.546v-4.4Z"/><path class="e" d="m179.231 329.009-3.035.045a3.232 3.232 0 0 0-.954-.808 7.33 7.33 0 0 0-6.108-.223l-1.794-1.661-2.774.038c.134-.089.28-.178.426-.261a15.5 15.5 0 0 1 14 0 7.209 7.209 0 0 1 1.737 1.349Z"/><path class="f" d="M168.217 328.564v4.053l-2.628-.636s.153-2.373.21-2.437 2.418-.98 2.418-.98ZM170.202 332.617v4.4l-.28.305-1.851-1.069s.286-3.366.318-3.429a16.872 16.872 0 0 1 1.813-.207Z"/><path class="f" d="m166.626 331.453 1.591 1.5c-1.323 1.043-1.164 2.545.471 3.461a5.4 5.4 0 0 0 1.514.585l-1.642 1.75 1.457 1.368a13.259 13.259 0 0 1-5.039-1.559c-3.315-1.909-3.779-4.855-1.393-7.056Z"/><path class="f" d="M170.018 335.728v4.409l-3.6-1.393-4.328-4.126.013-4.676 4.581 3.627Z"/><path class="n" d="m166.626 327.075 1.591 1.489c-1.323 1.05-1.164 2.545.471 3.468a5.6 5.6 0 0 0 1.514.585l-1.642 1.743 1.457 1.368a13.151 13.151 0 0 1-5.039-1.559c-3.315-1.909-3.779-4.848-1.393-7.05Z"/><path class="r" d="m170.031 338.745 1.444-1.565a6.884 6.884 0 0 0 3.767-.77c1.063-.636 1.5-1.451 1.311-2.246l3.448-.057 1.336-1.381c1.158 1.985.369 4.269-2.38 5.854a14.424 14.424 0 0 1-7.323 1.667Z"/><path class="r" d="M171.621 335.837v4.409l10.218-5.663v-4.409l-1.5.6Z"/><path d="M134.23 206.54v4.4l1.591 1.5v-4.409Z" transform="translate(35.801 127.801)" style="fill:#f98232"/><path class="p" d="m170.031 334.345 1.444-1.54a6.941 6.941 0 0 0 3.767-.77c1.063-.636 1.5-1.451 1.311-2.252l3.448-.051 1.323-1.412c1.158 1.991.369 4.269-2.38 5.854a14.424 14.424 0 0 1-7.323 1.667Z"/><path class="f" d="m253.232 268.464 7.826-4.454a.388.388 0 0 1 .4 0l.757.439-.528.191v5.682a1.482 1.482 0 0 1-.636 1.2l-7.457 4.307v.668l-.764-.439a.541.541 0 0 1-.216-.5v-5.8a1.5 1.5 0 0 1 .617-1.292Z"/><path class="n" d="m254.028 276.397 7.8-4.5a1.489 1.489 0 0 0 .636-1.2v-5.8c0-.458-.28-.674-.636-.471l-7.8 4.5a1.514 1.514 0 0 0-.636 1.2v5.8c.013.459.293.675.636.471Z"/><path class="k" d="M259.206 269.895c0 .337.235.471.528.305a1.171 1.171 0 0 0 .522-.91c0-.337-.235-.471-.522-.305a1.152 1.152 0 0 0-.528.91ZM257.609 270.819c0 .337.235.471.528.305a1.171 1.171 0 0 0 .528-.916c0-.331-.235-.471-.528-.3a1.152 1.152 0 0 0-.528.911ZM256.02 271.74c0 .331.235.471.522.3a1.152 1.152 0 0 0 .528-.91c0-.337-.235-.471-.528-.305a1.183 1.183 0 0 0-.522.916Z"/><path class="f" d="m260.141 260.238 7.8-4.5a.4.4 0 0 1 .4 0l.757.433-.528.2v5.682a1.508 1.508 0 0 1-.636 1.2l-7.457 4.307v.636l-.764-.439a.547.547 0 0 1-.216-.5v-5.787a1.5 1.5 0 0 1 .643-1.228Z"/><path class="n" d="m260.911 268.159 7.8-4.5a1.521 1.521 0 0 0 .636-1.2v-5.8c0-.464-.286-.674-.636-.477l-7.8 4.5a1.514 1.514 0 0 0-.636 1.2v5.8c.006.465.293.675.636.477Z"/><path class="k" d="M266.091 261.656c0 .331.235.471.522.3a1.152 1.152 0 0 0 .528-.91c0-.337-.235-.471-.528-.305a1.183 1.183 0 0 0-.522.915ZM264.494 262.573c0 .337.235.477.528.305a1.152 1.152 0 0 0 .528-.91c0-.337-.235-.471-.528-.305a1.158 1.158 0 0 0-.528.91ZM262.903 263.495c0 .337.235.471.522.305a1.171 1.171 0 0 0 .528-.91c0-.337-.235-.477-.528-.305a1.158 1.158 0 0 0-.522.91Z"/><path class="x" d="m294.436 327.003-8.354-4.5a.445.445 0 0 0-.433 0l-.808.433.566.2v5.682a1.483 1.483 0 0 0 .674 1.2l7.985 4.307v.668l.821-.445a.535.535 0 0 0 .229-.5v-5.8a1.476 1.476 0 0 0-.681-1.241Z"/><path class="w" d="M294.889 334.469a.534.534 0 0 0 .229-.5v-5.8a1.431 1.431 0 0 0-.191-.681l-6.7 3.608 5.834 3.149v.668Z"/><path class="e" d="m293.607 334.888-8.354-4.5a1.476 1.476 0 0 1-.668-1.2v-5.808c0-.464.3-.674.668-.477l8.354 4.5a1.476 1.476 0 0 1 .674 1.2v5.8c.002.477-.297.683-.674.485Z"/><path class="ac" d="m189.37 322.686 1.243 1.524-3.29 2.682-1.242-1.524z"/><path class="af" d="M186.827 326.916a1.533 1.533 0 0 1-.878-1.075c-.07-.439.21-.668.636-.509a1.546 1.546 0 0 1 .878 1.075c.057.439-.223.668-.636.509ZM191.766 319.942l2.015 2.47-3.358 2.74-2.015-2.472z"/><path class="af" d="m188.824 323.125-1.126.91a2.545 2.545 0 0 0 1.241 1.521l1.113-.91a2.545 2.545 0 0 0-1.228-1.521Z"/><ellipse class="af" cx=".916" cy="1.591" rx=".916" ry="1.591" transform="rotate(-39.2 547.776 -101.975)"/><path class="af" d="M192.98 322.456a2.481 2.481 0 0 1-1.425-1.743c-.115-.706.337-1.075 1.005-.821a2.481 2.481 0 0 1 1.425 1.743c.115.713-.337 1.073-1.005.821Z"/><path class="k" d="M192.884 321.908a1.412 1.412 0 0 1-.8-.986c-.064-.407.191-.636.573-.471a1.425 1.425 0 0 1 .8.993c.063.394-.191.598-.573.464ZM186.82 325.668c-.165.134-.324.07-.356-.134a.719.719 0 0 1 .235-.636c.159-.127.318-.07.35.134a.719.719 0 0 1-.229.636Z"/><path class="f" d="M217.634 355.63a2.99 2.99 0 0 0 1.552-.439l2.112-1.272a.238.238 0 1 0-.248-.407l-2.106 1.272a2.545 2.545 0 0 1-3.817-2.354l.045-.636c.738-10.409 2.119-29.783-6.044-31.876a63.29 63.29 0 0 1-6.146-1.909c-4.193-1.5-4.454-1.419-10.256 2.946a.229.229 0 0 0-.045.331.235.235 0 0 0 .331.051c5.726-4.333 5.815-4.307 9.811-2.882a62.562 62.562 0 0 0 6.184 1.909c7.781 1.991 6.42 21.111 5.688 31.38l-.045.636a2.99 2.99 0 0 0 1.432 2.787 3.054 3.054 0 0 0 1.552.463Z"/><ellipse class="o" cx="7.724" cy="4.46" rx="7.724" ry="4.46" transform="translate(193.889 350.578)"/><path class="ar" d="M197.929 353.123a1.2 1.2 0 0 0-.674 1.2 1.857 1.857 0 0 0 .1.579.973.973 0 0 0 1.311.407c.725-.286 2.335-1.8 2.4-2.787.108-1.842-1.992.111-3.137.601ZM202.187 356.165a5.089 5.089 0 0 0-.089 1.272 1.349 1.349 0 0 0 1.33.522c.744-.089 2.889-.833 3.366-2.246.738-2.189-4.136.165-4.136.165Z"/><path class="e" d="m204.279 339.227.165 16.543a1.164 1.164 0 0 1-.9 1.133h-.2a1.043 1.043 0 0 1-.986-.407 1.234 1.234 0 0 1-.223-.636l-.21-7.062-1.056-6.312-1.457 11.173a.954.954 0 0 1-.4.738 1.152 1.152 0 0 1-.636.178 1.228 1.228 0 0 1-.884-.433.872.872 0 0 1-.21-.6l.579-6.725.21-8.577Z"/><path class="i" d="m202.136 324.453-.261 1.508a.687.687 0 0 0 .566.636c.573.146.751-.229.751-.229l.261-1.692Z"/><path class="i" d="M205.203 324.454a2.2 2.2 0 1 1 .2-3.283 2.341 2.341 0 0 1-.2 3.283Z"/><path class="as" d="M202.204 325.955c-.038 0-2.437-1.559-3.321.057-1.444 2.634-1.362 11.109-.9 12.2a5.09 5.09 0 0 0 2.214 2.189 4.454 4.454 0 0 0 2.151.636c.744 0 2.182-.636 2.131-1.635a74.851 74.851 0 0 1 .522-11.981 8.718 8.718 0 0 0-2.797-1.466Z"/><path class="m" d="m200.869 342.492-1.457 11.173a.961.961 0 0 1-.4.738l-.121.07c.3-.229 1.183-9.607 1.349-10.651a1.909 1.909 0 0 1 .63-1.33Z"/><path class="i" d="m209.865 326.452 1.3-4.263-.687-.286-1.533 3.347ZM196.74 323.092l.98-4.441.776.013-.293 3.678Z"/><path class="at" d="M204.998 327.399a3.722 3.722 0 0 0 3.817-2.259.369.369 0 0 1 .636-.064 1.909 1.909 0 0 1 .388 1.521c-.719 2.66-4.657 3.251-5.364 4.791s.523-3.989.523-3.989ZM200.684 325.402s-1.851.146-2.119-1.457a11.555 11.555 0 0 1-.185-1.6.331.331 0 0 0-.369-.318c-.439.057-1.126.191-1.222.484-.14.445-.4 2.628 1.432 5.968 1.197 2.185 2.463-3.077 2.463-3.077Z"/><path class="i" d="M197.713 318.664v-.509a1.011 1.011 0 0 1 .153-.5l.509-.84.134-.172a.4.4 0 0 1 .515-.089l.115.076a.477.477 0 0 1 .229.439l-.267.725.337-.07a.121.121 0 0 1 .14.1.115.115 0 0 1-.07.134l-.554.223-.5.706ZM211.189 322.215l.153-.484a1.062 1.062 0 0 0 .032-.528l-.2-.967-.07-.2a.388.388 0 0 0-.452-.254h-.134a.477.477 0 0 0-.363.344v.764l-.293-.172a.115.115 0 0 0-.165.038.134.134 0 0 0 0 .153l.439.394.261.935Z"/><path class="as" d="M203.904 330.626c-.21.973.388 8.519-1.559 10.39.744 0 2.182-.636 2.131-1.635a60.389 60.389 0 0 1 .178-8.271c.763-.986 2.863-1.616 4.18-2.889-.095.051-4.72 1.438-4.93 2.405Z"/><path class="k" d="m201.34 325.531.337-.337a2.691 2.691 0 0 0 .986.636 5.207 5.207 0 0 0 .789.159l.21.592s-1.743-.105-2.322-1.05Z"/><path class="ar" d="M203.796 323.78a.293.293 0 0 0 .261 0c.14-.076.369-.636.636-.6.464.064 1.133 1.037 1.96-.318.433-.7.178-1.075.388-1.476 0 0-.07.216-1.909-.884a2.685 2.685 0 0 0-3.741 1.005 2.346 2.346 0 0 0 .426 3.124 2.863 2.863 0 0 0 1.5-.216c0-.108-.318-.28-.127-.528a.4.4 0 0 1 .611-.108Z"/><path class="w" d="m284.841 322.863 4.594 6.038 4.664-.967-4.766 1.451Z"/><path class="w" d="m289.976 329.086.388-.1 3.7 5.93ZM288.997 328.723l-4.123 1.3 3.907-1.642Z"/><path class="f" d="M286.953 323.392a4.619 4.619 0 0 0-2.259-3.652 1.692 1.692 0 0 0-1.559-.159l-.789.42h.375a1.788 1.788 0 0 0-.242.961 4.626 4.626 0 0 0 2.252 3.646 2.176 2.176 0 0 0 .929.28l-.178.318.821-.439.051-.032h.038a1.463 1.463 0 0 0 .56-1.342Z"/><path class="n" d="M286.109 323.817c0 1.342-1.005 1.909-2.252 1.215a4.6 4.6 0 0 1-2.252-3.646c0-1.343 1.005-1.909 2.252-1.222a4.613 4.613 0 0 1 2.252 3.653Z"/><path class="k" d="M284.097 324.046a.344.344 0 0 0 .191-.032.318.318 0 0 0 .108-.153.917.917 0 0 0 .064-.235v-.305a2.063 2.063 0 0 0-.032-.356 1.19 1.19 0 0 0-.1-.312.992.992 0 0 0-.172-.254.788.788 0 0 0-.248-.185.585.585 0 0 0-.2-.064.217.217 0 0 0-.134 0v-.636l.757.407v-.414l-1.12-.6v1.463l.363.2a.185.185 0 0 1 .089-.121.159.159 0 0 1 .146 0 .306.306 0 0 1 .1.076.483.483 0 0 1 .07.1.308.308 0 0 0 .038.134 1.286 1.286 0 0 1 0 .146 1.333 1.333 0 0 1 0 .172v.261a.458.458 0 0 1 0 .108.487.487 0 0 1 0 .07.115.115 0 0 1-.038.051h-.057a.152.152 0 0 1-.083 0 .445.445 0 0 1-.121-.1.483.483 0 0 1-.07-.14.69.69 0 0 1 0-.159 1.32 1.32 0 0 1 0-.185l-.414-.223a1.909 1.909 0 0 0 0 .35 1.308 1.308 0 0 0 .1.305.942.942 0 0 0 .191.267 1.7 1.7 0 0 0 .312.223.681.681 0 0 0 .26.141Z"/><path class="f" d="M236.881 257.387a3.741 3.741 0 1 1 3.741 3.735 3.741 3.741 0 0 1-3.741-3.735Zm.821 0a2.92 2.92 0 1 0 2.92-2.92 2.92 2.92 0 0 0-2.92 2.92Z"/><path class="e" d="M250.344 349.815a2.653 2.653 0 1 1 2.653 2.647 2.653 2.653 0 0 1-2.653-2.647Zm.814 0a1.839 1.839 0 1 0 1.839-1.832 1.839 1.839 0 0 0-1.839 1.832Z"/><path class="f" d="m225.696 237.319 4.556-9.27 9.27 4.562-4.556 9.27Zm5.5-6.5-2.736 5.561 5.567 2.736 2.736-5.561Z"/><circle class="e" cx="2.698" cy="2.698" transform="translate(241.252 257.151)" r="2.698"/><path class="e" d="M268.248 259.848a1.107 1.107 0 1 0 .324-.789 1.113 1.113 0 0 0-.324.789Z"/><path class="f" d="M255.834 353.575a1.591 1.591 0 1 0 1.591-1.591 1.591 1.591 0 0 0-1.591 1.591Z"/><path class="p" d="M119.041 292.87a1.584 1.584 0 1 0 .923-2.042 1.584 1.584 0 0 0-.923 2.042Z"/><path class="e" d="m131.702 284.975-6.168 2.326-2.326-6.168 6.168-2.326z"/><path class="af" d="m219.021 317.02-.977 1.706-3.684-2.109.977-1.706z"/><path class="af" d="M214.16 316.183a1.546 1.546 0 0 1 .694-1.209c.382-.223.694-.038.694.4a1.533 1.533 0 0 1-.694 1.209c-.384.236-.694.026-.694-.4ZM224.457 319.433l-1.584 2.767-5.772-3.304 1.585-2.768z"/><path class="af" d="m218.422 316.672-1.272-.719a2.545 2.545 0 0 0-.973 1.705l1.272.719a2.545 2.545 0 0 0 .973-1.705Z"/><path class="af" d="M216.769 318.155a2.469 2.469 0 0 1 1.12-1.953c.636-.363 1.126-.07 1.126.636a2.545 2.545 0 0 1-1.12 1.96c-.623.363-1.126.076-1.126-.643Z"/><path class="k" d="M215.318 315.706c-.178-.1-.178-.267 0-.375a.744.744 0 0 1 .636 0 .2.2 0 0 1 0 .375.719.719 0 0 1-.636 0Z"/></svg>