<svg xmlns="http://www.w3.org/2000/svg" viewBox="0 0 1332 260"><defs><linearGradient id="a" x1=".283" y1=".695" x2="1.25" y2="-.175" gradientUnits="objectBoundingBox"><stop offset="0" stop-color="#fff"/><stop offset=".3" stop-color="#f8f8f8"/><stop offset=".76" stop-color="#e4e4e4"/><stop offset="1" stop-color="#d6d6d6"/></linearGradient><style>.b{opacity:.25}.c{fill:#fdd762}.ax,.g{fill:#be1d32}.i{fill:#efefef}.j{fill:#660202}.k{fill:#ffc2b0}.l{fill:#a50c26}.m{fill:#fff}.n{fill:#ea9c92}.o{fill:#d8892b}.p{fill:#ff2c2c}.ah,.q{fill:#adadad}.ax,.q{opacity:.5}.r{fill:#d15805}.s{fill:#fc9e5e}.t{fill:#ea6e1b}.u{fill:#95d359}.v{fill:#c13d1a}.w{fill:#db5126}.x{fill:#ef602e}.y{fill:#e8a200}.z{fill:#f9bf30}.aa{fill:#c0c8ce}.ab{fill:#ededed}.ad{fill:#e7edf2}.ae{fill:#ccc}.af{fill:#e8e8e8}.ag{fill:#fafdff}.ai{fill:#d4ecff}.ak{fill:#232323}.al{fill:#ff6d40}.ao{fill:#b2b2b2}.ap{fill:#ddd}.aq{fill:#fcfcfc}.ar{fill:#e2e2e2}.au{fill:#595959}.av{fill:#ff8f8f}.aw{fill:#fcb4b4}</style></defs><path style="fill:url(#a)" d="M0 0h1332v260H0z"/><g class="b"><path class="c" d="m921.715 256.885.556-1.208 3.516 1.618-.556 1.208z"/><path class="c" d="m920.156 254.711.556-1.208 3.516 1.618-.556 1.208zM918.612 252.529l.556-1.208 3.516 1.618-.556 1.208z"/><path class="c" d="m917.064 250.356.556-1.208 3.516 1.618-.556 1.208z"/></g><text transform="translate(598 83.342)" style="fill:#2c2c2c;font-size:40px;font-family:PingFangSC-Medium,PingFang SC;font-weight:500"><tspan x="0" y="0">2021 分布式 KV 数据库实现学习营</tspan></text><text transform="translate(1221 130)" style="font-size:16px;fill:#565656;font-family:PingFangSC-Regular,PingFang SC;letter-spacing:.05em"><tspan x="-430.784" y="0">搞定 LSM 存储引擎，Raft 一致性协议，MVCC 和事务，</tspan><tspan x="-303.12" y="22">动手实现一个完整的分布式 KV 数据库。</tspan></text><text transform="translate(973 205.658)" style="font-size:20px;fill:#565656;font-family:PingFangSC-Regular,PingFang SC;letter-spacing:.05em"><tspan x="0" y="0">2021.11.15 - 2022.01.07</tspan></text><g transform="translate(25.82 -4.16)"><path class="c" d="m344.427 158.862 1.619-2.31 6.7 4.696-1.62 2.31z"/><path class="c" d="m342.033 153.748 1.619-2.31 6.7 4.696-1.62 2.31z"/><path class="c" d="m339.639 148.625 1.619-2.31 6.7 4.696-1.62 2.31z"/><path class="c" d="m337.245 143.511 1.619-2.31 6.7 4.696-1.62 2.31z"/><g class="b"><path class="c" d="m635.749 188.933.606-1.317 3.825 1.76-.606 1.317zM634.064 186.558l.606-1.317 3.825 1.76-.606 1.317z"/><path class="c" d="m632.385 184.193.606-1.317 3.825 1.76-.606 1.317zM630.699 181.818l.606-1.317 3.825 1.76-.606 1.317z"/></g><path class="g" d="m114.19 71-1.14-1.94a2.78 2.78 0 0 1-2 .21 3.89 3.89 0 0 1-2.1-2.19 6.715 6.715 0 0 0-7.49-4.12l.53 2.18-.27-1.09.26 1.09c.33-.08 3.24-.63 5 2.91a5.9 5.9 0 0 0 3.49 3.37 5 5 0 0 0 3.72-.42Z"/><path class="g" d="m574.61 79.46 2.12-.72a2.74 2.74 0 0 1 .21-2 3.81 3.81 0 0 1 2.57-1.61c4.55-1.13 5.63-4.75 5.56-6.5l-2.24.08c0 .34-.05 3.3-3.86 4.25a5.87 5.87 0 0 0-4 2.73 4.94 4.94 0 0 0-.36 3.77Z" style="opacity:.15"/><ellipse class="i" cx="7.78" cy="4.49" rx="7.78" ry="4.49" transform="translate(299.9 159.01)"/><path class="j" d="M312.59 106.69s-.21 4.31-.54 7.2-7.29-2.22-7.29-2.22v-3.3ZM308.88 160.24a8.65 8.65 0 0 1-3.72 3 4.12 4.12 0 0 1-1.65.23.55.55 0 0 1-.45-.73 6.86 6.86 0 0 1 3.46-3.81c3.07-1.51 2.36 1.31 2.36 1.31ZM309.48 161.09a14.83 14.83 0 0 0-.89 2.93 4.709 4.709 0 0 0 .69 2.57.75.75 0 0 0 1.17.2 4.29 4.29 0 0 0 1.46-2.8 6.64 6.64 0 0 0 0-2.64Z"/><path class="c" d="M313.83 133.9a43.674 43.674 0 0 1 0 6c-.24 3.14-1.08 17.82-1.24 21.36 0 0 .08 1.06-2 .83s-1.9-1.42-1.9-1.42-2.91 0-3-1.76-3-20.46-3-27.2Z"/><path class="k" d="m301.65 119.22-1.43 2.21-4.89 5.91a1.09 1.09 0 0 0 .78.69c.47.12 4.59-3.81 6.37-5.54a1.36 1.36 0 0 0 .19-1.73Z"/><path class="l" d="M304.43 110.17s-2.27-.06-3.05 3.21-1.41 7.36-.72 7.7a3 3 0 0 0 3.36-.17Z"/><path class="g" d="M303.75 110.31a1.83 1.83 0 0 1 1.22-.07c1.93.55 9.18 2.68 10.37 3.7 1.38 1.18-2.07 7.81-2 10s.29 4.74.49 7.1.45 3.66-1.48 4.66a7.58 7.58 0 0 1-7.7-.83c-2.47-1.88-2-3.17-1.92-4.53s.94-7.28.87-9a6.4 6.4 0 0 1-1.52-1.74c-.64-1.1.5-3.12 1-4.43s-.27-2.82-.12-3.89a1.21 1.21 0 0 1 .79-.97Z"/><path class="m" d="M306.07 112.57a2.81 2.81 0 1 0 3-1.82 2.51 2.51 0 0 0-3 1.82Z"/><path class="k" d="M306.84 112.67a2 2 0 1 0 2.15-1.3 1.8 1.8 0 0 0-2.15 1.3Z"/><path class="k" d="M307.91 109.86s1.31-1.07 1.57-.53a17.659 17.659 0 0 1 .47 2.89l-2.6.7.39-2.37s-.52-.45.17-.69Z"/><path class="k" d="M303.85 107.3a3.88 3.88 0 1 0 3.64-4.1 3.88 3.88 0 0 0-3.64 4.1Z"/><path class="n" d="m309.66 110 .06.39c-.26 1.35-2.28 1.94-2.28 1.94l.3-1.79s-.24-.21-.17-.42c.79-.24 1.8-.46 2.09-.12Z"/><path class="k" d="M303.85 107.3a3.88 3.88 0 1 0 3.64-4.1 3.88 3.88 0 0 0-3.64 4.1ZM317.28 123.49l-.43 10.39-1.52.15-.99-9.34Z"/><path class="l" d="M312.29 122.63c.51-2.22 1.5-7.12 1.5-7.12l.42 4.87a13.219 13.219 0 0 0-.89 3.54c0 1.28.13 2.69.24 4.11s-1.77-3.19-1.27-5.4Z"/><path class="g" d="M315.05 113.73s1.21.46 1.9 4.19 1.2 7.46 0 7.94-2.25.85-2.61-.15a51.284 51.284 0 0 1-.63-7.53c-.06-1.73-.13-4.11 1.34-4.45Z"/><path class="k" d="M295.69 126.91a3.18 3.18 0 0 0-1.13.76 6.7 6.7 0 0 0-.77 1c-.38.56-.7 1.78-.47 1.93s1.55-2 1.76-1.53 0 1 .27 1 1.22-2.2 2-2.89-1.66-.27-1.66-.27Z"/><path class="o" d="M308.7 160.64a6.588 6.588 0 0 1-.83-.09l-.57-22.82Z"/><path class="l" d="m310.9 148.31.8-1.05 8.5-4.92a1.19 1.19 0 0 0 .49-.94v-7l.49-.63-.46-.27a.31.31 0 0 0-.33 0l-9.63 5.57a1.19 1.19 0 0 0-.49.94v7.58a.43.43 0 0 0 .18.4Z"/><path class="p" d="m316.77 144.32.6-.35 3.31-5.75v-3.78l.49-.63-.46-.27a.31.31 0 0 0-.33 0l-9.63 5.57a1 1 0 0 0-.36.43Z"/><path class="l" d="m321 134.09.22-.28-.46-.27a.31.31 0 0 0-.33 0l-.17.1ZM310.66 139.19a1.31 1.31 0 0 0-.4.81l.94.55.45-.79Z"/><path class="g" d="m311.21 139.4 9.62-5.57c.28-.16.5 0 .5.37v7.57a1.17 1.17 0 0 1-.5.94l-9.62 5.57c-.27.16-.49 0-.49-.37v-7.57a1.17 1.17 0 0 1 .49-.94Z"/><path class="k" d="M316.83 133.79a23.174 23.174 0 0 1 .35 3.2c-.06.77-.48 2-.8 2s0-3.12-.56-2.82-.61.84-.86.65.44-2.83.25-4 1.62.97 1.62.97Z"/><path class="n" d="M306.23 107.41c-1.94.69-2.32.27-2.34.25a2.071 2.071 0 0 1 0-.36 3.939 3.939 0 0 1 .13-1.24l5-.68a5.52 5.52 0 0 1-2.79 2.03Z"/><path class="j" d="M303.71 103.44a5.72 5.72 0 0 1 5.08-1.88c1.85.29 3.41 1.55 3.76 4.43a6.63 6.63 0 0 1-1.79 5.27 1.36 1.36 0 0 1-.21-.1c-.75-.49-.83-.76-.83-.76l-.16-1.47a.41.41 0 0 1 .37-.41.74.74 0 0 0 .54-.33.87.87 0 0 0-.62-1.46.66.66 0 0 1-.68-.48.34.34 0 0 0-.45-.24c-1 .35-3.36 1.11-4.9.67-1.96-.56-.57-2.85-.11-3.24Z"/><path class="m" d="m305.92 109.16-1.18-.32a2.85 2.85 0 0 0 1.39 1.12c.83.22.95-.48.95-.48Z"/><path class="g" d="m314.82 136.78 1.01-.58-.38.62-.51.19Z"/><path class="q" d="m111.06 169.16 7.84-4.53 7.84 4.53-7.84 4.52Z"/><path class="q" d="m118.9 164.63 7.84-4.53 7.84 4.53-7.84 4.53Z"/><path class="r" d="M117.72 160.78v-13.56l-6.66-3.85v13.57Z"/><path class="s" d="m117.72 147.22 6.66-3.85v13.57l-6.66 3.84Z"/><path class="t" d="m111.06 143.37 6.66-3.84 6.66 3.84-6.66 3.85Z"/><path class="u" d="m111.06 162.06 6.66-3.84v2.56l-6.66 3.85Z"/><path class="v" d="M124.38 164.63v-20.52l-6.66-3.84v20.51Z"/><path class="w" d="m124.38 144.11 6.66-3.84v20.51l-6.66 3.85Z"/><path class="x" d="m117.72 140.27 6.66-3.85 6.66 3.85-6.66 3.84Z"/><path class="l" d="M124.38 164.63v-20.52l-6.66-3.84v20.51Z"/><path class="g" d="m124.38 144.11 6.66-3.84v20.51l-6.66 3.85Z"/><path class="p" d="m117.72 140.27 6.66-3.85 6.66 3.85-6.66 3.84Z"/><path class="y" d="M117.72 168.47v-11.53l-6.66-3.85v11.54Z"/><path class="z" d="m117.72 156.94 6.66-3.85v11.54l-6.66 3.84Z"/><path class="c" d="m111.06 153.09 6.66-3.85 6.66 3.85-6.66 3.85Z"/><path class="q" d="m231.75 153.52 7.85-4.53 7.84 4.53-7.84 4.52Z"/><path class="q" d="m239.6 148.99 7.84-4.53 7.84 4.53-7.84 4.53Z"/><path class="r" d="M238.42 145.14v-13.56l-6.67-3.84v13.56Z"/><path class="s" d="m238.42 131.58 6.66-3.84v13.56l-6.66 3.84Z"/><path class="t" d="m231.75 127.74 6.67-3.85 6.66 3.85-6.66 3.84Z"/><path class="u" d="m235.69 145.39 6.66-3.84v2.56l-6.66 3.85Z"/><path class="v" d="M249.02 147.96v-24.59l-6.67-4.61v24.59Z"/><path class="w" d="m249.02 123.37 6.66-4.61v24.59l-6.66 4.61Z"/><path class="x" d="m242.35 118.76 6.67-4.61 6.66 4.61-6.66 4.61Z"/><path class="l" d="M249.02 147.96v-24.59l-6.67-4.61v24.59Z"/><path class="g" d="m249.02 123.37 6.66-4.61v24.59l-6.66 4.61Z"/><path class="p" d="m242.35 118.76 6.67-4.61 6.66 4.61-6.66 4.61Z"/><path class="y" d="M242.28 155.3v-11.54l-6.67-3.84v11.54Z"/><path class="z" d="m242.28 143.76 6.66-3.84v11.54l-6.66 3.84Z"/><path class="c" d="m235.61 139.92 6.67-3.85 6.66 3.85-6.66 3.84Z"/><path class="aa" d="M179.35 94.34a.54.54 0 0 0 .54-.54V71.63a.54.54 0 1 0-1.08 0V93.8a.54.54 0 0 0 .54.54Z"/><path class="aa" d="M181.28 78.55h-3.85v-8.31h3.85z"/><path class="aa" d="M178 79.33a3 3 0 0 0 2.72 0 .83.83 0 0 0 0-1.57 3 3 0 0 0-2.72 0 .83.83 0 0 0 0 1.57ZM182.5 71.48h-6.24V58.44h6.24z"/><path class="ab" d="M181.31 71.39v2.82a5 5 0 0 1-3.85 0v-2.82a5 5 0 0 1 3.85 0Z"/><path class="aa" d="M177.18 72.75a4.83 4.83 0 0 0 4.41 0 1.35 1.35 0 0 0 0-2.55 4.89 4.89 0 0 0-4.41 0 1.35 1.35 0 0 0 0 2.55ZM157.76 106.51a.54.54 0 0 0 .54-.54V83.79a.54.54 0 0 0-.54-.54.55.55 0 0 0-.54.54V106a.55.55 0 0 0 .54.51Z"/><path class="aa" d="M159.69 90.71h-3.85V82.4h3.85z"/><path class="aa" d="M156.4 91.5a3 3 0 0 0 2.72 0c.76-.44.76-1.14 0-1.57a3 3 0 0 0-2.72 0 .83.83 0 0 0 0 1.57ZM160.89 83.85h-6.24V70.81h6.24z"/><path class="ab" d="M159.69 83.77v2.81a5 5 0 0 1-3.85 0v-2.81a5 5 0 0 1 3.85 0Z"/><path class="aa" d="M155.56 85.13a4.89 4.89 0 0 0 4.41 0 1.35 1.35 0 0 0 0-2.55 4.83 4.83 0 0 0-4.41 0 1.35 1.35 0 0 0 0 2.55ZM136.74 92.45l-8.37-4.93 7.97-9.95 2.1 3.42ZM197.52 37.84l-13.36-7.68.5 7.68c0 .01 7.68 2.38 7.68 2.38Z"/><path d="M134.42 67.43a8.22 8.22 0 0 1 2.89-1.07c1.34-7.08 6.27-14.6 12.14-18a12 12 0 0 1 5-1.68c.8-8.58 6.77-18.33 14-22.51 3.79-2.19 7.22-2.45 9.75-1.11l.13.07.19.11 7.88 4.65-2.64 2.11c2.35 1 3.83 3.66 3.83 7.55 0 7.19-5 15.92-11.26 19.51L134.42 87c-4.67 2.7-8.46.51-8.46-4.88s3.79-11.99 8.46-14.69Z" style="fill:#e5f0f9"/><path class="aa" d="M187.2 34.36 169.12 23.8c3.51-1.83 6.69-2 9.06-.73l.13.07.19.11 7.88 4.65-2.62 2.1a6.28 6.28 0 0 1 3.44 4.36ZM153.82 65.44l-13.2-7.74a25.57 25.57 0 0 1 8.83-9.33q.69-.39 1.35-.69l16.78 9.81Z"/><path class="ad" d="m182.66 28.76-5.88 3.4L166 25.82a21.481 21.481 0 0 1 2.42-1.64 15.46 15.46 0 0 1 3.76-1.58ZM142.08 55.42l10.53 6.2-3.61 4.09-9.56-5.65a29.791 29.791 0 0 1 2.64-4.64Z"/><path class="ad" d="M142.69 72.3a8.22 8.22 0 0 1 2.89-1.07c1.34-7.08 6.27-14.6 12.14-18a12 12 0 0 1 5-1.68c.8-8.58 6.77-18.33 14-22.51 7.79-4.5 14.11-.85 14.11 8.14v.93c5.69-2.65 10.14.33 10.14 7.08 0 7.18-5 15.92-11.26 19.51l-47 27.12c-4.67 2.7-8.46.51-8.46-4.88S138 75 142.69 72.3Z"/><path class="m" d="M190.79 38.12v-.93c3.15-1.22 5.85-.69 7.55 1.28-1.83-1.56-4.51-1.77-7.55-.35ZM142 71.63a8.36 8.36 0 0 1 2.89-1.07c1.35-7.08 6.27-14.6 12.14-18a12 12 0 0 1 5-1.68c.81-8.58 6.77-18.33 14-22.51 4.86-2.8 9.14-2.44 11.68.4-2.59-2.21-6.55-2.29-11 .27-7.24 4.18-13.21 13.93-14 22.51a12 12 0 0 0-5 1.68c-5.87 3.39-10.8 10.91-12.14 18a8.22 8.22 0 0 0-2.89 1.07c-4.68 2.7-8.45 9.26-8.45 14.7a7 7 0 0 0 1.35 4.5c-1.27-1-2-2.75-2-5.17-.04-5.44 3.75-12 8.42-14.7Z"/><path class="aa" d="m191.78 40.26-3.53 1.64.18-3.89v-.82c0-3.47-1-6-2.95-7.08s-4.61-.75-7.62 1c-6.46 3.74-12.1 12.82-12.84 20.69l-.18 2-2 .16a9.47 9.47 0 0 0-4 1.37c-5.13 3-9.76 9.85-11 16.38l-.31 1.63-1.65.26a6 6 0 0 0-2.07.79c-4 2.27-7.28 8.05-7.28 12.6 0 1.7.47 3 1.3 3.43s2.14.26 3.62-.59l47-27.13c5.46-3.15 10.08-11.15 10.08-17.46 0-2.48-.73-4.37-2-5.18a3.48 3.48 0 0 0-1.87-.5 7.1 7.1 0 0 0-2.88.7Z"/><path class="i" d="m168.33 69.7-1.24-.62 1.22-.92ZM172.05 52.96l-1.2-.61-.02.63ZM164.79 65.79l-1.25-.63 2.42-2.3Z"/><path class="i" d="m167.45 69 5.87-3.45a1.26 1.26 0 0 0 .54-1v-6.79l-7 4.09v6.79c.05.42.3.58.59.36Z"/><path class="i" d="m170.86 52.36 6.34 4.08c.27.17.05.82-.36 1.06l-6.47 3.81-6.47 3.81c-.41.24-.63-.15-.36-.63L169.83 53c.27-.53.76-.82 1.03-.64Z"/><path class="m" d="m168.71 69.68 5.87-3.46a1.26 1.26 0 0 0 .54-1v-6.79l-6.95 4.09v6.79c0 .38.24.54.54.37Z"/><path class="m" d="m172.12 53 6.34 4.08c.27.18 0 .82-.36 1.06l-6.47 3.81-6.47 3.82c-.41.24-.63-.15-.37-.64l6.3-11.52c.27-.51.76-.79 1.03-.61ZM180 77.1c0 .39.27.54.6.35a1.33 1.33 0 0 0 .6-1c0-.38-.27-.54-.6-.35a1.35 1.35 0 0 0-.6 1ZM158.3 89.45c0 .38.27.53.6.34a1.32 1.32 0 0 0 .6-1c0-.39-.27-.54-.6-.35a1.33 1.33 0 0 0-.6 1.01Z"/><path class="q" d="m197 173.28 27.46-15.66c1-.57.88-1.59-.28-2.26l-15.8-9.12a4.36 4.36 0 0 0-3.92-.16L177 161.74c-1 .58-.88 1.59.28 2.26l15.79 9.12a4.36 4.36 0 0 0 3.93.16Z"/><path class="ae" d="M174.59 156.47v-64.1l25.48-6.67 4.69-2.7a4.65 4.65 0 0 1 4.21.17l4.38 2.53h13.59l-4 61.88a1.22 1.22 0 0 1-.72 1.13l-25.43 19.18a4.63 4.63 0 0 1-4.2-.17l-16.95-9.78c-.75-.44-1.09-.94-1.05-1.47Z"/><path class="af" d="M206.71 82.57a4.93 4.93 0 0 1 2.26.59l4.38 2.53h13.59V150a1.24 1.24 0 0 1-.72 1.13l-29.46 16.79a3.77 3.77 0 0 1-1.95.42l-.3-64.67Z"/><path class="aa" d="M196.49 168a4.8 4.8 0 0 1-3.36 0v-65.15h3.36Z"/><path class="af" d="m196.76 103.63 29.46-16.8c1.07-.62.94-1.71-.31-2.43L209 74.62a4.69 4.69 0 0 0-4.21-.18l-29.45 16.8c-1.08.62-.94 1.71.3 2.43l16.95 9.78a4.67 4.67 0 0 0 4.17.18Z"/><path class="ag" d="m175.61 92.47 16.95 9.79a4.63 4.63 0 0 0 4.2.17l29.46-16.79a1.56 1.56 0 0 0 .53-.48 1.13 1.13 0 0 1-.53 1.67l-29.46 16.8a4.67 4.67 0 0 1-4.2-.18l-16.95-9.78c-1-.56-1.26-1.34-.84-2a2.32 2.32 0 0 0 .84.8Z"/><path class="ah" d="m195.93 96.82 19.61-11.37c.5-.29.44-.8-.14-1.13l-7.93-4.58a2.15 2.15 0 0 0-2-.08L185.89 91c-.5.29-.44.8.14 1.14l7.97 4.6a2.21 2.21 0 0 0 1.93.08Z"/><path class="ai" d="m206.51 86 1.14-.65c.07 0 .06-.12 0-.16l-1.1-.64a.32.32 0 0 0-.27 0l-1.13.66c-.07 0-.07.11 0 .16l1.09.63a.29.29 0 0 0 .27 0ZM202.72 88.14l1.13-.65c.07 0 .07-.11 0-.16l-1.1-.63a.29.29 0 0 0-.27 0l-1.14.65c-.07 0-.06.11 0 .16l1.1.63a.29.29 0 0 0 .28 0ZM198.92 90.33l1.14-.66c.07 0 .06-.11 0-.16l-1.1-.63a.29.29 0 0 0-.27 0l-1.14.66c-.07 0-.06.11 0 .15l1.1.64a.32.32 0 0 0 .27 0ZM195.13 92.51l1.13-.66c.07 0 .06-.11 0-.15l-1.09-.64a.34.34 0 0 0-.28 0l-1.13.66c-.07 0-.06.11 0 .16l1.09.63a.31.31 0 0 0 .28 0Z"/><path class="aa" d="m215.54 85.45-.11-.08-7.93-4.58a2.22 2.22 0 0 0-2-.08l-19.59 11.37c-.46-.34-.49-.79 0-1.06l19.59-11.36a2.15 2.15 0 0 1 2 .08l7.93 4.58c.57.33.57.84.11 1.13Z"/><path class="ah" d="m189.25 116.32-11.15-6.38a2.71 2.71 0 0 1-1.14-2.17v-4c0-.83.51-1.22 1.14-.86l11.15 6.39a2.71 2.71 0 0 1 1.14 2.17v4c0 .83-.51 1.22-1.14.85Z"/><path class="m" d="M177.55 102.8a1.11 1.11 0 0 0-.29.83v4a2.71 2.71 0 0 0 1.14 2.17l11.15 6.39a.91.91 0 0 0 .55.12.68.68 0 0 1-.85 0l-11.15-6.38a2.71 2.71 0 0 1-1.14-2.17v-4c.04-.55.24-.9.59-.96Z"/><path class="aa" d="m185.9 112-1-.59a.6.6 0 0 1-.24-.47v-1.09c0-.19.11-.27.24-.19l1 .59a.6.6 0 0 1 .24.47v1.1c0 .18-.14.25-.24.18Z"/><path class="m" d="m182.48 110-1-.59a.6.6 0 0 1-.24-.47v-1.1c0-.18.11-.26.24-.18l1 .59a.59.59 0 0 1 .24.47v1.09c0 .19-.11.29-.24.19Z"/><path class="ah" d="M189.19 130.88 178 124.5a2.74 2.74 0 0 1-1.14-2.17v-4c0-.84.51-1.22 1.14-.86l11.15 6.38a2.74 2.74 0 0 1 1.14 2.17v4c.04.84-.47 1.22-1.1.86Z"/><path class="m" d="M177.49 117.36a1.09 1.09 0 0 0-.29.83v4a2.74 2.74 0 0 0 1.14 2.17l11.15 6.38a.78.78 0 0 0 .55.12.67.67 0 0 1-.85 0L178 124.5a2.74 2.74 0 0 1-1.14-2.17v-4c.04-.56.28-.91.63-.97Z"/><path class="aa" d="m185.84 126.55-1-.59a.6.6 0 0 1-.24-.47v-1.1c0-.18.11-.26.24-.18l1 .59a.59.59 0 0 1 .24.47v1.09c0 .18-.08.27-.24.19Z"/><path class="m" d="m182.42 124.57-1-.59a.6.6 0 0 1-.24-.47v-1.09c0-.18.11-.27.24-.19l1 .59a.6.6 0 0 1 .24.47v1.1c0 .18-.11.26-.24.18Z"/><path class="ah" d="m189.25 144-11.15-6.39a2.71 2.71 0 0 1-1.14-2.17v-4c0-.83.51-1.22 1.14-.85l11.15 6.41a2.71 2.71 0 0 1 1.14 2.17v4c0 .83-.51 1.2-1.14.83Z"/><path class="m" d="M177.55 130.48a1.11 1.11 0 0 0-.29.83v4a2.71 2.71 0 0 0 1.14 2.17l11.15 6.39a.91.91 0 0 0 .55.12.69.69 0 0 1-.85 0l-11.15-6.39a2.71 2.71 0 0 1-1.14-2.17v-4c.04-.53.24-.89.59-.95Z"/><path class="aa" d="m185.9 139.67-1-.59a.6.6 0 0 1-.24-.47v-1.09c0-.18.11-.27.24-.19l1 .59a.6.6 0 0 1 .24.47v1.1c0 .18-.14.26-.24.18Z"/><path class="m" d="m182.48 137.7-1-.59a.6.6 0 0 1-.24-.47v-1.1c0-.18.11-.26.24-.18l1 .59a.6.6 0 0 1 .24.47v1.09c0 .18-.11.27-.24.19Z"/><path class="ah" d="m189.25 158.24-11.15-6.38a2.71 2.71 0 0 1-1.14-2.17v-4c0-.83.51-1.22 1.14-.86l11.15 6.39a2.71 2.71 0 0 1 1.14 2.17v4c0 .83-.51 1.22-1.14.85Z"/><path class="m" d="M177.55 144.72a1.11 1.11 0 0 0-.29.83v4a2.71 2.71 0 0 0 1.14 2.17l11.15 6.39a.91.91 0 0 0 .55.12.68.68 0 0 1-.85 0l-11.15-6.38a2.71 2.71 0 0 1-1.14-2.17v-4c.04-.54.24-.9.59-.96Z"/><path class="aa" d="m185.9 153.91-1-.59a.6.6 0 0 1-.24-.47v-1.09c0-.19.11-.27.24-.19l1 .59a.6.6 0 0 1 .24.47v1.1c0 .18-.14.27-.24.18Z"/><path class="m" d="m182.48 151.94-1-.59a.6.6 0 0 1-.24-.47v-1.1c0-.18.11-.26.24-.18l1 .59a.6.6 0 0 1 .24.47v1.09c0 .18-.11.25-.24.19Z"/><path class="ah" d="m198.91 112.24 25.72-14.85a2.47 2.47 0 0 0 1-2v-4.9c0-.76-.46-1.12-1-.78l-25.72 14.85a2.48 2.48 0 0 0-1 2v4.91c-.05.75.42 1.11 1 .77Z"/><path class="aa" d="m199.64 110.52 24.25-14a1.26 1.26 0 0 0 .53-1v-3.69c0-.39-.24-.57-.53-.4l-24.25 14a1.25 1.25 0 0 0-.52 1v3.68c0 .4.23.58.52.41Z"/><path class="ag" d="m218.84 97.58 3.62-2.09a1.24 1.24 0 0 0 .51-1c0-.38-.23-.55-.51-.39l-3.62 2.09a1.23 1.23 0 0 0-.51 1c0 .38.23.55.51.39Z"/><path class="ae" d="M215.76 98.67c0 .38.26.53.59.35a1.3 1.3 0 0 0 .59-1c0-.38-.26-.53-.59-.34a1.27 1.27 0 0 0-.59.99ZM213.66 99.88c0 .38.27.53.6.34a1.33 1.33 0 0 0 .59-1c0-.38-.27-.54-.59-.35a1.32 1.32 0 0 0-.6 1.01Z"/><path class="ag" d="M211.57 101.09c0 .38.27.53.59.34a1.32 1.32 0 0 0 .6-1c0-.37-.27-.53-.6-.34a1.33 1.33 0 0 0-.59 1Z"/><path class="ae" d="M209.48 102.3c0 .38.26.53.59.34a1.3 1.3 0 0 0 .59-1c0-.38-.26-.53-.59-.34a1.3 1.3 0 0 0-.59 1ZM201.6 107.94l1.22-.7a.81.81 0 0 0 .33-.63v-1.29c0-.24-.15-.36-.33-.25l-1.22.7a.81.81 0 0 0-.33.63v1.29c0 .25.15.36.33.25Z"/><path class="ah" d="M199.3 120.75 225 105.9a2.5 2.5 0 0 0 1-2V99c0-.76-.47-1.12-1-.78l-25.7 14.85a2.5 2.5 0 0 0-1 2V120c-.04.73.43 1.08 1 .75Z"/><path class="aa" d="m200 119 24.25-14a1.27 1.27 0 0 0 .53-1v-3.68c0-.39-.24-.57-.53-.4l-24.25 14a1.29 1.29 0 0 0-.53 1v3.69c.04.39.28.59.53.39Z"/><path class="ag" d="m219.23 106.09 3.62-2.09a1.24 1.24 0 0 0 .52-1c0-.38-.23-.56-.52-.39l-3.62 2.09a1.23 1.23 0 0 0-.51 1c0 .38.28.55.51.39Z"/><path class="ae" d="M216.15 107.18c0 .38.27.53.59.34a1.28 1.28 0 0 0 .6-1c0-.38-.27-.53-.6-.35a1.33 1.33 0 0 0-.59 1.01ZM214.06 108.39c0 .38.26.53.59.34a1.3 1.3 0 0 0 .59-1c0-.38-.26-.54-.59-.35a1.3 1.3 0 0 0-.59 1.01Z"/><path class="ag" d="M212 109.6c0 .38.26.53.59.34a1.3 1.3 0 0 0 .59-1c0-.38-.26-.53-.59-.34a1.3 1.3 0 0 0-.59 1Z"/><path class="ae" d="M209.87 110.81c0 .37.27.53.6.34a1.33 1.33 0 0 0 .59-1c0-.38-.27-.53-.59-.34a1.32 1.32 0 0 0-.6 1ZM202 116.45l1.22-.7a.81.81 0 0 0 .33-.63v-1.29c0-.25-.15-.36-.33-.25l-1.22.7a.81.81 0 0 0-.33.63v1.29c0 .24.15.36.33.25Z"/><path class="ah" d="m199.1 129.18 25.73-14.85a2.53 2.53 0 0 0 1-2v-4.9c0-.77-.47-1.12-1-.79l-25.73 14.85a2.53 2.53 0 0 0-1 2v4.91c-.04.76.43 1.11 1 .78Z"/><path class="aa" d="m199.84 127.46 24.25-14a1.27 1.27 0 0 0 .53-1v-3.69c0-.39-.24-.57-.53-.4l-24.25 14a1.27 1.27 0 0 0-.53 1v3.69c0 .39.24.57.53.4Z"/><path class="ag" d="m219 114.51 3.62-2.09a1.23 1.23 0 0 0 .51-1c0-.38-.23-.55-.51-.39l-3.62 2.11a1.24 1.24 0 0 0-.52 1c.04.36.27.54.52.37Z"/><path class="ae" d="M216 115.61c0 .38.27.53.6.34a1.33 1.33 0 0 0 .59-1c0-.38-.27-.53-.59-.34a1.32 1.32 0 0 0-.6 1ZM213.86 116.82c0 .37.27.53.59.34a1.32 1.32 0 0 0 .6-1c0-.38-.27-.53-.6-.34a1.33 1.33 0 0 0-.59 1Z"/><path class="ag" d="M211.77 118c0 .38.26.54.59.35a1.3 1.3 0 0 0 .59-1c0-.38-.26-.53-.59-.34a1.3 1.3 0 0 0-.59.99Z"/><path class="ae" d="M209.68 119.23c0 .38.26.53.59.34a1.3 1.3 0 0 0 .59-1c0-.38-.26-.53-.59-.35a1.3 1.3 0 0 0-.59 1.01ZM201.8 124.88l1.22-.71a.78.78 0 0 0 .33-.63v-1.29c0-.24-.15-.35-.33-.25l-1.22.71a.78.78 0 0 0-.33.63v1.29c0 .24.15.37.33.25Z"/><path class="ah" d="m199.1 137.66 25.73-14.85a2.51 2.51 0 0 0 1-2v-4.91c0-.77-.47-1.12-1-.79L199.1 130a2.53 2.53 0 0 0-1 2v4.9c-.04.74.43 1.1 1 .76Z"/><path class="aa" d="m199.84 135.94 24.25-14a1.27 1.27 0 0 0 .53-1v-3.69c0-.39-.24-.57-.53-.4l-24.25 14a1.27 1.27 0 0 0-.53 1v3.69c0 .39.24.57.53.4Z"/><path class="ag" d="m219 123 3.62-2.09a1.23 1.23 0 0 0 .51-1c0-.37-.23-.55-.51-.38l-3.62 2.09a1.24 1.24 0 0 0-.52 1c.04.38.27.54.52.38Z"/><path class="ae" d="M216 124.09c0 .38.27.53.6.34a1.33 1.33 0 0 0 .59-1c0-.37-.27-.53-.59-.34a1.32 1.32 0 0 0-.6 1ZM213.86 125.3c0 .38.27.53.59.34a1.32 1.32 0 0 0 .6-1c0-.38-.27-.53-.6-.34a1.33 1.33 0 0 0-.59 1Z"/><path class="ag" d="M211.77 126.51c0 .37.26.53.59.34a1.3 1.3 0 0 0 .59-1c0-.38-.26-.53-.59-.34a1.3 1.3 0 0 0-.59 1Z"/><path class="ae" d="M209.68 127.71c0 .38.26.54.59.35a1.3 1.3 0 0 0 .59-1c0-.38-.26-.53-.59-.34a1.3 1.3 0 0 0-.59.99ZM201.8 133.36l1.22-.71a.78.78 0 0 0 .33-.63v-1.28c0-.25-.15-.36-.33-.25l-1.22.7a.81.81 0 0 0-.33.63v1.29c0 .24.15.35.33.25Z"/><path class="ah" d="m199.1 146.17 25.73-14.85a2.5 2.5 0 0 0 1-2v-4.91c0-.76-.47-1.12-1-.78l-25.73 14.86a2.5 2.5 0 0 0-1 2v4.9c-.04.76.43 1.12 1 .78Z"/><path class="aa" d="m199.84 144.45 24.25-14a1.26 1.26 0 0 0 .53-1v-3.68c0-.39-.24-.57-.53-.4l-24.25 14a1.26 1.26 0 0 0-.53 1v3.68c0 .39.24.57.53.4Z"/><path class="ag" d="m219 131.51 3.62-2.09a1.24 1.24 0 0 0 .51-1c0-.38-.23-.56-.51-.39l-3.62 2.11a1.21 1.21 0 0 0-.52 1c.04.36.27.53.52.37Z"/><path class="ae" d="M216 132.6c0 .38.27.53.6.35a1.33 1.33 0 0 0 .59-1c0-.38-.27-.53-.59-.34a1.28 1.28 0 0 0-.6.99ZM213.86 133.81c0 .38.27.53.59.34a1.31 1.31 0 0 0 .6-1c0-.38-.27-.54-.6-.35a1.33 1.33 0 0 0-.59 1.01Z"/><path class="ag" d="M211.77 135c0 .38.26.53.59.34a1.3 1.3 0 0 0 .59-1c0-.37-.26-.53-.59-.34a1.3 1.3 0 0 0-.59 1Z"/><path class="ae" d="M209.68 136.23c0 .38.26.53.59.34a1.3 1.3 0 0 0 .59-1c0-.38-.26-.53-.59-.34a1.3 1.3 0 0 0-.59 1ZM201.8 141.87l1.22-.7a.81.81 0 0 0 .33-.63v-1.29c0-.24-.15-.36-.33-.25l-1.22.7a.81.81 0 0 0-.33.63v1.29c0 .25.15.38.33.25Z"/><path class="ah" d="m199.1 154.53 25.73-14.85a2.5 2.5 0 0 0 1-2v-4.9c0-.77-.47-1.13-1-.79l-25.73 14.86a2.5 2.5 0 0 0-1 2v4.91c-.04.75.43 1.11 1 .77Z"/><path class="aa" d="m199.84 152.81 24.25-14a1.26 1.26 0 0 0 .53-1v-3.68c0-.39-.24-.57-.53-.4l-24.25 14a1.26 1.26 0 0 0-.53 1v3.68c0 .39.24.59.53.4Z"/><path class="ag" d="m219 139.87 3.62-2.09a1.23 1.23 0 0 0 .51-1c0-.38-.23-.55-.51-.39L219 138.5a1.21 1.21 0 0 0-.52 1c.04.36.27.5.52.37Z"/><path class="ae" d="M216 141c0 .38.27.54.6.35a1.33 1.33 0 0 0 .59-1c0-.38-.27-.53-.59-.34a1.31 1.31 0 0 0-.6.99ZM213.86 142.17c0 .38.27.53.59.34a1.31 1.31 0 0 0 .6-1c0-.38-.27-.53-.6-.35a1.33 1.33 0 0 0-.59 1.01Z"/><path class="ag" d="M211.77 143.38c0 .38.26.53.59.34a1.3 1.3 0 0 0 .59-1c0-.37-.26-.53-.59-.34a1.3 1.3 0 0 0-.59 1Z"/><path class="ae" d="M209.68 144.59c0 .38.26.53.59.34a1.3 1.3 0 0 0 .59-1c0-.38-.26-.53-.59-.34a1.3 1.3 0 0 0-.59 1ZM201.8 150.23l1.22-.7a.81.81 0 0 0 .33-.63v-1.29c0-.24-.15-.35-.33-.25l-1.22.7a.81.81 0 0 0-.33.63V150c0 .23.15.34.33.23Z"/><path class="ah" d="m199.5 163 25.72-14.85a2.48 2.48 0 0 0 1.05-2v-4.9c0-.77-.47-1.12-1.05-.79l-25.72 14.88a2.47 2.47 0 0 0-1 2v4.91c-.04.75.42 1.11 1 .75Z"/><path class="aa" d="m200.24 161.3 24.24-14a1.26 1.26 0 0 0 .53-1v-3.69c0-.39-.23-.57-.53-.4l-24.24 14a1.27 1.27 0 0 0-.53 1v3.68c0 .4.29.58.53.41Z"/><path class="ag" d="m219.43 148.36 3.62-2.09a1.23 1.23 0 0 0 .51-1c0-.38-.23-.55-.51-.39l-3.62 2.12a1.23 1.23 0 0 0-.51 1c0 .35.23.52.51.36Z"/><path class="ae" d="M216.35 149.45c0 .38.26.54.59.35a1.3 1.3 0 0 0 .59-1c0-.38-.26-.53-.59-.34a1.3 1.3 0 0 0-.59.99ZM214.26 150.66c0 .38.26.53.59.34a1.27 1.27 0 0 0 .59-1c0-.38-.26-.53-.59-.34a1.27 1.27 0 0 0-.59 1Z"/><path class="ag" d="M212.16 151.87c0 .38.27.53.6.34a1.33 1.33 0 0 0 .59-1c0-.38-.27-.54-.59-.35a1.32 1.32 0 0 0-.6 1.01Z"/><path class="ae" d="M210.07 153.08c0 .38.27.53.59.34a1.32 1.32 0 0 0 .6-1c0-.37-.27-.53-.6-.34a1.33 1.33 0 0 0-.59 1ZM202.2 158.72l1.22-.7a.81.81 0 0 0 .33-.63v-1.29c0-.24-.15-.35-.33-.25l-1.22.7a.78.78 0 0 0-.33.63v1.29c0 .25.13.36.33.25Z"/><path class="q" d="m163.29 193.37 27.45-15.65c1-.58.88-1.6-.28-2.27l-15.8-9.12a4.34 4.34 0 0 0-3.91-.16l-27.46 15.66c-1 .58-.88 1.59.28 2.26l15.8 9.12a4.36 4.36 0 0 0 3.92.16Z"/><path class="ae" d="M140.84 176.56v-64.1l25.48-6.67 4.7-2.71a4.63 4.63 0 0 1 4.2.17l4.38 2.53h13.59l-4 61.88a1.23 1.23 0 0 1-.73 1.13L163 188a4.63 4.63 0 0 1-4.2-.17L141.86 178c-.71-.41-1.06-.94-1.02-1.44Z"/><path class="af" d="M173 102.66a4.89 4.89 0 0 1 2.25.59l4.38 2.53h13.59V170a1.22 1.22 0 0 1-.72 1.13L163 188a3.75 3.75 0 0 1-1.95.42l-.3-64.67Z"/><path class="aa" d="M162.74 188.1a4.8 4.8 0 0 1-3.36 0v-65.16h3.36Z"/><path class="af" d="m163 123.72 29.46-16.8c1.08-.62.94-1.71-.3-2.43l-16.95-9.78a4.67 4.67 0 0 0-4.2-.18l-29.46 16.8c-1.07.62-.94 1.71.3 2.43l16.95 9.78a4.67 4.67 0 0 0 4.2.18Z"/><path class="ag" d="m141.86 112.56 16.95 9.79a4.63 4.63 0 0 0 4.2.17l29.46-16.79a1.6 1.6 0 0 0 .54-.48 1.13 1.13 0 0 1-.54 1.67L163 123.72a4.67 4.67 0 0 1-4.2-.18l-16.95-9.78c-1-.56-1.26-1.34-.83-2a2.2 2.2 0 0 0 .84.8Z"/><path class="ah" d="m162.18 116.91 19.61-11.37c.51-.29.44-.8-.14-1.13l-7.93-4.58a2.15 2.15 0 0 0-2-.08l-19.61 11.36c-.5.29-.44.8.14 1.14l7.93 4.58a2.22 2.22 0 0 0 2 .08Z"/><path class="ai" d="m172.77 106.05 1.13-.65a.09.09 0 0 0 0-.16l-1.1-.64a.32.32 0 0 0-.27 0l-1.14.66c-.07 0-.06.11 0 .16l1.1.63a.29.29 0 0 0 .28 0ZM169 108.23l1.14-.65c.07 0 .06-.11 0-.16l-1.1-.63a.29.29 0 0 0-.27 0l-1.14.65c-.07 0-.06.11 0 .16l1.1.63a.29.29 0 0 0 .27 0ZM165.18 110.42l1.13-.66c.07 0 .06-.11 0-.16l-1.11-.6a.31.31 0 0 0-.28 0l-1.13.66c-.07 0-.06.11 0 .15l1.09.64a.34.34 0 0 0 .3-.03ZM161.38 112.6l1.14-.66c.07 0 .06-.11 0-.15l-1.1-.64a.32.32 0 0 0-.27 0l-1.14.66c-.07 0-.06.11 0 .16l1.1.63a.29.29 0 0 0 .27 0Z"/><path class="aa" d="m181.79 105.54-.12-.08-7.93-4.58a2.21 2.21 0 0 0-2-.08l-19.58 11.36c-.47-.34-.49-.79 0-1.06l19.61-11.36a2.15 2.15 0 0 1 2 .08l7.93 4.58c.53.34.6.85.09 1.14Z"/><path class="ah" d="M155.5 136.41 144.35 130a2.73 2.73 0 0 1-1.13-2.17v-4c0-.83.51-1.22 1.13-.86l11.15 6.39a2.71 2.71 0 0 1 1.14 2.17v4c0 .86-.51 1.25-1.14.88Z"/><path class="m" d="M143.8 122.89a1.15 1.15 0 0 0-.28.83v4a2.7 2.7 0 0 0 1.13 2.17l11.15 6.39a.91.91 0 0 0 .55.12.68.68 0 0 1-.85 0l-11.15-6.4a2.73 2.73 0 0 1-1.13-2.17v-4a.881.881 0 0 1 .58-.94Z"/><path class="aa" d="m152.15 132.08-1-.59a.59.59 0 0 1-.25-.47v-1.09c0-.18.11-.27.25-.19l1 .59a.59.59 0 0 1 .25.47v1.1c0 .18-.11.26-.25.18Z"/><path class="m" d="m148.73 130.11-1-.59a.59.59 0 0 1-.25-.47V128c0-.18.11-.26.25-.18l1 .59a.59.59 0 0 1 .25.47v1.09c.02.13-.11.22-.25.14Z"/><path class="ah" d="m155.44 151-11.15-6.38a2.76 2.76 0 0 1-1.13-2.17v-4c0-.84.51-1.22 1.13-.86l11.15 6.41a2.74 2.74 0 0 1 1.14 2.17v4c0 .83-.51 1.16-1.14.83Z"/><path class="m" d="M143.74 137.45a1.13 1.13 0 0 0-.28.83v4a2.73 2.73 0 0 0 1.13 2.17l11.15 6.38a.78.78 0 0 0 .55.12.67.67 0 0 1-.85 0l-11.15-6.38a2.76 2.76 0 0 1-1.13-2.17v-4c0-.54.23-.89.58-.95Z"/><path class="aa" d="m152.09 146.64-1-.59a.59.59 0 0 1-.25-.47v-1.1c0-.18.11-.26.25-.18l1 .59a.59.59 0 0 1 .25.47v1.09c0 .18-.11.27-.25.19Z"/><path class="m" d="m148.67 144.66-1-.59a.59.59 0 0 1-.25-.47v-1.09c0-.18.11-.27.25-.19l1 .59a.59.59 0 0 1 .25.47v1.1c0 .18-.11.26-.25.18Z"/><path class="ah" d="m155.5 164.1-11.15-6.39a2.73 2.73 0 0 1-1.13-2.17v-4c0-.83.51-1.22 1.13-.85l11.15 6.38a2.71 2.71 0 0 1 1.14 2.17v4c0 .83-.51 1.22-1.14.86Z"/><path class="m" d="M143.8 150.57a1.15 1.15 0 0 0-.28.83v4a2.7 2.7 0 0 0 1.13 2.17L155.8 164a.91.91 0 0 0 .55.12.69.69 0 0 1-.85 0l-11.15-6.39a2.73 2.73 0 0 1-1.13-2.17v-4c0-.56.23-.93.58-.99Z"/><path class="aa" d="m152.15 159.76-1-.59a.59.59 0 0 1-.25-.47v-1.09c0-.18.11-.27.25-.19l1 .59a.59.59 0 0 1 .25.47v1.1c0 .18-.11.26-.25.18Z"/><path class="m" d="m148.73 157.79-1-.59a.59.59 0 0 1-.25-.47v-1.1c0-.18.11-.26.25-.18l1 .59a.59.59 0 0 1 .25.47v1.09c.02.18-.11.27-.25.19Z"/><path class="ah" d="M155.5 178.34 144.35 172a2.73 2.73 0 0 1-1.13-2.17v-4c0-.83.51-1.22 1.13-.86l11.15 6.39a2.71 2.71 0 0 1 1.14 2.17v4c0 .78-.51 1.17-1.14.81Z"/><path class="m" d="M143.8 164.81a1.15 1.15 0 0 0-.28.83v4a2.7 2.7 0 0 0 1.13 2.17l11.15 6.39a.91.91 0 0 0 .55.12.69.69 0 0 1-.85 0L144.35 172a2.73 2.73 0 0 1-1.13-2.17v-4c0-.6.23-.96.58-1.02Z"/><path class="aa" d="m152.15 174-1-.59a.59.59 0 0 1-.25-.47v-1.09c0-.18.11-.27.25-.19l1 .59a.59.59 0 0 1 .25.47v1.1c0 .18-.11.26-.25.18Z"/><path class="m" d="m148.73 172-1-.59a.59.59 0 0 1-.25-.47v-1.1c0-.18.11-.26.25-.18l1 .59a.59.59 0 0 1 .25.47v1.09c.02.19-.11.3-.25.19Z"/><path class="ah" d="m165.16 132.33 25.72-14.85a2.48 2.48 0 0 0 1.05-2v-4.91c0-.76-.47-1.12-1.05-.78l-25.72 14.85a2.47 2.47 0 0 0-1 2v4.91c-.04.76.42 1.12 1 .78Z"/><path class="aa" d="m165.9 130.61 24.25-14a1.25 1.25 0 0 0 .52-1v-3.68c0-.39-.23-.57-.52-.4l-24.25 14a1.26 1.26 0 0 0-.53 1v3.68c0 .39.24.57.53.4Z"/><path class="ag" d="m185.09 117.67 3.62-2.09a1.24 1.24 0 0 0 .51-1c0-.38-.23-.55-.51-.39l-3.62 2.09a1.23 1.23 0 0 0-.51 1c0 .38.23.55.51.39Z"/><path class="ae" d="M182 118.76c0 .38.26.53.59.35a1.32 1.32 0 0 0 .6-1c0-.38-.27-.53-.6-.34a1.3 1.3 0 0 0-.59.99ZM179.92 120c0 .38.26.53.59.34a1.3 1.3 0 0 0 .59-1c0-.38-.26-.54-.59-.35a1.3 1.3 0 0 0-.59 1.01Z"/><path class="ag" d="M177.82 121.18c0 .38.27.53.6.34a1.33 1.33 0 0 0 .59-1c0-.37-.27-.53-.59-.34a1.32 1.32 0 0 0-.6 1Z"/><path class="ae" d="M175.73 122.39c0 .38.27.53.6.34a1.33 1.33 0 0 0 .59-1c0-.38-.27-.53-.59-.34a1.32 1.32 0 0 0-.6 1ZM167.86 128l1.22-.7a.81.81 0 0 0 .33-.63v-1.29c0-.24-.15-.36-.33-.25l-1.22.7a.81.81 0 0 0-.33.63v1.29c0 .25.15.39.33.25Z"/><path class="ah" d="M165.56 140.84 191.28 126a2.47 2.47 0 0 0 1-2v-4.91c0-.76-.46-1.12-1-.78l-25.72 14.85a2.48 2.48 0 0 0-1.05 2v4.9c0 .76.49 1.11 1.05.78Z"/><path class="aa" d="m166.29 139.12 24.25-14a1.27 1.27 0 0 0 .53-1v-3.68c0-.39-.24-.57-.53-.4l-24.25 14a1.28 1.28 0 0 0-.52 1v3.69c0 .38.23.56.52.39Z"/><path class="ag" d="m185.49 126.18 3.62-2.09a1.26 1.26 0 0 0 .51-1c0-.38-.23-.56-.51-.39l-3.62 2.09a1.21 1.21 0 0 0-.52 1c.03.38.23.55.52.39Z"/><path class="ae" d="M182.4 127.27c0 .38.27.53.6.34a1.3 1.3 0 0 0 .59-1c0-.38-.27-.53-.59-.35a1.32 1.32 0 0 0-.6 1.01ZM180.31 128.48c0 .38.27.53.6.34a1.33 1.33 0 0 0 .59-1c0-.38-.27-.54-.59-.35a1.32 1.32 0 0 0-.6 1.01Z"/><path class="ag" d="M178.22 129.69c0 .38.27.53.59.34a1.32 1.32 0 0 0 .6-1c0-.38-.27-.53-.6-.34a1.33 1.33 0 0 0-.59 1Z"/><path class="ae" d="M176.13 130.9c0 .37.26.53.59.34a1.3 1.3 0 0 0 .59-1c0-.38-.26-.53-.59-.34a1.3 1.3 0 0 0-.59 1ZM168.25 136.54l1.22-.7a.81.81 0 0 0 .33-.63v-1.29c0-.24-.15-.36-.33-.25l-1.22.7a.81.81 0 0 0-.33.63v1.29c0 .24.15.36.33.25Z"/><path class="ah" d="m165.36 149.27 25.72-14.85a2.51 2.51 0 0 0 1-2v-4.9c0-.77-.46-1.12-1-.79l-25.72 14.85a2.5 2.5 0 0 0-1 2v4.91c-.04.76.42 1.11 1 .78Z"/><path class="aa" d="m166.1 147.55 24.24-14a1.25 1.25 0 0 0 .53-1v-3.69c0-.39-.23-.57-.53-.4l-24.24 14a1.25 1.25 0 0 0-.53 1v3.69c0 .39.23.57.53.4Z"/><path class="ag" d="m185.29 134.6 3.62-2.09a1.23 1.23 0 0 0 .51-1c0-.38-.23-.55-.51-.39l-3.62 2.09a1.26 1.26 0 0 0-.51 1c0 .38.22.56.51.39Z"/><path class="ae" d="M182.21 135.7c0 .38.26.53.59.34a1.3 1.3 0 0 0 .59-1c0-.38-.26-.53-.59-.34a1.3 1.3 0 0 0-.59 1ZM180.11 136.91c0 .37.27.53.6.34a1.33 1.33 0 0 0 .59-1c0-.38-.27-.53-.59-.34a1.32 1.32 0 0 0-.6 1Z"/><path class="ag" d="M178 138.11c0 .38.27.54.6.35a1.33 1.33 0 0 0 .59-1c0-.38-.27-.53-.59-.34a1.31 1.31 0 0 0-.6.99Z"/><path class="ae" d="M175.93 139.32c0 .38.27.53.59.34a1.31 1.31 0 0 0 .6-1c0-.38-.27-.53-.6-.35a1.33 1.33 0 0 0-.59 1.01ZM168.06 145l1.21-.71a.75.75 0 0 0 .33-.63v-1.29c0-.24-.14-.35-.33-.25l-1.21.71a.77.77 0 0 0-.33.63v1.29c0 .25.14.32.33.25Z"/><path class="ah" d="m165.36 157.75 25.72-14.85a2.49 2.49 0 0 0 1-2V136c0-.77-.46-1.12-1-.79l-25.72 14.85a2.51 2.51 0 0 0-1 2V157c-.04.73.42 1.08 1 .75Z"/><path class="aa" d="m166.1 156 24.24-14a1.25 1.25 0 0 0 .53-1v-3.69c0-.39-.23-.57-.53-.4l-24.24 14a1.25 1.25 0 0 0-.53 1v3.69c0 .4.23.6.53.4Z"/><path class="ag" d="m185.29 143.08 3.62-2.08a1.26 1.26 0 0 0 .51-1c0-.37-.23-.55-.51-.38l-3.62 2.08a1.26 1.26 0 0 0-.51 1c0 .37.22.55.51.38Z"/><path class="ae" d="M182.21 144.18c0 .38.26.53.59.34a1.3 1.3 0 0 0 .59-1c0-.37-.26-.53-.59-.34a1.3 1.3 0 0 0-.59 1ZM180.11 145.39c0 .38.27.53.6.34a1.33 1.33 0 0 0 .59-1c0-.38-.27-.53-.59-.34a1.32 1.32 0 0 0-.6 1Z"/><path class="ag" d="M178 146.6c0 .37.27.53.6.34a1.33 1.33 0 0 0 .59-1c0-.38-.27-.53-.59-.34a1.32 1.32 0 0 0-.6 1Z"/><path class="ae" d="M175.93 147.8c0 .38.27.54.59.35a1.32 1.32 0 0 0 .6-1c0-.38-.27-.53-.6-.34a1.33 1.33 0 0 0-.59.99ZM168.06 153.45l1.21-.71a.75.75 0 0 0 .33-.62v-1.29c0-.25-.14-.36-.33-.25l-1.21.7a.78.78 0 0 0-.33.63v1.29c0 .24.14.35.33.25Z"/><path class="ah" d="m165.36 166.26 25.72-14.85a2.47 2.47 0 0 0 1-2v-4.91c0-.76-.46-1.12-1-.78l-25.72 14.85a2.47 2.47 0 0 0-1 2v4.91c-.04.76.42 1.12 1 .78Z"/><path class="aa" d="m166.1 164.54 24.24-14a1.23 1.23 0 0 0 .53-1v-3.68c0-.39-.23-.57-.53-.4l-24.24 14a1.23 1.23 0 0 0-.53 1v3.68c0 .39.23.57.53.4Z"/><path class="ag" d="m185.29 151.6 3.62-2.09a1.24 1.24 0 0 0 .51-1c0-.38-.23-.55-.51-.39l-3.62 2.09a1.23 1.23 0 0 0-.51 1c0 .38.22.55.51.39Z"/><path class="ae" d="M182.21 152.69c0 .38.26.53.59.35a1.3 1.3 0 0 0 .59-1c0-.38-.26-.53-.59-.34a1.27 1.27 0 0 0-.59.99ZM180.11 153.9c0 .38.27.53.6.34a1.33 1.33 0 0 0 .59-1c0-.38-.27-.54-.59-.35a1.32 1.32 0 0 0-.6 1.01Z"/><path class="ag" d="M178 155.11c0 .38.27.53.6.34a1.33 1.33 0 0 0 .59-1c0-.37-.27-.53-.59-.34a1.32 1.32 0 0 0-.6 1Z"/><path class="ae" d="M175.93 156.32c0 .38.27.53.59.34a1.32 1.32 0 0 0 .6-1c0-.38-.27-.53-.6-.34a1.33 1.33 0 0 0-.59 1ZM168.06 162l1.21-.7a.78.78 0 0 0 .33-.63v-1.29c0-.24-.14-.36-.33-.25l-1.21.7a.78.78 0 0 0-.33.63v1.29c0 .25.14.32.33.25Z"/><path class="ah" d="m165.36 174.62 25.72-14.85a2.47 2.47 0 0 0 1-2v-4.9c0-.77-.46-1.13-1-.79l-25.72 14.85a2.47 2.47 0 0 0-1 2v4.91c-.04.76.42 1.16 1 .78Z"/><path class="aa" d="m166.1 172.9 24.24-14a1.27 1.27 0 0 0 .53-1v-3.68c0-.39-.23-.57-.53-.4l-24.24 14a1.23 1.23 0 0 0-.53 1v3.68c0 .39.23.57.53.4Z"/><path class="ag" d="m185.29 160 3.62-2.09a1.23 1.23 0 0 0 .51-1c0-.38-.23-.55-.51-.39l-3.62 2.09a1.23 1.23 0 0 0-.51 1c0 .39.22.51.51.39Z"/><path class="ae" d="M182.21 161.05c0 .38.26.54.59.35a1.3 1.3 0 0 0 .59-1c0-.38-.26-.53-.59-.34a1.3 1.3 0 0 0-.59.99ZM180.11 162.26c0 .38.27.53.6.34a1.31 1.31 0 0 0 .59-1c0-.38-.27-.53-.59-.35a1.32 1.32 0 0 0-.6 1.01Z"/><path class="ag" d="M178 163.47c0 .38.27.53.6.34a1.33 1.33 0 0 0 .59-1c0-.37-.27-.53-.59-.34a1.32 1.32 0 0 0-.6 1Z"/><path class="ae" d="M175.93 164.68c0 .38.27.53.59.34a1.32 1.32 0 0 0 .6-1c0-.38-.27-.53-.6-.34a1.33 1.33 0 0 0-.59 1ZM168.06 170.32l1.21-.7a.78.78 0 0 0 .33-.63v-1.29c0-.24-.14-.35-.33-.25l-1.21.7a.78.78 0 0 0-.33.63v1.29c0 .25.14.36.33.25Z"/><path class="ah" d="m165.75 183.11 25.73-14.85a2.5 2.5 0 0 0 1-2v-4.9c0-.77-.47-1.12-1-.79l-25.73 14.85a2.5 2.5 0 0 0-1 2v4.91c-.04.76.43 1.12 1 .78Z"/><path class="aa" d="m166.49 181.39 24.25-14a1.29 1.29 0 0 0 .53-1v-3.69c0-.39-.24-.57-.53-.4l-24.25 14a1.27 1.27 0 0 0-.53 1v3.7c.04.38.24.56.53.39Z"/><path class="ag" d="m185.69 168.45 3.61-2.09a1.21 1.21 0 0 0 .52-1c0-.38-.23-.55-.52-.39l-3.61 2.09a1.21 1.21 0 0 0-.52 1c0 .38.23.55.52.39Z"/><path class="ae" d="M182.6 169.54c0 .38.27.54.6.35a1.33 1.33 0 0 0 .59-1c0-.38-.27-.53-.59-.34a1.31 1.31 0 0 0-.6.99ZM180.51 170.75c0 .38.27.53.59.34a1.28 1.28 0 0 0 .6-1c0-.38-.27-.53-.6-.34a1.3 1.3 0 0 0-.59 1Z"/><path class="ag" d="M178.42 172c0 .38.26.53.59.34a1.3 1.3 0 0 0 .59-1c0-.38-.26-.54-.59-.35a1.3 1.3 0 0 0-.59 1.01Z"/><path class="ae" d="M176.33 173.17c0 .38.26.53.59.34a1.3 1.3 0 0 0 .59-1c0-.37-.26-.53-.59-.34a1.3 1.3 0 0 0-.59 1ZM168.45 178.81l1.22-.7a.81.81 0 0 0 .33-.63v-1.29c0-.24-.15-.35-.33-.25l-1.22.7a.81.81 0 0 0-.33.63v1.29c0 .25.15.36.33.25Z"/><path class="g" d="M205.2 178a.39.39 0 0 0 .33-.19.37.37 0 0 0-.14-.51l-5.07-2.93a1.89 1.89 0 0 1-.94-1.62v-2.69a.37.37 0 0 0-.37-.37.38.38 0 0 0-.38.37v2.69a2.6 2.6 0 0 0 1.31 2.26L205 178a.45.45 0 0 0 .2 0Z"/><path class="q" d="m229.35 239.56 63.85-36.86c1.8-1 1.57-2.87-.51-4.07l-43.47-25.09a7.83 7.83 0 0 0-7.05-.29l-63.84 36.86c-1.81 1-1.58 2.86.51 4.06l43.47 25.09a7.81 7.81 0 0 0 7.04.3Z"/><path class="g" d="M213.94 237.81a.35.35 0 0 0 .19-.06l12.22-7.23a.38.38 0 0 0-.38-.65l-12.22 7.24a.378.378 0 0 0 .19.7Z"/><path class="ah" d="m177.11 203.22 8.73-1.15 56.33-32.52a7.8 7.8 0 0 1 7.05.29l39.92 23 5.27-.7v3a2.06 2.06 0 0 1-1.21 1.86l-63.85 36.86a7.78 7.78 0 0 1-7-.29l-43.51-25.07a2.85 2.85 0 0 1-1.73-2.37Z"/><path class="q" d="m219.44 182.67 4-2.31h44l21.7 12.52 5.27-.7v3a2.06 2.06 0 0 1-1.21 1.82l-63.85 36.86a6.58 6.58 0 0 1-3.63.68Z"/><path class="i" d="m292.07 192.49 2.34-.31v3a2.06 2.06 0 0 1-1.21 1.82l-1.13.65Z"/><path d="M228.71 234.18a8.18 8.18 0 0 1-6-.37v-6.68h6Z" style="fill:#a3a3a3"/><path class="i" d="M229.35 230.89 293.2 194c1.8-1 1.57-2.86-.51-4.06l-43.47-25.09a7.83 7.83 0 0 0-7.05-.3l-63.84 36.86c-1.81 1.05-1.58 2.87.51 4.07l43.47 25.09a7.81 7.81 0 0 0 7.04.32Z"/><path class="m" d="m178.84 204.42 43.47 25.09a7.84 7.84 0 0 0 7 .29l63.85-36.86a2.37 2.37 0 0 0 1.12-1.23 1.93 1.93 0 0 1-1.08 2.29l-63.85 36.86a7.81 7.81 0 0 1-7-.29l-43.47-25.09c-1.41-.81-2-1.9-1.63-2.84a3.39 3.39 0 0 0 1.59 1.78Z"/><path class="ah" d="m266 181.83 2.89-1.67c.23-.13.2-.36-.06-.52l-3.41-2a1 1 0 0 0-.91 0l-2.89 1.67c-.23.14-.2.37.07.53l3.41 2a1 1 0 0 0 .9-.01ZM261.58 184.41l2.89-1.67c.23-.14.2-.37-.06-.52l-3.41-2a1 1 0 0 0-.91 0l-2.89 1.67c-.23.13-.2.37.07.52l3.41 2a1 1 0 0 0 .9 0ZM257.12 187l2.89-1.67c.23-.13.2-.36-.07-.52l-3.4-2a1 1 0 0 0-.91 0l-2.89 1.66c-.23.14-.2.37.07.53l3.41 2a1 1 0 0 0 .9 0ZM251 184.86l2.89-1.67c.23-.14.2-.37-.07-.52l-2.91-1.67a1 1 0 0 0-.9 0l-2.89 1.66c-.23.14-.2.37.06.53l2.87 1.65a1 1 0 0 0 .95.02ZM246.49 187.43l2.89-1.67c.23-.13.2-.36-.07-.52l-2.86-1.65a1 1 0 0 0-.9 0l-2.89 1.67c-.23.13-.2.37.06.52l2.87 1.65a1 1 0 0 0 .9 0ZM242 190l2.89-1.67c.23-.14.2-.37-.07-.52l-2.82-1.65a1 1 0 0 0-.9 0l-2.89 1.66c-.23.14-.21.37.06.53l2.86 1.65a1 1 0 0 0 .87 0ZM237.57 192.58l2.89-1.67c.23-.13.2-.36-.07-.52l-2.86-1.65a1 1 0 0 0-.9 0l-2.89 1.67c-.24.13-.21.37.06.52l2.86 1.65a1 1 0 0 0 .91 0ZM233.11 195.16l2.89-1.67c.23-.13.2-.37-.07-.52l-2.86-1.66a1 1 0 0 0-.91 0l-2.88 1.66c-.24.14-.21.37.06.53l2.86 1.65a1 1 0 0 0 .91.01ZM228.65 197.73l2.89-1.67c.23-.13.2-.36-.07-.52l-2.86-1.65a1 1 0 0 0-.91 0l-2.88 1.67c-.24.13-.21.37.06.52l2.86 1.66a1 1 0 0 0 .91-.01ZM224.19 200.31l2.88-1.67c.24-.13.21-.37-.06-.52l-2.86-1.65a1 1 0 0 0-.91 0l-2.89 1.67c-.23.13-.2.36.07.52l2.86 1.65a1 1 0 0 0 .91 0ZM219.73 202.88l2.88-1.66c.24-.14.21-.37-.06-.53l-2.86-1.69a1 1 0 0 0-.91 0l-2.89 1.67c-.23.14-.2.37.07.52l2.86 1.66a1 1 0 0 0 .91.03ZM215.26 205.46l2.89-1.67c.24-.13.21-.37-.06-.52l-2.86-1.65a1 1 0 0 0-.91 0l-2.89 1.67c-.23.13-.2.36.07.52l2.86 1.65a1 1 0 0 0 .9 0ZM210.8 208l2.89-1.66c.23-.14.21-.37-.06-.53l-2.86-1.65a1 1 0 0 0-.91 0l-2.86 1.66c-.23.14-.2.37.07.52l2.83 1.66a1 1 0 0 0 .9 0Z"/><path class="q" d="m244.38 183.64 2.89-1.67c.23-.14.2-.37-.07-.52l-2.86-1.66a1 1 0 0 0-.9 0l-2.89 1.66c-.24.14-.21.37.06.53l2.86 1.65a1 1 0 0 0 .91.01ZM248.91 181l2.88-1.67c.24-.13.21-.36-.06-.52l-2.86-1.65a1 1 0 0 0-.91 0l-2.89 1.67c-.23.13-.2.37.07.52L248 181a1 1 0 0 0 .91 0Z"/><path class="ah" d="m253.44 178.4 6.22-3.59c.23-.13.2-.37-.06-.52l-2.86-1.65a1 1 0 0 0-.91 0l-6.22 3.59c-.23.14-.2.37.06.52l2.87 1.66a1 1 0 0 0 .9-.01ZM250.27 175.22l5-2.92c.23-.13.2-.36-.07-.52l-2.86-1.65a1 1 0 0 0-.9 0l-5 2.87c-.23.13-.2.37.06.52l2.87 1.65a1 1 0 0 0 .9.05Z"/><path class="q" d="m239.92 186.21 2.89-1.67c.23-.13.2-.36-.07-.52l-2.86-1.65a1 1 0 0 0-.91 0l-2.88 1.63c-.24.13-.21.37.06.52l2.86 1.65a1 1 0 0 0 .91.04Z"/><path class="ah" d="m235.46 188.79 2.89-1.67c.23-.13.2-.37-.07-.52l-2.86-1.66a1 1 0 0 0-.91 0l-2.89 1.66c-.23.14-.2.37.07.53l2.86 1.65a1 1 0 0 0 .91.01ZM231 191.36l2.88-1.67c.24-.13.21-.36-.06-.52l-2.82-1.65a1 1 0 0 0-.91 0l-2.89 1.67c-.23.13-.2.37.07.52l2.86 1.65a1 1 0 0 0 .87 0ZM226.54 193.94l2.88-1.67c.24-.13.21-.37-.06-.52l-2.86-1.65a1 1 0 0 0-.91 0l-2.89 1.67c-.23.13-.2.36.07.52l2.86 1.65a1 1 0 0 0 .91 0ZM222.07 196.51l2.89-1.66c.23-.14.21-.37-.06-.53l-2.9-1.65a1 1 0 0 0-.91 0l-2.89 1.67c-.23.13-.2.37.07.52l2.86 1.66a1 1 0 0 0 .94-.01ZM217.61 199.09l2.89-1.67c.23-.13.2-.37-.06-.52l-2.86-1.65a1 1 0 0 0-.91 0l-2.89 1.67c-.23.13-.2.36.07.52l2.86 1.65a1 1 0 0 0 .9 0ZM213.15 201.66 216 200c.23-.14.2-.37-.06-.53l-2.87-1.65a1 1 0 0 0-.9 0l-2.89 1.67c-.23.14-.2.37.07.52l2.86 1.66a1 1 0 0 0 .94-.01ZM208.69 204.24l2.89-1.67c.23-.13.2-.37-.06-.52l-2.87-1.65a1 1 0 0 0-.9 0l-2.89 1.6c-.23.13-.2.37.06.52l2.87 1.65a1 1 0 0 0 .9.07ZM204.23 206.82l2.89-1.67c.23-.14.2-.37-.07-.53l-2.86-1.62a1 1 0 0 0-.9 0l-2.89 1.66c-.23.14-.2.37.06.53l2.87 1.65a1 1 0 0 0 .9-.02ZM196.3 211.39l6.3-3.64c.24-.13.21-.36-.06-.52l-2.86-1.65a1 1 0 0 0-.91 0l-6.3 3.64c-.23.14-.2.37.06.52l2.87 1.66a1 1 0 0 0 .9-.01ZM187.62 206.38l5.32-3.07c.23-.14.2-.37-.07-.52l-2.87-1.66a1 1 0 0 0-.91 0l-5.32 3.07c-.23.13-.2.37.07.52l2.86 1.65a1 1 0 0 0 .92.01ZM232.11 185.71 235 184c.24-.13.21-.37-.06-.52l-2.86-1.66a1 1 0 0 0-.91 0l-2.89 1.67c-.23.13-.2.36.07.52l2.86 1.65a1 1 0 0 0 .9.05ZM236.68 183.07l2.89-1.67c.23-.13.2-.37-.07-.52l-2.86-1.65a1 1 0 0 0-.91 0l-2.88 1.67c-.24.13-.21.36.06.52l2.86 1.65a1 1 0 0 0 .91 0Z"/><path class="q" d="m241.25 180.43 2.89-1.67c.23-.13.2-.37-.07-.52l-2.86-1.65a1 1 0 0 0-.9 0l-2.89 1.67c-.23.13-.21.36.06.52l2.86 1.65a1 1 0 0 0 .91 0Z"/><path class="ah" d="m245.82 177.79 2.89-1.67c.23-.13.2-.37-.07-.52l-2.86-1.6a1 1 0 0 0-.9 0l-2.88 1.58c-.23.13-.2.36.06.52l2.87 1.65a1 1 0 0 0 .89.04ZM227.64 188.28l2.89-1.66c.24-.14.21-.37-.06-.53l-2.86-1.65a1 1 0 0 0-.91 0l-2.89 1.67c-.23.13-.2.37.07.52l2.86 1.66a1 1 0 0 0 .9-.01ZM223.18 190.86l2.89-1.67c.23-.13.21-.37-.06-.52l-2.86-1.67a1 1 0 0 0-.91 0l-2.89 1.67c-.23.13-.2.36.07.52l2.86 1.65a1 1 0 0 0 .9.02ZM218.72 193.43l2.89-1.66c.23-.14.2-.37-.06-.53l-2.87-1.65a1 1 0 0 0-.9 0l-2.89 1.67c-.23.14-.2.37.07.52l2.86 1.66a1 1 0 0 0 .9-.01ZM214.26 196l2.89-1.67c.23-.13.2-.37-.06-.52l-2.87-1.65a1 1 0 0 0-.9 0l-2.89 1.67c-.23.13-.2.36.07.52l2.86 1.65a1 1 0 0 0 .9 0ZM209.8 198.58l2.89-1.66c.23-.14.2-.37-.06-.53l-2.87-1.65a1 1 0 0 0-.9 0l-2.86 1.63c-.23.14-.2.37.06.52l2.87 1.66a1 1 0 0 0 .87.03ZM205.34 201.16l2.89-1.67c.23-.13.2-.37-.07-.52l-2.86-1.65a1 1 0 0 0-.9 0l-2.89 1.68c-.23.13-.2.37.06.52l2.87 1.65a1 1 0 0 0 .9-.01ZM200.88 203.74l2.89-1.67c.23-.14.2-.37-.07-.52l-2.86-1.66a1 1 0 0 0-.9 0l-2.89 1.66c-.23.14-.2.37.06.53l2.89 1.62a1 1 0 0 0 .88.04ZM196.42 206.31l2.89-1.67c.23-.13.2-.36-.07-.52l-2.86-1.65a1 1 0 0 0-.9 0l-2.89 1.67c-.23.13-.21.37.06.52l2.86 1.65a1 1 0 0 0 .91 0ZM192 208.89l2.89-1.67c.23-.14.2-.37-.07-.52l-2.9-1.7a1 1 0 0 0-.91 0l-2.88 1.66c-.24.14-.21.37.06.53l2.86 1.65a1 1 0 0 0 .95.05ZM234.45 179.34l2.89-1.67c.24-.13.21-.37-.06-.52l-2.86-1.66a1 1 0 0 0-.91 0l-2.89 1.66c-.23.14-.2.37.07.53l2.86 1.65a1 1 0 0 0 .9.01ZM238.89 176.77l2.89-1.66c.23-.14.2-.37-.06-.53l-2.87-1.65a1 1 0 0 0-.9 0l-2.89 1.67c-.23.14-.2.37.07.52l2.86 1.66a1 1 0 0 0 .9-.01ZM243.33 174.21l2.89-1.67c.23-.13.2-.36-.06-.52l-2.87-1.65a1 1 0 0 0-.9 0L239.5 172c-.23.13-.2.37.07.52l2.86 1.65a1 1 0 0 0 .9.04ZM247.77 171.65l2.89-1.67c.23-.13.2-.37-.07-.52l-2.86-1.65a1 1 0 0 0-.9 0l-2.89 1.67c-.23.13-.2.36.06.52l2.87 1.65a1 1 0 0 0 .9 0ZM243.21 169l2.89-1.66c.23-.14.2-.37-.07-.53l-.95-.54a1 1 0 0 0-.9 0l-2.89 1.67c-.23.13-.2.37.07.52l.94.55a1 1 0 0 0 .91-.01ZM237.41 172.36l2.89-1.67c.23-.13.21-.37-.06-.52l-1-.55a1 1 0 0 0-.9 0l-2.89 1.67c-.23.14-.2.37.06.52l.95.55a1 1 0 0 0 .95 0ZM233 174.91l2.89-1.67c.23-.13.21-.37-.06-.52l-.95-.55a1 1 0 0 0-.9 0l-2.89 1.66c-.23.14-.21.37.06.53l1 .54a1 1 0 0 0 .85.01ZM228.57 177.46l2.89-1.67c.23-.13.21-.36-.06-.52l-1-.54a1 1 0 0 0-.9 0l-2.89 1.67c-.23.13-.21.36.06.52l.95.54a1 1 0 0 0 .95 0ZM224.15 180l2.89-1.66c.23-.14.2-.37-.06-.53l-.95-.54a1 1 0 0 0-.9 0l-2.89 1.67c-.23.13-.21.37.06.52l.95.55a1 1 0 0 0 .9-.01ZM199.48 194.26l2.89-1.67c.23-.13.2-.36-.07-.52l-1-.54a1 1 0 0 0-.9 0l-2.89 1.67c-.23.13-.2.36.07.52l.94.54a1 1 0 0 0 .96 0ZM195.06 196.81l2.88-1.66c.24-.14.21-.37-.06-.53l-.95-.54a1 1 0 0 0-.9 0l-2.89 1.67c-.23.13-.2.37.07.52l.94.55a1 1 0 0 0 .91-.01ZM190.64 199.37l2.88-1.67c.24-.14.21-.37-.06-.52l-1-.55a1 1 0 0 0-.9 0l-2.89 1.67c-.23.13-.2.37.07.52l.94.55a1 1 0 0 0 .96 0ZM186.22 201.92l2.88-1.67c.24-.13.21-.37-.06-.52l-.95-.55a1 1 0 0 0-.9 0l-2.89 1.67c-.23.14-.2.37.06.52l.95.55a1 1 0 0 0 .91 0ZM230 181.91l2.89-1.67c.23-.13.21-.36-.06-.52l-2.83-1.65a1 1 0 0 0-.91 0l-2.89 1.67c-.23.13-.2.37.07.52l2.86 1.66a1 1 0 0 0 .87-.01ZM225.53 184.49l2.89-1.67c.23-.13.2-.37-.06-.52l-2.87-1.65a1 1 0 0 0-.9 0l-2.89 1.67c-.23.13-.2.36.07.52l2.86 1.65a1 1 0 0 0 .9 0ZM221.07 187.06l2.93-1.66c.23-.14.2-.37-.06-.53l-2.94-1.65a1 1 0 0 0-.9 0l-2.89 1.67c-.23.14-.2.37.07.52l2.86 1.66a1 1 0 0 0 .93-.01ZM216.61 189.64l2.89-1.64c.23-.13.2-.37-.07-.52l-2.86-1.65a1 1 0 0 0-.9 0l-2.89 1.67c-.23.13-.2.36.06.52l2.87 1.65a1 1 0 0 0 .9-.03ZM212.15 192.21l2.89-1.66c.23-.14.2-.37-.07-.53l-2.86-1.65a1 1 0 0 0-.9 0l-2.89 1.63c-.23.14-.2.37.06.52l2.87 1.66a1 1 0 0 0 .9.03ZM207.69 194.79l2.89-1.67c.23-.13.2-.37-.07-.52l-2.86-1.6a1 1 0 0 0-.9 0l-2.89 1.67c-.23.13-.21.37.06.52l2.86 1.65a1 1 0 0 0 .91-.05ZM203.23 197.37l2.89-1.67c.23-.14.2-.37-.07-.52l-2.86-1.66a1 1 0 0 0-.9 0l-2.89 1.66c-.24.14-.21.37.06.53l2.86 1.65a1 1 0 0 0 .91.01ZM198.77 199.94l2.89-1.67c.23-.13.2-.36-.07-.52l-2.86-1.65a1 1 0 0 0-.91 0l-2.88 1.67c-.24.13-.21.37.06.52l2.86 1.65a1 1 0 0 0 .91 0ZM194.31 202.52l2.89-1.67c.23-.14.2-.37-.07-.52l-2.86-1.66a1 1 0 0 0-.91 0l-2.88 1.66c-.24.14-.21.37.06.53l2.86 1.65a1 1 0 0 0 .91.01ZM255.5 182.23l8.5-4.91c.24-.13.21-.37-.06-.52l-2.86-1.66a1 1 0 0 0-.91 0l-8.5 4.91c-.24.13-.21.37.06.52l2.86 1.65a1 1 0 0 0 .91.01ZM200.69 213.87l8.51-4.87c.23-.13.2-.37-.06-.52l-2.87-1.66a1 1 0 0 0-.9 0l-8.51 4.91c-.23.13-.2.37.07.52l2.86 1.65a1 1 0 0 0 .9-.03ZM218.53 209.26l2.89-1.67c.23-.13.21-.37-.06-.52l-3.41-2a1 1 0 0 0-.91 0l-2.89 1.67c-.23.14-.2.37.07.52l3.41 2a1 1 0 0 0 .9 0ZM250.93 190.56l4.62-2.67c.23-.13.2-.37-.07-.52l-3.41-2a1 1 0 0 0-.9 0l-4.62 2.63c-.23.13-.2.37.06.52l3.41 2a1 1 0 0 0 .91.04ZM222.83 206.78l4.62-2.67c.23-.13.2-.37-.06-.52l-3.41-2a1 1 0 0 0-.91 0l-4.62 2.67c-.23.13-.2.37.07.52l3.41 2a1 1 0 0 0 .9 0ZM244.49 194.27l4.62-2.66c.23-.14.21-.37-.06-.53l-3.41-2a1 1 0 0 0-.91 0l-4.62 2.66c-.23.14-.2.37.07.53l3.41 2a1 1 0 0 0 .9 0Z"/><path class="ah" d="m244.7 189.1-20.08 11.59c-.25.15-.25.38 0 .52l3.47 2a1 1 0 0 0 .91 0l20.08-11.6ZM206.07 213.93l-3.22 1.86c-.19.11-.17.3.05.43l1.4.8a.81.81 0 0 0 .74 0l3.22-1.86c.19-.11.16-.3-.06-.42l-1.39-.81a.81.81 0 0 0-.74 0ZM210.56 211.33l-3.21 1.86c-.19.11-.17.3.05.43l1.4.8a.81.81 0 0 0 .74 0l3.21-1.85c.19-.11.17-.3-.05-.43l-1.39-.81a.86.86 0 0 0-.75 0ZM215 208.76l-3.22 1.86c-.19.1-.17.3.05.42l1.4.81a.81.81 0 0 0 .74 0l3.22-1.86c.19-.11.16-.3-.06-.43l-1.39-.8a.81.81 0 0 0-.74 0ZM208.1 209.91l-3.22 1.86c-.19.11-.16.3.06.43l1.39.8a.81.81 0 0 0 .74 0l3.22-1.86c.19-.1.17-.3 0-.42l-1.4-.81a.81.81 0 0 0-.79 0Z"/><path class="q" d="m244.26 216.59-14.76-8.52a1.42 1.42 0 0 1-.83-1.18 1.14 1.14 0 0 1 .64-1L251.6 193a3.34 3.34 0 0 1 3 .11l14.76 8.53a1.43 1.43 0 0 1 .84 1.18 1.12 1.12 0 0 1-.64 1l-22.3 12.88a2.77 2.77 0 0 1-1.26.3 3.4 3.4 0 0 1-1.74-.41Zm7.74-22.94-22.29 12.87c-.11.06-.29.19-.29.37s.18.4.48.58l14.71 8.53a2.62 2.62 0 0 0 2.34.11l22.3-12.87c.11-.06.29-.19.29-.37s-.18-.4-.49-.58l-14.76-8.52a2.79 2.79 0 0 0-1.35-.34 2 2 0 0 0-.94.22Z"/><path class="m" d="m251.11 203-2.19-1.23a.92.92 0 0 0-.79 0c-.24.13-.26.34-.06.45l2.19 1.22a.88.88 0 0 0 .79 0c.23-.13.26-.33.06-.44ZM255.75 205.6l-3.23-1.81a.89.89 0 0 0-.79 0c-.23.13-.26.33-.06.45l3.23 1.8a.88.88 0 0 0 .79 0c.23-.13.31-.33.06-.44ZM243.87 207l-4.17-2.34a.92.92 0 0 0-.79 0c-.23.14-.26.34-.06.45l4.15 2.39a.94.94 0 0 0 .8 0c.25-.17.28-.37.07-.5ZM244.63 203.4l-1.37-.76a.88.88 0 0 0-.79 0c-.24.14-.26.34-.06.45l1.37.77a.92.92 0 0 0 .79 0c.23-.15.26-.35.06-.46ZM247.7 201.09l-.88-.49a.88.88 0 0 0-.79 0c-.24.14-.26.34-.06.45l.88.49a.88.88 0 0 0 .79 0c.23-.14.26-.34.06-.45ZM251.47 199.17l-1.09-.61a.88.88 0 0 0-.79 0c-.24.14-.26.34-.06.45l1.09.61a.88.88 0 0 0 .79 0c.23-.14.26-.34.06-.45ZM255.7 201.54l-2.87-1.61a.89.89 0 0 0-.79 0c-.23.13-.26.33-.06.45l2.87 1.6a.88.88 0 0 0 .79 0c.24-.13.26-.33.06-.44ZM254.22 198.69l-2.06-1.15a.88.88 0 0 0-.79 0c-.24.14-.26.34-.06.45l2.06 1.16a.88.88 0 0 0 .79 0c.24-.15.26-.34.06-.46ZM249.7 206.25l-3.64-2.05a.92.92 0 0 0-.79 0c-.24.13-.26.34-.06.45l3.65 2a.86.86 0 0 0 .79 0c.23-.09.26-.29.05-.4ZM247.84 207.22l-6.36-3.57a.92.92 0 0 0-.79 0c-.23.14-.26.34-.06.45l6.37 3.6a.86.86 0 0 0 .79 0c.21-.17.21-.37.05-.48ZM248.69 203.66l-3.65-2a.88.88 0 0 0-.79 0c-.24.14-.26.34-.06.45l3.65 2.05a.92.92 0 0 0 .79 0c.23-.16.26-.39.06-.5ZM252.47 207.79l-1.32-.74a.94.94 0 0 0-.8 0c-.23.13-.26.34 0 .45l1.32.74a.89.89 0 0 0 .79 0c.19-.13.21-.33.01-.45ZM253 202l-4.38-2.45a.88.88 0 0 0-.79 0c-.24.14-.26.34-.06.45l4.38 2.46a.91.91 0 0 0 .8 0 .253.253 0 0 0 .05-.46Z"/><path class="g" d="M187.91 176.39a2.88 2.88 0 0 0 1.42-.38L209 164.62a1.93 1.93 0 0 0 1-1.7 2 2 0 0 0-.95-1.71l-5.44-3.3a.39.39 0 0 0-.52.13.36.36 0 0 0 .13.51l5.44 3.3a1.24 1.24 0 0 1 0 2.12L189 175.36a2.09 2.09 0 0 1-2.13 0l-6.77-4.13a.36.36 0 0 0-.51.12.37.37 0 0 0 .12.51l6.77 4.14a2.84 2.84 0 0 0 1.43.39Z"/><path class="ak" d="M175.7 129.62a1.86 1.86 0 0 1 2.19.34 10.43 10.43 0 0 1 2.07 5c0 1.63-1.29 1.52-2.08 1.14s-3.09-3.73-3.23-4.38a2.26 2.26 0 0 1 .39-1.71 7 7 0 0 1 .66-.39Z"/><path class="af" d="m175.4 129.29-.06 1.41a.78.78 0 0 0 .4.73 1.53 1.53 0 0 0 1 .17c1-.17 1.12-.46 1.19-1.87s-2.53-.44-2.53-.44Z"/><path class="ak" d="M180.67 126.91a1.87 1.87 0 0 1 2.2.34 10.51 10.51 0 0 1 2.06 5.06c0 1.62-1.29 1.51-2.07 1.13s-3.09-3.72-3.23-4.38a2.27 2.27 0 0 1 .38-1.71c.22-.17.66-.44.66-.44Z"/><path class="af" d="m180.38 126.59-.07 1.4a.82.82 0 0 0 .4.74 1.63 1.63 0 0 0 1 .16c1-.17 1.12-.46 1.19-1.87s-2.52-.43-2.52-.43Z"/><path class="c" d="M168.25 100.73c.4-6.54 7.09 1 7.09 1l4.57 4.48 4.12 4.53a4.06 4.06 0 0 1 1 3.26l-1.67 12.69a1.25 1.25 0 0 1-1.25 1.09 3.779 3.779 0 0 1-.62-.06 1.55 1.55 0 0 1-1.38-1.64l.31-11.87-8.62-5.21s-3.95-1.72-3.55-8.27Z"/><path class="c" d="M163.27 103.23c.41-6.55 7.09 1 7.09 1l4.58 4.48 4.12 4.53a4.08 4.08 0 0 1 1 3.27l-1.66 12.69a1.25 1.25 0 0 1-1.26 1.08 3.562 3.562 0 0 1-.61-.05 1.55 1.55 0 0 1-1.38-1.65l.3-11.87-8.65-5.22s-3.93-1.72-3.53-8.26Z"/><path class="al" d="M167.23 82.22c-5.07 2.1-5 5.09-5 5.09a172 172 0 0 1 .66 18.33c-.15 3.06 16.29 3.3 13.84-4.89-2.89-9.64-1.81-17.45-3.16-18.63s-5.03-.45-6.34.1Z"/><path class="k" d="M165.6 84.87c.26 1 1.61 1.57 3 1.21s2.32-1.48 2-2.51a2.363 2.363 0 0 0-3-1.21c-1.39.36-2.27 1.48-2 2.51Z"/><path class="m" d="M166.59 86.22a1.92 1.92 0 0 1-1.23-1.29 1.93 1.93 0 0 1 .45-1.72 3.54 3.54 0 0 1 3.86-1 1.92 1.92 0 0 1 1.23 1.29 2 2 0 0 1-.45 1.72 3.42 3.42 0 0 1-1.78 1.09 3.71 3.71 0 0 1-.93.12 2.94 2.94 0 0 1-1.15-.21Zm1.12-3.63a2.82 2.82 0 0 0-1.52.93 1.45 1.45 0 0 0-.36 1.29 1.47 1.47 0 0 0 .94 1 2.89 2.89 0 0 0 1.78.08 2.82 2.82 0 0 0 1.52-.93 1.34 1.34 0 0 0-.58-2.25 2.61 2.61 0 0 0-1-.18 3.21 3.21 0 0 0-.78.06Z"/><path class="k" d="M169.26 82a13.66 13.66 0 0 0 0 1.81c0 .5-1.74 1-2.19.52s-.28-.94-.39-2.66 2.58.33 2.58.33Z"/><path class="n" d="M166.72 81.66a3.57 3.57 0 0 0 2.59 2.21v-1.45Z"/><circle class="k" cx="3.9" cy="3.9" r="3.9" transform="rotate(-30.5 223.52 -261.804)"/><path class="n" d="M168.25 78.74a12 12 0 0 0 3.63.93c1.49 0 1.16-1.24 1.16-1.24l-4.42-.64Z"/><path class="ak" d="M172.32 79a6.87 6.87 0 0 0-3.51-.46 1.71 1.71 0 0 0-1 .58.54.54 0 0 1-.3.22c-.29.07-.77-1.14-1.33-1.17s-.95.38-.48 1.12a1.51 1.51 0 0 1 .1 1.71c-.21.12-2.48-1.61-.48-5.57s7.07-1.83 7.86-1c0 0 .83.72 1.51.08 0-.06.75 5.61-2.37 4.49Z"/><path class="k" d="M165.1 95.34v3a1.21 1.21 0 0 0 .4.89l6.1 5.56-.7 1.06-8.05-5.27a1.66 1.66 0 0 1-.67-1.16l-.54-5.74Z"/><path class="al" d="M162.69 85.83s-1.85 2.78-2.54 10.1c0 0 3.16 1 4.95.45s-2.41-10.55-2.41-10.55Z"/><path class="p" d="M165.44 89.35a50.8 50.8 0 0 1 .77 5.69 1.17 1.17 0 0 1-.77 1.13Z"/><path class="ae" d="m167 108.62 1.35-.18 8.7-5a1.23 1.23 0 0 1 1.09 0l6.17 3.56.81-.1v.81a.31.31 0 0 1-.19.28l-9.86 5.69a1.17 1.17 0 0 1-1.09 0l-6.71-3.88a.44.44 0 0 1-.27-.36Z"/><path class="ae" d="m173.56 105.45.62-.36H181l3.35 1.93.81-.1v.81a.31.31 0 0 1-.19.28l-9.86 5.69a1 1 0 0 1-.56.11Z"/><path class="af" d="M184.78 107h.36v.81a.31.31 0 0 1-.19.28l-.17.1ZM175 113.75a1.23 1.23 0 0 1-.92-.06v-1.38h.92Z"/><path class="m" d="m175.09 112.89 9.91-5.69c.28-.16.25-.44-.08-.63l-6.71-3.87a1.2 1.2 0 0 0-1.09 0l-9.86 5.7c-.28.16-.24.44.08.62l6.71 3.88a1.2 1.2 0 0 0 1.04-.01Z"/><path d="m175.26 112 8.2-4.73c.23-.14.2-.37-.07-.52l-3.59-2a1 1 0 0 0-.91 0l-8.2 4.74c-.23.13-.2.37.07.52l3.59 2a1 1 0 0 0 .91-.01Z" style="fill:#f4f4f4"/><path class="k" d="m177.78 102.51.1.68a5.15 5.15 0 0 1 0 1.75l-.12.6a.86.86 0 0 1-.68.66.47.47 0 0 1-.55-.41l-.16-1.45s-.37.49-.55.49.2-1.46.61-2.29 1.35-.03 1.35-.03Z"/><path class="k" d="m174.44 91.7 1.06 2.09a4.23 4.23 0 0 1 .43 1.59l.46 7.16h1.39l.63-8a3.14 3.14 0 0 0 0-.75l-.73-4.07Z"/><path class="ae" d="m175.43 113.44.82-1.08 8.7-5a1.21 1.21 0 0 0 .5-1v-7.12l.5-.65-.47-.27a.3.3 0 0 0-.34 0l-9.85 5.7a1.23 1.23 0 0 0-.5 1v7.75a.46.46 0 0 0 .19.42Z"/><path class="ae" d="m181.44 109.36.62-.36 3.39-5.89v-3.87l.5-.65-.47-.27a.3.3 0 0 0-.34 0l-9.85 5.7a1 1 0 0 0-.37.44Z"/><path class="af" d="m185.72 98.88.22-.29-.47-.27a.3.3 0 0 0-.34 0l-.17.1Z"/><path d="M175.19 104.11a1.25 1.25 0 0 0-.41.83l1 .55.46-.8Z" style="fill:#969696"/><path class="m" d="m175.75 104.32 9.85-5.71c.28-.16.51 0 .51.38v7.75a1.21 1.21 0 0 1-.51 1l-9.85 5.71c-.28.16-.51 0-.51-.39v-7.75a1.17 1.17 0 0 1 .51-.99Z"/><path class="k" d="m170.9 105.82.16.33a2.2 2.2 0 0 0 .83.91l1 .6a1 1 0 0 0 1 0 .59.59 0 0 0 .08-.91l-1-1.05s.57.44.73.26-.55-.76-1.07-.78a2 2 0 0 1-1-.43Z"/><path class="al" d="M173.5 82.1a32.17 32.17 0 0 1 5.26 7.82 7.66 7.66 0 0 1-4.42 3.22c-3.14.91-.84-11.04-.84-11.04Z"/><path class="p" d="m175 92.9-.6-5.87 1.43 5.5a8 8 0 0 1-.83.37Z"/><path class="m" d="m170.69 81.28 1-.28a2.4 2.4 0 0 1-1.19 1c-.7.2-.81-.4-.81-.4Z"/><path class="i" d="m282.5 178.14 11.25-6.49c.69-.4.6-1.1-.2-1.56l-10.86-6.27a3 3 0 0 0-2.69-.11l-11.25 6.5c-.69.39-.61 1.09.19 1.55L279.8 178a3 3 0 0 0 2.7.14Z"/><path class="ao" d="M264.77 164.77v-4.86h10.9l3.77-2.17a3.73 3.73 0 0 1 3.37.14l3.52 2h10.91v5a1 1 0 0 1-.58.9l-14.09 8.14a3.76 3.76 0 0 1-3.37-.14l-13.61-7.86a1.34 1.34 0 0 1-.82-1.15Z"/><path class="ao" d="M281 157.39a3.93 3.93 0 0 1 1.81.48l3.52 2h10.91v5a1 1 0 0 1-.58.9l-14.09 8.14a3 3 0 0 1-1.57.33Z"/><path class="i" d="M296 159.89h1.24v5a1 1 0 0 1-.58.9l-.66.38ZM282.35 174a3.78 3.78 0 0 1-2.69 0v-5.67h2.69Z"/><path class="i" d="m282.57 169 14.09-8.14c.86-.5.75-1.37-.25-1.95l-13.6-7.91a3.73 3.73 0 0 0-3.37-.14L265.35 159c-.86.5-.76 1.38.24 1.95l13.61 7.86a3.76 3.76 0 0 0 3.37.19Z"/><path class="ap" d="m282.32 167.48 11.8-6.81c.73-.42.64-1.15-.2-1.64l-11.4-6.58a3.15 3.15 0 0 0-2.83-.11l-11.8 6.81c-.73.42-.64 1.15.2 1.63l11.4 6.58a3.12 3.12 0 0 0 2.83.12Z"/><path class="m" d="m270.412 166.524.115-.2 5.655 3.267-.115.199z"/><path class="aq" d="M270 166.05a1.26 1.26 0 0 0 .57 1 .353.353 0 0 0 .57-.33 1.27 1.27 0 0 0-.57-1c-.36-.18-.57-.03-.57.33ZM268.12 165a1.26 1.26 0 0 0 .57 1 .353.353 0 0 0 .57-.33 1.24 1.24 0 0 0-.57-1c-.31-.18-.57-.04-.57.33ZM266.29 163.94a1.26 1.26 0 0 0 .57 1 .351.351 0 0 0 .57-.32 1.26 1.26 0 0 0-.57-1c-.31-.19-.57-.04-.57.32Z"/><path class="ao" d="M264.77 157v-4.86h10.9l3.77-2.17a3.73 3.73 0 0 1 3.37.14l3.52 2h10.91v5a1 1 0 0 1-.58.9l-14.09 8.14a3.76 3.76 0 0 1-3.37-.14l-13.61-7.86a1.34 1.34 0 0 1-.82-1.15Z"/><path class="ao" d="M281 149.57a3.93 3.93 0 0 1 1.81.48l3.52 2h10.91v5a1 1 0 0 1-.58.9l-14.09 8.14a3.11 3.11 0 0 1-1.57.33Z"/><path class="i" d="M296 152.07h1.24v5a1 1 0 0 1-.58.9l-.66.38ZM282.35 166.21a3.84 3.84 0 0 1-2.69 0v-5.67h2.69Z"/><path class="i" d="m282.57 161.12 14.09-8.12c.86-.5.75-1.37-.25-2l-13.6-7.85a3.73 3.73 0 0 0-3.37-.14l-14.09 8.13c-.86.5-.76 1.37.24 1.95L279.2 161a3.73 3.73 0 0 0 3.37.12Z"/><path class="m" d="M265.59 152.17 279.2 160a3.76 3.76 0 0 0 3.37.14l14.09-8.14a1.35 1.35 0 0 0 .43-.38.91.91 0 0 1-.43 1.34l-14.09 8.13a3.73 3.73 0 0 1-3.37-.14l-13.61-7.85c-.77-.45-1-1.07-.67-1.56a1.9 1.9 0 0 0 .67.63Z"/><path class="aq" d="M270 158.23a1.28 1.28 0 0 0 .57 1 .353.353 0 0 0 .57-.33 1.25 1.25 0 0 0-.57-1c-.36-.18-.57-.03-.57.33ZM275.56 161.31a1.24 1.24 0 0 0 .57 1 .354.354 0 0 0 .57-.33 1.3 1.3 0 0 0-.57-1 .357.357 0 0 0-.57.33Z"/><path class="m" d="M275.56 169.37a1.24 1.24 0 0 0 .57 1 .354.354 0 0 0 .57-.33 1.26 1.26 0 0 0-.57-1c-.32-.18-.57-.04-.57.33Z"/><path class="aq" d="M268.12 157.17a1.26 1.26 0 0 0 .57 1 .353.353 0 0 0 .57-.33 1.24 1.24 0 0 0-.57-1c-.31-.18-.57-.03-.57.33ZM266.29 156.12a1.26 1.26 0 0 0 .57 1 .354.354 0 0 0 .57-.33 1.26 1.26 0 0 0-.57-1c-.31-.18-.57-.04-.57.33Z"/><path class="ar" d="m281.74 156.08 6.59-3.8c.4-.24.35-.65-.11-.92l-6.37-3.67a1.77 1.77 0 0 0-1.58-.07l-6.59 3.81c-.41.23-.36.64.11.91l6.37 3.68a1.73 1.73 0 0 0 1.58.06Z"/><path class="aq" d="m281.1 152.9.92-.53c.05 0 .05-.09 0-.13l-.88-.51a.28.28 0 0 0-.22 0l-.91.53c-.06 0-.05.09 0 .13l.88.51a.26.26 0 0 0 .21 0Z"/><path class="ao" d="m288.33 152.28-.09-.07-6.37-3.67a1.77 1.77 0 0 0-1.58-.07l-6.57 3.8c-.38-.27-.4-.63 0-.85l6.59-3.81a1.77 1.77 0 0 1 1.58.07l6.37 3.67c.42.28.47.65.07.93Z"/><path class="aq" d="M283.12 162.28c0 .38.26.53.6.34a1.3 1.3 0 0 0 .59-1c0-.39-.26-.54-.59-.35a1.31 1.31 0 0 0-.6 1.01Z"/><path class="i" d="M285 161.21c0 .38.26.54.6.35a1.33 1.33 0 0 0 .6-1c0-.38-.27-.54-.6-.35a1.31 1.31 0 0 0-.6 1Z"/><path class="aq" d="M283.12 164.52c0 .38.26.54.6.35a1.32 1.32 0 0 0 .59-1c0-.38-.26-.54-.59-.35a1.32 1.32 0 0 0-.6 1ZM285 163.46c0 .38.26.53.6.34a1.32 1.32 0 0 0 .6-1c0-.38-.27-.53-.6-.34a1.29 1.29 0 0 0-.6 1ZM283.12 170c0 .39.26.54.6.35a1.32 1.32 0 0 0 .59-1c0-.38-.26-.54-.59-.34a1.29 1.29 0 0 0-.6.99ZM285 168.93c0 .38.26.53.6.34a1.32 1.32 0 0 0 .6-1c0-.38-.27-.53-.6-.34a1.29 1.29 0 0 0-.6 1Z"/><path class="ar" d="M283.12 172.24c0 .38.26.54.6.35a1.34 1.34 0 0 0 .59-1c0-.39-.26-.54-.59-.35a1.31 1.31 0 0 0-.6 1Z"/><path class="aq" d="M285 171.17c0 .38.26.54.6.35a1.33 1.33 0 0 0 .6-1c0-.38-.27-.54-.6-.35a1.31 1.31 0 0 0-.6 1Z"/><path class="ao" d="M264.77 157.37v-4.86h10.9l3.77-2.18a3.79 3.79 0 0 1 3.37.14l3.52 2h10.91v5a1 1 0 0 1-.58.9l-14.09 8.13a3.73 3.73 0 0 1-3.37-.14l-13.61-7.85a1.34 1.34 0 0 1-.82-1.14Z"/><path class="ao" d="M281 150a3.93 3.93 0 0 1 1.81.47l3.52 2h10.91v5a1 1 0 0 1-.58.9l-14.09 8.13a3.11 3.11 0 0 1-1.57.34Z"/><path class="i" d="M296 152.49h1.24v5a1 1 0 0 1-.58.9l-.66.38ZM282.35 166.63a3.84 3.84 0 0 1-2.69 0v-5.68h2.69Z"/><path class="i" d="m282.57 161.54 14.09-8.13c.86-.5.75-1.37-.25-1.95l-13.6-7.85a3.73 3.73 0 0 0-3.37-.14l-14.09 8.13c-.86.5-.76 1.37.24 2l13.61 7.85a3.73 3.73 0 0 0 3.37.09Z"/><path class="ap" d="m282.32 160.08 11.8-6.82c.73-.42.64-1.15-.2-1.63l-11.4-6.58a3.15 3.15 0 0 0-2.83-.12l-11.8 6.82c-.73.42-.64 1.15.2 1.63l11.4 6.58a3.12 3.12 0 0 0 2.83.12Z"/><path class="m" d="m270.414 159.122.115-.2 5.655 3.267-.115.199z"/><path class="aq" d="M270 158.65a1.3 1.3 0 0 0 .57 1 .353.353 0 0 0 .57-.33 1.24 1.24 0 0 0-.57-1c-.36-.18-.57-.03-.57.33ZM268.12 157.59a1.26 1.26 0 0 0 .57 1 .353.353 0 0 0 .57-.33 1.27 1.27 0 0 0-.57-1c-.31-.18-.57-.03-.57.33ZM266.29 156.54a1.26 1.26 0 0 0 .57 1 .354.354 0 0 0 .57-.33 1.26 1.26 0 0 0-.57-1c-.31-.21-.57-.04-.57.33Z"/><path class="ao" d="M264.77 149.55v-4.87h10.9l3.77-2.18a3.76 3.76 0 0 1 3.37.14l3.52 2h10.91v5a1 1 0 0 1-.58.9l-14.09 8.13a3.73 3.73 0 0 1-3.37-.14l-13.61-7.85a1.34 1.34 0 0 1-.82-1.13Z"/><path class="ao" d="M281 142.17a3.81 3.81 0 0 1 1.81.47l3.52 2h10.91v5a1 1 0 0 1-.58.9l-14.09 8.13a3.11 3.11 0 0 1-1.57.33Z"/><path class="i" d="M296 144.67h1.24v5a1 1 0 0 1-.58.9l-.66.43ZM282.35 158.81a3.84 3.84 0 0 1-2.69 0v-5.71h2.69Z"/><path class="i" d="m282.57 153.72 14.09-8.13c.86-.5.75-1.37-.25-2l-13.6-7.85a3.73 3.73 0 0 0-3.37-.14l-14.09 8.13c-.86.5-.76 1.37.24 1.95l13.61 7.85a3.73 3.73 0 0 0 3.37.19Z"/><path class="m" d="m265.59 144.77 13.61 7.86a3.79 3.79 0 0 0 3.37.14l14.09-8.14a1.35 1.35 0 0 0 .43-.38.91.91 0 0 1-.43 1.34l-14.09 8.13a3.73 3.73 0 0 1-3.37-.14l-13.61-7.85c-.77-.45-1-1.08-.67-1.57a1.83 1.83 0 0 0 .67.61Z"/><path class="aq" d="M270 150.83a1.26 1.26 0 0 0 .57 1 .35.35 0 0 0 .57-.32 1.24 1.24 0 0 0-.57-1c-.36-.19-.57-.04-.57.32ZM275.56 153.91a1.27 1.27 0 0 0 .57 1 .354.354 0 0 0 .57-.33 1.26 1.26 0 0 0-.57-1c-.32-.18-.57-.03-.57.33Z"/><path class="m" d="M275.56 162a1.25 1.25 0 0 0 .57 1 .354.354 0 0 0 .57-.33 1.28 1.28 0 0 0-.57-1c-.32-.21-.57-.06-.57.33Z"/><path class="aq" d="M268.12 149.77a1.28 1.28 0 0 0 .57 1 .353.353 0 0 0 .57-.33 1.25 1.25 0 0 0-.57-1c-.31-.18-.57-.03-.57.33ZM266.29 148.71a1.26 1.26 0 0 0 .57 1 .354.354 0 0 0 .57-.33 1.26 1.26 0 0 0-.57-1c-.31-.18-.57-.03-.57.33Z"/><path class="ar" d="m281.74 148.68 6.59-3.81c.4-.23.35-.64-.11-.91l-6.37-3.67a1.77 1.77 0 0 0-1.58-.07l-6.59 3.78c-.41.23-.36.64.11.91l6.37 3.67a1.77 1.77 0 0 0 1.58.1Z"/><path class="aq" d="m281.1 145.49.9-.49c.05 0 .05-.09 0-.13l-.88-.51a.24.24 0 0 0-.22 0l-.91.53c-.06 0-.05.09 0 .12l.88.51a.22.22 0 0 0 .23-.03Z"/><path class="ao" d="m288.33 144.87-.09-.06-6.37-3.68a1.74 1.74 0 0 0-1.58-.06l-6.57 3.79c-.38-.26-.4-.63 0-.84l6.59-3.81a1.77 1.77 0 0 1 1.58.07l6.37 3.67c.42.28.47.69.07.92Z"/><path class="aq" d="M283.12 154.87c0 .39.26.54.6.35a1.32 1.32 0 0 0 .59-1c0-.38-.26-.53-.59-.34a1.29 1.29 0 0 0-.6.99Z"/><path class="i" d="M285 153.81c0 .38.26.54.6.34a1.32 1.32 0 0 0 .6-1c0-.39-.27-.54-.6-.35a1.31 1.31 0 0 0-.6 1.01Z"/><path class="aq" d="M283.12 157.12c0 .38.26.54.6.35a1.34 1.34 0 0 0 .59-1c0-.39-.26-.54-.59-.35a1.31 1.31 0 0 0-.6 1ZM285 156.05c0 .39.26.54.6.35a1.33 1.33 0 0 0 .6-1c0-.38-.27-.54-.6-.35a1.32 1.32 0 0 0-.6 1ZM283.12 162.59c0 .38.26.54.6.35a1.32 1.32 0 0 0 .59-1c0-.38-.26-.54-.59-.35a1.31 1.31 0 0 0-.6 1ZM285 161.52c0 .39.26.54.6.35a1.33 1.33 0 0 0 .6-1c0-.38-.27-.54-.6-.34a1.29 1.29 0 0 0-.6.99Z"/><path class="ar" d="M283.12 164.84c0 .38.26.53.6.34a1.31 1.31 0 0 0 .59-1c0-.38-.26-.53-.59-.34a1.29 1.29 0 0 0-.6 1Z"/><path class="aq" d="M285 163.77c0 .38.26.54.6.35a1.35 1.35 0 0 0 .6-1c0-.39-.27-.54-.6-.35a1.31 1.31 0 0 0-.6 1Z"/><path class="ao" d="M264.77 142.42v-4.86h10.9l3.77-2.18a3.76 3.76 0 0 1 3.37.14l3.52 2h10.91v5a1 1 0 0 1-.58.91l-14.09 8.13a3.73 3.73 0 0 1-3.37-.14l-13.61-7.85a1.34 1.34 0 0 1-.82-1.15Z"/><path class="ao" d="M281 135.05a3.81 3.81 0 0 1 1.81.47l3.52 2h10.91v5a1 1 0 0 1-.58.91l-14.09 8.13a3.11 3.11 0 0 1-1.57.34Z"/><path class="i" d="M296 137.55h1.24v5a1 1 0 0 1-.58.91l-.66.38ZM282.35 151.69a3.84 3.84 0 0 1-2.69 0V146h2.69Z"/><path class="i" d="m282.57 146.6 14.09-8.13c.86-.5.75-1.37-.24-1.95l-13.61-7.85a3.73 3.73 0 0 0-3.37-.14l-14.09 8.13c-.86.5-.76 1.37.24 2l13.61 7.85a3.73 3.73 0 0 0 3.37.09Z"/><path class="ap" d="m282.32 145.14 11.8-6.82c.73-.42.64-1.15-.2-1.63l-11.4-6.58a3.12 3.12 0 0 0-2.83-.12l-11.8 6.82c-.73.41-.64 1.15.2 1.63l11.4 6.58a3.15 3.15 0 0 0 2.83.12Z"/><path class="m" d="m270.945 143.045.115-.2 5.68 3.265-.114.2z"/><path class="aq" d="M270 143.71a1.26 1.26 0 0 0 .57 1 .353.353 0 0 0 .57-.33 1.24 1.24 0 0 0-.57-1c-.36-.18-.57-.04-.57.33ZM268.12 142.65a1.3 1.3 0 0 0 .57 1 .353.353 0 0 0 .57-.33 1.24 1.24 0 0 0-.57-1c-.31-.18-.57-.03-.57.33ZM266.29 141.59a1.26 1.26 0 0 0 .57 1 .354.354 0 0 0 .57-.33 1.3 1.3 0 0 0-.57-1c-.31-.18-.57-.03-.57.33Z"/><path class="ao" d="M264.77 134.6v-4.86h10.9l3.77-2.18a3.73 3.73 0 0 1 3.37.14l3.52 2h10.91v5a1 1 0 0 1-.58.91l-14.09 8.13a3.73 3.73 0 0 1-3.37-.14l-13.61-7.85a1.37 1.37 0 0 1-.82-1.15Z"/><path class="ao" d="M281 127.23a3.81 3.81 0 0 1 1.81.47l3.52 2h10.91v5a1 1 0 0 1-.58.91l-14.09 8.13a3.11 3.11 0 0 1-1.57.34Z"/><path class="i" d="M296 129.72h1.24v5a1 1 0 0 1-.58.91l-.66.37ZM282.35 143.87a3.84 3.84 0 0 1-2.69 0v-5.68h2.69Z"/><path class="i" d="m282.57 138.78 14.09-8.13c.86-.5.75-1.38-.24-2l-13.61-7.86a3.79 3.79 0 0 0-3.37-.14l-14.09 8.14c-.86.5-.76 1.37.24 1.95l13.61 7.85a3.73 3.73 0 0 0 3.37.19Z"/><path class="m" d="m265.59 129.83 13.61 7.85a3.73 3.73 0 0 0 3.37.14l14.09-8.13a1.35 1.35 0 0 0 .43-.38.91.91 0 0 1-.43 1.34l-14.09 8.13a3.73 3.73 0 0 1-3.37-.14l-13.61-7.85c-.77-.45-1-1.08-.67-1.57a1.83 1.83 0 0 0 .67.61Z"/><path class="aq" d="M270 135.89a1.26 1.26 0 0 0 .57 1 .353.353 0 0 0 .57-.33 1.24 1.24 0 0 0-.57-1c-.36-.18-.57-.04-.57.33ZM275.56 139a1.24 1.24 0 0 0 .57 1 .352.352 0 0 0 .57-.32 1.26 1.26 0 0 0-.57-1c-.32-.22-.57-.07-.57.32Z"/><path class="m" d="M275.56 147a1.24 1.24 0 0 0 .57 1 .351.351 0 0 0 .57-.32 1.26 1.26 0 0 0-.57-1c-.32-.16-.57-.01-.57.32Z"/><path class="aq" d="M268.12 134.83a1.26 1.26 0 0 0 .57 1 .35.35 0 0 0 .57-.32 1.24 1.24 0 0 0-.57-1c-.31-.19-.57-.04-.57.32ZM266.29 133.77a1.28 1.28 0 0 0 .57 1 .354.354 0 0 0 .57-.33 1.28 1.28 0 0 0-.57-1c-.31-.18-.57-.03-.57.33Z"/><path class="ar" d="m281.74 133.74 6.59-3.81c.4-.23.35-.64-.11-.91l-6.37-3.68a1.77 1.77 0 0 0-1.58-.06l-6.59 3.8c-.41.24-.36.65.11.92l6.37 3.67a1.77 1.77 0 0 0 1.58.07Z"/><path class="aq" d="m281.11 130.55.89-.55c.05 0 .05-.09 0-.12l-.88-.51a.24.24 0 0 0-.22 0l-.91.53c-.06 0-.05.09 0 .12l.88.51a.24.24 0 0 0 .24.02Z"/><path class="ao" d="m288.33 129.93-.09-.06-6.37-3.68a1.74 1.74 0 0 0-1.58-.06l-6.57 3.79c-.38-.27-.4-.63 0-.85l6.59-3.8a1.77 1.77 0 0 1 1.58.06l6.37 3.68c.42.28.47.69.07.92Z"/><path class="aq" d="M283.12 139.93c0 .38.26.54.6.35a1.33 1.33 0 0 0 .6-1c0-.38-.27-.54-.6-.35a1.32 1.32 0 0 0-.6 1Z"/><path class="i" d="M285 138.87c0 .38.26.53.6.34a1.32 1.32 0 0 0 .6-1c0-.38-.27-.53-.6-.34a1.29 1.29 0 0 0-.6 1Z"/><path class="aq" d="M283.12 142.18c0 .38.26.53.6.34a1.32 1.32 0 0 0 .6-1c0-.38-.27-.53-.6-.34a1.31 1.31 0 0 0-.6 1ZM285 141.11c0 .38.26.54.6.35a1.33 1.33 0 0 0 .6-1c0-.38-.27-.54-.6-.35a1.31 1.31 0 0 0-.6 1ZM283.12 147.65c0 .38.26.54.6.35a1.35 1.35 0 0 0 .6-1c0-.39-.27-.54-.6-.35a1.31 1.31 0 0 0-.6 1ZM285 146.58c0 .38.26.54.6.35a1.33 1.33 0 0 0 .6-1c0-.38-.27-.54-.6-.35a1.31 1.31 0 0 0-.6 1Z"/><path class="ar" d="M283.12 149.89c0 .39.26.54.6.35a1.33 1.33 0 0 0 .6-1c0-.38-.27-.54-.6-.34a1.29 1.29 0 0 0-.6.99Z"/><path class="aq" d="M285 148.83c0 .38.26.53.6.34a1.32 1.32 0 0 0 .6-1c0-.38-.27-.53-.6-.34a1.29 1.29 0 0 0-.6 1Z"/><path class="ao" d="M265 134.19v-4.87h10.9l3.77-2.18a3.76 3.76 0 0 1 3.37.14l3.52 2h10.91v5a1 1 0 0 1-.58.9l-14.09 8.13a3.73 3.73 0 0 1-3.37-.14l-13.6-7.85a1.34 1.34 0 0 1-.83-1.13Z"/><path class="ao" d="M281.25 126.81a3.77 3.77 0 0 1 1.8.47l3.52 2h10.91v5a1 1 0 0 1-.58.9l-14.09 8.13a3.07 3.07 0 0 1-1.56.34Z"/><path class="i" d="M296.24 129.31h1.24v5a1 1 0 0 1-.58.9l-.66.38ZM282.59 143.45a3.84 3.84 0 0 1-2.69 0v-5.68h2.69Z"/><path class="i" d="m282.81 138.36 14.09-8.13c.86-.5.76-1.37-.24-1.95l-13.61-7.85a3.73 3.73 0 0 0-3.37-.14l-14.09 8.13c-.86.5-.75 1.37.25 2l13.6 7.85a3.73 3.73 0 0 0 3.37.09Z"/><path class="ap" d="m282.56 136.9 11.8-6.82c.73-.42.64-1.15-.2-1.63l-11.4-6.58a3.15 3.15 0 0 0-2.83-.12l-11.8 6.82c-.73.42-.63 1.15.2 1.63l11.4 6.58a3.15 3.15 0 0 0 2.83.12Z"/><path class="m" d="m271.165 134.811.115-.2 5.68 3.265-.114.2z"/><path class="aq" d="M270.2 135.47a1.25 1.25 0 0 0 .56 1 .349.349 0 0 0 .57-.32 1.24 1.24 0 0 0-.57-1c-.31-.15-.56-.04-.56.32ZM268.36 134.41a1.28 1.28 0 0 0 .57 1 .353.353 0 0 0 .57-.33 1.25 1.25 0 0 0-.57-1c-.31-.18-.57-.03-.57.33ZM266.53 133.35a1.26 1.26 0 0 0 .57 1 .353.353 0 0 0 .57-.33 1.24 1.24 0 0 0-.57-1 .351.351 0 0 0-.57.33Z"/><path class="ao" d="M265 126.36v-4.86h10.9l3.77-2.18a3.76 3.76 0 0 1 3.37.14l3.52 2h10.91v5a1 1 0 0 1-.58.91l-14.09 8.13a3.73 3.73 0 0 1-3.37-.14l-13.6-7.85a1.34 1.34 0 0 1-.83-1.15Z"/><path class="ao" d="M281.25 119a3.77 3.77 0 0 1 1.8.47l3.52 2h10.91v5a1 1 0 0 1-.58.91l-14.09 8.13a3.07 3.07 0 0 1-1.56.34Z"/><path class="i" d="M296.24 121.49h1.24v5a1 1 0 0 1-.58.91l-.66.38ZM282.59 135.63a3.84 3.84 0 0 1-2.69 0v-5.68h2.69Z"/><path class="i" d="m282.81 130.54 14.09-8.13c.86-.5.76-1.37-.24-2l-13.61-7.85a3.73 3.73 0 0 0-3.37-.14l-14.09 8.13c-.86.5-.75 1.37.25 2l13.6 7.85a3.73 3.73 0 0 0 3.37.14Z"/><path class="m" d="m265.84 121.59 13.6 7.85a3.73 3.73 0 0 0 3.37.14l14.09-8.13a1.35 1.35 0 0 0 .43-.38.91.91 0 0 1-.43 1.34l-14.09 8.13a3.73 3.73 0 0 1-3.37-.14l-13.6-7.85c-.78-.45-1-1.08-.68-1.57a1.87 1.87 0 0 0 .68.61Z"/><path class="aq" d="M270.2 127.65a1.25 1.25 0 0 0 .56 1 .353.353 0 0 0 .57-.33 1.24 1.24 0 0 0-.57-1c-.31-.18-.56-.04-.56.33ZM275.8 130.73a1.26 1.26 0 0 0 .57 1 .35.35 0 0 0 .57-.32 1.24 1.24 0 0 0-.57-1c-.31-.19-.57-.04-.57.32Z"/><path class="m" d="M275.8 138.79a1.3 1.3 0 0 0 .57 1 .353.353 0 0 0 .57-.33 1.24 1.24 0 0 0-.57-1c-.31-.18-.57-.03-.57.33Z"/><path class="aq" d="M268.36 126.59a1.3 1.3 0 0 0 .57 1 .353.353 0 0 0 .57-.33 1.24 1.24 0 0 0-.57-1c-.31-.18-.57-.03-.57.33ZM266.53 125.53a1.26 1.26 0 0 0 .57 1 .353.353 0 0 0 .57-.33 1.27 1.27 0 0 0-.57-1c-.31-.2-.57-.03-.57.33Z"/><path class="ar" d="m282 125.5 6.59-3.81c.41-.23.36-.64-.11-.91l-6.37-3.67a1.77 1.77 0 0 0-1.58-.07l-6.59 3.81c-.4.23-.35.64.11.91l6.37 3.67a1.77 1.77 0 0 0 1.58.07Z"/><path class="aq" d="m281.35 122.31.91-.53c.06 0 .05-.08 0-.12l-.88-.51a.22.22 0 0 0-.21 0l-.92.53c-.05 0-.05.09 0 .12l.88.51a.24.24 0 0 0 .22 0Z"/><path class="ao" d="m288.57 121.69-.09-.06-6.39-3.63a1.73 1.73 0 0 0-1.58-.06l-6.57 3.79c-.37-.26-.39-.63 0-.84l6.59-3.81a1.77 1.77 0 0 1 1.58.07l6.37 3.67c.45.23.52.64.09.87Z"/><path class="aq" d="M283.36 131.69c0 .39.27.54.6.35a1.33 1.33 0 0 0 .6-1c0-.38-.27-.54-.6-.34a1.32 1.32 0 0 0-.6.99Z"/><path class="i" d="M285.22 130.63c0 .38.27.53.6.34a1.32 1.32 0 0 0 .6-1c0-.38-.27-.53-.6-.34a1.32 1.32 0 0 0-.6 1Z"/><path class="aq" d="M283.36 133.94c0 .38.27.54.6.34a1.32 1.32 0 0 0 .6-1c0-.39-.27-.54-.6-.35a1.33 1.33 0 0 0-.6 1.01ZM285.22 132.87c0 .38.27.54.6.35a1.33 1.33 0 0 0 .6-1c0-.38-.27-.54-.6-.35a1.33 1.33 0 0 0-.6 1ZM283.36 139.41c0 .38.27.54.6.35a1.33 1.33 0 0 0 .6-1c0-.38-.27-.54-.6-.35a1.33 1.33 0 0 0-.6 1ZM285.22 138.34c0 .39.27.54.6.35a1.33 1.33 0 0 0 .6-1c0-.38-.27-.54-.6-.35a1.35 1.35 0 0 0-.6 1Z"/><path class="ar" d="M283.36 141.65c0 .39.27.54.6.35a1.32 1.32 0 0 0 .6-1c0-.38-.27-.53-.6-.34a1.32 1.32 0 0 0-.6.99Z"/><path class="aq" d="M285.22 140.59c0 .38.27.54.6.34a1.32 1.32 0 0 0 .6-1c0-.39-.27-.54-.6-.35a1.33 1.33 0 0 0-.6 1.01Z"/><path class="q" d="M127.82 220.13c5.22 3 13.68 3 18.9 0s5.22-7.9 0-10.91-13.68-3-18.9 0-5.22 7.9 0 10.91Zm5.1-8a9.58 9.58 0 0 1 8.69 0c2.4 1.38 2.4 3.63 0 5a9.58 9.58 0 0 1-8.69 0c-2.4-1.33-2.4-3.58 0-4.96Z"/><path class="y" d="m148.69 205.08-4.77.07a4.91 4.91 0 0 0-1.5-1.26 11.52 11.52 0 0 0-9.6-.36l-2.82-2.66-4.36.07.67-.42c6.06-3.5 15.89-3.5 22 0a11.35 11.35 0 0 1 2.73 2.13Z"/><path class="z" d="M125.62 194.01v6.93l4.36-.07v-6.92Z"/><path class="y" d="M132.81 196.61v6.92l-2.83-2.66v-6.92ZM143.92 198.23v6.92l-6.27-5.15-4.83 3.49v-6.92l4.45-2.16s6.13 1.88 6.44 2 .21 1.82.21 1.82Z"/><path class="y" d="M148.69 198.16v6.92l-4.77.07v-6.92Z"/><path class="z" d="M150.97 195.72v6.93l-2.28 2.43v-6.92Z"/><path class="c" d="m148.69 198.16-4.77.07a5.08 5.08 0 0 0-1.5-1.27 11.52 11.52 0 0 0-9.6-.35L130 194l-4.36.06c.21-.14.44-.28.67-.41 6.06-3.5 15.89-3.5 22 0a11.33 11.33 0 0 1 2.73 2.12Z"/><path class="g" d="M131.38 197.46v6.37l-4.13-1s.24-3.73.33-3.83 3.8-1.54 3.8-1.54ZM134.5 203.83v6.92l-.44.48-2.91-1.68s.45-5.29.5-5.39a26.518 26.518 0 0 1 2.85-.33Z"/><path class="g" d="m128.88 202 2.5 2.35c-2.08 1.64-1.83 4 .74 5.44a8.48 8.48 0 0 0 2.38.92l-2.58 2.75 2.29 2.15a20.84 20.84 0 0 1-7.92-2.45c-5.21-3-5.94-7.63-2.19-11.09Z"/><path class="g" d="M134.21 208.72v6.93l-5.66-2.19-6.8-6.49.02-7.35 7.2 5.7Z"/><path class="p" d="m128.88 195.12 2.5 2.34c-2.08 1.65-1.83 4 .74 5.45a8.8 8.8 0 0 0 2.38.92l-2.58 2.74 2.29 2.15a20.67 20.67 0 0 1-7.92-2.45c-5.21-3-5.94-7.62-2.19-11.08Z"/><path class="t" d="m134.23 213.46 2.27-2.46a10.82 10.82 0 0 0 5.92-1.21c1.67-1 2.35-2.28 2.06-3.53l5.42-.09L152 204c1.82 3.12.58 6.71-3.74 9.2a22.67 22.67 0 0 1-11.51 2.62Z"/><path class="t" d="M136.73 208.89v6.93l16.06-8.9v-6.93l-2.35.95Z"/><path d="M134.23 206.54v6.92l2.5 2.36v-6.93Z" style="fill:#f98232"/><path class="r" d="m134.23 206.54 2.27-2.42a10.91 10.91 0 0 0 5.92-1.21c1.67-1 2.35-2.28 2.06-3.54l5.42-.08 2.08-2.22c1.82 3.13.58 6.71-3.74 9.2a22.67 22.67 0 0 1-11.51 2.62Z"/><path class="g" d="m265 103 12.3-7a.61.61 0 0 1 .63 0l1.19.69-.83.3v8.93a2.33 2.33 0 0 1-1 1.88l-11.72 6.77v1.05l-1.2-.69a.85.85 0 0 1-.34-.78v-9.12A2.36 2.36 0 0 1 265 103Z"/><path class="p" d="m266.25 115.47 12.26-7.08a2.34 2.34 0 0 0 1-1.88v-9.12c0-.72-.44-1.06-1-.74l-12.26 7.07a2.38 2.38 0 0 0-1 1.89v9.12c.02.72.46 1.06 1 .74Z"/><path class="m" d="M274.39 105.25c0 .53.37.74.83.48a1.84 1.84 0 0 0 .82-1.43c0-.53-.37-.74-.82-.48a1.81 1.81 0 0 0-.83 1.43ZM271.88 106.7c0 .53.37.74.83.48a1.84 1.84 0 0 0 .83-1.44c0-.52-.37-.74-.83-.47a1.81 1.81 0 0 0-.83 1.43ZM269.38 108.15c0 .52.37.74.82.47a1.81 1.81 0 0 0 .83-1.43c0-.53-.37-.74-.83-.48a1.86 1.86 0 0 0-.82 1.44Z"/><g style="opacity:.78"><path class="g" d="M275.86 90.07 288.12 83a.63.63 0 0 1 .63 0l1.19.68-.83.31v8.93a2.37 2.37 0 0 1-1 1.88l-11.72 6.77v1l-1.2-.69a.86.86 0 0 1-.34-.79V92a2.36 2.36 0 0 1 1.01-1.93Z"/><path class="p" d="m277.07 102.52 12.26-7.08a2.39 2.39 0 0 0 1-1.89v-9.11c0-.73-.45-1.06-1-.75l-12.26 7.08a2.38 2.38 0 0 0-1 1.89v9.11c.01.73.46 1.06 1 .75Z"/><path class="m" d="M285.21 92.3c0 .52.37.74.82.47a1.81 1.81 0 0 0 .83-1.43c0-.53-.37-.74-.83-.48a1.86 1.86 0 0 0-.82 1.44ZM282.7 93.74c0 .53.37.75.83.48a1.81 1.81 0 0 0 .83-1.43c0-.53-.37-.74-.83-.48a1.82 1.82 0 0 0-.83 1.43ZM280.2 95.19c0 .53.37.74.82.48a1.84 1.84 0 0 0 .83-1.43c0-.53-.37-.75-.83-.48a1.82 1.82 0 0 0-.82 1.43Z"/></g><path class="z" d="m329.76 195-13.13-7.07a.7.7 0 0 0-.68 0l-1.27.68.89.31v8.93a2.33 2.33 0 0 0 1.06 1.88l12.55 6.77v1.05l1.29-.7a.84.84 0 0 0 .36-.79v-9.11a2.32 2.32 0 0 0-1.07-1.95Z"/><path class="y" d="M330.47 206.74a.84.84 0 0 0 .36-.79v-9.11a2.25 2.25 0 0 0-.3-1.07L320 201.44l9.17 4.95v1.05Z"/><path class="c" d="m328.46 207.4-13.13-7.08a2.32 2.32 0 0 1-1.05-1.88v-9.12c0-.73.47-1.06 1.05-.75l13.13 7.08a2.32 2.32 0 0 1 1.06 1.89v9.11c0 .73-.47 1.06-1.06.75Z"/><path class="ae" d="m164.628 188.221 1.953 2.395-5.17 4.215-1.952-2.395z"/><path class="ah" d="M160.63 194.87a2.41 2.41 0 0 1-1.38-1.69c-.11-.69.33-1.05 1-.8a2.43 2.43 0 0 1 1.38 1.69c.09.69-.35 1.05-1 .8ZM168.391 183.91l3.166 3.883-5.277 4.304-3.167-3.883z"/><path class="ah" d="m163.77 188.91-1.77 1.43a4 4 0 0 0 1.95 2.39l1.75-1.43a4 4 0 0 0-1.93-2.39Z"/><ellipse class="ah" cx="1.44" cy="2.5" rx="1.44" ry="2.5" transform="rotate(-39.2 346.555 -132.95)"/><path class="ah" d="M170.3 187.86a3.9 3.9 0 0 1-2.24-2.74c-.18-1.11.53-1.69 1.58-1.29a3.9 3.9 0 0 1 2.24 2.74c.18 1.12-.53 1.69-1.58 1.29Z"/><path class="m" d="M170.15 187a2.22 2.22 0 0 1-1.26-1.55c-.1-.64.3-1 .9-.74a2.24 2.24 0 0 1 1.26 1.56c.1.62-.3.94-.9.73ZM160.62 192.91c-.26.21-.51.11-.56-.21a1.13 1.13 0 0 1 .37-1c.25-.2.5-.11.55.21a1.13 1.13 0 0 1-.36 1Z"/><path class="g" d="M209.05 240a4.7 4.7 0 0 0 2.44-.69l3.32-2a.375.375 0 1 0-.39-.64l-3.31 2a4 4 0 0 1-6-3.7l.07-1c1.16-16.36 3.33-46.81-9.5-50.1a99.484 99.484 0 0 1-9.66-3c-6.59-2.36-7-2.23-16.12 4.63a.36.36 0 0 0-.07.52.37.37 0 0 0 .52.08c9-6.81 9.14-6.77 15.42-4.53a98.336 98.336 0 0 0 9.72 3c12.23 3.13 10.09 33.18 8.94 49.32l-.07 1a4.7 4.7 0 0 0 2.25 4.38 4.8 4.8 0 0 0 2.44.73Z"/><ellipse class="q" cx="12.14" cy="7.01" rx="12.14" ry="7.01" transform="translate(171.73 232.06)"/><path class="au" d="M178.08 236.06a1.88 1.88 0 0 0-1.06 1.88 2.92 2.92 0 0 0 .16.91 1.53 1.53 0 0 0 2.06.64c1.14-.45 3.67-2.83 3.77-4.38.17-2.89-3.13.18-4.93.95ZM184.77 240.84a8 8 0 0 0-.14 2 2.12 2.12 0 0 0 2.09.82c1.17-.14 4.54-1.31 5.29-3.53 1.16-3.44-6.5.26-6.5.26Z"/><path class="c" d="m188.06 214.22.26 26a1.83 1.83 0 0 1-1.42 1.78h-.31a1.64 1.64 0 0 1-1.55-.64 1.94 1.94 0 0 1-.35-1l-.33-11.1-1.66-9.92-2.29 17.56a1.5 1.5 0 0 1-.63 1.16 1.81 1.81 0 0 1-1 .28 1.93 1.93 0 0 1-1.39-.68 1.37 1.37 0 0 1-.33-.94l.91-10.57.33-13.48Z"/><path class="k" d="m184.69 191-.41 2.37a1.08 1.08 0 0 0 .89 1c.9.23 1.18-.36 1.18-.36l.41-2.66Z"/><path class="k" d="M189.51 191a3.46 3.46 0 1 1 .32-5.16 3.68 3.68 0 0 1-.32 5.16Z"/><path class="av" d="M184.8 193.36c-.06 0-3.83-2.45-5.22.09-2.27 4.14-2.14 17.46-1.42 19.18a8 8 0 0 0 3.48 3.44 7 7 0 0 0 3.38 1c1.17 0 3.43-1 3.35-2.57a117.636 117.636 0 0 1 .82-18.83s-.72-.82-4.39-2.31Z"/><path class="o" d="m182.7 219.35-2.29 17.56a1.51 1.51 0 0 1-.63 1.16l-.19.11c.47-.36 1.86-15.1 2.12-16.74a3 3 0 0 1 .99-2.09Z"/><path class="k" d="m196.84 194.14 2.05-6.7-1.08-.45-2.41 5.26ZM176.21 188.86l1.54-6.98 1.22.02-.46 5.78Z"/><path class="aw" d="M189.19 195.63s3.68.73 6-3.55a.58.58 0 0 1 1-.1 3 3 0 0 1 .61 2.39c-1.13 4.18-7.32 5.11-8.43 7.53s.82-6.27.82-6.27ZM182.41 192.49s-2.91.23-3.33-2.29a18.16 18.16 0 0 1-.29-2.52.52.52 0 0 0-.58-.5c-.69.09-1.77.3-1.92.76-.22.7-.63 4.13 2.25 9.38 1.88 3.44 3.87-4.83 3.87-4.83Z"/><path class="k" d="M177.74 181.9v-.8a1.59 1.59 0 0 1 .24-.79l.8-1.32.21-.27a.63.63 0 0 1 .81-.14l.18.12a.75.75 0 0 1 .36.69l-.42 1.14.53-.11a.19.19 0 0 1 .22.15.18.18 0 0 1-.11.21l-.87.35-.78 1.11ZM198.92 187.48l.24-.76a1.67 1.67 0 0 0 .05-.83l-.31-1.52-.11-.32a.61.61 0 0 0-.71-.4h-.21a.75.75 0 0 0-.57.54v1.2l-.46-.27a.18.18 0 0 0-.26.06.21.21 0 0 0 0 .24l.69.62.41 1.47Z"/><path class="av" d="M187.47 200.7c-.33 1.53.61 13.39-2.45 16.33 1.17 0 3.43-1 3.35-2.57a94.911 94.911 0 0 1 .28-13c1.2-1.55 4.5-2.54 6.57-4.54-.15.08-7.42 2.26-7.75 3.78Z"/><path class="m" d="m183.44 192.69.53-.53a4.23 4.23 0 0 0 1.55 1 8.188 8.188 0 0 0 1.24.25l.33.93s-2.74-.16-3.65-1.65Z"/><path class="au" d="M187.3 189.94a.46.46 0 0 0 .41 0c.22-.12.58-1 1-.94.73.1 1.78 1.63 3.08-.5.68-1.1.28-1.69.61-2.32 0 0-.11.34-3-1.39a4.22 4.22 0 0 0-5.88 1.58c-.72 1.21-1.19 3.58.67 4.91a4.5 4.5 0 0 0 2.35-.34c0-.17-.5-.44-.2-.83a.63.63 0 0 1 .96-.17Z"/><path class="y" d="m314.68 188.5 7.22 9.49 7.33-1.52-7.49 2.28Z"/><path class="y" d="m322.75 198.28.61-.16 5.82 9.32ZM321.21 197.71l-6.48 2.05 6.14-2.58Z"/><path class="g" d="M318 189.33a7.26 7.26 0 0 0-3.55-5.74 2.66 2.66 0 0 0-2.45-.25l-1.24.66h.59a2.81 2.81 0 0 0-.38 1.51 7.27 7.27 0 0 0 3.54 5.73 3.42 3.42 0 0 0 1.46.44l-.28.5 1.29-.69.08-.05h.06a2.3 2.3 0 0 0 .88-2.11Z"/><path class="p" d="M316.68 190c0 2.11-1.58 3-3.54 1.91a7.23 7.23 0 0 1-3.54-5.73c0-2.11 1.58-3 3.54-1.92a7.25 7.25 0 0 1 3.54 5.74Z"/><path class="m" d="M313.51 190.36a.54.54 0 0 0 .3-.05.5.5 0 0 0 .17-.24 1.441 1.441 0 0 0 .1-.37v-.48a3.238 3.238 0 0 0-.05-.56 1.871 1.871 0 0 0-.15-.49 1.561 1.561 0 0 0-.27-.4 1.24 1.24 0 0 0-.39-.29.92.92 0 0 0-.31-.1.34.34 0 0 0-.21 0v-1l1.19.64v-.65l-1.76-.95v2.3l.57.31a.29.29 0 0 1 .14-.19.25.25 0 0 1 .23 0 .48.48 0 0 1 .16.12.76.76 0 0 1 .11.16.484.484 0 0 0 .06.21 2.008 2.008 0 0 1 0 .23 2.1 2.1 0 0 1 0 .27v.41a.72.72 0 0 1 0 .17.761.761 0 0 1 0 .11.18.18 0 0 1-.06.08h-.09a.24.24 0 0 1-.13 0 .7.7 0 0 1-.19-.15.76.76 0 0 1-.11-.22 1.09 1.09 0 0 1 0-.25 2.071 2.071 0 0 1 0-.29l-.65-.35a3 3 0 0 0 0 .55 2.06 2.06 0 0 0 .15.48 1.48 1.48 0 0 0 .3.42 2.669 2.669 0 0 0 .49.35 1.07 1.07 0 0 0 .4.22Z"/><path class="g" d="M239.3 85.59a5.88 5.88 0 1 1 5.88 5.87 5.88 5.88 0 0 1-5.88-5.87Zm1.29 0a4.59 4.59 0 1 0 4.59-4.59 4.59 4.59 0 0 0-4.59 4.59Z"/><path class="c" d="M260.46 230.86a4.17 4.17 0 1 1 4.17 4.16 4.17 4.17 0 0 1-4.17-4.16Zm1.28 0a2.89 2.89 0 1 0 2.89-2.88 2.89 2.89 0 0 0-2.89 2.88Z"/><path class="g" d="m221.72 54.05 7.16-14.57 14.57 7.17-7.16 14.57Zm8.64-10.22-4.3 8.74 8.75 4.3 4.3-8.74Z"/><path class="ax" d="m484.55 134.49 4.31-8.77 8.78 4.31-4.32 8.78Zm5.21-6.16-2.59 5.27 5.26 2.59 2.59-5.27Z"/><circle class="c" cx="4.24" cy="4.24" r="4.24" transform="translate(246.17 85.22)"/><path class="c" d="M288.6 89.46a1.74 1.74 0 1 0 .51-1.24 1.75 1.75 0 0 0-.51 1.24Z"/><path class="g" d="M269.09 236.77a2.5 2.5 0 1 0 2.5-2.5 2.5 2.5 0 0 0-2.5 2.5Z"/><path d="M379.73 57.8a15.11 15.11 0 1 1 15.11 15.11 15.11 15.11 0 0 1-15.11-15.11Zm4.65 0a10.46 10.46 0 1 0 10.46-10.45 10.46 10.46 0 0 0-10.46 10.45Z" style="opacity:.7;fill:#fdd762"/><path class="ax" d="M460.31 216.33a4.53 4.53 0 1 0 1.323-3.21 4.53 4.53 0 0 0-1.323 3.21Z"/><path d="M497.71 125.66a2.27 2.27 0 1 0 2.27-2.27 2.27 2.27 0 0 0-2.27 2.27Z" style="opacity:.85;fill:#f9bf30"/><path class="r" d="M54.09 141.36a2.49 2.49 0 1 0 1.45-3.21 2.49 2.49 0 0 0-1.45 3.21Z"/><path class="c" d="m73.99 128.95-9.694 3.655-3.655-9.694 9.694-3.655z"/><g style="opacity:.5"><path class="ah" d="m211.228 179.315-1.536 2.682-5.79-3.315 1.536-2.682z"/><path class="ah" d="M203.59 178a2.43 2.43 0 0 1 1.09-1.9c.6-.35 1.09-.06 1.09.63a2.41 2.41 0 0 1-1.09 1.9c-.6.37-1.09.04-1.09-.63ZM219.773 183.107l-2.49 4.349-9.07-5.194 2.49-4.349z"/><path class="ah" d="m210.28 178.77-2-1.13a4 4 0 0 0-1.53 2.68l2 1.13a4 4 0 0 0 1.53-2.68Z"/><path class="ah" d="M207.69 181.1a3.88 3.88 0 0 1 1.76-3.07c1-.57 1.77-.11 1.77 1a4 4 0 0 1-1.76 3.08c-.98.57-1.77.12-1.77-1.01Z"/></g><path class="m" d="M205.41 177.25c-.28-.16-.28-.42 0-.59a1.17 1.17 0 0 1 1 0 .31.31 0 0 1 0 .59 1.13 1.13 0 0 1-1 0Z"/></g></svg>