<svg xmlns="http://www.w3.org/2000/svg" xmlns:xlink="http://www.w3.org/1999/xlink" width="100" height="100" viewBox="0 0 100 100">
  <defs>
    <clipPath id="clip-path">
      <rect id="矩形_4484" data-name="矩形 4484" width="100" height="100" transform="translate(5334 12105)" fill="none" stroke="#707070" stroke-width="1"/>
    </clipPath>
  </defs>
  <g id="蒙版组_143" data-name="蒙版组 143" transform="translate(-5334 -12105)" clip-path="url(#clip-path)">
    <g id="组_5331" data-name="组 5331" transform="translate(4544 8928)">
      <g id="digital35" transform="translate(800 3126)">
        <path id="路径_14225" data-name="路径 14225" d="M101.655,232a13.655,13.655,0,1,0,13.655,13.655A13.616,13.616,0,0,0,101.655,232Zm0,22.345a8.69,8.69,0,1,1,8.69-8.69A8.636,8.636,0,0,1,101.655,254.345Z" transform="translate(-74.345 -135.172)" fill="#37268b"/>
        <path id="路径_14226" data-name="路径 14226" d="M121.931,275.862a9.931,9.931,0,1,1,9.931-9.931A9.96,9.96,0,0,1,121.931,275.862Zm0-17.38a7.448,7.448,0,1,0,7.448,7.448A7.47,7.47,0,0,0,121.931,258.483Z" transform="translate(-94.62 -155.448)" fill="#b49243"/>
        <path id="路径_14227" data-name="路径 14227" d="M8,218.483a2.483,2.483,0,0,1,4.966,0v7.448a2.483,2.483,0,0,1-4.966,0Z" transform="translate(-6.759 -121.655)" fill="#37268b"/>
        <path id="路径_14228" data-name="路径 14228" d="M94.9,253.793a14.9,14.9,0,1,1,14.9-14.9A14.941,14.941,0,0,1,94.9,253.793Zm0-27.311A12.414,12.414,0,1,0,107.311,238.9,12.45,12.45,0,0,0,94.9,226.483Z" transform="translate(-67.586 -128.414)" fill="#b49243"/>
        <path id="路径_14229" data-name="路径 14229" d="M463.448,83.724V130.9a3.724,3.724,0,1,1-7.448,0V83.724a3.724,3.724,0,0,1,7.448,0Z" transform="translate(-385.241 -6.759)" fill="#37268b"/>
        <path id="路径_14230" data-name="路径 14230" d="M40,163.062v7.448l40.966,12.662V150.4Z" transform="translate(-33.793 -66.234)" fill="#7c71af"/>
        <path id="路径_14231" data-name="路径 14231" d="M304,111.2v32.773l23.586,7.2V104Z" transform="translate(-256.827 -27.034)" fill="#37268b"/>
        <g id="组_5148" data-name="组 5148" transform="translate(0 72)">
          <path id="路径_14232" data-name="路径 14232" d="M97.664,145.888h-.372L32.739,126.025a1.422,1.422,0,0,1-.869-1.614,1.348,1.348,0,0,1,1.49-.869l63.063,19.366v-43.7L33.484,118.577a1.219,1.219,0,1,1-.621-2.359L97.416,96.356a1,1,0,0,1,.993.124,1.533,1.533,0,0,1,.5.993v47.173a1.533,1.533,0,0,1-.5.993A1.764,1.764,0,0,1,97.664,145.888Z" transform="translate(-26.905 -92.508)" fill="#b49243"/>
          <path id="路径_14233" data-name="路径 14233" d="M3.724,222.9A3.658,3.658,0,0,1,0,219.173v-7.448A3.658,3.658,0,0,1,3.724,208a3.658,3.658,0,0,1,3.724,3.724v7.448A3.658,3.658,0,0,1,3.724,222.9Zm0-12.414a1.173,1.173,0,0,0-1.241,1.241v7.448a1.173,1.173,0,0,0,1.241,1.241,1.173,1.173,0,0,0,1.241-1.241v-7.448A1.173,1.173,0,0,0,3.724,210.483Z" transform="translate(0 -186.896)" fill="#b49243"/>
          <path id="路径_14234" data-name="路径 14234" d="M452.966,129.1A4.98,4.98,0,0,1,448,124.139V76.966a4.966,4.966,0,0,1,9.931,0v47.173A4.98,4.98,0,0,1,452.966,129.1Zm0-54.621a2.49,2.49,0,0,0-2.483,2.483v47.173a2.483,2.483,0,0,0,4.966,0V76.966A2.49,2.49,0,0,0,452.966,74.483Z" transform="translate(-378.482 -72)" fill="#b49243"/>
        </g>
      </g>
    </g>
  </g>
</svg>
