<svg xmlns="http://www.w3.org/2000/svg" xmlns:xlink="http://www.w3.org/1999/xlink" width="100" height="100" viewBox="0 0 100 100">
  <defs>
    <clipPath id="clip-path">
      <rect id="矩形_4492" data-name="矩形 4492" width="100" height="100" transform="translate(5471 12105)" fill="none" stroke="#707070" stroke-width="1"/>
    </clipPath>
  </defs>
  <g id="蒙版组_145" data-name="蒙版组 145" transform="translate(-5471 -12105)" clip-path="url(#clip-path)">
    <g id="组_5338" data-name="组 5338" transform="translate(4241 8931)">
      <g id="组_5337" data-name="组 5337" transform="translate(791 -3)">
        <path id="路径_14398" data-name="路径 14398" d="M76.381,178.646a4.693,4.693,0,0,1-4.679,4.679H13.213a4.693,4.693,0,0,1-4.679-4.679V141.213a4.693,4.693,0,0,1,4.679-4.679H71.7a4.693,4.693,0,0,1,4.679,4.679Z" transform="translate(446.636 3074.013)" fill="#7c71af"/>
        <path id="路径_14399" data-name="路径 14399" d="M64.338,177.131H5.849A5.792,5.792,0,0,1,0,171.282V133.849A5.792,5.792,0,0,1,5.849,128H64.338a5.792,5.792,0,0,1,5.849,5.849v37.433A5.792,5.792,0,0,1,64.338,177.131ZM5.849,130.34a3.447,3.447,0,0,0-3.509,3.509v37.433a3.447,3.447,0,0,0,3.509,3.509H64.338a3.447,3.447,0,0,0,3.509-3.509V133.849a3.447,3.447,0,0,0-3.509-3.509Z" transform="translate(454 3081.377)" fill="#b49243"/>
        <path id="路径_14400" data-name="路径 14400" d="M97.991,207.275a7.039,7.039,0,0,1-7.019,7.019H58.219a7.039,7.039,0,0,1-7.019-7.019V186.219a7.039,7.039,0,0,1,7.019-7.019H90.972a7.039,7.039,0,0,1,7.019,7.019Z" transform="translate(409.819 3037.195)" fill="#37268b"/>
        <rect id="矩形_4486" data-name="矩形 4486" width="2.34" height="2.34" transform="translate(458.679 3258.507)" fill="#b49243"/>
        <rect id="矩形_4487" data-name="矩形 4487" width="2.34" height="2.34" transform="translate(517.168 3258.507)" fill="#b49243"/>
        <g id="组_5335" data-name="组 5335">
          <rect id="矩形_4488" data-name="矩形 4488" width="2.34" height="2.34" transform="translate(513.658 3230.433)" fill="#b49243"/>
          <rect id="矩形_4489" data-name="矩形 4489" width="2.34" height="2.34" transform="translate(513.658 3235.111)" fill="#b49243"/>
          <rect id="矩形_4490" data-name="矩形 4490" width="2.34" height="2.34" transform="translate(513.658 3239.791)" fill="#b49243"/>
          <rect id="矩形_4491" data-name="矩形 4491" width="2.34" height="2.34" transform="translate(513.658 3244.47)" fill="#b49243"/>
        </g>
        <circle id="椭圆_1286" data-name="椭圆 1286" cx="4.679" cy="4.679" r="4.679" transform="translate(510.149 3216.396)" fill="#b49243"/>
        <circle id="椭圆_1287" data-name="椭圆 1287" cx="2.34" cy="2.34" r="2.34" transform="translate(512.489 3218.734)" fill="#37268b"/>
        <g id="组_5336" data-name="组 5336" transform="translate(0 1)">
          <path id="路径_14401" data-name="路径 14401" d="M213.333,91.182a5.849,5.849,0,0,1,11.7,0" transform="translate(269.911 3118.194)" fill="#b49243"/>
          <path id="路径_14402" data-name="路径 14402" d="M140.868,22.57a1.062,1.062,0,0,1-.819-.351l-11.7-11.7a1.158,1.158,0,0,1,1.638-1.638l11.7,11.7a1.131,1.131,0,0,1,0,1.638A1.062,1.062,0,0,1,140.868,22.57Z" transform="translate(343.546 3184.467)" fill="#b49243"/>
          <path id="路径_14403" data-name="路径 14403" d="M282.77,22.571a1.062,1.062,0,0,1-.819-.351,1.131,1.131,0,0,1,0-1.638l11.7-11.7a1.158,1.158,0,0,1,1.638,1.638l-11.7,11.7A1.062,1.062,0,0,1,282.77,22.571Z" transform="translate(211.002 3184.467)" fill="#b49243"/>
          <path id="路径_14404" data-name="路径 14404" d="M218.837,83.819H216.5a4.679,4.679,0,0,0-9.358,0H204.8a7.019,7.019,0,1,1,14.037,0Z" transform="translate(277.275 3125.559)" fill="#b49243"/>
        </g>
        <text id="LIVE" transform="translate(485 3239)" fill="#b49243" font-size="14" font-family="ITCAvantGardePro-Demi, ITC Avant Garde Gothic Pro" font-weight="300" letter-spacing="0.05em"><tspan x="-14.63" y="0">LIVE</tspan></text>
      </g>
    </g>
  </g>
</svg>
