<svg id="组_5244" data-name="组 5244" xmlns="http://www.w3.org/2000/svg" width="99.49" height="71.064" viewBox="0 0 99.49 71.064">
  <path id="路径_14370" data-name="路径 14370" d="M449.509,637.121l-11.37-14.213h12.187Z" transform="translate(-364.232 -566.057)" fill="#b49243"/>
  <path id="路径_14371" data-name="路径 14371" d="M449.727,641.491l-14.213-71.064h14.213l14.213,71.064Z" transform="translate(-364.45 -570.427)" fill="#896b36"/>
  <path id="路径_14372" data-name="路径 14372" d="M436.607,570.427l-14.213,71.064h14.213l14.213-71.064Z" transform="translate(-365.543 -570.427)" fill="#b49243"/>
  <path id="路径_14373" data-name="路径 14373" d="M423.487,641.491l-14.213-71.064h14.213L437.7,641.491Z" transform="translate(-366.636 -570.427)" fill="#896b36"/>
  <path id="路径_14374" data-name="路径 14374" d="M410.367,570.427l-14.213,71.064h14.213l14.213-71.064Z" transform="translate(-367.728 -570.427)" fill="#d8ac55"/>
  <path id="路径_14375" data-name="路径 14375" d="M397.246,641.491l-14.213-71.064h14.213l14.213,71.064Z" transform="translate(-368.821 -570.427)" fill="#b49243"/>
  <path id="路径_14376" data-name="路径 14376" d="M384.126,570.427l-14.213,71.064h14.213l14.213-71.064Z" transform="translate(-369.913 -570.427)" fill="#d8ac55"/>
</svg>
