<svg xmlns="http://www.w3.org/2000/svg" xmlns:xlink="http://www.w3.org/1999/xlink" width="73" height="73" viewBox="0 0 73 73">
  <defs>
    <clipPath id="clip-path">
      <rect id="矩形_4420" data-name="矩形 4420" width="73" height="73" transform="translate(1337 13046)" fill="none" stroke="#707070" stroke-width="1"/>
    </clipPath>
  </defs>
  <g id="蒙版组_137" data-name="蒙版组 137" transform="translate(-1337 -13046)" clip-path="url(#clip-path)">
    <g id="组_5169" data-name="组 5169" transform="translate(126 -1)">
      <path id="路径_14272" data-name="路径 14272" d="M602.354,769.24c6.48,21-44.712,17.144-48.056,10.456-5.13-10.262,6.369-23.6,25.237-29.84C587.317,747.283,597.566,753.723,602.354,769.24Z" transform="translate(442.003 12557.095) rotate(-20)" fill="#594b9f"/>
      <g id="winner" transform="translate(1225 13065)">
        <path id="路径_14261" data-name="路径 14261" d="M2,2S15.206,15.123,21.95,15.02C29.552,14.9,42.921,2,42.921,2S31.644,13.858,29.9,22.8c-1.716,8.8-3.72,20.125-3.72,20.125l-3.72-14.88-5.58,14.88s-.744-15.147-1.86-20.46C13.4,14.752,2.719,3.226,2,2Z" transform="translate(0 0)" fill="none" stroke="#190f4b" stroke-linejoin="round" stroke-miterlimit="10" stroke-width="2"/>
        <ellipse id="椭圆_1269" data-name="椭圆 1269" cx="4.5" cy="5" rx="4.5" ry="5" transform="translate(18 2)" fill="none" stroke="#fff" stroke-linejoin="round" stroke-miterlimit="10" stroke-width="2"/>
      </g>
    </g>
  </g>
</svg>
