<svg xmlns="http://www.w3.org/2000/svg" xmlns:xlink="http://www.w3.org/1999/xlink" width="73" height="73" viewBox="0 0 73 73">
  <defs>
    <clipPath id="clip-path">
      <rect id="矩形_4418" data-name="矩形 4418" width="73" height="73" transform="translate(1126 13046)" fill="none" stroke="#707070" stroke-width="1"/>
    </clipPath>
  </defs>
  <g id="蒙版组_135" data-name="蒙版组 135" transform="translate(-1126 -13046)" clip-path="url(#clip-path)">
    <g id="组_5167" data-name="组 5167" transform="translate(59 -1)">
      <path id="路径_14286" data-name="路径 14286" d="M602.354,769.24c6.48,21-44.712,17.144-48.056,10.456-5.13-10.262,6.369-23.6,25.237-29.84C587.317,747.283,597.566,753.723,602.354,769.24Z" transform="translate(297.003 12556.095) rotate(-20)" fill="#594b9f"/>
      <g id="Layer_1" transform="translate(1082 13067.023)">
        <path id="路径_14277" data-name="路径 14277" d="M38.3,39.13H2.7a1.7,1.7,0,0,1-1.7-1.7V13.7A1.7,1.7,0,0,1,2.7,12H38.3A1.7,1.7,0,0,1,40,13.7V37.435A1.7,1.7,0,0,1,38.3,39.13Z" transform="translate(0 -1.153)" fill="none" stroke="#190f4b" stroke-linecap="round" stroke-linejoin="round" stroke-miterlimit="10" stroke-width="2"/>
        <ellipse id="椭圆_1274" data-name="椭圆 1274" cx="4.5" cy="4" rx="4.5" ry="4" transform="translate(6 14.977)" fill="none" stroke="#190f4b" stroke-linecap="round" stroke-linejoin="round" stroke-miterlimit="10" stroke-width="2"/>
        <path id="路径_14278" data-name="路径 14278" d="M16.174,36.478H6V33.087A5.087,5.087,0,0,1,11.087,28h0a5.087,5.087,0,0,1,5.087,5.087Z" transform="translate(-0.761 -3.588)" fill="none" stroke="#190f4b" stroke-linecap="round" stroke-linejoin="round" stroke-miterlimit="10" stroke-width="2"/>
        <line id="直线_311" data-name="直线 311" x2="5" transform="translate(21 16.977)" fill="none" stroke="#fff" stroke-linecap="round" stroke-linejoin="round" stroke-miterlimit="10" stroke-width="2"/>
        <line id="直线_312" data-name="直线 312" x2="13" transform="translate(21 21.977)" fill="none" stroke="#fff" stroke-linecap="round" stroke-linejoin="round" stroke-miterlimit="10" stroke-width="2"/>
        <line id="直线_313" data-name="直线 313" x2="13" transform="translate(21 26.977)" fill="none" stroke="#fff" stroke-linecap="round" stroke-linejoin="round" stroke-miterlimit="10" stroke-width="2"/>
        <line id="直线_314" data-name="直线 314" x2="13" transform="translate(21 31.977)" fill="none" stroke="#fff" stroke-linecap="round" stroke-linejoin="round" stroke-miterlimit="10" stroke-width="2"/>
        <ellipse id="椭圆_1275" data-name="椭圆 1275" cx="3.5" cy="3" rx="3.5" ry="3" transform="translate(17 3.977)" fill="none" stroke="#190f4b" stroke-linecap="round" stroke-linejoin="round" stroke-miterlimit="10" stroke-width="2"/>
      </g>
    </g>
  </g>
</svg>
