<svg xmlns="http://www.w3.org/2000/svg" xmlns:xlink="http://www.w3.org/1999/xlink" width="73" height="73" viewBox="0 0 73 73">
  <defs>
    <clipPath id="clip-path">
      <rect id="矩形_4421" data-name="矩形 4421" width="73" height="73" transform="translate(1436 13046)" fill="none" stroke="#707070" stroke-width="1"/>
    </clipPath>
  </defs>
  <g id="蒙版组_138" data-name="蒙版组 138" transform="translate(-1436 -13046)" clip-path="url(#clip-path)">
    <g id="组_5170" data-name="组 5170" transform="translate(157 -2)">
      <path id="路径_14287" data-name="路径 14287" d="M602.354,769.24c6.48,21-44.712,17.144-48.056,10.456-5.13-10.262,6.369-23.6,25.237-29.84C587.317,747.283,597.566,753.723,602.354,769.24Z" transform="translate(510.003 12557.095) rotate(-20)" fill="#594b9f"/>
      <g id="graph-up" transform="translate(1293 13069)">
        <path id="路径_14279" data-name="路径 14279" d="M3,3V36.17a.877.877,0,0,0,.932.809h38.2" transform="translate(0 -0.382)" fill="none" stroke="#190f4b" stroke-linecap="round" stroke-linejoin="round" stroke-miterlimit="10" stroke-width="2"/>
        <path id="路径_14280" data-name="路径 14280" d="M8.932,38.854H10.8a.877.877,0,0,0,.932-.809V34.809A.877.877,0,0,0,10.8,34H8.932A.877.877,0,0,0,8,34.809v3.236A.877.877,0,0,0,8.932,38.854Z" transform="translate(-0.341 -6.302)" fill="none" stroke="#fff" stroke-linecap="round" stroke-linejoin="round" stroke-miterlimit="10" stroke-width="2"/>
        <path id="路径_14281" data-name="路径 14281" d="M17.932,37.517H19.8a.877.877,0,0,0,.932-.809v-8.9A.877.877,0,0,0,19.8,27H17.932a.877.877,0,0,0-.932.809v8.9A.877.877,0,0,0,17.932,37.517Z" transform="translate(-0.955 -4.966)" fill="none" stroke="#fff" stroke-linecap="round" stroke-linejoin="round" stroke-miterlimit="10" stroke-width="2"/>
        <path id="路径_14282" data-name="路径 14282" d="M26.932,36.18H28.8a.877.877,0,0,0,.932-.809V20.809A.877.877,0,0,0,28.8,20H26.932a.877.877,0,0,0-.932.809V35.371A.877.877,0,0,0,26.932,36.18Z" transform="translate(-1.568 -3.629)" fill="none" stroke="#fff" stroke-linecap="round" stroke-linejoin="round" stroke-miterlimit="10" stroke-width="2"/>
        <path id="路径_14283" data-name="路径 14283" d="M35.932,34.843H37.8a.877.877,0,0,0,.932-.809V13.809A.877.877,0,0,0,37.8,13H35.932a.877.877,0,0,0-.932.809V34.034A.877.877,0,0,0,35.932,34.843Z" transform="translate(-2.182 -2.292)" fill="none" stroke="#fff" stroke-linecap="round" stroke-linejoin="round" stroke-miterlimit="10" stroke-width="2"/>
        <path id="路径_14284" data-name="路径 14284" d="M8,18.18S21.2,16.293,35.955,2" transform="translate(-0.341 -0.191)" fill="none" stroke="#190f4b" stroke-linecap="round" stroke-linejoin="round" stroke-miterlimit="10" stroke-width="2"/>
        <path id="路径_14285" data-name="路径 14285" d="M34,1h4.659V5.045" transform="translate(-2.114)" fill="none" stroke="#190f4b" stroke-linecap="round" stroke-linejoin="round" stroke-miterlimit="10" stroke-width="2"/>
      </g>
    </g>
  </g>
</svg>
