<svg xmlns="http://www.w3.org/2000/svg" xmlns:xlink="http://www.w3.org/1999/xlink" width="73" height="73" viewBox="0 0 73 73">
  <defs>
    <clipPath id="clip-path">
      <rect id="矩形_4417" data-name="矩形 4417" width="73" height="73" transform="translate(1024 13046)" fill="none" stroke="#707070" stroke-width="1"/>
    </clipPath>
  </defs>
  <g id="蒙版组_134" data-name="蒙版组 134" transform="translate(-1024 -13046)" clip-path="url(#clip-path)">
    <g id="组_5166" data-name="组 5166" transform="translate(26 -3)">
      <path id="路径_14271" data-name="路径 14271" d="M602.354,769.24c6.48,21-44.712,17.144-48.056,10.456-5.13-10.262,6.369-23.6,25.237-29.84C587.317,747.283,597.566,753.723,602.354,769.24Z" transform="translate(229.003 12556.095) rotate(-20)" fill="#594b9f"/>
      <g id="basket-gift" transform="translate(1011 13063.212)">
        <g id="组_5163" data-name="组 5163" transform="translate(3 2.788)">
          <line id="直线_307" data-name="直线 307" y2="25.398" transform="translate(16.606 16.814)" fill="none" stroke="#fff" stroke-linecap="round" stroke-linejoin="round" stroke-miterlimit="10" stroke-width="2"/>
          <line id="直线_308" data-name="直线 308" y2="25.398" transform="translate(24.421 16.814)" fill="none" stroke="#fff" stroke-linecap="round" stroke-linejoin="round" stroke-miterlimit="10" stroke-width="2"/>
          <line id="直线_309" data-name="直线 309" y2="8.792" transform="translate(14.653 8.022)" fill="none" stroke="#190f4b" stroke-linecap="round" stroke-linejoin="round" stroke-miterlimit="10" stroke-width="2"/>
          <line id="直线_310" data-name="直线 310" y2="8.792" transform="translate(26.375 8.022)" fill="none" stroke="#190f4b" stroke-linecap="round" stroke-linejoin="round" stroke-miterlimit="10" stroke-width="2"/>
          <path id="路径_14274" data-name="路径 14274" d="M24,10.81A7.531,7.531,0,0,1,29.861,3C36.294,1.242,38.212,11.2,24,10.81Z" transform="translate(-3.486 -2.788)" fill="none" stroke="#fff" stroke-linecap="round" stroke-linejoin="round" stroke-miterlimit="10" stroke-width="2"/>
          <path id="路径_14275" data-name="路径 14275" d="M24.731,10.81A7.531,7.531,0,0,0,18.87,3C12.437,1.242,10.519,11.2,24.731,10.81Z" transform="translate(-3.254 -2.788)" fill="none" stroke="#fff" stroke-linecap="round" stroke-linejoin="round" stroke-miterlimit="10" stroke-width="2"/>
          <path id="路径_14276" data-name="路径 14276" d="M37.259,45.4H9.907A3.907,3.907,0,0,1,6,41.491V20H41.167V41.491A3.907,3.907,0,0,1,37.259,45.4Z" transform="translate(-3.069 -3.187)" fill="none" stroke="#190f4b" stroke-linecap="round" stroke-linejoin="round" stroke-miterlimit="10" stroke-width="2"/>
          <rect id="矩形_4415" data-name="矩形 4415" width="41.028" height="8.792" transform="translate(0 8.021)" fill="none" stroke="#190f4b" stroke-linecap="round" stroke-linejoin="round" stroke-miterlimit="10" stroke-width="2"/>
        </g>
      </g>
    </g>
  </g>
</svg>
