<svg width="64" height="64" fill="none" xmlns="http://www.w3.org/2000/svg"><rect x=".5" y=".5" width="63" height="63" rx="7.5" stroke="#00CF71"/><path d="M14.49 34.073a13.161 13.161 0 1 1 4.6 4.6l-4.546 1.296a1.096 1.096 0 0 1-1.351-1.351l1.296-4.545Z" stroke="#00CF71" stroke-width="2" stroke-linecap="round" stroke-linejoin="round"/><path d="M25.032 41.008a13.105 13.105 0 0 0 3.146 4.895 13.577 13.577 0 0 0 4.999 3.113c1.883.665 3.894.915 5.888.732a13.792 13.792 0 0 0 5.644-1.79v0l4.684 1.3a1.16 1.16 0 0 0 1.103-.281 1.09 1.09 0 0 0 .294-.499c.05-.188.049-.387-.005-.574l-1.336-4.555a12.883 12.883 0 0 0 1.902-6.424 12.859 12.859 0 0 0-1.591-6.503 13.304 13.304 0 0 0-4.673-4.903 13.795 13.795 0 0 0-6.548-2.035" stroke="#00CF71" stroke-width="2" stroke-linecap="round" stroke-linejoin="round"/></svg>