<svg xmlns="http://www.w3.org/2000/svg" viewBox="0 0 92.464 29.358"><path d="M21.573 14.369A8.76 8.76 0 0 0 8.567 2.654L2.615 8.621l2.222 2.222 1.288-1.291a8.76 8.76 0 0 0 8.723 7.966h.123l-.176 3.674 5.764-5.79a8.83 8.83 0 0 0 .954-.958l.067-.067z" fill="#00aeef"/><path d="M20.553 11.808A8.76 8.76 0 0 0 5.498 5.719l-2.887 2.9.764.764a8.764 8.764 0 0 0 11.51 10.621l.014 1.085 2.847-2.858a8.736 8.736 0 0 0 2.807-6.423z" fill="#3351ff"/><path d="M17.518 14.847A8.76 8.76 0 0 0 .12 13.401a8.76 8.76 0 0 0 6.479 9.936v6.021l7.893-7.893a8.74 8.74 0 0 0 3.026-6.618z" fill="#172d72"/><path d="m8.749 9.517-4.6 2.656v2.656l2.3-1.329v5.348l2.3 1.326v-8l2.3-1.328zm2.313 3.997v5.332l2.31-1.333V12.18z" fill="#fff"/><path d="m28.963 18.644-.842 2.526h-2.629l4.45-12.525h2.852l4.329 12.525h-2.644l-.825-2.526zm2.354-7.044-1.632 4.9h3.264zm10.739 8.075c1.117 0 1.787-.344 1.787-.911 0-.378-.206-.567-.808-.756l-2.869-.893a2.29 2.29 0 0 1-2.027-2.285c0-1.907 1.46-3.092 3.814-3.092 2.491 0 4 1.185 4.037 3.144h-2.319c-.017-.842-.584-1.254-1.735-1.254-.842 0-1.392.344-1.392.859 0 .378.172.515.842.721l3.041.876a2.254 2.254 0 0 1 1.821 2.338c0 1.289-.807 3.144-4.054 3.144-2.818 0-4.312-1.065-4.381-3.093h2.354c.136.636.381 1.202 1.889 1.202zm11.356-7.783h2.732l-3.162 3.5 3.385 5.773h-2.818l-2.216-4.089-.962 1.048v3.041h-2.405V8.645h2.405V15.5zm10.017 9.278h-2.578V10.793h-3.8V8.645h10.034v2.148h-3.66zm5.546-4.038V8.645h2.577v8.487c0 1.512.773 2.234 2.388 2.234s2.388-.722 2.388-2.234V8.645h2.577v8.487c0 3.539-2.852 4.433-4.965 4.433s-4.965-.893-4.965-4.433zm18.078-6.528c-2.182 0-3.5 1.632-3.5 4.33 0 2.577 1.495 4.4 3.574 4.4a3.172 3.172 0 0 0 3.178-2.783h-2.852v-2.154h5.017v6.769h-1.546l-.309-1.649a4.16 4.16 0 0 1-3.78 2.01c-3.385 0-5.859-2.766-5.859-6.563 0-3.9 2.457-6.563 6.065-6.563 3.024 0 5.12 1.632 5.429 4.209h-2.423a2.86 2.86 0 0 0-2.994-2.006z" fill="#172d72"/></svg>