<svg xmlns="http://www.w3.org/2000/svg" viewBox="0 0 738.912 152.958"><defs><linearGradient id="a" x1=".5" x2=".5" y2="1" gradientUnits="objectBoundingBox"><stop offset="0" stop-color="#fff"/><stop offset="1" stop-color="gray"/></linearGradient></defs><g data-name="组 4532"><g data-name="组 4532" transform="translate(-283.474 -1181.738)" fill="url(#a)"><path data-name="路径 15041" d="M285.159 1195.388q2.217-1.916 3.5-3.152a14.171 14.171 0 0 0 2.136-2.576 4.938 4.938 0 0 0 .855-2.678 3.278 3.278 0 0 0-.658-2.171 2.546 2.546 0 0 0-2.067-.786 2.647 2.647 0 0 0-2.114.867 3.605 3.605 0 0 0-.8 2.321h-2.54a5.656 5.656 0 0 1 9.366-4.042 4.926 4.926 0 0 1 1.42 3.7 6.56 6.56 0 0 1-.843 3.2 12.883 12.883 0 0 1-2.01 2.748q-1.167 1.213-2.968 2.806l-1.04.924h7.323v2.194H283.5v-1.917Z"/><path data-name="路径 15042" d="M303.002 1184.082q1.35-2.252 4.654-2.251t4.654 2.251a12.163 12.163 0 0 1 1.351 6.248 12.4 12.4 0 0 1-1.351 6.317q-1.352 2.274-4.654 2.275t-4.654-2.275a12.4 12.4 0 0 1-1.351-6.317 12.162 12.162 0 0 1 1.351-6.248Zm7.83 3.084a4.256 4.256 0 0 0-.981-2.114 3.347 3.347 0 0 0-4.388 0 4.249 4.249 0 0 0-.982 2.114 17.52 17.52 0 0 0-.242 3.165 19.239 19.239 0 0 0 .231 3.257 4.068 4.068 0 0 0 .981 2.125 3.414 3.414 0 0 0 4.412 0 4.076 4.076 0 0 0 .982-2.125 19.353 19.353 0 0 0 .23-3.257 17.52 17.52 0 0 0-.243-3.165Z"/><path data-name="路径 15043" d="M322.53 1195.388q2.217-1.916 3.5-3.152a14.218 14.218 0 0 0 2.137-2.576 4.946 4.946 0 0 0 .855-2.678 3.278 3.278 0 0 0-.659-2.171 2.546 2.546 0 0 0-2.067-.786 2.644 2.644 0 0 0-2.113.867 3.6 3.6 0 0 0-.8 2.321h-2.533a5.656 5.656 0 0 1 9.366-4.042 4.927 4.927 0 0 1 1.421 3.7 6.561 6.561 0 0 1-.844 3.2 12.882 12.882 0 0 1-2.01 2.748q-1.167 1.213-2.968 2.806l-1.04.924h7.323v2.194h-11.231v-1.917Z"/><path data-name="路径 15044" d="M338.675 1184.533v-2.4h4.8v16.837h-2.656v-14.436Z"/><path data-name="路径 15045" d="M351.933 1198.646a1.686 1.686 0 0 1 1.2-2.887 1.607 1.607 0 0 1 1.178.484 1.731 1.731 0 0 1 0 2.4 1.6 1.6 0 0 1-1.178.485 1.632 1.632 0 0 1-1.2-.482Z"/><path data-name="路径 15046" d="M361.565 1184.533v-2.4h4.8v16.837h-2.656v-14.436Z"/><path data-name="路径 15047" d="M376.067 1195.388q2.217-1.916 3.5-3.152a14.215 14.215 0 0 0 2.137-2.576 4.946 4.946 0 0 0 .855-2.678 3.278 3.278 0 0 0-.659-2.171 2.546 2.546 0 0 0-2.067-.786 2.644 2.644 0 0 0-2.113.867 3.6 3.6 0 0 0-.8 2.321h-2.54a5.656 5.656 0 0 1 9.366-4.042 4.927 4.927 0 0 1 1.421 3.7 6.561 6.561 0 0 1-.844 3.2 12.883 12.883 0 0 1-2.01 2.748q-1.167 1.213-2.968 2.806l-1.04.924h7.323v2.194h-11.222v-1.917Z"/><path data-name="路径 15048" d="M392.769 1198.646a1.686 1.686 0 0 1 1.2-2.887 1.607 1.607 0 0 1 1.178.484 1.73 1.73 0 0 1 0 2.4 1.6 1.6 0 0 1-1.178.485 1.631 1.631 0 0 1-1.2-.482Z"/><path data-name="路径 15049" d="M403.186 1186.381a4.246 4.246 0 0 1 2.495-3.938 7.867 7.867 0 0 1 6.086 0 4.225 4.225 0 0 1 2.506 3.938 3.988 3.988 0 0 1-.658 2.275 4.366 4.366 0 0 1-1.744 1.513 4.255 4.255 0 0 1 2.078 1.582 4.4 4.4 0 0 1 .763 2.576 4.711 4.711 0 0 1-.763 2.656 4.935 4.935 0 0 1-2.124 1.778 7.354 7.354 0 0 1-3.095.623 7.269 7.269 0 0 1-3.084-.623 4.944 4.944 0 0 1-2.114-1.778 4.718 4.718 0 0 1-.762-2.656 4.394 4.394 0 0 1 .762-2.587 4.289 4.289 0 0 1 2.056-1.571 3.974 3.974 0 0 1-2.402-3.788Zm3.061 5.694a2.578 2.578 0 0 0-.958 2.159 2.719 2.719 0 0 0 .924 2.136 3.653 3.653 0 0 0 2.518.821 3.55 3.55 0 0 0 2.483-.832 2.748 2.748 0 0 0 .911-2.125 2.614 2.614 0 0 0-.935-2.148 3.772 3.772 0 0 0-2.459-.763 3.907 3.907 0 0 0-2.484.752Zm4.7-7.357a3.3 3.3 0 0 0-2.217-.693 3.261 3.261 0 0 0-2.195.693 2.5 2.5 0 0 0-.808 2.01 2.371 2.371 0 0 0 .843 1.883 3.565 3.565 0 0 0 4.331-.011 2.392 2.392 0 0 0 .855-1.894 2.473 2.473 0 0 0-.809-1.988Z"/><path data-name="路径 15050" d="M432.219 1189.499v2.217h-9.493v-2.217Z"/><path data-name="路径 15051" d="M441.688 1195.388q2.217-1.916 3.5-3.152a14.216 14.216 0 0 0 2.137-2.576 4.946 4.946 0 0 0 .855-2.678 3.278 3.278 0 0 0-.659-2.171 2.546 2.546 0 0 0-2.067-.786 2.644 2.644 0 0 0-2.113.867 3.6 3.6 0 0 0-.8 2.321h-2.54a5.656 5.656 0 0 1 9.366-4.042 4.927 4.927 0 0 1 1.421 3.7 6.57 6.57 0 0 1-.843 3.2 12.917 12.917 0 0 1-2.011 2.748q-1.165 1.213-2.968 2.806l-1.04.924h7.323v2.194h-11.224v-1.917Z"/><path data-name="路径 15052" d="M459.531 1184.082q1.352-2.252 4.654-2.251t4.655 2.251a12.172 12.172 0 0 1 1.351 6.248 12.41 12.41 0 0 1-1.351 6.317q-1.352 2.274-4.655 2.275t-4.654-2.275a12.41 12.41 0 0 1-1.351-6.317 12.172 12.172 0 0 1 1.351-6.248Zm7.831 3.084a4.265 4.265 0 0 0-.982-2.114 3.347 3.347 0 0 0-4.388 0 4.257 4.257 0 0 0-.982 2.114 17.529 17.529 0 0 0-.242 3.165 19.257 19.257 0 0 0 .23 3.257 4.083 4.083 0 0 0 .981 2.125 3.414 3.414 0 0 0 4.412 0 4.077 4.077 0 0 0 .982-2.125 19.353 19.353 0 0 0 .23-3.257 17.532 17.532 0 0 0-.241-3.165Z"/><path data-name="路径 15053" d="M479.06 1195.388q2.216-1.916 3.5-3.152a14.172 14.172 0 0 0 2.136-2.576 4.946 4.946 0 0 0 .855-2.678 3.273 3.273 0 0 0-.659-2.171 2.546 2.546 0 0 0-2.067-.786 2.644 2.644 0 0 0-2.113.867 3.6 3.6 0 0 0-.8 2.321h-2.54a5.656 5.656 0 0 1 9.366-4.042 4.927 4.927 0 0 1 1.421 3.7 6.57 6.57 0 0 1-.843 3.2 12.916 12.916 0 0 1-2.01 2.748q-1.167 1.213-2.969 2.806l-1.039.924h7.322v2.194h-11.224v-1.917Z"/><path data-name="路径 15054" d="M497.006 1195.388q2.217-1.916 3.5-3.152a14.214 14.214 0 0 0 2.136-2.576 4.946 4.946 0 0 0 .855-2.678 3.278 3.278 0 0 0-.659-2.171 2.547 2.547 0 0 0-2.067-.786 2.644 2.644 0 0 0-2.113.867 3.6 3.6 0 0 0-.8 2.321h-2.54a5.656 5.656 0 0 1 9.366-4.042 4.927 4.927 0 0 1 1.421 3.7 6.571 6.571 0 0 1-.843 3.2 12.949 12.949 0 0 1-2.01 2.748q-1.167 1.213-2.969 2.806l-1.039.924h7.322v2.194h-11.221v-1.917Z"/><path data-name="路径 15055" d="M513.707 1198.646a1.686 1.686 0 0 1 1.2-2.887 1.607 1.607 0 0 1 1.178.484 1.73 1.73 0 0 1 0 2.4 1.6 1.6 0 0 1-1.178.485 1.63 1.63 0 0 1-1.2-.482Z"/><path data-name="路径 15056" d="M525.035 1184.082q1.352-2.252 4.654-2.251t4.655 2.251a12.172 12.172 0 0 1 1.351 6.248 12.411 12.411 0 0 1-1.351 6.317q-1.352 2.274-4.655 2.275t-4.654-2.275a12.41 12.41 0 0 1-1.351-6.317 12.172 12.172 0 0 1 1.351-6.248Zm7.831 3.084a4.265 4.265 0 0 0-.982-2.114 3.347 3.347 0 0 0-4.388 0 4.258 4.258 0 0 0-.982 2.114 17.535 17.535 0 0 0-.242 3.165 19.264 19.264 0 0 0 .23 3.257 4.083 4.083 0 0 0 .981 2.125 3.414 3.414 0 0 0 4.412 0 4.077 4.077 0 0 0 .982-2.125 19.353 19.353 0 0 0 .23-3.257 17.523 17.523 0 0 0-.241-3.165Z"/><path data-name="路径 15057" d="M542.763 1184.533v-2.4h4.8v16.837h-2.655v-14.436Z"/><path data-name="路径 15058" d="M556.02 1198.646a1.686 1.686 0 0 1 1.2-2.887 1.607 1.607 0 0 1 1.178.484 1.731 1.731 0 0 1 0 2.4 1.6 1.6 0 0 1-1.178.485 1.632 1.632 0 0 1-1.2-.482Z"/><path data-name="路径 15059" d="M567.349 1184.082q1.352-2.252 4.654-2.251t4.655 2.251a12.171 12.171 0 0 1 1.351 6.248 12.41 12.41 0 0 1-1.351 6.317q-1.352 2.274-4.655 2.275t-4.654-2.275a12.41 12.41 0 0 1-1.351-6.317 12.172 12.172 0 0 1 1.351-6.248Zm7.831 3.084a4.264 4.264 0 0 0-.982-2.114 3.347 3.347 0 0 0-4.388 0 4.257 4.257 0 0 0-.982 2.114 17.529 17.529 0 0 0-.242 3.165 19.257 19.257 0 0 0 .23 3.257 4.083 4.083 0 0 0 .981 2.125 3.414 3.414 0 0 0 4.411 0 4.076 4.076 0 0 0 .982-2.125 19.359 19.359 0 0 0 .23-3.257 17.528 17.528 0 0 0-.24-3.165Z"/><path data-name="路径 15060" d="M589.696 1196.151a3.23 3.23 0 0 0 2.055.6 2.588 2.588 0 0 0 2.4-1.292 9.264 9.264 0 0 0 .762-4.412 3.554 3.554 0 0 1-1.559 1.212 5.512 5.512 0 0 1-2.182.427 6.026 6.026 0 0 1-2.726-.611 4.54 4.54 0 0 1-1.928-1.825 5.768 5.768 0 0 1-.7-2.945 5.182 5.182 0 0 1 5.59-5.567 4.883 4.883 0 0 1 4.469 2.091q1.327 2.09 1.328 6.409a19.745 19.745 0 0 1-.5 4.874 5.2 5.2 0 0 1-1.721 2.864 5.338 5.338 0 0 1-3.4.971 5.26 5.26 0 0 1-3.81-1.294 4.923 4.923 0 0 1-1.5-3.257h2.425a2.845 2.845 0 0 0 .997 1.755Zm4.123-6.548a3.261 3.261 0 0 0 .8-2.3 3.465 3.465 0 0 0-.844-2.483 3.015 3.015 0 0 0-2.3-.889 2.971 2.971 0 0 0-2.3.913 3.378 3.378 0 0 0-.844 2.391 3.337 3.337 0 0 0 .82 2.321 3.169 3.169 0 0 0 2.483.912 2.821 2.821 0 0 0 2.185-.868Z"/></g><g data-name="组 4537"><g data-name="组 4534"><g data-name="组 4533" fill="url(#a)" transform="translate(-119.99 -154.203)"><path data-name="路径 15061" d="M134.009 212.2v11.642h18.774v10.822h-18.774v12.625h21.234v11.232H119.99v-57.556h35.253V212.2Z"/><path data-name="路径 15062" d="m202.383 258.518-11.725-17.627-10.329 17.627h-15.906l18.447-29.268-18.857-28.285h16.316l11.559 17.381 10.166-17.381h15.9l-18.282 29.022 19.02 28.531Z"/><path data-name="路径 15063" d="M270.1 228.635a16.885 16.885 0 0 1-7.05 6.682 24.831 24.831 0 0 1-11.806 2.541h-8.69v20.66h-14.02v-57.553h22.71a25.848 25.848 0 0 1 11.642 2.378 16.341 16.341 0 0 1 7.132 6.559 19.06 19.06 0 0 1 2.378 9.592 18.533 18.533 0 0 1-2.296 9.141Zm-13.937-3.812a8.2 8.2 0 0 0 0-10.658q-1.968-1.885-5.985-1.886h-7.624v14.429h7.624q4.022 0 5.986-1.885Z"/><path data-name="路径 15064" d="M296.5 247.7h18.365v10.822h-32.384v-57.557H296.5Z"/><path data-name="路径 15065" d="M336.712 255.321a28.18 28.18 0 0 1-10.74-10.535 30.995 30.995 0 0 1 0-30.375 28.281 28.281 0 0 1 10.74-10.494 31.236 31.236 0 0 1 29.76 0 27.693 27.693 0 0 1 10.658 10.494 31.42 31.42 0 0 1-.041 30.375 27.982 27.982 0 0 1-10.658 10.535 31.162 31.162 0 0 1-29.719 0Zm25.907-13.61q4.139-4.59 4.14-12.133 0-7.625-4.14-12.175a14.188 14.188 0 0 0-11.027-4.55q-6.969 0-11.109 4.509t-4.14 12.216q0 7.624 4.14 12.174t11.109 4.55a14.121 14.121 0 0 0 11.027-4.591Z"/><path data-name="路径 15066" d="m420.95 258.518-11.969-21.726h-3.362v21.726H391.6v-57.553h23.529a25.9 25.9 0 0 1 11.6 2.378 16.381 16.381 0 0 1 7.174 6.518 18.185 18.185 0 0 1 2.377 9.223 17.136 17.136 0 0 1-3.238 10.248 17.429 17.429 0 0 1-9.551 6.394l13.281 22.792Zm-15.331-31.646h8.691q3.852 0 5.779-1.886a7.116 7.116 0 0 0 1.927-5.328 6.9 6.9 0 0 0-1.927-5.166q-1.928-1.884-5.779-1.885h-8.691Z"/><path data-name="路径 15067" d="M461.859 212.2v11.642h18.775v10.822h-18.775v12.625h21.235v11.232h-35.253v-57.556h35.253V212.2Z"/><path data-name="路径 15068" d="M556.549 200.965V212.2H541.3v46.321h-14.02V212.2h-15.248v-11.235Z"/><path data-name="路径 15069" d="M616.233 200.965v57.553h-14.019v-23.693h-21.808v23.693h-14.019v-57.553h14.019v22.546h21.808v-22.546Z"/><path data-name="路径 15070" d="M643.122 212.2v11.642H661.9v10.822h-18.778v12.625h21.235v11.232H629.1v-57.556h35.253V212.2Z"/><path data-name="路径 15071" d="M705.921 257.042a18.426 18.426 0 0 1-7.994-6.067 16.56 16.56 0 0 1-3.156-9.674h14.922a7.224 7.224 0 0 0 2.213 4.878 7.112 7.112 0 0 0 4.919 1.681 7.693 7.693 0 0 0 4.919-1.435 4.8 4.8 0 0 0 1.8-3.976 4.711 4.711 0 0 0-1.435-3.525 11.605 11.605 0 0 0-3.525-2.3 57.262 57.262 0 0 0-5.945-2.049 64.675 64.675 0 0 1-9.1-3.444 16.8 16.8 0 0 1-6.067-5.083 14.157 14.157 0 0 1-2.541-8.772q0-8.034 5.821-12.584t15.167-4.551q9.51 0 15.331 4.551t6.231 12.666h-15.163a5.937 5.937 0 0 0-2.05-4.386 7.22 7.22 0 0 0-4.837-1.6 6.024 6.024 0 0 0-4.1 1.353 4.879 4.879 0 0 0-1.558 3.894 4.823 4.823 0 0 0 2.624 4.345 42.89 42.89 0 0 0 8.2 3.362 76.15 76.15 0 0 1 9.06 3.607 17.273 17.273 0 0 1 6.025 5 13.391 13.391 0 0 1 2.541 8.445 16.57 16.57 0 0 1-2.5 8.936 17.513 17.513 0 0 1-7.256 6.394 24.826 24.826 0 0 1-11.232 2.378 29.584 29.584 0 0 1-11.314-2.044Z"/><path data-name="路径 15072" d="M782.985 258.518 763.636 233.1v25.415h-14.018v-57.55h14.018v25.251l19.185-25.251H799.3l-22.3 28.2 23.12 29.35Z"/><path data-name="路径 15073" d="M858.9 200.965 838.98 239.5v19.02h-14.02V239.5l-19.922-38.533h15.9l11.15 24.1 11.068-24.1Z"/></g></g></g><g data-name="组 4538"><g data-name="组 4535" fill="url(#a)" transform="translate(-119.99 -152.203)"><path data-name="路径 15074" d="M132.332 287.3v2.367h-4.708v15.319h-2.9v-15.322h-4.734V287.3Z"/><path data-name="路径 15075" d="M159.841 288.569a1.858 1.858 0 0 1 1.324-3.181 1.764 1.764 0 0 1 1.3.535 1.9 1.9 0 0 1 0 2.646 1.763 1.763 0 0 1-1.3.534 1.794 1.794 0 0 1-1.324-.534Zm2.748 2.393v14.021h-2.9v-14.021Z"/><path data-name="路径 15076" d="M201.563 288.379a7.737 7.737 0 0 1 3.282 3.1A9.341 9.341 0 0 1 206 296.2a9.128 9.128 0 0 1-1.158 4.682 7.644 7.644 0 0 1-3.282 3.041 10.98 10.98 0 0 1-4.95 1.056h-5.777V287.3h5.777a10.763 10.763 0 0 1 4.953 1.079Zm-.191 12.558a6.458 6.458 0 0 0 1.654-4.733 6.677 6.677 0 0 0-1.654-4.81 6.274 6.274 0 0 0-4.759-1.73h-2.876v12.953h2.876a6.387 6.387 0 0 0 4.759-1.68Z"/><path data-name="路径 15077" d="M245.193 297.4a4.54 4.54 0 0 1 .293 5.256 4.749 4.749 0 0 1-2.023 1.7 7.164 7.164 0 0 1-3.08.623h-7.074V287.3h6.744a7.239 7.239 0 0 1 3.1.611 4.557 4.557 0 0 1 1.96 1.641 4.174 4.174 0 0 1 .661 2.3 3.945 3.945 0 0 1-.814 2.545 4.735 4.735 0 0 1-2.188 1.5 3.915 3.915 0 0 1 2.421 1.503Zm-8.983-2.672h3.59a3.451 3.451 0 0 0 2.227-.648 2.267 2.267 0 0 0 .8-1.87 2.311 2.311 0 0 0-.8-1.871 3.354 3.354 0 0 0-2.227-.674h-3.59Zm6.235 7.177a2.462 2.462 0 0 0 .84-1.985 2.573 2.573 0 0 0-.891-2.061 3.508 3.508 0 0 0-2.367-.764h-3.817v5.523h3.919a3.469 3.469 0 0 0 2.316-.718Z"/><path data-name="路径 15078" d="M318.941 287.3v17.686h-2.9v-7.736h-8.322v7.736h-2.9V287.3h2.9v7.584h8.322V287.3Z"/><path data-name="路径 15079" d="M357.851 301.37h-7.406l-1.272 3.613h-3.028l6.336-17.712h3.359l6.337 17.712h-3.054Zm-.815-2.37-2.875-8.22-2.9 8.22Z"/><path data-name="路径 15080" d="M389.6 291.445a8.617 8.617 0 0 1 3.283-3.22 9.653 9.653 0 0 1 9.568.23 7.894 7.894 0 0 1 3.194 3.931h-3.486a4.675 4.675 0 0 0-1.909-2.086 5.664 5.664 0 0 0-2.825-.687 6.179 6.179 0 0 0-3.129.788 5.481 5.481 0 0 0-2.151 2.266 7.991 7.991 0 0 0 0 6.87 5.573 5.573 0 0 0 2.151 2.278 6.1 6.1 0 0 0 3.129.8 5.664 5.664 0 0 0 2.825-.688 4.669 4.669 0 0 0 1.909-2.086h3.486a7.82 7.82 0 0 1-3.194 3.918 9.29 9.29 0 0 1-5.026 1.374 9.14 9.14 0 0 1-4.555-1.157 8.637 8.637 0 0 1-3.27-3.219 9.574 9.574 0 0 1 0-9.314Z"/><path data-name="路径 15081" d="m443.2 304.983-6.846-7.914v7.914h-2.9V287.3h2.9v8.067l6.872-8.067h3.639l-7.686 8.856 7.813 8.83Z"/><path data-name="路径 15082" d="M484.658 301.37h-7.406l-1.272 3.613h-3.028l6.336-17.712h3.36l6.336 17.712h-3.054Zm-.815-2.37-2.875-8.22-2.9 8.22Z"/><path data-name="路径 15083" d="M527.588 287.3v2.367h-4.708v15.319h-2.9v-15.322h-4.733V287.3Z"/><path data-name="路径 15084" d="M569.068 287.3v17.686h-2.9v-7.736h-8.322v7.736h-2.9V287.3h2.9v7.584h8.322V287.3Z"/><path data-name="路径 15085" d="M600.84 304a8.587 8.587 0 0 1-3.283-3.233 9.6 9.6 0 0 1 0-9.326 8.617 8.617 0 0 1 3.283-3.22 9.545 9.545 0 0 1 9.11 0 8.521 8.521 0 0 1 3.27 3.22 9.681 9.681 0 0 1 0 9.326 8.492 8.492 0 0 1-3.27 3.233 9.545 9.545 0 0 1-9.11 0Zm7.673-2.163a5.563 5.563 0 0 0 2.15-2.291 7.362 7.362 0 0 0 .776-3.449 7.278 7.278 0 0 0-.776-3.434 5.491 5.491 0 0 0-2.15-2.266 6.612 6.612 0 0 0-6.261 0 5.485 5.485 0 0 0-2.15 2.266 7.265 7.265 0 0 0-.776 3.434 7.35 7.35 0 0 0 .776 3.449 5.557 5.557 0 0 0 2.15 2.291 6.518 6.518 0 0 0 6.261 0Z"/><path data-name="路径 15086" d="M656.228 304.983h-2.9l-8.728-13.207v13.207h-2.9v-17.712h2.9l8.729 13.183v-13.183h2.9Z"/><path data-name="路径 15087" d="M716.742 301.039q2.443-2.112 3.856-3.474a15.594 15.594 0 0 0 2.354-2.838 5.452 5.452 0 0 0 .941-2.951 3.616 3.616 0 0 0-.725-2.392 2.807 2.807 0 0 0-2.277-.866 2.919 2.919 0 0 0-2.329.954 3.973 3.973 0 0 0-.878 2.558h-2.8a6.232 6.232 0 0 1 10.319-4.453 5.428 5.428 0 0 1 1.565 4.071 7.231 7.231 0 0 1-.929 3.525 14.222 14.222 0 0 1-2.214 3.028q-1.285 1.337-3.27 3.092l-1.145 1.018h8.067v2.417H714.91v-2.111Z"/><path data-name="路径 15088" d="M755.741 288.582q1.489-2.482 5.128-2.482t5.131 2.482a13.406 13.406 0 0 1 1.488 6.884 13.672 13.672 0 0 1-1.488 6.96q-1.489 2.505-5.128 2.506t-5.128-2.506a13.671 13.671 0 0 1-1.489-6.96 13.4 13.4 0 0 1 1.486-6.884Zm8.627 3.4a4.686 4.686 0 0 0-1.081-2.328 3.689 3.689 0 0 0-4.836 0 4.678 4.678 0 0 0-1.081 2.328 19.32 19.32 0 0 0-.267 3.487 21.306 21.306 0 0 0 .254 3.587 4.48 4.48 0 0 0 1.082 2.342 3.759 3.759 0 0 0 4.86 0 4.5 4.5 0 0 0 1.082-2.342 21.3 21.3 0 0 0 .254-3.587 19.314 19.314 0 0 0-.267-3.49Z"/><path data-name="路径 15089" d="M796.6 301.039q2.443-2.112 3.855-3.474a15.589 15.589 0 0 0 2.354-2.838 5.445 5.445 0 0 0 .942-2.951 3.61 3.61 0 0 0-.726-2.392 2.805 2.805 0 0 0-2.277-.866 2.918 2.918 0 0 0-2.328.954 3.968 3.968 0 0 0-.878 2.558h-2.8a6.232 6.232 0 0 1 10.32-4.453 5.428 5.428 0 0 1 1.565 4.071 7.232 7.232 0 0 1-.93 3.525 14.188 14.188 0 0 1-2.214 3.028q-1.284 1.337-3.27 3.092l-1.145 1.018h8.067v2.417h-12.369v-2.111Z"/><path data-name="路径 15090" d="M833.726 289.078v-2.647h5.294v18.552h-2.927v-15.9Z"/></g></g></g></svg>