<svg xmlns="http://www.w3.org/2000/svg" xmlns:xlink="http://www.w3.org/1999/xlink" viewBox="0 0 1407.868 300.358"><defs><linearGradient id="a" x1=".5" y1="-.121" x2=".5" y2=".902" gradientUnits="objectBoundingBox"><stop offset="0" stop-color="#fff"/><stop offset="1" stop-color="gray"/></linearGradient><linearGradient id="b" x1=".5" y1="-.027" x2=".5" y2=".91" xlink:href="#a"/><linearGradient id="c" x1=".5" y1=".02" x2=".5" y2=".831" xlink:href="#a"/><linearGradient id="d" x1=".5" y1=".069" x2=".5" y2=".843" xlink:href="#a"/><linearGradient id="e" x1=".5" y1="-.002" x2=".5" y2=".831" xlink:href="#a"/><linearGradient id="f" x1=".5" y1=".068" x2=".5" y2=".844" xlink:href="#a"/><linearGradient id="g" x1=".5" y1=".061" x2=".5" y2=".842" xlink:href="#a"/><linearGradient id="h" x1=".5" y1=".099" x2=".5" y2=".812" xlink:href="#a"/><linearGradient id="i" x1=".5" y1="-.063" x2=".5" y2=".917" xlink:href="#a"/><linearGradient id="j" x1=".5" y1="-.065" x2=".5" y2=".907" xlink:href="#a"/><linearGradient id="k" x1=".5" y1="-.081" x2=".5" y2=".906" xlink:href="#a"/><linearGradient id="l" x1=".5" y1="-5.351" x2=".5" y2=".402" xlink:href="#a"/><linearGradient id="m" x1=".5" y1="-.081" x2=".5" y2=".906" xlink:href="#a"/><linearGradient id="n" x1=".5" y1="-.063" x2=".5" y2=".883" xlink:href="#a"/><linearGradient id="o" x1=".5" y1="-4.89" x2=".5" y2="4.375" xlink:href="#a"/><linearGradient id="p" x1=".5" y1="-5.351" x2=".5" y2=".402" xlink:href="#a"/><linearGradient id="q" x1=".5" y1="-.081" x2=".5" y2=".906" xlink:href="#a"/><linearGradient id="r" x1=".5" y1="-5.351" x2=".5" y2=".402" xlink:href="#a"/><linearGradient id="s" x1=".5" y1="-.06" x2=".5" y2=".906" xlink:href="#a"/><linearGradient id="t" x1=".5" y1="-.041" x2=".5" y2=".919" xlink:href="#a"/><linearGradient id="u" x1=".5" y1="-.026" x2=".5" y2=".911" xlink:href="#a"/><linearGradient id="v" x1=".5" y1="-.006" x2=".5" y2=".819" xlink:href="#a"/><linearGradient id="w" x1=".5" y1=".092" x2=".5" y2=".836" xlink:href="#a"/><linearGradient id="x" x1=".5" y1="-.005" x2=".5" y2=".819" xlink:href="#a"/><linearGradient id="y" x1=".5" y1=".007" x2=".5" y2=".814" xlink:href="#a"/><linearGradient id="z" x1=".5" y1=".007" x2=".5" y2=".813" xlink:href="#a"/><linearGradient id="A" x1=".5" y1=".061" x2=".5" y2=".842" xlink:href="#a"/><linearGradient id="B" x1=".5" y1=".058" x2=".5" y2=".832" xlink:href="#a"/><linearGradient id="C" x1=".5" y1=".041" x2=".5" y2=".827" xlink:href="#a"/></defs><g data-name="组 7663"><g data-name="组 7640"><path data-name="路径 19003" d="M142.018 153.006v3.382h-8.688v28.488h-4.163v-28.488h-8.732v-3.382Z" transform="translate(-119.588 -144.632)" fill="url(#a)"/><path data-name="路径 19004" d="M143.336 156.316a2.835 2.835 0 0 1 2.012-4.847 2.609 2.609 0 0 1 1.943.823 2.929 2.929 0 0 1 0 4.024 2.609 2.609 0 0 1-1.943.823 2.737 2.737 0 0 1-2.012-.823Zm4.026 4.893v25.059H143.2v-25.059Z" transform="translate(-99.599 -146.024)" fill="url(#b)"/><path data-name="路径 19005" d="M176.155 154.948a13.67 13.67 0 0 1 5.853 5.556 18.745 18.745 0 0 1 0 16.988 13.421 13.421 0 0 1-5.853 5.487 20.076 20.076 0 0 1-9.031 1.9H157.2v-31.87h9.923a19.678 19.678 0 0 1 9.032 1.939Zm.389 23.232q3.247-3.272 3.247-9.17 0-5.945-3.27-9.283t-9.4-3.338h-5.762v25.059h5.762q6.179-.001 9.423-3.269Z" transform="translate(-86.302 -144.632)" fill="url(#a)"/><path data-name="路径 19006" d="M201.73 169.878a8.331 8.331 0 0 1 2.284 2.835 8.241 8.241 0 0 1-.387 7.98 8.368 8.368 0 0 1-3.592 3.064 12.788 12.788 0 0 1-5.556 1.12h-11.886v-31.87h11.432a12.946 12.946 0 0 1 5.533 1.073 7.849 7.849 0 0 1 3.428 2.9 7.6 7.6 0 0 1 1.143 4.116 7.122 7.122 0 0 1-1.53 4.689 8.6 8.6 0 0 1-4.047 2.673 6.772 6.772 0 0 1 3.178 1.42Zm-14.976-3.109h7a6.767 6.767 0 0 0 4.527-1.37 5.307 5.307 0 0 0 0-7.593 6.913 6.913 0 0 0-4.62-1.372h-6.9Zm12.207 13.215a5.033 5.033 0 0 0 1.74-4.07 5.176 5.176 0 0 0-1.829-4.184 7.389 7.389 0 0 0-4.893-1.532h-7.225v11.249h7.362a7.3 7.3 0 0 0 4.846-1.463Z" transform="translate(-63.314 -144.632)" fill="url(#a)"/><path data-name="路径 19007" d="M259.477 179.87H219.1v-3.018h18.428v-4.117h-14.681v-2.789h14.679V166.2h-13.9v-15.645h31.143V166.2h-13.9v3.75h14.77v2.789h-14.77v4.117h18.611Zm-40.334 9.42a20.343 20.343 0 0 0 5.076-7.591l3.247.777a23.911 23.911 0 0 1-5.166 8.324Zm18.383-25.975v-9.877h-10.655v9.877Zm-5.853-8.734a23.853 23.853 0 0 1 2.972 6.676l-2.378.915a27.431 27.431 0 0 0-2.835-6.813Zm3.475 28.033a34.934 34.934 0 0 1 1.008 7.271l-3.34.457a43.507 43.507 0 0 0-.823-7.5Zm16.235-29.176h-10.518v9.877h10.517Zm-6.859 28.856a42.412 42.412 0 0 1 2.606 7.227l-3.338.821a53.273 53.273 0 0 0-2.424-7.408Zm-1.6-20.534a47.857 47.857 0 0 0 3.521-7.227l2.652 1.008c-1.28 2.469-2.789 5.3-3.978 7.134Zm10.745 19.94a43.348 43.348 0 0 1 6.038 7.682l-3.292 1.28a46.278 46.278 0 0 0-5.809-7.911Z" transform="translate(-30.266 -146.851)" fill="url(#c)"/><path data-name="路径 19008" d="M284.608 162.577a31.418 31.418 0 0 1-9.1 8.736 60.086 60.086 0 0 0 17.7 4.845 15.248 15.248 0 0 0-2.149 3.2 48.883 48.883 0 0 1-6.356-1.282v13.446h-3.43v-1.463h-18.067v1.509h-3.292v-13.261c-2.424.734-4.847 1.28-7.225 1.785a12.671 12.671 0 0 0-1.648-2.974 68.062 68.062 0 0 0 17.975-5.716 33.517 33.517 0 0 1-5.992-5.257 41.484 41.484 0 0 1-7.134 4.436 10.455 10.455 0 0 0-2.286-2.426c6.265-2.789 10.7-6.768 12.987-10.245l3.66.642c-.64.915-1.374 1.783-2.105 2.7h13.583l.594-.137Zm-28.353-.046h-3.34v-8.6h18.2c-.642-1.189-1.374-2.559-2.06-3.656l3.294-.825a45.079 45.079 0 0 1 2.652 4.481h16.281v8.6h-3.432v-5.442h-31.6Zm26.707 15.092a55.729 55.729 0 0 1-10.794-4.344 59.6 59.6 0 0 1-10.2 4.344Zm-1.692 9.511V180.5h-18.064v6.631Zm-15.869-23a28.786 28.786 0 0 0 6.813 5.533 31.823 31.823 0 0 0 7.181-5.716h-13.812Z" transform="translate(-1.347 -147.851)" fill="url(#d)"/><path data-name="路径 19009" d="M313.626 180.692h-29.633v-3.247h29.633Zm9.42-11.981s-.046 1.1-.137 1.6c-1.052 11.891-2.058 16.6-3.841 18.339a4.785 4.785 0 0 1-3.658 1.463 64.751 64.751 0 0 1-7.181-.091 7.929 7.929 0 0 0-1.05-3.291c2.927.272 5.853.32 7 .32a2.865 2.865 0 0 0 2.012-.5c1.326-1.189 2.286-5.213 3.2-14.679h-29.179c.549-3.66 1.143-9.6 1.463-14.04l3.338.229a398.638 398.638 0 0 1-1.052 10.656h17.744c.594-4.62 1.189-10.2 1.6-14.223h-25.84V151.2H313.9l.549-.183 2.469.276c-.366 4.8-1.1 11.752-1.829 17.424Z" transform="translate(28.486 -146.438)" fill="url(#e)"/><path data-name="路径 19010" d="M330.827 173.029c-1.783.549-3.521 1.1-5.259 1.6v13.034c0 1.877-.411 2.7-1.555 3.247-1.1.551-2.789.64-5.579.594a14.081 14.081 0 0 0-1.006-3.062c1.829.044 3.567.044 4.024 0 .594 0 .823-.185.823-.825v-12.03l-5.261 1.557-.958-3.294c1.738-.412 3.887-1.006 6.219-1.646v-10.015h-5.625v-3.155h5.625v-9.191h3.292v9.191h4.8v3.155h-4.8v9.146l4.847-1.418Zm27.118 13.4v3.247h-27.8v-3.247H345.6a177.351 177.351 0 0 0 4.3-22.637l3.612.64c-1.235 7.042-3.064 15.961-4.756 22Zm-1.189-25.152h-24.464v-3.2h24.464Zm-18.245 23.049a174.031 174.031 0 0 0-3.111-19.482l2.972-.64a172.184 172.184 0 0 1 3.431 19.16Zm4.39-26.755a51.167 51.167 0 0 0-2.195-7.271l3.2-.823a59.89 59.89 0 0 1 2.286 7.09Z" transform="translate(57.515 -147.829)" fill="url(#f)"/><path data-name="路径 19011" d="M362.988 176.123c-.732-1.694-2.378-4.712-3.841-7.227v22.5h-3.338v-21.4a51.391 51.391 0 0 1-5.716 13.034 19.592 19.592 0 0 0-1.877-3.292c2.974-3.752 5.853-10.977 7.227-17.241H348.9v-3.2h6.9v-9.65h3.338v9.65h5.67v3.2h-5.67v1.829c1.555 2.058 5.35 7.637 6.173 9.01Zm11.937-24.331c-1.646 7.273-4.436 14.086-7.913 18.522a25.862 25.862 0 0 0-2.972-2.012c3.475-4.024 6.036-10.426 7.41-17.1Zm8.048 23.735a85.072 85.072 0 0 1 6.356 13.492l-3.11 1.463a32.35 32.35 0 0 0-1.235-3.43c-15.229 2.012-17.241 2.334-18.522 2.974h-.046v-.185c-.274-.777-.823-2.332-1.235-3.247 1.006-.274 1.875-1.783 2.974-4.024a97.856 97.856 0 0 0 6.813-18.293l3.521 1.326a118.455 118.455 0 0 1-8.1 20.076l13.4-1.6c-1.143-2.515-2.378-5.121-3.613-7.364Zm-.5-24.832c1.829 7.042 4.253 12.211 7.728 16.738a11.173 11.173 0 0 0-2.7 2.789c-3.841-5.259-6.219-11.02-8.231-18.794Z" transform="translate(86.629 -147.677)" fill="url(#g)"/><path data-name="路径 19012" d="M407.017 148.611v45.732H405.1v-45.732Z" transform="translate(138.126 -148.611)" fill="url(#h)"/><path data-name="路径 19013" d="M450.148 174.727a36.917 36.917 0 0 0 5.556-6.263 11.294 11.294 0 0 0 2.263-6.427 7.053 7.053 0 0 0-1.44-4.685q-1.44-1.718-4.641-1.717a6.1 6.1 0 0 0-4.824 1.943 8.108 8.108 0 0 0-1.852 5.19h-4.024q.183-5.122 3.109-7.911a11.807 11.807 0 0 1 15.022-.183 9.387 9.387 0 0 1 2.766 7.179 13.677 13.677 0 0 1-2.263 7.385 32.318 32.318 0 0 1-5.144 6.31q-2.881 2.721-7.362 6.335h15.73v3.473h-22v-2.972q5.811-4.662 9.104-7.657Z" transform="translate(170.672 -145.48)" fill="url(#i)"/><path data-name="路径 19014" d="M466.1 156.53q2.561-4.413 8.963-4.413 6.356 0 8.917 4.413t2.561 12.278q0 8-2.561 12.438t-8.917 4.436q-6.4 0-8.963-4.436t-2.561-12.438q-.003-7.863 2.561-12.278Zm15.8 5.533a8.587 8.587 0 0 0-2.149-4.459 6.2 6.2 0 0 0-4.687-1.692 6.258 6.258 0 0 0-4.733 1.692 8.587 8.587 0 0 0-2.149 4.459 36.8 36.8 0 0 0-.526 6.745 38.11 38.11 0 0 0 .526 6.9 8.6 8.6 0 0 0 2.149 4.481 6.257 6.257 0 0 0 4.733 1.692 6.194 6.194 0 0 0 4.687-1.692 8.6 8.6 0 0 0 2.149-4.481 38.116 38.116 0 0 0 .526-6.9 36.811 36.811 0 0 0-.526-6.745Z" transform="translate(191.031 -145.437)" fill="url(#j)"/><path data-name="路径 19015" d="M495.868 174.727a36.912 36.912 0 0 0 5.556-6.263 11.294 11.294 0 0 0 2.263-6.427 7.053 7.053 0 0 0-1.44-4.685q-1.44-1.718-4.641-1.717a6.1 6.1 0 0 0-4.824 1.943 8.107 8.107 0 0 0-1.852 5.19h-4.024q.183-5.122 3.11-7.911a11.807 11.807 0 0 1 15.022-.183 9.387 9.387 0 0 1 2.767 7.179 13.677 13.677 0 0 1-2.263 7.385 32.32 32.32 0 0 1-5.144 6.31q-2.881 2.721-7.362 6.335h15.73v3.473h-22v-2.972q5.809-4.662 9.102-7.657Z" transform="translate(212.064 -145.48)" fill="url(#i)"/><path data-name="路径 19016" d="M508.68 156.176v-3.794h8.6v33.059h-4.21v-29.265Z" transform="translate(231.901 -145.197)" fill="url(#k)"/><path data-name="路径 19017" d="M525.751 171.748a2.835 2.835 0 0 1 2.012-4.847 2.609 2.609 0 0 1 1.943.823 2.929 2.929 0 0 1 0 4.024 2.609 2.609 0 0 1-1.943.823 2.737 2.737 0 0 1-2.012-.823Z" transform="translate(246.611 -132.053)" fill="url(#l)"/><path data-name="路径 19018" d="M538.247 156.176v-3.794h8.6v33.059h-4.207v-29.265Z" transform="translate(258.669 -145.197)" fill="url(#m)"/><path data-name="路径 19019" d="M563.763 174.727a36.916 36.916 0 0 0 5.556-6.263 11.294 11.294 0 0 0 2.264-6.427 7.063 7.063 0 0 0-1.438-4.685q-1.44-1.718-4.643-1.717a6.1 6.1 0 0 0-4.824 1.943 8.1 8.1 0 0 0-1.85 5.19H554.8q.183-5.122 3.111-7.911a11.8 11.8 0 0 1 15.02-.183 9.388 9.388 0 0 1 2.768 7.179 13.677 13.677 0 0 1-2.264 7.385 32.326 32.326 0 0 1-5.146 6.31q-2.878 2.721-7.36 6.335h15.728v3.473h-21.994v-2.972q5.807-4.662 9.1-7.657Z" transform="translate(273.531 -145.48)" fill="url(#i)"/><path data-name="路径 19020" d="M577.542 171.748a2.835 2.835 0 0 1 2.012-4.847 2.609 2.609 0 0 1 1.943.823 2.93 2.93 0 0 1 0 4.024 2.609 2.609 0 0 1-1.943.823 2.737 2.737 0 0 1-2.012-.823Z" transform="translate(293.499 -132.053)" fill="url(#l)"/><path data-name="路径 19021" d="M592.762 165.563a7.824 7.824 0 0 1-1.372-4.666 8.285 8.285 0 0 1 1.234-4.458 8.48 8.48 0 0 1 3.681-3.155 15.619 15.619 0 0 1 11.844 0 8.632 8.632 0 0 1 3.7 3.155 8.168 8.168 0 0 1 1.258 4.458 7.786 7.786 0 0 1-1.417 4.641 8.358 8.358 0 0 1-3.887 2.949 8.755 8.755 0 0 1 4.5 3.041 8.339 8.339 0 0 1 1.669 5.236 9.2 9.2 0 0 1-1.463 5.19 9.519 9.519 0 0 1-4.138 3.43 14.763 14.763 0 0 1-6.15 1.214 14.448 14.448 0 0 1-6.1-1.214 9.551 9.551 0 0 1-4.093-3.43 9.2 9.2 0 0 1-1.463-5.19 8.514 8.514 0 0 1 1.646-5.259 8.313 8.313 0 0 1 4.481-3.018 8.5 8.5 0 0 1-3.93-2.924Zm3.933 6.331a5.493 5.493 0 0 0-2.149 4.733 5.89 5.89 0 0 0 2.081 4.71 8.317 8.317 0 0 0 5.6 1.783 8.227 8.227 0 0 0 5.579-1.783 5.925 5.925 0 0 0 2.058-4.71 5.567 5.567 0 0 0-2.1-4.687 8.822 8.822 0 0 0-5.533-1.623 9.116 9.116 0 0 0-5.536 1.577Zm10.563-14.794a9.062 9.062 0 0 0-10.014 0 5.31 5.31 0 0 0-1.829 4.344 5.059 5.059 0 0 0 1.9 4.117 8.574 8.574 0 0 0 9.877-.025 5.121 5.121 0 0 0 1.9-4.138 5.257 5.257 0 0 0-1.834-4.298Z" transform="translate(306.036 -145.437)" fill="url(#n)"/><path data-name="路径 19022" d="M647.164 160.013v3.521h-18.245v-3.521Z" transform="translate(340.757 -138.288)" fill="url(#o)"/><path data-name="路径 19023" d="M674.331 174.727a36.911 36.911 0 0 0 5.556-6.263 11.293 11.293 0 0 0 2.264-6.427 7.053 7.053 0 0 0-1.44-4.685q-1.44-1.718-4.641-1.717a6.093 6.093 0 0 0-4.824 1.943 8.106 8.106 0 0 0-1.852 5.19h-4.024q.183-5.122 3.109-7.911a11.807 11.807 0 0 1 15.022-.183 9.387 9.387 0 0 1 2.766 7.179A13.678 13.678 0 0 1 684 169.24a32.319 32.319 0 0 1-5.144 6.31q-2.881 2.721-7.362 6.335h15.73v3.473h-22v-2.972q5.814-4.664 9.107-7.659Z" transform="translate(373.631 -145.48)" fill="url(#i)"/><path data-name="路径 19024" d="M690.28 156.53q2.561-4.413 8.963-4.413 6.357 0 8.917 4.413t2.561 12.278q0 8-2.561 12.438t-8.917 4.436q-6.4 0-8.963-4.436t-2.561-12.438q0-7.863 2.561-12.278Zm15.8 5.533a8.585 8.585 0 0 0-2.149-4.459 6.194 6.194 0 0 0-4.687-1.692 6.258 6.258 0 0 0-4.733 1.692 8.586 8.586 0 0 0-2.149 4.459 36.8 36.8 0 0 0-.526 6.745 38.11 38.11 0 0 0 .526 6.9 8.6 8.6 0 0 0 2.149 4.481 6.258 6.258 0 0 0 4.733 1.692 6.193 6.193 0 0 0 4.687-1.692 8.6 8.6 0 0 0 2.149-4.481 38.3 38.3 0 0 0 .526-6.9 36.99 36.99 0 0 0-.527-6.745Z" transform="translate(393.99 -145.437)" fill="url(#j)"/><path data-name="路径 19025" d="M720.049 174.727a36.828 36.828 0 0 0 5.556-6.263 11.3 11.3 0 0 0 2.263-6.427 7.053 7.053 0 0 0-1.438-4.685q-1.44-1.718-4.641-1.717a6.1 6.1 0 0 0-4.826 1.943 8.106 8.106 0 0 0-1.85 5.19h-4.026q.183-5.122 3.112-7.911a11.8 11.8 0 0 1 15.02-.183 9.389 9.389 0 0 1 2.769 7.179 13.677 13.677 0 0 1-2.264 7.385 32.331 32.331 0 0 1-5.146 6.31q-2.878 2.721-7.36 6.335h15.73v3.473h-22v-2.972q5.808-4.662 9.101-7.657Z" transform="translate(415.022 -145.48)" fill="url(#i)"/><path data-name="路径 19026" d="M742.274 174.727a36.918 36.918 0 0 0 5.556-6.263 11.294 11.294 0 0 0 2.264-6.427 7.053 7.053 0 0 0-1.441-4.685q-1.44-1.718-4.641-1.717a6.1 6.1 0 0 0-4.824 1.943 8.108 8.108 0 0 0-1.852 5.19h-4.024q.183-5.122 3.109-7.911a11.807 11.807 0 0 1 15.022-.183 9.387 9.387 0 0 1 2.766 7.179 13.678 13.678 0 0 1-2.263 7.385 32.327 32.327 0 0 1-5.144 6.31q-2.881 2.721-7.362 6.335h15.73v3.473h-21.996v-2.972q5.807-4.662 9.1-7.657Z" transform="translate(435.141 -145.48)" fill="url(#i)"/><path data-name="路径 19027" d="M756.053 171.748a2.835 2.835 0 0 1 2.012-4.847 2.609 2.609 0 0 1 1.943.823 2.929 2.929 0 0 1 0 4.024 2.609 2.609 0 0 1-1.943.823 2.736 2.736 0 0 1-2.012-.823Z" transform="translate(455.109 -132.053)" fill="url(#p)"/><path data-name="路径 19028" d="M771.687 156.53q2.561-4.413 8.963-4.413 6.356 0 8.917 4.413t2.561 12.278q0 8-2.561 12.438t-8.917 4.436q-6.4 0-8.963-4.436t-2.561-12.438q0-7.863 2.561-12.278Zm15.8 5.533a8.585 8.585 0 0 0-2.149-4.459 6.194 6.194 0 0 0-4.687-1.692 6.257 6.257 0 0 0-4.733 1.692 8.586 8.586 0 0 0-2.149 4.459 36.805 36.805 0 0 0-.526 6.745 38.111 38.111 0 0 0 .526 6.9 8.6 8.6 0 0 0 2.149 4.481 6.257 6.257 0 0 0 4.733 1.692 6.193 6.193 0 0 0 4.687-1.692 8.6 8.6 0 0 0 2.149-4.481 38.11 38.11 0 0 0 .526-6.9 36.8 36.8 0 0 0-.527-6.745Z" transform="translate(467.69 -145.437)" fill="url(#j)"/><path data-name="路径 19029" d="M792.046 156.176v-3.794h8.6v33.059h-4.207v-29.265Z" transform="translate(488.44 -145.197)" fill="url(#q)"/><path data-name="路径 19030" d="M809.117 171.748a2.835 2.835 0 0 1 2.012-4.847 2.612 2.612 0 0 1 1.943.823 2.929 2.929 0 0 1 0 4.024 2.612 2.612 0 0 1-1.943.823 2.737 2.737 0 0 1-2.012-.823Z" transform="translate(503.149 -132.053)" fill="url(#r)"/><path data-name="路径 19031" d="M824.751 156.53q2.561-4.413 8.963-4.413 6.353 0 8.915 4.413t2.563 12.278q0 8-2.563 12.438t-8.915 4.436q-6.4 0-8.963-4.436t-2.562-12.438q0-7.863 2.562-12.278Zm15.8 5.533a8.584 8.584 0 0 0-2.151-4.463 7.4 7.4 0 0 0-9.422 0 8.585 8.585 0 0 0-2.149 4.459 36.8 36.8 0 0 0-.524 6.745 38.106 38.106 0 0 0 .524 6.9 8.6 8.6 0 0 0 2.149 4.481 7.4 7.4 0 0 0 9.422 0 8.594 8.594 0 0 0 2.149-4.481 38.3 38.3 0 0 0 .524-6.9 36.984 36.984 0 0 0-.523-6.741Z" transform="translate(515.729 -145.437)" fill="url(#j)"/><path data-name="路径 19032" d="M852.923 180.9a6.73 6.73 0 0 0 4.5 1.418 6.088 6.088 0 0 0 5.6-2.972q1.806-2.969 1.715-10.014a6.9 6.9 0 0 1-3.2 3.224 10.612 10.612 0 0 1-4.984 1.168 11.6 11.6 0 0 1-5.464-1.259 9.137 9.137 0 0 1-3.772-3.681 11.7 11.7 0 0 1-1.372-5.851 11.009 11.009 0 0 1 2.835-7.89q2.835-3 8.048-3 6.4 0 8.985 4.161T868.4 168.6a36.714 36.714 0 0 1-1.029 9.511 10.691 10.691 0 0 1-3.475 5.716 10.406 10.406 0 0 1-6.7 1.968 10.04 10.04 0 0 1-7.271-2.517 9.867 9.867 0 0 1-2.972-6.4h3.847a6.553 6.553 0 0 0 2.123 4.022Zm9.351-12.6a6.813 6.813 0 0 0 1.966-5.144 7.889 7.889 0 0 0-1.921-5.533 6.937 6.937 0 0 0-5.4-2.1 6.67 6.67 0 0 0-5.1 2.014 7.41 7.41 0 0 0-1.9 5.3 7.53 7.53 0 0 0 1.875 5.35 7.075 7.075 0 0 0 5.442 2.012 6.945 6.945 0 0 0 5.038-1.899Z" transform="translate(537.239 -145.502)" fill="url(#s)"/></g><g data-name="组 7641"><path data-name="路径 19033" d="M146.7 223.47v22.182h35.771v20.619H146.7v24.057h40.458v21.4H119.99V202.069h67.168v21.4Z" transform="translate(-119.99 -100.215)" fill="url(#t)"/><path data-name="路径 19034" d="m237.12 311.728-22.34-33.585-19.68 33.585h-30.306l35.148-55.767-35.929-53.892H195.1l22.024 33.116 19.37-33.116h30.3l-34.833 55.3 36.239 54.359Z" transform="translate(-80.135 -100.215)" fill="url(#t)"/><path data-name="路径 19035" d="M307.732 254.789a32.149 32.149 0 0 1-13.432 12.732q-9.063 4.844-22.494 4.841h-16.558v39.366h-26.713V202.069H271.8q13.121 0 22.182 4.531a31.147 31.147 0 0 1 13.589 12.5 36.32 36.32 0 0 1 4.531 18.276 35.313 35.313 0 0 1-4.37 17.413Zm-26.555-7.263q3.75-3.592 3.75-10.153t-3.75-10.154q-3.75-3.592-11.4-3.593h-14.529v27.494h14.526q7.653 0 11.403-3.594Z" transform="translate(-21.721 -100.215)" fill="url(#t)"/><path data-name="路径 19036" d="M309.19 291.109h34.991v20.619h-61.7V202.069h26.709Z" transform="translate(27.117 -100.215)" fill="url(#t)"/><path data-name="路径 19037" d="M350.035 306.376a53.692 53.692 0 0 1-20.463-20.076 59.055 59.055 0 0 1 0-57.874 53.9 53.9 0 0 1 20.463-19.995 59.528 59.528 0 0 1 56.7 0 52.778 52.778 0 0 1 20.307 19.995 59.865 59.865 0 0 1-.078 57.874 53.315 53.315 0 0 1-20.307 20.073 59.373 59.373 0 0 1-56.624 0Zm49.361-25.93q7.885-8.748 7.888-23.119 0-14.527-7.888-23.2t-21.01-8.669q-13.278 0-21.166 8.591t-7.888 23.275q0 14.527 7.888 23.2t21.166 8.669q13.121.001 21.014-8.746Z" transform="translate(62.891 -100.956)" fill="url(#u)"/><path data-name="路径 19038" d="m447.521 311.728-22.8-41.4h-6.406v41.4H391.6V202.069h44.83q12.964 0 22.1 4.531a31.234 31.234 0 0 1 13.67 12.419 34.654 34.654 0 0 1 4.529 17.573 32.641 32.641 0 0 1-6.169 19.526q-6.173 8.594-18.2 12.185l25.3 43.426Zm-29.211-60.3h16.56q7.339 0 11.011-3.593t3.672-10.154q0-6.248-3.672-9.841t-11.011-3.593h-16.559Z" transform="translate(125.906 -100.215)" fill="url(#t)"/><path data-name="路径 19039" d="M474.55 223.47v22.182h35.772v20.619H474.55v24.057h40.46v21.4h-67.169V202.069h67.168v21.4Z" transform="translate(176.822 -100.215)" fill="url(#t)"/><path data-name="路径 19040" d="M596.852 202.069v21.4H567.8v88.259h-26.714V223.47h-29.054v-21.4Z" transform="translate(234.936 -100.215)" fill="url(#t)"/><path data-name="路径 19041" d="M661.36 202.069v109.659h-26.711v-45.145H593.1v45.145h-26.713V202.069H593.1v42.957h41.551v-42.957Z" transform="translate(284.145 -100.215)" fill="url(#t)"/><path data-name="路径 19042" d="M655.813 223.47v22.182h35.772v20.619h-35.772v24.057h40.459v21.4H629.1V202.069h67.168v21.4Z" transform="translate(340.924 -100.215)" fill="url(#t)"/><path data-name="路径 19043" d="M716.015 309.657a35.122 35.122 0 0 1-15.231-11.56 31.558 31.558 0 0 1-6.013-18.432H723.2q.62 6.093 4.216 9.294a13.55 13.55 0 0 0 9.372 3.2q5.933 0 9.372-2.734a9.149 9.149 0 0 0 3.437-7.576 8.977 8.977 0 0 0-2.734-6.718 22.107 22.107 0 0 0-6.716-4.373 108.573 108.573 0 0 0-11.327-3.906 123.257 123.257 0 0 1-17.339-6.56 32.025 32.025 0 0 1-11.56-9.685q-4.844-6.4-4.841-16.715 0-15.307 11.091-23.977t28.9-8.669q18.12 0 29.211 8.669t11.872 24.133h-28.9a11.312 11.312 0 0 0-3.906-8.357 13.756 13.756 0 0 0-9.216-3.045 11.487 11.487 0 0 0-7.81 2.576q-2.969 2.578-2.968 7.421 0 5.31 5 8.279t15.62 6.4a145.048 145.048 0 0 1 17.262 6.874 32.87 32.87 0 0 1 11.48 9.529q4.841 6.248 4.841 16.089a31.566 31.566 0 0 1-4.763 17.026 33.371 33.371 0 0 1-13.825 12.185q-9.06 4.533-21.4 4.529a56.367 56.367 0 0 1-21.554-3.897Z" transform="translate(400.374 -100.956)" fill="url(#u)"/><path data-name="路径 19044" d="M813.193 311.728 776.327 263.3v48.426h-26.709V202.069h26.709v48.113l36.554-48.113h31.4L801.79 255.8l44.051 55.923Z" transform="translate(450.029 -100.215)" fill="url(#t)"/><path data-name="路径 19045" d="m907.666 202.069-37.958 73.418v36.241H843v-36.241l-37.958-73.418h30.3l21.245 45.926 21.088-45.926Z" transform="translate(500.202 -100.215)" fill="url(#t)"/></g><g data-name="组 7642"><path data-name="路径 19046" d="M143.5 288.388v4.51h-8.968v29.188h-5.529V292.9h-9.013v-4.51Z" transform="translate(-119.99 -22.068)" fill="url(#v)"/><path data-name="路径 19047" d="M160.322 292.541a3.539 3.539 0 0 1 2.521-6.061 3.367 3.367 0 0 1 2.473 1.018 3.634 3.634 0 0 1 0 5.043 3.368 3.368 0 0 1-2.473 1.017 3.423 3.423 0 0 1-2.521-1.017Zm5.236 4.558v26.715h-5.527V297.1Z" transform="translate(-84.397 -23.795)" fill="url(#w)"/><path data-name="路径 19048" d="M211.268 290.45a14.75 14.75 0 0 1 6.255 5.916 17.784 17.784 0 0 1 2.206 8.993 17.393 17.393 0 0 1-2.206 8.921 14.569 14.569 0 0 1-6.255 5.794 20.932 20.932 0 0 1-9.429 2.012h-11.006v-33.7h11.005a20.518 20.518 0 0 1 9.43 2.064Zm-.364 23.927q3.152-3.2 3.151-9.018 0-5.867-3.151-9.163t-9.066-3.3h-5.48v24.68h5.48q5.913.002 9.062-3.199Z" transform="translate(-55.854 -22.068)" fill="url(#v)"/><path data-name="路径 19049" d="M255.946 307.636a8.655 8.655 0 0 1 .556 10.014 9.047 9.047 0 0 1-3.854 3.249 13.641 13.641 0 0 1-5.866 1.187H233.3v-33.7h12.848a13.757 13.757 0 0 1 5.914 1.166 8.692 8.692 0 0 1 3.734 3.125 7.958 7.958 0 0 1 1.259 4.39 7.53 7.53 0 0 1-1.549 4.849 9.047 9.047 0 0 1-4.171 2.858 7.468 7.468 0 0 1 4.611 2.862Zm-17.116-5.089h6.836a6.562 6.562 0 0 0 4.241-1.237 4.314 4.314 0 0 0 1.528-3.563 4.4 4.4 0 0 0-1.528-3.565 6.4 6.4 0 0 0-4.241-1.284h-6.836Zm11.878 13.673a4.692 4.692 0 0 0 1.6-3.782 4.906 4.906 0 0 0-1.7-3.927 6.691 6.691 0 0 0-4.508-1.454h-7.27v10.521h7.47a6.611 6.611 0 0 0 4.408-1.359Z" transform="translate(-17.405 -22.068)" fill="url(#v)"/><path data-name="路径 19050" d="M331.715 288.388v33.7h-5.525v-14.74h-15.857v14.74h-5.525v-33.7h5.525v14.45h15.857v-14.45Z" transform="translate(47.331 -22.068)" fill="url(#v)"/><path data-name="路径 19051" d="M368.436 315.224h-14.109l-2.426 6.884h-5.769l12.068-33.745h6.4l12.072 33.745h-5.817Zm-1.553-4.51-5.478-15.662-5.527 15.662Z" transform="translate(84.742 -22.09)" fill="url(#x)"/><path data-name="路径 19052" d="M390.677 296.5a16.405 16.405 0 0 1 6.255-6.135 18.4 18.4 0 0 1 18.23.436 15.052 15.052 0 0 1 6.084 7.492H414.6a8.908 8.908 0 0 0-3.635-3.976 10.8 10.8 0 0 0-5.382-1.307 11.761 11.761 0 0 0-5.964 1.5 10.457 10.457 0 0 0-4.1 4.315 15.225 15.225 0 0 0 0 13.09 10.626 10.626 0 0 0 4.1 4.34 11.625 11.625 0 0 0 5.964 1.528 10.8 10.8 0 0 0 5.382-1.311 8.9 8.9 0 0 0 3.635-3.972h6.642a14.905 14.905 0 0 1-6.084 7.465 17.7 17.7 0 0 1-9.576 2.618 17.414 17.414 0 0 1-8.679-2.2 16.47 16.47 0 0 1-6.23-6.133 18.237 18.237 0 0 1 0-17.744Z" transform="translate(122.984 -22.274)" fill="url(#y)"/><path data-name="路径 19053" d="m452.008 322.086-13.042-15.079v15.079h-5.527v-33.7h5.527v15.37l13.091-15.37h6.933l-14.642 16.873 14.884 16.824Z" transform="translate(163.784 -22.068)" fill="url(#v)"/><path data-name="路径 19054" d="M495.236 315.224h-14.109l-2.425 6.884h-5.769L485 288.363h6.4l12.072 33.745h-5.819Zm-1.553-4.51-5.478-15.662-5.527 15.662Z" transform="translate(199.538 -22.09)" fill="url(#x)"/><path data-name="路径 19055" d="M538.74 288.388v4.51h-8.97v29.188h-5.527V292.9h-9.018v-4.51Z" transform="translate(237.826 -22.068)" fill="url(#v)"/><path data-name="路径 19056" d="M581.83 288.388v33.7h-5.53v-14.74h-15.852v14.74h-5.527v-33.7h5.527v14.45H576.3v-14.45Z" transform="translate(273.764 -22.068)" fill="url(#v)"/><path data-name="路径 19057" d="M604.879 320.425a16.353 16.353 0 0 1-6.253-6.158 18.281 18.281 0 0 1 0-17.767 16.415 16.415 0 0 1 6.253-6.135 18.186 18.186 0 0 1 17.358 0 16.221 16.221 0 0 1 6.23 6.135 18.455 18.455 0 0 1 0 17.767 16.161 16.161 0 0 1-6.23 6.158 18.172 18.172 0 0 1-17.358 0Zm14.62-4.119a10.6 10.6 0 0 0 4.1-4.365 14.022 14.022 0 0 0 1.479-6.57 13.871 13.871 0 0 0-1.479-6.545 10.469 10.469 0 0 0-4.1-4.315 12.594 12.594 0 0 0-11.927 0 10.446 10.446 0 0 0-4.1 4.315 13.85 13.85 0 0 0-1.48 6.545 14 14 0 0 0 1.48 6.57 10.575 10.575 0 0 0 4.1 4.365 12.415 12.415 0 0 0 11.927 0Z" transform="translate(311.246 -22.274)" fill="url(#z)"/><path data-name="路径 19058" d="M669.352 322.108h-5.527L647.2 296.946v25.162h-5.527v-33.745h5.527l16.63 25.116v-25.116h5.527Z" transform="translate(352.299 -22.09)" fill="url(#x)"/><path data-name="路径 19059" d="M718.39 315.7q4.656-4.024 7.347-6.619a29.85 29.85 0 0 0 4.485-5.405 10.4 10.4 0 0 0 1.793-5.623 6.89 6.89 0 0 0-1.381-4.559 5.355 5.355 0 0 0-4.338-1.648 5.556 5.556 0 0 0-4.437 1.818 7.563 7.563 0 0 0-1.673 4.872h-5.333q.146-5.524 3.321-8.46a11.434 11.434 0 0 1 8.073-2.934q5.285 0 8.267 2.911a10.339 10.339 0 0 1 2.982 7.757 13.774 13.774 0 0 1-1.77 6.714 27.113 27.113 0 0 1-4.218 5.769q-2.45 2.547-6.23 5.891l-2.182 1.94h15.368v4.605H714.9v-4.022Z" transform="translate(418.554 -23.197)" fill="url(#A)"/><path data-name="路径 19060" d="M757.053 291.919q2.838-4.727 9.771-4.727t9.769 4.727q2.838 4.73 2.837 13.116 0 8.482-2.837 13.259t-9.769 4.777q-6.933 0-9.771-4.777t-2.835-13.259q0-8.388 2.835-13.116Zm16.437 6.474a8.906 8.906 0 0 0-2.062-4.436 7.02 7.02 0 0 0-9.212 0 8.9 8.9 0 0 0-2.06 4.436 36.774 36.774 0 0 0-.509 6.642 40.426 40.426 0 0 0 .484 6.836 8.551 8.551 0 0 0 2.06 4.46 7.165 7.165 0 0 0 9.262 0 8.549 8.549 0 0 0 2.06-4.46 40.4 40.4 0 0 0 .486-6.836 36.8 36.8 0 0 0-.509-6.642Z" transform="translate(454.193 -23.15)" fill="url(#B)"/><path data-name="路径 19061" d="M798.241 315.7q4.656-4.024 7.347-6.619a29.765 29.765 0 0 0 4.485-5.405 10.4 10.4 0 0 0 1.793-5.623 6.891 6.891 0 0 0-1.381-4.559 5.353 5.353 0 0 0-4.339-1.648 5.555 5.555 0 0 0-4.437 1.818 7.563 7.563 0 0 0-1.673 4.872H794.7q.146-5.524 3.321-8.46a11.435 11.435 0 0 1 8.073-2.934q5.284 0 8.267 2.911a10.339 10.339 0 0 1 2.982 7.757 13.778 13.778 0 0 1-1.77 6.714 27.051 27.051 0 0 1-4.219 5.769q-2.449 2.547-6.23 5.891l-2.182 1.94h15.37v4.605h-23.559v-4.022Z" transform="translate(490.845 -23.197)" fill="url(#A)"/><path data-name="路径 19062" d="M833.687 292.566v-5.043h10.085v35.346H838.2v-30.3Z" transform="translate(526.139 -22.851)" fill="url(#C)"/></g></g></svg>