<svg data-name="组 7662" xmlns="http://www.w3.org/2000/svg" xmlns:xlink="http://www.w3.org/1999/xlink" viewBox="0 0 917.969 195.842"><defs><linearGradient id="a" x1=".5" y1="-.121" x2=".5" y2=".902" gradientUnits="objectBoundingBox"><stop offset="0" stop-color="#fff"/><stop offset="1" stop-color="gray"/></linearGradient><linearGradient id="b" x1=".5" y1="-.027" x2=".5" y2=".91" xlink:href="#a"/><linearGradient id="c" x1=".5" y1=".02" x2=".5" y2=".831" xlink:href="#a"/><linearGradient id="d" x1=".5" y1=".069" x2=".5" y2=".843" xlink:href="#a"/><linearGradient id="e" x1=".5" y1="-.002" x2=".5" y2=".831" xlink:href="#a"/><linearGradient id="f" x1=".5" y1=".068" x2=".5" y2=".844" xlink:href="#a"/><linearGradient id="g" x1=".5" y1=".061" x2=".5" y2=".842" xlink:href="#a"/><linearGradient id="h" x1=".5" y1=".099" x2=".5" y2=".812" xlink:href="#a"/><linearGradient id="i" x1=".5" y1="-.063" x2=".5" y2=".917" xlink:href="#a"/><linearGradient id="j" x1=".5" y1="-.065" x2=".5" y2=".907" xlink:href="#a"/><linearGradient id="k" x1=".5" y1="-.081" x2=".5" y2=".906" xlink:href="#a"/><linearGradient id="l" x1=".5" y1="-5.351" x2=".5" y2=".402" xlink:href="#a"/><linearGradient id="m" x1=".5" y1="-.081" x2=".5" y2=".906" xlink:href="#a"/><linearGradient id="n" x1=".5" y1="-.063" x2=".5" y2=".883" xlink:href="#a"/><linearGradient id="o" x1=".5" y1="-4.89" x2=".5" y2="4.375" xlink:href="#a"/><linearGradient id="p" x1=".5" y1="-5.351" x2=".5" y2=".402" xlink:href="#a"/><linearGradient id="q" x1=".5" y1="-.081" x2=".5" y2=".906" xlink:href="#a"/><linearGradient id="r" x1=".5" y1="-5.351" x2=".5" y2=".402" xlink:href="#a"/><linearGradient id="s" x1=".5" y1="-.06" x2=".5" y2=".906" xlink:href="#a"/><linearGradient id="t" x1=".5" y1="-.041" x2=".5" y2=".919" xlink:href="#a"/><linearGradient id="u" x1=".5" y1="-.026" x2=".5" y2=".911" xlink:href="#a"/><linearGradient id="v" x1=".5" y1="-.006" x2=".5" y2=".819" xlink:href="#a"/><linearGradient id="w" x1=".5" y1=".092" x2=".5" y2=".836" xlink:href="#a"/><linearGradient id="x" x1=".5" y1="-.005" x2=".5" y2=".819" xlink:href="#a"/><linearGradient id="y" x1=".5" y1=".007" x2=".5" y2=".814" xlink:href="#a"/><linearGradient id="z" x1=".5" y1=".007" x2=".5" y2=".813" xlink:href="#a"/><linearGradient id="A" x1=".5" y1=".061" x2=".5" y2=".842" xlink:href="#a"/><linearGradient id="B" x1=".5" y1=".058" x2=".5" y2=".832" xlink:href="#a"/><linearGradient id="C" x1=".5" y1=".041" x2=".5" y2=".827" xlink:href="#a"/></defs><g data-name="组 7654"><path data-name="路径 19063" d="M134.507 153.006v2.205h-5.665v18.575h-2.714v-18.575h-5.694v-2.205Z" transform="translate(-119.882 -147.546)" fill="url(#a)"/><path data-name="路径 19064" d="M143.05 154.629a1.849 1.849 0 0 1 1.312-3.16 1.7 1.7 0 0 1 1.267.537 1.91 1.91 0 0 1 0 2.624 1.7 1.7 0 0 1-1.267.537 1.785 1.785 0 0 1-1.312-.538Zm2.625 3.19v16.339h-2.715V157.82Z" transform="translate(-114.532 -147.918)" fill="url(#b)"/><path data-name="路径 19065" d="M169.56 154.272a8.913 8.913 0 0 1 3.816 3.623 12.222 12.222 0 0 1 0 11.077 8.751 8.751 0 0 1-3.816 3.578 13.091 13.091 0 0 1-5.889 1.237H157.2v-20.78h6.47a12.831 12.831 0 0 1 5.89 1.265Zm.253 15.148a8.12 8.12 0 0 0 2.117-5.979 8.281 8.281 0 0 0-2.132-6.053 8.193 8.193 0 0 0-6.127-2.177h-3.757v16.339h3.757a8.288 8.288 0 0 0 6.142-2.13Z" transform="translate(-110.972 -147.546)" fill="url(#a)"/><path data-name="路径 19066" d="M195.071 164.007a5.433 5.433 0 0 1 1.49 1.849 5.373 5.373 0 0 1-.252 5.2 5.457 5.457 0 0 1-2.342 2 8.338 8.338 0 0 1-3.623.73h-7.751v-20.78h7.454a8.441 8.441 0 0 1 3.608.7 5.117 5.117 0 0 1 2.235 1.893 4.958 4.958 0 0 1 .745 2.683 4.644 4.644 0 0 1-1 3.057 5.608 5.608 0 0 1-2.635 1.743 4.415 4.415 0 0 1 2.071.925Zm-9.765-2.027h4.562a4.412 4.412 0 0 0 2.952-.893 3.461 3.461 0 0 0 0-4.951 4.508 4.508 0 0 0-3.013-.894h-4.5Zm7.96 8.617a3.282 3.282 0 0 0 1.134-2.654 3.375 3.375 0 0 0-1.193-2.728 4.817 4.817 0 0 0-3.19-1h-4.711v7.335h4.8a4.761 4.761 0 0 0 3.16-.95Z" transform="translate(-104.819 -147.546)" fill="url(#a)"/><path data-name="路径 19067" d="M245.426 169.669H219.1V167.7h12.016v-2.685h-9.571V163.2h9.571v-2.445h-9.064v-10.2h20.306v10.2h-9.064v2.445h9.63v1.819h-9.63v2.681h12.135Zm-26.3 6.142a13.263 13.263 0 0 0 3.31-4.949l2.117.507a15.592 15.592 0 0 1-3.369 5.426Zm11.986-16.937v-6.44h-6.947v6.44Zm-3.812-5.694a15.553 15.553 0 0 1 1.938 4.353l-1.55.6a17.889 17.889 0 0 0-1.849-4.443Zm2.266 18.278a22.778 22.778 0 0 1 .657 4.741l-2.178.3a28.362 28.362 0 0 0-.537-4.89Zm10.586-19.024h-6.858v6.44h6.858Zm-4.472 18.815a27.655 27.655 0 0 1 1.7 4.712l-2.177.535a34.73 34.73 0 0 0-1.58-4.83Zm-1.044-13.389a31.2 31.2 0 0 0 2.3-4.712l1.729.657c-.835 1.61-1.819 3.459-2.594 4.651Zm7.007 13a28.267 28.267 0 0 1 3.937 5.009l-2.147.835a30.176 30.176 0 0 0-3.788-5.158Z" transform="translate(-95.973 -148.14)" fill="url(#c)"/><path data-name="路径 19068" d="M272.927 158.009a20.483 20.483 0 0 1-5.933 5.7 39.176 39.176 0 0 0 11.539 3.159 9.94 9.94 0 0 0-1.4 2.088 31.874 31.874 0 0 1-4.144-.836v8.767h-2.236v-.954h-11.781v.984h-2.147v-8.648c-1.58.478-3.161.835-4.711 1.164a8.263 8.263 0 0 0-1.075-1.939 44.38 44.38 0 0 0 11.72-3.727 21.854 21.854 0 0 1-3.907-3.428 27.046 27.046 0 0 1-4.651 2.892 6.818 6.818 0 0 0-1.491-1.582 19.878 19.878 0 0 0 8.468-6.68l2.386.419c-.417.6-.9 1.163-1.373 1.759h8.857l.388-.089Zm-18.487-.03h-2.178v-5.607h11.869c-.419-.775-.9-1.668-1.343-2.384l2.148-.538a29.388 29.388 0 0 1 1.729 2.922h10.616v5.607h-2.237v-3.548h-20.6Zm17.414 9.841a36.339 36.339 0 0 1-7.038-2.833 38.873 38.873 0 0 1-6.649 2.833Zm-1.1 6.2v-4.32h-11.782v4.323Zm-10.347-15a18.764 18.764 0 0 0 4.443 3.608 20.749 20.749 0 0 0 4.682-3.727h-9.006Z" transform="translate(-88.233 -148.407)" fill="url(#d)"/><path data-name="路径 19069" d="M303.315 170.364h-19.322v-2.117h19.322Zm6.142-7.812s-.03.716-.089 1.042c-.686 7.753-1.342 10.824-2.5 11.957a3.12 3.12 0 0 1-2.385.954 42.225 42.225 0 0 1-4.682-.06 5.168 5.168 0 0 0-.685-2.146c1.908.178 3.816.209 4.562.209a1.868 1.868 0 0 0 1.312-.329c.865-.775 1.491-3.4 2.087-9.571h-19.029c.358-2.387.745-6.263.954-9.155l2.177.149a259.74 259.74 0 0 1-.686 6.948h11.57c.388-3.013.775-6.65 1.044-9.274h-16.849v-2.146h17.236l.358-.119 1.61.18c-.238 3.131-.716 7.663-1.193 11.361Z" transform="translate(-80.247 -148.029)" fill="url(#e)"/><path data-name="路径 19070" d="M325.688 164.833c-1.163.358-2.3.716-3.429 1.042v8.5c0 1.224-.268 1.759-1.014 2.117a8.547 8.547 0 0 1-3.638.388 9.183 9.183 0 0 0-.656-2c1.193.029 2.326.029 2.624 0 .388 0 .537-.121.537-.538V166.5l-3.43 1.015-.625-2.148c1.133-.268 2.534-.656 4.055-1.073v-6.53h-3.667v-2.057h3.667v-5.993h2.147v5.993h3.131v2.057h-3.131v5.963l3.16-.924Zm17.682 8.736v2.117h-18.13v-2.117h10.079a115.65 115.65 0 0 0 2.8-14.76l2.355.417c-.8 4.592-2 10.407-3.1 14.343Zm-.775-16.4h-15.952v-2.087h15.951ZM330.7 172.2a113.489 113.489 0 0 0-2.029-12.7l1.938-.417a112.282 112.282 0 0 1 2.238 12.493Zm2.862-17.445a33.375 33.375 0 0 0-1.431-4.741l2.087-.537a39.043 39.043 0 0 1 1.491 4.623Z" transform="translate(-72.478 -148.402)" fill="url(#f)"/><path data-name="路径 19071" d="M357.848 166.909c-.477-1.1-1.55-3.072-2.5-4.712v14.671h-2.177v-13.956a33.5 33.5 0 0 1-3.727 8.5 12.778 12.778 0 0 0-1.224-2.147c1.939-2.446 3.816-7.157 4.712-11.242h-4.264v-2.087h4.5v-6.292h2.177v6.292h3.7v2.087h-3.7v1.193c1.014 1.342 3.488 4.979 4.025 5.875Zm7.783-15.865c-1.073 4.742-2.892 9.185-5.159 12.077a16.871 16.871 0 0 0-1.938-1.312c2.266-2.624 3.936-6.8 4.831-11.151Zm5.248 15.476a55.465 55.465 0 0 1 4.144 8.8l-2.027.954a21.106 21.106 0 0 0-.8-2.236c-9.93 1.312-11.242 1.522-12.077 1.939h-.03v-.12c-.179-.507-.537-1.521-.805-2.117.656-.179 1.222-1.163 1.939-2.624a63.805 63.805 0 0 0 4.442-11.928l2.3.865a77.23 77.23 0 0 1-5.279 13.09l8.737-1.044c-.745-1.64-1.55-3.339-2.356-4.8Zm-.328-16.191a29.177 29.177 0 0 0 5.039 10.914 7.285 7.285 0 0 0-1.759 1.819 34.3 34.3 0 0 1-5.367-12.254Z" transform="translate(-64.685 -148.361)" fill="url(#g)"/><path data-name="路径 19072" d="M406.349 148.611v29.818H405.1v-29.818Z" transform="translate(-50.901 -148.611)" fill="url(#h)"/><path data-name="路径 19073" d="M446.981 166.843a24.069 24.069 0 0 0 3.623-4.084 7.364 7.364 0 0 0 1.476-4.19 4.6 4.6 0 0 0-.939-3.055 3.738 3.738 0 0 0-3.026-1.119 3.974 3.974 0 0 0-3.146 1.267 5.286 5.286 0 0 0-1.208 3.384h-2.624a7.164 7.164 0 0 1 2.028-5.158 7.7 7.7 0 0 1 9.794-.119 6.12 6.12 0 0 1 1.8 4.681 8.918 8.918 0 0 1-1.476 4.815 21.069 21.069 0 0 1-3.354 4.115q-1.878 1.774-4.8 4.131h10.257v2.265h-14.338v-1.938q3.787-3.038 5.933-4.995Z" transform="translate(-42.189 -147.773)" fill="url(#i)"/><path data-name="路径 19074" d="M465.206 154.994q1.67-2.877 5.844-2.877 4.144 0 5.814 2.877a16.031 16.031 0 0 1 1.67 8.006q0 5.218-1.67 8.11T471.05 174q-4.174 0-5.844-2.892t-1.67-8.11a16.033 16.033 0 0 1 1.67-8.004Zm10.3 3.608a5.6 5.6 0 0 0-1.4-2.907 4.039 4.039 0 0 0-3.056-1.1 4.08 4.08 0 0 0-3.086 1.1 5.6 5.6 0 0 0-1.4 2.907 24.005 24.005 0 0 0-.343 4.4 24.857 24.857 0 0 0 .343 4.5 5.606 5.606 0 0 0 1.4 2.922 4.08 4.08 0 0 0 3.086 1.1 4.039 4.039 0 0 0 3.056-1.1 5.6 5.6 0 0 0 1.4-2.922 24.856 24.856 0 0 0 .343-4.5 24 24 0 0 0-.342-4.402Z" transform="translate(-36.74 -147.761)" fill="url(#j)"/><path data-name="路径 19075" d="M492.7 166.843a24.066 24.066 0 0 0 3.623-4.084 7.364 7.364 0 0 0 1.476-4.19 4.6 4.6 0 0 0-.939-3.055 3.738 3.738 0 0 0-3.026-1.119 3.974 3.974 0 0 0-3.146 1.267 5.287 5.287 0 0 0-1.208 3.384h-2.624a7.164 7.164 0 0 1 2.028-5.158 7.7 7.7 0 0 1 9.794-.119 6.12 6.12 0 0 1 1.8 4.681 8.918 8.918 0 0 1-1.476 4.815 21.08 21.08 0 0 1-3.354 4.115q-1.879 1.774-4.8 4.131h10.257v2.265h-14.337v-1.938q3.787-3.038 5.932-4.995Z" transform="translate(-31.11 -147.773)" fill="url(#i)"/><path data-name="路径 19076" d="M508.68 154.855v-2.473h5.605v21.556h-2.743v-19.083Z" transform="translate(-25.8 -147.697)" fill="url(#k)"/><path data-name="路径 19077" d="M525.465 170.061a1.849 1.849 0 0 1 1.312-3.16 1.7 1.7 0 0 1 1.267.537 1.91 1.91 0 0 1 0 2.624 1.7 1.7 0 0 1-1.267.537 1.784 1.784 0 0 1-1.312-.538Z" transform="translate(-21.863 -144.179)" fill="url(#l)"/><path data-name="路径 19078" d="M538.247 154.855v-2.473h5.605v21.556h-2.743v-19.083Z" transform="translate(-18.635 -147.697)" fill="url(#m)"/><path data-name="路径 19079" d="M560.6 166.843a24.065 24.065 0 0 0 3.622-4.084 7.364 7.364 0 0 0 1.476-4.19 4.605 4.605 0 0 0-.938-3.055 3.741 3.741 0 0 0-3.028-1.119 3.974 3.974 0 0 0-3.145 1.267 5.277 5.277 0 0 0-1.206 3.384h-2.625a7.161 7.161 0 0 1 2.029-5.158 7.7 7.7 0 0 1 9.793-.119 6.121 6.121 0 0 1 1.805 4.681 8.918 8.918 0 0 1-1.476 4.815 21.068 21.068 0 0 1-3.356 4.115q-1.876 1.774-4.8 4.131H569v2.265h-14.337v-1.938q3.787-3.038 5.937-4.995Z" transform="translate(-14.657 -147.773)" fill="url(#i)"/><path data-name="路径 19080" d="M577.256 170.061a1.849 1.849 0 0 1 1.312-3.16 1.7 1.7 0 0 1 1.267.537 1.91 1.91 0 0 1 0 2.624 1.7 1.7 0 0 1-1.267.537 1.785 1.785 0 0 1-1.312-.538Z" transform="translate(-9.313 -144.179)" fill="url(#l)"/><path data-name="路径 19081" d="M592 160.884a5.1 5.1 0 0 1-.894-3.042 5.4 5.4 0 0 1 .805-2.907 5.529 5.529 0 0 1 2.4-2.057 10.184 10.184 0 0 1 7.722 0 5.629 5.629 0 0 1 2.415 2.057 5.327 5.327 0 0 1 .82 2.907 5.078 5.078 0 0 1-.924 3.026 5.452 5.452 0 0 1-2.535 1.923 5.711 5.711 0 0 1 2.937 1.983 5.438 5.438 0 0 1 1.088 3.414 6 6 0 0 1-.954 3.384 6.206 6.206 0 0 1-2.7 2.236 9.624 9.624 0 0 1-4.01.791 9.419 9.419 0 0 1-3.98-.791 6.226 6.226 0 0 1-2.669-2.236 6 6 0 0 1-.954-3.384 5.551 5.551 0 0 1 1.074-3.429 5.421 5.421 0 0 1 2.922-1.968 5.543 5.543 0 0 1-2.563-1.907Zm2.564 4.128a3.582 3.582 0 0 0-1.4 3.086 3.841 3.841 0 0 0 1.357 3.071 5.423 5.423 0 0 0 3.652 1.163 5.365 5.365 0 0 0 3.638-1.163 3.863 3.863 0 0 0 1.342-3.071 3.63 3.63 0 0 0-1.371-3.056 5.752 5.752 0 0 0-3.608-1.058 5.943 5.943 0 0 0-3.612 1.028Zm6.887-9.645a5.908 5.908 0 0 0-6.53 0 3.462 3.462 0 0 0-1.193 2.832 3.3 3.3 0 0 0 1.237 2.685 5.59 5.59 0 0 0 6.44-.016 3.339 3.339 0 0 0 1.237-2.7 3.428 3.428 0 0 0-1.192-2.801Z" transform="translate(-5.957 -147.761)" fill="url(#n)"/><path data-name="路径 19082" d="M640.816 160.013v2.3h-11.9v-2.3Z" transform="translate(3.337 -145.848)" fill="url(#o)"/><path data-name="路径 19083" d="M671.164 166.843a24.07 24.07 0 0 0 3.622-4.084 7.363 7.363 0 0 0 1.476-4.19 4.6 4.6 0 0 0-.939-3.055 3.739 3.739 0 0 0-3.026-1.119 3.973 3.973 0 0 0-3.146 1.267 5.286 5.286 0 0 0-1.207 3.384h-2.624a7.165 7.165 0 0 1 2.028-5.158 7.7 7.7 0 0 1 9.795-.119 6.121 6.121 0 0 1 1.8 4.681 8.917 8.917 0 0 1-1.476 4.815 21.071 21.071 0 0 1-3.354 4.115q-1.878 1.774-4.8 4.131h10.257v2.265h-14.339v-1.938q3.786-3.038 5.933-4.995Z" transform="translate(12.136 -147.773)" fill="url(#i)"/><path data-name="路径 19084" d="M689.389 154.994q1.67-2.877 5.844-2.877 4.144 0 5.814 2.877a16.033 16.033 0 0 1 1.67 8.006q0 5.218-1.67 8.11t-5.814 2.89q-4.174 0-5.844-2.892t-1.67-8.11a16.017 16.017 0 0 1 1.67-8.004Zm10.3 3.608a5.6 5.6 0 0 0-1.4-2.907 4.039 4.039 0 0 0-3.056-1.1 4.081 4.081 0 0 0-3.086 1.1 5.6 5.6 0 0 0-1.4 2.907 23.982 23.982 0 0 0-.343 4.4 24.832 24.832 0 0 0 .343 4.5 5.6 5.6 0 0 0 1.4 2.922 4.08 4.08 0 0 0 3.086 1.1 4.038 4.038 0 0 0 3.056-1.1 5.6 5.6 0 0 0 1.4-2.922 24.943 24.943 0 0 0 .343-4.5 24.09 24.09 0 0 0-.342-4.402Z" transform="translate(17.586 -147.761)" fill="url(#j)"/><path data-name="路径 19085" d="M716.883 166.843a24.022 24.022 0 0 0 3.622-4.084 7.363 7.363 0 0 0 1.476-4.19 4.6 4.6 0 0 0-.938-3.055 3.74 3.74 0 0 0-3.026-1.119 3.975 3.975 0 0 0-3.147 1.267 5.285 5.285 0 0 0-1.206 3.384h-2.625a7.159 7.159 0 0 1 2.029-5.158 7.7 7.7 0 0 1 9.793-.119 6.122 6.122 0 0 1 1.805 4.681 8.917 8.917 0 0 1-1.476 4.815 21.08 21.08 0 0 1-3.355 4.115q-1.877 1.774-4.8 4.131h10.257v2.265h-14.341v-1.938q3.785-3.038 5.932-4.995Z" transform="translate(23.215 -147.773)" fill="url(#i)"/><path data-name="路径 19086" d="M739.107 166.843a24.087 24.087 0 0 0 3.623-4.084 7.363 7.363 0 0 0 1.476-4.19 4.6 4.6 0 0 0-.939-3.055 3.738 3.738 0 0 0-3.026-1.119 3.973 3.973 0 0 0-3.146 1.267 5.285 5.285 0 0 0-1.208 3.384h-2.624a7.164 7.164 0 0 1 2.027-5.158 7.7 7.7 0 0 1 9.794-.119 6.119 6.119 0 0 1 1.8 4.681 8.919 8.919 0 0 1-1.476 4.815 21.076 21.076 0 0 1-3.354 4.115q-1.878 1.774-4.8 4.131h10.257v2.265h-14.337v-1.938q3.786-3.038 5.933-4.995Z" transform="translate(28.6 -147.773)" fill="url(#i)"/><path data-name="路径 19087" d="M755.767 170.061a1.849 1.849 0 0 1 1.312-3.16 1.7 1.7 0 0 1 1.267.537 1.91 1.91 0 0 1 0 2.624 1.7 1.7 0 0 1-1.267.537 1.784 1.784 0 0 1-1.312-.538Z" transform="translate(33.945 -144.179)" fill="url(#p)"/><path data-name="路径 19088" d="M770.8 154.994q1.67-2.877 5.844-2.877 4.144 0 5.814 2.877a16.029 16.029 0 0 1 1.67 8.006q0 5.218-1.67 8.11T776.64 174q-4.174 0-5.844-2.892t-1.67-8.11a16.032 16.032 0 0 1 1.674-8.004Zm10.3 3.608a5.6 5.6 0 0 0-1.4-2.907 4.039 4.039 0 0 0-3.056-1.1 4.081 4.081 0 0 0-3.086 1.1 5.6 5.6 0 0 0-1.4 2.907 23.983 23.983 0 0 0-.343 4.4 24.833 24.833 0 0 0 .343 4.5 5.6 5.6 0 0 0 1.4 2.922 4.081 4.081 0 0 0 3.086 1.1 4.039 4.039 0 0 0 3.056-1.1 5.6 5.6 0 0 0 1.4-2.922 24.832 24.832 0 0 0 .343-4.5 23.982 23.982 0 0 0-.343-4.402Z" transform="translate(37.313 -147.761)" fill="url(#j)"/><path data-name="路径 19089" d="M792.046 154.855v-2.473h5.606v21.556h-2.743v-19.083Z" transform="translate(42.867 -147.697)" fill="url(#q)"/><path data-name="路径 19090" d="M808.831 170.061a1.849 1.849 0 0 1 1.312-3.16 1.7 1.7 0 0 1 1.267.537 1.911 1.911 0 0 1 0 2.624 1.7 1.7 0 0 1-1.267.537 1.784 1.784 0 0 1-1.312-.538Z" transform="translate(46.804 -144.179)" fill="url(#r)"/><path data-name="路径 19091" d="M823.86 154.994q1.669-2.877 5.844-2.877 4.143 0 5.813 2.877a16.031 16.031 0 0 1 1.671 8.006q0 5.218-1.671 8.11T829.7 174q-4.176 0-5.844-2.892T822.189 163a16.019 16.019 0 0 1 1.671-8.006Zm10.3 3.608a5.6 5.6 0 0 0-1.4-2.907 4.828 4.828 0 0 0-6.143 0 5.6 5.6 0 0 0-1.4 2.907 24.015 24.015 0 0 0-.342 4.4 24.867 24.867 0 0 0 .342 4.5 5.606 5.606 0 0 0 1.4 2.922 4.828 4.828 0 0 0 6.143 0 5.6 5.6 0 0 0 1.4-2.922 24.992 24.992 0 0 0 .342-4.5 24.136 24.136 0 0 0-.341-4.402Z" transform="translate(50.171 -147.761)" fill="url(#j)"/><path data-name="路径 19092" d="M850.5 170.859a4.388 4.388 0 0 0 2.937.924 3.97 3.97 0 0 0 3.652-1.938q1.178-1.936 1.118-6.53a4.5 4.5 0 0 1-2.087 2.1 6.92 6.92 0 0 1-3.25.761 7.565 7.565 0 0 1-3.563-.821 5.957 5.957 0 0 1-2.46-2.4 7.631 7.631 0 0 1-.895-3.815A7.178 7.178 0 0 1 847.8 154a6.879 6.879 0 0 1 5.248-1.953q4.174 0 5.859 2.713t1.685 8.08a23.943 23.943 0 0 1-.671 6.2 6.972 6.972 0 0 1-2.266 3.727 6.785 6.785 0 0 1-4.368 1.283 6.546 6.546 0 0 1-4.741-1.641 6.433 6.433 0 0 1-1.938-4.174h2.5a4.273 4.273 0 0 0 1.392 2.624Zm6.1-8.214a4.443 4.443 0 0 0 1.282-3.354 5.145 5.145 0 0 0-1.252-3.608 4.524 4.524 0 0 0-3.518-1.372 4.348 4.348 0 0 0-3.324 1.313 4.832 4.832 0 0 0-1.237 3.457 4.909 4.909 0 0 0 1.223 3.488 4.613 4.613 0 0 0 3.548 1.312 4.529 4.529 0 0 0 3.271-1.236Z" transform="translate(55.929 -147.779)" fill="url(#s)"/></g><g data-name="组 7655"><path data-name="路径 19093" d="M137.406 216.023v14.463h23.324v13.444h-23.324v15.686h26.38v13.954h-43.8v-71.5h43.8v13.954Z" transform="translate(-119.99 -135.657)" fill="url(#t)"/><path data-name="路径 19094" d="m211.681 273.57-14.566-21.9-12.832 21.9h-19.76l22.917-36.362-23.426-35.139h20.27l14.36 21.593 12.629-21.593h19.759l-22.712 36.056 23.629 35.445Z" transform="translate(-109.322 -135.657)" fill="url(#t)"/><path data-name="路径 19095" d="M280.174 236.444a20.962 20.962 0 0 1-8.758 8.3q-5.909 3.159-14.667 3.157h-10.8v25.669h-17.414v-71.5h28.213a32.111 32.111 0 0 1 14.463 2.954 20.308 20.308 0 0 1 8.86 8.148 23.681 23.681 0 0 1 2.954 11.916 23.025 23.025 0 0 1-2.851 11.356Zm-17.314-4.736a10.186 10.186 0 0 0 0-13.241q-2.445-2.342-7.435-2.343h-9.472v17.927h9.472q4.989 0 7.434-2.343Z" transform="translate(-93.687 -135.657)" fill="url(#t)"/><path data-name="路径 19096" d="M299.9 260.125h22.815v13.445h-40.23v-71.5H299.9Z" transform="translate(-80.614 -135.657)" fill="url(#t)"/><path data-name="路径 19097" d="M340.278 269.8a35.008 35.008 0 0 1-13.343-13.088 38.506 38.506 0 0 1 0-37.736 35.143 35.143 0 0 1 13.343-13.037 38.814 38.814 0 0 1 36.972 0 34.413 34.413 0 0 1 13.241 13.037 39.034 39.034 0 0 1-.051 37.736A34.763 34.763 0 0 1 377.2 269.8a38.713 38.713 0 0 1-36.921 0Zm32.185-16.907q5.141-5.7 5.143-15.074 0-9.472-5.143-15.125t-13.7-5.653q-8.658 0-13.8 5.6t-5.143 15.176q0 9.472 5.143 15.125t13.8 5.653q8.556-.003 13.7-5.706Z" transform="translate(-71.039 -135.855)" fill="url(#u)"/><path data-name="路径 19098" d="m428.062 273.57-14.869-26.991h-4.177v26.991H391.6v-71.5h29.231a32.182 32.182 0 0 1 14.412 2.954 20.366 20.366 0 0 1 8.912 8.1 22.6 22.6 0 0 1 2.953 11.458 21.283 21.283 0 0 1-4.023 12.731q-4.025 5.6-11.865 7.945l16.5 28.315Zm-19.046-39.315h10.8q4.785 0 7.179-2.343a8.845 8.845 0 0 0 2.394-6.62 8.57 8.57 0 0 0-2.394-6.417q-2.395-2.343-7.179-2.343h-10.8Z" transform="translate(-54.172 -135.657)" fill="url(#t)"/><path data-name="路径 19099" d="M465.256 216.023v14.463h23.324v13.444h-23.324v15.686h26.381v13.954h-43.8v-71.5h43.8v13.954Z" transform="translate(-40.543 -135.657)" fill="url(#t)"/><path data-name="路径 19100" d="M567.336 202.069v13.954h-18.942v57.547h-17.418v-57.547h-18.944v-13.954Z" transform="translate(-24.988 -135.657)" fill="url(#t)"/><path data-name="路径 19101" d="M628.312 202.069v71.5H610.9v-29.435h-27.1v29.436h-17.413v-71.5H583.8v28.009h27.1v-28.01Z" transform="translate(-11.817 -135.657)" fill="url(#t)"/><path data-name="路径 19102" d="M646.519 216.023v14.463h23.324v13.444h-23.324v15.686H672.9v13.954h-43.8v-71.5h43.8v13.954Z" transform="translate(3.381 -135.657)" fill="url(#t)"/><path data-name="路径 19103" d="M708.623 271.935a22.9 22.9 0 0 1-9.931-7.537 20.576 20.576 0 0 1-3.921-12.018h18.538a8.978 8.978 0 0 0 2.749 6.06 8.835 8.835 0 0 0 6.111 2.088 9.557 9.557 0 0 0 6.111-1.783 5.965 5.965 0 0 0 2.241-4.939 5.853 5.853 0 0 0-1.783-4.38 14.415 14.415 0 0 0-4.379-2.851 70.77 70.77 0 0 0-7.386-2.547 80.357 80.357 0 0 1-11.305-4.277 20.878 20.878 0 0 1-7.537-6.315q-3.159-4.176-3.157-10.9 0-9.981 7.231-15.633t18.842-5.653q11.815 0 19.046 5.653t7.741 15.735h-18.84a7.376 7.376 0 0 0-2.547-5.449 8.969 8.969 0 0 0-6.009-1.985 7.489 7.489 0 0 0-5.092 1.68 6.063 6.063 0 0 0-1.936 4.839 6 6 0 0 0 3.26 5.4 53.227 53.227 0 0 0 10.184 4.175 94.575 94.575 0 0 1 11.256 4.482 21.429 21.429 0 0 1 7.485 6.213 16.63 16.63 0 0 1 3.157 10.49 20.583 20.583 0 0 1-3.106 11.1 21.759 21.759 0 0 1-9.014 7.945 30.842 30.842 0 0 1-13.954 2.953 36.751 36.751 0 0 1-14.055-2.546Z" transform="translate(19.294 -135.855)" fill="url(#u)"/><path data-name="路径 19104" d="m791.071 273.57-24.038-31.575v31.575h-17.415v-71.5h17.415v31.37l23.834-31.371h20.472l-27.7 35.037 28.722 36.463Z" transform="translate(32.585 -135.657)" fill="url(#t)"/><path data-name="路径 19105" d="M871.954 202.069 847.2 249.94v23.63h-17.413v-23.63l-24.749-47.871H824.8l13.852 29.945 13.75-29.945Z" transform="translate(46.014 -135.657)" fill="url(#t)"/></g><g data-name="组 7656"><path data-name="路径 19106" d="M135.322 288.388v2.941h-5.848v19.031h-3.605v-19.031h-5.879v-2.941Z" transform="translate(-119.99 -114.74)" fill="url(#v)"/><path data-name="路径 19107" d="M159.968 290.432a2.308 2.308 0 0 1 1.644-3.952 2.2 2.2 0 0 1 1.613.663 2.369 2.369 0 0 1 0 3.288 2.2 2.2 0 0 1-1.613.663 2.232 2.232 0 0 1-1.644-.662Zm3.414 2.972v17.419h-3.6V293.4Z" transform="translate(-110.463 -115.202)" fill="url(#w)"/><path data-name="路径 19108" d="M204.157 289.732a9.617 9.617 0 0 1 4.079 3.857 11.6 11.6 0 0 1 1.439 5.864 11.34 11.34 0 0 1-1.439 5.817 9.5 9.5 0 0 1-4.079 3.778 13.647 13.647 0 0 1-6.148 1.312h-7.176v-21.972h7.176a13.378 13.378 0 0 1 6.148 1.344Zm-.237 15.6a8.023 8.023 0 0 0 2.055-5.88 8.29 8.29 0 0 0-2.055-5.974 7.793 7.793 0 0 0-5.911-2.15h-3.573v16.092h3.573a7.934 7.934 0 0 0 5.911-2.087Z" transform="translate(-102.823 -114.74)" fill="url(#v)"/><path data-name="路径 19109" d="M248.067 300.938a5.643 5.643 0 0 1 .363 6.53 5.9 5.9 0 0 1-2.513 2.118 8.9 8.9 0 0 1-3.825.774H233.3v-21.972h8.377a8.97 8.97 0 0 1 3.856.76 5.667 5.667 0 0 1 2.435 2.037 5.189 5.189 0 0 1 .821 2.862 4.909 4.909 0 0 1-1.01 3.162 5.9 5.9 0 0 1-2.719 1.863 4.87 4.87 0 0 1 3.007 1.866Zm-11.16-3.318h4.457a4.278 4.278 0 0 0 2.765-.806 2.813 2.813 0 0 0 1-2.323 2.871 2.871 0 0 0-1-2.324 4.173 4.173 0 0 0-2.765-.837h-4.457Zm7.745 8.915a3.059 3.059 0 0 0 1.044-2.466 3.2 3.2 0 0 0-1.107-2.56 4.362 4.362 0 0 0-2.939-.948h-4.742v6.86h4.867a4.31 4.31 0 0 0 2.877-.886Z" transform="translate(-92.531 -114.74)" fill="url(#v)"/><path data-name="路径 19110" d="M322.352 288.388v21.972h-3.6v-9.611h-10.341v9.611h-3.6v-21.972h3.6v9.422h10.339v-9.422Z" transform="translate(-75.204 -114.74)" fill="url(#v)"/><path data-name="路径 19111" d="M360.675 305.877h-9.2l-1.582 4.489h-3.762l7.871-22h4.173l7.871 22h-3.793Zm-1.013-2.941-3.572-10.212-3.6 10.212Z" transform="translate(-65.19 -114.746)" fill="url(#x)"/><path data-name="路径 19112" d="M389.875 293.6a10.7 10.7 0 0 1 4.079-4 12 12 0 0 1 11.887.285 9.815 9.815 0 0 1 3.967 4.885h-4.331a5.808 5.808 0 0 0-2.37-2.593 7.039 7.039 0 0 0-3.51-.852 7.669 7.669 0 0 0-3.888.979 6.818 6.818 0 0 0-2.671 2.814 9.927 9.927 0 0 0 0 8.535 6.929 6.929 0 0 0 2.671 2.83 7.58 7.58 0 0 0 3.888 1 7.04 7.04 0 0 0 3.51-.855 5.805 5.805 0 0 0 2.37-2.592h4.331a9.72 9.72 0 0 1-3.967 4.867 11.545 11.545 0 0 1-6.241 1.697 11.354 11.354 0 0 1-5.659-1.437 10.739 10.739 0 0 1-4.062-4 11.892 11.892 0 0 1 0-11.57Z" transform="translate(-54.954 -114.795)" fill="url(#y)"/><path data-name="路径 19113" d="m445.547 310.36-8.5-9.832v9.832h-3.6v-21.972h3.6v10.022l8.536-10.022h4.517l-9.547 11 9.705 10.97Z" transform="translate(-44.033 -114.74)" fill="url(#v)"/><path data-name="路径 19114" d="M487.475 305.877h-9.2l-1.582 4.489h-3.762l7.871-22h4.174l7.871 22h-3.794Zm-1.013-2.941-3.572-10.212-3.6 10.212Z" transform="translate(-34.463 -114.746)" fill="url(#x)"/><path data-name="路径 19115" d="M530.557 288.388v2.941h-5.849v19.031h-3.6v-19.031h-5.88v-2.941Z" transform="translate(-24.215 -114.74)" fill="url(#v)"/><path data-name="路径 19116" d="M572.466 288.388v21.972h-3.6v-9.611h-10.341v9.611h-3.6v-21.972h3.6v9.422h10.338v-9.422Z" transform="translate(-14.595 -114.74)" fill="url(#v)"/><path data-name="路径 19117" d="M601.9 309.2a10.662 10.662 0 0 1-4.077-4.015 11.92 11.92 0 0 1 0-11.585 10.7 10.7 0 0 1 4.077-4 11.858 11.858 0 0 1 11.317 0 10.577 10.577 0 0 1 4.063 4 12.033 12.033 0 0 1 0 11.585 10.537 10.537 0 0 1-4.063 4.015 11.848 11.848 0 0 1-11.317 0Zm9.532-2.686a6.911 6.911 0 0 0 2.671-2.846 9.143 9.143 0 0 0 .964-4.284 9.044 9.044 0 0 0-.964-4.267 6.827 6.827 0 0 0-2.671-2.814 8.212 8.212 0 0 0-7.777 0 6.811 6.811 0 0 0-2.671 2.814 9.033 9.033 0 0 0-.965 4.267 9.131 9.131 0 0 0 .965 4.284 6.9 6.9 0 0 0 2.671 2.846 8.095 8.095 0 0 0 7.777 0Z" transform="translate(-4.563 -114.795)" fill="url(#z)"/><path data-name="路径 19118" d="M659.719 310.366h-3.6l-10.847-16.406v16.406h-3.6v-22h3.6l10.843 16.376v-16.379h3.6Z" transform="translate(6.426 -114.746)" fill="url(#x)"/><path data-name="路径 19119" d="M717.159 305.762q3.036-2.624 4.791-4.316a19.457 19.457 0 0 0 2.924-3.524 6.779 6.779 0 0 0 1.169-3.666 4.494 4.494 0 0 0-.9-2.973 3.492 3.492 0 0 0-2.829-1.075 3.623 3.623 0 0 0-2.893 1.185 4.933 4.933 0 0 0-1.091 3.177h-3.477a7.741 7.741 0 0 1 12.82-5.531 6.741 6.741 0 0 1 1.944 5.057 8.982 8.982 0 0 1-1.154 4.378 17.674 17.674 0 0 1-2.75 3.762q-1.6 1.66-4.063 3.841l-1.422 1.265h10.021v3h-15.366v-2.622Z" transform="translate(24.16 -115.042)" fill="url(#A)"/><path data-name="路径 19120" d="M756.067 290.274q1.85-3.082 6.371-3.082t6.369 3.082q1.851 3.084 1.85 8.552 0 5.531-1.85 8.645t-6.369 3.115q-4.521 0-6.371-3.115t-1.849-8.645q0-5.469 1.849-8.552Zm10.718 4.221a5.807 5.807 0 0 0-1.344-2.892 4.577 4.577 0 0 0-6.007 0 5.8 5.8 0 0 0-1.343 2.892 23.977 23.977 0 0 0-.332 4.331 26.354 26.354 0 0 0 .316 4.457 5.575 5.575 0 0 0 1.343 2.908 4.672 4.672 0 0 0 6.039 0 5.575 5.575 0 0 0 1.343-2.908 26.326 26.326 0 0 0 .317-4.457 23.989 23.989 0 0 0-.333-4.326Z" transform="translate(33.7 -115.029)" fill="url(#B)"/><path data-name="路径 19121" d="M797.01 305.762q3.036-2.624 4.79-4.316a19.413 19.413 0 0 0 2.925-3.524 6.78 6.78 0 0 0 1.169-3.666 4.492 4.492 0 0 0-.9-2.973 3.49 3.49 0 0 0-2.829-1.075 3.622 3.622 0 0 0-2.893 1.185 4.931 4.931 0 0 0-1.091 3.177H794.7a7.741 7.741 0 0 1 12.82-5.531 6.742 6.742 0 0 1 1.944 5.057 8.983 8.983 0 0 1-1.154 4.378 17.642 17.642 0 0 1-2.751 3.762q-1.6 1.66-4.062 3.841l-1.422 1.265H810.1v3h-15.365v-2.622Z" transform="translate(43.51 -115.042)" fill="url(#A)"/><path data-name="路径 19122" d="M833.687 290.811v-3.289h6.576v23.046h-3.636v-19.757Z" transform="translate(52.957 -114.949)" fill="url(#C)"/></g></svg>