<svg xmlns="http://www.w3.org/2000/svg" width="40.884" height="40.884" viewBox="0 0 40.884 40.884">
  <g id="组_5256" data-name="组 5256" transform="translate(21462 9516.924)">
    <g id="组_4434" data-name="组 4434" transform="translate(-22852.461 -10935)">
      <g id="组_1806" data-name="组 1806" transform="translate(1390.461 1418.076)">
        <path id="路径_6330" data-name="路径 6330" d="M446.437,49.2a18.743,18.743,0,1,1-18.745,18.743A18.765,18.765,0,0,1,446.437,49.2m0-1.7a20.442,20.442,0,1,0,20.441,20.442A20.442,20.442,0,0,0,446.437,47.5Z" transform="translate(-425.994 -47.501)" fill="#3d3fea"/>
        <g id="组_1779" data-name="组 1779" transform="translate(14.718 8.722)">
          <path id="路径_6320" data-name="路径 6320" d="M465.426,74.482h4.94V62.5h3.811l.469-4.22h-4.28V55.656c0-.932.388-1.013.854-1.013h3.361V50.536l-3.97-.012c-4.4,0-5.185,3.062-5.185,5.019v2.74H462.66V62.5h2.766Z" transform="translate(-462.66 -50.524)" fill="#3d3fea"/>
        </g>
      </g>
    </g>
  </g>
</svg>
