<svg xmlns="http://www.w3.org/2000/svg" width="40.884" height="40.884" viewBox="0 0 40.884 40.884">
  <g id="组_5248" data-name="组 5248" transform="translate(21394 9516.924)">
    <g id="组_1780" data-name="组 1780" transform="translate(-21394 -9516.924)">
      <g id="组_1773" data-name="组 1773" transform="translate(10.357 10.902)">
        <rect id="矩形_2378" data-name="矩形 2378" width="4.256" height="13.471" transform="translate(0 5.672)" fill="#4c5470"/>
        <circle id="椭圆_388" data-name="椭圆 388" cx="2.127" cy="2.127" r="2.127" transform="translate(0)" fill="#4c5470"/>
        <path id="路径_6322" data-name="路径 6322" d="M504.258,59.984c0-3.54-.766-6.261-4.911-6.261a4.3,4.3,0,0,0-3.873,2.122h-.056v-1.8h-3.927V67.192h4.093v-6.5c0-1.713.325-3.375,2.455-3.375,2.1,0,2.128,1.961,2.128,3.486v6.391h4.091Z" transform="translate(-484.397 -48.05)" fill="#4c5470"/>
      </g>
      <path id="路径_6331" data-name="路径 6331" d="M446.437,49.2a18.743,18.743,0,1,1-18.745,18.743A18.765,18.765,0,0,1,446.437,49.2m0-1.7a20.442,20.442,0,1,0,20.441,20.442A20.442,20.442,0,0,0,446.437,47.5Z" transform="translate(-425.994 -47.501)" fill="#4c5470"/>
    </g>
  </g>
</svg>
