<svg xmlns="http://www.w3.org/2000/svg" width="40.884" height="40.884" viewBox="0 0 40.884 40.884">
  <g id="组_5250" data-name="组 5250" transform="translate(21462 9446.886)">
    <path id="路径_6333" data-name="路径 6333" d="M446.437,49.2a18.743,18.743,0,1,1-18.745,18.743A18.765,18.765,0,0,1,446.437,49.2m0-1.7a20.442,20.442,0,1,0,20.441,20.442A20.442,20.442,0,0,0,446.437,47.5Z" transform="translate(-21887.994 -9494.387)" fill="#4c5470"/>
    <g id="slack" transform="translate(-21454.367 -9439.254)">
      <path id="路径_6227" data-name="路径 6227" d="M8.968,12.651A2.646,2.646,0,0,0,6.322,15.3v6.618a2.646,2.646,0,1,0,5.292,0V15.3a2.648,2.648,0,0,0-2.646-2.646Z" transform="translate(0.311 0.627)" fill="#4c5470"/>
      <path id="路径_6228" data-name="路径 6228" d="M.019,15.3a2.648,2.648,0,0,0,5.3,0V12.649H2.667A2.648,2.648,0,0,0,.019,15.3Z" transform="translate(-0.001 0.627)" fill="#4c5470"/>
      <path id="路径_6229" data-name="路径 6229" d="M8.971,0h0a2.648,2.648,0,0,0,0,5.3h2.646V2.642A2.644,2.644,0,0,0,8.971,0Z" transform="translate(0.311 0.001)" fill="#4c5470"/>
      <path id="路径_6230" data-name="路径 6230" d="M2.65,11.62H9.281a2.648,2.648,0,0,0,0-5.3H2.65a2.648,2.648,0,1,0,0,5.3Z" transform="translate(-0.002 0.314)" fill="#4c5470"/>
      <path id="路径_6231" data-name="路径 6231" d="M21.582,6.323a2.642,2.642,0,0,0-2.643,2.643v2.653h2.646a2.648,2.648,0,0,0,0-5.3Z" transform="translate(0.935 0.314)" fill="#4c5470"/>
      <path id="路径_6232" data-name="路径 6232" d="M12.641,2.647V9.285a2.646,2.646,0,1,0,5.292,0V2.647a2.646,2.646,0,0,0-5.292,0Z" transform="translate(0.624 0.001)" fill="#4c5470"/>
      <g id="组_1625" data-name="组 1625" transform="translate(13.261 13.276)">
        <path id="路径_6233" data-name="路径 6233" d="M17.932,21.6a2.646,2.646,0,0,0-2.646-2.646H12.64V21.6a2.646,2.646,0,0,0,5.292,0Z" transform="translate(-12.638 -12.337)" fill="#4c5470"/>
        <path id="路径_6234" data-name="路径 6234" d="M21.917,12.649H15.286a2.648,2.648,0,1,0,0,5.3h6.631a2.648,2.648,0,1,0,0-5.3Z" transform="translate(-12.638 -12.649)" fill="#4c5470"/>
      </g>
    </g>
  </g>
</svg>
