<svg xmlns="http://www.w3.org/2000/svg" width="40.884" height="40.884" viewBox="0 0 40.884 40.884">
  <g id="组_5249" data-name="组 5249" transform="translate(21755.999 9475.924)">
    <g id="组_4510" data-name="组 4510" transform="translate(-227 41)">
      <g id="组_4436" data-name="组 4436" transform="translate(-22839.055 -10935)">
        <g id="组_1794" data-name="组 1794" transform="translate(1310.056 1418.076)">
          <path id="路径_6317" data-name="路径 6317" d="M446.437,49.2a18.743,18.743,0,1,1-18.745,18.743A18.765,18.765,0,0,1,446.437,49.2m0-1.7a20.442,20.442,0,1,0,20.441,20.442A20.442,20.442,0,0,0,446.437,47.5Z" transform="translate(-425.994 -47.501)" fill="#2e2fff"/>
          <g id="组_1767" data-name="组 1767" transform="translate(8.722 10.357)">
            <path id="路径_6318" data-name="路径 6318" d="M452.86,52.146a9.561,9.561,0,0,1-3.125,1.259,4.791,4.791,0,0,0-3.589-1.639,5.057,5.057,0,0,0-4.916,5.188,5.6,5.6,0,0,0,.125,1.18,13.737,13.737,0,0,1-10.135-5.416,5.373,5.373,0,0,0-.667,2.607,5.26,5.26,0,0,0,2.188,4.314,4.712,4.712,0,0,1-2.227-.648v.065a5.13,5.13,0,0,0,3.946,5.084,4.738,4.738,0,0,1-2.222.089,4.967,4.967,0,0,0,4.593,3.6,9.556,9.556,0,0,1-6.107,2.217,9.447,9.447,0,0,1-1.175-.072,13.418,13.418,0,0,0,7.54,2.328c9.047,0,13.991-7.9,13.991-14.75,0-.224,0-.45-.012-.672a10.288,10.288,0,0,0,2.453-2.684,9.31,9.31,0,0,1-2.824.816A5.155,5.155,0,0,0,452.86,52.146Z" transform="translate(-429.55 -51.766)" fill="#2e2fff"/>
          </g>
        </g>
      </g>
    </g>
    <g id="组_4527" data-name="组 4527" transform="translate(-227 41)">
      <g id="组_4436-2" data-name="组 4436" transform="translate(-22839.055 -10935)">
        <g id="组_1794-2" data-name="组 1794" transform="translate(1310.056 1418.076)">
          <path id="路径_6317-2" data-name="路径 6317" d="M446.437,49.2a18.743,18.743,0,1,1-18.745,18.743A18.765,18.765,0,0,1,446.437,49.2m0-1.7a20.442,20.442,0,1,0,20.441,20.442A20.442,20.442,0,0,0,446.437,47.5Z" transform="translate(-425.994 -47.501)" fill="#4c5470"/>
          <g id="组_1767-2" data-name="组 1767" transform="translate(8.722 10.357)">
            <path id="路径_6318-2" data-name="路径 6318" d="M452.86,52.146a9.561,9.561,0,0,1-3.125,1.259,4.791,4.791,0,0,0-3.589-1.639,5.057,5.057,0,0,0-4.916,5.188,5.6,5.6,0,0,0,.125,1.18,13.737,13.737,0,0,1-10.135-5.416,5.373,5.373,0,0,0-.667,2.607,5.26,5.26,0,0,0,2.188,4.314,4.712,4.712,0,0,1-2.227-.648v.065a5.13,5.13,0,0,0,3.946,5.084,4.738,4.738,0,0,1-2.222.089,4.967,4.967,0,0,0,4.593,3.6,9.556,9.556,0,0,1-6.107,2.217,9.447,9.447,0,0,1-1.175-.072,13.418,13.418,0,0,0,7.54,2.328c9.047,0,13.991-7.9,13.991-14.75,0-.224,0-.45-.012-.672a10.288,10.288,0,0,0,2.453-2.684,9.31,9.31,0,0,1-2.824.816A5.155,5.155,0,0,0,452.86,52.146Z" transform="translate(-429.55 -51.766)" fill="#4c5470"/>
          </g>
        </g>
      </g>
    </g>
  </g>
</svg>
