<svg xmlns="http://www.w3.org/2000/svg" width="40.88" height="40.879" viewBox="0 0 40.88 40.879">
  <g id="组_5257" data-name="组 5257" transform="translate(21394 9446.886)">
    <g id="组_1781" data-name="组 1781" transform="translate(-21386 -9435.303)">
      <path id="路径_6236" data-name="路径 6236" d="M24.022,2.687A3.073,3.073,0,0,0,21.861.525C19.941,0,12.264,0,12.264,0s-7.677,0-9.6.505A3.136,3.136,0,0,0,.505,2.687,32.381,32.381,0,0,0,0,8.587a32.262,32.262,0,0,0,.505,5.9,3.074,3.074,0,0,0,2.162,2.162c1.939.525,9.6.525,9.6.525s7.677,0,9.6-.505a3.073,3.073,0,0,0,2.162-2.162,32.382,32.382,0,0,0,.505-5.9A30.735,30.735,0,0,0,24.022,2.687Zm0,0" transform="translate(0 0)" fill="#3d3fea"/>
      <path id="路径_6237" data-name="路径 6237" d="M204.969,109.839l6.384-3.677-6.384-3.677Zm0,0" transform="translate(-195.15 -97.777)" fill="#fff"/>
    </g>
    <path id="路径_6332" data-name="路径 6332" d="M446.435,49.2a18.741,18.741,0,1,1-18.743,18.741A18.763,18.763,0,0,1,446.435,49.2m0-1.7a20.44,20.44,0,1,0,20.439,20.44A20.44,20.44,0,0,0,446.435,47.5Z" transform="translate(-21819.994 -9494.387)" fill="#3d3fea"/>
  </g>
</svg>
