<svg xmlns="http://www.w3.org/2000/svg" data-name="Layer 1" width="794.67" height="615.311"><path d="M572.26 232.584a25.326 25.326 0 0 0-17.99-7.45v-14.816a25.8 25.8 0 0 0-25.817-25.818v-11.167h6.145a9.91 9.91 0 0 0 0-19.821h-6.145v-7.747h-3.04v7.747h-7.333a9.91 9.91 0 0 0 0 19.821h7.334V184.5h-18.93a13.708 13.708 0 0 0-13.71 13.71v26.924h-4.377a51.434 51.434 0 0 0-51.438 51.438v35.983a54.58 54.58 0 0 0-38.066 40.152h-22.547v-22.782h-13.669v-9.58h8.391a9.91 9.91 0 0 0 0-19.822h-8.39v-6.29h-3.038v6.29h-5.09a9.91 9.91 0 1 0 0 19.822h5.09v9.62a13.703 13.703 0 0 0-12.91 13.674v9.15a51.444 51.444 0 0 0-48.601 51.362v210.546h138.83v.002h142.75V250.572a25.325 25.325 0 0 0-7.45-17.988Z" fill="#f2f2f2"/><path d="M285.16 225.129v-14.808a25.82 25.82 0 0 0-25.82-25.82V170.03h6.012a9.91 9.91 0 1 0 0-19.822h-6.012v-4.435h-3.038v4.435h-7.468a9.91 9.91 0 1 0 0 19.822h7.468v14.472h-18.94a13.714 13.714 0 0 0-13.714 13.714v26.913h-4.37a51.444 51.444 0 0 0-51.445 51.444v33.333a54.553 54.553 0 0 0-32.476 42.801h-28.129v-22.782H93.56v-12.884h4.96a9.91 9.91 0 0 0 0-19.821h-4.96v-2.986h-3.038v2.986h-8.52a9.91 9.91 0 0 0 0 19.821h8.52v12.925a13.703 13.703 0 0 0-12.91 13.673v9.15a51.444 51.444 0 0 0-48.6 51.362v210.546h281.588V250.57a25.44 25.44 0 0 0-25.44-25.44Z" fill="#f2f2f2"/><path fill="#fff" d="M117.1 443.834H98.117v-15.188H117.1zM85.966 443.834H66.98v-15.188h18.985zM117.1 482.563H98.117v-15.188H117.1zM85.966 482.563H66.98v-15.188h18.985zM117.1 521.292H98.117v-15.188H117.1zM85.966 521.292H66.98v-15.188h18.985zM85.966 560.021H66.98v-15.188h18.985zM85.966 598.75H66.98v-15.188h18.985zM269.97 400.928h-61.51v-4.556h61.51zM269.97 429.026h-61.51v-4.556h61.51zM269.97 457.123h-61.51v-4.556h61.51zM263.897 208.042h-18.985v-15.188h18.985zM386.219 482.563h-18.985v-15.188h18.985zM355.084 482.563h-18.985v-15.188h18.985zM386.219 521.292h-18.985v-15.188h18.985zM355.084 521.292h-18.985v-15.188h18.985zM386.219 560.021h-18.985v-15.188h18.985zM355.084 560.021h-18.985v-15.188h18.985zM386.219 598.75h-18.985v-15.188h18.985zM355.084 598.75h-18.985v-15.188h18.985zM533.015 208.042H514.03v-15.188h18.985zM532.946 257.576h46.763v9.911h-46.763zM532.946 287.309h46.763v9.911h-46.763zM532.946 317.041h46.763v9.911h-46.763zM532.946 346.774h46.763v9.911h-46.763zM532.946 376.507h46.763v9.911h-46.763zM532.946 406.239h46.763v9.911h-46.763z"/><path fill="#ffb6b6" d="m309.242 462.575 10.744 8.991 40.564-38.086-15.857-13.269-35.451 42.364z"/><path d="m341.028 459.534-22.753-15.705 59.908-94.981c-43.42-25.238-73.28-56.025-97.645-89.843-8.28-11.413-13.328-24.696-1.776-33.258q.81-.6 1.663-1.137c13.172-8.208 8.896 4.093 26.951-1.948l16.314 17.403 35.247 34.296 60.121 38.378c12.091 7.718 15.446 23.952 7.494 36.26q-.63.975-1.342 1.894ZM310.603 455.252l18.838 13.944-6.433 7.687 7.199 26.056a6.261 6.261 0 0 1-10.054 6.47l-21.36-17.876 2.681-10.685-7.801 6.4-8.054-6.74Z" fill="#2f2e41"/><path fill="#3f3d56" d="m168.115 401.9 116.195-41.552 3.368 9.417-116.195 41.551zM311.485 521.085l-30.276-26.142a10.5 10.5 0 0 1 13.724-15.895l30.276 26.142a10.5 10.5 0 1 1-13.724 15.895Z"/><path d="M483.47 219.067a13.844 13.844 0 0 1-18.192-10.942l-108.154-27.85 17.638-18.507 103.011 30.247a13.92 13.92 0 0 1 5.697 27.052Z" fill="#ffb6b6"/><path d="M319.168 89.76s-17.586 2.037-17.27 22.302 43.424 66.43 50.15 74.079 73.844 11.557 73.844 11.557l20.967-18.436-62.169-20.946Z" fill="#be1d32"/><path d="m283.496 184.877-3.967 18.608s-7.22 15.487-5.82 19.625c1.389 4.115 63.883 26.485 63.883 26.485s5.355-27.903 14.29-46.725Z" fill="#ffb6b6"/><path d="m483.782 475.92-36.093 17.243a10.5 10.5 0 0 1-9.053-18.949l36.093-17.243a10.5 10.5 0 1 1 9.053 18.948ZM620.689 613.567a113.98 113.98 0 1 1 113.98-113.98 114.109 114.109 0 0 1-113.98 113.98Zm0-217.406a103.426 103.426 0 1 0 103.426 103.426A103.543 103.543 0 0 0 620.689 396.16Z" fill="#3f3d56"/><circle cx="625.709" cy="507.567" r="16" fill="#3f3d56"/><path d="M152.249 615.12a108 108 0 1 1 108-108 108.122 108.122 0 0 1-108 108Zm0-206a98 98 0 1 0 98 98 98.111 98.111 0 0 0-98-98Z" fill="#3f3d56"/><circle cx="152.248" cy="507.12" r="16" fill="#3f3d56"/><circle cx="369.248" cy="505.12" r="18.553" fill="#3f3d56"/><path fill="#3f3d56" d="m156.357 505.986-7.296-6.839 130.235-138.933 232.412-69.557 115.345 202.434-8.688 4.951-111.408-195.524-222.209 66.503-128.391 136.965z"/><path fill="#3f3d56" d="M255.219 499.678h98.272v10h-98.272zM277.022 312.334h10v52.283h-10zM471.951 197.103l9.517-3.073 32.623 101.021-9.517 3.073z"/><path fill="#3f3d56" d="m277.395 363.094 8.628-5.054 82 140-8.628 5.054zM379.896 498.441 555.888 378.43l5.634 8.262L385.53 506.703z"/><path d="M301.209 318.567h-40a10.5 10.5 0 0 1 0-21h40a10.5 10.5 0 1 1 0 21ZM496.209 205.567h-40a10.5 10.5 0 0 1 0-21h40a10.5 10.5 0 0 1 0 21Z" fill="#be1d32"/><path d="m754.18 551.395 1.144-25.72a83.066 83.066 0 0 1 38.745-9.807c-18.609 15.214-16.283 44.54-28.9 65a49.964 49.964 0 0 1-36.639 23.089l-15.572 9.534a83.724 83.724 0 0 1 17.647-67.845 80.873 80.873 0 0 1 14.863-13.81c3.73 9.834 8.712 19.559 8.712 19.559Z" fill="#f2f2f2"/><path d="M794.67 614.12a1.186 1.186 0 0 1-1.19 1.19H1.19a1.19 1.19 0 0 1 0-2.38h792.29a1.187 1.187 0 0 1 1.19 1.19Z" fill="#ccc"/><circle cx="545.053" cy="188.118" r="29.568" transform="rotate(-9.649 -399.602 1314.79)" fill="#ffb6b6"/><circle cx="664.862" cy="157.805" r="26.701" fill="#fd6584"/><path d="M724.625 145.163a13.248 13.248 0 0 0-11.18-9.29c-.058-.009-.113.002-.17-.002a1.666 1.666 0 0 0-.228-.052c-12.21-1.578-26.306 4.262-31.395 15.838a12.935 12.935 0 0 0-10.833-5.28 13.193 13.193 0 0 0-11.8 9.512 1.548 1.548 0 0 0 .689 1.694 6.766 6.766 0 0 0 2.79 1.416q3.326.705 6.676 1.291 6.536 1.144 13.142 1.85a195.42 195.42 0 0 0 26.918 1.018c2.992-.094 5.878-.193 8.62-1.514a12.827 12.827 0 0 0 4.946-4.315 14.551 14.551 0 0 0 1.825-12.166ZM669.129 180.764a13.248 13.248 0 0 0-11.18-9.29c-.057-.009-.112.002-.17-.002a1.663 1.663 0 0 0-.228-.052c-12.21-1.578-26.306 4.262-31.395 15.838a12.934 12.934 0 0 0-10.833-5.28 13.193 13.193 0 0 0-11.8 9.512 1.548 1.548 0 0 0 .689 1.694 6.766 6.766 0 0 0 2.79 1.416q3.326.705 6.676 1.291 6.537 1.144 13.142 1.85a195.427 195.427 0 0 0 26.918 1.018c2.993-.094 5.878-.193 8.62-1.514a12.828 12.828 0 0 0 4.946-4.315 14.552 14.552 0 0 0 1.825-12.166Z" fill="#f0f0f0"/><path d="m525.869 328.593-33.394-70.49.452-.214a19.498 19.498 0 0 1 25.97 9.274l16.697 35.245a19.498 19.498 0 0 1-9.274 25.97ZM423.79 340.983a19.53 19.53 0 0 1-18.675-13.991l-.142-.48 74.812-22.073.141.48a19.5 19.5 0 0 1-13.184 24.22l-37.406 11.037a19.586 19.586 0 0 1-5.545.807Z" fill="#3f3d56"/><path fill="#ffb6b6" d="m433.406 462.464 13.613-3.358-6.293-55.297-20.092 4.958 12.772 53.697z"/><path d="m426.959 446.596 21.245-9.899 3.684 9.323 26.333 6.11a6.261 6.261 0 0 1 .887 11.923l-25.904 10.238-8.11-7.456 1.901 9.91-9.766 3.86ZM447.782 412.637l-29.026 17.406-30.958-109.331c-50.22-.429-96.655-6.052-134.568-23.37-12.845-5.816-18.558-21.198-12.762-34.356q.407-.922.882-1.811c7.38-13.653 21.688-21.67 34.383-35.86l62.976 23.252-4.513 16.958 71.237 3.576c14.326.72 25.279 13.163 24.464 27.793q-.065 1.16-.228 2.31Z" fill="#2f2e41"/><path d="m324.64 74.59 19.354 10.119a5.532 5.532 0 0 1 3.475 5.4l5.04 20.172 17.738 37.544s4.622 19.98-4.198 38.846-28.34 65.896-28.34 65.896c-12.731 30.493-117.233 6.945-90-19 3.24-3.088 21.453-29.164 28.117-30.663l16.35-93.565a33.944 33.944 0 0 1 16.503-23.807c2.62-1.481 5.048-2.358 6.713-1.91 3.793.884 5.586-7.707 9.249-9.033Z" fill="#be1d32"/><path d="M492.72 198.566a13.844 13.844 0 0 1-19.89-7.42l-111.428-7.535 13.944-21.429 106.811 10.836a13.92 13.92 0 0 1 10.563 25.548Z" fill="#ffb6b6"/><path d="M307.484 101.595s-16.913 5.229-12.885 25.092 54.875 57.337 62.89 63.622 74.71-2.187 74.71-2.187l17.23-21.97-64.957-9.184Z" fill="#be1d32"/><path d="M374.39 35.944c-4.464 2.199-9.52-.989-13.426-4.159l1.398 1.183c-6.778 6.73-9.88 16.347-11.347 25.796-1.469 9.44-1.544 19.08-3.419 28.456-1.876 9.367-5.872 18.8-13.457 24.604-10.16 7.773-24.288 7.426-36.879 5.204-.168-.032-.324-.056-.492-.088a76.722 76.722 0 0 0 3.728-30.456 69.759 69.759 0 0 1-16.463 27.62 160.14 160.14 0 0 1-24.409-8.61c-5.105-2.287-10.61-5.43-12.076-10.83-1.469-5.36 1.757-11.03 6.112-14.469 4.355-3.438 9.725-5.264 14.702-7.733 4.968-2.458 9.874-5.94 11.82-11.14 4.488-11.96-8.788-25.497-3.79-37.261 2.466-5.785 8.617-8.981 14.404-11.456a213.119 213.119 0 0 1 27.176-9.48c8.13-2.234 16.626-3.992 24.946-2.668 8.32 1.324 16.508 6.292 19.578 14.149 5.005 1.634 10.32 3.48 13.563 7.644 3.243 4.156 3.059 11.368-1.668 13.694Z" fill="#2f2e41"/><path fill="#3f3d56" d="M67.657 544.094h168.737v2H67.657zM67.657 564.094h168.737v2H67.657zM541.657 544.094h168.737v2H541.657zM541.657 564.094h168.737v2H541.657z"/><ellipse cx="730.5" cy="429.5" rx="11.5" ry="17.5" transform="rotate(-20.288 231.471 923.371)" fill="#be1d32"/></svg>